<svg width="14" height="16" viewBox="0 0 14 16" fill="none" xmlns="http://www.w3.org/2000/svg">
<path fill-rule="evenodd" clip-rule="evenodd" d="M9.66088 6.97436C9.66088 4.93949 8.44524 3.28205 6.44063 3.28205C6.32476 3.28205 6.2135 3.29618 6.10337 3.31016L6.10336 3.31016L6.10335 3.31016C6.0681 3.31464 6.03298 3.3191 5.99785 3.32308L4.67755 1.97744L4.76208 1.94585C4.91336 1.88908 5.07035 1.83017 5.23304 1.78872V1.23077C5.23304 0.549744 5.77243 0 6.44063 0C7.10883 0 7.64823 0.549744 7.64823 1.23077V1.78872C9.95875 2.34667 11.271 4.45538 11.271 6.97436V8.69744L9.66088 7.05641V6.97436ZM8.05062 14.359C8.05062 15.2616 7.32607 16 6.4405 16C5.55494 16 4.83038 15.2616 4.83038 14.359H8.05062ZM1.13514 0.697416L0 1.85434L2.26222 4.15998C1.84359 4.98049 1.61012 5.94049 1.61012 6.97434V11.0769L0 12.7179V13.5384H11.4641L12.8649 14.9661L14 13.8092L1.13514 0.697416ZM3.22017 11.8975H9.66066V11.7005L3.49389 5.41541C3.31678 5.8913 3.22017 6.41643 3.22017 6.97438V11.8975Z" fill="#58B095"/>
</svg>
