<svg width="16" height="16" viewBox="0 0 16 16" fill="none" xmlns="http://www.w3.org/2000/svg">
<path fill-rule="evenodd" clip-rule="evenodd" d="M12.8145 11.0769V6.97437C12.8145 4.45539 11.5065 2.34667 9.20361 1.78872V1.23077C9.20361 0.549745 8.666 0 8 0C7.334 0 6.79639 0.549745 6.79639 1.23077V1.78872C4.5015 2.34667 3.18555 4.44719 3.18555 6.97437V11.0769L1.58073 12.718V13.5385H14.4193V12.718L12.8145 11.0769ZM8 16.0001C8.88265 16.0001 9.60482 15.2616 9.60482 14.359H6.39518C6.39518 15.2616 7.11735 16.0001 8 16.0001ZM4.79036 11.8975H11.2096V6.97443C11.2096 4.93956 9.998 3.28212 8 3.28212C6.002 3.28212 4.79036 4.93956 4.79036 6.97443V11.8975ZM4.45337 1.29606L3.30592 0.122721C1.38014 1.62426 0.112337 3.93811 0 6.56376H1.60482C1.72518 4.3894 2.81646 2.4858 4.45337 1.29606ZM15.9998 6.5642H14.395C14.2746 4.38983 13.1753 2.48624 11.5545 1.29649L12.6939 0.123155C14.6116 1.6247 15.8795 3.93855 15.9998 6.5642Z" fill="white"/>
</svg>
