<svg width="58" height="69" fill="none" xmlns="http://www.w3.org/2000/svg"><path opacity=".2" d="M58 1H24l14.57 18.63-6.531 14.439 6.531 21.424L24.502 69H58V1z" fill="url(#paint0_linear_136_842)"/><path d="M13.71 30.855h6.312c3.966-.061 7.084-1.105 9.355-3.134 2.27-2.028 3.405-4.768 3.405-8.219 0-7.75-3.86-11.625-11.58-11.625-3.632 0-6.538 1.044-8.718 3.133-2.15 2.059-3.224 4.799-3.224 8.22H.859c0-5.238 1.907-9.582 5.722-13.033C10.425 2.715 15.299.975 21.203.975c6.236 0 11.125 1.65 14.667 4.95 3.542 3.3 5.313 7.885 5.313 13.759 0 2.876-.938 5.66-2.815 8.355-1.847 2.694-4.375 4.708-7.584 6.04 3.633 1.15 6.433 3.057 8.401 5.721 1.998 2.664 2.997 5.919 2.997 9.764 0 5.933-1.937 10.64-5.812 14.122-3.875 3.482-8.916 5.222-15.122 5.222-6.206 0-11.262-1.68-15.167-5.04C2.206 60.508.27 56.072.27 50.562h8.446c0 3.482 1.135 6.267 3.406 8.356 2.27 2.089 5.313 3.133 9.127 3.133 4.057 0 7.16-1.06 9.31-3.178 2.148-2.12 3.223-5.162 3.223-9.128 0-3.845-1.18-6.796-3.542-8.855-2.361-2.059-5.767-3.118-10.217-3.179H13.71v-6.856z" fill="#2158F5"/><defs><linearGradient id="paint0_linear_136_842" x1="25.072" y1="30.122" x2="58" y2="30.112" gradientUnits="userSpaceOnUse"><stop stop-color="#2158F5"/><stop offset="1" stop-color="#2158F5" stop-opacity="0"/></linearGradient></defs></svg>