<svg width="56" height="68" fill="none" xmlns="http://www.w3.org/2000/svg"><path opacity=".2" d="M56 1H23.5L41 18.215 9 61.951 31 68h25V1z" fill="url(#paint0_linear_136_841)"/><path d="M44.816 68H1.495v-6.04L24.38 36.53c3.391-3.844 5.722-6.962 6.994-9.354 1.301-2.422 1.952-4.92 1.952-7.492 0-3.452-1.044-6.282-3.133-8.492-2.089-2.21-4.874-3.315-8.356-3.315-4.177 0-7.432 1.196-9.763 3.587-2.3 2.362-3.451 5.661-3.451 9.9h-8.4c0-6.085 1.952-11.005 5.857-14.759 3.937-3.753 9.19-5.63 15.758-5.63 6.146 0 11.005 1.62 14.577 4.859 3.572 3.208 5.358 7.492 5.358 12.85 0 6.51-4.147 14.26-12.442 23.25l-17.71 19.21h33.195V68z" fill="#2158F5"/><defs><linearGradient id="paint0_linear_136_841" x1="20" y1="29" x2="56" y2="29.094" gradientUnits="userSpaceOnUse"><stop stop-color="#2158F5"/><stop offset="1" stop-color="#2158F5" stop-opacity="0"/></linearGradient></defs></svg>