<svg width="27" height="17" fill="none" xmlns="http://www.w3.org/2000/svg"><rect x="3.348" y=".759" width="22.732" height="12.336" rx=".5" fill="#4A9029" stroke="#fff"/><rect x=".711" y="3.82" width="22.732" height="12.336" rx=".5" fill="#4A9029" stroke="#fff"/><path d="M14.215 9.988c0 1.202-.962 2.167-2.137 2.167s-2.137-.965-2.137-2.167c0-1.203.962-2.168 2.137-2.168s2.137.965 2.137 2.168zm4.937-5.672c0 2.359 1.316 3.83 3.798 3.83M5.004 4.316c0 2.359-1.315 3.83-3.798 3.83m3.798 7.511c0-2.358-1.315-3.829-3.798-3.829m17.946 3.828c0-2.358 1.316-3.829 3.798-3.829" stroke="#fff"/></svg>