<svg width="22" height="22" fill="none" xmlns="http://www.w3.org/2000/svg"><path fill-rule="evenodd" clip-rule="evenodd" d="M20.5 10.887H1.497v9.501h19.001v-9.5zM.14 9.53v10.858c0 .75.608 1.357 1.358 1.357h19.001c.75 0 1.357-.607 1.357-1.357V9.53H.141zm6.787-8.143H5.57V4.1H1.498v2.714h19.001V4.101h-4.072V1.387H15.07V4.1H6.927V1.387zm-2.715 0v1.357H1.498C.748 2.744.14 3.35.14 4.1v4.072h21.715V4.1c0-.75-.607-1.357-1.357-1.357h-2.714V1.387c0-.75-.608-1.358-1.358-1.358H15.07c-.75 0-1.357.608-1.357 1.358v1.357H8.284V1.387c0-.75-.608-1.358-1.357-1.358H5.57c-.75 0-1.358.608-1.358 1.358z" fill="#fff"/><path d="M4.21 14.28c0-.375.305-.678.68-.678h12.215a.679.679 0 110 1.357H4.89a.679.679 0 01-.68-.679zm0 2.715a.68.68 0 01.68-.679h5.429a.679.679 0 010 1.357h-5.43a.679.679 0 01-.678-.678z" fill="#fff"/></svg>