<svg width="26" height="21" viewBox="0 0 28 23" fill="none" xmlns="http://www.w3.org/2000/svg"><path d="M22.613 4.142l-17.694.03c-.449 0-.778.335-.777.79 0 .456.33.79.78.788l17.694-.029c.42 0 .778-.366.777-.79 0-.456-.33-.79-.78-.789zM12.83 8.44l-7.903.013c-.45 0-.778.335-.777.79 0 .456.33.79.78.789l7.904-.013c.21 0 .449-.092.598-.275a.587.587 0 00.179-.516c-.001-.456-.331-.79-.78-.788zm.009 4.098l-7.904.013c-.45.001-.778.336-.777.791 0 .456.33.79.78.788l7.903-.013a.83.83 0 00.599-.244.617.617 0 00.178-.546c0-.456-.33-.79-.78-.789z" fill="#fff"/><path d="M25.482.646L2.549.684C1.53.686.724 1.507.726 2.54l.023 14.209a1.83 1.83 0 001.83 1.85l13.113-.023-.444 3.007c-.03.243.06.516.27.698.21.151.48.181.749.09l3.47-1.494 3.655 1.512c.09.06.21.06.27.06.09 0 .329-.03.449-.152a.667.667 0 00.268-.699l-.484-3.005 1.617-.003c1.017-.001 1.824-.822 1.823-1.855l-.024-14.24a1.827 1.827 0 00-1.83-1.849zm-5.448 18.682c-.09-.06-.18-.06-.27-.06-.15 0-.269.061-.299.061l-2.573 1.097.326-2.338.148-.88.06-.365c.15.09.299.151.449.212.24.09.479.181.748.241l.45.09c.18.03.36.03.539.03h.12c.18 0 .329 0 .538-.031a4.566 4.566 0 001.855-.672l.091.547c.03.121.03.243.06.364.03.243.091.547.152.82l.302 1.973-2.696-1.089zm2.148-4.618c-.568.76-1.495 1.216-2.483 1.218a3.21 3.21 0 01-2.487-1.18 3.234 3.234 0 01-.752-2.063c-.003-1.792 1.432-3.251 3.198-3.254 1.767-.003 3.206 1.452 3.21 3.243.03.911-.357 1.61-.686 2.036zm3.686 1.997c0 .183-.18.365-.359.365l-1.826.003-.242-1.578c.597-.82.925-1.823.923-2.825-.004-2.612-2.104-4.733-4.678-4.73-2.575.005-4.667 2.134-4.663 4.745.002 1.124.393 2.155 1.113 3.035l-.207 1.366-13.353.022c-.18 0-.36-.181-.36-.363l-.023-14.21c0-.152.09-.273.209-.334.03 0 .09-.03.15-.03l22.932-.039c.18 0 .36.182.36.364l.024 14.21z" fill="#fff"/></svg>