<svg width="24" height="20" fill="none" xmlns="http://www.w3.org/2000/svg"><circle cx="20.076" cy="16.547" r=".663" fill="#fff" stroke="#fff" stroke-width="1.2"/><path stroke="#fff" stroke-width="1.2" stroke-linecap="round" d="M10.229 4.108h3.539"/><circle cx="11.999" cy="11.611" r="4.821" stroke="#fff" stroke-width="1.2"/><path d="M2.066 19.157a.9.9 0 01-.9-.9V5.787a.9.9 0 01.9-.9H5.17a2.1 2.1 0 001.621-.765l2.085-2.534a.9.9 0 01.695-.328h4.843a.9.9 0 01.7.335l2.028 2.512a2.1 2.1 0 001.634.78h3.156a.9.9 0 01.9.9v12.47a.9.9 0 01-.9.9H2.066z" stroke="#fff" stroke-width="1.2"/></svg>