<svg xmlns="http://www.w3.org/2000/svg" viewBox="0 0 42.001 42"><g transform="translate(-141.914 -143.637)"><path fill="#4aae48" d="M162.914 175.383a10.4 10.4 0 01-5.825-1.722 10.933 10.933 0 01-3.938-4.43l-8.613-15.1a21.381 21.381 0 00-2.625 10.5 20.221 20.221 0 005.127 13.741 20.52 20.52 0 0012.756 7.014l6.091-10.541a9.751 9.751 0 01-2.973.538z"/><path fill="#ea3939" d="M156.311 156.146a10.289 10.289 0 016.6-2.009h18.054a21.17 21.17 0 00-7.588-7.711 20.933 20.933 0 00-27.051 5.333l6.091 10.253a10.726 10.726 0 013.894-5.866z"/><path fill="#fed14b" d="M182.339 156.761h-12.2a11.205 11.205 0 013.528 7.875 10.741 10.741 0 01-1.887 6.153l-8.613 14.847a21.005 21.005 0 0020.754-21 18.683 18.683 0 00-1.582-7.875z"/><circle fill="#188fd1" cx="7.875" cy="7.875" r="7.875" transform="translate(155.039 156.761)"/></g></svg>