<svg width="34" height="27" fill="none" xmlns="http://www.w3.org/2000/svg"><g clip-path="url(#clip0_1465_6268)" fill="#C7D5FD"><path d="M33.424 12.631h-5.006c-1.57 0-2.915 1.303-2.915 2.99 0 1.686 1.345 2.99 2.915 2.99h5.006c.225 0 .449-.23.449-.46v-5.136c0-.154-.224-.384-.449-.384zm-4.932 4.6c-.822 0-1.494-.69-1.494-1.534 0-.843.672-1.533 1.494-1.533s1.495.69 1.495 1.533c0 .844-.673 1.533-1.495 1.533z"/><path d="M23.936 15.508c0-2.476 1.943-4.565 4.409-4.565h5.53V6.765c0-1.857-1.42-3.327-3.213-3.327H1.667C.471 3.438-.5 4.442-.5 5.68v19.575c0 1.238.971 2.244 2.167 2.244h28.995c1.718 0 3.213-1.47 3.213-3.327V20.15H28.42c-2.541 0-4.484-2.167-4.484-4.642z"/><path fill-rule="evenodd" clip-rule="evenodd" d="M1.224 1.719h30.694A2.822 2.822 0 0031.061.61 2.919 2.919 0 0029.258 0H3.163a1.942 1.942 0 00-1.94 1.719z"/></g><defs><clipPath id="clip0_1465_6268"><path fill="#fff" d="M0 0h34v27H0z"/></clipPath></defs></svg>