<svg width="88" height="88" fill="none" xmlns="http://www.w3.org/2000/svg"><circle cx="44" cy="44" r="44" fill="#454545"/><path d="M29.156 47.381a4.246 4.246 0 100-8.491 4.246 4.246 0 000 8.491z" fill="#000"/><path d="M29.156 45.176a2.04 2.04 0 100-4.081 2.04 2.04 0 000 4.08z" fill="#BFBFBF"/><path d="M29.156 44.073a.937.937 0 100-1.875.937.937 0 000 1.875z" fill="#fff"/><path d="M61.466 47.381a4.246 4.246 0 100-8.491 4.246 4.246 0 000 8.491z" fill="#000"/><path d="M61.466 45.176a2.04 2.04 0 100-4.081 2.04 2.04 0 000 4.08z" fill="#BFBFBF"/><path d="M61.466 44.073a.937.937 0 100-1.875.937.937 0 000 1.875z" fill="#fff"/><g filter="url(#filter0_d)"><path d="M16.312 38.496l-.354 1.792s-.615 1.215 1.669 1.3c2.284.086 6.957.277 6.957.277l.189-1.056s-.13-.758 1.07-.724c1.2.035 6.631 0 6.631 0a1.469 1.469 0 011.067 1.257c.195 1.089.127 1.57 1.132 1.567 1.004-.003 21.54.25 21.54.25s.696-4.668 3.188-4.818a28.11 28.11 0 014.008 0s1.636.097 2.072 1.39a81.59 81.59 0 01.69 2.135h2.711l.957-4.197v-2.003a.993.993 0 00-.957-.748 3.435 3.435 0 01-1.574-.622s-9.136-1.139-12.046-1.005c-1.503-1.54-4.812-4.384-4.812-4.384s-1.385-1.296-9.079-1.018c-7.694.277-8.746.476-11.932 1.57a32.87 32.87 0 00-3.847 4.12c-2.648.106-5.26.644-7.734 1.594a4.51 4.51 0 000 1.694l-.76 1.627-.786.002z" fill="#BFBFBF"/></g><g filter="url(#filter1_d)"><path d="M32.39 31.36a4.555 4.555 0 011.756-.977c1.046-.293 6.363-.612 6.363-.612s.313-.063.317.611c.005.675.188 3.28.188 3.28s.078.367-.505.389c-.582.02-7.569 0-7.569 0s-.27-.09-.322-.576a773.62 773.62 0 00-.229-2.114z" fill="#fff"/></g><g filter="url(#filter2_d)"><path d="M42.449 30.279l.208 3.185s.021.512.46.508c.44-.004 8.213 0 8.213 0s.713-.158.438-.508c-.275-.35-3.064-3.185-3.064-3.185a1.402 1.402 0 00-1.243-.47c-.946.007-4.591 0-4.591 0s-.44-.035-.422.312" fill="#fff"/></g><g filter="url(#filter3_d)"><path d="M50.733 29.154l-.45.346a.442.442 0 000 .722c.43.397 2.814 2.743 2.814 2.743a1.279 1.279 0 001.32.345c.713-.3.96 0 .96 0l-4.644-4.156z" fill="#fff"/></g><g filter="url(#filter4_d)"><path d="M25.317 33.74h1.323s.268.504 1-.352c.732-.857 1.9-2.161 1.9-2.161a2.36 2.36 0 000-1.036c-.116-.723-.446-.504-.446-.504l-3.777 4.052z" fill="#fff"/></g><path d="M17.853 35.247c-.173-.1-1.34.435-1.34.435l-.143.303a.426.426 0 00-.368.087 1.45 1.45 0 00-.111.887c.07.103.167.184.28.236v.868l.199.522h.722l.365-.522.395-1.105s.174-1.611.001-1.71zm51.89.458c-.122-.536-.325-.66-.325-.66s1.087.142 1.226.329c.07.417.07.843 0 1.26-.062.34-.155.673-.278.997-.1.127-.724 0-.724 0l.193-.998a3.475 3.475 0 00-.092-.928zm-2.598 3.627h2.433v.782h-1.75l-.683-.782zM32.39 34.793v.47h.891v-.23s.93-.189 1.04 0c.111.189.594.23.594.23v-.47H32.39zm10.255 0v.47h.892v-.23s.93-.189 1.04 0c.11.189.593.23.593.23v-.47h-2.524z" fill="#fff"/><g filter="url(#filter5_d)"><path d="M16.041 39.69c.58.025 1.476 0 1.476 0s.812.224.76.897c-.051.674-.291 1.111-.505 1.142-.214.03-1.879 0-1.879 0s-.968.076-1.028-.771a1.132 1.132 0 011.176-1.267z" fill="#fff"/></g><g filter="url(#filter6_d)"><path d="M65.224 40.492h4.138s1.012-.037 1.073.593c.06.63-.25 1.139-.543 1.146-.294.008-4.073 0-4.073 0l-.595-1.74z" fill="#fff"/></g><path d="M62.47 60.716a4 4 0 005.657-5.657l-5.657 5.657zm-9.873-9.873l9.873 9.873 5.657-5.657-9.873-9.872-5.657 5.656z" fill="#F06B00"/><path d="M54.699 39.642l-7.73 7.73a2.877 2.877 0 000 4.069l.813.814a2.877 2.877 0 004.069 0l7.73-7.73a2.877 2.877 0 000-4.07l-.814-.813a2.877 2.877 0 00-4.068 0z" fill="#F06B00"/><path d="M48.22 47.749a2.302 2.302 0 00-3.255 3.255l3.254 3.255a2.301 2.301 0 103.255-3.255l-3.255-3.255zm10.17-10.172a2.301 2.301 0 10-3.254 3.255l3.255 3.255a2.302 2.302 0 003.255-3.255l-3.255-3.255z" fill="#F06B00"/><rect x="39.157" y="58.225" width="15.525" height="4.05" rx="1" fill="#F06B00"/><rect x="35.107" y="60.251" width="23.625" height="2.025" rx="1" fill="#F06B00"/><defs><filter id="filter0_d" x="7.883" y="22.85" width="69.956" height="31.309" filterUnits="userSpaceOnUse" color-interpolation-filters="sRGB"><feFlood flood-opacity="0" result="BackgroundImageFix"/><feColorMatrix in="SourceAlpha" values="0 0 0 0 0 0 0 0 0 0 0 0 0 0 0 0 0 0 127 0"/><feOffset dy="3"/><feGaussianBlur stdDeviation="4"/><feColorMatrix values="0 0 0 0 0 0 0 0 0 0 0 0 0 0 0 0 0 0 0.161 0"/><feBlend in2="BackgroundImageFix" result="effect1_dropShadow"/><feBlend in="SourceGraphic" in2="effect1_dropShadow" result="shape"/></filter><filter id="filter1_d" x="24.39" y="24.769" width="24.628" height="20.291" filterUnits="userSpaceOnUse" color-interpolation-filters="sRGB"><feFlood flood-opacity="0" result="BackgroundImageFix"/><feColorMatrix in="SourceAlpha" values="0 0 0 0 0 0 0 0 0 0 0 0 0 0 0 0 0 0 127 0"/><feOffset dy="3"/><feGaussianBlur stdDeviation="4"/><feColorMatrix values="0 0 0 0 0 0 0 0 0 0 0 0 0 0 0 0 0 0 0.161 0"/><feBlend in2="BackgroundImageFix" result="effect1_dropShadow"/><feBlend in="SourceGraphic" in2="effect1_dropShadow" result="shape"/></filter><filter id="filter2_d" x="34.447" y="24.796" width="25.384" height="20.176" filterUnits="userSpaceOnUse" color-interpolation-filters="sRGB"><feFlood flood-opacity="0" result="BackgroundImageFix"/><feColorMatrix in="SourceAlpha" values="0 0 0 0 0 0 0 0 0 0 0 0 0 0 0 0 0 0 127 0"/><feOffset dy="3"/><feGaussianBlur stdDeviation="4"/><feColorMatrix values="0 0 0 0 0 0 0 0 0 0 0 0 0 0 0 0 0 0 0.161 0"/><feBlend in2="BackgroundImageFix" result="effect1_dropShadow"/><feBlend in="SourceGraphic" in2="effect1_dropShadow" result="shape"/></filter><filter id="filter3_d" x="42.096" y="24.154" width="21.281" height="20.215" filterUnits="userSpaceOnUse" color-interpolation-filters="sRGB"><feFlood flood-opacity="0" result="BackgroundImageFix"/><feColorMatrix in="SourceAlpha" values="0 0 0 0 0 0 0 0 0 0 0 0 0 0 0 0 0 0 127 0"/><feOffset dy="3"/><feGaussianBlur stdDeviation="4"/><feColorMatrix values="0 0 0 0 0 0 0 0 0 0 0 0 0 0 0 0 0 0 0.161 0"/><feBlend in2="BackgroundImageFix" result="effect1_dropShadow"/><feBlend in="SourceGraphic" in2="effect1_dropShadow" result="shape"/></filter><filter id="filter4_d" x="17.317" y="24.656" width="20.28" height="20.231" filterUnits="userSpaceOnUse" color-interpolation-filters="sRGB"><feFlood flood-opacity="0" result="BackgroundImageFix"/><feColorMatrix in="SourceAlpha" values="0 0 0 0 0 0 0 0 0 0 0 0 0 0 0 0 0 0 127 0"/><feOffset dy="3"/><feGaussianBlur stdDeviation="4"/><feColorMatrix values="0 0 0 0 0 0 0 0 0 0 0 0 0 0 0 0 0 0 0.161 0"/><feBlend in2="BackgroundImageFix" result="effect1_dropShadow"/><feBlend in="SourceGraphic" in2="effect1_dropShadow" result="shape"/></filter><filter id="filter5_d" x="6.857" y="34.69" width="19.423" height="18.053" filterUnits="userSpaceOnUse" color-interpolation-filters="sRGB"><feFlood flood-opacity="0" result="BackgroundImageFix"/><feColorMatrix in="SourceAlpha" values="0 0 0 0 0 0 0 0 0 0 0 0 0 0 0 0 0 0 127 0"/><feOffset dy="3"/><feGaussianBlur stdDeviation="4"/><feColorMatrix values="0 0 0 0 0 0 0 0 0 0 0 0 0 0 0 0 0 0 0.161 0"/><feBlend in2="BackgroundImageFix" result="effect1_dropShadow"/><feBlend in="SourceGraphic" in2="effect1_dropShadow" result="shape"/></filter><filter id="filter6_d" x="57.224" y="35.492" width="21.218" height="17.743" filterUnits="userSpaceOnUse" color-interpolation-filters="sRGB"><feFlood flood-opacity="0" result="BackgroundImageFix"/><feColorMatrix in="SourceAlpha" values="0 0 0 0 0 0 0 0 0 0 0 0 0 0 0 0 0 0 127 0"/><feOffset dy="3"/><feGaussianBlur stdDeviation="4"/><feColorMatrix values="0 0 0 0 0 0 0 0 0 0 0 0 0 0 0 0 0 0 0.161 0"/><feBlend in2="BackgroundImageFix" result="effect1_dropShadow"/><feBlend in="SourceGraphic" in2="effect1_dropShadow" result="shape"/></filter></defs></svg>