<svg width="88" height="88" fill="none" xmlns="http://www.w3.org/2000/svg"><circle cx="44" cy="44" r="44" fill="#454545"/><path d="M14 45.449s.085 2.299 1.215 3.068a11.294 11.294 0 004.404 1.817c.8.19 1.633.19 2.433 0 0 0 .443 2.483 4.154 2.466 3.711-.017 4.747-2.466 4.747-2.466h1.235l.52.62h.861l.468-.62h27.57s.923 2.358 4.903 2.466c3.98.108 4.365-2.764 4.365-2.764h.681s.09 1.101.426.918c.335-.184.396-.664 1.187-.918.792-.255 3.852-.66 3.933-1.853a1.484 1.484 0 00-1.415.333h-2.518l-.742-5.042-4.421-2.24h-6.398l-7.487 3.483-16.418.977h-3.879l-3.14-3.514-3.47-1.266h-4.47l-3.127 2.56-.581 3.196-3.001-.313L14 45.45z" fill="#000"/><path d="M14.176 37.037c-.563-.108 1.604-.24 4.188-1.655 2.584-1.415 10.633-4.16 16.844-4.314 6.21-.153 8.153 0 8.153 0s6.546-.052 18.136 6.35c4.758.457 14.313 2.982 15.463 4.483.184.383.25.813.187 1.234a12.27 12.27 0 01-.437 1.563.525.525 0 00.25.805.938.938 0 01.388 1.11c-.138.34-.636 1.666-.636 1.666a1.022 1.022 0 01-.707.359c-.43.01-3.114 0-3.114 0s.399-6.829-6.565-7.133c-6.332-.281-6.814 7.133-6.814 7.133l-26.583-.468s-.101-6.665-6.43-6.665c-6.327 0-6.928 5.877-6.928 5.877l-4.385-.399a1.005 1.005 0 01-.642-.655 2.313 2.313 0 00-.368-.767 4.143 4.143 0 010-1.842 17.12 17.12 0 00.368-3.144h.422v-2.43h-.421s.193-.997-.37-1.108z" fill="#BFBFBF"/><path d="M22.523 34.974s5.43-2.725 13.88-2.876c8.449-.15 7.63 0 7.63 0s7.285-.091 15.776 6.229c.367.273.228.5-.56.477-.787-.022-27.982-1.46-27.982-1.46s-7.541-.437-8.744-1.196c-1.204-.758 0-1.174 0-1.174z" fill="#fff"/><path d="M39.482 31.643l.319.514s.567 4.907.34 5.805c-.227.897 4.407.625 4.407.625l-.88-.625-1.33-4.34s-.33-1.903.787-1.98c1.118-.075-3.643 0-3.643 0z" fill="#BFBFBF"/><path d="M26.433 51.254a3.414 3.414 0 100-6.827 3.414 3.414 0 000 6.827z" stroke="#BFBFBF" stroke-width="2"/><path d="M24.291 46.18c-.316.29-.482.349-.567 1.452a1.622 1.622 0 00.567 1.524.543.543 0 00.526-.188c.174-.26-.108-.563-.089-1.102a5.475 5.475 0 01.09-1.203c.062-.039-.21-.773-.527-.483z" fill="#fff"/><path d="M26.081 44.108l.254 3.838h.264l.391-3.996-.909.158z" fill="#BFBFBF"/><path d="M28.358 44.667l-2.051 3.254.214.156 2.665-3.002-.828-.408z" fill="#BFBFBF"/><path d="M23.818 45.043l2.462 2.956.214-.155-2.032-3.463-.644.662z" fill="#BFBFBF"/><path d="M22.74 47.145l3.76.814.072-.254-3.732-1.478-.1.918z" fill="#BFBFBF"/><path d="M29.938 46.459l-3.642 1.239.069.255 3.96-.657-.387-.837z" fill="#BFBFBF"/><path d="M26.834 51.658l-.254-3.839h-.264l-.392 3.996.91-.157z" fill="#BFBFBF"/><path d="M24.556 51.099l2.052-3.255-.214-.155-2.666 3.002.828.408z" fill="#BFBFBF"/><path d="M29.096 50.722l-2.462-2.956-.214.155 2.032 3.463.644-.662z" fill="#BFBFBF"/><path d="M30.175 48.62l-3.76-.814-.073.254 3.733 1.478.1-.918z" fill="#BFBFBF"/><path d="M22.976 49.307l3.642-1.24-.069-.255-3.96.657.387.838z" fill="#BFBFBF"/><path d="M66.347 51.254a3.414 3.414 0 100-6.827 3.414 3.414 0 000 6.827z" stroke="#BFBFBF" stroke-width="2"/><path d="M64.047 46.18c-.317.29-.482.349-.567 1.452a1.621 1.621 0 00.567 1.524.543.543 0 00.526-.188c.174-.26-.108-.563-.09-1.102a5.47 5.47 0 01.09-1.203c.063-.039-.21-.773-.526-.483z" fill="#fff"/><path d="M65.995 44.108l.254 3.838h.265l.39-3.996-.909.158z" fill="#BFBFBF"/><path d="M68.272 44.667L66.22 47.92l.214.156 2.666-3.002-.828-.408z" fill="#BFBFBF"/><path d="M63.732 45.043l2.462 2.956.213-.155-2.031-3.463-.644.662z" fill="#BFBFBF"/><path d="M62.653 47.145l3.76.814.073-.254-3.733-1.478-.1.918z" fill="#BFBFBF"/><path d="M69.852 46.459l-3.642 1.239.068.255 3.961-.657-.387-.837z" fill="#BFBFBF"/><path d="M66.748 51.658l-.254-3.839h-.265l-.391 3.996.91-.157z" fill="#BFBFBF"/><path d="M64.47 51.099l2.051-3.255-.214-.155-2.665 3.002.828.408z" fill="#BFBFBF"/><path d="M69.01 50.722l-2.462-2.956-.214.155 2.032 3.463.644-.662z" fill="#BFBFBF"/><path d="M70.088 48.62l-3.76-.814-.073.254 3.733 1.478.1-.918z" fill="#BFBFBF"/><path d="M62.89 49.307l3.642-1.24-.068-.255-3.96.657.386.838z" fill="#BFBFBF"/><path d="M14.603 38.166c.356.04.715.04 1.07 0l2.678 1.447s1.01.571 0 .78c-.886.131-1.782.18-2.677.148h-1.07s-.394-.266-.373-.595c.022-.33 0-1.403 0-1.403s.134-.455.372-.377zm24.879.64c.296.055 5.367.27 5.367.27s.81.583.273.647c-.535.065-5.088-.312-5.088-.312s-.847-.66-.552-.605zm30.904 1.743h2.777a6.744 6.744 0 012.87 1.155c.263.18.29.203.27.563a.845.845 0 01-.27.568h-3.117l-2.53-2.286zm4.135 4.887c.058.181.62 2.224.62 2.224s.305.255.312-.152c.007-.406 0-2.008 0-2.008s-.02-.2-.312-.209c-.292-.01-.678-.037-.62.145z" fill="#fff"/><path d="M59.803 47.142h7.23a1.359 1.359 0 011.445 1.25l.021 14.38c-.012.019.036.503-.546 0l-4.47-3.808s-4.01 3.35-4.54 3.808c-.53.458-.587 0-.587 0v-14.38a1.36 1.36 0 011.447-1.25z" fill="#B95200"/><path d="M63.428 55.914a9.387 9.387 0 100-18.775 9.387 9.387 0 000 18.775z" fill="#F06B00"/></svg>