<svg width="88" height="88" fill="none" xmlns="http://www.w3.org/2000/svg"><circle cx="44" cy="44" r="44" fill="#454545"/><g filter="url(#filter0_d)"><path d="M30.426 23.186h30.8a1.433 1.433 0 011.432 1.433v35.086L56.2 66.163H30.426a1.433 1.433 0 01-1.433-1.433V24.62a1.433 1.433 0 011.433-1.433z" fill="#fff"/></g><path d="M57.644 59.716h5.014l-6.447 6.447v-5.014a1.433 1.433 0 011.433-1.433z" fill="#BCBCBC"/><path d="M59.077 26.768H32.574a.716.716 0 000 1.432h26.503a.716.716 0 100-1.432zm0 3.581H32.574a.716.716 0 000 1.433h26.503a.716.716 0 100-1.433zm-3.582 3.581h-22.92a.716.716 0 000 1.433h22.92a.716.716 0 100-1.433zm-5.73 3.582h-17.19a.716.716 0 000 1.432h17.19a.716.716 0 100-1.432zm0 3.581h-17.19a.716.716 0 000 1.433h17.19a.716.716 0 100-1.433zm9.312 3.582H32.574a.716.716 0 000 1.432h26.503a.716.716 0 100-1.432zm0 3.581H32.574a.716.716 0 000 1.432h26.503a.716.716 0 100-1.432zm-13.61 3.581H32.574a.716.716 0 000 1.433h12.893a.716.716 0 100-1.433zm-7.163 3.582h-5.73a.716.716 0 100 1.432h5.73a.716.716 0 000-1.432z" fill="#BFBFBF"/><path d="M42.844 27.604l-4.559-4.559L16 45.331l4.558 4.558 22.286-22.286zm2.777-7.314l-1.764 6.3-4.559-4.558 6.323-1.741z" fill="#F06B00"/><path d="M38.792 27.604l-.507-.507-18.233 18.234.506.506 18.234-18.234z" fill="#fff"/><defs><filter id="filter0_d" x="22.993" y="20.186" width="45.665" height="54.977" filterUnits="userSpaceOnUse" color-interpolation-filters="sRGB"><feFlood flood-opacity="0" result="BackgroundImageFix"/><feColorMatrix in="SourceAlpha" values="0 0 0 0 0 0 0 0 0 0 0 0 0 0 0 0 0 0 127 0"/><feOffset dy="3"/><feGaussianBlur stdDeviation="3"/><feColorMatrix values="0 0 0 0 0 0 0 0 0 0 0 0 0 0 0 0 0 0 0.161 0"/><feBlend in2="BackgroundImageFix" result="effect1_dropShadow"/><feBlend in="SourceGraphic" in2="effect1_dropShadow" result="shape"/></filter></defs></svg>