<svg width="148" height="152" fill="none" xmlns="http://www.w3.org/2000/svg"><path opacity=".4" d="M23 148.5c0-1.933 1.465-3.5 3.273-3.5h102.454c1.808 0 3.273 1.567 3.273 3.5s-1.465 3.5-3.273 3.5H26.273c-1.808 0-3.273-1.567-3.273-3.5z" fill="url(#paint0_radial_2154_26626)"/><path opacity=".5" d="M148 74c0 40.869-33.131 74-74 74-40.87 0-74-33.131-74-74C0 33.13 33.13 0 74 0c40.869 0 74 33.13 74 74z" fill="#F0E6CF"/><g filter="url(#filter0_i_2154_26626)"><path d="M138 73.5c0 35.07-28.654 63.5-64 63.5-35.346 0-64-28.43-64-63.5S38.654 10 74 10c35.346 0 64 28.43 64 63.5z" fill="url(#paint1_linear_2154_26626)"/></g><path fill-rule="evenodd" clip-rule="evenodd" d="M73.277 76.623a1.842 1.842 0 01.967-2.42l33.502-14.375a1.842 1.842 0 111.453 3.387L75.697 77.589a1.842 1.842 0 01-2.42-.966zm-3.43-.621a2.456 2.456 0 01-3.2 1.35L44.252 68.25a2.456 2.456 0 111.85-4.551L68.496 72.8a2.456 2.456 0 011.35 3.2z" fill="#fff"/><path d="M74.852 81.724A5.597 5.597 0 1170.5 71.41a5.597 5.597 0 014.352 10.314z" fill="#AED9A9"/><path fill-rule="evenodd" clip-rule="evenodd" d="M127.617 80.754l.914.119a56.326 56.326 0 000-14.526l-.914.12-.914.119c.299 2.298.453 4.642.453 7.024 0 2.381-.154 4.726-.453 7.024l.914.12zm-3.68-28.077l.852-.354a55.604 55.604 0 00-7.255-12.568l-.731.563-.731.563a53.74 53.74 0 017.014 12.15l.851-.354zM106.726 30.22l.562-.732a55.44 55.44 0 00-12.543-7.27l-.353.854-.353.853a53.573 53.573 0 0112.125 7.028l.562-.733zM80.63 19.386l.119-.916A55.927 55.927 0 0073.5 18c-2.457 0-4.876.16-7.249.47l.12.916.119.916a54.07 54.07 0 017.01-.455c2.377 0 4.717.155 7.01.455l.12-.916zm-28.022 3.687l-.353-.853a55.415 55.415 0 00-12.543 7.269l.562.732.562.733a53.568 53.568 0 0112.126-7.028l-.354-.853zm-22.41 17.245l-.732-.563a55.573 55.573 0 00-7.255 12.568l.852.354.851.354a53.725 53.725 0 017.014-12.15l-.73-.563zM18 73.61c0-2.462.16-4.886.47-7.263l.913.12.914.119a54.408 54.408 0 00-.453 7.024c0 2.381.154 4.726.453 7.024l-.914.12-.914.119A56.237 56.237 0 0118 73.61zm5.063 20.933l-.852.354a55.56 55.56 0 007.255 12.567l.731-.563.731-.562a53.728 53.728 0 01-7.014-12.15l-.851.354zM52.255 125a55.444 55.444 0 01-12.543-7.269l.562-.733.562-.732a53.583 53.583 0 0012.126 7.028l-.354.853-.353.853zm64.548-18.099l.731.563a55.592 55.592 0 007.255-12.567l-.852-.354-.851-.354a53.74 53.74 0 01-7.014 12.15l.731.562z" fill="#fff"/><path d="M53.914 105.219c-.5.901-.948 1.747-1.344 2.539a27.528 27.528 0 00-1.047 2.336A21.606 21.606 0 0050.227 115h-2.579c.146-.87.339-1.708.579-2.516.24-.807.515-1.588.828-2.343.317-.761.666-1.5 1.047-2.219.385-.719.791-1.422 1.218-2.11h-5.203v-2.015h7.797v1.422z" fill="#fff"/><path d="M53.914 105.219c-.5.901-.948 1.747-1.344 2.539a27.528 27.528 0 00-1.047 2.336A21.606 21.606 0 0050.227 115h-2.579c.146-.87.339-1.708.579-2.516.24-.807.515-1.588.828-2.343.317-.761.666-1.5 1.047-2.219.385-.719.791-1.422 1.218-2.11h-5.203v-2.015h7.797v1.422zM62.266 115H59.93v-1.148h-.032c-.536.895-1.33 1.343-2.382 1.343-.776 0-1.388-.218-1.836-.656-.443-.443-.664-1.031-.664-1.766 0-1.552.919-2.447 2.757-2.687l2.172-.289c0-.875-.474-1.313-1.422-1.313-.953 0-1.859.284-2.718.852v-1.859c.343-.178.812-.334 1.406-.469a7.429 7.429 0 011.633-.203c2.281 0 3.422 1.138 3.422 3.414V115zm-2.32-3.25v-.539l-1.454.187c-.802.105-1.203.467-1.203 1.086 0 .282.096.513.29.696.197.177.463.265.796.265.464 0 .841-.159 1.133-.476.291-.323.437-.729.437-1.219z" fill="#fff"/><path d="M62.266 115H59.93v-1.148h-.032c-.536.895-1.33 1.343-2.382 1.343-.776 0-1.388-.218-1.836-.656-.443-.443-.664-1.031-.664-1.766 0-1.552.919-2.447 2.757-2.687l2.172-.289c0-.875-.474-1.313-1.422-1.313-.953 0-1.859.284-2.718.852v-1.859c.343-.178.812-.334 1.406-.469a7.429 7.429 0 011.633-.203c2.281 0 3.422 1.138 3.422 3.414V115zm-2.32-3.25v-.539l-1.454.187c-.802.105-1.203.467-1.203 1.086 0 .282.096.513.29.696.197.177.463.265.796.265.464 0 .841-.159 1.133-.476.291-.323.437-.729.437-1.219zM76.922 115H74.46v-4.562c0-1.162-.427-1.743-1.281-1.743-.407 0-.737.175-.993.524-.255.349-.382.784-.382 1.304V115h-2.47v-4.609c0-1.131-.418-1.696-1.257-1.696-.422 0-.76.167-1.016.5-.25.334-.374.787-.374 1.36V115h-2.47v-8h2.47v1.25h.03a2.933 2.933 0 011.071-1.039 2.95 2.95 0 011.516-.406c1.13 0 1.903.497 2.32 1.492.61-.995 1.505-1.492 2.688-1.492 1.74 0 2.609 1.073 2.609 3.218V115z" fill="#fff"/><path d="M76.922 115H74.46v-4.562c0-1.162-.427-1.743-1.281-1.743-.407 0-.737.175-.993.524-.255.349-.382.784-.382 1.304V115h-2.47v-4.609c0-1.131-.418-1.696-1.257-1.696-.422 0-.76.167-1.016.5-.25.334-.374.787-.374 1.36V115h-2.47v-8h2.47v1.25h.03a2.933 2.933 0 011.071-1.039 2.95 2.95 0 011.516-.406c1.13 0 1.903.497 2.32 1.492.61-.995 1.505-1.492 2.688-1.492 1.74 0 2.609 1.073 2.609 3.218V115zM62.918 47.14V51h-2.523V39.797h3.953c2.823 0 4.234 1.19 4.234 3.57 0 1.125-.406 2.037-1.219 2.735-.807.692-1.888 1.039-3.242 1.039h-1.203zm0-5.406v3.493h.992c1.344 0 2.016-.589 2.016-1.766 0-1.151-.672-1.727-2.016-1.727h-.992z" fill="#fff"/><path d="M62.918 47.14V51h-2.523V39.797h3.953c2.823 0 4.234 1.19 4.234 3.57 0 1.125-.406 2.037-1.219 2.735-.807.692-1.888 1.039-3.242 1.039h-1.203zm0-5.406v3.493h.992c1.344 0 2.016-.589 2.016-1.766 0-1.151-.672-1.727-2.016-1.727h-.992zm7.589 8.836v-2.5c.453.38.945.667 1.477.86a4.805 4.805 0 001.609.28c.318 0 .594-.028.828-.085a1.96 1.96 0 00.594-.234c.161-.105.281-.224.36-.36a.971.971 0 00-.07-1.039 1.997 1.997 0 00-.517-.476 5.162 5.162 0 00-.765-.422 26.28 26.28 0 00-.961-.414c-.875-.365-1.529-.81-1.961-1.336-.427-.526-.64-1.162-.64-1.907 0-.583.116-1.083.35-1.5a2.99 2.99 0 01.954-1.039c.406-.27.875-.468 1.406-.593a7.068 7.068 0 011.688-.196 9.71 9.71 0 011.547.11c.453.067.87.174 1.25.32v2.336a4.398 4.398 0 00-1.297-.586 4.842 4.842 0 00-.703-.148 4.87 4.87 0 00-.657-.047c-.286 0-.547.028-.781.086a1.937 1.937 0 00-.594.226 1.132 1.132 0 00-.375.36.824.824 0 00-.133.46c0 .188.05.357.149.508.099.146.24.287.422.422.182.13.403.26.664.39.26.126.555.256.883.392.448.187.849.387 1.203.601.36.208.666.445.922.711.255.266.45.57.586.914.135.339.203.734.203 1.188 0 .625-.12 1.15-.36 1.578a2.894 2.894 0 01-.96 1.03 4.23 4.23 0 01-1.422.563 8.139 8.139 0 01-1.704.172c-.614 0-1.2-.052-1.757-.156a5.298 5.298 0 01-1.438-.469z" fill="#fff"/><path d="M70.507 50.57v-2.5c.453.38.945.667 1.477.86a4.805 4.805 0 001.609.28c.318 0 .594-.028.828-.085a1.96 1.96 0 00.594-.234c.161-.105.281-.224.36-.36a.971.971 0 00-.07-1.039 1.997 1.997 0 00-.517-.476 5.162 5.162 0 00-.765-.422 26.28 26.28 0 00-.961-.414c-.875-.365-1.529-.81-1.961-1.336-.427-.526-.64-1.162-.64-1.907 0-.583.116-1.083.35-1.5a2.99 2.99 0 01.954-1.039c.406-.27.875-.468 1.406-.593a7.068 7.068 0 011.688-.196 9.71 9.71 0 011.547.11c.453.067.87.174 1.25.32v2.336a4.398 4.398 0 00-1.297-.586 4.842 4.842 0 00-.703-.148 4.87 4.87 0 00-.657-.047c-.286 0-.547.028-.781.086a1.937 1.937 0 00-.594.226 1.132 1.132 0 00-.375.36.824.824 0 00-.133.46c0 .188.05.357.149.508.099.146.24.287.422.422.182.13.403.26.664.39.26.126.555.256.883.392.448.187.849.387 1.203.601.36.208.666.445.922.711.255.266.45.57.586.914.135.339.203.734.203 1.188 0 .625-.12 1.15-.36 1.578a2.894 2.894 0 01-.96 1.03 4.23 4.23 0 01-1.422.563 8.139 8.139 0 01-1.704.172c-.614 0-1.2-.052-1.757-.156a5.298 5.298 0 01-1.438-.469zm18.152-8.718h-3.196V51h-2.531v-9.148h-3.18v-2.055h8.907v2.055z" fill="#fff"/><path d="M88.659 41.852h-3.196V51h-2.531v-9.148h-3.18v-2.055h8.907v2.055zm2.989 42.945v7.062h1.344v1.844h-1.344V96h-2.25v-2.297h-4.882v-1.93a37.934 37.934 0 002.688-3.367c.431-.61.833-1.221 1.202-1.836.375-.62.693-1.21.953-1.773h2.29zm-4.921 7.062h2.671v-3.914a21.6 21.6 0 01-.593 1.032 24.685 24.685 0 01-1.383 2c-.24.312-.471.606-.695.882z" fill="#fff"/><path d="M91.648 84.797v7.062h1.344v1.844h-1.344V96h-2.25v-2.297h-4.882v-1.93a37.934 37.934 0 002.688-3.367c.431-.61.833-1.221 1.202-1.836.375-.62.693-1.21.953-1.773h2.29zm-4.921 7.062h2.671v-3.914a21.6 21.6 0 01-.593 1.032 24.685 24.685 0 01-1.383 2c-.24.312-.471.606-.695.882zm10.226 3.211h-.031v4.61h-2.469V88h2.469v1.203h.031c.61-.932 1.466-1.398 2.57-1.398 1.037 0 1.836.356 2.399 1.07.568.708.851 1.674.851 2.898 0 1.334-.33 2.404-.992 3.211-.656.808-1.531 1.211-2.625 1.211-.963 0-1.698-.375-2.203-1.125zm-.07-3.28v.64c0 .552.146 1.002.437 1.351.292.35.675.524 1.149.524.562 0 .997-.217 1.304-.649.313-.437.469-1.054.469-1.851 0-1.407-.547-2.11-1.64-2.11-.506 0-.92.193-1.243.578-.317.38-.476.886-.476 1.516z" fill="#fff"/><path d="M96.953 95.07h-.031v4.61h-2.469V88h2.469v1.203h.031c.61-.932 1.466-1.398 2.57-1.398 1.037 0 1.836.356 2.399 1.07.568.708.851 1.674.851 2.898 0 1.334-.33 2.404-.992 3.211-.656.808-1.531 1.211-2.625 1.211-.963 0-1.698-.375-2.203-1.125zm-.07-3.28v.64c0 .552.146 1.002.437 1.351.292.35.675.524 1.149.524.562 0 .997-.217 1.304-.649.313-.437.469-1.054.469-1.851 0-1.407-.547-2.11-1.64-2.11-.506 0-.92.193-1.243.578-.317.38-.476.886-.476 1.516zM117.078 96h-2.461v-4.563c0-1.161-.427-1.742-1.281-1.742-.406 0-.737.175-.992.524-.255.349-.383.784-.383 1.304V96h-2.469v-4.61c0-1.13-.419-1.695-1.258-1.695-.422 0-.76.167-1.015.5-.25.334-.375.787-.375 1.36V96h-2.469v-8h2.469v1.25h.031a2.93 2.93 0 011.07-1.04 2.96 2.96 0 011.516-.405c1.13 0 1.904.497 2.32 1.492.61-.995 1.505-1.492 2.688-1.492 1.739 0 2.609 1.073 2.609 3.218V96z" fill="#fff"/><path d="M117.078 96h-2.461v-4.563c0-1.161-.427-1.742-1.281-1.742-.406 0-.737.175-.992.524-.255.349-.383.784-.383 1.304V96h-2.469v-4.61c0-1.13-.419-1.695-1.258-1.695-.422 0-.76.167-1.015.5-.25.334-.375.787-.375 1.36V96h-2.469v-8h2.469v1.25h.031a2.93 2.93 0 011.07-1.04 2.96 2.96 0 011.516-.405c1.13 0 1.904.497 2.32 1.492.61-.995 1.505-1.492 2.688-1.492 1.739 0 2.609 1.073 2.609 3.218V96z" fill="#fff"/><defs><radialGradient id="paint0_radial_2154_26626" cx="0" cy="0" r="1" gradientUnits="userSpaceOnUse" gradientTransform="matrix(0 3.5 -54.5 0 77.5 148.5)"><stop stop-color="#17104E"/><stop offset="1" stop-color="#300084" stop-opacity="0"/></radialGradient><linearGradient id="paint1_linear_2154_26626" x1="74" y1="10" x2="74" y2="137" gradientUnits="userSpaceOnUse"><stop stop-color="#68AFFF"/><stop offset="1" stop-color="#2158F5"/></linearGradient><filter id="filter0_i_2154_26626" x="10" y="10" width="128" height="131" filterUnits="userSpaceOnUse" color-interpolation-filters="sRGB"><feFlood flood-opacity="0" result="BackgroundImageFix"/><feBlend in="SourceGraphic" in2="BackgroundImageFix" result="shape"/><feColorMatrix in="SourceAlpha" values="0 0 0 0 0 0 0 0 0 0 0 0 0 0 0 0 0 0 127 0" result="hardAlpha"/><feOffset dy="4"/><feGaussianBlur stdDeviation="2"/><feComposite in2="hardAlpha" operator="arithmetic" k2="-1" k3="1"/><feColorMatrix values="0 0 0 0 0.247135 0 0 0 0 0.453897 0 0 0 0 0.8125 0 0 0 1 0"/><feBlend in2="shape" result="effect1_innerShadow_2154_26626"/></filter></defs></svg>