<svg width="38" height="35" fill="none" xmlns="http://www.w3.org/2000/svg"><path fill-rule="evenodd" clip-rule="evenodd" d="M34.565 8.23h-5.218l-3.012-3.292h-9.876V8.23h8.428l3.012 3.292h6.666v19.751H8.229V16.46H4.938v14.813a3.302 3.302 0 003.291 3.292h26.336a3.302 3.302 0 003.292-3.292V11.522a3.302 3.302 0 00-3.292-3.292zM13.167 21.398a8.233 8.233 0 008.23 8.23 8.233 8.233 0 008.23-8.23 8.233 8.233 0 00-8.23-8.23 8.233 8.233 0 00-8.23 8.23zm13.168 0a4.952 4.952 0 00-4.938-4.938 4.952 4.952 0 00-4.938 4.938 4.952 4.952 0 004.938 4.938 4.952 4.952 0 004.938-4.938z" fill="#7CB9FF"/><path d="M8.23 8.23h4.938V4.938H8.23V0H4.938v4.938H0V8.23h4.938v4.938H8.23V8.23z" fill="#0D66CC"/></svg>