<svg width="80" height="50" fill="none" xmlns="http://www.w3.org/2000/svg"><rect x=".5" y=".5" width="79" height="49" rx="3.5" fill="#fff" stroke="#EFEFEF"/><path d="M33.074 16.295l-7.612 17.55h-5.024l-3.805-14.01c-.153-.885-.457-1.18-1.066-1.475-1.066-.59-3.045-1.18-4.567-1.475l.152-.443h7.916c1.066 0 1.98.59 2.131 1.77l1.98 10.177 4.87-11.947h5.025v-.147zm19.485 11.799c0-4.572-6.546-4.867-6.546-6.932 0-.59.61-1.327 1.98-1.475.608-.147 2.587-.147 4.566.738l.761-3.688c-1.065-.442-2.588-.737-4.414-.737-4.567 0-7.916 2.36-7.916 5.752 0 2.507 2.283 3.982 4.11 4.72 1.826.884 2.435 1.474 2.435 2.212 0 1.18-1.522 1.77-2.74 1.77-2.435 0-3.653-.59-4.871-1.18l-.913 3.834c1.065.443 3.044.886 5.175.886 5.024.147 8.373-2.213 8.373-5.9zm12.178 5.752H69l-3.653-17.551h-3.958c-.914 0-1.675.442-1.98 1.327l-7.002 16.224h4.871l.914-2.655h6.089l.456 2.655zm-5.175-6.194l2.435-6.637 1.37 6.636h-3.805zm-19.79-11.357l-3.806 17.55h-4.72l3.807-17.55h4.719z" fill="#2A2A6D"/></svg>