<svg width="80" height="50" fill="none" xmlns="http://www.w3.org/2000/svg"><rect width="80" height="50" rx="4" fill="#0A7EC2"/><path d="M18.968 17.25v.273c0 1.672-.005 3.345.005 5.017 0 .233-.061.31-.298.302-.485-.017-.97-.01-1.456-.002-.172.003-.233-.056-.233-.23.004-2.455.004-4.91.001-7.365 0-.17.061-.24.232-.239.926.004 1.854.006 2.78 0 .194-.002.251.11.306.265.52 1.453 1.046 2.905 1.57 4.356.038.105.087.207.16.373.083-.205.146-.347.199-.493.502-1.404 1.006-2.806 1.5-4.213.071-.206.166-.296.394-.293.865.013 1.73.013 2.596.001.249-.004.31.088.309.326-.008 2.402-.008 4.803.001 7.205.001.254-.082.317-.319.308a17.7 17.7 0 00-1.377 0c-.241.01-.294-.078-.293-.306.009-1.654.005-3.308.005-4.963v-.312l-.066-.018c-.044.088-.097.172-.13.264-.619 1.692-1.238 3.382-1.848 5.076-.067.188-.155.266-.359.258a17.365 17.365 0 00-1.27 0c-.202.007-.294-.063-.362-.254-.61-1.694-1.23-3.385-1.849-5.077-.034-.094-.083-.182-.125-.274l-.073.014zm50.76 2.487c.009-.12.024-.241.024-.362l.001-4.004c0-.362.002-.363.347-.364.45 0 .901.007 1.352-.003.207-.005.296.048.296.283-.008 2.43-.008 4.858 0 7.287 0 .222-.079.27-.278.266a61.12 61.12 0 00-1.934 0c-.19.003-.305-.059-.41-.22-.97-1.486-1.947-2.967-2.925-4.448-.064-.098-.144-.187-.216-.28l-.071.024v.304c0 1.432-.006 2.865.006 4.297.002.264-.08.334-.33.324a24.995 24.995 0 00-1.457-.002c-.183.004-.246-.054-.246-.243.005-2.447.005-4.894 0-7.34 0-.188.065-.253.246-.251.715.005 1.43.007 2.146-.001.178-.002.268.086.357.221.938 1.423 1.88 2.843 2.82 4.263.062.094.133.181.2.272l.072-.023zm-27.864.267l2.57 2.83c-.831 0-1.614.007-2.396-.009-.09-.001-.19-.113-.262-.195-.687-.788-1.369-1.581-2.053-2.372-.146-.17-.722-.291-.899-.171-.06.04-.086.165-.086.252a87.857 87.857 0 000 2.214c.004.22-.062.295-.284.288a30.37 30.37 0 00-1.509-.001c-.188.003-.24-.065-.24-.248.004-2.446.004-4.892 0-7.337 0-.187.064-.251.245-.25 1.57.011 3.142-.006 4.712.032 1.194.03 2.163.96 2.31 2.14.156 1.237-.587 2.378-1.768 2.72-.09.027-.18.056-.34.107zM40 18.392h1.032c.018 0 .036 0 .053-.002.521-.038.855-.344.866-.791.012-.481-.288-.817-.826-.845-.72-.038-1.445-.03-2.167-.043-.15-.003-.227.058-.225.222.005.409.006.818 0 1.227-.003.17.063.239.234.235.345-.008.689-.003 1.033-.003zm7.295 13.792l2.552 2.81h-.518c-.582 0-1.165.01-1.748-.008a.553.553 0 01-.358-.164c-.618-.695-1.256-1.378-1.817-2.118-.336-.441-.713-.516-1.217-.416-.01.105-.027.217-.028.33-.003.685-.008 1.37.002 2.054.004.235-.057.337-.311.327-.476-.018-.954-.01-1.43-.002-.184.003-.27-.043-.27-.252.004-2.446.003-4.89 0-7.337 0-.168.05-.236.227-.236 1.492.006 2.984-.028 4.475.015 1.12.032 2.072.56 2.416 1.652.424 1.342-.143 2.74-1.598 3.214-.105.034-.21.072-.377.13zM45.44 28.87a.326.326 0 000 .024c-.336 0-.672.01-1.007-.003-.19-.007-.275.058-.273.255.006.391.006.782 0 1.173-.003.186.081.251.257.248.731-.013 1.463-.008 2.195-.034.426-.015.72-.308.748-.685.035-.488-.165-.815-.631-.893-.423-.07-.86-.06-1.289-.085zm-16.733-9.95c0-1.202.007-2.403-.006-3.604-.003-.256.086-.314.32-.313 1.986.006 3.973.007 5.96-.001.245-.001.324.079.31.324-.02.336-.005.675-.005 1.014 0 .369 0 .37-.355.37h-3.788c-.41 0-.41 0-.41.406 0 .214.013.428-.003.64-.018.236.075.31.303.308 1.219-.008 2.437-.005 3.655-.003.577 0 .485-.048.491.5.004.302-.014.605.005.907.016.244-.084.3-.306.299-1.236-.008-2.473-.004-3.708-.004-.437 0-.437.001-.437.435 0 .196.014.393-.004.587-.022.252.063.338.324.336 1.28-.013 2.56-.006 3.84-.006.393 0 .393 0 .393.41 0 .364-.005.729.002 1.093.004.16-.052.22-.214.22-2.048-.004-4.097-.005-6.145.001-.205 0-.225-.099-.224-.264.003-1.218.002-2.437.002-3.656zm21.881 12.13c0-1.192.006-2.384-.004-3.575-.003-.23.055-.306.294-.305 1.987.009 3.973.008 5.96 0 .226 0 .318.058.308.299-.016.381-.014.765 0 1.147.007.227-.083.285-.296.284-1.298-.008-2.596-.005-3.894-.004-.341 0-.341 0-.342.355 0 .223.018.446-.005.667-.025.258.083.307.316.306 1.253-.01 2.507.003 3.76-.011.265-.003.362.063.346.34a11.62 11.62 0 00-.003 1.12c.008.213-.07.273-.276.272-1.271-.008-2.543.002-3.814-.01-.252-.001-.35.068-.329.33.02.265.012.534.002.8-.006.165.065.225.216.224l.927.002c1.025 0 2.049.006 3.073-.004.243-.003.33.08.319.324-.015.355-.015.712 0 1.067.01.243-.073.322-.317.32-1.854-.008-3.708-.004-5.562-.004-.678 0-.678 0-.678-.687V31.05zm-31.573-.831h2.823c.441 0 .883.008 1.324-.004.193-.005.27.05.263.255-.013.4-.014.8 0 1.2.008.21-.06.276-.27.274-1.262-.008-2.525-.004-3.787-.003-.351 0-.351 0-.352.346v.98c.16.008.29.022.42.022 1.253.002 2.507.008 3.76-.005.27-.002.356.083.34.351-.02.364-.013.73-.001 1.094.006.191-.053.268-.254.267-2.013-.005-4.025-.005-6.037 0-.199 0-.258-.07-.257-.265.005-2.436.004-4.874 0-7.31 0-.18.05-.25.241-.25 2.022.005 4.042.005 6.064 0 .188 0 .247.064.243.248-.01.409-.012.818 0 1.226.007.207-.077.254-.265.253-1.315-.006-2.63.002-3.945-.008-.24-.002-.329.063-.313.313.02.326.003.654.003 1.016zm-2.552-7.382h-1.528c-.726 0-.726 0-1.009-.681-.102-.246-.192-.5-.317-.733-.046-.086-.177-.179-.271-.18-1.095-.012-2.19-.013-3.284.001-.098.001-.238.11-.283.205-.182.385-.326.787-.501 1.175-.04.087-.148.2-.227.203-.67.016-1.34.009-2.043.009.026-.089.038-.154.064-.213 1.075-2.456 2.152-4.91 3.223-7.367.078-.18.174-.256.373-.253.715.01 1.43.006 2.146.002.15 0 .263.02.336.186 1.092 2.505 2.19 5.008 3.287 7.512.01.024.013.052.035.134zm-4.722-5.942l-.095.007-1.097 2.642h2.294l-1.102-2.649zm42.159 5.94c.166-.383.305-.707.446-1.03.943-2.153 1.89-4.304 2.822-6.462.114-.264.26-.35.537-.343.679.02 1.359.011 2.038.004.174-.001.269.061.34.224 1.077 2.473 2.16 4.943 3.241 7.414.021.047.037.097.074.195h-.458c-.53 0-1.06-.006-1.589.003-.156.002-.239-.05-.297-.198-.155-.396-.332-.784-.49-1.18-.063-.16-.15-.232-.333-.23a231.86 231.86 0 01-3.23 0c-.168-.001-.256.058-.316.213-.155.396-.315.79-.487 1.18-.038.084-.133.2-.204.2-.676.016-1.354.01-2.094.01zm4.769-5.939l-.099.008-1.092 2.637h2.289l-1.098-2.645zm14.157 10.278c-.262.576-.488 1.095-.739 1.602-.035.07-.187.113-.286.114-1.059.008-2.119.004-3.178.006-.309 0-.585.092-.73.389-.216.444.11.92.64.93.626.01 1.254-.028 1.879.014.45.029.911.103 1.338.247.66.222 1.054.73 1.185 1.417.187.984-.014 1.858-.807 2.523-.418.352-.92.549-1.458.558-1.456.024-2.913.013-4.37.022-.184 0-.248-.064-.242-.25.01-.391.015-.783-.002-1.174-.01-.233.085-.286.294-.285 1.2.007 2.401.005 3.602.002.15 0 .3-.008.448-.029.333-.048.556-.281.582-.594.026-.311-.163-.582-.487-.672a1.5 1.5 0 00-.39-.052c-.68-.006-1.362.019-2.04-.01-.67-.03-1.27-.25-1.735-.78-.866-.988-.716-3.047.867-3.694.415-.17.886-.26 1.334-.271 1.323-.035 2.648-.013 3.972-.013h.323zm-7.703 0c-.26.572-.492 1.098-.747 1.611-.034.069-.191.105-.291.105-1.024.008-2.048.004-3.072.007-.122 0-.248.006-.365.037-.376.1-.552.361-.507.727.039.316.31.55.675.555.582.008 1.166-.023 1.747.01.462.027.939.064 1.375.203.738.235 1.186.782 1.308 1.562.177 1.134-.204 2.227-1.32 2.722-.338.15-.724.253-1.092.261-1.402.032-2.806.014-4.21.023-.213.002-.276-.082-.27-.284.01-.373.012-.747-.002-1.12-.009-.237.083-.307.31-.305 1.183.008 2.365.005 3.548.002.15 0 .3-.009.448-.026.362-.043.573-.247.596-.565.028-.383-.141-.621-.52-.715a1.581 1.581 0 00-.364-.041c-.68-.005-1.36.019-2.039-.011-.621-.029-1.186-.236-1.64-.697-.936-.953-.894-3.27 1.073-3.886.348-.11.726-.161 1.09-.166 1.324-.02 2.648-.007 3.973-.007.077-.002.155-.002.296-.002zM33.45 34.993h-.618c-.574 0-1.148-.006-1.722.004a.516.516 0 01-.45-.21c-.572-.69-1.16-1.365-1.74-2.047-.064-.073-.125-.148-.208-.248-.094.09-.167.148-.227.219-.588.687-1.178 1.372-1.758 2.066-.123.148-.249.224-.448.22-.74-.01-1.48-.004-2.29-.004.32-.367.6-.69.883-1.011.796-.906 1.588-1.815 2.392-2.712.152-.17.156-.272.005-.44-.945-1.058-1.88-2.124-2.82-3.188-.122-.138-.24-.279-.404-.468h.833c.504 0 1.007.01 1.51-.005a.52.52 0 01.454.21c.559.665 1.13 1.318 1.686 1.986.148.177.24.18.388.006.576-.685 1.16-1.365 1.749-2.039.066-.076.185-.15.281-.152.75-.012 1.501-.006 2.251-.005.024 0 .048.013.11.031-.246.28-.475.546-.707.809-.814.925-1.624 1.854-2.448 2.769-.16.176-.137.282.005.441 1.016 1.15 2.025 2.303 3.036 3.457.073.084.141.171.257.311zm.396-3.907c0-1.209.004-2.418-.005-3.627-.001-.219.06-.29.283-.289 1.473.01 2.947-.018 4.42.013 1.287.028 2.25.717 2.545 1.918.432 1.751-.76 3.301-2.555 3.318-.794.008-1.588.009-2.382-.001-.22-.003-.29.074-.285.293.01.675-.003 1.35.007 2.026.004.201-.066.264-.26.26a33.127 33.127 0 00-1.508.001c-.219.006-.265-.082-.264-.284.007-1.21.004-2.418.004-3.628zm3.328-.388c.362 0 .723.01 1.084-.002.334-.012.617-.132.78-.455.322-.643-.09-1.324-.831-1.34-.696-.017-1.392-.001-2.088-.008-.176-.002-.256.048-.252.24.01.444.012.888 0 1.332-.005.194.074.242.25.237.352-.01.704-.003 1.057-.004zM53.63 21.13c-.265.563-.511 1.09-.765 1.614-.022.044-.097.086-.148.087-.87.032-1.73-.015-2.524-.432-1.048-.551-1.585-1.465-1.767-2.604-.137-.86-.096-1.72.22-2.544.48-1.25 1.409-1.995 2.702-2.148 1.055-.124 2.131-.073 3.198-.086.06 0 .174.121.177.189.016.453.003.908.01 1.36.004.202-.118.207-.26.207-.591 0-1.183-.008-1.775.004a4.84 4.84 0 00-.891.087c-.729.155-1.208.618-1.33 1.348-.08.471-.082.981.006 1.45.171.914.854 1.408 1.866 1.448.326.014.653.004.98.006.085 0 .17.007.302.014zm-8.458-2.225v-3.522c0-.376.001-.376.385-.377.45 0 .9.006 1.35-.002.19-.003.27.06.27.26-.005 2.447-.005 4.892 0 7.338 0 .195-.083.24-.257.237a31.182 31.182 0 00-1.483.002c-.22.007-.269-.08-.268-.28.006-1.219.003-2.437.003-3.656z" fill="#fff"/></svg>