<svg width="80" height="50" fill="none" xmlns="http://www.w3.org/2000/svg"><rect x=".5" y=".5" width="79" height="49" rx="3.5" fill="#fff" stroke="#EFEFEF"/><path d="M47 14H33v23h14V14z" fill="#F16122"/><path d="M34.353 25.5c0-4.557 2.259-8.7 5.647-11.462C37.459 12.105 34.353 11 30.823 11 22.636 11 16 17.49 16 25.5S22.635 40 30.823 40c3.389 0 6.636-1.105 9.177-3.038-3.388-2.762-5.647-6.905-5.647-11.462z" fill="#E91D25"/><path d="M64 25.5C64 33.51 57.365 40 49.176 40c-3.388 0-6.635-1.105-9.176-3.038 3.388-2.624 5.647-6.767 5.647-11.462 0-4.557-2.259-8.7-5.647-11.462C42.541 12.105 45.647 11 49.176 11 57.365 11 64 17.49 64 25.5z" fill="#F79E1D"/></svg>