<svg width="80" height="50" fill="none" xmlns="http://www.w3.org/2000/svg"><rect x=".5" y=".5" width="79" height="49" rx="3.5" fill="#fff" stroke="#EFEFEF"/><path d="M79 31S66 41.929 42 49h34.091a2.996 2.996 0 002.996-3.017L79 31z" fill="#F58220"/><path d="M9.2 20.47H6v11.157h3.2c1.76 0 3.04-.471 4-1.257 1.28-.943 2.08-2.671 2.08-4.243 0-3.3-2.56-5.657-6.08-5.657zm2.56 8.486c-.64.628-1.6.942-3.04.942h-.64v-7.385h.64c1.44 0 2.24.314 3.04.943.8.628 1.28 1.728 1.28 2.828-.16.943-.48 2.043-1.28 2.672zm6.723-8.486h-2.24v11.157h2.24V20.47zm5.442 4.4c-1.28-.471-1.76-.786-1.76-1.414 0-.629.64-1.257 1.6-1.257.64 0 1.28.314 1.76.942l1.12-1.414c-.96-.786-2.08-1.257-3.36-1.257-2.08 0-3.52 1.414-3.52 3.143 0 1.571.64 2.357 2.72 2.986.8.314 1.28.471 1.6.628.48.314.64.629.64 1.1 0 .943-.8 1.572-1.76 1.572-1.12 0-1.92-.472-2.4-1.415l-1.44 1.415c.96 1.414 2.24 2.2 4 2.2 2.24 0 4-1.572 4-3.615 0-1.885-.64-2.828-3.2-3.614zm3.999 1.258c0 3.3 2.56 5.815 6.08 5.815.96 0 1.76-.157 2.72-.629V28.8c-.96.943-1.6 1.257-2.72 1.257-2.24 0-3.84-1.571-3.84-3.928 0-2.2 1.6-3.772 3.68-3.772 1.12 0 1.92.314 2.72 1.257v-2.671c-.96-.472-1.76-.629-2.72-.629-3.36 0-5.92 2.514-5.92 5.814zm26.237 1.885l-2.88-7.543h-2.56l4.96 11.471h1.12l4.96-11.471h-2.4l-3.2 7.543zm6.564 3.771h6.24v-2.043h-4v-2.985h3.84V24.87h-3.84v-2.514h4V20.47h-6.24v11.314zm15.038-8.014c0-2.043-1.44-3.3-4-3.3h-3.36v11.157h2.24V27.07h.32l3.04 4.557h2.72l-3.52-4.714c1.6-.314 2.56-1.414 2.56-3.143zm-4.48 1.886h-.64v-3.457h.64c1.44 0 2.08.628 2.08 1.728.16 1.1-.64 1.729-2.08 1.729z" fill="#000"/><path d="M49.523 26.13c0 3.3-2.72 5.971-6.08 5.971s-6.08-2.671-6.08-5.971c0-3.3 2.72-5.972 6.08-5.972s6.08 2.672 6.08 5.972z" fill="url(#paint0_linear)"/><path opacity=".65" d="M49.523 26.13c0 3.3-2.72 5.971-6.08 5.971s-6.08-2.671-6.08-5.971c0-3.3 2.72-5.972 6.08-5.972s6.08 2.672 6.08 5.972z" fill="url(#paint1_linear)"/><g opacity=".5"><path opacity=".5" d="M49.681 26.129c0 3.3-2.72 6.128-6.24 6.128-3.36 0-6.24-2.671-6.24-6.128 0-3.458 2.72-6.129 6.24-6.129 3.36.157 6.24 2.829 6.24 6.129z" fill="#000"/><path opacity=".5" d="M43.441 20.158c3.36 0 6.24 2.672 6.24 6.129 0 3.457-2.72 6.129-6.24 6.129-3.36 0-6.24-2.672-6.24-6.129 0-3.457 2.88-6.129 6.24-6.129z" fill="#030304"/><path opacity=".5" d="M43.441 20.158c3.36 0 6.24 2.672 6.24 6.129 0 3.3-2.72 6.129-6.24 6.129-3.36 0-6.24-2.672-6.24-6.129 0-3.457 2.88-6.129 6.24-6.129z" fill="#080808"/><path opacity=".5" d="M43.441 20.158c3.36 0 6.24 2.672 6.24 6.129 0 3.3-2.72 6.129-6.24 6.129-3.36 0-6.24-2.672-6.24-6.129.16-3.457 2.88-6.129 6.24-6.129z" fill="#0C0C0C"/><path opacity=".5" d="M43.441 20.158c3.36 0 6.24 2.672 6.24 6.129 0 3.3-2.72 6.129-6.24 6.129-3.36 0-6.24-2.672-6.24-6.129.16-3.457 2.88-6.129 6.24-6.129z" fill="#100F10"/><path opacity=".5" d="M43.441 20.158c3.36 0 6.24 2.672 6.24 6.129 0 3.3-2.72 6.129-6.24 6.129-3.36 0-6.24-2.672-6.24-6.129.16-3.457 2.88-6.129 6.24-6.129z" fill="#131313"/><path opacity=".5" d="M43.441 20.158c3.36 0 6.24 2.672 6.24 6.129 0 3.3-2.72 6.129-6.24 6.129-3.36 0-6.24-2.672-6.24-6.129.16-3.457 2.88-6.129 6.24-6.129z" fill="#161616"/><path opacity=".5" d="M43.441 20.158c3.36 0 6.24 2.672 6.24 6.129 0 3.3-2.72 6.129-6.24 6.129-3.36 0-6.24-2.672-6.24-6.129.16-3.457 2.88-6.129 6.24-6.129z" fill="#191919"/><path opacity=".5" d="M43.441 20.158c3.36 0 6.24 2.672 6.24 6.129 0 3.3-2.72 6.129-6.24 6.129-3.36 0-6.24-2.672-6.24-6.129.16-3.457 2.88-6.129 6.24-6.129z" fill="#1C1B1C"/><path opacity=".5" d="M43.441 20.158c3.36 0 6.24 2.672 6.24 6.129 0 3.3-2.72 6.129-6.24 6.129-3.36 0-6.24-2.672-6.24-6.129.16-3.457 2.88-6.129 6.24-6.129z" fill="#1E1E1F"/><path opacity=".5" d="M43.441 20.158c3.36 0 6.24 2.672 6.24 6.129 0 3.3-2.72 6.129-6.24 6.129-3.36 0-6.24-2.672-6.24-6.129.16-3.457 2.88-6.129 6.24-6.129z" fill="#212021"/><path opacity=".5" d="M43.441 20.158c3.36 0 6.24 2.672 6.24 6.129 0 3.3-2.72 6.129-6.24 6.129-3.36 0-6.24-2.672-6.24-6.129.16-3.457 2.88-6.129 6.24-6.129z" fill="#232324"/><path opacity=".5" d="M43.441 20.158c3.36 0 6.24 2.672 6.24 6.129 0 3.3-2.72 6.129-6.24 6.129-3.36 0-6.24-2.672-6.24-6.129.16-3.457 2.88-6.129 6.24-6.129z" fill="#252526"/><path opacity=".5" d="M43.441 20.158c3.36 0 6.24 2.672 6.24 6.129 0 3.3-2.72 6.129-6.24 6.129-3.36 0-6.24-2.672-6.24-6.129.16-3.457 2.88-6.129 6.24-6.129z" fill="#282728"/><path opacity=".5" d="M43.441 20.158c3.36 0 6.24 2.672 6.24 6.129 0 3.3-2.72 6.129-6.24 6.129-3.36 0-6.24-2.672-6.24-6.129.16-3.457 2.88-6.129 6.24-6.129z" fill="#2A292B"/><path opacity=".5" d="M43.441 20.158c3.36 0 6.24 2.672 6.24 6.129 0 3.3-2.72 6.129-6.24 6.129-3.36 0-6.24-2.672-6.24-6.129.16-3.457 2.88-6.129 6.24-6.129z" fill="#2C2C2D"/><path opacity=".5" d="M43.441 20.158c3.36 0 6.24 2.672 6.24 6.129 0 3.3-2.72 6.129-6.24 6.129-3.36 0-6.24-2.672-6.24-6.129.16-3.457 2.88-6.129 6.24-6.129z" fill="#2E2E2F"/><path opacity=".5" d="M43.441 20.158c3.36 0 6.24 2.672 6.24 6.129 0 3.3-2.72 5.971-6.24 5.971-3.36 0-6.24-2.671-6.24-5.971.16-3.3 2.88-6.129 6.24-6.129z" fill="#303031"/><path opacity=".5" d="M43.443 20.158c3.36 0 6.08 2.672 6.08 5.972 0 3.3-2.72 5.971-6.08 5.971s-6.08-2.671-6.08-5.971c0-3.143 2.72-5.972 6.08-5.972z" fill="#323133"/><path opacity=".5" d="M43.443 20.158c3.36 0 6.08 2.672 6.08 5.972 0 3.3-2.72 5.971-6.08 5.971s-6.08-2.671-6.08-5.971c0-3.143 2.72-5.972 6.08-5.972z" fill="#343335"/><path opacity=".5" d="M43.443 20.158c3.36 0 6.08 2.672 6.08 5.972 0 3.3-2.72 5.971-6.08 5.971s-6.08-2.671-6.08-5.971c0-3.143 2.72-5.972 6.08-5.972z" fill="#363537"/><path opacity=".5" d="M43.443 20.158c3.36 0 6.08 2.672 6.08 5.972 0 3.3-2.72 5.971-6.08 5.971s-6.08-2.671-6.08-5.971c0-3.143 2.72-5.972 6.08-5.972z" fill="#373739"/><path opacity=".5" d="M43.443 20.158c3.36 0 6.08 2.672 6.08 5.972 0 3.3-2.72 5.971-6.08 5.971s-6.08-2.671-6.08-5.971c0-3.143 2.72-5.972 6.08-5.972z" fill="#39393A"/><path opacity=".5" d="M43.443 20.158c3.36 0 6.08 2.672 6.08 5.972 0 3.3-2.72 5.971-6.08 5.971s-6.08-2.671-6.08-5.971c0-3.143 2.72-5.972 6.08-5.972z" fill="#3B3B3C"/><path opacity=".5" d="M43.443 20.158c3.36 0 6.08 2.672 6.08 5.972 0 3.3-2.72 5.971-6.08 5.971s-6.08-2.671-6.08-5.971c0-3.143 2.72-5.972 6.08-5.972z" fill="#3D3C3E"/><path opacity=".5" d="M43.6 20.158c3.36 0 6.08 2.672 6.08 5.972 0 3.3-2.72 5.971-6.08 5.971s-6.08-2.671-6.08-5.971c-.16-3.143 2.56-5.972 6.08-5.972z" fill="#3E3E40"/><path opacity=".5" d="M43.6 20.314c3.36 0 6.08 2.672 6.08 5.972 0 3.3-2.72 5.971-6.08 5.971s-6.08-2.671-6.08-5.971c-.16-3.3 2.56-5.972 6.08-5.972z" fill="#403F41"/><path opacity=".5" d="M43.6 20.314c3.36 0 6.08 2.672 6.08 5.972 0 3.3-2.72 5.971-6.08 5.971s-6.08-2.671-6.08-5.971c-.16-3.3 2.56-5.972 6.08-5.972z" fill="#414042"/><path opacity=".5" d="M43.6 20.314c3.36 0 6.08 2.672 6.08 5.972 0 3.3-2.72 5.971-6.08 5.971s-6.08-2.671-6.08-5.971c-.16-3.3 2.56-5.972 6.08-5.972z" fill="#424143"/><path opacity=".5" d="M43.6 20.314c3.36 0 6.08 2.672 6.08 5.972 0 3.3-2.72 5.971-6.08 5.971s-6.08-2.671-6.08-5.971c-.16-3.3 2.56-5.972 6.08-5.972z" fill="#434244"/><path opacity=".5" d="M43.6 20.314c3.36 0 6.08 2.672 6.08 5.972 0 3.3-2.72 5.971-6.08 5.971s-6.08-2.671-6.08-5.971c-.16-3.3 2.56-5.972 6.08-5.972z" fill="#444345"/><path opacity=".5" d="M43.6 20.314c3.36 0 6.08 2.672 6.08 5.972 0 3.3-2.72 5.971-6.08 5.971s-6.08-2.671-6.08-5.971c-.16-3.3 2.56-5.972 6.08-5.972z" fill="#454446"/><path opacity=".5" d="M43.6 20.314c3.36 0 6.08 2.672 6.08 5.972 0 3.3-2.72 5.971-6.08 5.971s-6.08-2.671-6.08-5.971c-.16-3.3 2.56-5.972 6.08-5.972z" fill="#454547"/><path opacity=".5" d="M43.6 20.314c3.36 0 6.08 2.672 6.08 5.972 0 3.3-2.72 5.971-6.08 5.971s-6.08-2.671-6.08-5.971c-.16-3.3 2.56-5.972 6.08-5.972z" fill="#464648"/><path opacity=".5" d="M43.6 20.314c3.36 0 6.08 2.672 6.08 5.972 0 3.3-2.72 5.971-6.08 5.971s-6.08-2.671-6.08-5.971c-.16-3.3 2.56-5.972 6.08-5.972z" fill="#474749"/><path opacity=".5" d="M43.6 20.314c3.36 0 6.08 2.672 6.08 5.972 0 3.3-2.72 5.971-6.08 5.971s-6.08-2.671-6.08-5.971c-.16-3.3 2.72-5.972 6.08-5.972z" fill="#48484A"/><path opacity=".5" d="M43.6 20.314c3.36 0 6.08 2.672 6.08 5.972 0 3.3-2.72 5.971-6.08 5.971s-6.08-2.671-6.08-5.971c-.16-3.3 2.72-5.972 6.08-5.972z" fill="#49494B"/><path opacity=".5" d="M43.6 20.314c3.36 0 6.08 2.672 6.08 5.972 0 3.3-2.72 5.971-6.08 5.971s-6.08-2.671-6.08-5.971c-.16-3.3 2.72-5.972 6.08-5.972z" fill="#4A4A4C"/><path opacity=".5" d="M43.6 20.314c3.36 0 6.08 2.672 6.08 5.972 0 3.3-2.72 5.971-6.08 5.971s-6.08-2.671-6.08-5.971c-.16-3.3 2.72-5.972 6.08-5.972z" fill="#4B4B4D"/><path opacity=".5" d="M43.6 20.314c3.36 0 6.08 2.672 6.08 5.972 0 3.3-2.72 5.971-6.08 5.971s-6.08-2.671-6.08-5.971c-.16-3.3 2.72-5.972 6.08-5.972z" fill="#4C4C4E"/><path opacity=".5" d="M43.6 20.314c3.36 0 6.08 2.672 6.08 5.972 0 3.3-2.72 5.971-6.08 5.971s-6.08-2.671-6.08-5.971c-.16-3.3 2.72-5.972 6.08-5.972z" fill="#4D4D4F"/><path opacity=".5" d="M43.6 20.314c3.36 0 6.08 2.672 6.08 5.972 0 3.3-2.72 5.971-6.08 5.971s-6.08-2.671-6.08-5.971c-.16-3.3 2.72-5.972 6.08-5.972z" fill="#4D4E50"/><path opacity=".5" d="M43.6 20.314c3.36 0 6.08 2.672 6.08 5.972 0 3.3-2.72 5.971-6.08 5.971s-6.08-2.671-6.08-5.971c-.16-3.3 2.72-5.972 6.08-5.972z" fill="#4E4F51"/><path opacity=".5" d="M43.6 20.314c3.36 0 6.08 2.672 6.08 5.972 0 3.3-2.72 5.971-6.08 5.971s-6.08-2.671-6.08-5.971c-.16-3.3 2.72-5.972 6.08-5.972z" fill="#4F5052"/><path opacity=".5" d="M43.605 20.314c3.36 0 6.08 2.672 6.08 5.972 0 3.3-2.72 5.971-6.08 5.971s-6.08-2.671-6.08-5.971c0-3.3 2.72-5.972 6.08-5.972z" fill="#505052"/><path opacity=".5" d="M43.605 20.314c3.36 0 6.08 2.672 6.08 5.972 0 3.3-2.72 5.971-6.08 5.971s-6.08-2.671-6.08-5.971c0-3.3 2.72-5.972 6.08-5.972z" fill="#515153"/><path opacity=".5" d="M43.605 20.314c3.36 0 6.08 2.672 6.08 5.972 0 3.3-2.72 5.971-6.08 5.971s-6.08-2.671-6.08-5.971c0-3.3 2.72-5.972 6.08-5.972z" fill="#525254"/><path opacity=".5" d="M43.605 20.314c3.36 0 6.08 2.672 6.08 5.972 0 3.3-2.72 5.971-6.08 5.971s-6.08-2.671-6.08-5.971c0-3.3 2.72-5.972 6.08-5.972z" fill="#535355"/><path opacity=".5" d="M43.605 20.314c3.36 0 6.08 2.672 6.08 5.972 0 3.3-2.72 5.971-6.08 5.971s-6.08-2.671-6.08-5.971c0-3.3 2.72-5.972 6.08-5.972z" fill="#535456"/><path opacity=".5" d="M43.605 20.314c3.36 0 6.08 2.672 6.08 5.972 0 3.3-2.72 5.971-6.08 5.971s-6.08-2.671-6.08-5.971c0-3.3 2.72-5.972 6.08-5.972z" fill="#545557"/><path opacity=".5" d="M43.605 20.314c3.36 0 6.08 2.672 6.08 5.972 0 3.3-2.72 5.971-6.08 5.971s-6.08-2.671-6.08-5.971c0-3.3 2.72-5.972 6.08-5.972z" fill="#555658"/><path opacity=".5" d="M43.605 20.314c3.36 0 6.08 2.672 6.08 5.972 0 3.3-2.72 5.971-6.08 5.971s-6.08-2.671-6.08-5.971c0-3.3 2.72-5.972 6.08-5.972z" fill="#565759"/><path opacity=".5" d="M43.605 20.314c3.36 0 6.08 2.672 6.08 5.972 0 3.3-2.72 5.971-6.08 5.971s-6.08-2.671-6.08-5.971c0-3.3 2.72-5.972 6.08-5.972z" fill="#57585A"/><path opacity=".5" d="M43.605 20.314c3.36 0 6.08 2.672 6.08 5.972 0 3.3-2.72 5.971-6.08 5.971s-6.08-2.671-6.08-5.971c0-3.3 2.72-5.972 6.08-5.972z" fill="#58585B"/><path opacity=".5" d="M43.605 20.314c3.36 0 6.08 2.672 6.08 5.972 0 3.3-2.72 5.971-6.08 5.971s-6.08-2.671-6.08-5.971c0-3.3 2.72-5.972 6.08-5.972z" fill="#58595B"/><path opacity=".5" d="M43.605 20.314c3.36 0 6.08 2.672 6.08 5.972 0 3.3-2.72 5.971-6.08 5.971s-6.08-2.671-6.08-5.971c0-3.143 2.72-5.972 6.08-5.972z" fill="#595A5C"/><path opacity=".5" d="M43.605 20.314c3.36 0 6.08 2.672 6.08 5.972 0 3.3-2.72 5.971-6.08 5.971s-6.08-2.671-6.08-5.971c0-3.143 2.72-5.972 6.08-5.972z" fill="#5A5B5D"/><path opacity=".5" d="M43.605 20.314c3.36 0 6.08 2.672 6.08 5.972 0 3.3-2.72 5.971-6.08 5.971s-6.08-2.671-6.08-5.971c0-3.143 2.72-5.972 6.08-5.972z" fill="#5B5C5E"/><path opacity=".5" d="M43.605 20.314c3.36 0 6.08 2.672 6.08 5.972 0 3.3-2.72 5.971-6.08 5.971s-6.08-2.671-6.08-5.971c0-3.143 2.72-5.972 6.08-5.972z" fill="#5C5D5F"/><path opacity=".5" d="M43.605 20.314c3.36 0 6.08 2.672 6.08 5.972 0 3.3-2.72 5.971-6.08 5.971s-6.08-2.671-6.08-5.971c0-3.143 2.72-5.972 6.08-5.972z" fill="#5C5D60"/><path opacity=".5" d="M43.605 20.314c3.36 0 6.08 2.672 6.08 5.972 0 3.3-2.72 5.971-6.08 5.971s-6.08-2.671-6.08-5.971c0-3.143 2.72-5.972 6.08-5.972z" fill="#5D5E61"/><path opacity=".5" d="M43.605 20.314c3.36 0 6.08 2.672 6.08 5.972 0 3.3-2.72 5.971-6.08 5.971s-6.08-2.671-6.08-5.971c0-3.143 2.72-5.972 6.08-5.972z" fill="#5E5F61"/><path opacity=".5" d="M43.605 20.473c3.36 0 6.08 2.671 6.08 5.971 0 3.3-2.72 5.972-6.08 5.972s-6.08-2.672-6.08-5.972c0-3.3 2.72-5.971 6.08-5.971z" fill="#5F6062"/><path opacity=".5" d="M43.605 20.473c3.36 0 6.08 2.671 6.08 5.971 0 3.3-2.72 5.972-6.08 5.972s-6.08-2.672-6.08-5.972c0-3.3 2.72-5.971 6.08-5.971z" fill="#606163"/><path opacity=".5" d="M43.605 20.473c3.36 0 6.08 2.671 6.08 5.971 0 3.3-2.72 5.972-6.08 5.972s-6.08-2.672-6.08-5.972c0-3.3 2.72-5.971 6.08-5.971z" fill="#606264"/><path opacity=".5" d="M43.605 20.473c3.36 0 6.08 2.671 6.08 5.971 0 3.3-2.72 5.972-6.08 5.972s-6.08-2.672-6.08-5.972c0-3.3 2.72-5.971 6.08-5.971z" fill="#616265"/><path opacity=".5" d="M43.605 20.473c3.36 0 6.08 2.671 6.08 5.971 0 3.3-2.72 5.972-6.08 5.972s-6.08-2.672-6.08-5.972c0-3.3 2.72-5.971 6.08-5.971z" fill="#626366"/><path opacity=".5" d="M43.605 20.473c3.36 0 6.08 2.671 6.08 5.971 0 3.3-2.72 5.972-6.08 5.972s-6.08-2.672-6.08-5.972c0-3.3 2.72-5.971 6.08-5.971z" fill="#636466"/><path opacity=".5" d="M43.605 20.473c3.36 0 6.08 2.671 6.08 5.971 0 3.3-2.72 5.972-6.08 5.972s-6.08-2.672-6.08-5.972c0-3.3 2.72-5.971 6.08-5.971z" fill="#646567"/><path opacity=".5" d="M43.605 20.473c3.36 0 6.08 2.671 6.08 5.971 0 3.3-2.72 5.972-6.08 5.972s-6.08-2.672-6.08-5.972c0-3.3 2.72-5.971 6.08-5.971z" fill="#646668"/><path opacity=".5" d="M43.605 20.473c3.36 0 6.08 2.671 6.08 5.971 0 3.3-2.72 5.972-6.08 5.972s-6.08-2.672-6.08-5.972c0-3.3 2.72-5.971 6.08-5.971z" fill="#656669"/><path opacity=".5" d="M43.605 20.473c3.36 0 6.08 2.671 6.08 5.971 0 3.3-2.72 5.972-6.08 5.972s-6.08-2.672-6.08-5.972c0-3.3 2.72-5.971 6.08-5.971z" fill="#66676A"/><path opacity=".5" d="M43.762 20.473c3.36 0 6.08 2.671 6.08 5.971 0 3.3-2.72 5.972-6.08 5.972s-6.08-2.672-6.08-5.972c-.16-3.3 2.56-5.971 6.08-5.971z" fill="#67686A"/><path opacity=".5" d="M43.762 20.473c3.36 0 6.08 2.671 6.08 5.971 0 3.3-2.72 5.972-6.08 5.972s-6.08-2.672-6.08-5.972c-.16-3.3 2.56-5.971 6.08-5.971z" fill="#67696B"/><path opacity=".5" d="M43.762 20.473c3.36 0 6.08 2.671 6.08 5.971 0 3.3-2.72 5.972-6.08 5.972s-6.08-2.672-6.08-5.972c-.16-3.3 2.56-5.971 6.08-5.971z" fill="#686A6C"/><path opacity=".5" d="M43.762 20.473c3.36 0 6.08 2.671 6.08 5.971 0 3.3-2.72 5.972-6.08 5.972s-6.08-2.672-6.08-5.972c-.16-3.3 2.56-5.971 6.08-5.971z" fill="#696A6D"/><path opacity=".5" d="M43.762 20.473c3.36 0 6.08 2.671 6.08 5.971 0 3.3-2.72 5.972-6.08 5.972s-6.08-2.672-6.08-5.972c-.16-3.3 2.56-5.971 6.08-5.971z" fill="#6A6B6D"/><path opacity=".5" d="M43.762 20.473c3.36 0 6.08 2.671 6.08 5.971 0 3.3-2.72 5.972-6.08 5.972s-6.08-2.672-6.08-5.972c-.16-3.3 2.56-5.971 6.08-5.971z" fill="#6B6C6E"/><path opacity=".5" d="M43.762 20.473c3.36 0 6.08 2.671 6.08 5.971 0 3.3-2.72 5.972-6.08 5.972s-6.08-2.672-6.08-5.972c-.16-3.3 2.56-5.971 6.08-5.971z" fill="#6B6D6F"/><path opacity=".5" d="M43.762 20.473c3.36 0 6.08 2.671 6.08 5.971 0 3.3-2.72 5.972-6.08 5.972s-6.08-2.672-6.08-5.972c-.16-3.3 2.72-5.971 6.08-5.971z" fill="#6C6D70"/><path opacity=".5" d="M43.762 20.473c3.36 0 6.08 2.671 6.08 5.971 0 3.3-2.72 5.972-6.08 5.972s-6.08-2.672-6.08-5.972c-.16-3.3 2.72-5.971 6.08-5.971z" fill="#6D6E71"/><path opacity=".5" d="M43.762 20.473c3.36 0 6.08 2.671 6.08 5.971 0 3.3-2.72 5.972-6.08 5.972s-6.08-2.672-6.08-5.972c-.16-3.3 2.72-5.971 6.08-5.971z" fill="#6D6F71"/><path opacity=".5" d="M43.762 20.473c3.36 0 6.08 2.671 6.08 5.971 0 3.3-2.72 5.972-6.08 5.972s-6.08-2.672-6.08-5.972c-.16-3.3 2.72-5.971 6.08-5.971z" fill="#6E7072"/><path opacity=".5" d="M43.762 20.473c3.36 0 6.08 2.671 6.08 5.971 0 3.3-2.72 5.972-6.08 5.972s-6.08-2.672-6.08-5.972c-.16-3.3 2.72-5.971 6.08-5.971z" fill="#6F7073"/><path opacity=".5" d="M43.761 20.473c3.36 0 6.08 2.671 6.08 5.971 0 3.3-2.72 5.972-6.08 5.972s-6.08-2.672-6.08-5.972c0-3.3 2.72-5.971 6.08-5.971z" fill="#707174"/><path opacity=".5" d="M43.761 20.473c3.36 0 6.08 2.671 6.08 5.971 0 3.3-2.72 5.972-6.08 5.972s-6.08-2.672-6.08-5.972c0-3.3 2.72-5.971 6.08-5.971z" fill="#707274"/><path opacity=".5" d="M43.761 20.473c3.36 0 6.08 2.671 6.08 5.971 0 3.3-2.72 5.972-6.08 5.972s-6.08-2.672-6.08-5.972c0-3.3 2.72-5.971 6.08-5.971z" fill="#717375"/><path opacity=".5" d="M43.761 20.473c3.36 0 6.08 2.671 6.08 5.971 0 3.3-2.72 5.972-6.08 5.972s-6.08-2.672-6.08-5.972c0-3.3 2.72-5.971 6.08-5.971z" fill="#727376"/><path opacity=".5" d="M43.761 20.473c3.36 0 6.08 2.671 6.08 5.971 0 3.3-2.72 5.972-6.08 5.972s-6.08-2.672-6.08-5.972c0-3.3 2.72-5.971 6.08-5.971z" fill="#737477"/><path opacity=".5" d="M43.761 20.473c3.36 0 6.08 2.671 6.08 5.971 0 3.3-2.72 5.972-6.08 5.972s-6.08-2.672-6.08-5.972c0-3.3 2.72-5.971 6.08-5.971z" fill="#737577"/><path opacity=".5" d="M43.761 20.473c3.36 0 6.08 2.671 6.08 5.971 0 3.3-2.72 5.972-6.08 5.972s-6.08-2.672-6.08-5.972c0-3.3 2.72-5.971 6.08-5.971z" fill="#747678"/><path opacity=".5" d="M43.761 20.473c3.36 0 6.08 2.671 6.08 5.971 0 3.3-2.72 5.972-6.08 5.972s-6.08-2.672-6.08-5.972c0-3.3 2.72-5.971 6.08-5.971z" fill="#757679"/><path opacity=".5" d="M43.761 20.473c3.36 0 6.08 2.671 6.08 5.971 0 3.3-2.72 5.972-6.08 5.972s-6.08-2.672-6.08-5.972c0-3.3 2.72-5.971 6.08-5.971z" fill="#75777A"/><path opacity=".5" d="M43.761 20.473c3.36 0 6.08 2.671 6.08 5.971 0 3.3-2.72 5.972-6.08 5.972s-6.08-2.672-6.08-5.972c0-3.3 2.72-5.971 6.08-5.971z" fill="#76787A"/><path opacity=".5" d="M43.761 20.473c3.36 0 6.08 2.671 6.08 5.971 0 3.3-2.72 5.972-6.08 5.972s-6.08-2.672-6.08-5.972c0-3.143 2.72-5.971 6.08-5.971z" fill="#77797B"/><path opacity=".5" d="M43.761 20.473c3.36 0 6.08 2.671 6.08 5.971 0 3.3-2.72 5.972-6.08 5.972s-6.08-2.672-6.08-5.972c0-3.143 2.72-5.971 6.08-5.971z" fill="#78797C"/><path opacity=".5" d="M43.761 20.473c3.36 0 6.08 2.671 6.08 5.971 0 3.3-2.72 5.972-6.08 5.972s-6.08-2.672-6.08-5.972c0-3.143 2.72-5.971 6.08-5.971z" fill="#787A7D"/><path opacity=".5" d="M43.761 20.473c3.36 0 6.08 2.671 6.08 5.971 0 3.3-2.72 5.972-6.08 5.972s-6.08-2.672-6.08-5.972c0-3.143 2.72-5.971 6.08-5.971z" fill="#797B7D"/><path opacity=".5" d="M43.761 20.628c3.36 0 6.08 2.672 6.08 5.972 0 3.3-2.72 5.971-6.08 5.971s-6.08-2.671-6.08-5.971c0-3.3 2.72-5.972 6.08-5.972z" fill="#7A7B7E"/><path opacity=".5" d="M43.761 20.628c3.36 0 6.08 2.672 6.08 5.972 0 3.3-2.72 5.971-6.08 5.971s-6.08-2.671-6.08-5.971c0-3.3 2.72-5.972 6.08-5.972z" fill="#7A7C7F"/><path opacity=".5" d="M43.761 20.628c3.36 0 6.08 2.672 6.08 5.972 0 3.3-2.72 5.971-6.08 5.971s-6.08-2.671-6.08-5.971c0-3.3 2.72-5.972 6.08-5.972z" fill="#7B7D7F"/><path opacity=".5" d="M43.761 20.628c3.36 0 6.08 2.672 6.08 5.972 0 3.3-2.72 5.971-6.08 5.971s-6.08-2.671-6.08-5.971c0-3.3 2.72-5.972 6.08-5.972z" fill="#7C7E80"/><path opacity=".5" d="M43.761 20.628c3.36 0 6.08 2.672 6.08 5.972 0 3.3-2.72 5.971-6.08 5.971s-6.08-2.671-6.08-5.971c0-3.3 2.72-5.972 6.08-5.972z" fill="#7D7E81"/><path opacity=".5" d="M43.761 20.628c3.36 0 6.08 2.672 6.08 5.972 0 3.3-2.72 5.971-6.08 5.971s-6.08-2.671-6.08-5.971c0-3.3 2.72-5.972 6.08-5.972z" fill="#7D7F82"/><path opacity=".5" d="M43.761 20.628c3.36 0 6.08 2.672 6.08 5.972 0 3.3-2.72 5.971-6.08 5.971s-6.08-2.671-6.08-5.971c0-3.3 2.72-5.972 6.08-5.972z" fill="#7E8082"/><path opacity=".5" d="M43.761 20.628c3.36 0 6.08 2.672 6.08 5.972 0 3.3-2.72 5.971-6.08 5.971s-6.08-2.671-6.08-5.971c0-3.3 2.72-5.972 6.08-5.972z" fill="#7F8183"/><path opacity=".5" d="M43.761 20.628c3.36 0 6.08 2.672 6.08 5.972 0 3.3-2.72 5.971-6.08 5.971s-6.08-2.671-6.08-5.971c0-3.3 2.72-5.972 6.08-5.972z" fill="#7F8184"/><path opacity=".5" d="M43.761 20.628c3.36 0 6.08 2.672 6.08 5.972 0 3.3-2.72 5.971-6.08 5.971s-6.08-2.671-6.08-5.971c0-3.3 2.72-5.972 6.08-5.972z" fill="#808285"/><path opacity=".5" d="M43.761 20.628c3.36 0 6.08 2.672 6.08 5.972 0 3.3-2.72 5.971-6.08 5.971s-6.08-2.671-6.08-5.971c0-3.3 2.72-5.972 6.08-5.972z" fill="#818385"/><path opacity=".5" d="M43.761 20.628c3.36 0 6.08 2.672 6.08 5.972 0 3.3-2.72 5.971-6.08 5.971s-6.08-2.671-6.08-5.971c0-3.3 2.72-5.972 6.08-5.972z" fill="#828386"/><path opacity=".5" d="M43.761 20.628c3.36 0 6.08 2.672 6.08 5.972 0 3.3-2.72 5.971-6.08 5.971s-6.08-2.671-6.08-5.971c0-3.3 2.72-5.972 6.08-5.972z" fill="#828487"/><path opacity=".5" d="M43.761 20.628c3.36 0 6.08 2.672 6.08 5.972 0 3.3-2.72 5.971-6.08 5.971s-6.08-2.671-6.08-5.971c0-3.3 2.72-5.972 6.08-5.972z" fill="#838587"/><path opacity=".5" d="M43.761 20.628c3.36 0 6.08 2.672 6.08 5.972 0 3.3-2.72 5.971-6.08 5.971s-6.08-2.671-6.08-5.971c0-3.3 2.72-5.972 6.08-5.972z" fill="#848688"/><path opacity=".5" d="M43.761 20.628c3.36 0 6.08 2.672 6.08 5.972 0 3.3-2.72 5.971-6.08 5.971s-6.08-2.671-6.08-5.971c0-3.3 2.72-5.972 6.08-5.972z" fill="#848689"/><path opacity=".5" d="M43.761 20.628c3.36 0 6.08 2.672 6.08 5.972 0 3.3-2.72 5.971-6.08 5.971s-6.08-2.671-6.08-5.971c0-3.3 2.72-5.972 6.08-5.972z" fill="#85878A"/><path opacity=".5" d="M43.761 20.628c3.36 0 6.08 2.672 6.08 5.972 0 3.3-2.72 5.971-6.08 5.971s-6.08-2.671-6.08-5.971c0-3.3 2.72-5.972 6.08-5.972z" fill="#86888A"/><path opacity=".5" d="M43.761 20.628c3.36 0 6.08 2.672 6.08 5.972 0 3.3-2.72 5.971-6.08 5.971s-6.08-2.671-6.08-5.971c0-3.3 2.72-5.972 6.08-5.972z" fill="#86888B"/><path opacity=".5" d="M43.761 20.628c3.36 0 6.08 2.672 6.08 5.972 0 3.3-2.72 5.971-6.08 5.971s-6.08-2.671-6.08-5.971c0-3.3 2.72-5.972 6.08-5.972z" fill="#87898C"/><path opacity=".5" d="M43.761 20.628c3.36 0 6.08 2.672 6.08 5.972 0 3.3-2.72 5.971-6.08 5.971s-6.08-2.671-6.08-5.971c0-3.3 2.72-5.972 6.08-5.972z" fill="#888A8C"/><path opacity=".5" d="M43.761 20.628c3.36 0 6.08 2.672 6.08 5.972 0 3.3-2.72 5.971-6.08 5.971s-6.08-2.671-6.08-5.971c0-3.3 2.72-5.972 6.08-5.972z" fill="#898B8D"/><path opacity=".5" d="M43.919 20.628c3.36 0 6.08 2.672 6.08 5.972 0 3.3-2.72 5.971-6.08 5.971s-6.08-2.671-6.08-5.971c-.16-3.3 2.56-5.972 6.08-5.972z" fill="#898B8E"/><path opacity=".5" d="M43.919 20.628c3.36 0 6.08 2.672 6.08 5.972 0 3.3-2.72 5.971-6.08 5.971s-6.08-2.671-6.08-5.971c-.16-3.3 2.56-5.972 6.08-5.972z" fill="#8A8C8F"/><path opacity=".5" d="M43.924 20.628c3.36 0 6.08 2.672 6.08 5.972 0 3.3-2.72 5.971-6.08 5.971s-6.08-2.671-6.08-5.971c-.16-3.3 2.72-5.972 6.08-5.972z" fill="#8B8D8F"/><path opacity=".5" d="M43.924 20.628c3.36 0 6.08 2.672 6.08 5.972 0 3.3-2.72 5.971-6.08 5.971s-6.08-2.671-6.08-5.971c-.16-3.3 2.72-5.972 6.08-5.972z" fill="#8B8D90"/><path opacity=".5" d="M43.924 20.628c3.36 0 6.08 2.672 6.08 5.972 0 3.3-2.72 5.971-6.08 5.971s-6.08-2.671-6.08-5.971c-.16-3.3 2.72-5.972 6.08-5.972z" fill="#8C8E91"/><path opacity=".5" d="M43.923 20.628c3.36 0 6.08 2.672 6.08 5.972 0 3.3-2.72 5.971-6.08 5.971s-6.08-2.671-6.08-5.971c0-3.3 2.72-5.972 6.08-5.972z" fill="#8D8F91"/><path opacity=".5" d="M43.923 20.628c3.36 0 6.08 2.672 6.08 5.972 0 3.3-2.72 5.971-6.08 5.971s-6.08-2.671-6.08-5.971c0-3.3 2.72-5.972 6.08-5.972z" fill="#8D9092"/><path opacity=".5" d="M43.923 20.628c3.36 0 6.08 2.672 6.08 5.972 0 3.3-2.72 5.971-6.08 5.971s-6.08-2.671-6.08-5.971c0-3.3 2.72-5.972 6.08-5.972z" fill="#8E9093"/><path opacity=".5" d="M43.923 20.628c3.36 0 6.08 2.672 6.08 5.972 0 3.3-2.72 5.971-6.08 5.971s-6.08-2.671-6.08-5.971c0-3.3 2.72-5.972 6.08-5.972z" fill="#8F9194"/><path opacity=".5" d="M43.923 20.628c3.36 0 6.08 2.672 6.08 5.972 0 3.3-2.72 5.971-6.08 5.971s-6.08-2.671-6.08-5.971c0-3.3 2.72-5.972 6.08-5.972z" fill="#909294"/><path opacity=".5" d="M43.923 20.628c3.36 0 6.08 2.672 6.08 5.972 0 3.3-2.72 5.971-6.08 5.971s-6.08-2.671-6.08-5.971c0-3.3 2.72-5.972 6.08-5.972z" fill="#909295"/><path opacity=".5" d="M43.923 20.628c3.36 0 6.08 2.672 6.08 5.972 0 3.3-2.72 5.971-6.08 5.971s-6.08-2.671-6.08-5.971c0-3.3 2.72-5.972 6.08-5.972z" fill="#919396"/><path opacity=".5" d="M43.923 20.628c3.36 0 6.08 2.672 6.08 5.972 0 3.3-2.72 5.971-6.08 5.971s-6.08-2.671-6.08-5.971c0-3.143 2.72-5.972 6.08-5.972z" fill="#929497"/><path opacity=".5" d="M43.923 20.787c3.36 0 6.08 2.671 6.08 5.971 0 3.3-2.72 5.972-6.08 5.972s-6.08-2.672-6.08-5.972c0-3.3 2.72-5.971 6.08-5.971z" fill="#939597"/><path opacity=".5" d="M43.923 20.787c3.36 0 6.08 2.671 6.08 5.971 0 3.3-2.72 5.972-6.08 5.972s-6.08-2.672-6.08-5.972c0-3.3 2.72-5.971 6.08-5.971z" fill="#939598"/><path opacity=".5" d="M43.923 20.787c3.36 0 6.08 2.671 6.08 5.971 0 3.3-2.72 5.972-6.08 5.972s-6.08-2.672-6.08-5.972c0-3.3 2.72-5.971 6.08-5.971z" fill="#949699"/><path opacity=".5" d="M43.923 20.787c3.36 0 6.08 2.671 6.08 5.971 0 3.3-2.72 5.972-6.08 5.972s-6.08-2.672-6.08-5.972c0-3.3 2.72-5.971 6.08-5.971z" fill="#959799"/><path opacity=".5" d="M43.923 20.787c3.36 0 6.08 2.671 6.08 5.971 0 3.3-2.72 5.972-6.08 5.972s-6.08-2.672-6.08-5.972c0-3.3 2.72-5.971 6.08-5.971z" fill="#95989A"/><path opacity=".5" d="M43.923 20.787c3.36 0 6.08 2.671 6.08 5.971 0 3.3-2.72 5.972-6.08 5.972s-6.08-2.672-6.08-5.972c0-3.3 2.72-5.971 6.08-5.971z" fill="#96989B"/><path opacity=".5" d="M43.923 20.787c3.36 0 6.08 2.671 6.08 5.971 0 3.3-2.72 5.972-6.08 5.972s-6.08-2.672-6.08-5.972c0-3.3 2.72-5.971 6.08-5.971z" fill="#97999C"/><path opacity=".5" d="M43.923 20.787c3.36 0 6.08 2.671 6.08 5.971 0 3.3-2.72 5.972-6.08 5.972s-6.08-2.672-6.08-5.972c0-3.3 2.72-5.971 6.08-5.971z" fill="#989A9C"/><path opacity=".5" d="M43.923 20.787c3.36 0 6.08 2.671 6.08 5.971 0 3.3-2.72 5.972-6.08 5.972s-6.08-2.672-6.08-5.972c0-3.3 2.72-5.971 6.08-5.971z" fill="#989A9D"/><path opacity=".5" d="M43.923 20.787c3.36 0 6.08 2.671 6.08 5.971 0 3.3-2.72 5.972-6.08 5.972s-6.08-2.672-6.08-5.972c0-3.3 2.72-5.971 6.08-5.971z" fill="#999B9E"/><path opacity=".5" d="M43.923 20.787c3.36 0 6.08 2.671 6.08 5.971 0 3.3-2.72 5.972-6.08 5.972s-6.08-2.672-6.08-5.972c0-3.3 2.72-5.971 6.08-5.971z" fill="#9A9C9F"/><path opacity=".5" d="M43.923 20.787c3.36 0 6.08 2.671 6.08 5.971 0 3.3-2.72 5.972-6.08 5.972s-6.08-2.672-6.08-5.972c0-3.3 2.72-5.971 6.08-5.971z" fill="#9B9D9F"/><path opacity=".5" d="M43.923 20.787c3.36 0 6.08 2.671 6.08 5.971 0 3.3-2.72 5.972-6.08 5.972s-6.08-2.672-6.08-5.972c0-3.3 2.72-5.971 6.08-5.971z" fill="#9B9DA0"/><path opacity=".5" d="M43.923 20.787c3.36 0 6.08 2.671 6.08 5.971 0 3.3-2.72 5.972-6.08 5.972s-6.08-2.672-6.08-5.972c0-3.3 2.72-5.971 6.08-5.971z" fill="#9C9EA1"/><path opacity=".5" d="M43.923 20.787c3.36 0 6.08 2.671 6.08 5.971 0 3.3-2.72 5.972-6.08 5.972s-6.08-2.672-6.08-5.972c0-3.3 2.72-5.971 6.08-5.971z" fill="#9D9FA1"/><path opacity=".5" d="M43.923 20.787c3.36 0 6.08 2.671 6.08 5.971 0 3.3-2.72 5.972-6.08 5.972s-6.08-2.672-6.08-5.972c0-3.3 2.72-5.971 6.08-5.971z" fill="#9DA0A2"/><path opacity=".5" d="M43.923 20.787c3.36 0 6.08 2.671 6.08 5.971 0 3.3-2.72 5.972-6.08 5.972s-6.08-2.672-6.08-5.972c0-3.3 2.72-5.971 6.08-5.971z" fill="#9EA0A3"/><path opacity=".5" d="M43.923 20.787c3.36 0 6.08 2.671 6.08 5.971 0 3.3-2.72 5.972-6.08 5.972s-6.08-2.672-6.08-5.972c0-3.3 2.72-5.971 6.08-5.971z" fill="#9FA1A4"/><path opacity=".5" d="M43.923 20.787c3.36 0 6.08 2.671 6.08 5.971 0 3.3-2.72 5.972-6.08 5.972s-6.08-2.672-6.08-5.972c0-3.3 2.72-5.971 6.08-5.971z" fill="#A0A2A4"/><path opacity=".5" d="M43.923 20.787c3.36 0 6.08 2.671 6.08 5.971 0 3.3-2.72 5.972-6.08 5.972s-6.08-2.672-6.08-5.972c0-3.3 2.72-5.971 6.08-5.971z" fill="#A0A3A5"/><path opacity=".5" d="M43.923 20.787c3.36 0 6.08 2.671 6.08 5.971 0 3.3-2.72 5.972-6.08 5.972s-6.08-2.672-6.08-5.972c0-3.3 2.72-5.971 6.08-5.971z" fill="#A1A3A6"/><path opacity=".5" d="M43.923 20.787c3.36 0 6.08 2.671 6.08 5.971 0 3.3-2.72 5.972-6.08 5.972s-6.08-2.672-6.08-5.972c0-3.3 2.72-5.971 6.08-5.971z" fill="#A2A4A7"/><path opacity=".5" d="M43.923 20.787c3.36 0 6.08 2.671 6.08 5.971 0 3.3-2.72 5.972-6.08 5.972s-6.08-2.672-6.08-5.972c0-3.3 2.72-5.971 6.08-5.971z" fill="#A3A5A7"/><path opacity=".5" d="M43.923 20.787c3.36 0 6.08 2.671 6.08 5.971 0 3.3-2.72 5.972-6.08 5.972s-6.08-2.672-6.08-5.972c0-3.3 2.72-5.971 6.08-5.971z" fill="#A3A6A8"/><path opacity=".5" d="M43.923 20.787c3.36 0 6.08 2.671 6.08 5.971 0 3.3-2.72 5.972-6.08 5.972s-6.08-2.672-6.08-5.972c0-3.3 2.72-5.971 6.08-5.971z" fill="#A4A6A9"/><path opacity=".5" d="M43.923 20.787c3.36 0 6.08 2.671 6.08 5.971 0 3.3-2.72 5.972-6.08 5.972s-6.08-2.672-6.08-5.972c0-3.3 2.72-5.971 6.08-5.971z" fill="#A5A7AA"/><path opacity=".5" d="M43.923 20.787c3.36 0 6.08 2.671 6.08 5.971 0 3.3-2.72 5.972-6.08 5.972s-6.08-2.672-6.08-5.972c0-3.3 2.72-5.971 6.08-5.971z" fill="#A6A8AA"/><path opacity=".5" d="M43.923 20.787c3.36 0 6.08 2.671 6.08 5.971 0 3.3-2.72 5.972-6.08 5.972s-6.08-2.672-6.08-5.972c0-3.3 2.72-5.971 6.08-5.971z" fill="#A6A9AB"/><path opacity=".5" d="M43.923 20.787c3.36 0 6.08 2.671 6.08 5.971 0 3.3-2.72 5.972-6.08 5.972s-6.08-2.672-6.08-5.972c0-3.3 2.72-5.971 6.08-5.971z" fill="#A7A9AC"/><path opacity=".5" d="M43.923 20.787c3.36 0 6.08 2.671 6.08 5.971 0 3.3-2.72 5.972-6.08 5.972s-6.08-2.672-6.08-5.972c0-3.3 2.72-5.971 6.08-5.971z" fill="#A8AAAD"/><path opacity=".5" d="M43.923 20.787c3.36 0 6.08 2.671 6.08 5.971 0 3.3-2.72 5.972-6.08 5.972s-6.08-2.672-6.08-5.972c0-3.3 2.72-5.971 6.08-5.971z" fill="#A9ABAD"/><path opacity=".5" d="M43.923 20.787c3.36 0 6.08 2.671 6.08 5.971 0 3.3-2.72 5.972-6.08 5.972s-6.08-2.672-6.08-5.972c0-3.3 2.72-5.971 6.08-5.971z" fill="#A9ACAE"/><path opacity=".5" d="M43.923 20.787c3.36 0 6.08 2.671 6.08 5.971 0 3.3-2.72 5.972-6.08 5.972s-6.08-2.672-6.08-5.972c.16-3.3 2.72-5.971 6.08-5.971z" fill="#AAACAF"/><path opacity=".5" d="M43.923 20.787c3.36 0 6.08 2.671 6.08 5.971 0 3.3-2.72 5.972-6.08 5.972s-6.08-2.672-6.08-5.972c.16-3.3 2.88-5.971 6.08-5.971z" fill="#ABADB0"/><path opacity=".5" d="M43.923 20.787c3.36 0 6.08 2.671 6.08 5.971 0 3.3-2.72 5.972-6.08 5.972s-6.08-2.672-6.08-5.972c.16-3.3 2.88-5.971 6.08-5.971z" fill="#ACAEB0"/><path opacity=".5" d="M44.079 20.787c3.36 0 6.08 2.671 6.08 5.971 0 3.3-2.72 5.972-6.08 5.972s-6.08-2.672-6.08-5.972c0-3.3 2.72-5.971 6.08-5.971z" fill="#ADAFB1"/><path opacity=".5" d="M44.079 20.943c3.36 0 6.08 2.671 6.08 5.971 0 3.3-2.72 5.971-6.08 5.971s-6.08-2.67-6.08-5.97c0-3.458 2.72-5.972 6.08-5.972z" fill="#ADAFB2"/><path opacity=".5" d="M44.079 20.943c3.36 0 6.08 2.671 6.08 5.971 0 3.3-2.72 5.971-6.08 5.971s-6.08-2.67-6.08-5.97 2.72-5.972 6.08-5.972z" fill="#AEB0B3"/><path opacity=".5" d="M44.079 20.943c3.36 0 6.08 2.671 6.08 5.971 0 3.3-2.72 5.971-6.08 5.971s-6.08-2.67-6.08-5.97 2.72-5.972 6.08-5.972z" fill="#AFB1B3"/><path opacity=".5" d="M44.079 20.943c3.36 0 6.08 2.671 6.08 5.971 0 3.3-2.72 5.971-6.08 5.971s-6.08-2.67-6.08-5.97 2.72-5.972 6.08-5.972z" fill="#B0B2B4"/><path opacity=".5" d="M44.079 20.943c3.36 0 6.08 2.671 6.08 5.971 0 3.3-2.72 5.971-6.08 5.971s-6.08-2.67-6.08-5.97 2.72-5.972 6.08-5.972z" fill="#B0B2B5"/><path opacity=".5" d="M44.079 20.943c3.36 0 6.08 2.671 6.08 5.971 0 3.3-2.72 5.971-6.08 5.971s-6.08-2.67-6.08-5.97 2.72-5.972 6.08-5.972z" fill="#B1B3B6"/><path opacity=".5" d="M44.079 20.943c3.36 0 6.08 2.671 6.08 5.971 0 3.3-2.72 5.971-6.08 5.971s-6.08-2.67-6.08-5.97 2.72-5.972 6.08-5.972z" fill="#B2B4B6"/><path opacity=".5" d="M44.079 20.943c3.36 0 6.08 2.671 6.08 5.971 0 3.3-2.72 5.971-6.08 5.971s-6.08-2.67-6.08-5.97 2.72-5.972 6.08-5.972z" fill="#B3B5B7"/><path opacity=".5" d="M44.079 20.943c3.36 0 6.08 2.671 6.08 5.971 0 3.3-2.72 5.971-6.08 5.971s-6.08-2.67-6.08-5.97 2.72-5.972 6.08-5.972z" fill="#B4B6B8"/><path opacity=".5" d="M44.079 20.943c3.36 0 6.08 2.671 6.08 5.971 0 3.3-2.72 5.971-6.08 5.971s-6.08-2.67-6.08-5.97 2.72-5.972 6.08-5.972z" fill="#B4B6B9"/><path opacity=".5" d="M44.079 20.943c3.36 0 6.08 2.671 6.08 5.971 0 3.3-2.72 5.971-6.08 5.971s-6.08-2.67-6.08-5.97 2.72-5.972 6.08-5.972z" fill="#B5B7B9"/><path opacity=".5" d="M44.079 20.943c3.36 0 6.08 2.671 6.08 5.971 0 3.3-2.72 5.971-6.08 5.971s-6.08-2.67-6.08-5.97 2.72-5.972 6.08-5.972z" fill="#B6B8BA"/><path opacity=".5" d="M44.079 20.943c3.36 0 6.08 2.671 6.08 5.971 0 3.3-2.72 5.971-6.08 5.971s-6.08-2.67-6.08-5.97 2.72-5.972 6.08-5.972z" fill="#B7B9BB"/><path opacity=".5" d="M44.079 20.943c3.36 0 6.08 2.671 6.08 5.971 0 3.3-2.72 5.971-6.08 5.971s-6.08-2.67-6.08-5.97 2.72-5.972 6.08-5.972z" fill="#B8B9BC"/><path opacity=".5" d="M44.079 20.943c3.36 0 6.08 2.671 6.08 5.971 0 3.3-2.72 5.971-6.08 5.971s-6.08-2.67-6.08-5.97 2.72-5.972 6.08-5.972z" fill="#B8BABD"/><path opacity=".5" d="M44.079 20.943c3.36 0 6.08 2.671 6.08 5.971 0 3.3-2.72 5.971-6.08 5.971s-6.08-2.67-6.08-5.97 2.72-5.972 6.08-5.972z" fill="#B9BBBD"/><path opacity=".5" d="M44.079 20.943c3.36 0 6.08 2.671 6.08 5.971 0 3.3-2.72 5.971-6.08 5.971s-6.08-2.67-6.08-5.97 2.72-5.972 6.08-5.972z" fill="#BABCBE"/><path opacity=".5" d="M44.079 20.943c3.36 0 6.08 2.671 6.08 5.971 0 3.3-2.72 5.971-6.08 5.971s-6.08-2.67-6.08-5.97 2.72-5.972 6.08-5.972z" fill="#BBBDBF"/><path opacity=".5" d="M44.079 20.943c3.36 0 6.08 2.671 6.08 5.971 0 3.3-2.72 5.971-6.08 5.971s-6.08-2.67-6.08-5.97 2.72-5.972 6.08-5.972z" fill="#BBBDC0"/><path opacity=".5" d="M44.079 20.943c3.36 0 6.08 2.671 6.08 5.971 0 3.3-2.72 5.971-6.08 5.971s-6.08-2.67-6.08-5.97 2.72-5.972 6.08-5.972z" fill="#BCBEC0"/><path opacity=".5" d="M44.079 20.943c3.36 0 6.08 2.671 6.08 5.971 0 3.3-2.72 5.971-6.08 5.971s-6.08-2.67-6.08-5.97 2.72-5.972 6.08-5.972z" fill="#BDBFC1"/><path opacity=".5" d="M44.079 20.943c3.36 0 6.08 2.671 6.08 5.971 0 3.3-2.72 5.971-6.08 5.971s-6.08-2.67-6.08-5.97 2.72-5.972 6.08-5.972z" fill="#BEC0C2"/><path opacity=".5" d="M44.079 20.943c3.36 0 6.08 2.671 6.08 5.971 0 3.3-2.72 5.971-6.08 5.971s-6.08-2.67-6.08-5.97 2.72-5.972 6.08-5.972z" fill="#BFC0C3"/><path opacity=".5" d="M44.079 20.943c3.36 0 6.08 2.671 6.08 5.971 0 3.3-2.72 5.971-6.08 5.971s-6.08-2.67-6.08-5.97 2.72-5.972 6.08-5.972z" fill="#BFC1C3"/><path opacity=".5" d="M44.079 20.943c3.36 0 6.08 2.671 6.08 5.971 0 3.3-2.72 5.971-6.08 5.971s-6.08-2.67-6.08-5.97 2.72-5.972 6.08-5.972z" fill="#C0C2C4"/><path opacity=".5" d="M44.079 20.943c3.36 0 6.08 2.671 6.08 5.971 0 3.3-2.72 5.971-6.08 5.971s-6.08-2.67-6.08-5.97 2.72-5.972 6.08-5.972z" fill="#C1C3C5"/><path opacity=".5" d="M44.079 20.943c3.36 0 6.08 2.671 6.08 5.971 0 3.3-2.72 5.971-6.08 5.971s-6.08-2.67-6.08-5.97 2.72-5.972 6.08-5.972z" fill="#C2C4C6"/><path opacity=".5" d="M44.079 20.943c3.36 0 6.08 2.671 6.08 5.971 0 3.3-2.72 5.971-6.08 5.971s-6.08-2.67-6.08-5.97 2.72-5.972 6.08-5.972z" fill="#C3C4C6"/><path opacity=".5" d="M44.079 20.943c3.36 0 6.08 2.671 6.08 5.971 0 3.3-2.72 5.971-6.08 5.971s-6.08-2.67-6.08-5.97 2.72-5.972 6.08-5.972z" fill="#C3C5C7"/><path opacity=".5" d="M44.079 20.943c3.36 0 6.08 2.671 6.08 5.971 0 3.3-2.72 5.971-6.08 5.971s-6.08-2.67-6.08-5.97 2.72-5.972 6.08-5.972z" fill="#C4C6C8"/><path opacity=".5" d="M44.079 20.943c3.36 0 6.08 2.671 6.08 5.971 0 3.3-2.72 5.971-6.08 5.971s-6.08-2.67-6.08-5.97 2.72-5.972 6.08-5.972z" fill="#C5C7C9"/><path opacity=".5" d="M44.079 20.943c3.36 0 6.08 2.671 6.08 5.971 0 3.3-2.72 5.971-6.08 5.971s-6.08-2.67-6.08-5.97 2.72-5.972 6.08-5.972z" fill="#C6C8CA"/><path opacity=".5" d="M50.159 26.914c0 3.3-2.72 5.971-6.08 5.971s-6.08-2.67-6.08-5.97 2.72-5.972 6.08-5.972 6.08 2.671 6.08 5.971z" fill="#C7C8CA"/><path opacity=".995" d="M44.079 20.943c3.36 0 6.08 2.671 6.08 5.971 0 3.3-2.72 5.971-6.08 5.971s-6.08-2.67-6.08-5.97 2.72-5.972 6.08-5.972z" fill="#C7C9CB"/><path opacity=".99" d="M44.079 20.943c3.36 0 6.08 2.671 6.08 5.971 0 3.3-2.72 5.971-6.08 5.971s-6.08-2.67-6.08-5.97 2.72-5.972 6.08-5.972z" fill="#C7C9CB"/><path opacity=".985" d="M44.079 20.943c3.36 0 6.08 2.671 6.08 5.971 0 3.3-2.72 5.971-6.08 5.971s-6.08-2.67-6.08-5.97 2.72-5.972 6.08-5.972z" fill="#C7C9CB"/><path opacity=".98" d="M44.079 20.943c3.36 0 6.08 2.671 6.08 5.971 0 3.3-2.72 5.971-6.08 5.971s-6.08-2.67-6.08-5.97 2.72-5.972 6.08-5.972z" fill="#C8C9CB"/><path opacity=".975" d="M44.079 21.101c3.36 0 6.08 2.672 6.08 5.972 0 3.3-2.72 5.97-6.08 5.97s-6.08-2.67-6.08-5.97c0-3.458 2.72-5.972 6.08-5.972z" fill="#C8CACC"/><path opacity=".97" d="M44.079 21.101c3.36 0 6.08 2.672 6.08 5.972 0 3.3-2.72 5.97-6.08 5.97s-6.08-2.67-6.08-5.97c0-3.458 2.72-5.972 6.08-5.972z" fill="#C8CACC"/><path opacity=".965" d="M44.079 21.101c3.36 0 6.08 2.672 6.08 5.972 0 3.3-2.72 5.97-6.08 5.97s-6.08-2.67-6.08-5.97c.16-3.458 2.72-5.972 6.08-5.972z" fill="#C8CACC"/><path opacity=".96" d="M44.079 21.101c3.36 0 6.08 2.672 6.08 5.972 0 3.3-2.72 5.97-6.08 5.97s-6.08-2.67-6.08-5.97c.16-3.458 2.72-5.972 6.08-5.972z" fill="#C9CACC"/><path opacity=".955" d="M44.079 21.101c3.36 0 6.08 2.672 6.08 5.972 0 3.3-2.72 5.97-6.08 5.97s-6.08-2.67-6.08-5.97c.16-3.3 2.72-5.972 6.08-5.972z" fill="#C9CBCD"/><path opacity=".95" d="M44.079 21.101c3.36 0 6.08 2.672 6.08 5.972 0 3.3-2.72 5.97-6.08 5.97s-6.08-2.67-6.08-5.97c.16-3.3 2.72-5.972 6.08-5.972z" fill="#C9CBCD"/><path opacity=".945" d="M44.079 21.101c3.36 0 6.08 2.672 6.08 5.972 0 3.3-2.72 5.97-6.08 5.97s-6.08-2.67-6.08-5.97c.16-3.3 2.88-5.972 6.08-5.972z" fill="#C9CBCD"/><path opacity=".94" d="M44.079 21.101c3.36 0 6.08 2.672 6.08 5.972 0 3.3-2.72 5.97-6.08 5.97s-6.08-2.67-6.08-5.97c.16-3.3 2.88-5.972 6.08-5.972z" fill="#CACBCD"/><path opacity=".935" d="M44.079 21.101c3.36 0 6.08 2.672 6.08 5.972 0 3.3-2.72 5.97-6.08 5.97s-6.08-2.67-6.08-5.97c.16-3.3 2.88-5.972 6.08-5.972z" fill="#CACCCE"/><path opacity=".93" d="M44.079 21.101c3.36 0 6.08 2.672 6.08 5.972 0 3.3-2.72 5.97-6.08 5.97s-6.08-2.67-6.08-5.97c.16-3.3 2.88-5.972 6.08-5.972z" fill="#CACCCE"/><path opacity=".925" d="M44.079 21.101c3.36 0 6.08 2.672 6.08 5.972 0 3.3-2.72 5.97-6.08 5.97s-6.08-2.67-6.08-5.97c.16-3.3 2.88-5.972 6.08-5.972z" fill="#CBCCCE"/><path opacity=".92" d="M44.079 21.101c3.36 0 6.08 2.672 6.08 5.972 0 3.3-2.72 5.97-6.08 5.97s-6.08-2.67-6.08-5.97c.16-3.3 2.88-5.972 6.08-5.972z" fill="#CBCCCE"/><path opacity=".915" d="M44.24 21.101c3.36 0 6.08 2.672 6.08 5.972 0 3.3-2.72 5.97-6.08 5.97s-6.08-2.67-6.08-5.97 2.72-5.972 6.08-5.972z" fill="#CBCDCF"/><path opacity=".91" d="M44.24 21.101c3.36 0 6.08 2.672 6.08 5.972 0 3.3-2.72 5.97-6.08 5.97s-6.08-2.67-6.08-5.97 2.72-5.972 6.08-5.972z" fill="#CBCDCF"/><path opacity=".905" d="M44.24 21.101c3.36 0 6.08 2.672 6.08 5.972 0 3.3-2.72 5.97-6.08 5.97s-6.08-2.67-6.08-5.97 2.72-5.972 6.08-5.972z" fill="#CCCDCF"/><path opacity=".9" d="M44.24 21.101c3.36 0 6.08 2.672 6.08 5.972 0 3.3-2.72 5.97-6.08 5.97s-6.08-2.67-6.08-5.97 2.72-5.972 6.08-5.972z" fill="#CCCDCF"/><path opacity=".895" d="M44.24 21.101c3.36 0 6.08 2.672 6.08 5.972 0 3.3-2.72 5.97-6.08 5.97s-6.08-2.67-6.08-5.97 2.72-5.972 6.08-5.972z" fill="#CCCED0"/><path opacity=".89" d="M44.24 21.101c3.36 0 6.08 2.672 6.08 5.972 0 3.3-2.72 5.97-6.08 5.97s-6.08-2.67-6.08-5.97 2.72-5.972 6.08-5.972z" fill="#CCCED0"/><path opacity=".886" d="M44.24 21.101c3.36 0 6.08 2.672 6.08 5.972 0 3.3-2.72 5.97-6.08 5.97s-6.08-2.67-6.08-5.97 2.72-5.972 6.08-5.972z" fill="#CDCED0"/><path opacity=".881" d="M44.24 21.101c3.36 0 6.08 2.672 6.08 5.972 0 3.3-2.72 5.97-6.08 5.97s-6.08-2.67-6.08-5.97 2.72-5.972 6.08-5.972z" fill="#CDCED0"/><path opacity=".876" d="M44.24 21.101c3.36 0 6.08 2.672 6.08 5.972 0 3.3-2.72 5.97-6.08 5.97s-6.08-2.67-6.08-5.97 2.72-5.972 6.08-5.972z" fill="#CDCFD1"/><path opacity=".871" d="M44.24 21.101c3.36 0 6.08 2.672 6.08 5.972 0 3.3-2.72 5.97-6.08 5.97s-6.08-2.67-6.08-5.97 2.72-5.972 6.08-5.972z" fill="#CDCFD1"/><path opacity=".866" d="M44.24 21.101c3.36 0 6.08 2.672 6.08 5.972 0 3.3-2.72 5.97-6.08 5.97s-6.08-2.67-6.08-5.97 2.72-5.972 6.08-5.972z" fill="#CECFD1"/><path opacity=".861" d="M44.24 21.101c3.36 0 6.08 2.672 6.08 5.972 0 3.3-2.72 5.97-6.08 5.97s-6.08-2.67-6.08-5.97 2.72-5.972 6.08-5.972z" fill="#CED0D1"/><path opacity=".856" d="M44.24 21.101c3.36 0 6.08 2.672 6.08 5.972 0 3.3-2.72 5.97-6.08 5.97s-6.08-2.67-6.08-5.97 2.72-5.972 6.08-5.972z" fill="#CED0D1"/><path opacity=".851" d="M44.24 21.101c3.36 0 6.08 2.672 6.08 5.972 0 3.3-2.72 5.97-6.08 5.97s-6.08-2.67-6.08-5.97 2.72-5.972 6.08-5.972z" fill="#CED0D2"/><path opacity=".846" d="M44.24 21.101c3.36 0 6.08 2.672 6.08 5.972 0 3.3-2.72 5.97-6.08 5.97s-6.08-2.67-6.08-5.97 2.72-5.972 6.08-5.972z" fill="#CFD0D2"/><path opacity=".841" d="M44.24 21.101c3.36 0 6.08 2.672 6.08 5.972 0 3.3-2.72 5.97-6.08 5.97s-6.08-2.67-6.08-5.97 2.72-5.972 6.08-5.972z" fill="#CFD1D2"/><path opacity=".836" d="M44.24 21.101c3.36 0 6.08 2.672 6.08 5.972 0 3.3-2.72 5.97-6.08 5.97s-6.08-2.67-6.08-5.97 2.72-5.972 6.08-5.972z" fill="#CFD1D2"/><path opacity=".831" d="M44.24 21.101c3.36 0 6.08 2.672 6.08 5.972 0 3.3-2.72 5.97-6.08 5.97s-6.08-2.67-6.08-5.97 2.72-5.972 6.08-5.972z" fill="#D0D1D3"/><path opacity=".826" d="M44.24 21.101c3.36 0 6.08 2.672 6.08 5.972 0 3.3-2.72 5.97-6.08 5.97s-6.08-2.67-6.08-5.97 2.72-5.972 6.08-5.972z" fill="#D0D1D3"/><path opacity=".821" d="M44.24 21.101c3.36 0 6.08 2.672 6.08 5.972 0 3.3-2.72 5.97-6.08 5.97s-6.08-2.67-6.08-5.97 2.72-5.972 6.08-5.972z" fill="#D0D2D3"/><path opacity=".816" d="M44.24 21.101c3.36 0 6.08 2.672 6.08 5.972 0 3.3-2.72 5.97-6.08 5.97s-6.08-2.67-6.08-5.97 2.72-5.972 6.08-5.972z" fill="#D0D2D3"/><path opacity=".811" d="M44.24 21.101c3.36 0 6.08 2.672 6.08 5.972 0 3.3-2.72 5.97-6.08 5.97s-6.08-2.67-6.08-5.97 2.72-5.972 6.08-5.972z" fill="#D1D2D4"/><path opacity=".806" d="M44.24 21.101c3.36 0 6.08 2.672 6.08 5.972 0 3.3-2.72 5.97-6.08 5.97s-6.08-2.67-6.08-5.97 2.72-5.972 6.08-5.972z" fill="#D1D2D4"/><path opacity=".801" d="M44.24 21.101c3.36 0 6.08 2.672 6.08 5.972 0 3.3-2.72 5.97-6.08 5.97s-6.08-2.67-6.08-5.97 2.72-5.972 6.08-5.972z" fill="#D1D3D4"/><path opacity=".796" d="M44.24 21.101c3.36 0 6.08 2.672 6.08 5.972 0 3.3-2.72 5.97-6.08 5.97s-6.08-2.67-6.08-5.97 2.72-5.972 6.08-5.972z" fill="#D1D3D4"/><path opacity=".791" d="M44.24 21.101c3.36 0 6.08 2.672 6.08 5.972 0 3.3-2.72 5.97-6.08 5.97s-6.08-2.67-6.08-5.97 2.72-5.972 6.08-5.972z" fill="#D2D3D5"/><path opacity=".786" d="M44.24 21.101c3.36 0 6.08 2.672 6.08 5.972 0 3.3-2.72 5.97-6.08 5.97s-6.08-2.67-6.08-5.97 2.72-5.972 6.08-5.972z" fill="#D2D3D5"/><path opacity=".781" d="M44.24 21.101c3.36 0 6.08 2.672 6.08 5.972 0 3.3-2.72 5.97-6.08 5.97s-6.08-2.67-6.08-5.97 2.72-5.972 6.08-5.972z" fill="#D2D4D5"/><path opacity=".776" d="M44.24 21.101c3.36 0 6.08 2.672 6.08 5.972 0 3.3-2.72 5.97-6.08 5.97s-6.08-2.67-6.08-5.97 2.72-5.972 6.08-5.972z" fill="#D2D4D5"/><path opacity=".771" d="M44.24 21.101c3.36 0 6.08 2.672 6.08 5.972 0 3.3-2.72 5.97-6.08 5.97s-6.08-2.67-6.08-5.97 2.72-5.972 6.08-5.972z" fill="#D3D4D6"/><path opacity=".766" d="M44.24 21.101c3.36 0 6.08 2.672 6.08 5.972 0 3.3-2.72 5.97-6.08 5.97s-6.08-2.67-6.08-5.97 2.72-5.972 6.08-5.972z" fill="#D3D4D6"/><path opacity=".761" d="M44.24 21.101c3.36 0 6.08 2.672 6.08 5.972 0 3.3-2.72 5.97-6.08 5.97s-6.08-2.67-6.08-5.97 2.72-5.972 6.08-5.972z" fill="#D3D5D6"/><path opacity=".756" d="M44.24 21.101c3.36 0 6.08 2.672 6.08 5.972 0 3.3-2.72 5.97-6.08 5.97s-6.08-2.67-6.08-5.97 2.72-5.972 6.08-5.972z" fill="#D3D5D6"/><path opacity=".751" d="M44.24 21.101c3.36 0 6.08 2.672 6.08 5.972 0 3.3-2.72 5.97-6.08 5.97s-6.08-2.67-6.08-5.97 2.72-5.972 6.08-5.972z" fill="#D4D5D7"/><path opacity=".746" d="M44.24 21.257c3.36 0 6.08 2.671 6.08 5.971 0 3.3-2.72 5.972-6.08 5.972s-6.08-2.672-6.08-5.972c0-3.457 2.72-5.971 6.08-5.971z" fill="#D4D5D7"/><path opacity=".741" d="M44.24 21.257c3.36 0 6.08 2.671 6.08 5.971 0 3.3-2.72 5.972-6.08 5.972s-6.08-2.672-6.08-5.972c0-3.457 2.72-5.971 6.08-5.971z" fill="#D4D6D7"/><path opacity=".736" d="M44.24 21.257c3.36 0 6.08 2.671 6.08 5.971 0 3.3-2.72 5.972-6.08 5.972s-6.08-2.672-6.08-5.972c0-3.457 2.72-5.971 6.08-5.971z" fill="#D5D6D7"/><path opacity=".731" d="M44.24 21.257c3.36 0 6.08 2.671 6.08 5.971 0 3.3-2.72 5.972-6.08 5.972s-6.08-2.672-6.08-5.972c0-3.457 2.72-5.971 6.08-5.971z" fill="#D5D6D8"/><path opacity=".726" d="M44.24 21.257c3.36 0 6.08 2.671 6.08 5.971 0 3.3-2.72 5.972-6.08 5.972s-6.08-2.672-6.08-5.972c0-3.3 2.72-5.971 6.08-5.971z" fill="#D5D6D8"/><path opacity=".721" d="M44.24 21.257c3.36 0 6.08 2.671 6.08 5.971 0 3.3-2.72 5.972-6.08 5.972s-6.08-2.672-6.08-5.972c0-3.3 2.72-5.971 6.08-5.971z" fill="#D5D7D8"/><path opacity=".716" d="M44.24 21.257c3.36 0 6.08 2.671 6.08 5.971 0 3.3-2.72 5.972-6.08 5.972s-6.08-2.672-6.08-5.972c0-3.3 2.72-5.971 6.08-5.971z" fill="#D6D7D8"/><path opacity=".711" d="M44.24 21.257c3.36 0 6.08 2.671 6.08 5.971 0 3.3-2.72 5.972-6.08 5.972s-6.08-2.672-6.08-5.972c0-3.3 2.72-5.971 6.08-5.971z" fill="#D6D7D9"/><path opacity=".707" d="M44.24 21.257c3.36 0 6.08 2.671 6.08 5.971 0 3.3-2.72 5.972-6.08 5.972s-6.08-2.672-6.08-5.972c0-3.3 2.72-5.971 6.08-5.971z" fill="#D6D7D9"/><path opacity=".702" d="M44.24 21.257c3.36 0 6.08 2.671 6.08 5.971 0 3.3-2.72 5.972-6.08 5.972s-6.08-2.672-6.08-5.972c0-3.3 2.72-5.971 6.08-5.971z" fill="#D6D8D9"/><path opacity=".697" d="M44.24 21.257c3.36 0 6.08 2.671 6.08 5.971 0 3.3-2.72 5.972-6.08 5.972s-6.08-2.672-6.08-5.972c0-3.3 2.72-5.971 6.08-5.971z" fill="#D7D8D9"/><path opacity=".692" d="M44.24 21.257c3.36 0 6.08 2.671 6.08 5.971 0 3.3-2.72 5.972-6.08 5.972s-6.08-2.672-6.08-5.972c.16-3.3 2.72-5.971 6.08-5.971z" fill="#D7D8DA"/><path opacity=".687" d="M44.24 21.257c3.36 0 6.08 2.671 6.08 5.971 0 3.3-2.72 5.972-6.08 5.972s-6.08-2.672-6.08-5.972c.16-3.3 2.72-5.971 6.08-5.971z" fill="#D7D8DA"/><path opacity=".682" d="M44.24 21.257c3.36 0 6.08 2.671 6.08 5.971 0 3.3-2.72 5.972-6.08 5.972s-6.08-2.672-6.08-5.972c.16-3.3 2.72-5.971 6.08-5.971z" fill="#D7D9DA"/><path opacity=".677" d="M44.24 21.257c3.36 0 6.08 2.671 6.08 5.971 0 3.3-2.72 5.972-6.08 5.972s-6.08-2.672-6.08-5.972c.16-3.3 2.72-5.971 6.08-5.971z" fill="#D8D9DA"/><path opacity=".672" d="M44.24 21.257c3.36 0 6.08 2.671 6.08 5.971 0 3.3-2.72 5.972-6.08 5.972s-6.08-2.672-6.08-5.972c.16-3.3 2.88-5.971 6.08-5.971z" fill="#D8D9DB"/><path opacity=".667" d="M44.24 21.257c3.36 0 6.08 2.671 6.08 5.971 0 3.3-2.72 5.972-6.08 5.972s-6.08-2.672-6.08-5.972c.16-3.3 2.88-5.971 6.08-5.971z" fill="#D8D9DB"/><path opacity=".662" d="M44.24 21.257c3.36 0 6.08 2.671 6.08 5.971 0 3.3-2.72 5.972-6.08 5.972s-6.08-2.672-6.08-5.972c.16-3.3 2.88-5.971 6.08-5.971z" fill="#D8DADB"/><path opacity=".657" d="M44.24 21.257c3.36 0 6.08 2.671 6.08 5.971 0 3.3-2.72 5.972-6.08 5.972s-6.08-2.672-6.08-5.972c.16-3.3 2.88-5.971 6.08-5.971z" fill="#D9DADB"/><path opacity=".652" d="M44.24 21.257c3.36 0 6.08 2.671 6.08 5.971 0 3.3-2.72 5.972-6.08 5.972s-6.08-2.672-6.08-5.972c.16-3.3 2.88-5.971 6.08-5.971z" fill="#D9DADC"/><path opacity=".647" d="M44.24 21.257c3.36 0 6.08 2.671 6.08 5.971 0 3.3-2.72 5.972-6.08 5.972s-6.08-2.672-6.08-5.972c.16-3.3 2.88-5.971 6.08-5.971z" fill="#D9DBDC"/><path opacity=".642" d="M44.24 21.257c3.36 0 6.08 2.671 6.08 5.971 0 3.3-2.72 5.972-6.08 5.972s-6.08-2.672-6.08-5.972c.16-3.3 2.88-5.971 6.08-5.971z" fill="#DADBDC"/><path opacity=".637" d="M44.402 21.257c3.36 0 6.08 2.671 6.08 5.971 0 3.3-2.72 5.972-6.08 5.972s-6.08-2.672-6.08-5.972c0-3.3 2.72-5.971 6.08-5.971z" fill="#DADBDC"/><path opacity=".632" d="M44.402 21.257c3.36 0 6.08 2.671 6.08 5.971 0 3.3-2.72 5.972-6.08 5.972s-6.08-2.672-6.08-5.972c0-3.3 2.72-5.971 6.08-5.971z" fill="#DADBDD"/><path opacity=".627" d="M44.402 21.257c3.36 0 6.08 2.671 6.08 5.971 0 3.3-2.72 5.972-6.08 5.972s-6.08-2.672-6.08-5.972c0-3.3 2.72-5.971 6.08-5.971z" fill="#DADCDD"/><path opacity=".622" d="M44.402 21.257c3.36 0 6.08 2.671 6.08 5.971 0 3.3-2.72 5.972-6.08 5.972s-6.08-2.672-6.08-5.972c0-3.3 2.72-5.971 6.08-5.971z" fill="#DBDCDD"/><path opacity=".617" d="M44.402 21.257c3.36 0 6.08 2.671 6.08 5.971 0 3.3-2.72 5.972-6.08 5.972s-6.08-2.672-6.08-5.972c0-3.3 2.72-5.971 6.08-5.971z" fill="#DBDCDD"/><path opacity=".612" d="M44.402 21.257c3.36 0 6.08 2.671 6.08 5.971 0 3.3-2.72 5.972-6.08 5.972s-6.08-2.672-6.08-5.972c0-3.3 2.72-5.971 6.08-5.971z" fill="#DBDCDE"/><path opacity=".607" d="M44.402 21.257c3.36 0 6.08 2.671 6.08 5.971 0 3.3-2.72 5.972-6.08 5.972s-6.08-2.672-6.08-5.972c0-3.3 2.72-5.971 6.08-5.971z" fill="#DBDDDE"/><path opacity=".602" d="M44.402 21.257c3.36 0 6.08 2.671 6.08 5.971 0 3.3-2.72 5.972-6.08 5.972s-6.08-2.672-6.08-5.972c0-3.3 2.72-5.971 6.08-5.971z" fill="#DCDDDE"/><path opacity=".597" d="M44.402 21.257c3.36 0 6.08 2.671 6.08 5.971 0 3.3-2.72 5.972-6.08 5.972s-6.08-2.672-6.08-5.972c0-3.3 2.72-5.971 6.08-5.971z" fill="#DCDDDE"/><path opacity=".592" d="M44.402 21.257c3.36 0 6.08 2.671 6.08 5.971 0 3.3-2.72 5.972-6.08 5.972s-6.08-2.672-6.08-5.972c0-3.3 2.72-5.971 6.08-5.971z" fill="#DCDDDF"/><path opacity=".587" d="M44.402 21.257c3.36 0 6.08 2.671 6.08 5.971 0 3.3-2.72 5.972-6.08 5.972s-6.08-2.672-6.08-5.972c0-3.3 2.72-5.971 6.08-5.971z" fill="#DCDEDF"/><path opacity=".582" d="M44.402 21.257c3.36 0 6.08 2.671 6.08 5.971 0 3.3-2.72 5.972-6.08 5.972s-6.08-2.672-6.08-5.972c0-3.3 2.72-5.971 6.08-5.971z" fill="#DDDEDF"/><path opacity=".577" d="M44.402 21.257c3.36 0 6.08 2.671 6.08 5.971 0 3.3-2.72 5.972-6.08 5.972s-6.08-2.672-6.08-5.972c0-3.3 2.72-5.971 6.08-5.971z" fill="#DDDEDF"/><path opacity=".572" d="M44.402 21.257c3.36 0 6.08 2.671 6.08 5.971 0 3.3-2.72 5.972-6.08 5.972s-6.08-2.672-6.08-5.972c0-3.3 2.72-5.971 6.08-5.971z" fill="#DDDEE0"/><path opacity=".567" d="M44.402 21.257c3.36 0 6.08 2.671 6.08 5.971 0 3.3-2.72 5.972-6.08 5.972s-6.08-2.672-6.08-5.972c0-3.3 2.72-5.971 6.08-5.971z" fill="#DDDFE0"/><path opacity=".562" d="M44.402 21.257c3.36 0 6.08 2.671 6.08 5.971 0 3.3-2.72 5.972-6.08 5.972s-6.08-2.672-6.08-5.972c0-3.3 2.72-5.971 6.08-5.971z" fill="#DEDFE0"/><path opacity=".557" d="M44.402 21.257c3.36 0 6.08 2.671 6.08 5.971 0 3.3-2.72 5.972-6.08 5.972s-6.08-2.672-6.08-5.972c0-3.3 2.72-5.971 6.08-5.971z" fill="#DEDFE0"/><path opacity=".552" d="M44.402 21.257c3.36 0 6.08 2.671 6.08 5.971 0 3.3-2.72 5.972-6.08 5.972s-6.08-2.672-6.08-5.972c0-3.3 2.72-5.971 6.08-5.971z" fill="#DEDFE1"/><path opacity=".547" d="M44.402 21.257c3.36 0 6.08 2.671 6.08 5.971 0 3.3-2.72 5.972-6.08 5.972s-6.08-2.672-6.08-5.972c0-3.3 2.72-5.971 6.08-5.971z" fill="#DFE0E1"/><path opacity=".542" d="M44.402 21.257c3.36 0 6.08 2.671 6.08 5.971 0 3.3-2.72 5.972-6.08 5.972s-6.08-2.672-6.08-5.972c0-3.3 2.72-5.971 6.08-5.971z" fill="#DFE0E1"/><path opacity=".537" d="M44.402 21.257c3.36 0 6.08 2.671 6.08 5.971 0 3.3-2.72 5.972-6.08 5.972s-6.08-2.672-6.08-5.972c0-3.3 2.72-5.971 6.08-5.971z" fill="#DFE0E1"/><path opacity=".532" d="M44.402 21.257c3.36 0 6.08 2.671 6.08 5.971 0 3.3-2.72 5.972-6.08 5.972s-6.08-2.672-6.08-5.972c0-3.3 2.72-5.971 6.08-5.971z" fill="#DFE0E2"/><path opacity=".527" d="M44.402 21.257c3.36 0 6.08 2.671 6.08 5.971 0 3.3-2.72 5.972-6.08 5.972s-6.08-2.672-6.08-5.972c0-3.3 2.72-5.971 6.08-5.971z" fill="#E0E1E2"/><path opacity=".522" d="M44.402 21.257c3.36 0 6.08 2.671 6.08 5.971 0 3.3-2.72 5.972-6.08 5.972s-6.08-2.672-6.08-5.972c0-3.3 2.72-5.971 6.08-5.971z" fill="#E0E1E2"/><path opacity=".517" d="M44.402 21.415c3.36 0 6.08 2.672 6.08 5.972 0 3.3-2.72 5.971-6.08 5.971s-6.08-2.671-6.08-5.971c0-3.457 2.72-5.972 6.08-5.972z" fill="#E0E1E2"/><path opacity=".512" d="M44.402 21.415c3.36 0 6.08 2.672 6.08 5.972 0 3.3-2.72 5.971-6.08 5.971s-6.08-2.671-6.08-5.971c0-3.457 2.72-5.972 6.08-5.972z" fill="#E0E1E3"/><path opacity=".507" d="M44.402 21.415c3.36 0 6.08 2.672 6.08 5.972 0 3.3-2.72 5.971-6.08 5.971s-6.08-2.671-6.08-5.971c0-3.457 2.72-5.972 6.08-5.972z" fill="#E1E2E3"/><path opacity=".502" d="M44.402 21.415c3.36 0 6.08 2.672 6.08 5.972 0 3.3-2.72 5.971-6.08 5.971s-6.08-2.671-6.08-5.971c0-3.457 2.72-5.972 6.08-5.972z" fill="#E1E2E3"/><path opacity=".497" d="M44.402 21.415c3.36 0 6.08 2.672 6.08 5.972 0 3.3-2.72 5.971-6.08 5.971s-6.08-2.671-6.08-5.971c0-3.3 2.72-5.972 6.08-5.972z" fill="#E1E2E3"/><path opacity=".492" d="M44.402 21.415c3.36 0 6.08 2.672 6.08 5.972 0 3.3-2.72 5.971-6.08 5.971s-6.08-2.671-6.08-5.971c0-3.3 2.72-5.972 6.08-5.972z" fill="#E1E2E4"/><path opacity=".488" d="M44.402 21.415c3.36 0 6.08 2.672 6.08 5.972 0 3.3-2.72 5.971-6.08 5.971s-6.08-2.671-6.08-5.971c0-3.3 2.72-5.972 6.08-5.972z" fill="#E2E3E4"/><path opacity=".483" d="M44.402 21.415c3.36 0 6.08 2.672 6.08 5.972 0 3.3-2.72 5.971-6.08 5.971s-6.08-2.671-6.08-5.971c0-3.3 2.72-5.972 6.08-5.972z" fill="#E2E3E4"/><path opacity=".478" d="M44.402 21.415c3.36 0 6.08 2.672 6.08 5.972 0 3.3-2.72 5.971-6.08 5.971s-6.08-2.671-6.08-5.971c0-3.3 2.72-5.972 6.08-5.972z" fill="#E2E3E4"/><path opacity=".473" d="M44.402 21.415c3.36 0 6.08 2.672 6.08 5.972 0 3.3-2.72 5.971-6.08 5.971s-6.08-2.671-6.08-5.971c0-3.3 2.72-5.972 6.08-5.972z" fill="#E2E3E4"/><path opacity=".468" d="M44.402 21.415c3.36 0 6.08 2.672 6.08 5.972 0 3.3-2.72 5.971-6.08 5.971s-6.08-2.671-6.08-5.971c0-3.3 2.72-5.972 6.08-5.972z" fill="#E3E4E5"/><path opacity=".463" d="M44.402 21.415c3.36 0 6.08 2.672 6.08 5.972 0 3.3-2.72 5.971-6.08 5.971s-6.08-2.671-6.08-5.971c0-3.3 2.72-5.972 6.08-5.972z" fill="#E3E4E5"/><path opacity=".458" d="M44.402 21.415c3.36 0 6.08 2.672 6.08 5.972 0 3.3-2.72 5.971-6.08 5.971s-6.08-2.671-6.08-5.971c0-3.3 2.72-5.972 6.08-5.972z" fill="#E3E4E5"/><path opacity=".453" d="M44.402 21.415c3.36 0 6.08 2.672 6.08 5.972 0 3.3-2.72 5.971-6.08 5.971s-6.08-2.671-6.08-5.971c0-3.3 2.72-5.972 6.08-5.972z" fill="#E3E4E5"/><path opacity=".448" d="M44.402 21.415c3.36 0 6.08 2.672 6.08 5.972 0 3.3-2.72 5.971-6.08 5.971s-6.08-2.671-6.08-5.971c0-3.3 2.72-5.972 6.08-5.972z" fill="#E4E5E6"/><path opacity=".443" d="M44.402 21.415c3.36 0 6.08 2.672 6.08 5.972 0 3.3-2.72 5.971-6.08 5.971s-6.08-2.671-6.08-5.971c0-3.3 2.72-5.972 6.08-5.972z" fill="#E4E5E6"/><path opacity=".438" d="M44.402 21.415c3.36 0 6.08 2.672 6.08 5.972 0 3.3-2.72 5.971-6.08 5.971s-6.08-2.671-6.08-5.971c0-3.3 2.72-5.972 6.08-5.972z" fill="#E4E5E6"/><path opacity=".433" d="M44.402 21.415c3.36 0 6.08 2.672 6.08 5.972 0 3.3-2.72 5.971-6.08 5.971s-6.08-2.671-6.08-5.971c0-3.3 2.72-5.972 6.08-5.972z" fill="#E5E5E6"/><path opacity=".428" d="M44.402 21.415c3.36 0 6.08 2.672 6.08 5.972 0 3.3-2.72 5.971-6.08 5.971s-6.08-2.671-6.08-5.971c0-3.3 2.72-5.972 6.08-5.972z" fill="#E5E6E7"/><path opacity=".423" d="M44.402 21.415c3.36 0 6.08 2.672 6.08 5.972 0 3.3-2.72 5.971-6.08 5.971s-6.08-2.671-6.08-5.971c0-3.3 2.72-5.972 6.08-5.972z" fill="#E5E6E7"/><path opacity=".418" d="M44.402 21.415c3.36 0 6.08 2.672 6.08 5.972 0 3.3-2.72 5.971-6.08 5.971s-6.08-2.671-6.08-5.971c.16-3.3 2.72-5.972 6.08-5.972z" fill="#E5E6E7"/><path opacity=".413" d="M44.402 21.415c3.36 0 6.08 2.672 6.08 5.972 0 3.3-2.72 5.971-6.08 5.971s-6.08-2.671-6.08-5.971c.16-3.3 2.72-5.972 6.08-5.972z" fill="#E6E6E7"/><path opacity=".408" d="M44.402 21.415c3.36 0 6.08 2.672 6.08 5.972 0 3.3-2.72 5.971-6.08 5.971s-6.08-2.671-6.08-5.971c.16-3.3 2.72-5.972 6.08-5.972z" fill="#E6E7E8"/><path opacity=".403" d="M44.402 21.415c3.36 0 6.08 2.672 6.08 5.972 0 3.3-2.72 5.971-6.08 5.971s-6.08-2.671-6.08-5.971c.16-3.3 2.72-5.972 6.08-5.972z" fill="#E6E7E8"/><path opacity=".398" d="M44.402 21.415c3.36 0 6.08 2.672 6.08 5.972 0 3.3-2.72 5.971-6.08 5.971s-6.08-2.671-6.08-5.971c.16-3.3 2.88-5.972 6.08-5.972z" fill="#E6E7E8"/><path opacity=".393" d="M44.402 21.415c3.36 0 6.08 2.672 6.08 5.972 0 3.3-2.72 5.971-6.08 5.971s-6.08-2.671-6.08-5.971c.16-3.3 2.88-5.972 6.08-5.972z" fill="#E7E8E8"/><path opacity=".388" d="M44.402 21.415c3.36 0 6.08 2.672 6.08 5.972 0 3.3-2.72 5.971-6.08 5.971s-6.08-2.671-6.08-5.971c.16-3.3 2.88-5.972 6.08-5.972z" fill="#E7E8E9"/><path opacity=".383" d="M44.402 21.415c3.36 0 6.08 2.672 6.08 5.972 0 3.3-2.72 5.971-6.08 5.971s-6.08-2.671-6.08-5.971c.16-3.3 2.88-5.972 6.08-5.972z" fill="#E7E8E9"/><path opacity=".378" d="M44.402 21.415c3.36 0 6.08 2.672 6.08 5.972 0 3.3-2.72 5.971-6.08 5.971s-6.08-2.671-6.08-5.971c.16-3.3 2.88-5.972 6.08-5.972z" fill="#E8E8E9"/><path opacity=".373" d="M44.402 21.415c3.36 0 6.08 2.672 6.08 5.972 0 3.3-2.72 5.971-6.08 5.971s-6.08-2.671-6.08-5.971c.16-3.3 2.88-5.972 6.08-5.972z" fill="#E8E9E9"/><path opacity=".368" d="M44.402 21.415c3.36 0 6.08 2.672 6.08 5.972 0 3.3-2.72 5.971-6.08 5.971s-6.08-2.671-6.08-5.971c.16-3.3 2.88-5.972 6.08-5.972z" fill="#E8E9EA"/><path opacity=".363" d="M44.559 21.415c3.36 0 6.08 2.672 6.08 5.972 0 3.3-2.72 5.971-6.08 5.971s-6.08-2.671-6.08-5.971c0-3.3 2.72-5.972 6.08-5.972z" fill="#E8E9EA"/><path opacity=".358" d="M44.559 21.415c3.36 0 6.08 2.672 6.08 5.972 0 3.3-2.72 5.971-6.08 5.971s-6.08-2.671-6.08-5.971c0-3.3 2.72-5.972 6.08-5.972z" fill="#E9E9EA"/><path opacity=".353" d="M44.559 21.415c3.36 0 6.08 2.672 6.08 5.972 0 3.3-2.72 5.971-6.08 5.971s-6.08-2.671-6.08-5.971c0-3.3 2.72-5.972 6.08-5.972z" fill="#E9EAEB"/><path opacity=".348" d="M44.559 21.415c3.36 0 6.08 2.672 6.08 5.972 0 3.3-2.72 5.971-6.08 5.971s-6.08-2.671-6.08-5.971c0-3.3 2.72-5.972 6.08-5.972z" fill="#E9EAEB"/><path opacity=".343" d="M44.559 21.415c3.36 0 6.08 2.672 6.08 5.972 0 3.3-2.72 5.971-6.08 5.971s-6.08-2.671-6.08-5.971c0-3.3 2.72-5.972 6.08-5.972z" fill="#EAEAEB"/><path opacity=".338" d="M44.559 21.415c3.36 0 6.08 2.672 6.08 5.972 0 3.3-2.72 5.971-6.08 5.971s-6.08-2.671-6.08-5.971c0-3.3 2.72-5.972 6.08-5.972z" fill="#EAEBEB"/><path opacity=".333" d="M44.559 21.415c3.36 0 6.08 2.672 6.08 5.972 0 3.3-2.72 5.971-6.08 5.971s-6.08-2.671-6.08-5.971c0-3.3 2.72-5.972 6.08-5.972z" fill="#EAEBEC"/><path opacity=".328" d="M44.559 21.415c3.36 0 6.08 2.672 6.08 5.972 0 3.3-2.72 5.971-6.08 5.971s-6.08-2.671-6.08-5.971c0-3.3 2.72-5.972 6.08-5.972z" fill="#EAEBEC"/><path opacity=".323" d="M44.559 21.415c3.36 0 6.08 2.672 6.08 5.972 0 3.3-2.72 5.971-6.08 5.971s-6.08-2.671-6.08-5.971c0-3.3 2.72-5.972 6.08-5.972z" fill="#EBEBEC"/><path opacity=".318" d="M44.559 21.415c3.36 0 6.08 2.672 6.08 5.972 0 3.3-2.72 5.971-6.08 5.971s-6.08-2.671-6.08-5.971c0-3.3 2.72-5.972 6.08-5.972z" fill="#EBECEC"/><path opacity=".313" d="M44.559 21.415c3.36 0 6.08 2.672 6.08 5.972 0 3.3-2.72 5.971-6.08 5.971s-6.08-2.671-6.08-5.971c0-3.3 2.72-5.972 6.08-5.972z" fill="#EBECED"/><path opacity=".308" d="M44.559 21.415c3.36 0 6.08 2.672 6.08 5.972 0 3.3-2.72 5.971-6.08 5.971s-6.08-2.671-6.08-5.971c0-3.3 2.72-5.972 6.08-5.972z" fill="#EBECED"/><path opacity=".303" d="M44.559 21.415c3.36 0 6.08 2.672 6.08 5.972 0 3.3-2.72 5.971-6.08 5.971s-6.08-2.671-6.08-5.971c0-3.3 2.72-5.972 6.08-5.972z" fill="#ECECED"/><path opacity=".298" d="M44.559 21.415c3.36 0 6.08 2.672 6.08 5.972 0 3.3-2.72 5.971-6.08 5.971s-6.08-2.671-6.08-5.971c0-3.3 2.72-5.972 6.08-5.972z" fill="#ECECED"/><path opacity=".293" d="M44.559 21.415c3.36 0 6.08 2.672 6.08 5.972 0 3.3-2.72 5.971-6.08 5.971s-6.08-2.671-6.08-5.971c0-3.3 2.72-5.972 6.08-5.972z" fill="#ECEDED"/><path opacity=".289" d="M44.559 21.571c3.36 0 6.08 2.671 6.08 5.971 0 3.3-2.72 5.972-6.08 5.972s-6.08-2.672-6.08-5.972c0-3.457 2.72-5.971 6.08-5.971z" fill="#ECEDEE"/><path opacity=".284" d="M44.559 21.571c3.36 0 6.08 2.671 6.08 5.971 0 3.3-2.72 5.972-6.08 5.972s-6.08-2.672-6.08-5.972c0-3.457 2.72-5.971 6.08-5.971z" fill="#EDEDEE"/><path opacity=".279" d="M44.559 21.571c3.36 0 6.08 2.671 6.08 5.971 0 3.3-2.72 5.972-6.08 5.972s-6.08-2.672-6.08-5.972c0-3.457 2.72-5.971 6.08-5.971z" fill="#EDEEEE"/><path opacity=".274" d="M44.559 21.571c3.36 0 6.08 2.671 6.08 5.971 0 3.3-2.72 5.972-6.08 5.972s-6.08-2.672-6.08-5.972c0-3.457 2.72-5.971 6.08-5.971z" fill="#EDEEEE"/><path opacity=".269" d="M44.559 21.571c3.36 0 6.08 2.671 6.08 5.971 0 3.3-2.72 5.972-6.08 5.972s-6.08-2.672-6.08-5.972c0-3.3 2.72-5.971 6.08-5.971z" fill="#EDEEEF"/><path opacity=".264" d="M44.559 21.571c3.36 0 6.08 2.671 6.08 5.971 0 3.3-2.72 5.972-6.08 5.972s-6.08-2.672-6.08-5.972c0-3.3 2.72-5.971 6.08-5.971z" fill="#EEEEEF"/><path opacity=".259" d="M44.559 21.571c3.36 0 6.08 2.671 6.08 5.971 0 3.3-2.72 5.972-6.08 5.972s-6.08-2.672-6.08-5.972c0-3.3 2.72-5.971 6.08-5.971z" fill="#EEEFEF"/><path opacity=".254" d="M44.559 21.571c3.36 0 6.08 2.671 6.08 5.971 0 3.3-2.72 5.972-6.08 5.972s-6.08-2.672-6.08-5.972c0-3.3 2.72-5.971 6.08-5.971z" fill="#EEEFEF"/><path opacity=".249" d="M44.559 21.571c3.36 0 6.08 2.671 6.08 5.971 0 3.3-2.72 5.972-6.08 5.972s-6.08-2.672-6.08-5.972c0-3.3 2.72-5.971 6.08-5.971z" fill="#EEEFF0"/><path opacity=".244" d="M44.559 21.571c3.36 0 6.08 2.671 6.08 5.971 0 3.3-2.72 5.972-6.08 5.972s-6.08-2.672-6.08-5.972c0-3.3 2.72-5.971 6.08-5.971z" fill="#EFEFF0"/><path opacity=".239" d="M44.559 21.571c3.36 0 6.08 2.671 6.08 5.971 0 3.3-2.72 5.972-6.08 5.972s-6.08-2.672-6.08-5.972c0-3.3 2.72-5.971 6.08-5.971z" fill="#EFF0F0"/><path opacity=".234" d="M44.559 21.571c3.36 0 6.08 2.671 6.08 5.971 0 3.3-2.72 5.972-6.08 5.972s-6.08-2.672-6.08-5.972c0-3.3 2.72-5.971 6.08-5.971z" fill="#EFF0F0"/><path opacity=".229" d="M44.559 21.571c3.36 0 6.08 2.671 6.08 5.971 0 3.3-2.72 5.972-6.08 5.972s-6.08-2.672-6.08-5.972c0-3.3 2.72-5.971 6.08-5.971z" fill="#F0F0F1"/><path opacity=".224" d="M44.559 21.571c3.36 0 6.08 2.671 6.08 5.971 0 3.3-2.72 5.972-6.08 5.972s-6.08-2.672-6.08-5.972c0-3.3 2.72-5.971 6.08-5.971z" fill="#F0F0F1"/><path opacity=".219" d="M44.559 21.571c3.36 0 6.08 2.671 6.08 5.971 0 3.3-2.72 5.972-6.08 5.972s-6.08-2.672-6.08-5.972c0-3.3 2.72-5.971 6.08-5.971z" fill="#F0F1F1"/><path opacity=".214" d="M44.559 21.571c3.36 0 6.08 2.671 6.08 5.971 0 3.3-2.72 5.972-6.08 5.972s-6.08-2.672-6.08-5.972c0-3.3 2.72-5.971 6.08-5.971z" fill="#F0F1F1"/><path opacity=".209" d="M44.559 21.571c3.36 0 6.08 2.671 6.08 5.971 0 3.3-2.72 5.972-6.08 5.972s-6.08-2.672-6.08-5.972c0-3.3 2.72-5.971 6.08-5.971z" fill="#F1F1F2"/><path opacity=".204" d="M44.559 21.571c3.36 0 6.08 2.671 6.08 5.971 0 3.3-2.72 5.972-6.08 5.972s-6.08-2.672-6.08-5.972c0-3.3 2.72-5.971 6.08-5.971z" fill="#F1F1F2"/><path opacity=".199" d="M44.559 21.571c3.36 0 6.08 2.671 6.08 5.971 0 3.3-2.72 5.972-6.08 5.972s-6.08-2.672-6.08-5.972c0-3.3 2.72-5.971 6.08-5.971z" fill="#F1F2F2"/><path opacity=".194" d="M44.559 21.571c3.36 0 6.08 2.671 6.08 5.971 0 3.3-2.72 5.972-6.08 5.972s-6.08-2.672-6.08-5.972c0-3.3 2.72-5.971 6.08-5.971z" fill="#F1F2F2"/><path opacity=".189" d="M44.559 21.571c3.36 0 6.08 2.671 6.08 5.971 0 3.3-2.72 5.972-6.08 5.972s-6.08-2.672-6.08-5.972c0-3.3 2.72-5.971 6.08-5.971z" fill="#F2F2F3"/><path opacity=".184" d="M44.559 21.571c3.36 0 6.08 2.671 6.08 5.971 0 3.3-2.72 5.972-6.08 5.972s-6.08-2.672-6.08-5.972c0-3.3 2.72-5.971 6.08-5.971z" fill="#F2F2F3"/><path opacity=".179" d="M44.559 21.571c3.36 0 6.08 2.671 6.08 5.971 0 3.3-2.72 5.972-6.08 5.972s-6.08-2.672-6.08-5.972c0-3.3 2.72-5.971 6.08-5.971z" fill="#F2F3F3"/><path opacity=".174" d="M44.559 21.571c3.36 0 6.08 2.671 6.08 5.971 0 3.3-2.72 5.972-6.08 5.972s-6.08-2.672-6.08-5.972c0-3.3 2.72-5.971 6.08-5.971z" fill="#F2F3F3"/><path opacity=".169" d="M44.559 21.571c3.36 0 6.08 2.671 6.08 5.971 0 3.3-2.72 5.972-6.08 5.972s-6.08-2.672-6.08-5.972c0-3.3 2.72-5.971 6.08-5.971z" fill="#F3F3F4"/><path opacity=".164" d="M44.559 21.571c3.36 0 6.08 2.671 6.08 5.971 0 3.3-2.72 5.972-6.08 5.972s-6.08-2.672-6.08-5.972c0-3.3 2.72-5.971 6.08-5.971z" fill="#F3F3F4"/><path opacity=".159" d="M44.559 21.571c3.36 0 6.08 2.671 6.08 5.971 0 3.3-2.72 5.972-6.08 5.972s-6.08-2.672-6.08-5.972c0-3.3 2.72-5.971 6.08-5.971z" fill="#F3F4F4"/><path opacity=".154" d="M44.559 21.571c3.36 0 6.08 2.671 6.08 5.971 0 3.3-2.72 5.972-6.08 5.972s-6.08-2.672-6.08-5.972c0-3.3 2.72-5.971 6.08-5.971z" fill="#F4F4F4"/><path opacity=".149" d="M44.559 21.571c3.36 0 6.08 2.671 6.08 5.971 0 3.3-2.72 5.972-6.08 5.972s-6.08-2.672-6.08-5.972c0-3.3 2.72-5.971 6.08-5.971z" fill="#F4F4F5"/><path opacity=".144" d="M44.559 21.571c3.36 0 6.08 2.671 6.08 5.971 0 3.3-2.72 5.972-6.08 5.972s-6.08-2.672-6.08-5.972c0-3.3 2.72-5.971 6.08-5.971z" fill="#F4F4F5"/><path opacity=".139" d="M44.559 21.571c3.36 0 6.08 2.671 6.08 5.971 0 3.3-2.72 5.972-6.08 5.972s-6.08-2.672-6.08-5.972c.16-3.3 2.72-5.971 6.08-5.971z" fill="#F4F5F5"/><path opacity=".134" d="M44.559 21.571c3.36 0 6.08 2.671 6.08 5.971 0 3.3-2.72 5.972-6.08 5.972s-6.08-2.672-6.08-5.972c.16-3.3 2.72-5.971 6.08-5.971z" fill="#F5F5F5"/><path opacity=".129" d="M44.559 21.571c3.36 0 6.08 2.671 6.08 5.971 0 3.3-2.72 5.972-6.08 5.972s-6.08-2.672-6.08-5.972c.16-3.3 2.72-5.971 6.08-5.971z" fill="#F5F5F6"/><path opacity=".124" d="M44.559 21.571c3.36 0 6.08 2.671 6.08 5.971 0 3.3-2.72 5.972-6.08 5.972s-6.08-2.672-6.08-5.972c.16-3.3 2.72-5.971 6.08-5.971z" fill="#F5F6F6"/><path opacity=".119" d="M44.559 21.571c3.36 0 6.08 2.671 6.08 5.971 0 3.3-2.72 5.972-6.08 5.972s-6.08-2.672-6.08-5.972c.16-3.3 2.88-5.971 6.08-5.971z" fill="#F6F6F6"/><path opacity=".114" d="M44.559 21.571c3.36 0 6.08 2.671 6.08 5.971 0 3.3-2.72 5.972-6.08 5.972s-6.08-2.672-6.08-5.972c.16-3.3 2.88-5.971 6.08-5.971z" fill="#F6F6F7"/><path opacity=".11" d="M44.559 21.571c3.36 0 6.08 2.671 6.08 5.971 0 3.3-2.72 5.972-6.08 5.972s-6.08-2.672-6.08-5.972c.16-3.3 2.88-5.971 6.08-5.971z" fill="#F6F6F7"/><path opacity=".104" d="M44.559 21.571c3.36 0 6.08 2.671 6.08 5.971 0 3.3-2.72 5.972-6.08 5.972s-6.08-2.672-6.08-5.972c.16-3.3 2.88-5.971 6.08-5.971z" fill="#F6F7F7"/><path opacity=".1" d="M44.559 21.571c3.36 0 6.08 2.671 6.08 5.971 0 3.3-2.72 5.972-6.08 5.972s-6.08-2.672-6.08-5.972c.16-3.3 2.88-5.971 6.08-5.971z" fill="#F7F7F7"/><path opacity=".095" d="M44.559 21.571c3.36 0 6.08 2.671 6.08 5.971 0 3.3-2.72 5.972-6.08 5.972s-6.08-2.672-6.08-5.972c.16-3.3 2.88-5.971 6.08-5.971z" fill="#F7F7F8"/><path opacity=".09" d="M44.559 21.571c3.36 0 6.08 2.671 6.08 5.971 0 3.3-2.72 5.972-6.08 5.972s-6.08-2.672-6.08-5.972c.16-3.3 2.88-5.971 6.08-5.971z" fill="#F7F8F8"/><path opacity=".085" d="M44.72 21.571c3.36 0 6.08 2.671 6.08 5.971 0 3.3-2.72 5.972-6.08 5.972s-6.08-2.672-6.08-5.972c0-3.3 2.72-5.971 6.08-5.971z" fill="#F8F8F8"/><path opacity=".08" d="M44.72 21.571c3.36 0 6.08 2.671 6.08 5.971 0 3.3-2.72 5.972-6.08 5.972s-6.08-2.672-6.08-5.972c0-3.3 2.72-5.971 6.08-5.971z" fill="#F8F8F9"/><path opacity=".075" d="M44.72 21.571c3.36 0 6.08 2.671 6.08 5.971 0 3.3-2.72 5.972-6.08 5.972s-6.08-2.672-6.08-5.972c0-3.3 2.72-5.971 6.08-5.971z" fill="#F8F9F9"/><path opacity=".07" d="M44.72 21.571c3.36 0 6.08 2.671 6.08 5.971 0 3.3-2.72 5.972-6.08 5.972s-6.08-2.672-6.08-5.972c0-3.3 2.72-5.971 6.08-5.971z" fill="#F9F9F9"/><path opacity=".065" d="M44.72 21.571c3.36 0 6.08 2.671 6.08 5.971 0 3.3-2.72 5.972-6.08 5.972s-6.08-2.672-6.08-5.972c0-3.3 2.72-5.971 6.08-5.971z" fill="#F9F9F9"/><path opacity=".06" d="M44.72 21.73c3.36 0 6.08 2.67 6.08 5.97s-2.72 5.973-6.08 5.973S38.64 31 38.64 27.7c0-3.457 2.72-5.971 6.08-5.971z" fill="#F9FAFA"/><path opacity=".055" d="M44.72 21.73c3.36 0 6.08 2.67 6.08 5.97s-2.72 5.973-6.08 5.973S38.64 31 38.64 27.7c0-3.457 2.72-5.971 6.08-5.971z" fill="#FAFAFA"/><path opacity=".05" d="M44.72 21.73c3.36 0 6.08 2.67 6.08 5.97s-2.72 5.973-6.08 5.973S38.64 31 38.64 27.7c0-3.457 2.72-5.971 6.08-5.971z" fill="#FAFAFA"/><path opacity=".045" d="M44.72 21.73c3.36 0 6.08 2.67 6.08 5.97s-2.72 5.973-6.08 5.973S38.64 31 38.64 27.7s2.72-5.971 6.08-5.971z" fill="#FBFBFB"/><path opacity=".04" d="M44.72 21.73c3.36 0 6.08 2.67 6.08 5.97s-2.72 5.973-6.08 5.973S38.64 31 38.64 27.7s2.72-5.971 6.08-5.971z" fill="#FBFBFB"/><path opacity=".035" d="M44.72 21.73c3.36 0 6.08 2.67 6.08 5.97s-2.72 5.973-6.08 5.973S38.64 31 38.64 27.7s2.72-5.971 6.08-5.971z" fill="#FBFCFC"/><path opacity=".03" d="M44.72 21.73c3.36 0 6.08 2.67 6.08 5.97s-2.72 5.973-6.08 5.973S38.64 31 38.64 27.7s2.72-5.971 6.08-5.971z" fill="#FCFCFC"/><path opacity=".025" d="M44.72 21.73c3.36 0 6.08 2.67 6.08 5.97s-2.72 5.973-6.08 5.973S38.64 31 38.64 27.7s2.72-5.971 6.08-5.971z" fill="#FCFCFD"/><path opacity=".02" d="M44.72 21.73c3.36 0 6.08 2.67 6.08 5.97s-2.72 5.973-6.08 5.973S38.64 31 38.64 27.7s2.72-5.971 6.08-5.971z" fill="#FDFDFD"/><path opacity=".015" d="M44.72 21.73c3.36 0 6.08 2.67 6.08 5.97s-2.72 5.973-6.08 5.973S38.64 31 38.64 27.7s2.72-5.971 6.08-5.971z" fill="#FDFDFD"/><path opacity=".01" d="M44.72 21.73c3.36 0 6.08 2.67 6.08 5.97s-2.72 5.973-6.08 5.973S38.64 31 38.64 27.7s2.72-5.971 6.08-5.971z" fill="#FEFEFE"/><path opacity=".01" d="M44.72 21.73c3.36 0 6.08 2.67 6.08 5.97s-2.72 5.973-6.08 5.973S38.64 31 38.64 27.7s2.72-5.971 6.08-5.971z" fill="#FEFEFE"/></g><path d="M77.2 20.943c0-.157-.16-.315-.32-.315h-.32v.943h.16v-.314l.32.314h.32l-.32-.471c.16.157.16 0 .16-.157zm-.48.157v-.314c.16 0 .16 0 .16.157s0 .157-.16.157z" fill="#000"/><path d="M76.88 20.314c-.48 0-.8.314-.8.786 0 .471.32.786.8.786.48 0 .8-.315.8-.786 0-.472-.32-.786-.8-.786zm0 1.572c-.32 0-.64-.315-.64-.629s.32-.629.64-.629.64.315.64.63c0 .313-.32.628-.64.628z" fill="#000"/><defs><linearGradient id="paint0_linear" x1="46.52" y1="30.927" x2="42.438" y2="24.421" gradientUnits="userSpaceOnUse"><stop stop-color="#F9A020"/><stop offset=".204" stop-color="#F99D20"/><stop offset=".435" stop-color="#F79320"/><stop offset=".62" stop-color="#F68820"/><stop offset=".797" stop-color="#F57E20"/><stop offset="1" stop-color="#F47521"/></linearGradient><linearGradient id="paint1_linear" x1="45.859" y1="30.84" x2="39.91" y2="19.003" gradientUnits="userSpaceOnUse"><stop stop-color="#F68820" stop-opacity="0"/><stop offset=".34" stop-color="#E17029" stop-opacity=".257"/><stop offset=".694" stop-color="#D4602D" stop-opacity=".523"/><stop offset=".982" stop-color="#D05B2E" stop-opacity=".74"/></linearGradient></defs></svg>