<svg width="14" height="15" fill="none" xmlns="http://www.w3.org/2000/svg"><path d="M13.565 1.977L7.2.03a.69.69 0 00-.402 0L.435 1.977a.602.602 0 00-.314.207.56.56 0 00-.121.347c.029.72.23 2.87.23 2.87a11.345 11.345 0 001.684 5.084 11.928 11.928 0 003.868 3.837l.997.616a.42.42 0 00.442 0l.997-.616a11.93 11.93 0 003.868-3.837 11.334 11.334 0 001.683-5.083s.202-2.152.231-2.87a.56.56 0 00-.12-.348.602.602 0 00-.315-.207z" fill="url(#paint0_linear)"/><path d="M4.5 7.5L6 9l4.5-4.5" stroke="#F3BA46"/><path d="M4.5 7.5L6 9l4.5-4.5" stroke="#32B2FF"/><defs><linearGradient id="paint0_linear" x1="7" y1="0" x2="7" y2="15" gradientUnits="userSpaceOnUse"><stop stop-color="#fff"/><stop offset="1" stop-color="#AEDDFF"/></linearGradient></defs></svg>