<svg width="48" height="48" fill="none" xmlns="http://www.w3.org/2000/svg"><circle cx="24" cy="24" r="23" stroke="#FDB81E" stroke-width="2" stroke-dasharray="2 4"/><path fill-rule="evenodd" clip-rule="evenodd" d="M22.855 27.38l-1.712-1.588c-2.719.442-4.367 2.322-5.324 4.738 4.155 3.27 12.035 3.293 16.362.073-.952-2.451-2.607-4.365-5.353-4.811l-1.712 1.588c-.696.646-1.565.646-2.26 0zM24 15.257c2.53 0 4.58 2.066 4.58 4.613 0 2.548-2.05 4.613-4.58 4.613-2.53 0-4.58-2.065-4.58-4.613 0-2.547 2.05-4.613 4.58-4.613zm9.143 9.957L31.7 23.876a5.18 5.18 0 00-2.858 1.43c1.951.866 3.307 2.525 4.178 4.602 2.877.221 5.91-.438 7.98-1.978-.802-2.065-2.196-3.677-4.51-4.054l-1.442 1.338c-.587.545-1.319.545-1.905 0zM34.107 15c2.132 0 3.86 1.74 3.86 3.887 0 2.146-1.728 3.886-3.86 3.886-2.13 0-3.858-1.74-3.858-3.886 0-2.147 1.727-3.887 3.858-3.887zM12.928 25.214l-1.442-1.338C9.195 24.25 7.806 25.833 7 27.87c2.005 1.577 5.04 2.257 7.95 2.041.873-2.081 2.231-3.74 4.182-4.606a5.181 5.181 0 00-2.857-1.428l-1.442 1.338c-.587.545-1.318.545-1.905 0zM13.893 15c2.13 0 3.858 1.74 3.858 3.887 0 2.146-1.727 3.886-3.858 3.886-2.132 0-3.86-1.74-3.86-3.886 0-2.147 1.728-3.887 3.86-3.887z" fill="#FDB81E"/></svg>