<svg xmlns="http://www.w3.org/2000/svg" width="54.55" height="65.31"><g fill="#a40000"><path d="M13.32 50.94c-5.66-19.97 22.21-39.29 39.8-38 .83.4 1.49-.9.75-1.41C34.77 8.8 4.85 30.85 10.62 51.36c.47 1.68 3.18 1.28 2.7-.42z"/><path d="M14.72 64.3a1.45 1.45 0 002.01-.32c3.05-4.68 4.65-10.2 7.23-15.15a.75.75 0 00-1-.94c-1.73.84-2.6 2.86-3.42 4.51-1.44 2.9-2.6 5.92-4.32 8.66-1.96-1.47-3.94-2.92-5.87-4.43-2.09-1.62-4.28-4.42-6.79-5.24a1.12 1.12 0 00-1.4 1.49c.8 2.35 3.65 4 5.53 5.49 2.6 2.07 5.29 4.05 8.03 5.93z"/></g></svg>