<svg width="16" height="17" fill="none" xmlns="http://www.w3.org/2000/svg"><path d="M3 5.5a.5.5 0 101 0 .5.5 0 00-1 0zm1 3a.5.5 0 11-1 0 .5.5 0 011 0zm0 3a.5.5 0 11-1 0 .5.5 0 011 0zm1-6a.5.5 0 01.5-.5h5a.5.5 0 010 1h-5a.5.5 0 01-.5-.5zm0 3a.5.5 0 01.5-.5h5a.5.5 0 010 1h-5a.5.5 0 01-.5-.5zm0 3a.5.5 0 01.5-.5h5a.5.5 0 010 1h-5a.5.5 0 01-.5-.5z" fill="#0D66CC"/><path d="M11 1h2v15H1V1h2V0H1a1 1 0 00-1 1v15a1 1 0 001 1h12a1 1 0 001-1V1a1 1 0 00-1-1h-2v1z" fill="#7CB9FF"/><path d="M2 0h9v1H2V0zm13 3h1v3h-1V3zm0 4h1v3h-1V7zm0 4h1v3h-1v-3z" fill="#7CB9FF"/></svg>