<svg width="196" height="118" fill="none" xmlns="http://www.w3.org/2000/svg"><path d="M103.173 45.854v6.173H99.02v-6.002c-3.85-.02-7.433-.892-10.752-2.617v-7.88c1.1.892 2.74 1.717 4.921 2.475 2.18.759 4.125 1.195 5.831 1.309V28.958c-4.437-1.65-7.471-3.433-9.102-5.348-1.612-1.935-2.418-4.286-2.418-7.055 0-2.977 1.052-5.509 3.157-7.595 2.105-2.105 4.893-3.328 8.363-3.67V0h4.153v5.177c4.002.19 6.989.834 8.961 1.934v7.68c-2.655-1.611-5.642-2.597-8.961-2.958v10.781c4.153 1.498 7.131 3.214 8.932 5.149 1.802 1.915 2.703 4.238 2.703 6.969 0 3.148-1.005 5.689-3.016 7.623-2.01 1.916-4.883 3.082-8.619 3.499zm-4.153-24.89v-9.017c-2.635.474-3.953 1.849-3.953 4.125 0 1.953 1.318 3.584 3.953 4.892zm4.153 9.615v8.619c2.712-.417 4.068-1.773 4.068-4.068 0-1.858-1.356-3.375-4.068-4.551z" fill="#AED9A9"/><path d="M96.668 72.74c0 .467.671.968 1.145 1.24a.746.746 0 00.444.102c.788-.077 1.217-.53 1.39-.855a.658.658 0 00.064-.31v-1.205a1 1 0 01.999-1h7.454c.419 0 1-.27 1.398-.497a.759.759 0 00.374-.512c.115-.585.256-1.793.256-3.725 0-2.3-1.006-2.77-1.592-2.719-.066.006-.13.014-.196.014h-5.65c-3.164 0-5.086 3-5.703 4.612a.91.91 0 00-.056.252c-.115 1.397-.327 4.08-.327 4.603z" stroke="#000"/><path d="M171.727 97.082c0 8.029 2.504 7.438-6.086 7.438-8.589 0-25.02.591-25.02-7.438 0-8.03 6.963-14.539 15.553-14.539s15.553 6.51 15.553 14.539zm-67.287-4.056c0 6.722-6.964 12.172-15.553 12.172-8.59 0-26.711-3.083-26.711-9.805 0-6.723 6.963-12.172 15.553-12.172s26.711 3.082 26.711 9.805z" fill="#17104E"/><ellipse cx="148.735" cy="101.48" rx="12.848" ry="14.877" fill="#17104E"/><path d="M156.51 116.357h-8.115l-1.352-29.754h9.467v29.754z" fill="#17104E"/><ellipse cx="156.172" cy="101.48" rx="12.848" ry="14.877" fill="#300084"/><ellipse opacity=".4" cx="156.173" cy="101.481" rx="8.115" ry="9.467" fill="#938FF4"/><ellipse cx="69.618" cy="101.478" rx="12.848" ry="14.877" fill="#17104E"/><path d="M77.393 116.355h-8.115l-1.352-29.753h9.467v29.753z" fill="#17104E"/><ellipse cx="77.055" cy="101.478" rx="12.848" ry="14.877" fill="#300084"/><ellipse opacity=".4" cx="77.056" cy="101.479" rx="8.115" ry="9.467" fill="#938FF4"/><ellipse cx="104.106" cy="101.48" rx="12.848" ry="14.877" fill="#300084"/><path d="M111.881 116.357h-8.114l-1.353-29.754h9.467v29.754z" fill="#300084"/><ellipse cx="111.544" cy="101.48" rx="12.848" ry="14.877" fill="#17104E"/><ellipse cx="19.579" cy="101.478" rx="12.848" ry="14.877" fill="#300084"/><path d="M27.354 116.355h-8.115l-1.352-29.753h9.467v29.753z" fill="#300084"/><ellipse cx="27.016" cy="101.478" rx="12.848" ry="14.877" fill="#17104E"/><path opacity=".99" fill-rule="evenodd" clip-rule="evenodd" d="M62.855 101.919c-.249 4.15-4.603 4.632-8.114 4.632l-46.998-.338c-2.48.225-7.438-.271-7.438-4.058s.225-11.045.338-14.2c.789-3.269 3.719-9.757 9.805-11.496 7.1-2.029 24.682-6.424 25.697-6.424.811 0 1.915-.451 2.366-.676 8.34-5.072 26.643-15.283 33.135-15.554 6.492-.27 10.594-.338 11.834-.338h36.516c9.693-.112 33 3.584 48.688 19.273 1.578.112 4.937 1.082 5.748 4.057.812 2.975.338 17.018 0 23.668-.225 1.465-1.082 4.395-2.705 4.395-.669 0-1.093-.268-1.352-.639v-6.798c0-7.47-6.055-13.525-13.525-13.525h-1.352c-7.469 0-13.525 6.056-13.525 13.525v5.07c-.225 1.466-1.352 4.058-4.733 4.058-.579 0-2.038-.004-4.109-.01-8.612-.025-27.797-.081-38.155.01-1.087 0-2.944-.41-3.72-1.837v-7.291c0-7.47-6.054-13.525-13.524-13.525H76.38c-7.47 0-13.525 6.056-13.525 13.525v2.746c-.02.294-.02.617 0 .972v.778z" fill="#fff"/><ellipse cx="132.505" cy="65.978" rx="2.029" ry="1.691" fill="#D9D9D9"/><path d="M69.957 75.782l.1.283-.1-.283zM7.807 80.51l.002.3-.002-.3zm1.146-2.773a.3.3 0 00-.263-.54l.263.54zm78.993-6.484a8.315 8.315 0 01-1.473 2.034c-.686.684-1.487 1.18-2.316 1.18v.6c1.065 0 2.011-.63 2.74-1.354a8.916 8.916 0 001.586-2.192l-.537-.268zm-3.789 3.215c-.584 0-1.46-.042-2.541-.08a72.678 72.678 0 00-3.676-.047c-2.67.043-5.67.296-8.084 1.159l.202.565c2.318-.828 5.237-1.082 7.891-1.124a72.25 72.25 0 013.646.047c1.065.037 1.964.08 2.562.08v-.6zM69.856 75.5c-2.205.787-4.44 1.901-6.566 2.792-2.15.9-4.216 1.586-6.181 1.586v.6c2.092 0 4.252-.728 6.413-1.633 2.184-.914 4.345-1.998 6.536-2.78l-.202-.565zm-12.747 4.378c-3.248 0-33.64.22-49.304.332l.004.6c15.667-.112 46.055-.332 49.3-.332v-.6zm-49.304.332c-.41.003-.72-.025-.948-.075-.23-.05-.353-.116-.411-.17-.047-.041-.058-.077-.056-.123.003-.063.034-.161.123-.298.178-.273.522-.598.97-.925a9.888 9.888 0 011.47-.882l-.263-.54a10.46 10.46 0 00-1.562.938c-.468.342-.88.718-1.118 1.082a1.232 1.232 0 00-.22.596.738.738 0 00.254.598c.168.152.404.25.686.31a4.96 4.96 0 001.079.09l-.004-.6z" fill="url(#paint0_linear_2164_26693)"/><path d="M127.312 70.388l-5.37-14.531a.496.496 0 01.488-.668c19.291.927 35.791 11.825 37.46 13.494 1.353 1.352.451 2.254-.338 2.366l-31.776-.334a.5.5 0 01-.464-.327z" fill="url(#paint1_linear_2164_26693)"/><path d="M127.312 70.388l-5.37-14.531a.496.496 0 01.488-.668c19.291.927 35.791 11.825 37.46 13.494 1.353 1.352.451 2.254-.338 2.366l-31.776-.334a.5.5 0 01-.464-.327z" fill="url(#paint2_linear_2164_26693)"/><path d="M124.732 70.711l-5.748-15.553h-8.253a12 12 0 00-9.55 4.734L95.392 67.5c-1.001 1.317-.062 3.211 1.592 3.211h27.748z" fill="url(#paint3_linear_2164_26693)"/><path d="M124.732 70.711l-5.748-15.553h-8.253a12 12 0 00-9.55 4.734L95.392 67.5c-1.001 1.317-.062 3.211 1.592 3.211h27.748z" fill="url(#paint4_linear_2164_26693)"/><path d="M97.276 54.823c-8.245.014-26.382.075-31.041.334-4.974 1.308-20.486 9.913-27.237 13.732-.888.502-.529 1.838.49 1.844l47.111.302a4 4 0 003.162-1.517l9.071-11.458c1.038-1.311.117-3.24-1.555-3.237z" fill="url(#paint5_linear_2164_26693)"/><path fill="#A6BCFB" d="M11.461 92.688h10.143v5.41H11.461z"/><path opacity=".4" d="M44.787 89.156l-7.652-.15a.854.854 0 01-.587-1.458 17.088 17.088 0 0112.083-5.005h8.714c.872 0 1.286 1.073.642 1.659a19.067 19.067 0 01-13.2 4.954z" fill="#2158F5"/><path d="M173.756 77.137H87.199" stroke="url(#paint6_linear_2164_26693)" stroke-width=".6"/><path d="M95.314 100.464c.225-6.875-3.11-20.49-18.258-19.948-15.148.54-18.71 14.426-18.596 21.301" stroke="url(#paint7_linear_2164_26693)" stroke-width=".6"/><path d="M173.068 100.782c.215-6.98-2.967-20.8-17.415-20.25-14.447.549-17.844 14.644-17.736 21.623" stroke="url(#paint8_linear_2164_26693)"/><path d="M137.238 102.492l-41.25 1.353" stroke="url(#paint9_linear_2164_26693)" stroke-width=".6"/><path d="M127.773 78.488l1.015 9.13.338 14.876" stroke="#90ABFA"/><path d="M124.391 79.164h-6.762m19.61 0h-6.762" stroke="#2158F5"/><path d="M35.47 82.206c-1.466 3.155-3.72 9.467-6.763 9.467H10.45c-3.38-.338-4.395-1.353-5.071-2.705-.484-.968-.677-5.635-1.015-7.777" stroke="url(#paint10_linear_2164_26693)" stroke-width=".6" stroke-linecap="round"/><path d="M53.724 102.154c-1.014-1.014-1.69-3.043-5.071-3.043H.64" stroke="url(#paint11_linear_2164_26693)" stroke-width=".6"/><path d="M2.876 88.889c.976-.437.77-2.838.21-4.61-.182-.575-.764-.65-1.043-.115C1.5 85.204.823 86.931.67 88.576c-.036.392.214.744.608.729.391-.015.933-.119 1.597-.416z" fill="#A6BCFB"/><rect opacity=".4" x="14.168" y="115.004" width="177.17" height="2.705" rx="1.352" fill="url(#paint12_radial_2164_26693)"/><path opacity=".4" d="M119.949 109.804l-.477-.159a1.939 1.939 0 01-.84-.556L90.307 77.056a1.696 1.696 0 01-.007-2.238c.09-.103.168-.218.23-.34.582-1.128 2.1-1.388 3.005-.498l11.963 11.76a14.26 14.26 0 011.464 1.685l14.756 19.942a1.58 1.58 0 01-1.769 2.437z" fill="url(#paint13_radial_2164_26693)"/><path d="M113.098 87.81l-4.104 7.552-15.045-17.39 4.104-7.553 15.045 17.39z" fill="#12A953"/><path d="M140.556 76.324c1.602.007 3.848 1.11 5.022 2.473 1.174 1.362.837 2.453-.765 2.446-1.601-.008-3.847-1.11-5.021-2.473-1.181-1.352-.837-2.453.764-2.446z" fill="#3D5E2A"/><path d="M146.37 71.689l13.197 15.264-14.748-.066-1.913-2.21 3.924.02c.105-1.043 1.057-1.698 2.758-1.688l5.138.022-6.48-7.494-5.138-.022c-1.657-.011-3.695-.651-5.556-1.649l-3.986-.014-1.912-2.21 14.716.047z" fill="#3D5E2A"/><path d="M148.242 75.52l6.48 7.494-5.138-.022c-1.701-.01-2.659.655-2.758 1.688l-3.92-.003-9.35-10.831 3.985.014c1.862.997 3.9 1.637 5.546 1.642l5.155.018zm-3.429 5.723c1.602.007 1.946-1.094.771-2.457-1.174-1.363-3.419-2.465-5.021-2.472-1.602-.008-1.945 1.093-.771 2.456s3.42 2.465 5.021 2.473z" fill="#839749"/><path d="M130.726 70.562l.913 1.057 1.917 2.227 9.35 10.831 1.913 2.21.924 1.064-.487-.008-1.492.002-15.017-17.389 1.491-.002.426.014.062-.006z" fill="#A43936"/><path d="M110.828 75.205c1.557.01 2.484-.558 2.708-1.441l7.837.033.271.312c-.52 1.153.095 3.003 1.907 5.093 1.803 2.084 4.386 3.933 6.897 5.097l.282.319-7.738-.03c-1.822-.945-3.78-1.55-5.392-1.564l-6.208-.023-6.766-7.83 6.202.034zm8.573 3.474c-1.174-1.363-3.419-2.465-5.021-2.473-1.602-.007-1.945 1.094-.771 2.457 1.174 1.363 3.42 2.465 5.021 2.472 1.602.008 1.946-1.093.771-2.456z" fill="#839749"/><path d="M121.651 74.099l8.804 10.19c-2.523-1.171-5.105-3.02-6.897-5.098-1.813-2.09-2.427-3.94-1.907-5.093z" fill="#3D5E2A"/><path d="M120.522 70.519l15.017 17.388-1.979-.006-15.011-17.399 1.973.017z" fill="#A43936"/><path d="M128.747 70.556l15.017 17.389 1.492-.002-9.717-.036-15.017-17.388-1.973-.017 10.198.054z" fill="#C8C8C8"/><path d="M114.38 76.206c1.602.008 3.858 1.117 5.021 2.473 1.175 1.363.838 2.453-.764 2.446-1.602-.007-3.858-1.116-5.022-2.473-1.18-1.352-.837-2.453.765-2.446z" fill="#3D5E2A"/><path d="M113.199 86.75l-13.196-15.265 19.47.08 1.913 2.21-7.837-.032c-.23.893-1.151 1.45-2.708 1.44l-6.215-.012 6.766 7.83 6.202.034c1.612.014 3.576.608 5.392 1.563l7.737.03 1.913 2.21-19.437-.088z" fill="#3D5E2A"/><path d="M146.461 70.622L161.5 88.023l-15.757-.072-.924-1.064 14.738.06-13.187-15.258-14.731-.07-.913-1.057-.488-.008-1.491.002-10.198-.054.918 1.074-19.464-.09 13.196 15.264 19.444.078.917 1.073-20.462-.091-15.045-17.391 48.408.203z" fill="#046B30"/><path d="M161.5 88.023l-4.104 7.552-15.757-.072 4.104-7.552 15.757.072z" fill="#54602F"/><path d="M145.256 87.943l-4.111 7.562-9.71-.046 4.104-7.552 9.717.036z" fill="gray"/><path d="M145.743 87.95l-4.104 7.553-1.979-.006 4.104-7.552 1.979.006zm-10.204-.043l-4.104 7.552-1.979-.005 4.104-7.553 1.979.006z" fill="#692423"/><path d="M133.56 87.901l-4.104 7.553-20.462-.092 4.104-7.552 20.462.091z" fill="#007E36"/><path d="M158.378 97.84c1.601.007 3.847 1.11 5.021 2.473 1.174 1.362.837 2.453-.764 2.446-1.602-.008-3.848-1.11-5.022-2.473-1.181-1.352-.837-2.453.765-2.446z" fill="#3D5E2A"/><path d="M166.063 97.036l6.48 7.495-5.137-.022c-1.702-.011-2.66.654-2.759 1.687l-3.924-.02-9.35-10.831 3.985.014c1.862.997 3.9 1.637 5.546 1.642l5.159.035zm-3.428 5.723c1.601.007 1.945-1.094.771-2.457-1.175-1.363-3.42-2.465-5.022-2.472-1.602-.008-1.945 1.093-.771 2.456s3.42 2.465 5.022 2.473z" fill="#839749"/><path d="M164.192 93.205l13.196 15.264-14.748-.066-1.913-2.21 3.924.02c.105-1.043 1.057-1.697 2.759-1.687l5.137.022-6.48-7.495-5.138-.022c-1.657-.011-3.695-.651-5.556-1.649l-3.986-.014-1.912-2.21 14.717.047z" fill="#3D5E2A"/><path d="M164.282 92.138l15.039 17.401-15.757-.072-.924-1.064 14.738.059-13.186-15.257-14.732-.07-.924-1.063 15.746.066z" fill="#046B30"/><path d="M148.536 92.072l.924 1.063 1.917 2.227 9.34 10.825 1.923 2.216.924 1.064-.487-.008-1.492.002-15.011-17.4 1.907.006.055.005z" fill="#FFF1D2"/><path d="M139.472 95.615l8.804 10.189c-2.522-1.17-5.105-3.019-6.897-5.097-1.812-2.09-2.427-3.94-1.907-5.092z" fill="#3D5E2A"/><path d="M148.481 92.067l-1.907-.005 15.011 17.399 1.492-.002-9.717-.036-15.027-17.395.154.008 9.994.031z" fill="#C8C8C8"/><path d="M138.333 92.028l15.027 17.395-1.979-.006-15.01-17.399.37.01h1.592z" fill="#FFF1D2"/><path d="M128.655 96.71c1.557.01 2.485-.558 2.709-1.44l7.837.032.271.313c-.52 1.153.095 3.002 1.907 5.092 1.802 2.084 4.385 3.933 6.897 5.097l.282.319-7.738-.03c-1.822-.944-3.78-1.549-5.392-1.563l-6.208-.023-6.766-7.83 6.201.034zm8.568 3.485c-1.175-1.363-3.42-2.465-5.022-2.472-1.602-.008-1.945 1.093-.771 2.456s3.42 2.465 5.022 2.472c1.601.008 1.945-1.093.771-2.456z" fill="#12A953"/><path d="M132.201 97.722c1.602.008 3.858 1.117 5.022 2.473 1.174 1.363.837 2.453-.765 2.446-1.602-.007-3.858-1.116-5.021-2.473-1.181-1.352-.838-2.453.764-2.446z" fill="#3D5E2A"/><path d="M130.919 109.326l-15.045-17.39 20.867.091-.37-.009.917 1.074-19.464-.09 13.196 15.264 19.444.078.917 1.073-20.462-.091z" fill="#046B30"/><path d="M131.02 108.266l-13.196-15.265 19.471.08 1.912 2.21-7.837-.032c-.23.893-1.151 1.45-2.708 1.441l-6.191-.027 6.766 7.83 6.201.033c1.613.014 3.577.609 5.393 1.564l7.737.03 1.913 2.209-19.461-.073z" fill="#046B30"/><path d="M179.321 109.539l-4.104 7.552-15.757-.072 4.104-7.552 15.757.072z" fill="#12A953"/><path d="M163.077 109.459l-4.104 7.552-9.716-.036 4.103-7.552 9.717.036z" fill="#F0E6CF"/><path d="M163.564 109.467l-4.104 7.552-2.002.009 4.134-7.578 1.972.017zm-10.204-.044l-4.103 7.552-1.979-.005 4.103-7.553 1.979.006z" fill="#FFF1D2"/><path d="M151.381 109.417l-4.103 7.553-20.463-.092 4.104-7.552 20.462.091z" fill="#12A953"/><path d="M130.919 109.326l-4.104 7.552-15.045-17.39 4.104-7.553 15.045 17.391zm-13-29.459l-4.104 7.552-15.038-17.4 4.104-7.553 15.038 17.401z" fill="#12A953"/><path d="M145.384 68.371c1.602.007 3.847 1.11 5.022 2.473 1.174 1.362.837 2.453-.765 2.446-1.602-.008-3.847-1.11-5.022-2.473-1.18-1.352-.837-2.453.765-2.446z" fill="#3D5E2A"/><path d="M151.181 63.74l13.197 15.264-14.749-.066-1.912-2.21 3.923.02c.106-1.043 1.058-1.698 2.759-1.687l5.138.022-6.481-7.495-5.138-.021c-1.656-.012-3.694-.652-5.556-1.65l-3.985-.014-1.913-2.21 14.717.047z" fill="#3D5E2A"/><path d="M153.063 67.578l6.48 7.494-5.138-.022c-1.701-.01-2.659.655-2.758 1.688l-3.924-.02-9.35-10.832 3.985.014c1.862.998 3.9 1.638 5.546 1.643l5.159.035zm-3.428 5.722c1.601.007 1.945-1.094.771-2.456-1.175-1.363-3.42-2.466-5.022-2.473-1.602-.007-1.945 1.094-.771 2.457 1.164 1.356 3.42 2.465 5.022 2.472z" fill="#A7C05D"/><path d="M135.536 62.613l.924 1.063 1.913 2.21 9.35 10.832 1.906 2.22.924 1.064-.476-.002-1.485-.008-15.018-17.389 1.485.009.422-.003.055.004z" fill="#FFF1D2"/><path d="M115.645 67.246c1.557.009 2.484-.559 2.708-1.442l7.837.033.271.313c-.52 1.152.095 3.002 1.908 5.093 1.802 2.083 4.385 3.932 6.896 5.096l.282.32-7.737-.03c-1.822-.945-3.78-1.55-5.393-1.564l-6.208-.023-6.766-7.83 6.202.034zm8.578 3.49c-1.175-1.362-3.42-2.465-5.022-2.472-1.602-.007-1.945 1.094-.771 2.457 1.174 1.362 3.42 2.465 5.022 2.472 1.608-.003 1.951-1.104.771-2.456z" fill="#A7C05D"/><path d="M126.472 66.156l8.804 10.19c-2.522-1.17-5.105-3.02-6.897-5.097-1.813-2.09-2.438-3.947-1.907-5.093z" fill="#3D5E2A"/><path d="M125.339 62.56l15.011 17.398-1.962-.01-15.017-17.388h1.968z" fill="#FFF1D2"/><path d="M133.574 62.603l15.018 17.389 1.485.008-9.727-.042-15.011-17.399h-1.968l10.203.044z" fill="#C8C8C8"/><path d="M119.201 68.264c1.602.007 3.858 1.116 5.022 2.473 1.174 1.362.837 2.453-.765 2.445-1.602-.007-3.858-1.116-5.022-2.472-1.174-1.363-.837-2.453.765-2.446z" fill="#3D5E2A"/><path d="M118.01 78.8l-13.186-15.257 19.471.08 1.912 2.21-7.854-.029c-.23.894-1.151 1.45-2.708 1.442l-6.191-.028 6.766 7.83 6.201.034c1.613.014 3.577.608 5.393 1.563l7.737.03 1.913 2.21-19.454-.084z" fill="#046B30"/><path d="M151.282 62.68l15.045 17.39-15.774-.068-.924-1.064 14.749.066-13.197-15.264-14.721-.064-.924-1.063-.477-.001-1.485-.009-10.203-.043.924 1.063-19.471-.08 13.186 15.258 19.454.084.924 1.063-20.469-.08-15.038-17.402 48.401.213z" fill="#046B30"/><path d="M166.327 80.07l-4.104 7.552-15.773-.068 4.103-7.552 15.774.068zm-16.25-.07l-4.104 7.552-9.727-.042 4.104-7.552 9.727.042z" fill="#12A953"/><path d="M150.553 80.002l-4.103 7.552-1.973-.017 4.104-7.552 1.972.017zm-10.203-.044l-4.104 7.552-1.962-.01 4.104-7.552 1.962.01z" fill="#12A953"/><path d="M138.388 79.948l-4.104 7.553-20.469-.082 4.104-7.552 20.469.081zm-15.975-8.042l-4.104 7.552-15.045-17.39 4.104-7.552 15.045 17.39z" fill="#12A953"/><path d="M149.871 60.42c1.602.008 3.847 1.11 5.022 2.473 1.174 1.363.837 2.453-.765 2.446-1.602-.007-3.847-1.11-5.022-2.472-1.18-1.353-.837-2.454.765-2.446z" fill="#046B30"/><path d="M155.678 55.796l13.197 15.264-14.748-.066-1.913-2.21 3.924.02c.105-1.043 1.057-1.697 2.759-1.687l5.137.022-6.48-7.494-5.138-.023c-1.657-.011-3.695-.651-5.556-1.649l-3.986-.014-1.912-2.21 14.716.047z" fill="#046B30"/><path d="M157.55 59.627l6.48 7.495-5.137-.022c-1.702-.01-2.66.654-2.759 1.687l-3.924-.02-9.35-10.831 3.985.014c1.862.997 3.9 1.637 5.546 1.643l5.159.034zm-3.428 5.723c1.601.007 1.945-1.094.771-2.457-1.175-1.362-3.42-2.465-5.022-2.472-1.602-.008-1.945 1.093-.771 2.456 1.181 1.352 3.426 2.455 5.022 2.473z" fill="#12A953"/><path d="M140.04 54.659l.918 1.074 1.912 2.21 9.351 10.83 1.912 2.21.918 1.075-.477-.002-1.495-.015-15.018-17.388 1.502.004.416.008.061-.006z" fill="#FFF4DB"/><path d="M120.142 59.302c1.557.009 2.485-.559 2.709-1.441l7.837.032.271.313c-.52 1.152.094 3.002 1.907 5.092 1.802 2.084 4.385 3.933 6.897 5.097l.282.32-7.738-.03c-1.822-.945-3.78-1.55-5.392-1.564l-6.208-.023-6.766-7.83 6.201.034zm8.585 3.48c-1.175-1.363-3.42-2.465-5.022-2.472-1.602-.008-1.945 1.093-.771 2.456s3.42 2.465 5.022 2.472c1.591.001 1.945-1.093.771-2.456z" fill="#12A953"/><path d="M130.966 58.195l8.803 10.19c-2.522-1.17-5.105-3.02-6.896-5.097-1.813-2.09-2.428-3.94-1.907-5.093z" fill="#046B30"/><path d="M129.837 54.615l15.017 17.389-1.979-.006-15.017-17.389 1.979.006z" fill="#FFF1D2"/><path d="M138.061 54.653l15.018 17.388 1.495.015-9.72-.052-15.017-17.389-1.979-.006 10.203.044z" fill="#FFF4DB"/><path d="M123.694 60.303c1.602.007 3.858 1.116 5.022 2.473 1.174 1.362.837 2.453-.764 2.445-1.602-.007-3.858-1.116-5.022-2.472-1.181-1.352-.837-2.453.764-2.446z" fill="#046B30"/><path d="M122.514 70.846l-13.197-15.264 19.471.08 1.913 2.21-7.837-.033c-.231.894-1.152 1.45-2.709 1.442l-6.191-.028 6.767 7.83 6.201.034c1.612.014 3.577.608 5.392 1.563l7.738.03 1.912 2.21-19.46-.074z" fill="#046B30"/><path d="M155.769 54.729l15.045 17.39-15.763-.061-.918-1.074 14.749.065-13.204-15.253-14.72-.063-.918-1.074-.477-.002-1.502-.004-10.203-.044.924 1.064-19.471-.08 13.203 15.253 19.437.089.924 1.063-20.462-.092-15.045-17.39 48.401.213z" fill="#12A953"/><path d="M170.814 72.12l-4.104 7.552-15.763-.062 4.104-7.552 15.763.062z" fill="#007E36"/><path d="M154.574 72.056l-4.104 7.553-9.726-.043 4.11-7.562 9.72.052z" fill="#F0E6CF"/><path d="M155.051 72.058l-4.104 7.552-1.972-.016 4.104-7.553 1.972.017zm-10.197-.054l-4.11 7.562-1.973-.016 4.104-7.552 1.979.006z" fill="#FFF1D2"/><path d="M142.875 71.998l-4.104 7.552-20.462-.091 4.104-7.553 20.462.092z" fill="#007E36"/><path d="M166.73 89.888c1.601.007 3.847 1.11 5.021 2.472 1.175 1.363.838 2.453-.764 2.446-1.602-.007-3.848-1.11-5.022-2.473-1.191-1.358-.837-2.453.765-2.445z" fill="#046B30"/><path d="M174.409 89.094l6.48 7.494-5.138-.022c-1.701-.01-2.659.655-2.758 1.688l-3.924-.02-9.35-10.831 3.995.02c1.862.998 3.9 1.637 5.546 1.643l5.149.028zm-3.439 5.716c1.602.007 1.945-1.094.771-2.457-1.174-1.362-3.42-2.465-5.022-2.472-1.602-.007-1.945 1.094-.771 2.457 1.181 1.352 3.431 2.471 5.022 2.472z" fill="#12A953"/><path d="M172.527 85.256l13.196 15.264-14.748-.065-1.913-2.21 3.924.02c.106-1.044 1.057-1.698 2.759-1.688l5.138.022-6.474-7.505-5.138-.022c-1.657-.012-3.695-.651-5.557-1.649l-3.985-.014-1.913-2.21 14.711.057z" fill="#046B30"/><path d="M172.628 84.196l15.045 17.391-15.774-.069-.917-1.074 14.748.066-13.203-15.254-14.721-.063-.918-1.074 15.74.077z" fill="#046B30"/><path d="M156.888 84.119l.918 1.074 1.913 2.21 9.35 10.831 1.913 2.21.917 1.074-.477-.001-1.485-.009L154.92 84.12l1.907.005.061-.006z" fill="#FFF1D2"/><path d="M147.824 87.662l8.804 10.19c-2.522-1.17-5.105-3.02-6.897-5.097-1.829-2.086-2.444-3.936-1.907-5.093z" fill="#046B30"/><path d="M156.827 84.125l-1.907-.005 15.017 17.388 1.485.009-9.726-.042-15.011-17.4.144.002 9.998.048z" fill="#FFF4DB"/><path d="M146.685 84.076l15.011 17.399-1.962-.01-15.018-17.389.367-.008 1.602.008z" fill="#FFF1D2"/><path d="M136.99 88.762c1.558.009 2.485-.558 2.709-1.441l7.837.033.271.312c-.52 1.153.095 3.003 1.907 5.093 1.802 2.084 4.385 3.933 6.897 5.097l.282.319-7.738-.03c-1.822-.945-3.78-1.55-5.392-1.564l-6.208-.023-6.766-7.83 6.201.034zm8.578 3.49c-1.174-1.362-3.42-2.464-5.021-2.472-1.602-.007-1.946 1.094-.771 2.457 1.174 1.363 3.42 2.465 5.021 2.472 1.609-.003 1.952-1.104.771-2.456z" fill="#12A953"/><path d="M140.547 89.78c1.601.008 3.858 1.117 5.021 2.473 1.175 1.363.838 2.453-.764 2.446-1.602-.007-3.858-1.117-5.022-2.473-1.185-1.369-.837-2.453.765-2.446z" fill="#046B30"/><path d="M139.271 101.373l-15.045-17.39 20.857.085-.367.008.924 1.064-19.481-.087 13.203 15.254 19.448.094.924 1.064-20.463-.092z" fill="#12A953"/><path d="M139.362 100.307l-13.197-15.265 19.471.08 1.913 2.21-7.837-.032c-.231.893-1.151 1.45-2.709 1.44l-6.19-.027 6.766 7.83 6.201.034c1.612.014 3.577.609 5.392 1.563l7.738.03 1.913 2.21-19.461-.073z" fill="#046B30"/><path d="M187.673 101.587l-4.104 7.552-15.774-.069 4.104-7.552 15.774.069z" fill="#12A953"/><path d="M171.422 101.517l-4.103 7.552-9.727-.042 4.104-7.552 9.726.042z" fill="#F0E6CF"/><path d="M171.899 101.518l-4.104 7.552-1.985.005 4.127-7.567 1.962.01zm-10.203-.043l-4.104 7.552-1.962-.01 4.104-7.552 1.962.01z" fill="#FFF1D2"/><path d="M159.734 101.465l-4.104 7.552-20.463-.092 4.104-7.552 20.463.092zm-20.463-.092l-4.104 7.552-15.044-17.39 4.103-7.553 15.045 17.391z" fill="#12A953"/><path d="M112.264 64.41l9.79 10.752-.091-.04 2.72.023 1.363.02c.459.006.902.015 1.355.031l1.356.031 1.359.048 1.36.048 1.353.06-.002.027-1.361.024-1.354.014c-.449 0-.905.012-1.365.007l-1.358-.004c-.449.002-.909-.004-1.358-.003l-1.362-.02-2.711-.062-.055-.005-.036-.036-9.627-10.9.024-.014zm-8.637 19.666l1.808 1.957 3.603 3.933.898.989.442.505c.146.163.292.325.442.505l-.09-.041c.52.072 1.03.137 1.544.22.262.044.513.081.775.126.263.044.514.082.77.137l-.003.028c-.264-.017-.518-.027-.783-.044-.265-.017-.523-.044-.777-.055l-1.568-.132-.045.002-.035-.037c-.146-.162-.303-.331-.449-.494l-.449-.494-4.37-5.017-1.741-2.018.028-.07zm22.712 15.935l6.226 7.177-.07-.028 9.421-.19c.789-.011 1.577-.022 2.359-.023l2.352-.013c.782-.001 1.574.005 2.356.004.782-.001 1.568.016 2.354.032l-.003.028c-.791.039-1.575.067-2.359.095-.785.029-1.569.057-2.358.069l-2.35.057c-.788.011-1.566.029-2.355.041l-9.421.072-.045.002-.025-.03-6.112-7.268.03-.025zm-13.274-2.702l6.131 7.075-6.33-6.892.199-.183z" fill="#046B30"/><path d="M102.166 64.053l6.365 7.424-6.565-7.24.2-.184z" fill="#B3B3B3"/><path d="M147.596 92.77l-4.104 7.553-15.044-17.391 4.103-7.552 15.045 17.39z" fill="#12A953"/><path d="M175.055 81.285c1.601.007 3.847 1.11 5.021 2.472 1.174 1.363.837 2.453-.764 2.446-1.602-.007-3.848-1.11-5.022-2.472-1.181-1.352-.837-2.453.765-2.446z" fill="#046B30"/><path d="M180.862 76.66l13.197 15.264-14.748-.065-1.913-2.21 3.924.02c.105-1.044 1.057-1.698 2.758-1.688l5.138.022-6.48-7.494-5.138-.022c-1.657-.012-3.695-.652-5.557-1.65l-3.985-.013-1.913-2.21 14.717.046z" fill="#046B30"/><path d="M182.734 80.492l6.48 7.494-5.138-.022c-1.701-.01-2.659.655-2.758 1.687l-3.924-.02-9.35-10.83 3.985.013c1.861.998 3.899 1.637 5.546 1.643l5.159.035zm-3.429 5.722c1.602.007 1.945-1.094.771-2.457-1.174-1.362-3.42-2.465-5.021-2.472-1.602-.007-1.946 1.094-.771 2.456 1.18 1.352 3.426 2.455 5.021 2.473z" fill="#12A953"/><path d="M165.224 75.523l.917 1.074 1.913 2.21 9.35 10.831 1.913 2.21.918 1.074-.477-.001-1.496-.015-15.017-17.389 1.502.005.415.007.062-.006z" fill="#FFF4DB"/><path d="M145.326 80.166c1.557.009 2.484-.558 2.708-1.441l7.837.032.272.313c-.52 1.153.094 3.003 1.907 5.093 1.802 2.083 4.385 3.933 6.897 5.097l.281.318-7.737-.03c-1.822-.944-3.78-1.55-5.392-1.563l-6.208-.023-6.766-7.83 6.201.034zm8.584 3.48c-1.174-1.363-3.42-2.465-5.021-2.472-1.602-.008-1.946 1.093-.771 2.456 1.174 1.363 3.42 2.465 5.021 2.473 1.591 0 1.946-1.094.771-2.457z" fill="#12A953"/><path d="M156.149 79.06l8.804 10.189c-2.522-1.17-5.105-3.02-6.897-5.097-1.812-2.09-2.427-3.94-1.907-5.093z" fill="#046B30"/><path d="M155.02 75.48l15.017 17.388-1.978-.006-15.018-17.388 1.979.005z" fill="#FFF1D2"/><path d="M163.245 75.517l15.017 17.389 1.496.014-9.721-.052-15.017-17.389-1.979-.005 10.204.043z" fill="#FFF4DB"/><path d="M148.878 81.167c1.602.007 3.858 1.116 5.022 2.473 1.174 1.362.837 2.453-.765 2.445-1.601-.007-3.858-1.116-5.021-2.472-1.181-1.352-.838-2.453.764-2.446z" fill="#046B30"/><path d="M147.698 91.71l-13.197-15.264 19.471.08 1.912 2.21-7.837-.032c-.23.893-1.151 1.45-2.708 1.44l-6.191-.027 6.766 7.83 6.202.034c1.612.014 3.576.608 5.392 1.563l7.737.03 1.913 2.21-19.46-.074z" fill="#046B30"/><path d="M180.953 75.593l15.045 17.39-15.763-.061-.918-1.074 14.748.065-13.203-15.253-14.721-.063-.917-1.074-.477-.001-1.502-.005-10.204-.043.924 1.063-19.471-.08 13.204 15.253 19.436.089.925 1.063-20.463-.091-15.045-17.391 48.402.213z" fill="#12A953"/><path d="M195.998 92.984l-4.104 7.552-15.763-.062 4.104-7.552 15.763.062z" fill="#007E36"/><path d="M179.758 92.92l-4.104 7.553-9.727-.043 4.11-7.562 9.721.053z" fill="#F0E6CF"/><path d="M180.235 92.922l-4.104 7.552-1.973-.016 4.104-7.552 1.973.016zm-10.198-.054l-4.11 7.562-1.972-.016 4.104-7.552 1.978.006z" fill="#FFF1D2"/><path d="M168.059 92.862l-4.104 7.552-20.463-.091 4.104-7.552 20.463.091z" fill="#007E36"/><defs><linearGradient id="paint0_linear_2164_26693" x1="7.406" y1="80.516" x2="94.639" y2="61.581" gradientUnits="userSpaceOnUse"><stop stop-color="#2158F5"/><stop offset="1" stop-color="#2158F5" stop-opacity="0"/></linearGradient><linearGradient id="paint1_linear_2164_26693" x1="141.135" y1="55.158" x2="141.135" y2="71.049" gradientUnits="userSpaceOnUse"><stop stop-color="#2158F5"/><stop offset="1" stop-color="#255BF5" stop-opacity=".21"/></linearGradient><linearGradient id="paint2_linear_2164_26693" x1="141.135" y1="55.158" x2="141.135" y2="71.049" gradientUnits="userSpaceOnUse"><stop stop-color="#2158F5"/><stop offset="1" stop-color="#68AFFF"/></linearGradient><linearGradient id="paint3_linear_2164_26693" x1="108.84" y1="55.158" x2="108.84" y2="70.711" gradientUnits="userSpaceOnUse"><stop stop-color="#2158F5"/><stop offset="1" stop-color="#255BF5" stop-opacity=".21"/></linearGradient><linearGradient id="paint4_linear_2164_26693" x1="108.84" y1="55.158" x2="108.84" y2="70.711" gradientUnits="userSpaceOnUse"><stop stop-color="#2158F5"/><stop offset="1" stop-color="#68AFFF"/></linearGradient><linearGradient id="paint5_linear_2164_26693" x1="68.602" y1="54.818" x2="68.602" y2="71.048" gradientUnits="userSpaceOnUse"><stop stop-color="#2158F5"/><stop offset="1" stop-color="#68AFFF"/></linearGradient><linearGradient id="paint6_linear_2164_26693" x1="88.586" y1="78.137" x2="106.559" y2="40.624" gradientUnits="userSpaceOnUse"><stop stop-color="#2158F5"/><stop offset="1" stop-color="#2158F5" stop-opacity="0"/></linearGradient><linearGradient id="paint7_linear_2164_26693" x1="59.048" y1="101.829" x2="99.982" y2="100.121" gradientUnits="userSpaceOnUse"><stop stop-color="#2158F5"/><stop offset="1" stop-color="#2158F5" stop-opacity="0"/></linearGradient><linearGradient id="paint8_linear_2164_26693" x1="138.478" y1="102.167" x2="177.528" y2="100.637" gradientUnits="userSpaceOnUse"><stop stop-color="#2158F5"/><stop offset="1" stop-color="#2158F5" stop-opacity="0"/></linearGradient><linearGradient id="paint9_linear_2164_26693" x1="96.649" y1="101.141" x2="133.636" y2="83.005" gradientUnits="userSpaceOnUse"><stop stop-color="#2158F5"/><stop offset="1" stop-color="#2158F5" stop-opacity="0"/></linearGradient><linearGradient id="paint10_linear_2164_26693" x1="4.862" y1="91.679" x2="39.283" y2="89.215" gradientUnits="userSpaceOnUse"><stop stop-color="#2158F5"/><stop offset="1" stop-color="#2158F5" stop-opacity="0"/></linearGradient><linearGradient id="paint11_linear_2164_26693" x1="1.491" y1="102.156" x2="51.656" y2="81.054" gradientUnits="userSpaceOnUse"><stop stop-color="#2158F5"/><stop offset="1" stop-color="#2158F5" stop-opacity="0"/></linearGradient><radialGradient id="paint12_radial_2164_26693" cx="0" cy="0" r="1" gradientUnits="userSpaceOnUse" gradientTransform="matrix(0 1.35245 -88.5852 0 102.753 116.356)"><stop stop-color="#17104E"/><stop offset="1" stop-color="#300084" stop-opacity="0"/></radialGradient><radialGradient id="paint13_radial_2164_26693" cx="0" cy="0" r="1" gradientUnits="userSpaceOnUse" gradientTransform="matrix(0 14.8016 -13.3061 0 103.742 86.99)"><stop stop-color="#17104E"/><stop offset="1" stop-color="#300084" stop-opacity="0"/></radialGradient></defs></svg>