<svg width="269" height="187" fill="none" xmlns="http://www.w3.org/2000/svg"><rect x="54.797" y="13.543" width="147.19" height="147.19" rx="40" transform="rotate(4.373 54.797 13.543)" fill="#055A98"/><rect x="54.797" y="13.543" width="140.971" height="147.19" rx="40" transform="rotate(4.373 54.797 13.543)" fill="url(#paint0_linear_1875_26084)"/><rect x="54.797" y="13.543" width="140.971" height="147.19" rx="40" transform="rotate(4.373 54.797 13.543)" fill="url(#paint1_linear_1875_26084)"/><path d="M123.561 133.273l-16.804-1.282 3.083-40.217-8.395-.64 1.062-13.86 8.396.64.637-8.32c.867-11.307 6.123-17.668 19.591-16.64l11.213.855-1.062 13.86-7.009-.534c-5.243-.4-5.738 1.51-6.015 5.125l-.551 6.935 12.697.97-2.549 13.745-11.211-.855-3.083 40.218z" fill="#8DA9FA"/><path d="M121.27 133.098l-15.276-1.165 3.083-40.217-7.632-.582 1.062-13.86 7.632.583.638-8.322c.867-11.306 5.692-17.7 17.936-16.766l10.193.778-1.062 13.86-6.372-.486c-4.766-.363-5.23 1.55-5.507 5.164l-.549 6.936 11.542.88-2.413 13.757-10.192-.778-3.083 40.218z" fill="#fff"/><rect opacity=".4" x="30.281" y="175.748" width="156.645" height="10.739" rx="5.369" transform="rotate(.023 30.281 175.748)" fill="url(#paint2_radial_1875_26084)" fill-opacity=".5"/><path fill-rule="evenodd" clip-rule="evenodd" d="M217.969 143.919l-2.249-.775a.479.479 0 00-.607.296l-2.448 7.076a.476.476 0 00.296.606l1.754.604a1.002 1.002 0 001.273-.619l2.277-6.582a.476.476 0 00-.296-.606zm-1.781-2.127a1.914 1.914 0 00-2.431 1.181l-2.447 7.076a1.906 1.906 0 001.143 2.411c.026.01.052.017.08.024.328.084 2.62.673 4.075 1.213l3.012-8.706a1.906 1.906 0 00-1.184-2.424l-2.248-.775z" fill="#2158F5"/><path fill-rule="evenodd" clip-rule="evenodd" d="M225.922 139.389c-.353.61-.796 1.255-1.368 1.651l-2.039 1.413-.021.012-.01.006-.005.003-.036.022c-1.595 1.001-2.766 2.58-3.394 4.396l-1.884 5.447a.032.032 0 00.02.041c2.131.693 3.268 1.363 5.369 2.023 1.184.371 2.334.724 3.253.99.459.133.856.243 1.168.322.33.083.518.12.586.126.215.02.338-.02.413-.062a.664.664 0 00.237-.247c.155-.252.228-.567.305-.894l.027-.117c.059-.247.158-.467.32-.659.154-.183.332-.302.477-.39.08-.048.156-.091.232-.134a4.79 4.79 0 00.725-.477c.19-.152.237-.302.245-.428a.709.709 0 00-.075-.359l.01.018a.783.783 0 01-.105-.484c.01-.1.036-.188.063-.257.053-.14.136-.275.236-.402.038-.047.078-.095.123-.143.322-.344.47-.823.457-1.294a1.809 1.809 0 01.009-.233 1.85 1.85 0 01.345-.879c.101-.144.235-.303.35-.439l.116-.139a3.58 3.58 0 00.414-.607c.105-.197.115-.493-.073-.875-.187-.379-.537-.758-.97-1.017-.192-.115-.63-.24-1.26-.34a19.5 19.5 0 00-1.832-.185l-.109-.006a13.166 13.166 0 01-.631-.041 5.027 5.027 0 01-.467-.063 1.678 1.678 0 01-.504-.168 1.173 1.173 0 01-.589-.885c-.042-.307.019-.617.098-.88.162-.531.487-1.139.825-1.707.246-.416.522-.846.776-1.244l.281-.441c.339-.538.569-.929.654-1.158.083-.221.089-.368.076-.467a.731.731 0 00-.136-.319 2.792 2.792 0 00-.381-.419l-.161-.151a12.04 12.04 0 01-.404-.386c-.085-.087-.271.045-.334.15-.111.184-.217.475-.445.909-.092.176-.191.371-.294.575-.212.422-.445.882-.683 1.292zm1.656-3.01l-.003-.001.003.001zm.131-1.42c.405.026.736.24.993.503.107.108.208.202.32.306l.211.197c.187.178.398.391.571.642.179.258.326.568.376.939.051.372-.003.757-.153 1.159-.147.394-.466.917-.784 1.421l-.299.468c-.249.39-.504.789-.738 1.183-.332.56-.578 1.04-.685 1.393a.112.112 0 00.096.143l.128.014c.196.018.388.028.542.036l.146.007c.594.035 1.313.096 1.974.201.626.099 1.317.253 1.772.525.65.388 1.2.966 1.519 1.613.318.645.442 1.446.054 2.176a5.025 5.025 0 01-.571.842c-.072.089-.132.16-.184.221-.089.105-.153.18-.214.268-.076.109-.092.165-.097.211-.006.054-.003.176.094.418.079.196.157.464.12.754-.043.338-.234.63-.547.806-.314.177-.389.559-.377.919.002.065.001.131-.003.199-.032.497-.251 1.033-.782 1.456a6.667 6.667 0 01-.966.635 5.46 5.46 0 00-.143.082.607.607 0 00-.123.09.272.272 0 00-.021.064l-.023.1c-.068.304-.194.86-.48 1.328a2.1 2.1 0 01-.765.752c-.357.197-.774.279-1.242.235a6.044 6.044 0 01-.806-.164 40.12 40.12 0 01-1.214-.335c-.934-.27-2.096-.626-3.284-.999-2.109-.662-4.35-1.69-5.516-2.07-.324-.116-.375-.136-.487-.172a1.32 1.32 0 01-.279-.108.625.625 0 01-.316-.488 1.05 1.05 0 01.057-.4l2.111-6.104c.721-2.085 2.081-3.944 3.986-5.14l.065-.04 1.991-1.379c.296-.206.608-.611.945-1.193.219-.377.415-.766.615-1.164.109-.214.218-.432.333-.65.293-.56.65-1.19 1.094-1.553.242-.198.576-.373.986-.347z" fill="#2158F5"/><circle cx="216.311" cy="145.019" r=".948" fill="#7CB9FF"/><path d="M24.015 32.932c-.937 5.734-6.357 9.628-12.108 8.692a10.508 10.508 0 01-5.316-2.523l-.499.561.5-.56c-.257-.228-.572-.302-.802-.33a3.728 3.728 0 00-.76-.002c-.46.04-.996.137-1.488.227l-.126.023c-.553.1-1.037.183-1.41.2l-.05.002a3.93 3.93 0 01.014-.029c.16-.337.42-.754.715-1.223l.058-.092c.266-.422.554-.88.76-1.282.112-.216.216-.448.28-.673.056-.201.12-.53-.009-.86a10.446 10.446 0 01-.582-5.518c.937-5.734 6.357-9.627 12.108-8.692 5.752.935 9.652 6.345 8.715 12.079zM1.627 39.199l.004.001a.018.018 0 01-.004-.002zm.212.344v0z" stroke="#2158F5" stroke-width="1.5"/><circle cx="8.536" cy="30.663" r="1.448" transform="rotate(9.258 8.536 30.663)" fill="#7CB9FF"/><circle cx="13.681" cy="31.5" r="1.448" transform="rotate(9.258 13.68 31.5)" fill="#7CB9FF"/><circle cx="18.821" cy="32.339" r="1.448" transform="rotate(9.258 18.821 32.34)" fill="#7CB9FF"/><path d="M234.523 32.887a3 3 0 002.754 3.126 2.956 2.956 0 003.185-2.645" stroke="#2158F5" stroke-width="1.5" stroke-miterlimit="22.926"/><path d="M248.707 25.61a.721.721 0 01-.661-.77 10.246 10.246 0 00-2.455-7.476.715.715 0 01.075-1.01.718.718 0 011.011.082 11.68 11.68 0 012.797 8.519.71.71 0 01-.767.656zm-21.172-1.714a.72.72 0 01-.66-.771 11.53 11.53 0 014.033-7.964.718.718 0 01.935 1.091 10.119 10.119 0 00-3.54 6.989.712.712 0 01-.768.655z" fill="#7CB9FF"/><path d="M238.711 16.856l-.029.386m0 0c-9.73.432-4.743 9.4-9.633 13.283-1.188.943-.206 1.942 1.431 2.03l8.027.648m.175-15.96c9.549 1.993 3.287 10.05 7.539 14.673 1.033 1.123-.085 1.952-1.717 1.775l-8.026-.653" stroke="#2158F5" stroke-width="1.5" stroke-miterlimit="22.926"/><path stroke="#2158F5" stroke-width="1.5" stroke-linecap="round" d="M238.721 16.902l.129-1.664"/><circle cx="264.492" cy="5.11" r="4.5" fill="#7CB9FF"/><circle cx="27.5" cy="151.5" r="4.5" fill="#7CB9FF"/><defs><linearGradient id="paint0_linear_1875_26084" x1="125.282" y1="13.543" x2="125.282" y2="160.733" gradientUnits="userSpaceOnUse"><stop stop-color="#255BF5" stop-opacity=".21"/><stop offset="1" stop-color="#2158F5"/></linearGradient><linearGradient id="paint1_linear_1875_26084" x1="125.282" y1="13.543" x2="125.282" y2="160.733" gradientUnits="userSpaceOnUse"><stop stop-color="#68AFFF"/><stop offset="1" stop-color="#2158F5"/></linearGradient><radialGradient id="paint2_radial_1875_26084" cx="0" cy="0" r="1" gradientUnits="userSpaceOnUse" gradientTransform="matrix(0 5.36935 -78.3225 0 108.604 181.117)"><stop stop-color="#17104E"/><stop offset="1" stop-color="#300084" stop-opacity="0"/></radialGradient></defs></svg>