<svg width="54" height="32" fill="none" xmlns="http://www.w3.org/2000/svg"><rect width="54" height="32" rx="2.16" fill="#F5EEE5"/><path fill-rule="evenodd" clip-rule="evenodd" d="M16.368 7.087c-.533.183-.973.58-1.229 1.109L15 8.484v15.048l.156.314c.2.403.632.831 1.023 1.012l.306.142h22.011l.298-.138a2.136 2.136 0 001.128-1.28c.079-.24.086-.946.073-7.681l-.014-7.417-.143-.302c-.185-.39-.642-.842-1.036-1.024l-.306-.142-10.926-.012c-10.405-.01-10.939-.007-11.202.083zM28.1 10.276c.373.122.825.575.957.961.221.644.08 1.265-.395 1.734-.475.47-1.103.61-1.754.391-.402-.134-.848-.575-.984-.972-.2-.581-.084-1.214.298-1.644.495-.556 1.13-.715 1.878-.47zm-3.541 7.895a577.56 577.56 0 003.38 3.382l2.23 2.216-6.656-.013c-6.363-.014-6.665-.019-6.837-.111l-.18-.098 3.31-3.271c2.787-2.756 3.332-3.272 3.456-3.272.122 0 .343.2 1.297 1.167zm10.589 2.13l3.283 3.245-.15.098c-.143.092-.328.099-3.177.112l-3.026.015-1.83-1.78-1.83-1.78 1.594-1.578c1.221-1.21 1.623-1.576 1.722-1.576.101 0 .86.72 3.414 3.244z" fill="#D4B08C"/></svg>