<svg width="240" height="40" fill="none" xmlns="http://www.w3.org/2000/svg"><path d="M55.826 6.259a7.15 7.15 0 00-5.024-5.035C46.342 0 28.5 0 28.5 0S10.658 0 6.198 1.176c-2.395.66-4.367 2.636-5.024 5.083C0 10.729 0 20 0 20s0 9.318 1.174 13.741a7.15 7.15 0 005.024 5.035C10.705 40 28.5 40 28.5 40s17.842 0 22.302-1.176a7.15 7.15 0 005.024-5.036C57 29.318 57 20.048 57 20.048s.047-9.319-1.174-13.79z" fill="red"/><path d="M22.819 28.565L37.655 20 22.82 11.435v17.13z" fill="#fff"/><mask id="a" maskUnits="userSpaceOnUse" x="22" y="11" width="16" height="18"><path d="M22.82 28.57l14.837-8.565L22.82 11.44v17.13z" fill="#fff"/></mask><g mask="url(#a)"><path d="M36 21l-13-9.5L38 20l-2 1z" fill="#E7E0E0"/></g><path d="M72.326 20.013l3.041-5.863h2.285l-4.28 7.867V27h-2.11v-4.913L67 14.15h2.285l3.041 5.863zm18.431.545c0 2.091-.525 3.717-1.573 4.878-1.043 1.16-2.523 1.74-4.439 1.74-1.94 0-3.43-.574-4.474-1.723-1.037-1.154-1.555-2.792-1.555-4.913 0-2.121.521-3.75 1.564-4.887 1.05-1.136 2.543-1.705 4.483-1.705 1.91 0 3.386.577 4.43 1.732 1.042 1.154 1.564 2.78 1.564 4.878zm-9.809 0c0 1.582.32 2.783.958 3.603.639.815 1.585 1.222 2.84 1.222 1.247 0 2.188-.404 2.82-1.213.64-.809.958-2.013.958-3.612 0-1.577-.316-2.772-.949-3.586-.627-.815-1.564-1.222-2.812-1.222-1.26 0-2.212.407-2.857 1.222-.638.814-.958 2.01-.958 3.586zm22.641-6.408v8.315c0 .95-.205 1.781-.615 2.496-.405.709-.994 1.257-1.767 1.644-.768.38-1.688.57-2.76.57-1.594 0-2.833-.421-3.718-1.265-.884-.844-1.327-2.004-1.327-3.48v-8.28h2.11v8.13c0 1.06.246 1.843.738 2.347s1.248.756 2.268.756c1.98 0 2.97-1.04 2.97-3.12V14.15h2.101zM111.314 27h-2.1V15.952h-3.779V14.15h9.659v1.802h-3.78V27zm15.83-12.85v8.315c0 .95-.206 1.781-.616 2.496-.404.709-.993 1.257-1.766 1.644-.768.38-1.688.57-2.76.57-1.594 0-2.833-.421-3.718-1.265-.885-.844-1.327-2.004-1.327-3.48v-8.28h2.109v8.13c0 1.06.246 1.843.739 2.347.492.504 1.248.756 2.267.756 1.981 0 2.971-1.04 2.971-3.12V14.15h2.101zm3.287 0h3.814c1.77 0 3.047.258 3.832.774.791.516 1.187 1.33 1.187 2.443 0 .75-.194 1.374-.58 1.872-.387.498-.944.812-1.67.94v.089c.902.17 1.564.506 1.986 1.01.428.498.642 1.175.642 2.03 0 1.155-.405 2.06-1.213 2.716-.803.65-1.922.976-3.358.976h-4.64V14.15zm2.1 5.309h2.022c.879 0 1.52-.138 1.925-.413.404-.281.606-.756.606-1.424 0-.603-.22-1.04-.659-1.31-.434-.269-1.125-.404-2.074-.404h-1.82v3.551zm0 1.705v4.07h2.233c.879 0 1.541-.168 1.986-.502.451-.34.677-.873.677-1.6 0-.667-.229-1.162-.686-1.485-.457-.322-1.151-.483-2.083-.483h-2.127zM149.582 27h-7.269V14.15h7.269v1.776h-5.168v3.498h4.843v1.758h-4.843v4.034h5.168V27zm12.929-11.232c-1.207 0-2.157.427-2.848 1.283-.691.855-1.037 2.036-1.037 3.542 0 1.576.331 2.768.993 3.577.668.808 1.632 1.213 2.892 1.213.545 0 1.072-.053 1.582-.158.51-.112 1.04-.252 1.591-.422v1.802c-1.008.38-2.151.57-3.428.57-1.881 0-3.325-.568-4.333-1.704-1.008-1.143-1.512-2.775-1.512-4.896 0-1.336.243-2.505.73-3.507.492-1.002 1.201-1.77 2.127-2.302.925-.534 2.012-.8 3.26-.8 1.313 0 2.526.275 3.639.826l-.756 1.749a10.634 10.634 0 00-1.38-.536 4.826 4.826 0 00-1.52-.237zM178.586 27h-2.109v-5.792h-5.924V27h-2.101V14.15h2.101v5.256h5.924V14.15h2.109V27zm11.355 0l-1.283-3.568h-4.913L182.488 27h-2.215l4.808-12.902h2.285L192.174 27h-2.233zm-1.837-5.379l-1.204-3.498a25.965 25.965 0 01-.685-2.215c-.158.72-.39 1.509-.694 2.365l-1.161 3.348h3.744zM204.575 27H202l-6.319-10.24h-.071l.044.572c.082 1.09.123 2.086.123 2.988V27h-1.907V14.15h2.549l6.302 10.187h.052a63.814 63.814 0 01-.07-1.468 51.62 51.62 0 01-.053-1.986V14.15h1.925V27zm14.098 0h-2.575l-6.32-10.24h-.07l.044.572c.082 1.09.123 2.086.123 2.988V27h-1.907V14.15h2.549l6.301 10.187h.053a57.913 57.913 0 01-.07-1.468 51.62 51.62 0 01-.053-1.986V14.15h1.925V27zm10.661 0h-7.269V14.15h7.269v1.776h-5.168v3.498h4.843v1.758h-4.843v4.034h5.168V27zm2.786 0V14.15h2.101v11.048h5.44V27h-7.541z" fill="#fff"/></svg>