<svg width="212" height="103" fill="none" xmlns="http://www.w3.org/2000/svg"><path d="M116.476 24.78c4.928-3.837 16.573-5.625 23.028.262" stroke="#2158F5" stroke-miterlimit="22.926"/><path d="M140.332 91.466c.175-1.875.393-3.707.567-5.539-.218-11.732.742-16.835 3.489-26.735 1.658-5.975 4.405-14 8.854-13.913 4.405.087 5.844 4.71 6.629 7.196.785 2.486 1.003 3.882 1.483 5.801M18.432 41.92c1.527.263 6.498 1.266 9.508 1.658 2.965.393 6.89.829 10.293 1.047 3.402.218 6.236.349 10.205.305 4.013 0 8.592-.174 13.738-.392 5.147-.218 10.86-.524 17.097-.96 6.237-.436 16.137-1.265 20.28-1.657 4.144-.349 4.362-.654 5.888-.829M91.79 49.859c-6.106 1.352-12.735 2.704-18.84 4.056-3.185.872-7.197 1.744-9.552 2.617-2.355.872-3.271 1.919-4.492 2.704-2.094 1.308-2.4 2.398-4.842 2.442-2.224.044-8.94.13-11.295-.174-2.617-.306-2.923-2.835-5.06-4.405-1.265-.96-3.27-1.876-4.928-2.792-3.445-1.44-7.85-3.27-11.34-4.71" stroke="#2158F5" stroke-miterlimit="22.926" stroke-linecap="round" stroke-linejoin="round"/><path clip-rule="evenodd" d="M90.22 53.827c-.698.044-1.395.044-2.093.088-.087-.262-.131-.48-.218-.742l.785-1.177 14.261-9.813c.829-.35 1.614-.698 2.443-1.004 6.76-.654 13.564-1.264 20.324-1.919 1.613-.392 3.184-.785 4.797-1.133 2.573-.306 6.15-.785 7.72-.873 2.05-.087 2.704 1.178 1.875 2.966-.436.96-1.526 2.748-2.311 4.143-.393.306-.829.61-1.221.916-5.757 1.309-11.514 2.573-17.271 3.882a9880.277 9880.277 0 00-29.09 4.666zM18.781 42.575c-.13-.218-.262-.392-.349-.61-.654-.262-1.352-.524-2.006-.83a29.383 29.383 0 01-1.57-.959c-1.701.175-2.094-.392-2.791 1.134-1.047 2.312-1.352 4.274-1.44 5.67-.087 1.396 2.312 2.486 3.533 3.14 1.614.873 4.449 2.007 6.673 3.01l1.57.654c0-1.047.044-2.094.044-3.097-.611-.741-1.352-1.352-1.876-2.224-.567-.872-1.09-1.919-1.395-2.966-.306-.916-.262-1.919-.393-2.922z" stroke="#2158F5" stroke-miterlimit="22.926" stroke-linecap="round" stroke-linejoin="round"/><path d="M128.164 38.65c.567-1.047 1.047-2.268 1.701-3.14.654-.873 1.09-1.44 2.05-2.05.959-.61 1.744-1.047 3.576-1.614 1.832-.61 5.408-1.44 7.371-1.962 1.962-.524 3.314-.655 4.405-1.134 1.09-.524 1.265-1.178 1.875-1.789.262-.523.48-1.046.742-1.57-4.624-.174-9.203-.392-13.826-.567-6.804 0-13.389-.087-20.455 0-7.065.088-13.258.175-21.981.48-8.723.305-22.548.872-30.442 1.309-7.895.436-12.954.959-16.922 1.308-3.97.349-4.667.305-6.891.741-2.181.437-4.623 1.134-6.194 1.789-1.57.697-2.268 1.7-3.183 2.224-.916.523-.96.523-2.312.916-1.308.349-4.012.697-5.626 1.308-1.657.61-3.053 1.44-4.187 2.224-1.134.742-1.614 1.527-2.442 2.268-.175.306-.35.567-.524.873m-4.23 6.76c-1.701 1.744-3.402 3.532-5.103 5.277-.349.61-.698 1.177-1.047 1.788a949.117 949.117 0 00-2.442 10.729l.262 5.234c.48 3.227.96 6.498 1.482 9.725-.48.873-1.003 1.789-1.482 2.661.567.044 1.177.087 1.744.087 1.701.175 3.358.35 5.06.48.828-.174 1.613-.349 2.442-.48.61-.829 1.264-1.614 1.875-2.442 1.92-4.972 3.882-9.988 5.8-14.96.96-1.875 1.92-3.707 2.88-5.539.086-1.919.217-3.838.305-5.713" stroke="#2158F5" stroke-miterlimit="22.926" stroke-linecap="round" stroke-linejoin="round"/><path clip-rule="evenodd" d="M2.295 70.052l-.262-5.234c.567-.654 1.09-1.308 1.658-1.962.96-.524 1.57-1.047 2.835-1.57 1.22-.524 2.834-1.135 4.535-1.527 1.701-.393 3.751-.523 5.583-.785.567 0 1.134.044 1.657.044.087.305.175.566.306.872-.306.349-.611.698-.916 1.003-.611.785-.742.305-1.876 2.399-1.134 2.093-3.794 7.98-4.928 10.162-1.134 2.137-1.221 2.093-1.832 2.79-.61.699-1.221 1.048-1.875 1.397-.654.305-1.483.348-1.92.523-.435.174-.392.392-.566.567l-.916 1.047a882.601 882.601 0 01-1.483-9.726z" stroke="#2158F5" stroke-miterlimit="22.926" stroke-linecap="round" stroke-linejoin="round"/><path d="M137.846 44.363c2.006 1.265 4.056 2.53 6.062 3.795 1.134.96 2.268 1.919 3.359 2.878m-58.573.96c-2.007 1.7-4.056 3.401-6.063 5.146-.96.96-1.919 1.875-2.878 2.835-.174.436-.349.872-.48 1.308l.916 1.963 1.832 2.617c3.62 5.408 7.283 10.816 10.903 16.18a270.81 270.81 0 013.271 3.62c.698.393 1.44.785 2.137 1.134h9.552c6.673.044 13.302.044 19.975.088-.349-1.047-.262-2.312-1.047-3.184-.829-.916-1.788-1.44-3.445-1.788-1.658-.35-3.795-.044-6.281-.262-2.529-.218-6.324-.567-8.766-1.047s-4.013-1.003-5.714-1.875c-1.744-.872-3.009-2.224-4.492-3.358-2.355-2.356-4.71-4.754-7.022-7.11l-5.8-6.062c-.61-.087-1.178-.174-1.788-.261-.48-.567-.916-1.09-1.396-1.658l.742-.741c6.062.392 13.214.698 18.23 1.221 5.016.523 8.723 1.265 11.863 1.875 3.14.611 5.408 1.265 7.022 1.789 1.613.523 1.788.567 2.704 1.308a10.726 10.726 0 012.617 3.01c.828 1.395 1.395 2.616 2.355 5.233 1.003 2.617 2.704 7.545 3.532 10.467.829 2.922.96 4.754 1.483 7.11l7.72-.132" stroke="#2158F5" stroke-miterlimit="22.926" stroke-linecap="round" stroke-linejoin="round"/><path clip-rule="evenodd" d="M37.36 60.893c-3.532-.175-7.109-.349-10.641-.567-.567-.785-1.178-1.526-1.745-2.312-.305-.872-.61-1.7-.96-2.573-.13-.698-.305-1.395-.436-2.093.131-.218.219-.48.35-.698h1.046l9.552 4.449c.523.349 1.003.741 1.526 1.09.48.698 1.003 1.395 1.483 2.093-.087.218-.131.437-.175.61zm28.044.785c-1.963 0-3.882.044-5.844.044-.044-.306-.131-.611-.175-.916 1.352-.742 2.704-1.527 4.056-2.268 2.443-.742 4.929-1.44 7.371-2.181 4.928-1.134 9.857-2.312 14.785-3.445-2.878 2.006-5.757 4.056-8.592 6.062-.741.523-1.526 1.09-2.268 1.614-.654.261-1.352.566-2.006.828l-7.327.262zM26.631 80.737c-3.401-.218-6.76-.392-10.118-.61-.174-.219-.393-.393-.567-.611.349-1.134.698-2.312 1.047-3.446.916-2.311 2.05-5.277 2.747-6.89.698-1.614.873-2.05 1.396-2.792 1.483-2.006 3.184-1.962 5.8-1.919 5.016.044 18.45.61 25.907.785 7.502.175 13.52.044 17.053.131 3.533.044 3.097 0 4.23.262 1.178.261 1.832.61 2.661 1.221.829.61.48-.087 2.224 2.399 1.701 2.486 5.365 8.33 8.069 12.473-.262.393-.48.829-.742 1.221l-5.495-.392c-8.81-.305-17.576-.61-26.386-.96-9.29-.305-18.536-.61-27.826-.872z" stroke="#2158F5" stroke-miterlimit="22.926" stroke-linecap="round" stroke-linejoin="round"/><path d="M86.338 82.918c2.094.828 4.187 1.657 6.28 2.442.83.305 1.658.61 2.443.96 1.09.13 2.18.305 3.271.436m-81.862-6.63c-.567.175-1.134.393-1.701.567a35.43 35.43 0 01-1.745 1.004c-.48.261-1.003.566-1.483.828m-9.29-.087c-.349.218-.697.436-1.003.654-.087.262-.174.524-.305.829.174.305.305.567.48.872l1.57.785c.13.305.218.567.349.872h4.492m121.769 5.714c-.567-1.745-1.134-3.533-1.744-5.277m1.744 5.277c.916 0 1.832-.044 2.748-.044l.262-.523" stroke="#2158F5" stroke-miterlimit="22.926" stroke-linecap="round" stroke-linejoin="round"/><path d="M137.367 91.51c-.088.392-.175.828-.262 1.22-.829 0-1.701.044-2.53.044l-.261.916c-.524.131-1.047.306-1.614.436l-18.71-.654c-.349-.349-.698-.654-1.004-.96-12.778-.435-25.6-.871-38.38-1.308-12.996-.61-25.95-1.264-38.946-1.875-.262.13-.48.305-.742.436-5.757-.218-11.47-.48-17.227-.698-.35-.174-.698-.392-1.047-.567-2.748-.13-5.539-.261-8.287-.349-.305-.567-.61-1.177-.96-1.744" stroke="#2158F5" stroke-miterlimit="22.926" stroke-linecap="round" stroke-linejoin="round"/><path d="M21.834 89.242c.829.741 1.614 1.439 2.442 2.18.654.393 1.265.83 1.92 1.222l2.747 1.439c1.047.305 2.137.61 3.184.96 1.395.217 2.835.392 4.23.61 1.745.044 3.446.13 5.19.174 1.483-.174 2.966-.349 4.405-.523 1.309-.523 2.573-1.047 3.882-1.57 1.09-.698 2.224-1.396 3.314-2.137.524-.436 1.004-.916 1.527-1.352m2.093-63.153c2.53-1.962 5.278-4.187 7.546-5.844 2.224-1.7 3.663-2.66 5.931-4.23 2.268-1.527 5.408-3.577 7.763-4.972 2.355-1.44 4.623-2.66 6.368-3.577 1.788-.916 2.66-1.308 4.23-1.875 1.527-.567 2.922-1.178 5.016-1.614 2.093-.436 4.274-.567 7.502-.96 3.271-.392 7.37-.959 12.037-1.351 4.667-.393 9.202-.873 15.962-1.09 6.717-.219 18.58-.175 24.424-.219 5.801-.043 7.851-.13 10.467-.043 2.617.087 3.533.174 5.103.523 1.57.349 2.748.829 4.274 1.526a41.168 41.168 0 014.841 2.617c1.658 1.047 3.315 2.05 5.06 3.62 2.922 2.53 7.109 6.978 9.944 9.9.741.786 1.221 1.309 2.704 3.271 1.482 1.963 4.928 7.022 6.236 8.636 1.047 1.265 2.007.61 3.577 1.919.61.523 1.046 1.178 1.57 1.832.48.698 1.047 1.395 1.395 2.268.349.872.655 2.05.785 2.878.131.829-.13 1.134 0 2.006.131.873.48 1.396.742 3.184.218 1.788.61 5.103.698 7.502.087 2.399.087 4.405-.088 6.803-.174 2.4-.61 5.801-.872 7.59-.261 1.788-.48 2.093-.741 3.14a3.958 3.958 0 01-.306.61" stroke="#2158F5" stroke-miterlimit="22.926" stroke-linecap="round" stroke-linejoin="round"/><path d="M162.706 86.014l35.196-9.29c.306-1.613.611-3.227.916-4.884.218-1.221.393-2.443.611-3.62.261-2.573.523-5.103.785-7.676.436-2.093.828-4.187 1.265-6.28.567-1.789 1.875-7.197 4.099-7.415.524-.043.916.044 1.396.655.48.61 1.047 1.57 1.439 2.922.393 1.308.611 3.009.785 4.928.175 1.962.349 4.143.306 6.804-.044 2.617-.349 6.018-.524 8.984" stroke="#2158F5" stroke-miterlimit="22.926" stroke-linecap="round" stroke-linejoin="round"/><path clip-rule="evenodd" d="M163.622 33.242a13.192 13.192 0 01-.305-1.265c.349-.741.741-1.483 1.09-2.224.131-.698.305-1.396.436-2.137 6.019-.306 12.037-.61 18.013-.916.087.13.13.305.218.436-.349.436-.698.916-1.047 1.352-2.268.305-4.492.567-6.76.872-1.396.175-2.791.393-4.187.567-.523.61-1.003 1.221-1.527 1.832l-.654 2.748c-.131.305-.261.61-.349.916l-.785.13c-.698-.305-1.439-.567-2.137-.872a79.21 79.21 0 00-2.006-1.44zm20.76 5.538c-.218.088-.349.35-.698.306-.349-.044-.916-.262-1.134-.61-.218-.35-.218-.786-.131-1.134.088-.35.219-.655.567-.83.349-.174.916-.086 1.352-.13.306 0 .655-.044.96-.044.131-.087.305-.174.436-.261.393.087.916.043 1.178.305.305.218.305.61.305.96 0 .348-.131.654-.305.959-.131.262-.306.523-.567.61-.262.088-.611-.043-.916-.043-.175-.087-.393-.175-.567-.305-.087.043-.305.13-.48.218z" stroke="#2158F5" stroke-miterlimit="22.926" stroke-linecap="round" stroke-linejoin="round"/><path d="M206.8 34.55c-.219.088-.393.218-.611.306l-.131.654c.305.785.654 1.57.96 2.311.479.873 1.003 1.701 1.482 2.574.306.654.655 1.264.96 1.918m-61.365 7.24c1.178-.087 2.356-.48 3.533-.305 3.402.48 6.15 3.576 7.938 6.28 3.794 5.888 4.405 10.73 4.754 17.664.305 6.76-1.047 12.386-3.751 18.58-1.919 4.273-3.751 6.629-8.025 8.809-1.221.655-1.875.785-3.184 1.003-2.704.349-9.551.218-12.168-.087-4.143-.48-8.33-3.053-11.209-5.975-.697-.698-.872-1.134-1.308-1.657m65.071-15.003c.349 1.526.48 3.01 1.614 4.274 1.134 1.308 2.835 1.7 4.492 1.744 1.745.088 6.106.044 7.676-.13 2.704-.262 3.708-3.315 4.187-5.627.611-3.009 1.265-7.414 1.396-10.423.087-2.268 0-5.8-.131-7.938-.218-3.62-.654-5.583-2.268-8.854-.523-1.046-1.047-1.788-1.483-2.267-.436-.48-.698-.437-1.003-.524-.349-.087-.654 0-.959-.043" stroke="#2158F5" stroke-miterlimit="22.926" stroke-linecap="round" stroke-linejoin="round"/><path clip-rule="evenodd" d="M202.046 63.292c.13-2.4.392-6.019.872-8.33.174-.786.654-3.01 1.701-2.705.436.131.872.393 1.265 1.134.392.785.741 1.658 1.09 3.315.349 1.657.785 4.449.959 6.498.131 2.05.044 3.882-.043 5.757-.131 3.01-.436 6.412-1.309 9.246-.218.742-.785 1.832-1.613 1.92-2.748.261-2.573-6.063-2.748-8.069-.262-2.704-.349-5.975-.174-8.766z" stroke="#2158F5" stroke-miterlimit="22.926" stroke-linecap="round" stroke-linejoin="round"/><path d="M149.884 25.391c1.133.131 2.224.262 3.358.437 1.09.348 2.224.697 3.314 1.046 1.614.698 3.228 1.352 4.842 2.05.915.48 1.831.916 2.747 1.396m5.844.96c2.181-.132 4.275-.306 6.586-.437 2.312-.13 4.71-.305 7.284-.349 2.573-.087 6.542.044 8.199-.13 1.57-.131 2.748-2.443 2.66-3.97-.043-.566-.218-1.22-.61-2.05-.393-.828-.698-1.482-1.788-2.965-1.091-1.527-3.533-4.536-4.841-6.106-1.265-1.57-1.789-1.919-2.705-2.922-2.137-2.268-3.707-3.446-6.367-5.103-1.439-.872-3.969-1.963-5.539-2.442-1.875-.567-5.103-.61-6.978-.175-1.876.436-2.617 1.57-3.446 3.271-.523 1.09-.872 2.181-1.57 4.23-.654 2.05-1.788 5.54-2.442 8.026-.698 2.486-1.09 4.536-1.657 6.803m-103.932.437c.393-.655.829-1.309 1.221-1.963.437-.48.83-.96 1.265-1.44.524-.217 1.047-.479 1.614-.697.741-.13 1.483-.305 2.268-.436h3.053" stroke="#2158F5" stroke-miterlimit="22.926" stroke-linecap="round" stroke-linejoin="round"/><path d="M164.843 27.616c-.698-.785-.785-1.527-.523-2.443.436-.785.785-1.526 1.265-2.311.479-.742 1.09-1.658 1.613-2.181 1.265-1.308 2.617-1.352 4.405-1.396 1.614 0 5.321.131 6.804.306 1.439.13 1.134.13 1.832.567.959.523 3.184 2.224 3.663 3.227 0 .567.044 1.134-.087 1.657-.087.524-.523 1.483-.959 1.789m-21.502 2.093c-.654-4.056-.698-5.713-2.573-9.464m25.209-7.85c3.14 6.28 5.669 12.037 7.239 18.84M172.475 4.762l2.486 4.841c.742 1.614 1.483 3.228 2.268 4.885l2.225 5.19m-21.633 7.72c.436 1.526.829 3.096 1.265 4.623.829 1.177 1.701 2.355 2.53 3.532.567 1.003 1.134 1.963 1.701 2.966.087 1.396.174 2.835.261 4.274.262 3.14.48 6.324.742 9.464.261 2.966.479 5.932.741 8.898l-.916 10.467m0 7.632c10.293-2.311 20.63-4.666 30.922-6.978.916-.436 1.876-.872 2.792-1.308.261-1.004.479-2.007.741-3.01.305-.305.567-.61.872-.916" stroke="#2158F5" stroke-miterlimit="22.926" stroke-linecap="round" stroke-linejoin="round"/><path d="M187.13 73.584c-.349-1.134-.829-2.224-.96-3.445-.174-1.221-.305-2.137-.044-3.707.306-1.57 1.265-3.533 1.745-5.626.48-2.05 1.003-3.708 1.047-6.717.087-3.01-.48-8.592-.654-11.121-.175-2.53-.219-2.748-.306-4.1" stroke="#2158F5" stroke-miterlimit="22.926" stroke-linecap="round" stroke-linejoin="round"/><path d="M187.958 38.912c-.13-.83-.305-1.614-.436-2.443-.436-.698-.828-1.395-1.265-2.137a129.01 129.01 0 01-2.442-2.486c-.305-.436-.916-.829-1.221-1.308-.175-.262-.393-1.527-.523-2.05" stroke="#2158F5" stroke-miterlimit="22.926" stroke-linecap="round" stroke-linejoin="round"/><path clip-rule="evenodd" d="M199.734 37.472c-.131-.087-.305-.13-.436-.218-.262.088-.48.175-.742.262-.218 0-.392.174-.61-.044-.175-.218-.349-.785-.436-1.09-.088-.349-.218-.61 0-.829.218-.218.654-.13 1.003-.174.131.044.305.13.436.174.131-.13.305-.261.436-.349.262.044.48 0 .742.175.261.174.523.567.654.829.087.261-.044.523-.131.697-.087.218-.131.35-.305.48-.175.044-.393.044-.611.087z" stroke="#2158F5" stroke-miterlimit="22.926" stroke-linecap="round" stroke-linejoin="round"/><path d="M194.675 26.438c.959 1.483 2.224 3.402 2.922 4.405.916 1.308 2.224 2.05 2.922 3.053.436.61.742 1.352.96 2.006.218.654.087.96.305 1.788.174.829.654 2.094.872 3.228.218 1.134.436 2.617.48 3.576.087 2.094-.872 4.449-1.265 6.542-.218 1.265-.218 2.137-.349 3.228M160.22 41.79c-.349-.48-.698-.916-1.047-1.396 7.153-.828 14.349-1.657 21.502-2.442m8.33-1.396c2.355-.174 4.754-.392 7.109-.566m-3.445 28.697c-.829 1.047-1.701 2.094-2.53 3.097l-1.962 1.57m-4.798 2.093c-5.408 1.963-10.773 3.926-16.181 5.888M162.662 1.36c-2.747.436-6.105 1.92-7.021 2.399-6.76-.13-13.521-.262-20.281-.349l-12.778.523c-5.365.306-10.729.567-16.094.873-4.361.523-8.68 1.09-13.04 1.613-1.003.218-2.05.437-3.053.655L88.432 8.12m-.044-.043c-2.05.96-4.056 1.919-6.106 2.922l-9.42 5.888c-4.623 3.358-9.203 6.716-13.826 10.074" stroke="#2158F5" stroke-miterlimit="22.926" stroke-linecap="round" stroke-linejoin="round"/><path d="M155.597 3.715v2.966c-.305 2.137-.611 4.318-.916 6.455-.828 4.1-1.701 8.2-2.529 12.299m-7.676 33.321c2.224-2.18 3.445-3.402 6.89-3.14 4.536.349 6.499 3.489 8.2 7.24 2.093 4.622 2.355 8.853 2.006 13.912-.392 5.496-2.224 12.081-6.193 16.007-2.66 2.616-5.713 3.401-8.984 1.308-1.047-.654-2.312-1.876-3.141-2.835-.828-.96-1.483-2.094-1.875-2.791-.393-.698-.349-.96-.523-1.44" stroke="#2158F5" stroke-miterlimit="22.926" stroke-linecap="round" stroke-linejoin="round"/></svg>