<svg width="227" height="109" fill="none" xmlns="http://www.w3.org/2000/svg"><path d="M68.483 38.567c2.823-.404 5.645-.852 8.468-1.255M43.526 42.33c5.108-.761 10.26-1.523 15.369-2.285m-36.382-2.24c-.403 1.03-.762 2.106-1.165 3.136-1.255 1.12-3.181 2.465-3.674 4.122-.358 1.165-.403 2.24-.582 4.615-.18 2.375-.583 6.99-.404 9.589.448 7.348 1.344 10.797 3.047 18.594m-4.256-31.543c6.093-.851 12.142-1.703 18.235-2.51" stroke="#2158F5" stroke-miterlimit="22.926"/><path clip-rule="evenodd" d="M60.732 39.776c-.314-.269-.359-.761-.359-1.12.045-.358.224-.538.493-.806.269-.27.627-.628 1.075-.807.448-.179 1.076-.179 1.613-.269.538-.09 1.03-.09 1.569-.268.537-.135 1.03-.493 1.568-.583.492-.09 1.075-.134 1.433.09.359.179.493.537.538.985.045.449 0 1.12-.18 1.569-.178.403-.313.627-.85.85-.493.225-1.39.404-2.106.449-.717.045-1.524-.224-2.106-.224-.583 0-1.03.18-1.479.224-.403 0-.896.18-1.21-.09zm-24.374.807c.269-.135.403.045.582.09.18.044.18.179.448.179.269 0 .672.044 1.03-.09.36-.134.583-.538.942-.672.313-.135.672-.269.985-.224.359.045.672.134.896.493.18.358.224.985.135 1.433-.09.449-.314.852-.762 1.12-.448.27-1.344.494-1.792.494-.448 0-.538-.314-.806-.359a1.83 1.83 0 00-.852-.045c-.269.045-.358.359-.672.359-.313 0-.717-.135-.986-.359-.224-.224-.358-.493-.358-.806 0-.314.045-.672.269-.986.179-.18.672-.493.94-.627zM64.226 82.61c-.044-3.047.493-7.796 1.076-10.753.582-2.823 1.478-5.69 3.27-7.976 5.287-6.72 9.14 1.255 10.171 6.407.852 4.391 1.434 8.872 1.165 13.353-.18 3.18-1.03 8.826-2.195 11.783-.628 1.658-1.658 3.271-2.42 4.301-1.3 1.658-2.688 2.196-4.615 1.076-4.39-2.599-6.407-13.442-6.452-18.191z" stroke="#2158F5" stroke-miterlimit="22.926"/><path d="M14 56.937c-1.12 0-2.196-.359-3.316-.045-1.12.313-2.106.896-3.091 1.837-2.285 2.15-3.495 5.108-4.033 8.154-.806 4.57-.761 9.185 1.703 13.263.627 1.075 1.478 2.33 2.42 3.18 3.584 3.272 6.496 3.406 10.26.494.717-.538.851-.941 1.254-1.39M70.32 29.113c1.075-3.271 1.747-6.363 3.226-9.813 1.478-3.45 3.853-7.213 5.78-10.798M46.708 75.441c1.926-.269 4.211-.403 5.735-.851 1.478-.448 2.24-.717 3.046-1.658.807-.986.986-2.599 1.524-3.853m-30.468 7.886c4.078-.27 8.2-.538 12.277-.852M60.956 6.217c-1.076 1.792-2.151 3.405-3.271 5.377a106.445 106.445 0 00-6.72 14.293c-.987 2.554-1.659 4.928-2.51 7.393-1.075 1.21-2.195 2.464-3.27 3.674-.807.85-1.614 1.747-2.42 2.598-.269.807-.583 1.613-.852 2.42l-1.612 9.409c-.628 7.437-.986 8.065 1.523 18.55.403 1.612.851 3.18 1.254 4.793l.27 3.764-.404 2.688" stroke="#2158F5" stroke-miterlimit="22.926"/><path d="M63.285 5.904c-1.792 3.091-3.942 6.496-5.331 9.23-1.39 2.733-1.972 4.3-3.047 7.213-1.075 2.957-2.24 6.945-3.36 10.395m7.572-26.077c-1.524 2.42-3.047 4.57-4.526 7.259-1.478 2.688-2.822 5.6-4.301 8.916-1.479 3.316-3.092 7.258-4.615 10.888m-14.293-5.511a586.15 586.15 0 00-2.374 8.378" stroke="#2158F5" stroke-miterlimit="22.926"/><path clip-rule="evenodd" d="M26.948 36.057c-.134-.403-.268-.761-.403-1.165 1.39-1.926 2.733-3.853 4.122-5.78 2.554-2.867 5.198-6.048 7.662-8.557 2.464-2.554 4.615-4.705 7.124-6.631 2.51-1.972 5.377-3.764 7.886-5.063 2.509-1.3 4.704-1.748 7.079-2.599 3.584-.403 8.154-1.03 10.753-1.165 2.599-.134 3.45.09 4.705.314 1.254.269 1.837.269 2.598 1.165.762.896 1.21 2.06 1.748 3.853.537 1.792 1.254 4.973 1.434 6.81.179 1.793-.045 2.823-.359 3.943-.313 1.12-.94 1.792-1.434 2.689-1.523.94-3.002 1.926-4.525 2.867-2.42 1.165-4.794 2.285-7.214 3.45-4.704.717-9.409 1.434-14.113 2.195-3.988.672-7.976 1.345-11.918 2.017-4.078.851-8.11 1.702-12.187 2.509-.986-.314-1.972-.583-2.957-.852zm51.93 2.913c-.18-.224-.404-.448-.583-.672.314-1.255.493-2.644.941-3.764.941-2.464 2.464-4.256 4.705-5.69.403-.269 7.84-2.15 7.572 0-.09.896-2.285 1.792-3.092 3.091-.851 1.3-1.344 3.495-1.837 4.615-1.075 2.24-.986 2.285-3.45 2.42-1.12.09-2.867 0-4.256 0z" stroke="#2158F5" stroke-miterlimit="22.926"/><path d="M25.56 34.982c-.18 1.434-.09 2.016.806 2.778.314.269.627.403.941.583 0 .224.134.627-.18 1.03-.268.403-.985.941-1.433 1.3-.493.358-.806.492-1.165.492-.358 0-.538 0-.851-.448-.314-.448-.628-1.389-.941-2.106-.134-.582-.314-1.12-.448-1.702" stroke="#2158F5" stroke-miterlimit="22.926"/><path clip-rule="evenodd" d="M15.344 31.532c.224-1.075 1.165-1.971 2.375-2.33 1.254-.358 3.987-.403 5.018-.313 1.658.179 1.792 2.33 1.926 3.494.135 1.12-.806 3.092-1.971 3.36-.94.225-2.823.135-3.808-.044-1.03-.18-1.613-.582-2.196-.986-.94-.627-1.568-2.105-1.344-3.18z" stroke="#2158F5" stroke-miterlimit="22.926"/><path d="M19.108 36.73c1.299.09 3.002.358 3.898.268 1.792-.179 3.718-3.226 3.315-4.883m129.711 4.57l43.282.403c1.075-1.03 2.195-2.016 3.27-3.047l16.041-1.075M122.294 22.93c.089.268.179.492.269.761 1.209.538 2.419 1.076 3.674 1.613.672.09 1.344.18 2.016.314.358-.134.762-.314 1.12-.448 3.002-.403 6.004-.852 9.006-1.255l19.848-.806h24.867c3.181.179 6.318.358 9.499.493 3.136.224 7.124.448 9.454.672 2.33.224 3.181.313 4.615.761 1.792.583 3.45 1.613 4.883 2.868M166.158 6.262c-7.258-.672-13.89-1.3-21.731-1.747-7.796-.493-16.757-.852-25.09-1.12-6.542.044-15.368.044-19.58.179-4.212.134-4.212.313-5.556.672-1.523.403-3.27 1.702-2.51 3.45.987 2.33 7.483 6.676 9.679 7.975 2.554 1.524 5.332 2.599 7.975 3.853 2.33.807 4.66 1.613 7.035 2.375 1.971.358 3.987.672 5.959.986.403-.269.851-.538 1.254-.852 1.255-.179 2.509-.358 3.764-.492 12.456-.18 24.911-.359 37.367-.493 6.9.134 13.845.224 20.745.358 3.45.18 6.9.359 10.35.493l5.018.403M29.995 85.388c-4.032-1.076-8.11-2.15-12.142-3.226-.134-1.165-.224-2.375-.358-3.54.403-.313.761-.627 1.165-.94M5.577 56.668c.134-1.12.268-2.285.358-3.405.403-.717.851-1.434 1.255-2.196.627-.358 1.299-.672 1.926-1.03l1.748.672c.403.627.85 1.21 1.254 1.837.627 1.434 1.21 2.912 1.837 4.39.493 2.286 1.03 4.526 1.524 6.811.85 3.943 1.702 7.886 2.509 11.829.224.716.448 1.389.672 2.105 4.973.717 9.901 1.39 14.875 2.106 7.214 1.076 14.472 2.196 21.686 3.271.85.045 1.702.134 2.509.18.492-.314.94-.628 1.433-.942l.27-3.091c.044-3.226-.09-6.721.089-9.678.18-2.957.448-5.556 1.03-7.975.538-2.42 1.479-4.57 2.285-6.542.807-1.971 1.524-3.54 2.42-5.197.896-1.703 2.06-3.406 2.957-4.884.896-1.479 1.568-2.644 2.375-3.943.403-.94.761-1.927 1.165-2.867.85-1.658 1.747-3.72 2.509-4.974 1.254-1.971 3.494-3.091 4.435-4.525.941-1.434 1.03-3.181 1.165-4.794" stroke="#2158F5" stroke-miterlimit="22.926"/><path d="M2.978 60.521c.537-.896 1.03-1.747 1.568-2.643.717-.807 1.389-1.613 2.106-2.42.851-.538 1.658-1.075 2.509-1.613.986-.403 2.016-.851 3.002-1.254M223.24 69.168c-1.345-.85-2.689-1.702-4.033-2.509-2.419-.044-4.794-.134-7.213-.179-23.478.627-46.956 1.21-70.389 1.837a846.888 846.888 0 01-9.589 3.853" stroke="#2158F5" stroke-miterlimit="22.926"/><path clip-rule="evenodd" d="M224.673 76.65v1.345c-1.433 0-3.315.18-4.256 0-1.21-.269-1.12-1.12-1.075-1.971.537-.135 1.075-.224 1.613-.359l3.45.135c.134.268.224.537.268.85zm-97.361 5.467c-2.196.134-7.034 0-10.574 0 .717-.806 1.21-1.882 2.195-2.42.986-.537 1.165-.447 3.45-.582 2.241-.134 6.721-.18 10.082-.269-1.882 1.658-2.554 3.092-5.153 3.271z" stroke="#2158F5" stroke-miterlimit="22.926"/><path d="M148.729 43.764c3.226 2.867 7.213 6.765 9.678 8.602 2.464 1.837 3.27 1.569 4.883 2.375h30.244c2.24-1.075 4.615-1.254 6.721-3.181 2.105-1.927 3.629-5.332 5.466-8.02M180.72 87.852c.358-.806.716-1.568 1.075-2.374 6.452-.404 15.547-1.076 19.311-1.165 3.45-.09 3.943.761 7.079 2.105m-64.34 2.689l2.688-2.689 26.211-.672c.448.359.896.672 1.344.986-.134.582-.224 1.12-.313 1.703M132.061 87c-2.106.09-6.9 0-9.006.09-1.344.045-2.822.18-4.211.224" stroke="#2158F5" stroke-miterlimit="22.926"/><path clip-rule="evenodd" d="M120.322 91.75c-.627-2.15.807-4.346 3.092-4.525.672-.045 1.837.314 2.24 1.478.269.852.493 1.927-.358 3.316-.493.806-1.703 1.389-3.002 1.344-.762-.045-1.748-.851-1.972-1.613z" stroke="#2158F5" stroke-miterlimit="22.926"/><path d="M145.413 82.879c-7.124.269-14.248.537-21.327.806-1.075.493-2.151.941-3.181 1.434-1.165 1.255-2.285 2.51-3.45 3.764-.179.582-.403 1.165-.583 1.747.448.896.852 1.792 1.3 2.688m92.746-12.858a713.68 713.68 0 009.902-.18c.135.851.224 1.748.359 2.599l-.135 3.54" stroke="#2158F5" stroke-miterlimit="22.926"/><path d="M137.527 91.078c2.375-2.509 4.75-5.063 7.124-7.572 1.434-1.165 2.913-2.375 4.391-3.54 2.061-.582 4.167-1.12 6.228-1.702 16.802-.403 33.604-.762 50.406-1.165 1.389.448 2.823.896 4.212 1.344.717 1.344 1.433 2.688 2.195 4.032.269 1.614.538 3.271.807 4.884m-45.522 3.405c11.694-.85 23.433-1.747 35.127-2.598m-89.476-42.744c-1.658 2.823-3.36 5.69-5.018 8.513-1.21 3.046-2.464 6.048-3.674 9.095m94.987-25.897l6.407 6.407c1.882.18 3.808.358 5.735.493l7.303.403c1.075.358 2.106.717 3.181 1.03" stroke="#2158F5" stroke-miterlimit="22.926"/><path clip-rule="evenodd" d="M148.729 43.764l7.303-7.035c-3.495-2.195-4.57-3.494-8.916-3.942-3.181-.359-9.409-.448-14.114-.672l-23.522-.404c-3.943.27-9.23.359-11.784.762-2.42.358-7.393 3.63-4.122 5.69 1.657 1.03 5.69 2.733 8.557 4.122l6.721 3.36c13.307-.671 26.614-1.254 39.877-1.881z" stroke="#2158F5" stroke-miterlimit="22.926"/><path d="M112.078 20.017c-.089 1.613-.313 3.809-.269 4.884.135 1.792 1.524 1.971 3.092 2.375 1.389.358 4.525.806 5.959 1.165 1.613.403 3.808 1.299 4.884 2.598.851 1.03 2.016 3.047 3.002 4.526 2.643 4.256 5.332 8.513 7.975 12.77.762 1.209 1.434 2.508 2.285 3.628.851 1.076 1.658 2.017 2.778 2.957 1.479 1.21 4.705 3.63 6.631 3.854 1.703.224 4.973.134 7.483.179 16.174-.403 32.304-.762 48.479-1.165 1.165-.269 2.419-.314 3.45-.762 3.002-1.389 3.808-4.346 4.794-7.303.806-2.42 1.702-6.093 2.509-9.14l1.613-4.974c.045-1.254.045-1.165.134-2.419M63.106 92.109c-.94-3.764-1.523-7.752-1.882-10.888-.537-4.615-.403-11.067.404-15.637.448-2.375 1.21-4.66 1.926-6.407.717-1.748 1.703-2.957 2.42-3.943 1.254-1.658 2.912-3.047 5.108-3.047 1.12 0 2.105.27 3.18 1.03 1.12.763 2.196 1.928 3.182 3.361.986 1.434 1.703 2.688 2.778 5.287 1.075 2.644 2.599 6.945 3.54 10.44.895 3.45 1.478 7.213 1.926 10.35.448 3.091.582 5.556.851 8.334.135.672.224 1.344.359 2.016l1.344 1.075c3.181-.134 6.362-.269 9.543-.358" stroke="#2158F5" stroke-miterlimit="22.926"/><path clip-rule="evenodd" d="M1.365 66.166c.313-1.881 1.075-3.763 1.613-5.645.134-1.747.224-3.54.358-5.287.583-1.434 1.12-2.867 1.703-4.301.493-1.479.762-2.957 1.523-4.391 1.076-2.016 3.674-5.242 5.646-6.452 1.03-.627 2.195-.851 3.27-1.255.852-.403 1.748-.85 2.6-1.254.358-.269.716-.538 1.075-.851-3.002-.538-5.556-.583-5.646-4.391-.045-1.882 2.51-4.302 4.033-4.436 1.433-.134 5.735-.403 7.123-.269 1.524.18 1.39 3.136 1.658 4.436 1.076-1.344 2.196-2.689 3.271-4.033 2.24-2.509 4.705-5.376 6.72-7.482 2.017-2.106 3.585-3.54 5.288-5.108 1.702-1.568 3.45-3.091 4.973-4.301a43.11 43.11 0 014.033-2.957c1.254-.807 2.15-1.255 3.54-1.837 1.343-.583 3.09-1.12 4.614-1.703 2.196-.627 3.988-1.389 6.542-1.926 2.554-.538 5.6-1.076 8.737-1.345 3.136-.268 5.197-.268 10.08-.358 4.885-.045 12.815 0 19.222 0 6.99.134 13.935.224 20.924.358 10.216.762 20.387 1.524 30.602 2.285 2.285.359 4.615.672 6.9.986 1.837.627 3.674 1.3 5.556 1.927 5.421 2.733 10.888 5.421 16.309 8.154 3.764 1.972 7.572 3.943 11.336 5.87.627.269 1.209.493 1.837.761 1.209.27 2.419.583 3.629.852 4.704.493 6.721.582 11.246 1.926.09.27.179.583.269.852-.135.94-.269 1.837-.404 2.777.897.628 1.793 1.21 2.689 1.838l4.435 3.36c.717.806 1.658 1.389 2.196 2.42.538 1.03.672 1.926.851 3.629.179 1.657.179 4.256.269 6.407.09 1.523.179 3.091.269 4.615.806 1.747 1.792 3.987 2.375 5.287 1.075 2.464 1.209 3.629 1.165 4.346-.09 2.778-.493 9.812-.762 14.696.134 1.21.224 2.464.358 3.674.179.493.404.985.583 1.523l.269 2.688c-.18 1.21-.404 2.42-.583 3.63-4.212.493-8.468.94-12.68 1.433-3.45.27-6.9.493-10.35.762-.582 1.434-.985 3.002-1.702 4.302-2.285 4.211-5.646 7.079-10.261 8.333-2.106.583-9.633.941-11.694.672-2.509-.313-5.197-2.464-6.989-4.211-1.793-1.793-3.182-4.302-4.526-6.452l-17.384.269c-1.031.358-2.016.672-3.047 1.03-1.837.045-3.719.134-5.556.18-.268-.36-.493-.718-.761-1.076h-3.092c-.762.493-1.523.986-2.285 1.523-1.12.27-2.24.493-3.36.762-3.943.09-7.841.18-11.784.269-1.971-.269-3.988-.583-5.959-.852l-16.399.941c-1.568 5.019-2.599 9.185-7.213 12.367-1.255.851-2.33 1.299-3.764 1.613-1.434.313-2.554.224-4.705.268-2.15 0-6.496.045-8.333-.179-2.33-.269-4.167-2.554-5.466-4.391-.986-1.344-1.882-2.912-2.779-4.794-.85-1.882-1.792-3.808-2.419-6.452-3.674-.582-7.393-1.165-11.067-1.747-7.348-1.658-14.696-3.316-22-4.973-1.612 1.792-5.062 4.48-7.571 4.749-2.733.269-6.049.358-9.096-.045-3.54-.448-5.466-2.15-7.661-4.794C1.544 80.28.29 72.439 1.365 66.166z" stroke="#2158F5" stroke-miterlimit="22.926"/><path clip-rule="evenodd" d="M128.656 91.481c-.627-2.15.807-4.346 3.092-4.525.672-.045 1.837.314 2.24 1.479.269.85.493 1.926-.359 3.315-.492.807-1.702 1.39-3.001 1.344-.762-.044-1.748-.85-1.972-1.613z" stroke="#2158F5" stroke-miterlimit="22.926"/></svg>