<svg width="221" height="118" fill="none" xmlns="http://www.w3.org/2000/svg"><path d="M123.266 63.608c4.589-5.376 10.515-12.377 13.813-16.172 3.297-3.794 4.411-5.15 6.015-6.685 4.233-4.11 8.51-4.653 13.991-4.698 6.238-.045 25.308 0 30.834.407 4.277.316 8.822 7.317 3.074 7.633l-15.551.136-3.297-.587c-8.599.226-19.293.27-24.061.632-2.941.226-6.906 2.485-9.134 5.014l-13.189 15.223L125 70m50.353-33.676l2.718 7.86" stroke="#2158F5" stroke-miterlimit="22.926"/><path d="M191.216 37.905c0-2.484.356-3.84-1.872-5.827-.668-.587-4.411-2.71-5.391-2.936-.668-.136-1.426-.09-2.718-.226-2.183-.226-5.748-.361-7.753-.994-1.159-.361-2.05-1.174-2.941-1.987l-25.309-1.446-12.386-.045m-30.032 0l-14.838.045c-3.52.045-7.04.136-10.605.18-2.45-.632-4.99-1.354-7.53-1.49-5.881-.361-9.446.994-13.946 3.343l-3.699.135-2.138-.406-2.585-1.49-2.807-3.208L32.012 1.09" stroke="#2158F5" stroke-miterlimit="22.926"/><path d="M170.497 25.935l2.584-.452 2.941-1.355 4.099-3.298 5.124-5.33 4.857-5.556L197.365 1m-13.457 28.142l.713-1.536 3.832-3.614 8.511-6.911L216.034 1M41.325 31.4l-.179-1.852-1.693-2.123L13.788 1m131.043 115.955c-1.47-3.614-4.945-13.777-7.351-16.397-1.293-1.4-2.718-2.801-5.169-3.93-2.451-1.13-6.149-2.033-9.313-2.846-3.163-.813-7.173-1.762-9.669-2.033-3.475-.406-4.901.362-7.664 2.169l-1.158-1.807-2.139-14.546-.579-5.736-.713 5.827.579 10.254 1.426 14.319.802 14.726m-80.738 0c3.12-4.201 7.263-9.893 9.402-12.603 3.564-4.517 5.881-6.053 11.407-6.911h1.514c1.56-.362 2.63-.768 4.723-1.084a73.324 73.324 0 017.664-.813c3.298-.226 7.62-.407 11.986-.497 4.412-.045 10.293-.09 14.348.135 4.055.18 7.664.678 9.892 1.084 2.227.407 2.361.497 3.297 1.31 2.183 1.852 3.342 6.189 3.654 9.08l.935 10.344m-12.609-.045l4.723-20.734" stroke="#2158F5" stroke-miterlimit="22.926"/><path d="M42.216 116.955c-.045-3.072-.179-6.686-.134-9.17.09-2.484.134-3.975.58-5.737.445-1.761 1.38-3.117 2.049-4.652m9.847 19.559c3.164-3.659 6.951-8.763 12.12-9.622 1.114-.18 2.094.181 2.94.497 3.342 1.175 6.239 6.279 8.02 9.17" stroke="#2158F5" stroke-miterlimit="22.926"/><path d="M69.841 95.047c-.445 1.039-.935 1.942-1.292 3.117-.847 2.665-.936 4.472-1.292 7.137-.134.903-.223 1.4-.312 2.078m69.02-8.131c1.515-2.937 1.024-3.524 4.589-4.472 2.362-.633 6.906-1.626 11.05-2.168 4.144-.497 9.135-.904 13.902-.95 4.768-.044 10.783.362 14.571.588 3.787.226 5.436.271 8.109.813 2.673.542 5.614 1.4 7.887 2.485 2.272 1.129 3.386 2.123 5.658 4.065 2.273 1.942 5.347 4.743 7.887 7.634 2.54 2.891 4.768 6.414 7.174 9.621" stroke="#2158F5" stroke-miterlimit="22.926"/><path d="M188.231 116.955c-.446-.813-.09-1.084-1.337-2.439-3.119-3.388-13.902-11.88-19.026-11.022-5.08.858-8.466 7.137-10.605 11.202-.757 1.491-.49 1.491-.713 2.259m5.793-25.025c2.807 3.252 5.213 7.137 5.525 11.609m-27.314-8.763l3.164 6.685 7.307 15.494m35.78-23.986c5.881 9.531 6.862 12.738 8.065 23.986M55.895 26.522C47.25 32.8 42.839 40.389 43.953 51.637c1.203 12.287 9.981 20.508 21.878 21.908 15.729 1.852 28.65-10.434 27.492-26.29-.757-10.253-4.678-16.894-13.99-21.682-.847-.451-1.338-.587-2.006-.858" stroke="#2158F5" stroke-miterlimit="22.926"/><path clip-rule="evenodd" d="M64.102 61.546c-4.177-1.118-5.761-4.206-7.201-7.787-.768-1.835-1.153-4.43-.72-6.4.288-1.387 1.632-4.698 2.736-5.683 2.209-2.014 16.611-2.238 18.772-.537.576.447 1.104 1.119 1.536 1.97.96 1.923.912 5.056.48 7.115-.768 3.67-3.216 10.159-7.201 11.412-1.729.582-6.626.403-8.402-.09z" stroke="#2158F5" stroke-miterlimit="22.926"/><path d="M67.747 51.32c2.732 0 4.946-1.435 4.946-3.206s-2.214-3.207-4.946-3.207c-2.731 0-4.946 1.436-4.946 3.207s2.215 3.207 4.946 3.207zm11.704-7.633c1.604.045 3.61-.136 4.768.135 2.45.497 2.718 2.756 3.342 5.014.49 1.672-.312 1.491-1.515 1.581-1.337.136-4.189.362-6.461.588M78.5 54l7.738-1.324 1.293-2.168m-30.968 1.039c-2.584 0-6.327.09-7.797.045-1.025-.045-1.649-.271-1.07-1.626.357-.813 1.604-2.62 2.184-3.343 1.113-1.445 1.782-1.22 3.43-1.626L57.5 44" stroke="#2158F5" stroke-miterlimit="22.926"/><path d="M49.434 51.592l1.248 1.807 1.203.542 5.257.497M1.045 96.718l15.06-9.396 8.377-5.33 11.897-7.86c1.782-1.174 3.92-2.574 5.391-3.568 1.337-.904 4.545-3.523 5.66-1.897.623.903.846 8.04.801 9.305-.044 1.852-.223 4.156-1.648 5.556-3.12 3.117-4.724 4.472-7.53 7.182l-6.105 2.62-5.392-3.568" stroke="#2158F5" stroke-miterlimit="22.926"/><path d="M1.045 111.805c11.05-9.17 32.393-26.922 33.195-27.554.847-.678 3.253-.407 4.144.135 2.094 1.31 1.738 3.388 2.005 5.466M1.045 88.813l16.709-9.892 7.753-4.879c2.495-1.22 5.035-2.8 7.53-3.704 2.718-.994 7.575-3.117 9.446-.271m9.714-43.455l-1.159 2.123c-1.247.271-2.361.497-3.743.813-1.426.317-3.475.678-4.723 1.084-4.055 1.31-6.55 4.97-6.55 9.26" stroke="#2158F5" stroke-miterlimit="22.926"/><path d="M1.045 49.83l31.903-14.997h1.649l2.406.542m-5.838.271l.491-16.216m-4.189 17.933l-2.406-2.665-5.391.587-2.808 4.788.803 1.852m7.396-7.227c.223-.994.802-2.033.713-2.982-.267-2.53-4.144-4.652-6.015-6.098l-3.654-2.032h-4.723l-10.337.497m15.818 15.99L1.045 41.338m45.225-3.704c-2.361.226-5.48.452-7.129.632-4.188.542-7.664 7.86-3.654 8.357l8.556.18" stroke="#2158F5" stroke-miterlimit="22.926"/><path d="M34.15 45.99c-.49 1.717-.89 3.117-.133 4.88 1.337 3.026 6.372 2.755 10.426 2.845" stroke="#2158F5" stroke-miterlimit="22.926"/><path d="M37.18 53.263c-.044 1.807-.133 4.11-.088 5.376.133 2.845 1.158 3.523 3.609 5.194 1.47 1.04 4.41 2.485 5.748 3.207 1.336.723 1.56.814 2.361 1.175m6.105 1.762l2.628 19.107" stroke="#2158F5" stroke-miterlimit="22.926"/><path clip-rule="evenodd" d="M65.742 75.713l.535 1.672 1.871 11.925-.58 1.22-6.237-.588-.357-14.093 3.298-.136h1.47z" stroke="#2158F5" stroke-miterlimit="22.926"/><path d="M78.53 72.055l-.045 4.517 1.426 1.445h5.882l1.871-2.755.134-3.66m6.594.453L91.541 87.05l4.723.136 1.738-15.132m-18.536-.587l22.368.362M125.5 69.5l44.774-3.318c2.718-.406 5.391-.27 8.109-1.174 2.451-.813 10.249-4.833 11.764-7.047 1.514-2.213.623-4.607.133-6.866M136 98.5l-2.263-5.938-1.961-5.556-6.594-17.255M90 35l12.903.33m29.943.407l26.467.361M51.26 53.67c-.445.361-1.024.677-1.291 1.13-.58.948-.09 2.438.4 3.342 2.05 3.523 5.927 7.589 9.58 9.44 1.159.588 1.916-.135 2.986-.632L66.5 62h4l4.5 5m-.48-.592c.624.587 1.381 1.581 2.361 1.355 4.144-.948 8.823-7.543 10.872-11.338.758-1.4.09-2.168-1.515-3.749m-35.155-7.092l-2.718-1.987c2.807-11.338 12.52-18.295 24.06-16.533 9.18 1.445 14.437 7.77 15.952 15.765l-2.629 1.4" stroke="#2158F5" stroke-miterlimit="22.926"/><path clip-rule="evenodd" d="M132.801 21.372l.045 17.617-29.943-.27-.089-17.618 29.987.271z" stroke="#2158F5" stroke-miterlimit="22.926"/><path d="M13.61 62.704l.668-1.807 1.47-5.465 1.917-2.53 17.11-11.428" stroke="#2158F5" stroke-miterlimit="22.926"/><path d="M1.045 69.48l18.892-10.3.357-1.897 5.792-3.297 1.827-7.905m86.798 23.941L125.5 70m-2-6.5l-21.31 1.192-.267 5.6L115 70m74.3-37.922l3.431-.136L220 43.822m-26.824-3.839l23.839 11.519L220 54.934m-41.037 9.758L220 83.98m0 10.75c-7.798-4.607-18.937-11.338-23.437-13.777-5.08-2.755-6.461 1.581-9.313 5.827l7.887 2.394c2.361-1.626 4.768-3.297 7.129-4.923m-15.016 2.575L177 81l.002-4.338-.089-11.428m6.505 1.49c.713-.27 1.025-.722 2.095-.858 2.762-.361 6.46.316 9.223.678l25.219 11.112" stroke="#2158F5" stroke-miterlimit="22.926"/><path d="M187.25 86.826c4.456 2.8 10.516 6.91 13.323 8.356 4.099 2.123 8.154-2.89 11.095-5.466m-47.543-23.308c-1.515 4.201-2.228 7.544-1.604 12.151.891 6.415 2.451 8.809 6.461 13.28m8.02-15.177c.134 11.519-1.203 7.68 7.129 16.036M42.038 97.712l4.9-6.64 1.917-4.879 1.47-8.944.223-7.95-1.782-1.039m1.782 1.04l2.985-.272m4.01 20.056l-.178 3.569-1.648 3.071m137.905-75.933l-.089 12.513m4.5 1.987l1.693-2.168c-1.024-1.626-1.024-2.936.401-4.472 2.451-2.62 4.501-3.794 7.486-5.466l2.807-1.129 9.535.723m-12.431 16.623l.624-.813L220 38.13" stroke="#2158F5" stroke-miterlimit="22.926"/><path d="M199.726 32.078l4.144.768.98.903 3.298 3.84m-9.179 5.194c1.069 2.26 1.916 4.563 2.852 6.053 1.515 2.485 5.213 3.66 7.797 4.518v1.897L220 60.4m-6.149-3.026l.58-7.137" stroke="#2158F5" stroke-miterlimit="22.926"/><path clip-rule="evenodd" d="M104.329 50.327l25.709.361.758-.542 4.5-6.595-.089-.542-.312-.316-32.705-.542-.49.316-.178.497 1.916 6.595.891.768z" stroke="#2158F5" stroke-miterlimit="22.926"/><path d="M220 1.136H1.045V116.91H220V1.136z" stroke="#2158F5" stroke-miterlimit="22.926"/></svg>