<svg width="173" height="121" fill="none" xmlns="http://www.w3.org/2000/svg"><path d="M101.806 61.392l22.133 20.371c.641.59 1.677.136 1.677-.735V39.923c0-.875-1.045-1.328-1.683-.73L101.8 59.927a1 1 0 00.006 1.466z" stroke="#2158F5"/><rect x=".5" y="-.5" width="47.703" height="45.695" rx="3.5" transform="matrix(1 0 0 -1 52.31 83.31)" stroke="#2158F5"/><path stroke="#2158F5" d="M.5 2.5h172v115H.5z"/><path fill="#2158F5" d="M0 16h173v1H0zm0 87h173v1H0zM0 2h1v14H0zm70 0h1v14h-1zM35 2h1v14h-1zm70 0h1v14h-1zm35 0h1v14h-1z"/><path fill="#2158F5" d="M69 103h1v14h-1zm-35 0h1v14h-1zm70 0h1v14h-1zm35 0h1v14h-1z"/></svg>