<svg width="218" height="105" fill="none" xmlns="http://www.w3.org/2000/svg"><path d="M143.091 26.505c-4.884-4.207-16.712-6.624-23.657-.94" stroke="#2158F5" stroke-miterlimit="22.926"/><path d="M73.598 93.505c-.179-1.924-.403-3.804-.582-5.728.672-10.563-.762-17.276-3.585-27.436-1.702-6.132-4.525-14.367-9.095-14.278-4.525.09-6.004 4.834-6.81 7.385-.807 2.551-1.03 3.984-1.524 5.953m146.827-16.694c-1.569.268-6.676 1.298-9.768 1.7-3.047.403-7.079.85-10.574 1.075-3.495.223-6.407.358-10.484.313-4.122 0-8.827-.18-14.114-.403a640.442 640.442 0 01-17.564-.985 1110.572 1110.572 0 01-20.834-1.7c-4.256-.358-4.48-.672-6.049-.85m13.98 8.995c6.272 1.388 13.083 2.775 19.355 4.163 3.271.895 7.393 1.79 9.813 2.685 2.419.895 3.36 1.97 4.615 2.775 2.15 1.343 2.464 2.462 4.973 2.506 2.285.045 9.185.135 11.604-.179 2.689-.313 3.002-2.909 5.198-4.52 1.299-.985 3.36-1.924 5.063-2.864a3057.89 3057.89 0 0111.649-4.834" stroke="#2158F5" stroke-miterlimit="22.926" stroke-linecap="round" stroke-linejoin="round"/><path clip-rule="evenodd" d="M125.079 54.925c.717.045 1.434.045 2.151.09.09-.269.134-.492.224-.761l-.807-1.209-14.651-10.07c-.851-.358-1.658-.716-2.509-1.03-6.945-.67-13.934-1.297-20.88-1.968-1.657-.403-3.27-.806-4.928-1.164-2.643-.313-6.317-.806-7.93-.895-2.106-.09-2.778 1.208-1.927 3.043.448.985 1.569 2.82 2.375 4.252.403.313.851.627 1.254.94 5.915 1.343 11.829 2.64 17.743 3.983 9.902 1.567 19.894 3.178 29.885 4.79zm73.391-11.592c.134-.224.269-.402.359-.626.672-.269 1.388-.537 2.061-.85.537-.314 1.075-.627 1.613-.985 1.344-.135 2.24.044 2.867 1.163.314.627.807 1.835 1.031 2.82.268.985.448 2.327.403 3.044-.045 1.342-2.733 2.864-3.764 3.446-1.658.895-4.436 1.88-6.721 2.909l-1.613.671c0-1.074-.044-2.148-.044-3.177 1.568-1.835 2.643-2.775 3.36-5.282.358-1.03.314-2.103.448-3.133z" stroke="#2158F5" stroke-miterlimit="22.926" stroke-linecap="round" stroke-linejoin="round"/><path d="M86.099 39.35c-.583-1.074-1.075-2.327-1.748-3.223-.627-.895-1.12-1.477-2.105-2.103-.986-.627-1.792-1.074-3.674-1.656-1.882-.627-5.556-1.477-7.572-2.014-2.017-.537-3.406-.671-4.526-1.164-1.12-.537-1.299-1.208-1.926-1.835-.27-.537-.493-1.074-.762-1.611 4.75-.18 9.454-.403 14.203-.582 6.99 0 13.755-.09 21.014 0 7.258.09 13.621.18 22.582.492 8.961.314 23.164.896 31.274 1.343 8.109.448 13.307.985 17.384 1.343s4.794.313 7.079.76c2.24.448 4.749 1.164 6.362 1.836 1.613.716 2.33 1.745 3.271 2.282.941.537.986.537 2.375.94 1.344.358 4.122.716 5.78 1.343 1.702.627 3.136 1.477 4.301 2.282 1.165.761 1.658 1.567 2.509 2.373.179.313.359.581.538.895m4.346 6.847c1.747 1.79 3.495 3.626 5.242 5.416.358.627.717 1.209 1.075 1.835a947.72 947.72 0 012.509 11.01l-.268 5.371c-.493 3.312-.986 6.669-1.524 9.98.493.896 1.031 1.836 1.524 2.73-.583.046-1.21.09-1.793.09a223.5 223.5 0 01-5.197.493c-.851-.18-1.658-.358-2.509-.493-.627-.85-1.299-1.656-1.927-2.506-1.971-5.102-3.987-10.25-5.959-15.352a663.327 663.327 0 00-2.957-5.684c-.09-1.969-.224-3.938-.314-5.863" stroke="#2158F5" stroke-miterlimit="22.926" stroke-linecap="round" stroke-linejoin="round"/><path clip-rule="evenodd" d="M215.406 71.53l.269-5.37c-.582-.672-1.12-1.343-1.702-2.015-.986-.537-1.613-1.074-2.913-1.611-1.254-.537-2.912-1.164-4.659-1.567-1.748-.402-3.854-.537-5.735-.805-.583 0-1.165.045-1.703.045a7.07 7.07 0 01-.314.895c.314.358.628.716.941 1.03.627.805.762.312 1.927 2.46 1.165 2.149 3.898 8.191 5.063 10.429 1.165 2.193 1.254 2.148 1.882 2.864.627.716 1.254 1.075 1.926 1.433.672.313 1.524.358 1.972.537.448.179.403.402.582.582l.941 1.074a650.718 650.718 0 001.523-9.981z" stroke="#2158F5" stroke-miterlimit="22.926" stroke-linecap="round" stroke-linejoin="round"/><path d="M76.152 45.213c-2.06 1.298-4.167 2.596-6.228 3.894-1.165.985-2.33 1.97-3.45 2.954m60.129.984c2.061 1.746 4.167 3.491 6.228 5.282.985.984 1.971 1.924 2.957 2.909.179.448.358.895.493 1.343l-.941 2.014-1.882 2.685c-3.719 5.55-7.483 11.1-11.201 16.605a264.72 264.72 0 00-3.361 3.715c-.717.402-1.434.805-2.195 1.163h-9.813c-6.855.045-13.665.045-20.52.09.358-1.074.269-2.372 1.075-3.267.851-.94 1.837-1.477 3.54-1.835 1.702-.358 3.898-.045 6.452-.269 2.598-.224 6.496-.582 9.005-1.074 2.509-.493 4.122-1.03 5.87-1.925 1.792-.895 3.091-2.282 4.615-3.446 2.419-2.417 4.839-4.879 7.213-7.295l5.959-6.221c.628-.09 1.21-.18 1.837-.269.493-.582.941-1.119 1.434-1.7l-.761-.762c-6.228.403-13.576.717-18.729 1.254-5.153.537-8.961 1.297-12.187 1.924-3.226.627-5.556 1.298-7.214 1.835-1.657.537-1.837.582-2.778 1.343-.94.76-1.837 1.656-2.688 3.088-.851 1.432-1.433 2.685-2.42 5.37-1.03 2.686-2.777 7.744-3.628 10.742-.852 3-.986 4.879-1.524 7.296l-7.93-.135" stroke="#2158F5" stroke-miterlimit="22.926" stroke-linecap="round" stroke-linejoin="round"/><path clip-rule="evenodd" d="M179.338 62.176c3.63-.18 7.304-.358 10.933-.582.582-.806 1.209-1.566 1.792-2.372.314-.895.627-1.746.986-2.64.134-.717.313-1.433.448-2.149-.135-.224-.224-.492-.359-.716h-1.075l-9.812 4.565c-.538.358-1.031.76-1.569 1.119-.492.716-1.03 1.432-1.523 2.148.09.224.134.403.179.627zm-28.765.805c2.017 0 3.988.045 6.004.045.045-.313.135-.626.179-.94-1.389-.76-2.777-1.566-4.166-2.327-2.509-.76-5.063-1.477-7.572-2.238-5.063-1.163-10.126-2.372-15.189-3.536 2.957 2.06 5.914 4.163 8.826 6.221.762.538 1.568 1.12 2.33 1.656.672.27 1.389.582 2.061.85l7.527.27zm39.832 19.559c3.45-.224 6.945-.403 10.395-.627.179-.223.403-.402.582-.626-.358-1.164-.716-2.372-1.075-3.536-.941-2.372-2.106-5.415-2.823-7.071-.717-1.656-.896-2.104-1.433-2.865-1.524-2.059-3.271-2.014-5.959-1.97-5.153.046-18.953.627-26.615.806-7.706.18-13.889.045-17.518.135-3.63.044-3.182 0-4.347.268-1.209.269-1.881.627-2.733 1.254-.851.626-.493-.09-2.285 2.461-1.747 2.551-5.511 8.549-8.289 12.8.269.403.493.85.762 1.254l5.645-.403a5478.42 5478.42 0 0027.108-.985c9.498-.313 19.042-.626 28.585-.895z" stroke="#2158F5" stroke-miterlimit="22.926" stroke-linecap="round" stroke-linejoin="round"/><path d="M129.067 84.778c-2.151.85-4.301 1.7-6.452 2.506-.851.314-1.703.627-2.509.985-1.12.134-2.24.313-3.36.447m84.054-6.803c.582.18 1.165.403 1.747.582.583.358 1.21.716 1.793 1.03.492.268 1.03.582 1.523.85m9.588-.089c.359.223.717.447 1.031.67.089.27.179.538.313.851-.179.314-.313.582-.493.895l-1.613.806c-.134.313-.224.582-.358.895h-4.615M84.62 94.266c.583-1.79 1.165-3.625 1.793-5.415m-1.793 5.415c-.94 0-1.882-.044-2.822-.044l-.27-.537" stroke="#2158F5" stroke-miterlimit="22.926" stroke-linecap="round" stroke-linejoin="round"/><path d="M76.645 93.595c.09.403.18.85.269 1.253.851 0 1.747.045 2.599.045l.268.94c.538.134 1.076.313 1.658.447l19.222-.671c.358-.358.716-.671 1.03-.985l39.429-1.342c13.351-.627 26.659-1.298 40.01-1.925.269.134.493.313.762.448 5.914-.224 11.784-.493 17.698-.716.359-.18.717-.403 1.075-.582 2.823-.135 5.691-.269 8.513-.358.314-.582.628-1.209.986-1.79" stroke="#2158F5" stroke-miterlimit="22.926" stroke-linecap="round" stroke-linejoin="round"/><path d="M195.334 91.223c-.852.76-1.658 1.477-2.509 2.238-.672.403-1.3.85-1.972 1.253l-2.823 1.477c-1.075.313-2.195.626-3.27.984-1.434.224-2.913.403-4.346.627-1.793.045-3.54.134-5.332.18-1.524-.18-3.047-.359-4.526-.538-1.344-.537-2.643-1.074-3.987-1.611-1.12-.716-2.285-1.432-3.405-2.193-.538-.448-1.031-.94-1.569-1.388m-2.15-64.762c-2.599-2.015-5.422-4.297-7.751-5.998-2.286-1.745-3.764-2.73-6.094-4.341-2.33-1.567-5.556-3.67-7.975-5.103-2.42-1.476-4.75-2.73-6.542-3.67-1.837-.94-2.733-1.342-4.346-1.924-1.568-.582-3.002-1.209-5.152-1.656-2.151-.448-4.391-.582-7.707-.985-3.36-.403-7.572-.984-12.366-1.387s-9.454-.895-16.399-1.12c-6.9-.223-19.087-.178-25.09-.223-5.96-.045-8.066-.134-10.754-.045-2.688.09-3.63.18-5.242.537-1.613.358-2.823.85-4.391 1.567a42.383 42.383 0 00-4.973 2.685c-1.703 1.074-3.405 2.104-5.198 3.715-3.002 2.596-7.303 7.161-10.215 10.16-.762.805-1.255 1.342-2.778 3.357-1.524 2.014-5.063 7.205-6.407 8.861-1.076 1.298-2.061.627-3.674 1.97-.628.537-1.076 1.208-1.613 1.88-.493.715-1.076 1.432-1.434 2.327a15.323 15.323 0 00-.807 2.954c-.134.85.135 1.163 0 2.058-.134.896-.492 1.433-.761 3.268-.224 1.835-.628 5.236-.717 7.698-.09 2.461-.09 4.52.09 6.982.179 2.462.627 5.953.896 7.788.268 1.835.492 2.148.761 3.222.09.224.18.403.314.627" stroke="#2158F5" stroke-miterlimit="22.926" stroke-linecap="round" stroke-linejoin="round"/><path d="M50.569 87.956L14.41 78.422c-.314-1.656-.627-3.311-.941-5.012-.224-1.253-.403-2.507-.627-3.715-.27-2.64-.538-5.237-.807-7.877-.448-2.148-.851-4.297-1.3-6.445-.492-1.567-.985-3.088-1.478-4.655-.448-.671-.851-1.343-1.3-2.014-.492-.313-.94-.627-1.433-.94-.493.224-.94.448-1.434.672-.492.984-.985 1.969-1.478 2.998-.269 1.701-.538 3.402-.807 5.058-.09 2.327-.224 4.654-.313 6.982.179 3.088.358 6.176.537 9.22" stroke="#2158F5" stroke-miterlimit="22.926" stroke-linecap="round" stroke-linejoin="round"/><path clip-rule="evenodd" d="M49.672 33.755c.135-.447.224-.85.314-1.298-.358-.76-.762-1.521-1.12-2.282-.135-.716-.314-1.432-.448-2.193-6.183-.313-12.366-.627-18.505-.94-.09.134-.134.313-.224.447.359.448.717.94 1.076 1.388 2.33.313 4.615.582 6.944.895 1.434.179 2.868.403 4.302.582.537.627 1.03 1.253 1.568 1.88l.672 2.82c.134.313.269.626.358.94l.807.133c.717-.313 1.434-.581 2.195-.895.672-.447 1.345-.94 2.061-1.477zm-21.327 5.729c.224.09.359.358.717.314.358-.045.941-.269 1.165-.627.224-.358.224-.806.134-1.164-.09-.358-.224-.671-.582-.85-.358-.18-.986-.09-1.389-.134-.403-.045-.762 0-.986-.045-.268-.045-.179-.269-.448-.269-.313 0-.94.045-1.21.314-.313.223-.313.626-.313.984s.134.672.314.985c.134.269.313.537.582.627.269.089.672 0 .94-.045.27-.045.36-.269.583-.313.135-.045.27.134.493.223z" stroke="#2158F5" stroke-miterlimit="22.926" stroke-linecap="round" stroke-linejoin="round"/><path d="M5.315 35.098c.224.09.404.224.628.313l.134.672c-.314.805-.672 1.611-.986 2.372-.493.895-1.03 1.745-1.523 2.64-.314.672-.672 1.298-.986 1.97m63.041 7.475c-1.21-.09-2.42-.493-3.63-.314-3.494.492-6.317 3.67-8.154 6.445-3.898 6.042-4.525 11.01-4.884 18.126-.313 6.938 1.076 12.711 3.854 19.067 1.926 4.386 3.853 6.803 8.244 9.04 1.254.672 1.926.806 3.27 1.03 2.779.358 9.813.224 12.501-.09 4.257-.492 8.558-3.133 11.515-6.131.717-.716.896-1.164 1.344-1.701M22.79 80.616c-.36 1.566-.494 3.088-1.659 4.386-1.165 1.342-2.912 1.745-4.614 1.79-1.793.09-6.273.045-7.886-.134-2.778-.269-3.809-3.402-4.301-5.774-.628-3.088-1.3-7.609-1.434-10.697-.09-2.327 0-5.952.134-8.145.224-3.715.672-5.73 2.33-9.086.538-1.074 1.075-1.835 1.523-2.327.449-.493.717-.448 1.031-.537.358-.09.672 0 .986-.045" stroke="#2158F5" stroke-miterlimit="22.926" stroke-linecap="round" stroke-linejoin="round"/><path clip-rule="evenodd" d="M10.2 64.638c-.135-2.462-.404-6.177-.897-8.549-.18-.806-.672-3.088-1.747-2.775-.448.134-.896.403-1.3 1.164-.403.805-.761 1.7-1.12 3.401-.358 1.701-.806 4.565-.986 6.669-.134 2.103-.044 3.983.045 5.908.135 3.088.448 6.58 1.344 9.488.224.761.807 1.88 1.658 1.97 2.823.268 2.644-6.222 2.823-8.28.269-2.82.314-6.177.18-8.996z" stroke="#2158F5" stroke-miterlimit="22.926" stroke-linecap="round" stroke-linejoin="round"/><path d="M63.786 25.744a90.84 90.84 0 00-3.45.448c-1.12.358-2.285.716-3.405 1.074-1.658.716-3.316 1.387-4.973 2.103-.941.493-1.882.94-2.823 1.433m-6.005.984c-2.24-.134-4.39-.313-6.765-.448-2.374-.134-4.839-.313-7.482-.358-2.644-.089-6.72.045-8.424-.134-1.613-.134-2.822-2.506-2.733-4.073.045-.581.224-1.253.628-2.103.403-.85.716-1.522 1.837-3.044 1.12-1.566 3.629-4.654 4.973-6.266 1.3-1.61 1.837-1.969 2.778-2.998 2.195-2.328 3.808-3.536 6.541-5.237 1.479-.895 4.078-2.014 5.69-2.506 1.927-.582 5.243-.627 7.17-.18 1.926.448 2.688 1.612 3.54 3.358.537 1.118.895 2.237 1.612 4.341.672 2.104 1.837 5.684 2.51 8.235.716 2.551 1.12 4.655 1.702 6.982m106.77.448c-.403-.672-.851-1.343-1.254-2.014-.448-.493-.852-.985-1.3-1.477-.537-.224-1.075-.493-1.657-.716-.762-.135-1.524-.314-2.33-.448h-3.137" stroke="#2158F5" stroke-miterlimit="22.926" stroke-linecap="round" stroke-linejoin="round"/><path d="M48.418 28.026c.717-.805.806-1.566.538-2.506-.449-.805-.807-1.566-1.3-2.372-.493-.76-1.12-1.7-1.658-2.238-1.299-1.343-2.688-1.387-4.525-1.432-1.658 0-5.466.134-6.99.313-1.478.135-1.164.135-1.881.582-.986.537-3.271 2.283-3.764 3.312 0 .582-.045 1.164.09 1.7.09.538.537 1.523.985 1.836m22.089 2.104c.672-4.163.717-5.864 2.644-9.713M28.748 11.6c-3.226 6.446-5.824 12.354-7.437 19.336M40.577 4.574l-2.554 4.968a467.322 467.322 0 01-2.33 5.013l-2.285 5.326m22.224 7.922c-.449 1.566-.852 3.177-1.3 4.744-.851 1.208-1.747 2.417-2.599 3.625-.582 1.03-1.164 2.014-1.747 3.044-.09 1.432-.18 2.909-.269 4.386-.269 3.222-.493 6.49-.761 9.712-.27 3.044-.493 6.087-.762 9.13l.94 10.742m.001 7.788c-10.574-2.373-21.193-4.79-31.767-7.161-.94-.448-1.927-.896-2.868-1.343-.268-1.03-.492-2.059-.761-3.088-.314-.314-.583-.627-.896-.94" stroke="#2158F5" stroke-miterlimit="22.926" stroke-linecap="round" stroke-linejoin="round"/><path d="M25.523 75.155c.358-1.163.85-2.282.985-3.535.18-1.254.314-2.194.045-3.805-.314-1.611-1.3-3.625-1.792-5.773-.493-2.104-1.03-3.805-1.075-6.893-.09-3.088.492-8.817.672-11.413.179-2.596.224-2.82.313-4.207" stroke="#2158F5" stroke-miterlimit="22.926" stroke-linecap="round" stroke-linejoin="round"/><path d="M24.671 39.574c.135-.85.314-1.656.448-2.507.448-.716.852-1.432 1.3-2.193.85-.85 1.702-1.7 2.509-2.55.313-.448.94-.851 1.254-1.343.18-.27.403-1.567.538-2.104" stroke="#2158F5" stroke-miterlimit="22.926" stroke-linecap="round" stroke-linejoin="round"/><path clip-rule="evenodd" d="M12.574 38.142c.134-.09.313-.135.448-.224.269.09.537.224.761.268.225.045.404.18.628-.044.179-.224.358-.806.448-1.12.09-.357.224-.626 0-.85-.224-.223-.762-.179-1.03-.179-.27 0-.314.134-.449.18a3.136 3.136 0 00-.448-.359c-.269.045-.493 0-.761.18-.27.178-.538.581-.673.85-.09.268.045.537.135.716.09.223.134.358.314.492.179.045.403 0 .627.09z" stroke="#2158F5" stroke-miterlimit="22.926" stroke-linecap="round" stroke-linejoin="round"/><path d="M17.771 26.773c-.986 1.522-2.285 3.491-3.002 4.52-.94 1.343-2.285 2.104-3.002 3.134-.448.626-.761 1.387-.985 2.059-.225.67-.09.984-.314 1.835-.18.85-.672 2.148-.896 3.312-.224 1.163-.448 2.685-.493 3.67-.09 2.148.896 4.565 1.3 6.713.223 1.298.223 2.193.358 3.312m42.43-12.756c.359-.492.717-.94 1.075-1.432-7.348-.85-14.74-1.7-22.088-2.506m-8.558-1.432c-2.42-.18-4.884-.403-7.303-.582m3.539 29.45c.851 1.074 1.748 2.148 2.599 3.177l2.016 1.612m4.929 2.148c5.555 2.014 11.067 4.028 16.622 6.042m4.66-78.011c2.823.448 6.273 1.97 7.214 2.462 6.945-.134 13.89-.269 20.834-.358l13.128.537c5.511.313 11.022.582 16.533.895 4.481.537 8.916 1.119 13.397 1.656 1.03.224 2.106.448 3.136.671l2.016 1.075m.045 0a396.86 396.86 0 016.273 2.998l9.678 6.042c4.749 3.447 9.454 6.893 14.203 10.34M57.872 3.5v3.043c.313 2.193.627 4.431.94 6.624.852 4.208 1.748 8.415 2.6 12.622m7.93 34.149c-2.285-2.238-3.54-3.491-7.08-3.223-4.66.359-6.675 3.581-8.423 7.43-2.15 4.744-2.42 9.086-2.06 14.278.402 5.639 2.284 12.397 6.361 16.425 2.734 2.686 5.87 3.491 9.23 1.343 1.076-.672 2.375-1.925 3.226-2.91.852-.984 1.524-2.148 1.927-2.864.403-.716.358-.984.538-1.477" stroke="#2158F5" stroke-miterlimit="22.926" stroke-linecap="round" stroke-linejoin="round"/></svg>