<svg width="221" height="118" fill="none" xmlns="http://www.w3.org/2000/svg"><path d="M28.275 1c.668 2.715 1.426 4.84 2.005 8.189.58 3.348 1.248 7.917 1.337 11.763.09 3.845-.668 9.048-.891 11.31-.223 2.262-.357 1.448-.535 2.172" stroke="#2158F5" stroke-miterlimit="22.926"/><path d="M18.693 1c-1.114 8.189-2.14 13.754-4.011 21.761-1.248 5.248-.267 6.018 2.005 10.632.892-.407 1.516-1.04 2.674-1.221 1.16-.181 2.184-.272 4.011.135 1.828.362 5.037 1.765 6.774 2.172 1.739.407 1.516.543 3.7.226 2.183-.316 6.194-1.493 9.225-2.036 3.075-.543 7.13-.769 9.136-1.13 3.877-.68 3.877-2.49 4.145-5.113-.045-7.058-.312-8.822-2.362-15.835-1.337-4.57-2.273-5.7-4.814-9.546M16.687 33.393c-2.005 3.031-4.724 6.65-6.016 9.048-1.293 2.398-1.47 3.348-1.783 5.203-.312 1.855-.802 2.715 0 5.656.802 2.94 2.273 7.374 4.68 11.762 2.406 4.389 5.392 8.687 9.582 14.478 4.189 5.79 11.097 14.115 15.598 20.359 4.501 6.243 7.576 11.401 11.364 17.101" stroke="#2158F5" stroke-miterlimit="22.926"/><path d="M12.944 63.524l15.108 5.61c1.337 2.126 1.381 3.122 4.01 6.334 2.63 3.212 6.82 7.42 11.811 12.894 4.992 5.474 14.083 15.111 18.05 19.906 3.966 4.796 3.877 5.791 5.793 8.732M28.052 69.134l12.924 2.715c5.125 3.755 11.587 8.098 15.376 11.31 3.788 3.212 4.545 4.298 7.13 7.917 2.585 3.62 5.482 9.049 8.245 13.573l2.897 8.144L72.84 117" stroke="#2158F5" stroke-miterlimit="22.926"/><path d="M74.624 112.793l8.245-12.668c2.362-3.258 5.749-7.737 7.13-9.727 1.694-2.443 1.783-3.077.446-6.334-.802-1.945-1.872-4.253-3.922-7.33-2.05-3.076-5.526-8.007-8.245-11.22-2.718-3.211-5.17-5.61-8.022-7.916-3.208-2.624-12.478-9.908-16.623-6.787-.936.724-2.005 1.674-2.674 3.167-4.501 10.09-.713 18.142 3.788 26.92l1.56 2.261" stroke="#2158F5" stroke-miterlimit="22.926"/><path d="M44.185 32.443c.802.543 1.426.543 2.362 1.629.891 1.04 1.961 2.533 3.03 4.66 1.026 2.126 2.496 6.017 3.21 8.053.757 1.99.846 2.624 1.292 3.936m1.827-22.078c5.392 2.533 12.568 5.248 16.623 9.727 1.516 1.719 3.566 4.207 4.992 6.696 1.426 2.443 2.495 4.976 3.565 7.917 2.095 5.746 3.298 9.274 2.808 15.382-.134 1.584-.535 2.443-.803 3.665" stroke="#2158F5" stroke-miterlimit="22.926"/><path d="M77.922 45.925c2.63 2.534 5.303 5.022 7.844 7.6 2.54 2.58 5.526 5.43 7.487 7.828 1.96 2.397 3.253 4.614 4.234 6.47 1.56 2.895 2.273 5.745 1.782 9.048-.4 2.85-1.649 5.972-3.654 8.007-1.114 1.131-2.897 2.262-4.368 3.394M8.487 49.997c2.852 1.312 5.66 2.398 9.003 4.434 3.342 2.036 7.442 5.248 11.364 8.143 3.922 2.896 8.111 6.198 12.167 9.275M90 90.398c3.743-.77 3.698-.588 7.487.226 4.055-.588 9.849-1.81 13.815-1.131 4.279.724 9.894 2.986 12.613 6.56 1.292 1.674.089 5.158-1.56 6.56-3.878 3.258-12.702 8.325-17.381 10.768-2.229 1.176-2.897 1.221-4.368 1.809" stroke="#2158F5" stroke-miterlimit="22.926"/><path d="M73.733 114.874c4.278-.227 4.5-.498 8.69.497l18.183-.226 13.949 1.81m-32.132-1.584l15.019-24.747m-1.872-5.791c12.969-5.746 24.467-8.596 36.545-3.89 9.136 3.573 11.141 27.506 11.141 36.012" stroke="#2158F5" stroke-miterlimit="22.926"/><path d="M101.676 82.118l1.782-2.397.179-.679 1.604-3.122.802-.633.936-1.312 1.471-.498 2.718 1.765.045 1.312-.446 1.629-1.381 1.9" stroke="#2158F5" stroke-miterlimit="22.926"/><path d="M106.979 73.975v1.04l3.566 2.353.668-.814M220 96.144c-8.378-.905-19.253-1.9-25.091-2.715-7.086-.995-11.453-1.72-16.712-7.013-2.763-2.76-5.839-7.193-9.582-11.762-3.744-4.57-9.983-12.758-12.924-15.609-3.298-3.212-6.061-.226-9.359 2.262-1.738 1.312-2.496 3.167-5.348 4.75-2.853 1.584-9.003 3.71-11.588 4.751-2.585 1.04-2.54.905-3.788 1.357" stroke="#2158F5" stroke-miterlimit="22.926"/><path d="M94.59 63.343l5.615.77 2.897 2.261 12.256 3.394 31.508 6.922 20.635 4.84m-19.298-4.524l13.103-11.174" stroke="#2158F5" stroke-miterlimit="22.926"/><path d="M165.317 75.106c3.743 11.537 9.314 28.095 11.186 34.61.981 3.438 2.228 5.022 5.927 7.284" stroke="#2158F5" stroke-miterlimit="22.926"/><path d="M159.256 67.55c8.512 10.542 18.629 23.481 22.283 27.824 3.61 4.389 4.59 6.153 8.334 7.239 10.384 2.986 19.565 3.529 30.082 3.529m-30.082-3.529c-2.362 1.538-9.225 5.067-7.22 9.048.802 1.584 3.12 3.529 4.68 5.294m-85.702-51.712l28.211 1.539 10.919-4.66 3.119-3.393 3.566-6.425 3.431-7.69m-4.278 13.526c4.59-3.619 16.222-13.572 22.551-8.234 3.119 2.624 9.136 9.501 13.681 14.252" stroke="#2158F5" stroke-miterlimit="22.926"/><path d="M144.504 62.89l1.605-2.759c1.158-4.705.713-4.162 4.011-8.053 1.782-2.081 5.259-6.38 7.71-8.506 3.476-3.076 7.754-6.017 12.122-3.845 1.916.95 2.005.86 8.2 4.75 6.195 3.891 23.219 14.975 30.172 19.364 4.1 2.579 4.323 4.75 2.094 9.41-1.381 2.85-5.125 10.09-6.685 12.351-1.248 1.765-3.788.95-5.259-.543-3.164-3.348-10.562-12.441-15.821-18.685-.267-.588-.445-1.855.223-2.262l1.337-.769c.847-2.126 2.006-4.162 2.585-6.334.535-2.171.446-4.343.668-6.514M167.59 30.543l8.601 7.058 15.019 9.5L220 61.805" stroke="#2158F5" stroke-miterlimit="22.926"/><path d="M172.358 34.026l1.649-3.619.357-1.448-1.426-1.312-2.451-1.628m-8.29 10.722l1.159.453 9.136-14.342-1.114-.815" stroke="#2158F5" stroke-miterlimit="22.926"/><path d="M162.153 36.877l-2.362-2.85 8.334-13.075 3.253 1.085m-20.501 22.576l6.15-9.139" stroke="#2158F5" stroke-miterlimit="22.926"/><path d="M156.849 35.791l.179-3.076 3.743-4.299 1.515-4.433 4.1-.272m-9.091 20.404c1.159-1.085 2.763-2.533 3.476-3.212.981-.995 1.426-1.764.49-3.121-.49-.679-1.872-2.308-2.406-2.805-.669-.588-1.159.09-1.783.543" stroke="#2158F5" stroke-miterlimit="22.926"/><path d="M161.529 26.2c-1.248-1.72-2.897-4.208-3.699-5.203-1.738-2.127-2.229-.95-1.07 1.493.713 1.538 2.318 4.479 3.521 6.831" stroke="#2158F5" stroke-miterlimit="22.926"/><path d="M156.047 20.318c-.535-3.348 4.635-2.624 6.908-2.669 2.005-.045 4.635 0 7.175.136s5.66.407 8.067.678c2.406.272 3.832.407 6.417.95 2.585.543 4.903 1.448 8.958 2.398 4.056.905 10.963 2.262 15.376 3.032 4.412.814 7.353 1.221 11.007 1.81" stroke="#2158F5" stroke-miterlimit="22.926"/><path d="M220 22.58l-19.386-1.674-4.769.09-4.145.272m-90.648 43.523c1.025-.045 2.05 0 3.03-.136.981-.09 1.115.046 2.897-.497 2.095-.68 8.735-2.85 10.295-4.208 1.605-1.357 1.337-3.483-.535-4.343-2.629-1.222-19.074-1.9-22.996-2.217l-8.423-.317" stroke="#2158F5" stroke-miterlimit="22.926"/><path d="M117.274 59.95c.669-.045 1.382-.045 2.05-.18 3.655-.725 12.835-.77 16.401.135-.134.498.267.86.713 1.086.445.226 1.248.226 1.782.226 1.649.045 1.739-.588 2.05-.633.402-.046 1.159.09 1.739.135" stroke="#2158F5" stroke-miterlimit="22.926"/><path d="M135.725 59.905c.401-.453 1.025-.815 1.247-1.403.223-.588-.222-2.488.134-3.71.178-.588.49-1.13.802-1.538.535-.769 1.07-.995 1.917-1.176.891-.136 2.005-.272 2.807.271.312.227.491.498.624.905.134.407.223 1.04.134 1.448-.045.181-1.604 1.855-1.872 2.217-.757.995-.757.86-.936 2.081-.089.452-.133 1.04-.222 1.584M90.757 53.3c-4.278-5.203-10.518-12.442-12.79-15.609-1.204-1.674-1.65-4.162.445-5.52.891-.587 2.006-.859 3.476-.587 1.471.316 3.164.904 4.903 2.397 1.738 1.493 3.565 4.208 5.348 6.334L103.86 54.25" stroke="#2158F5" stroke-miterlimit="22.926"/><path d="M79.615 39.772c.49-.633.669-1.402 1.516-1.855.846-.407 1.96-.995 3.342-.588 1.382.407 2.897 2.262 4.323 2.94 1.426.68 2.763.725 4.145 1.087m1.069 1.221c-.133-1.719-.4-3.845-.356-5.112.044-1.357.445-4.208 2.362-2.85 1.203.86 3.164 3.076 5.036 5.203 1.872 2.126 4.679 5.61 6.15 7.555 1.426 1.99 1.827 3.076 2.451 4.298.624 1.221.802 2.036 1.248 3.031" stroke="#2158F5" stroke-miterlimit="22.926"/><path d="M94.99 34.298c-.222-1.222-.222-1.99-.578-3.167-.357-1.131-.714-2.126-1.338-3.167-.623-1.04-1.56-2.036-2.317-3.076" stroke="#2158F5" stroke-miterlimit="22.926"/><path d="M76.897 35.022c-.134-3.53 0-4.841 1.738-8.28.847-1.673 2.228-2.578 4.1-2.08.802.226 1.56.678 2.406.95.847.271 1.516.361 2.452.226.936-.136 2.05-.679 3.12-.905 1.069-.226 2.139-.814 3.342-.543 1.203.226 2.228.995 3.431 1.945 1.204.95 2.764 2.353 3.789 3.53 1.025 1.176 1.515 2.035 2.451 3.392.936 1.358 1.738 3.122 3.119 4.887 1.382 1.719 3.521 3.845 5.036 5.428 1.516 1.584 3.209 2.534 4.011 4.208.803 1.674.446 3.89.446 5.203 0 1.312-.356 1.719-.535 2.579m2.273 1.357c1.872-.814 3.833-1.946 5.66-2.488 1.827-.543 2.897-.589 5.17-.68 2.317-.09 5.704.182 8.557.272m5.125 1.539l.936 1.583.356 1.583" stroke="#2158F5" stroke-miterlimit="22.926"/><path d="M134.7 53.933l-3.878-5.43-.846-1.356" stroke="#2158F5" stroke-miterlimit="22.926"/><path d="M113.352 44.93l23.843 3.257 4.992 1.674 4.367 4.027" stroke="#2158F5" stroke-miterlimit="22.926"/><path clip-rule="evenodd" d="M134.165 45.428l.089-.95 1.025-2.987 3.833-8.279 2.629-5.927 4.368-8.64 1.337-2.127 1.247-.543 1.293.543.49.86-.223 1.311-6.373 14.523-4.234 8.144-2.495 4.343-1.204.905-1.426-.272-.356-.904z" stroke="#2158F5" stroke-miterlimit="22.926"/><path d="M146.644 26.924l1.247.09 1.07 1.176-1.426 2.489-1.114.905-2.095.633m12.701.498l-4.1-2.036-.49-1.177-2.407-1.945-1.381.271m4.902 3.167l4.635-6.107m-2.629 12.848l2.54 5.61M220 91.981c-5.259-1.176-12.612-2.805-15.821-3.574-3.877-.95-2.942-.633-5.705-3.257m-14.261-21.761l20.501 20.404m-16.98-16.876c1.069-2.216 2.629-4.931 3.253-6.605.624-1.674.401-2.262.58-3.393.133-1.131.178-2.353.267-3.529M78.1 27.919c-.134-1.945-.535-4.117-.401-5.61.09-1.312 2.763-7.103 3.343-8.913 1.025-3.167 1.337-7.465 5.125-8.731 5.17-1.72 7.977 5.474 8.467 9.365.535 4.388.58 6.243-.534 10.315m9.938 2.624c.044-.407.356-1.177.847-1.448l1.203-.588 36.901-.045m4.59-.136h10.072m5.304-7.103l-11.276-6.062-10.606-4.525-11.231-3.936L120.483 1M96.15 1l.668 2.081 6.284 14.704 2.941 7.148" stroke="#2158F5" stroke-miterlimit="22.926"/><path d="M94.59 1l-.134 2.534.267 1.176 5.571 12.08 2.541 6.514 2.094 6.334 1.515 6.56.446 1.81M85.32 5.253l-.891-2.308L82.778 1m-2.316 0l-9.18 1.267-7.666 1.81-9.448 3.166-1.203.498" stroke="#2158F5" stroke-miterlimit="22.926"/><path d="M53.589 7.47l5.66 9.5 3.61 6.56.534 1.177" stroke="#2158F5" stroke-miterlimit="22.926"/><path d="M56.62 23.892l4.233.679 6.328.317 7.666-.046 3.03-.226M1 24.119l7.888 29.18m4.056 10.225l9.938 23.707 7.576 17.192 7.131 12.532M1 80.49l12.969 24.385 6.016 12.08M150.031 1l12.032 6.605 14.262 8.144 5.08 3.167m-75.451 14.296h33.158m-29.682 7.51l14.306 1.04 11.008 1.222m3.655.543l9.804 1.267m1.828 1.719l-4.056-4.117 1.203-2.126 5.616-9.863m-13.905 12.306l3.744-.136 3.342-.18m2.585-4.615l-7.443.768M1 16.427c3.476-.135 7.844-.678 10.384-.452 2.54.226 3.03 1.131 4.546 1.72m116.185 63.247l26.428 5.61 11.052 1.765m-27.631 13.301c5.437 1.312 12.211 3.348 16.356 3.981 4.1.588 12.033-.633 16.534-.95" stroke="#2158F5" stroke-miterlimit="22.926"/><path d="M220 1H1v115.955h219V1z" stroke="#2158F5" stroke-miterlimit="22.926"/></svg>