<svg width="227" height="109" fill="none" xmlns="http://www.w3.org/2000/svg"><path d="M158.759 38.567c-2.823-.404-5.646-.852-8.468-1.255m33.424 5.018c-5.108-.761-10.26-1.523-15.368-2.285m36.382-2.24c.403 1.03.761 2.106 1.165 3.136 1.254 1.12 3.181 2.465 3.674 4.122.358 1.165.403 2.24.582 4.615.179 2.375.583 6.99.403 9.589-.448 7.348-1.344 10.797-3.046 18.594m4.256-31.543c-6.093-.851-12.142-1.703-18.236-2.51" stroke="#2158F5" stroke-miterlimit="22.926"/><path clip-rule="evenodd" d="M166.51 39.776c.314-.269.358-.761.358-1.12-.044-.358-.224-.538-.492-.806-.269-.27-.628-.628-1.076-.807-.448-.179-1.075-.179-1.613-.269-.537-.09-1.03-.09-1.568-.268-.538-.135-1.03-.493-1.568-.583-.493-.09-1.075-.134-1.434.09-.358.179-.493.537-.538.985-.044.449 0 1.12.18 1.569.179.403.313.627.851.85.493.225 1.389.404 2.106.449.717.045 1.523-.224 2.106-.224.582 0 1.03.18 1.478.224.403 0 .896.18 1.21-.09zm24.374.807c-.269-.135-.403.045-.583.09-.179.044-.179.179-.448.179-.268 0-.672.044-1.03-.09-.359-.134-.583-.538-.941-.672-.314-.135-.672-.269-.986-.224-.358.045-.672.134-.896.493-.179.358-.224.985-.134 1.433.089.449.313.852.761 1.12.448.27 1.345.494 1.793.494.448 0 .537-.314.806-.359.269-.09.583-.09.851-.045.269.045.359.359.672.359.314 0 .717-.135.986-.359.224-.224.359-.493.359-.806 0-.314-.045-.672-.269-.986-.179-.18-.672-.493-.941-.627zM163.06 82.61c.045-3.047-.493-7.796-1.075-10.753-.583-2.823-1.479-5.69-3.271-7.976-5.287-6.72-9.14 1.255-10.171 6.407-.851 4.391-1.434 8.872-1.165 13.353.179 3.18 1.031 8.826 2.196 11.783.627 1.658 1.657 3.271 2.419 4.301 1.299 1.658 2.688 2.196 4.615 1.076 4.391-2.599 6.407-13.442 6.452-18.191z" stroke="#2158F5" stroke-miterlimit="22.926"/><path d="M213.242 56.937c1.12 0 2.195-.359 3.315-.045 1.12.313 2.106.896 3.092 1.837 2.285 2.15 3.495 5.108 4.032 8.154.807 4.57.762 9.185-1.702 13.263-.628 1.075-1.479 2.33-2.42 3.18-3.584 3.272-6.497 3.406-10.26.494-.717-.538-.852-.941-1.255-1.39m-51.077-53.317c-1.076-3.271-1.748-6.363-3.226-9.813-1.479-3.45-3.854-7.213-5.78-10.798m32.618 66.939c-1.927-.269-4.212-.403-5.735-.851-1.479-.448-2.241-.717-3.047-1.658-.807-.986-.986-2.599-1.523-3.853m30.467 7.886c-4.077-.27-8.199-.538-12.277-.852M166.286 6.217c1.075 1.792 2.151 3.405 3.271 5.377a106.428 106.428 0 016.72 14.293c.986 2.554 1.658 4.928 2.51 7.393 1.075 1.21 2.195 2.464 3.27 3.674.807.85 1.613 1.747 2.42 2.598.269.807.582 1.613.851 2.42l1.613 9.409c.627 7.437.986 8.065-1.523 18.55-.404 1.612-.852 3.18-1.255 4.793l-.269 3.764.404 2.688" stroke="#2158F5" stroke-miterlimit="22.926"/><path d="M163.956 5.904c1.792 3.091 3.943 6.496 5.332 9.23 1.389 2.733 1.971 4.3 3.047 7.213 1.075 2.957 2.24 6.945 3.36 10.395m-7.572-26.077c1.523 2.42 3.047 4.57 4.525 7.259 1.479 2.688 2.823 5.6 4.302 8.916 1.478 3.316 3.091 7.258 4.614 10.888m14.293-5.511c.807 2.777 1.613 5.6 2.375 8.378" stroke="#2158F5" stroke-miterlimit="22.926"/><path clip-rule="evenodd" d="M200.293 36.057c.134-.403.269-.761.403-1.165-1.389-1.926-2.733-3.853-4.122-5.78-2.554-2.867-5.197-6.048-7.661-8.557-2.465-2.554-4.615-4.705-7.124-6.631-2.51-1.972-5.377-3.764-7.886-5.063-2.509-1.3-4.705-1.748-7.079-2.599-3.585-.403-8.155-1.03-10.754-1.165-2.598-.134-3.45.09-4.704.314-1.255.269-1.837.269-2.599 1.165-.762.896-1.21 2.06-1.747 3.853-.538 1.792-1.255 4.973-1.434 6.81-.179 1.793.045 2.823.358 3.943.314 1.12.941 1.792 1.434 2.689 1.524.94 3.002 1.926 4.526 2.867 2.419 1.165 4.794 2.285 7.213 3.45 4.705.717 9.409 1.434 14.114 2.195 3.987.672 7.975 1.345 11.918 2.017 4.077.851 8.11 1.702 12.187 2.509a73.156 73.156 0 012.957-.852zm-51.929 2.913c.179-.224.403-.448.582-.672-.313-1.255-.492-2.644-.94-3.764-.941-2.464-2.465-4.256-4.705-5.69-.403-.269-7.841-2.15-7.572 0 .09.896 2.285 1.792 3.091 3.091.852 1.3 1.345 3.495 1.837 4.615 1.076 2.24.986 2.285 3.45 2.42 1.165.09 2.868 0 4.257 0z" stroke="#2158F5" stroke-miterlimit="22.926"/><path d="M201.682 34.982c.179 1.434.09 2.016-.807 2.778-.313.269-.627.403-.94.583 0 .224-.135.627.179 1.03.269.403.985.941 1.434 1.3.492.358.806.492 1.164.492.359 0 .538 0 .852-.448.313-.448.627-1.389.941-2.106.134-.582.313-1.12.448-1.702" stroke="#2158F5" stroke-miterlimit="22.926"/><path clip-rule="evenodd" d="M211.942 31.532c-.224-1.075-1.165-1.971-2.374-2.33-1.255-.358-3.988-.403-5.019-.313-1.657.179-1.792 2.33-1.926 3.494-.135 1.12.806 3.092 1.971 3.36.941.225 2.823.135 3.809-.044 1.03-.18 1.613-.582 2.195-.986.896-.627 1.524-2.105 1.344-3.18z" stroke="#2158F5" stroke-miterlimit="22.926"/><path d="M208.179 36.73c-1.3.09-3.002.358-3.898.268-1.793-.179-3.719-3.226-3.316-4.883M71.21 36.685l-43.282.403c-1.076-1.03-2.196-2.016-3.27-3.047L8.616 32.966m96.332-10.036c-.09.268-.179.492-.269.761-1.21.538-2.42 1.076-3.674 1.613-.672.09-1.344.18-2.016.314-.359-.134-.762-.314-1.12-.448-3.002-.403-6.004-.852-9.006-1.255l-19.849-.806H44.147c-3.18.179-6.317.358-9.498.493-3.137.224-7.124.448-9.454.672-2.33.224-3.181.313-4.615.761-1.792.583-3.45 1.613-4.884 2.868M61.084 6.262c7.258-.672 13.89-1.3 21.73-1.747 7.796-.493 16.757-.852 25.136-1.12 6.541.044 15.368.044 19.58.179 4.211.134 4.211.313 5.555.672 1.524.403 3.271 1.702 2.509 3.45-.985 2.33-7.482 6.676-9.677 7.975-2.554 1.524-5.332 2.599-7.976 3.853-2.33.807-4.659 1.613-7.034 2.375-1.972.358-3.988.672-5.959.986-.403-.269-.852-.538-1.255-.852a107.6 107.6 0 00-3.763-.492c-12.456-.18-24.912-.359-37.368-.493-6.9.134-13.845.224-20.745.358-3.45.18-6.9.359-10.35.493l-5.018.403m170.797 63.086c4.033-1.076 8.11-2.15 12.142-3.226.135-1.165.224-2.375.359-3.54-.403-.313-.762-.627-1.165-.94" stroke="#2158F5" stroke-miterlimit="22.926"/><path d="M221.71 56.668a87.336 87.336 0 01-.359-3.405c-.403-.717-.851-1.434-1.254-2.196-.627-.358-1.3-.672-1.927-1.03l-1.747.672c-.403.627-.852 1.21-1.255 1.837-.627 1.434-1.209 2.912-1.837 4.39-.493 2.286-1.03 4.526-1.523 6.811-.851 3.943-1.658 7.886-2.509 11.829-.224.716-.448 1.389-.672 2.105-4.974.717-9.902 1.39-14.876 2.106-7.213 1.076-14.472 2.196-21.685 3.271-.852.045-1.703.134-2.509.18-.493-.314-.941-.628-1.434-.942l-.269-3.091c-.045-3.226.09-6.721-.09-9.678-.179-2.957-.448-5.556-1.03-7.975-.538-2.42-1.479-4.57-2.285-6.542-.807-1.971-1.523-3.54-2.42-5.197-.896-1.703-2.061-3.406-2.957-4.884-.896-1.479-1.568-2.644-2.374-3.943-.404-.94-.762-1.927-1.165-2.867-.852-1.658-1.748-3.72-2.509-4.974-1.255-1.971-3.495-3.091-4.436-4.525-.941-1.434-1.031-3.181-1.165-4.794" stroke="#2158F5" stroke-miterlimit="22.926"/><path d="M224.309 60.521c-.538-.896-1.031-1.747-1.569-2.643-.717-.807-1.389-1.613-2.106-2.42-.851-.538-1.657-1.075-2.509-1.613-.985-.403-2.016-.851-3.002-1.254M4.047 69.168c1.344-.85 2.688-1.702 4.032-2.509 2.42-.044 4.794-.134 7.214-.179 23.478.627 46.956 1.21 70.389 1.837 3.18 1.3 6.407 2.599 9.588 3.853" stroke="#2158F5" stroke-miterlimit="22.926"/><path clip-rule="evenodd" d="M2.568 76.65v1.345c1.434 0 3.316.18 4.257 0 1.21-.269 1.12-1.12 1.075-1.971-.538-.135-1.075-.224-1.613-.359l-3.45.135c-.09.268-.18.537-.269.85zm97.362 5.467c2.195.134 7.034 0 10.574 0-.717-.806-1.21-1.882-2.196-2.42-.986-.537-1.165-.447-3.45-.582-2.24-.134-6.72-.18-10.081-.269 1.882 1.658 2.554 3.092 5.153 3.271z" stroke="#2158F5" stroke-miterlimit="22.926"/><path d="M78.513 43.764c-3.226 2.867-7.214 6.765-9.678 8.602-2.464 1.837-3.27 1.569-4.884 2.375H33.708c-2.24-1.075-4.615-1.254-6.721-3.181s-3.63-5.332-5.466-8.02m25.001 44.312c-.358-.806-.717-1.568-1.075-2.374-6.452-.404-15.548-1.076-19.311-1.165-3.45-.09-3.943.761-7.08 2.105m64.341 2.689l-2.689-2.689-26.21-.672c-.449.359-.897.672-1.345.986.135.582.224 1.12.314 1.703" stroke="#2158F5" stroke-miterlimit="22.926"/><path clip-rule="evenodd" d="M14.71 84.223c.538-1.792-.672-3.63-2.598-3.764-.583-.044-1.569.27-1.882 1.21-.224.717-.403 1.613.313 2.778.404.672 1.434 1.165 2.51 1.12.672 0 1.478-.672 1.657-1.344z" stroke="#2158F5" stroke-miterlimit="22.926"/><path d="M81.828 82.879c7.124.269 14.248.537 21.328.806 1.075.493 2.15.941 3.181 1.434 1.165 1.255 2.285 2.51 3.45 3.764.179.582.403 1.165.582 1.747-.448.896-.851 1.792-1.299 2.688M16.323 80.46c-3.315-.045-6.676-.27-9.991-.314" stroke="#2158F5" stroke-miterlimit="22.926"/><path d="M89.714 91.078c-2.375-2.509-4.75-5.063-7.124-7.572-1.434-1.165-2.912-2.375-4.39-3.54-2.062-.582-4.168-1.12-6.229-1.702-16.802-.403-33.604-.762-50.406-1.165-1.388.448-2.822.896-4.211 1.344-.717 1.344-1.434 2.688-2.196 4.032-.268 1.614-.537 3.271-.806 4.884m45.522 3.405c-11.694-.85-23.433-1.747-35.127-2.598m89.52-42.744c1.658 2.823 3.361 5.69 5.018 8.513 1.21 3.046 2.465 6.048 3.719 9.095M27.973 37.133l-6.407 6.407c-1.882.18-3.809.358-5.735.493l-7.304.403c-1.075.358-2.106.717-3.18 1.03" stroke="#2158F5" stroke-miterlimit="22.926"/><path clip-rule="evenodd" d="M78.513 43.764l-7.303-7.035c3.494-2.195 4.57-3.494 8.916-3.942 3.181-.359 9.409-.448 14.113-.672l23.523-.404c3.943.27 9.23.359 11.784.762 2.419.358 7.393 3.63 4.122 5.69-1.658 1.03-5.69 2.733-8.558 4.122l-6.721 3.36c-13.307-.671-26.57-1.254-39.876-1.881z" stroke="#2158F5" stroke-miterlimit="22.926"/><path d="M115.163 20.017c.09 1.613.314 3.809.269 4.884-.134 1.792-1.523 1.971-3.091 2.375-1.389.358-4.526.806-5.959 1.165-1.613.403-3.809 1.299-4.884 2.598-.852 1.03-2.016 3.047-3.002 4.526-2.644 4.256-5.332 8.513-7.975 12.77-.762 1.209-1.434 2.508-2.285 3.628-.852 1.076-1.658 2.017-2.778 2.957-1.479 1.21-4.705 3.63-6.632 3.854-1.702.224-4.973.134-7.482.179-16.175-.403-32.304-.762-48.48-1.165-1.164-.269-2.419-.314-3.45-.762-3.001-1.389-3.808-4.346-4.793-7.303-.807-2.42-1.703-6.093-2.51-9.14L10.5 35.609c-.045-1.254-.045-1.165-.135-2.419m153.77 58.919c.941-3.764 1.524-7.752 1.882-10.888.538-4.615.403-11.067-.403-15.637-.448-2.375-1.21-4.66-1.927-6.407-.717-1.748-1.702-2.957-2.419-3.943-1.255-1.658-2.913-3.047-5.108-3.047-1.12 0-2.106.27-3.181 1.03-1.12.763-2.196 1.928-3.181 3.361-.986 1.434-1.703 2.688-2.778 5.287-1.076 2.644-2.599 6.945-3.54 10.44-.896 3.45-1.478 7.213-1.926 10.35-.449 3.091-.583 5.556-.852 8.334-.134.672-.224 1.344-.358 2.016L139 94.08a678.236 678.236 0 00-9.544-.358" stroke="#2158F5" stroke-miterlimit="22.926"/><path clip-rule="evenodd" d="M225.877 66.166c-.314-1.881-1.076-3.763-1.613-5.645-.135-1.747-.224-3.54-.359-5.287-.582-1.434-1.12-2.867-1.702-4.301-.493-1.479-.762-2.957-1.524-4.391-1.075-2.016-3.674-5.242-5.645-6.452-1.031-.627-2.196-.851-3.271-1.255-.851-.403-1.747-.85-2.599-1.254-.358-.269-.716-.538-1.075-.851 3.002-.538 5.556-.583 5.646-4.391.044-1.882-2.51-4.302-4.033-4.436-1.434-.134-5.735-.403-7.124-.269-1.523.18-1.389 3.136-1.658 4.436-1.075-1.344-2.195-2.689-3.271-4.033-2.24-2.509-4.704-5.376-6.72-7.482s-3.585-3.54-5.287-5.108c-1.703-1.568-3.45-3.091-4.974-4.301-1.523-1.21-2.778-2.15-4.032-2.957-1.255-.807-2.151-1.255-3.54-1.837-1.344-.583-3.091-1.12-4.615-1.703-2.195-.627-3.987-1.389-6.541-1.926-2.554-.538-5.601-1.076-8.737-1.345-3.136-.268-5.198-.268-10.081-.358-4.884-.045-12.815 0-19.222 0-6.989.134-13.934.224-20.924.358-10.215.762-20.386 1.524-30.602 2.285-2.285.359-4.614.672-6.9.986-1.837.627-3.718 1.3-5.555 1.927-5.422 2.733-10.888 5.421-16.31 8.154a1363.722 1363.722 0 01-11.335 5.87c-.627.269-1.21.493-1.837.761-1.21.27-2.42.583-3.63.852-4.704.493-6.72.582-11.245 1.926-.09.27-.18.583-.27.852.135.94.27 1.837.404 2.777-.896.628-1.792 1.21-2.688 1.838l-4.436 3.36c-.717.806-1.658 1.389-2.195 2.42-.538 1.03-.672 1.926-.852 3.629-.179 1.657-.179 4.256-.269 6.407-.09 1.523-.179 3.091-.268 4.615-.807 1.747-1.793 3.987-2.375 5.287-1.075 2.464-1.21 3.629-1.165 4.346.09 2.778.493 9.812.762 14.696-.135 1.21-.224 2.464-.359 3.674-.179.493-.403.985-.582 1.523L1 82.251c.18 1.21.403 2.42.582 3.63 4.212.493 8.469.94 12.68 1.433 3.45.27 6.9.493 10.35.762.583 1.434.986 3.002 1.658 4.302 2.285 4.211 5.646 7.079 10.26 8.333 2.106.583 9.633.941 11.695.672 2.509-.313 5.197-2.464 6.99-4.211 1.791-1.793 3.18-4.302 4.524-6.452l17.385.269c1.03.358 2.016.672 3.047 1.03 1.837.045 3.718.134 5.555.18.27-.36.493-.718.762-1.076h3.092c.761.493 1.523.986 2.285 1.523 1.12.27 2.24.493 3.36.762 3.943.09 7.841.18 11.784.269 1.971-.269 3.987-.583 5.959-.852l16.399.941c1.568 5.019 2.598 9.185 7.213 12.367 1.255.851 2.33 1.299 3.764 1.613 1.434.313 2.554.224 4.704.268 2.151.045 6.497.045 8.334-.179 2.33-.269 4.167-2.554 5.466-4.391.986-1.344 1.882-2.912 2.778-4.794.852-1.882 1.792-3.808 2.42-6.452 3.674-.582 7.393-1.165 11.067-1.747a16922.01 16922.01 0 0021.999-4.973c1.613 1.792 5.063 4.48 7.572 4.749 2.733.269 6.049.358 9.095-.045 3.54-.448 5.467-2.15 7.662-4.794 4.256-5.108 5.556-12.949 4.436-19.222z" stroke="#2158F5" stroke-miterlimit="22.926"/><path clip-rule="evenodd" d="M8.93 83.954c.538-1.792-.672-3.63-2.598-3.763-.583-.045-1.568.268-1.882 1.21-.224.716-.403 1.612.314 2.777.403.672 1.433 1.165 2.509 1.12.672-.044 1.478-.717 1.658-1.344z" stroke="#2158F5" stroke-miterlimit="22.926"/></svg>