<svg width="221" height="118" fill="none" xmlns="http://www.w3.org/2000/svg"><path d="M220 1H1v116h219V1z" stroke="#2158F5" stroke-miterlimit="22.926"/><path d="M173.517 117l3.432-40.915c.133-1.629.089-2.896-.535-4.209-.624-1.312-1.337-2.263-3.12-3.304-5.169-2.987-12.077-3.756-17.916-3.756-9.314 0-14.617 1.9-23.174 4.888l-1.203 3.259-8.379 8.508" stroke="#2158F5" stroke-miterlimit="22.926"/><path d="M131.268 72.193l8.78 2.173-7.488 9.866" stroke="#2158F5" stroke-miterlimit="22.926"/><path d="M140.048 74.366c3.387-.498 7.888-1.268 10.161-1.494 1.471-.136 13.414 1.086 13.058 3.213-.312 1.72-5.972 3.576-7.532 4.21-6.596 2.625-10.919 2.85-17.871 3.666l-5.259.271-7.22.679m-13.637 14.936c5.303-.543 12.077-1.494 17.158-1.947 9.849-.86 19.966-1.493 29.86-1.357 3.966.045 6.239.271 8.467.679 4.591.86 5.928 1.855 7.532 4.978m-.579 7.061c-1.961-5.703-5.036-6.472-12.301-6.563-11.008-.136-20.5 2.806-30.662 6.427l8.602 5.205 3.431 2.67m-12.033-7.875h-13.459l-5.481.588-4.769 7.287m4.769-7.287l-12.479-5.34L88.662 117m-20.054 0l27.185-22.81-1.56-5.206-7.799-20.593c-8.958-12.808-9.67-18.194-24.511-25.571-4.323-2.127-8.87-2.67-11.588 2.036-3.164 5.477-3.833 16.294-4.68 22.63m7.577-46.934c1.827 8.237 2.451 12.22 2.362 20.729M38.213 1c.936 3.938 3.877 13.623.758 16.565l-1.872 1.72c-1.783-3.53-3.52-8.192-7.354-9.957-2.362-1.086-5.793-.905-8.69-1.358 0-1.358-.357-2.851 0-4.073C21.412 2.675 22.392 1.95 23.06 1" stroke="#2158F5" stroke-miterlimit="22.926"/><path d="M37.099 19.285c6.24 1.358 9.626 1.448 16.178 1.222 4.813-.136 9.982-1.267 12.523-2.082 2.63-.815 2.763-2.897 2.05-5.974l-1.694-7.06L64.596 1m1.784 5.34L71.95 1M1 10.007l5.794 3.62L17.49 26.753l12.924 21.272L42 70.428" stroke="#2158F5" stroke-miterlimit="22.926"/><path d="M4.075 9.237c2.897.86 6.373 1.222 8.735 2.58 5.972 3.53 20.634 40.87 24.333 49.197" stroke="#2158F5" stroke-miterlimit="22.926"/><path d="M13.033 7.2c2.54.906 5.437 1.313 7.576 2.761 5.883 3.938 13.326 26.341 16.267 33.583L45.7 67.53l7.666 19.01-.669 4.978-10.696-21.046M1 48.25l9.582 28.514 12.924 30.324L27.74 117M17.49 26.753c-.98.633-2.452 1.448-2.006 4.073.446 2.625 3.164 13.306 6.017 20.82l24.734 58.158L50.023 117m45.77-22.81l2.585 6.019 1.426 4.164m-8.914-6.02c2.407 4.028 3.432 5.929 5.17 10.319" stroke="#2158F5" stroke-miterlimit="22.926"/><path d="M50.558 87.31l-.98 4.843 3.788 3.303 2.674-.452 4.768 4.39.357-3.168-4.902-5.657v-2.354l-2.897-1.72" stroke="#2158F5" stroke-miterlimit="22.926"/><path d="M54.703 95.23l5.793 16.837L62.502 117M1 93.646L10.805 117m89.489-12.401l1.114-.996.669-2.625 4.679-4.752 1.025.181 3.967 3.44-1.337 1.901-4.813-4.3" stroke="#2158F5" stroke-miterlimit="22.926"/><path d="M102.478 100.616l.49 1.132 2.986 2.127 2.808-.091 1.649-2.036m-9.181 2.036l4.724.09m4.769-4.887l10.161-10.772-1.693-2.444-.402-1.584 3.254-3.35 4.1 3.305-2.585 3.168-4.367-3.485m1.693 4.39l2.674-.905m-2.719-5.25l4.145 3.53M67.85 12.496L82.69 43.68l10.162 20.729 10.696 19.552 1.337 2.489 2.005-2.716-11.81-25.119-12.835-27.608-6.24-12.99-4.233-5.43-3.566-2.942-1.203-.68" stroke="#2158F5" stroke-miterlimit="22.926"/><path d="M70.836 11.772c1.337.09 2.674-.226 3.966.226 3.253 1.177 4.546 3.485 5.66 6.563.758 1.991 1.56 5.295 2.362 7.92l6.017 15.75 3.654 10.863m-4.011 2.353c-.134 2.082-.089 4.028-.401 6.2-.356 2.173-1.07 4.481-1.604 6.744m9.314 25.799l5.749-2.943 3.164-2.534m-1.203-3.44l-.535.905 2.63 2.535 1.515-.498 3.342 2.987 1.07-1.63-2.808-3.394-.312-3.168-1.782-1.493-.491.588m-47.73 15.117L64.507 117m41.091-28.287c.713 1.177 1.426 2.399 2.139 3.53.713 1.132 1.693 2.263 2.184 3.35.49 1.085.49 2.081.713 3.122m-.179-7.513l1.337 6.653" stroke="#2158F5" stroke-miterlimit="22.926"/><path d="M105.642 81.064l10.875-8.78-4.457-15.253-12.568-30.46-4.145-8.01-14.573.95M79.972 1c.758 2.399 1.872 4.979 2.317 7.242.446 2.262.758 4.435.446 6.245-.312 1.81-1.515 2.716-2.273 4.119M91.247 1c.98 1.267 1.961 1.9 2.897 3.757.936 1.81 2.095 5.34 2.585 7.15.98 3.576.134 3.938-1.114 7.106" stroke="#2158F5" stroke-miterlimit="22.926"/><path d="M96.863 13.582c.89.362 1.782.181 2.629.996.847.86 1.337 2.851 2.139 3.756.758.86 1.025 1.177 2.362 1.358 1.293.181 3.699.09 5.259-.226 2.273-.498 4.68-1.177 4.68-3.711 0-2.173-.491-8.147-2.14-9.731-.802-.815-1.203-.86-3.119-1.222-1.917-.408-6.284-1.086-8.245-1.132-2.585-.09-3.788 1.041-5.794 2.309" stroke="#2158F5" stroke-miterlimit="22.926"/><path d="M107.826 19.511c.356 2.082.891 4.255 1.114 6.291.223 2.037.089 3.938.134 5.884m.044 54.944l6.953-6.38.891-3.395-2.362-3.033m2.362 3.033l2.451-4.028c1.025-.996 1.872-1.946 3.075-2.987 1.204-1.041 3.209-2.309 4.19-3.26 1.916-1.9 2.273-3.665 1.604-6.335-.49-1.901-1.872-4.888-2.763-7.378l-4.858-9.097-2.674-7.694c-.579-2.625-1.114-5.069-1.738-7.83-.624-2.715-1.471-6.789-1.961-8.6-.49-1.81-.624-1.583-.936-2.353" stroke="#2158F5" stroke-miterlimit="22.926"/><path d="M103.28 35.804l3.566 4.255 5.258 11.994 5.928 15.207 1.381 5.612m-12.567-32.813c-.09-1.267-.312-2.58-.223-3.802s.356-2.625.757-3.44c.446-.814.936-1.086 1.694-1.131.713-.045.936.045 2.094.95 1.159.906 3.209 3.033 4.858 4.526l3.61 3.712m-5.927-26.341c.624.452 1.158.316 1.827 1.403.668 1.131 1.292 3.394 1.961 5.114l4.813 15.162 4.412 12.13 3.655-.589-2.407-6.291a4607.17 4607.17 0 01-5.838-15.207c-1.515-3.847-2.407-6.246-3.12-7.92-.802-1.856-1.738-2.716-3.431-3.802-.714-.408-1.248-.498-1.917-.725" stroke="#2158F5" stroke-miterlimit="22.926"/><path d="M116.695 15.302c.668.317 1.203.362 2.005 1.041.802.634 1.515 1.04 2.763 2.897 1.248 1.855 3.165 5.43 4.724 8.146l6.641 11.496 6.729 12.809 2.942 7.06 2.139 7.106m-18.317-18.511l-.713.317.936 1.946 1.515.226.624.905.892 2.263 1.559-.588-.668-2.49.267-.814.892-.543-.713-1.584h-.847m-3.521 2.625l3.476 10.228 1.203 4.662.981 5.25" stroke="#2158F5" stroke-miterlimit="22.926"/><path d="M134.833 68.844c-.178-1.403-.223-2.399-.49-4.164-.223-1.72-.401-4.164-.936-6.246-.535-2.036-1.515-4.028-2.273-6.064m-12.523 21.815c.713.905 1.515 1.584 2.095 2.715.579 1.132.891 2.625 1.337 3.938m-5.348-2.988c.579.86 1.337 1.54 1.782 2.535.401.996.446 2.263.713 3.44M128.148 1c-1.782 1.403-3.788 2.625-5.348 4.164-3.966 3.892-3.922 4.707-3.922 9.821 2.897.996 5.794 2.127 8.691 2.942 6.195 1.765 11.81 2.399 18.183 3.168 5.303.634 14.841 1.72 22.283 2.625l25.76 1.81" stroke="#2158F5" stroke-miterlimit="22.926"/><path d="M140.984 20.507l-1.115-9.233L138.31 1m66.938 0c-1.292 1.81-2.584 3.62-3.921 5.386-2.184 2.399-4.368 4.843-6.596 7.241-1.56 2.263-1.337 2.761-.357 6.02 3.566.498 5.705-1.765 9.136-3.62 3.432-1.857 5.126-1.947 7.666-2.943M218.841 1c-1.649 2.082-3.565 3.711-4.991 6.2-1.471 2.49-2.407 4.98-2.897 6.97-1.382 6.02 5.883 5.703 9.002 5.703" stroke="#2158F5" stroke-miterlimit="22.926"/><path d="M212.379 18.56c-1.604 1.992-1.693 1.947-2.317 6.654-3.432 25.48.891 27.065 9.938 49.559m-25.67-55.126c.044 1.946-.713 3.802-.669 5.884.134 6.2 1.694 8.282 4.056 13.577 1.738 3.26 4.055 7.287 5.214 9.731 2.273 4.662 4.145 16.837 5.348 22.268l1.426 11.813 4.457 8.146 3.922-7.015 1.738-2.172" stroke="#2158F5" stroke-miterlimit="22.926"/><path d="M128.371 31.052c13.771 1.494 27.498 3.033 41.269 4.526l13.459.136c5.437-3.168 5.348-3.259 11.543-4.164" stroke="#2158F5" stroke-miterlimit="22.926"/><path d="M183.099 35.714l-11.587 9.052-13.861 1.448c-.356 2.444-.401 3.847 2.05 5.974m-20.233-.814c7.398 1.539 19.342 4.028 23.843 5.16 7.309 1.855 8.646 6.607 11.231 12.898" stroke="#2158F5" stroke-miterlimit="22.926"/><path d="M137.596 47.889l35.877 7.015 1.782-1.358 22.373 6.2 1.96 9.46 8.869 1.9m-8.868-1.9c-.535 10.59-3.521 15.84-12.657 14.573m-10.474-1.674l19.342 3.123m-21.392 21.045c5.66 9.369 17.159 8.69 27.498 10.727M220 111.614l-11.052-24.893.935-3.847M195.8 85.228l13.148 1.493M1 10.007l9.76-2.49 10.295-1.584" stroke="#2158F5" stroke-miterlimit="22.926"/></svg>