<svg width="225" height="112" fill="none" xmlns="http://www.w3.org/2000/svg"><mask id="a" fill="#fff"><path fill-rule="evenodd" clip-rule="evenodd" d="M14 85.474v-1.18h4.375v.959c-.37.368-.741.884-1.112 1.547a9.258 9.258 0 00-.89 2.137 6.808 6.808 0 00-.297 1.99h-1.26c0-.885.222-1.843.593-2.8.37-.959.816-1.77 1.41-2.58H14v-.073zm12.978-1.253h1.335v4.2c0 .516-.074.958-.148 1.253-.149.368-.371.663-.742.958-.37.22-.816.368-1.335.368-.667 0-1.187-.147-1.483-.516-.37-.368-.52-.884-.52-1.62l1.261-.148c0 .368.075.663.149.81a.78.78 0 00.667.369c.297 0 .52-.074.594-.221.148-.148.148-.516.148-1.032v-4.42h.074zm7.639 4.863l1.26-.147c.074.295.148.59.297.737.148.147.37.22.593.22.297 0 .52-.073.667-.294.149-.221.297-.442.297-.81 0-.295-.074-.59-.222-.737-.149-.221-.371-.295-.594-.295-.148 0-.37 0-.593.074l.148-1.032c.371 0 .594-.074.816-.221a.931.931 0 00.297-.663.667.667 0 00-.223-.516.675.675 0 00-.519-.221c-.222 0-.37.074-.593.221-.148.147-.222.368-.297.663l-1.186-.22c.074-.37.222-.738.37-.959.149-.22.371-.442.668-.59.297-.147.593-.22.964-.22.593 0 1.112.22 1.483.59.297.294.445.662.445 1.104 0 .59-.296 1.032-.964 1.4.371.074.668.295.89.516.223.295.37.59.37 1.032 0 .59-.222 1.105-.666 1.474-.446.442-.965.589-1.558.589-.593 0-1.112-.147-1.483-.516-.37-.22-.593-.663-.667-1.179zm10.085 1.769v-1.18l3.486-4.273h-3.115v-1.105h4.895v1.031l-3.634 4.495h3.782v1.105h-5.414v-.073zm10.828 0v-1.18l3.485-4.273H55.9v-1.105h4.895v1.031l-3.634 4.495h3.782v1.105H55.53v-.073zm11.198-1.695l1.26-.148c.075.295.149.516.297.664.148.147.37.22.593.22.297 0 .52-.073.668-.294.148-.221.296-.516.296-.958 0-.442-.074-.737-.296-.958-.149-.22-.445-.294-.742-.294-.37 0-.667.147-.964.515l-1.038-.147.667-3.463h3.412v1.179h-2.374l-.222 1.105a1.99 1.99 0 01.89-.221 1.9 1.9 0 011.409.59c.37.442.593.957.593 1.62 0 .516-.148 1.032-.445 1.474-.445.59-1.038.884-1.78.884-.593 0-1.112-.147-1.483-.516-.445-.294-.667-.736-.741-1.252zm14.61-3.316l-1.261.148a.834.834 0 00-.223-.59c-.148-.147-.297-.147-.52-.147a.78.78 0 00-.667.368c-.222.221-.296.737-.37 1.474.296-.369.741-.59 1.186-.59.52 0 .964.221 1.335.59.37.368.593.958.593 1.547 0 .663-.222 1.253-.593 1.621-.37.442-.89.59-1.557.59-.668 0-1.261-.295-1.632-.81-.445-.517-.667-1.4-.667-2.58 0-1.179.222-2.063.667-2.652A2.262 2.262 0 0179.41 84c.52 0 .89.147 1.26.442.372.442.594.81.668 1.4zm-2.893 2.726c0 .442.074.737.297.958.222.221.37.369.667.369.222 0 .445-.074.593-.295.149-.221.223-.516.223-.884 0-.442-.074-.737-.223-.958-.148-.221-.37-.295-.667-.295-.223 0-.445.074-.593.295-.149.147-.297.442-.297.81zm13.275-2.726l-1.261.148a.834.834 0 00-.223-.59c-.148-.147-.296-.147-.519-.147a.78.78 0 00-.667.368c-.223.221-.297.737-.371 1.474.297-.369.742-.59 1.187-.59.519 0 .964.221 1.335.59.37.368.593.958.593 1.547 0 .663-.223 1.253-.593 1.621-.371.442-.89.59-1.558.59-.667 0-1.26-.295-1.631-.81-.445-.517-.668-1.4-.668-2.58 0-1.179.223-2.063.668-2.652a2.262 2.262 0 011.78-.811c.519 0 .89.147 1.26.442.37.442.593.81.668 1.4zm-2.893 2.726c0 .442.075.737.297.958.223.221.37.369.667.369.223 0 .445-.074.594-.295.148-.221.222-.516.222-.884 0-.442-.074-.737-.222-.958-.149-.221-.371-.295-.668-.295-.222 0-.445.074-.593.295-.222.147-.297.442-.297.81zm10.68 2.285v-5.527h-2.003v-1.105h5.265v1.105h-1.928v5.527h-1.335zm9.047-5.38v-1.178h4.375v.958c-.37.368-.741.884-1.112 1.547-.371.663-.668 1.326-.816 2.137a6.822 6.822 0 00-.296 1.99h-1.261c0-.885.222-1.843.593-2.8.371-.959.816-1.77 1.409-2.58h-2.892v-.073zm11.495 1.77c-.297-.148-.594-.296-.742-.59a1.48 1.48 0 01-.222-.81c0-.517.148-.885.519-1.254a2.24 2.24 0 011.483-.515c.667 0 1.112.147 1.483.516.371.294.519.736.519 1.252 0 .295-.074.59-.222.81-.149.222-.371.443-.668.516.371.148.668.369.816.664.223.294.297.59.297.958a2.05 2.05 0 01-.594 1.473c-.37.369-.889.59-1.557.59-.593 0-1.112-.148-1.483-.442-.445-.369-.742-.885-.742-1.548 0-.368.074-.663.297-.958.148-.294.371-.516.816-.663zm.222-1.253a.83.83 0 00.223.589c.148.147.37.221.593.221a.845.845 0 00.593-.221.83.83 0 00.223-.59.831.831 0 00-.223-.589c-.148-.147-.296-.221-.593-.221a.843.843 0 00-.593.221c-.149.147-.223.295-.223.59zm-.074 2.8c0 .368.074.663.297.81.148.221.37.295.667.295.297 0 .445-.074.667-.295.149-.221.223-.442.223-.81 0-.295-.074-.59-.297-.737-.148-.221-.37-.295-.667-.295-.297 0-.519.074-.668.295-.148.294-.222.515-.222.737zm9.047.294l1.261-.147c.074.295.149.59.297.737a.845.845 0 00.593.22c.297 0 .519-.073.668-.294.148-.221.296-.442.296-.81 0-.295-.074-.59-.222-.737-.149-.221-.371-.295-.594-.295-.148 0-.37 0-.593.074l.148-1.032c.371 0 .594-.074.816-.221a.929.929 0 00.297-.663.665.665 0 00-.223-.516.674.674 0 00-.519-.221c-.222 0-.37.074-.593.221-.148.147-.222.368-.297.663l-1.186-.22c.074-.37.222-.738.371-.959.148-.22.37-.442.667-.59.297-.147.593-.22.964-.22.593 0 1.113.22 1.483.59.297.294.445.662.445 1.104 0 .59-.296 1.032-.964 1.4.371.074.668.295.89.516.223.295.371.59.371 1.032 0 .59-.223 1.105-.668 1.474-.444.442-.964.589-1.557.589s-1.112-.147-1.483-.516c-.371-.22-.593-.663-.668-1.179zm12.83 1.769v-1.327h-2.744v-1.105l2.892-4.2h1.039v4.2h.815v1.105h-.815v1.327h-1.187zm0-2.506v-2.284l-1.557 2.284h1.557zm7.861.81l1.261-.147c.074.295.148.516.296.664a.847.847 0 00.594.22c.296 0 .519-.073.667-.294.149-.221.297-.516.297-.958 0-.442-.074-.737-.297-.958-.148-.22-.445-.294-.741-.294-.371 0-.668.147-.964.515l-1.039-.147.668-3.463h3.411v1.179h-2.373l-.223 1.105a1.99 1.99 0 01.89-.221c.594 0 1.039.22 1.409.59.371.442.594.957.594 1.62a2.65 2.65 0 01-.445 1.474c-.445.59-1.038.884-1.78.884-.593 0-1.112-.147-1.483-.516a1.987 1.987 0 01-.742-1.252zm12.533-5.01c.668 0 1.113.221 1.483.663.445.516.668 1.474.668 2.727 0 1.252-.223 2.137-.668 2.726-.37.442-.89.663-1.483.663-.667 0-1.186-.22-1.557-.737-.371-.515-.594-1.4-.594-2.652 0-1.253.223-2.137.668-2.727.297-.442.816-.663 1.483-.663zm0 1.106a.571.571 0 00-.371.147c-.148.074-.222.295-.296.516-.074.294-.149.884-.149 1.695 0 .81.075 1.326.149 1.62.074.295.148.516.296.59.149.074.223.147.371.147a.57.57 0 00.371-.147c.148-.074.222-.295.297-.516.074-.295.148-.884.148-1.62 0-.811-.074-1.327-.148-1.622-.075-.295-.149-.516-.297-.59-.074-.22-.223-.22-.371-.22zm10.308-1.106c.668 0 1.113.221 1.484.663.445.516.667 1.474.667 2.727 0 1.252-.222 2.137-.667 2.726-.371.442-.89.663-1.484.663-.667 0-1.186-.22-1.557-.737-.371-.515-.593-1.4-.593-2.652 0-1.253.222-2.137.667-2.727.371-.442.89-.663 1.483-.663zm0 1.106a.566.566 0 00-.37.147c-.149.074-.223.295-.297.516-.074.294-.148.884-.148 1.695 0 .81.074 1.326.148 1.62.074.295.148.516.297.59.148.074.222.147.37.147a.567.567 0 00.371-.147c.148-.074.223-.295.297-.516.074-.295.148-.884.148-1.62 0-.811-.074-1.327-.148-1.622-.074-.295-.149-.516-.297-.59-.074-.22-.222-.22-.371-.22zm10.383-1.106c.667 0 1.112.221 1.483.663.445.516.667 1.474.667 2.727 0 1.252-.222 2.137-.667 2.726-.371.442-.89.663-1.483.663-.668 0-1.187-.22-1.558-.737-.37-.515-.593-1.4-.593-2.652 0-1.253.223-2.137.668-2.727.296-.442.815-.663 1.483-.663zm0 1.106a.567.567 0 00-.371.147c-.148.074-.223.295-.297.516-.074.294-.148.884-.148 1.695 0 .81.074 1.326.148 1.62.074.295.149.516.297.59.148.074.222.147.371.147a.571.571 0 00.371-.147c.148-.074.222-.295.296-.516.074-.295.149-.884.149-1.62 0-.811-.075-1.327-.149-1.622-.074-.295-.148-.516-.296-.59-.075-.22-.223-.22-.371-.22zm10.308-1.106c.667 0 1.112.221 1.483.663.445.516.668 1.474.668 2.727 0 1.252-.223 2.137-.668 2.726-.371.442-.89.663-1.483.663-.667 0-1.187-.22-1.557-.737-.371-.515-.594-1.4-.594-2.652 0-1.253.223-2.137.668-2.727.371-.442.816-.663 1.483-.663zm0 1.106a.57.57 0 00-.371.147c-.148.074-.222.295-.296.516-.075.294-.149.884-.149 1.695 0 .81.074 1.326.149 1.62.074.295.148.516.296.59.148.074.223.147.371.147a.57.57 0 00.371-.147c.148-.074.222-.295.296-.516.075-.295.149-.884.149-1.62 0-.811-.074-1.327-.149-1.622-.074-.295-.148-.516-.296-.59-.074-.22-.223-.22-.371-.22zm8.158 3.831l1.26-.147c.074.295.149.59.297.737a.845.845 0 00.593.22c.297 0 .519-.073.668-.294.148-.221.296-.442.296-.81 0-.295-.074-.59-.222-.737-.149-.221-.371-.295-.593-.295-.149 0-.371 0-.594.074l.149-1.032c.37 0 .593-.074.815-.221a.929.929 0 00.297-.663.665.665 0 00-.223-.516.674.674 0 00-.519-.221c-.222 0-.37.074-.593.221-.148.147-.222.368-.297.663l-1.186-.22c.074-.37.222-.738.371-.959.148-.22.37-.442.667-.59.297-.147.593-.22.964-.22.593 0 1.113.22 1.483.59.297.294.445.662.445 1.104 0 .59-.296 1.032-.964 1.4.371.074.668.295.89.516.223.295.371.59.371 1.032 0 .59-.222 1.105-.667 1.474-.445.442-.965.589-1.558.589-.593 0-1.112-.147-1.483-.516-.371-.22-.593-.663-.667-1.179z"/></mask><path fill-rule="evenodd" clip-rule="evenodd" d="M14 85.474v-1.18h4.375v.959c-.37.368-.741.884-1.112 1.547a9.258 9.258 0 00-.89 2.137 6.808 6.808 0 00-.297 1.99h-1.26c0-.885.222-1.843.593-2.8.37-.959.816-1.77 1.41-2.58H14v-.073zm12.978-1.253h1.335v4.2c0 .516-.074.958-.148 1.253-.149.368-.371.663-.742.958-.37.22-.816.368-1.335.368-.667 0-1.187-.147-1.483-.516-.37-.368-.52-.884-.52-1.62l1.261-.148c0 .368.075.663.149.81a.78.78 0 00.667.369c.297 0 .52-.074.594-.221.148-.148.148-.516.148-1.032v-4.42h.074zm7.639 4.863l1.26-.147c.074.295.148.59.297.737.148.147.37.22.593.22.297 0 .52-.073.667-.294.149-.221.297-.442.297-.81 0-.295-.074-.59-.222-.737-.149-.221-.371-.295-.594-.295-.148 0-.37 0-.593.074l.148-1.032c.371 0 .594-.074.816-.221a.931.931 0 00.297-.663.667.667 0 00-.223-.516.675.675 0 00-.519-.221c-.222 0-.37.074-.593.221-.148.147-.222.368-.297.663l-1.186-.22c.074-.37.222-.738.37-.959.149-.22.371-.442.668-.59.297-.147.593-.22.964-.22.593 0 1.112.22 1.483.59.297.294.445.662.445 1.104 0 .59-.296 1.032-.964 1.4.371.074.668.295.89.516.223.295.37.59.37 1.032 0 .59-.222 1.105-.666 1.474-.446.442-.965.589-1.558.589-.593 0-1.112-.147-1.483-.516-.37-.22-.593-.663-.667-1.179zm10.085 1.769v-1.18l3.486-4.273h-3.115v-1.105h4.895v1.031l-3.634 4.495h3.782v1.105h-5.414v-.073zm10.828 0v-1.18l3.485-4.273H55.9v-1.105h4.895v1.031l-3.634 4.495h3.782v1.105H55.53v-.073zm11.198-1.695l1.26-.148c.075.295.149.516.297.664.148.147.37.22.593.22.297 0 .52-.073.668-.294.148-.221.296-.516.296-.958 0-.442-.074-.737-.296-.958-.149-.22-.445-.294-.742-.294-.37 0-.667.147-.964.515l-1.038-.147.667-3.463h3.412v1.179h-2.374l-.222 1.105a1.99 1.99 0 01.89-.221 1.9 1.9 0 011.409.59c.37.442.593.957.593 1.62 0 .516-.148 1.032-.445 1.474-.445.59-1.038.884-1.78.884-.593 0-1.112-.147-1.483-.516-.445-.294-.667-.736-.741-1.252zm14.61-3.316l-1.261.148a.834.834 0 00-.223-.59c-.148-.147-.297-.147-.52-.147a.78.78 0 00-.667.368c-.222.221-.296.737-.37 1.474.296-.369.741-.59 1.186-.59.52 0 .964.221 1.335.59.37.368.593.958.593 1.547 0 .663-.222 1.253-.593 1.621-.37.442-.89.59-1.557.59-.668 0-1.261-.295-1.632-.81-.445-.517-.667-1.4-.667-2.58 0-1.179.222-2.063.667-2.652A2.262 2.262 0 0179.41 84c.52 0 .89.147 1.26.442.372.442.594.81.668 1.4zm-2.893 2.726c0 .442.074.737.297.958.222.221.37.369.667.369.222 0 .445-.074.593-.295.149-.221.223-.516.223-.884 0-.442-.074-.737-.223-.958-.148-.221-.37-.295-.667-.295-.223 0-.445.074-.593.295-.149.147-.297.442-.297.81zm13.275-2.726l-1.261.148a.834.834 0 00-.223-.59c-.148-.147-.296-.147-.519-.147a.78.78 0 00-.667.368c-.223.221-.297.737-.371 1.474.297-.369.742-.59 1.187-.59.519 0 .964.221 1.335.59.37.368.593.958.593 1.547 0 .663-.223 1.253-.593 1.621-.371.442-.89.59-1.558.59-.667 0-1.26-.295-1.631-.81-.445-.517-.668-1.4-.668-2.58 0-1.179.223-2.063.668-2.652a2.262 2.262 0 011.78-.811c.519 0 .89.147 1.26.442.37.442.593.81.668 1.4zm-2.893 2.726c0 .442.075.737.297.958.223.221.37.369.667.369.223 0 .445-.074.594-.295.148-.221.222-.516.222-.884 0-.442-.074-.737-.222-.958-.149-.221-.371-.295-.668-.295-.222 0-.445.074-.593.295-.222.147-.297.442-.297.81zm10.68 2.285v-5.527h-2.003v-1.105h5.265v1.105h-1.928v5.527h-1.335zm9.047-5.38v-1.178h4.375v.958c-.37.368-.741.884-1.112 1.547-.371.663-.668 1.326-.816 2.137a6.822 6.822 0 00-.296 1.99h-1.261c0-.885.222-1.843.593-2.8.371-.959.816-1.77 1.409-2.58h-2.892v-.073zm11.495 1.77c-.297-.148-.594-.296-.742-.59a1.48 1.48 0 01-.222-.81c0-.517.148-.885.519-1.254a2.24 2.24 0 011.483-.515c.667 0 1.112.147 1.483.516.371.294.519.736.519 1.252 0 .295-.074.59-.222.81-.149.222-.371.443-.668.516.371.148.668.369.816.664.223.294.297.59.297.958a2.05 2.05 0 01-.594 1.473c-.37.369-.889.59-1.557.59-.593 0-1.112-.148-1.483-.442-.445-.369-.742-.885-.742-1.548 0-.368.074-.663.297-.958.148-.294.371-.516.816-.663zm.222-1.253a.83.83 0 00.223.589c.148.147.37.221.593.221a.845.845 0 00.593-.221.83.83 0 00.223-.59.831.831 0 00-.223-.589c-.148-.147-.296-.221-.593-.221a.843.843 0 00-.593.221c-.149.147-.223.295-.223.59zm-.074 2.8c0 .368.074.663.297.81.148.221.37.295.667.295.297 0 .445-.074.667-.295.149-.221.223-.442.223-.81 0-.295-.074-.59-.297-.737-.148-.221-.37-.295-.667-.295-.297 0-.519.074-.668.295-.148.294-.222.515-.222.737zm9.047.294l1.261-.147c.074.295.149.59.297.737a.845.845 0 00.593.22c.297 0 .519-.073.668-.294.148-.221.296-.442.296-.81 0-.295-.074-.59-.222-.737-.149-.221-.371-.295-.594-.295-.148 0-.37 0-.593.074l.148-1.032c.371 0 .594-.074.816-.221a.929.929 0 00.297-.663.665.665 0 00-.223-.516.674.674 0 00-.519-.221c-.222 0-.37.074-.593.221-.148.147-.222.368-.297.663l-1.186-.22c.074-.37.222-.738.371-.959.148-.22.37-.442.667-.59.297-.147.593-.22.964-.22.593 0 1.113.22 1.483.59.297.294.445.662.445 1.104 0 .59-.296 1.032-.964 1.4.371.074.668.295.89.516.223.295.371.59.371 1.032 0 .59-.223 1.105-.668 1.474-.444.442-.964.589-1.557.589s-1.112-.147-1.483-.516c-.371-.22-.593-.663-.668-1.179zm12.83 1.769v-1.327h-2.744v-1.105l2.892-4.2h1.039v4.2h.815v1.105h-.815v1.327h-1.187zm0-2.506v-2.284l-1.557 2.284h1.557zm7.861.81l1.261-.147c.074.295.148.516.296.664a.847.847 0 00.594.22c.296 0 .519-.073.667-.294.149-.221.297-.516.297-.958 0-.442-.074-.737-.297-.958-.148-.22-.445-.294-.741-.294-.371 0-.668.147-.964.515l-1.039-.147.668-3.463h3.411v1.179h-2.373l-.223 1.105a1.99 1.99 0 01.89-.221c.594 0 1.039.22 1.409.59.371.442.594.957.594 1.62a2.65 2.65 0 01-.445 1.474c-.445.59-1.038.884-1.78.884-.593 0-1.112-.147-1.483-.516a1.987 1.987 0 01-.742-1.252zm12.533-5.01c.668 0 1.113.221 1.483.663.445.516.668 1.474.668 2.727 0 1.252-.223 2.137-.668 2.726-.37.442-.89.663-1.483.663-.667 0-1.186-.22-1.557-.737-.371-.515-.594-1.4-.594-2.652 0-1.253.223-2.137.668-2.727.297-.442.816-.663 1.483-.663zm0 1.106a.571.571 0 00-.371.147c-.148.074-.222.295-.296.516-.074.294-.149.884-.149 1.695 0 .81.075 1.326.149 1.62.074.295.148.516.296.59.149.074.223.147.371.147a.57.57 0 00.371-.147c.148-.074.222-.295.297-.516.074-.295.148-.884.148-1.62 0-.811-.074-1.327-.148-1.622-.075-.295-.149-.516-.297-.59-.074-.22-.223-.22-.371-.22zm10.308-1.106c.668 0 1.113.221 1.484.663.445.516.667 1.474.667 2.727 0 1.252-.222 2.137-.667 2.726-.371.442-.89.663-1.484.663-.667 0-1.186-.22-1.557-.737-.371-.515-.593-1.4-.593-2.652 0-1.253.222-2.137.667-2.727.371-.442.89-.663 1.483-.663zm0 1.106a.566.566 0 00-.37.147c-.149.074-.223.295-.297.516-.074.294-.148.884-.148 1.695 0 .81.074 1.326.148 1.62.074.295.148.516.297.59.148.074.222.147.37.147a.567.567 0 00.371-.147c.148-.074.223-.295.297-.516.074-.295.148-.884.148-1.62 0-.811-.074-1.327-.148-1.622-.074-.295-.149-.516-.297-.59-.074-.22-.222-.22-.371-.22zm10.383-1.106c.667 0 1.112.221 1.483.663.445.516.667 1.474.667 2.727 0 1.252-.222 2.137-.667 2.726-.371.442-.89.663-1.483.663-.668 0-1.187-.22-1.558-.737-.37-.515-.593-1.4-.593-2.652 0-1.253.223-2.137.668-2.727.296-.442.815-.663 1.483-.663zm0 1.106a.567.567 0 00-.371.147c-.148.074-.223.295-.297.516-.074.294-.148.884-.148 1.695 0 .81.074 1.326.148 1.62.074.295.149.516.297.59.148.074.222.147.371.147a.571.571 0 00.371-.147c.148-.074.222-.295.296-.516.074-.295.149-.884.149-1.62 0-.811-.075-1.327-.149-1.622-.074-.295-.148-.516-.296-.59-.075-.22-.223-.22-.371-.22zm10.308-1.106c.667 0 1.112.221 1.483.663.445.516.668 1.474.668 2.727 0 1.252-.223 2.137-.668 2.726-.371.442-.89.663-1.483.663-.667 0-1.187-.22-1.557-.737-.371-.515-.594-1.4-.594-2.652 0-1.253.223-2.137.668-2.727.371-.442.816-.663 1.483-.663zm0 1.106a.57.57 0 00-.371.147c-.148.074-.222.295-.296.516-.075.294-.149.884-.149 1.695 0 .81.074 1.326.149 1.62.074.295.148.516.296.59.148.074.223.147.371.147a.57.57 0 00.371-.147c.148-.074.222-.295.296-.516.075-.295.149-.884.149-1.62 0-.811-.074-1.327-.149-1.622-.074-.295-.148-.516-.296-.59-.074-.22-.223-.22-.371-.22zm8.158 3.831l1.26-.147c.074.295.149.59.297.737a.845.845 0 00.593.22c.297 0 .519-.073.668-.294.148-.221.296-.442.296-.81 0-.295-.074-.59-.222-.737-.149-.221-.371-.295-.593-.295-.149 0-.371 0-.594.074l.149-1.032c.37 0 .593-.074.815-.221a.929.929 0 00.297-.663.665.665 0 00-.223-.516.674.674 0 00-.519-.221c-.222 0-.37.074-.593.221-.148.147-.222.368-.297.663l-1.186-.22c.074-.37.222-.738.371-.959.148-.22.37-.442.667-.59.297-.147.593-.22.964-.22.593 0 1.113.22 1.483.59.297.294.445.662.445 1.104 0 .59-.296 1.032-.964 1.4.371.074.668.295.89.516.223.295.371.59.371 1.032 0 .59-.222 1.105-.667 1.474-.445.442-.965.589-1.558.589-.593 0-1.112-.147-1.483-.516-.371-.22-.593-.663-.667-1.179z" fill="#fff" stroke="#2158F5" stroke-width="2" mask="url(#a)"/><path clip-rule="evenodd" d="M6.356 1h212.288A5.342 5.342 0 01224 6.373v99.254a5.342 5.342 0 01-5.356 5.373H6.356A5.342 5.342 0 011 105.627V6.373C1 3.463 3.38 1 6.356 1z" stroke="#2158F5" stroke-miterlimit="22.926"/><path clip-rule="evenodd" d="M18.113 9h193.774c.594 0 1.113.179 1.113.383v4.234c0 .204-.519.383-1.113.383H18.113c-.594 0-1.113-.179-1.113-.383V9.383c0-.204.52-.383 1.113-.383zm194.351 88h-42.928a.52.52 0 00-.536.527v5.946c0 .301.23.527.536.527h42.928a.52.52 0 00.536-.527v-5.946a.52.52 0 00-.536-.527zM17.521 97H144.48c.298 0 .521.226.521.527v5.946a.512.512 0 01-.521.527H17.521a.512.512 0 01-.521-.527v-5.87c0-.302.223-.603.521-.603zm.591-55h193.776c.593 0 1.112-.802 1.112-1.719V21.72c0-.917-.519-1.719-1.112-1.719H18.112C17.52 20 17 20.802 17 21.719V40.28c0 .917.52 1.719 1.112 1.719z" stroke="#2158F5" stroke-miterlimit="22.926"/><circle cx="7.5" cy="7.5" r="1.5" fill="#2158F5"/><circle cx="7.5" cy="105.5" r="1.5" fill="#2158F5"/><circle cx="217.5" cy="7.5" r="1.5" fill="#2158F5"/><circle cx="217.5" cy="105.5" r="1.5" fill="#2158F5"/><path d="M17.914 53h1.304v22h-1.304V53zm62.622 0h1.305v22h-1.305V53zm62.623 0h1.305v22h-1.305V53zM14 53h1.305v22H14V53zm22.179 0h1.304v22H36.18V53zm62.622 0h1.305v22h-1.305V53zm62.623 0h1.304v22h-1.304V53zm-99.152 0h1.304v22h-1.304V53zm62.622 0h1.305v22h-1.305V53zm62.623 0h1.304v22h-1.304V53zM20.523 53h2.61v22h-2.61V53zm62.623 0h2.609v22h-2.61V53zm62.622 0h2.609v22h-2.609V53zm-88.715 0h2.61v22h-2.61V53zm62.622 0h2.61v22h-2.61V53zm62.623 0h2.609v22h-2.609V53zm26.093 0H211v22h-2.609V53zM40.093 53h2.609v22h-2.61V53zm62.622 0h2.61v22h-2.61V53zm62.623 0h2.609v22h-2.609V53zM25.742 53h1.304v22h-1.304V53zm62.622 0h1.305v22h-1.305V53zm62.623 0h1.304v22h-1.304V53zM45.311 53h1.305v22H45.31V53zm62.623 0h1.304v22h-1.304V53zm62.622 0h1.305v22h-1.305V53zm-99.152 0h1.305v22h-1.305V53zm62.622 0h1.305v22h-1.305V53zm62.623 0h1.305v22h-1.305V53zM50.53 53h1.304v22H50.53V53zm62.622 0h1.305v22h-1.305V53zm62.623 0h1.304v22h-1.304V53zm-99.152 0h1.304v22h-1.305V53zm62.622 0h1.305v22h-1.305V53zm62.623 0h1.304v22h-1.304V53z" fill="#2158F5"/></svg>