<svg width="57" height="34" fill="none" xmlns="http://www.w3.org/2000/svg"><path fill-rule="evenodd" clip-rule="evenodd" d="M22.596 9.075H11.378a.213.213 0 00-.107.029c-.377.219-.222.796.214.796H22.26c.104-.279.216-.554.336-.825z" fill="#008A48"/><path d="M7.418 12.888l5.173 1.89c.043.016.109.08.109.196 0 .07-.026.125-.057.159-.03.033-.06.042-.082.042H8.856c-.927 0-1.756-.84-1.756-1.975 0-.13.057-.225.122-.276.063-.05.13-.06.196-.036z" stroke="#008A48"/><path d="M.315 28.687c-.32-.534-.316-1.12-.315-1.312V13.921a3.53 3.53 0 011.033-2.496l1.202-1.204a2.207 2.207 0 01-.608-.556c-.278-.372-.45-.853-.45-1.427V5.884h5.352c.43-.521 1.144-1.514 1.827-2.88C8.918 1.88 9.659 1.107 10.5.626A4.863 4.863 0 0112.935 0h19.99c.577 0 1.19.297 1.725.745l-.528.631c-.456-.382-.887-.553-1.197-.553h-19.99c-.635 0-1.345.127-2.027.517-.685.392-1.319 1.035-1.817 2.032-.712 1.426-1.462 2.47-1.927 3.035l-.247.3H1.998v1.531c0 .586.252.987.588 1.23l.084.055.879.548-1.935 1.936a2.707 2.707 0 00-.792 1.914V27.38c-.001.181.005.56.198.883.226.378.653.613 1.332.613h5.88c.253 0 .624-.073.941-.302.336-.242.588-.643.588-1.229h.822c0 .855-.382 1.502-.93 1.897a2.487 2.487 0 01-1.421.457h-5.88c-.874 0-1.62-.316-2.037-1.013z" fill="#008A48"/><rect x="10.725" y="24.75" width="15.675" height=".825" rx=".413" fill="#008A48"/><path d="M10.725 20.625c0 .825.44 1.65 2.2 1.65h11" stroke="#008A48"/><circle cx="39.6" cy="16.5" r="14.85" fill="#DCFFED"/><path d="M56.1 16.5c0 9.113-7.387 16.5-16.5 16.5" stroke="#008A48" stroke-dasharray="1 2"/><path d="M42.488 16.913l5.4 5.165a1.278 1.278 0 010 1.807l-.903.903c-.5.5-1.309.5-1.808 0l-5.577-5.4m-.658 1.142a.78.78 0 00-.228.552v.915a.78.78 0 01-1.334.553l-6.384-6.384a.781.781 0 01.552-1.334h.916a.78.78 0 00.552-.229l4.687-4.687a.781.781 0 00.23-.552v-.916a.781.781 0 011.333-.552l6.384 6.384a.781.781 0 01-.553 1.334h-.915a.78.78 0 00-.552.228l-4.688 4.688zm-2.734 3.057l-6.25-6.25a.876.876 0 00-1.239 1.24l6.25 6.25a.876.876 0 101.24-1.24zm4.23-16.729l6.25 6.25a.876.876 0 101.238-1.239l-6.25-6.25a.876.876 0 00-1.238 1.24z" stroke="#008A48"/></svg>