<svg fill="none" height="47" width="43" xmlns="http://www.w3.org/2000/svg"><mask id="a" fill="#fff"><path clip-rule="evenodd" d="M36.336 34.02c3.5-3.5 5.664-8.336 5.664-13.676C42 9.66 33.34 1 22.656 1 11.973 1 3.313 9.66 3.313 20.344a19.27 19.27 0 004.82 12.776c-.352.1-.708.2-1.065.296a20.262 20.262 0 01-4.755-13.072C2.313 9.108 11.42 0 22.655 0 33.892 0 43 9.108 43 20.344a20.29 20.29 0 01-6.62 15.018c.403-.513.653-.946.714-1.26z" fill-rule="evenodd"/></mask><path clip-rule="evenodd" d="M25.51 37.146c8.065-1.358 14.209-8.374 14.209-16.825 0-9.424-7.64-17.063-17.063-17.063S5.594 10.898 5.594 20.321c0 4.674 1.879 8.909 4.923 11.99a87.52 87.52 0 002.694-1.093 2.035 2.035 0 011.786.087l10.513 5.84z" fill="#ece8ff" fill-rule="evenodd"/><path clip-rule="evenodd" d="M24.033 36.325c8.227-.698 14.686-7.597 14.686-16.004 0-8.871-7.192-16.063-16.063-16.063-8.87 0-16.062 7.192-16.062 16.063a16.02 16.02 0 004.94 11.59c-.328.131-.669.266-1.017.4a17.008 17.008 0 01-4.923-11.99c0-9.424 7.639-17.063 17.062-17.063 9.424 0 17.063 7.64 17.063 17.063 0 8.45-6.144 15.467-14.21 16.825l-1.476-.82z" fill="#2e1c75" fill-rule="evenodd"/><path d="M36.336 34.02l-.354-.353-.738.738 1.038.112zm-28.204-.9l.137.481.762-.217-.524-.594zm-1.064.296l-.383.322.205.244.309-.083zm29.312 1.946l-.393-.31.73.679-.337-.37zm.714-1.26l.49.095.104-.534-.54-.058zm-.812.415l.19.02.107-.993-.19-.02zm.569.062l.189.02.108-.994-.19-.02zm-.248-.572a1.08 1.08 0 01-.081.228l.906.422c.07-.15.127-.306.157-.46zm-.411.773c-.062.087-.13.178-.205.273l.786.618c.083-.106.161-.21.233-.311zm.525.95c.266-.243.526-.493.78-.75l-.713-.702c-.24.245-.488.483-.742.715l.675.738zm2.217-2.365a21.04 21.04 0 001.263-1.756l-.841-.541a19.919 19.919 0 01-1.203 1.671l.78.626zm2.337-3.633c.324-.642.616-1.302.874-1.98l-.935-.355a19.724 19.724 0 01-.831 1.884l.892.45zm1.536-4.038a20.74 20.74 0 00.444-2.118l-.988-.154a19.745 19.745 0 01-.423 2.015l.967.256zm.665-4.27c.019-.357.028-.718.028-1.08h-1c0 .345-.009.689-.026 1.03zm.028-1.08c0-.343-.008-.684-.025-1.023l-.998.048c.015.323.023.648.023.975zm-.223-3.06a20.74 20.74 0 00-.397-2.006l-.97.242c.156.625.283 1.263.378 1.91l.99-.145zm-.99-3.964a20.75 20.75 0 00-.784-1.89l-.904.428c.277.584.526 1.184.746 1.798l.942-.337zm-1.75-3.694a20.905 20.905 0 00-1.138-1.7l-.803.597c.387.52.749 1.06 1.084 1.618zM38.1 6.346a20.96 20.96 0 00-1.446-1.447l-.672.741c.482.437.941.896 1.378 1.378zM35.075 3.6a20.871 20.871 0 00-1.7-1.138l-.515.857a19.66 19.66 0 011.618 1.084zM31.57 1.497a20.719 20.719 0 00-1.89-.784l-.337.942c.615.22 1.215.469 1.8.746zM27.722.12a20.746 20.746 0 00-2.007-.397l-.145.99a19.72 19.72 0 011.91.377zM23.68-.475C23.341-.492 23-.5 22.657-.5v1c.327 0 .652.008.975.023zM22.656-.5c-.343 0-.684.008-1.022.025l.048.998c.323-.015.648-.023.974-.023zm-3.059.223c-.68.1-1.35.233-2.007.397l.242.97a19.744 19.744 0 011.91-.378l-.145-.99zm-3.965.99a20.75 20.75 0 00-1.89.784l.428.904a19.709 19.709 0 011.799-.746zm-3.693 1.75c-.586.352-1.154.732-1.7 1.138l.596.803c.52-.387 1.06-.749 1.619-1.084zm-3.28 2.436c-.506.459-.989.941-1.447 1.447l.74.672c.437-.482.897-.941 1.378-1.378l-.672-.74zM5.912 7.926a20.88 20.88 0 00-1.138 1.7l.858.515c.335-.558.697-1.098 1.083-1.618zM3.81 11.43a20.632 20.632 0 00-.784 1.89l.941.336c.22-.614.47-1.214.746-1.798zm-1.377 3.848a20.747 20.747 0 00-.398 2.007l.99.145c.095-.647.222-1.285.378-1.91zm-.596 4.043c-.016.339-.024.68-.024 1.023h1c0-.327.007-.652.023-.975zm-.024 1.023c0 .304.006.607.019.908l.999-.043a20.184 20.184 0 01-.018-.865zm.175 2.72c.08.605.184 1.202.314 1.79l.976-.215a19.782 19.782 0 01-.298-1.705zm.783 3.547c.183.58.39 1.15.622 1.708l.924-.383a19.67 19.67 0 01-.592-1.626l-.954.3zm1.391 3.356c.28.538.585 1.063.91 1.573l.843-.538c-.31-.485-.599-.985-.866-1.498zm1.953 3.062c.185.24.375.476.57.708l.766-.643c-.186-.22-.367-.445-.542-.674zm1.084.87l.267-.074-.264-.964-.265.072zm.803-.222l.267-.076-.274-.962-.264.075.27.963zm.505-.887c-.25-.283-.49-.574-.723-.872l-.788.614c.244.314.498.62.76.919zm-2.005-2.74a18.787 18.787 0 01-1.05-2.006l-.912.409a19.81 19.81 0 001.105 2.114l.857-.516zm-1.85-4.125a18.708 18.708 0 01-.537-2.2l-.984.179c.143.79.333 1.563.566 2.317l.956-.296zm-.806-4.448a19.136 19.136 0 01-.034-1.133h-1c0 .4.012.798.036 1.192l.998-.06zm-.034-1.133c0-.31.008-.62.023-.926l-.999-.048a20.17 20.17 0 00-.023.974h1zm.202-2.767c.09-.615.21-1.22.359-1.814l-.97-.242a19.745 19.745 0 00-.378 1.91l.99.146zm.895-3.584c.209-.583.445-1.153.708-1.708l-.903-.428a19.725 19.725 0 00-.746 1.8zm1.582-3.338c.318-.53.661-1.042 1.028-1.537l-.802-.596a19.66 19.66 0 00-1.084 1.618zM8.694 7.69c.414-.457.85-.893 1.308-1.308l-.672-.74c-.481.436-.94.895-1.377 1.376l.74.672zm2.737-2.482c.494-.367 1.007-.71 1.537-1.029l-.515-.857c-.558.335-1.098.697-1.618 1.083zm3.167-1.902c.555-.263 1.125-.5 1.708-.708l-.337-.942c-.614.22-1.215.47-1.8.746zm3.478-1.244a18.648 18.648 0 011.814-.36l-.146-.989c-.648.095-1.285.222-1.91.378l.242.97zm3.655-.539c.306-.014.615-.022.925-.022v-1c-.326 0-.65.008-.973.023l.048 1zm.925-.022c.31 0 .62.008.926.022l.048-.999A20.164 20.164 0 0022.656.5v1zm2.767.202c.615.09 1.22.21 1.814.359l.242-.97a19.743 19.743 0 00-1.91-.379zm3.584.895c.583.208 1.153.445 1.708.708l.428-.904a19.725 19.725 0 00-1.8-.746l-.337.942zm3.338 1.581c.53.318 1.042.662 1.537 1.029l.596-.803c-.52-.386-1.06-.748-1.618-1.083zm2.966 2.203c.457.415.893.851 1.308 1.308l.74-.672c-.436-.48-.895-.94-1.376-1.377zm2.482 2.737c.367.495.71 1.008 1.029 1.537l.857-.515a19.87 19.87 0 00-1.083-1.618zm1.902 3.167c.263.555.5 1.125.708 1.708l.942-.337c-.22-.614-.47-1.214-.746-1.799zm1.245 3.478c.148.594.268 1.2.358 1.814l.99-.145a19.745 19.745 0 00-.378-1.911zm.538 3.655c.014.307.022.615.022.926h1c0-.327-.008-.651-.023-.974l-1 .048zm.022.926c0 .31-.008.618-.022.925l.998.048c.016-.322.024-.647.024-.973zm-.202 2.766c-.09.614-.21 1.22-.358 1.814l.97.242c.156-.626.283-1.263.378-1.91zm-.894 3.583a18.743 18.743 0 01-.708 1.708l.903.428c.277-.585.527-1.185.746-1.8zm-1.581 3.338c-.318.53-.662 1.042-1.029 1.537l.803.596c.386-.52.748-1.06 1.083-1.618zm-2.203 2.966a19.2 19.2 0 01-.638.67l.708.707c.23-.23.453-.465.671-.706l-.74-.671zm-.284 1.023l-.707-.707-1.477 1.477 2.076.224zm-28.204-.9l.274.962 1.523-.434-1.046-1.189-.75.661zm-1.064.296l-.766.643.41.49.617-.168zm29.312 1.946l-.786-.619 1.46 1.357zm.714-1.26l.981.19.207-1.067-1.08-.117zm-.866.912l.19.02.215-1.988-.19-.02zm.569.062l.19.02.214-1.988-.19-.02zm-.685-1.164l-.008.026a.94.94 0 01-.035.086l1.813.844a2.5 2.5 0 00.194-.576zm-.328.578c-.056.08-.12.164-.19.253l1.572 1.237a8.32 8.32 0 00.247-.33zm1.27 1.61c.273-.25.54-.506.798-.768l-1.424-1.405c-.235.239-.476.47-.723.697l1.35 1.476zm2.27-2.423c.46-.575.893-1.175 1.293-1.797l-1.682-1.083a19.38 19.38 0 01-1.172 1.63l1.56 1.25zm2.393-3.72a21.32 21.32 0 00.895-2.026l-1.87-.712c-.238.629-.51 1.241-.81 1.836zm1.573-4.136c.188-.709.34-1.432.455-2.168l-1.976-.307a19.205 19.205 0 01-.412 1.963zm.682-4.37c.018-.367.028-.736.028-1.107h-2c0 .337-.009.672-.026 1.004zM44 20.344c0-.351-.008-.7-.025-1.047l-1.998.096c.015.315.023.632.023.95h2zm-.228-3.132a21.249 21.249 0 00-.407-2.055l-1.94.484c.152.61.275 1.23.368 1.862l1.979-.29zm-1.015-4.06a21.204 21.204 0 00-.802-1.936l-1.808.856c.27.57.513 1.154.727 1.753l1.883-.674zm-1.791-3.783c-.36-.6-.75-1.181-1.166-1.74L38.195 8.82c.377.507.73 1.034 1.056 1.578l1.715-1.03zm-2.495-3.36a21.466 21.466 0 00-1.48-1.48l-1.344 1.482c.469.425.917.873 1.342 1.342l1.482-1.343zm-3.1-2.81a21.608 21.608 0 00-1.74-1.165l-1.03 1.715c.544.326 1.07.68 1.578 1.056L35.372 3.2zm-3.587-2.154A21.22 21.22 0 0029.85.243l-.674 1.883c.599.214 1.183.457 1.753.727l.857-1.808zm-3.94-1.41a21.239 21.239 0 00-2.056-.407l-.291 1.979c.631.093 1.252.216 1.862.368l.484-1.94zm-4.14-.61A21.686 21.686 0 0022.655-1v2c.319 0 .636.008.95.023l.097-1.998zM22.655-1c-.35 0-.7.008-1.047.025l.097 1.998c.315-.015.631-.023.95-.023zm-3.131.228c-.697.103-1.383.239-2.056.407l.485 1.94c.61-.152 1.23-.275 1.862-.368zM15.464.243a21.22 21.22 0 00-1.936.802l.856 1.808c.57-.27 1.155-.513 1.753-.727zM11.68 2.034c-.6.36-1.18.75-1.74 1.166l1.192 1.605c.508-.377 1.034-.73 1.578-1.056zM8.322 4.53a21.47 21.47 0 00-1.48 1.48l1.481 1.344c.426-.469.874-.917 1.343-1.342L8.322 4.529zm-2.81 3.1a21.38 21.38 0 00-1.165 1.74l1.714 1.03c.327-.544.68-1.07 1.057-1.578L5.512 7.628zm-2.154 3.587a21.22 21.22 0 00-.803 1.935l1.883.674c.214-.599.457-1.183.727-1.753zm-1.41 3.94a21.237 21.237 0 00-.407 2.056l1.978.291c.093-.631.217-1.252.369-1.862l-1.94-.484zm-.61 4.14c-.017.348-.026.697-.026 1.048h2c0-.319.008-.636.023-.95l-1.997-.097zm-.026 1.048c0 .311.007.621.02.93l1.999-.086c-.012-.28-.018-.561-.018-.844h-2zm.18 2.784c.081.62.189 1.232.322 1.834l1.953-.431c-.12-.546-.218-1.1-.291-1.662l-1.983.259zm.802 3.633c.188.595.4 1.178.637 1.75l1.848-.766a19.185 19.185 0 01-.577-1.585l-1.908.6zm1.425 3.437c.287.552.598 1.09.932 1.611l1.686-1.076a19.31 19.31 0 01-.845-1.46zm2 3.135c.189.247.383.488.583.726l1.532-1.286a19.758 19.758 0 01-.529-.658L5.72 33.333zm1.61 1.048l.27-.073-.53-1.93-.263.073zm.808-.223l.27-.076-.549-1.923-.262.074zm.746-1.699a17.897 17.897 0 01-.704-.849L6.6 32.84c.251.321.511.635.78.941l1.502-1.322zM6.93 29.793a18.28 18.28 0 01-1.021-1.954l-1.825.819c.335.747.713 1.47 1.133 2.167zm-1.8-4.016a18.214 18.214 0 01-.523-2.14l-1.968.356c.147.81.341 1.603.58 2.376zm-.785-4.33a18.64 18.64 0 01-.032-1.103h-2c0 .41.012.817.036 1.222zm-.032-1.103c0-.303.007-.603.021-.902l-1.997-.096c-.016.33-.025.663-.025.998h2zm.196-2.694a18.02 18.02 0 01.35-1.766L2.917 15.4c-.16.641-.29 1.295-.388 1.959l1.979.29zm.87-3.488a18.52 18.52 0 01.69-1.663l-1.807-.856c-.284.6-.54 1.215-.765 1.845l1.883.674zm1.54-3.25a18.38 18.38 0 011.002-1.495L6.315 8.224a20.376 20.376 0 00-1.11 1.659l1.714 1.03zm2.145-2.887c.404-.445.829-.87 1.274-1.273L8.994 5.27a20.46 20.46 0 00-1.411 1.412zm2.665-2.417c.481-.357.98-.692 1.496-1.001l-1.03-1.715c-.572.344-1.125.715-1.659 1.11zm3.083-1.851c.54-.256 1.095-.486 1.662-.69l-.673-1.883c-.63.226-1.246.481-1.845.765zm3.385-1.211a18.247 18.247 0 011.765-.35l-.29-1.978a20.09 20.09 0 00-1.96.387l.485 1.94zm3.558-.524c.299-.015.599-.022.901-.022V0c-.334 0-.667.008-.998.024zM22.656 2c.303 0 .603.007.902.022l.096-1.998A20.67 20.67 0 0022.656 0zm2.694.196a18.02 18.02 0 011.766.35L27.6.606a20.073 20.073 0 00-1.959-.388l-.29 1.978zm3.488.871a18.38 18.38 0 011.662.69l.857-1.808c-.6-.284-1.215-.54-1.845-.765zm3.25 1.54c.515.31 1.014.644 1.495 1.001l1.193-1.605a20.388 20.388 0 00-1.659-1.11l-1.03 1.714zm2.887 2.145c.445.403.87.828 1.273 1.273l1.482-1.344a20.489 20.489 0 00-1.411-1.411zm2.417 2.665c.357.48.692.98 1.001 1.496l1.715-1.03a20.367 20.367 0 00-1.11-1.66zm1.851 3.082a18.4 18.4 0 01.69 1.663l1.883-.674a20.203 20.203 0 00-.765-1.845zm1.211 3.385c.145.578.262 1.167.35 1.766l1.978-.291a20.243 20.243 0 00-.387-1.96l-1.94.485zm.524 3.558c.015.299.022.6.022.902h2c0-.335-.008-.667-.024-.998zm.022.902c0 .302-.007.602-.022.9l1.998.097c.016-.33.024-.663.024-.997zm-.196 2.693a18.246 18.246 0 01-.35 1.765l1.941.485c.16-.642.29-1.295.387-1.96zm-.871 3.487a18.223 18.223 0 01-.69 1.663l1.808.856c.284-.6.54-1.215.765-1.845zm-1.539 3.25c-.31.515-.644 1.014-1.001 1.495l1.605 1.193a20.4 20.4 0 001.11-1.659l-1.714-1.03zM36.25 32.66c-.202.222-.409.44-.621.652l1.414 1.414c.236-.235.465-.476.688-.723z" fill="#2e1c75" mask="url(#a)"/><path d="M1 34.758c1.969 0 2.625-.393 3.938-.656 2.275-.455 6.031-1.93 8.273-2.884a2.035 2.035 0 011.786.087l10.94 6.078c-.437 1.97-2.625 5.12-7.875 1.97" stroke="#2e1c75"/><path d="M1 45.914l9.884-3.088a2 2 0 011.229.011l8.563 2.855a2 2 0 001.327-.022l17.06-6.318c3.937-1.312 2.015-6.578-1.97-5.25-3.937 1.313-9.187 3.281-11.812 3.938" stroke="#2e1c75"/><path d="M24.469 23.447c0-.49-.138-.88-.413-1.166-.27-.293-.73-.563-1.382-.808a17.083 17.083 0 01-1.687-.727 5.683 5.683 0 01-1.22-.834 3.493 3.493 0 01-.79-1.113c-.185-.424-.277-.93-.277-1.516 0-1.01.323-1.84.969-2.485.645-.646 1.504-1.023 2.575-1.13v-1.92h1.435v1.946c1.059.15 1.887.592 2.485 1.328.598.73.898 1.678.898 2.844h-2.593c0-.717-.15-1.253-.449-1.606-.293-.359-.688-.538-1.184-.538-.49 0-.87.14-1.14.422-.269.275-.404.658-.404 1.148 0 .455.132.82.395 1.095s.75.556 1.463.843c.718.287 1.307.56 1.767.817.46.25.85.538 1.167.86.317.318.559.683.726 1.096.168.406.252.882.252 1.426 0 1.017-.317 1.842-.952 2.476-.633.634-1.507 1.008-2.62 1.122v1.785h-1.426v-1.776c-1.226-.132-2.177-.565-2.853-1.301-.67-.742-1.005-1.726-1.005-2.952H20.8c0 .712.168 1.26.503 1.642.34.377.828.565 1.462.565.526 0 .942-.137 1.247-.412.305-.282.458-.658.458-1.131z" fill="#2e1c75"/></svg>