<svg width="47" height="42" fill="none" xmlns="http://www.w3.org/2000/svg"><path d="M11.5 22.5L11 17v-2l25 .5-.5 7.5L24 18.5l-12.5 4zM5 42h40v-1.5s-1-2.611-5-3.5c-.5-.5-1 5.5-9 0-2.884-1.983-5 2.5-7.5 2.5s-3-3-6.5-3-3.5 3-6.5 3S8.5 37 6 37c-2 0-4.5 2-5 3v2h4z" fill="#DCE3FF"/><path d="M40.55 36.142c-.19.368-.413.72-.665 1.05a5.59 5.59 0 01-.87.915 4.25 4.25 0 01-1.054.647c-.398.167-.827.25-1.26.245a5.843 5.843 0 01-1.628-.2 4.725 4.725 0 01-1.214-.532 13.709 13.709 0 01-.963-.67 18.367 18.367 0 01-.849-.692 2.574 2.574 0 00-.894-.514 5.463 5.463 0 00-1.054-.224 2.607 2.607 0 00-1.054.2c-.31.138-.602.31-.87.515-.276.208-.55.431-.825.67a5.94 5.94 0 01-.963.67 5.91 5.91 0 01-1.218.502 6.375 6.375 0 01-1.674.224 5.938 5.938 0 01-1.649-.2 5.779 5.779 0 01-1.238-.513 5.146 5.146 0 01-.94-.67 7.52 7.52 0 00-.848-.67 7 7 0 00-.87-.515 2.72 2.72 0 00-2.109-.023 3.807 3.807 0 00-.87.532c-.275.223-.558.447-.848.67-.29.224-.611.454-.963.692a3.537 3.537 0 01-1.239.514c-.536.113-1.08.188-1.627.224a3.512 3.512 0 01-1.275-.224 3.238 3.238 0 01-1.03-.647 8.121 8.121 0 01-.849-.915 6.481 6.481 0 01-.688-1.064l-.045-.068" stroke="#3B5EDC" stroke-dasharray="1 1"/><path d="M41.543 35.125l-.222.66H45.5v-1h-2.787l3.259-9.66.162-.48-.482-.155-5.52-1.786V11.928h-3.678l-2.793-5.442-.14-.272H28.4V.5h-9.801v5.721h-5.122l-.14.272-2.793 5.442H6.866v10.777l-5.52 1.785-.482.156.162.48 3.26 9.654H1.5v1h4.18l-.223-.66-3.321-9.834L7.52 23.55l.346-.112V12.935h3.289l.139-.272 2.794-5.442h5.51V1.5H27.4v5.714h5.51l2.794 5.442.14.272h3.288v10.504l.346.112 5.385 1.742-3.32 9.84zm-6.008-12.537l.666.233V15H10.799v7.822l.666-.234 12.034-4.229 12.036 4.229z" stroke="#3B5EDC"/></svg>