<svg width="289" height="78" fill="none" xmlns="http://www.w3.org/2000/svg"><path fill-rule="evenodd" clip-rule="evenodd" d="M119.068 78c-30.337-9.668-38.684-34.367-38.122-53.947.484-15.198 11.8-24.216 38.122-24.05 26.325-.163 37.64 8.855 38.122 24.048.563 19.496-7.783 44.278-38.122 53.949z" fill="url(#a)"/><path fill-rule="evenodd" clip-rule="evenodd" d="M80.92 34.412c6.589 3.377 21.23 5.79 38.148 5.79 16.918 0 31.552-2.333 38.148-5.79-2.359 17.13-12.445 35.625-38.229 43.588-25.704-7.963-35.87-26.459-38.067-43.588z" fill="url(#b)"/><path fill-rule="evenodd" clip-rule="evenodd" d="M119.069 73.412c11.873-3.749 22.072-10.37 28.594-20.814 5.145-8.515 7.639-18.252 7.189-28.07a17.74 17.74 0 00-2.424-8.931c-6.019-9.889-22.829-11.085-33.359-11.005-10.534-.08-27.338 1.116-33.36 11.005a17.74 17.74 0 00-2.423 8.93c-.46 9.82 2.035 19.56 7.189 28.071 6.606 10.367 16.723 17.065 28.594 20.814z" fill="url(#c)"/><path fill-rule="evenodd" clip-rule="evenodd" d="M119.387 73.412c11.362-3.656 21.122-10.112 27.364-20.298.159-.233.32-.544.48-.777.159-.233.239-.467.4-.7l.08-.077c.16-.233.239-.467.401-.7v-.077c.149-.25.283-.51.4-.777v-.077l.16-.233v-.08l.079-.156.16-.312v-.155l.16-.311.159-.312.08-.155v-.078l.08-.232.079-.233v-.08l.08-.232.08-.232.08-.155v-.078c.079-.232.239-.467.32-.7l.08-.232c.1-.165.155-.352.16-.544l.079-.233.08-.232.08-.233c.1-.165.155-.352.159-.544l.08-.233a53.392 53.392 0 001.845-7.238c-7.522 2.41-19.683 3.965-33.524 3.965-13.762 0-26.008-1.555-33.524-3.965.16 1.088.4 2.177.64 3.266.16.544.32 1.166.48 1.71v.08c.16.544.32 1.088.48 1.71.16.545.4 1.089.56 1.633v.078l.16.39.08.232v.077l.08.155.08.233v.077l.079.155v.078l.16.312.08.232v.078l.159.312.08.155.08.232v.078l.159.39v.077c.16.389.4.776.56 1.166l.16.39a9.89 9.89 0 00.88 1.555c.16.232.32.544.48.777.16.232.321.544.48.776 6.636 9.682 16.496 16.85 27.926 20.302z" fill="url(#d)"/><path d="M11.57 36.734v-1.373a2.993 2.993 0 00-.492-1.753 1.478 1.478 0 00-.593-.524 1.612 1.612 0 00-.799-.161 1.846 1.846 0 00-.936.163c-.29.134-.533.342-.702.598a4.459 4.459 0 00-.655 1.907L1.168 34.37a6.115 6.115 0 011.09-2.495 6.65 6.65 0 012.105-1.85 10.975 10.975 0 015.651-1.373c2.095-.084 4.17.392 5.982 1.373a5.615 5.615 0 012.11 2.085c.49.858.723 1.823.675 2.794V46.42c-.01.765.045 1.53.164 2.286.118.373.283.731.491 1.067h-7.375c-.082-.228-.082-.533-.163-.915 0-.382-.082-.686-.082-.991a7.496 7.496 0 01-2.375 1.753 6.5 6.5 0 01-3.03.6 6.462 6.462 0 01-2.529-.369 6.107 6.107 0 01-2.14-1.308 5.737 5.737 0 01-1.38-2.073 5.412 5.412 0 01-.341-2.418 5.856 5.856 0 011.044-3.408 6.517 6.517 0 012.888-2.31 16.833 16.833 0 017.617-1.6zm0 7.853v-4.651a6.537 6.537 0 00-3.196.84 3.51 3.51 0 00-.932 1.325 3.297 3.297 0 00-.214 1.572c0 1.449.655 2.21 2.048 2.21a2.07 2.07 0 001.065-.305c.504-.213.93-.557 1.229-.991zm10.975-15.324h7.12v14.562c0 1.22.573 1.829 1.72 1.829a2.44 2.44 0 001.228-.306c.433-.28.797-.644 1.065-1.067v-15.02h7.134v20.662h-7.209v-2.746a7.414 7.414 0 01-2.745 2.399 8.054 8.054 0 01-3.645.88 4.69 4.69 0 01-1.864-.259 4.431 4.431 0 01-1.576-.961c-.864-.957-1.303-2.184-1.228-3.432v-16.54zm22.278 4.65h-2.946v-4.651h2.948v-7.396h7.127v7.396h3.932v4.65h-3.932v8.768a4.45 4.45 0 00.245 1.829c.328.458.983.686 2.048.686a6.073 6.073 0 001.639-.228v4.878c-.78.184-1.574.312-2.375.382-.902.076-1.802.152-2.704.152a6.931 6.931 0 01-4.505-1.22 5.088 5.088 0 01-1.237-1.825 4.796 4.796 0 01-.32-2.14V33.913l.08.002zm12.126 5.569c-.154-2.754.714-5.472 2.456-7.701a9.05 9.05 0 013.376-2.365 9.679 9.679 0 014.16-.688 9.506 9.506 0 014.123.686 8.879 8.879 0 013.332 2.364c1.806 2.204 2.706 4.936 2.538 7.704.177 2.802-.69 5.576-2.457 7.852a8.94 8.94 0 01-3.37 2.376 9.568 9.568 0 01-4.166.676 9.568 9.568 0 01-4.165-.675 8.94 8.94 0 01-3.37-2.375c-1.767-2.277-2.634-5.051-2.457-7.854zm7.372 0c-.108 1.77.085 3.546.573 5.26.105.412.356.78.712 1.042.357.263.799.406 1.254.406.455 0 .896-.143 1.253-.406a1.87 1.87 0 00.713-1.042c.488-1.714.681-3.49.573-5.26a17.445 17.445 0 00-.492-5.109 1.819 1.819 0 00-.754-1.036A2.06 2.06 0 0066.86 33a2.172 2.172 0 00-1.296.392 1.92 1.92 0 00-.752 1.057 20.694 20.694 0 00-.49 5.033zm105.5-11.13v2.897a7.567 7.567 0 012.885-2.498 8.227 8.227 0 013.832-.856 6.027 6.027 0 013.277.915c.429.27.78.633 1.023 1.059.242.425.369.9.368 1.382a7.574 7.574 0 012.885-2.498 8.227 8.227 0 013.832-.856 5.764 5.764 0 013.768 1.143 4.16 4.16 0 011.123 1.566c.241.595.333 1.233.269 1.866v17.451h-7.455V34.675c0-1.295-.573-1.906-1.802-1.906a2.44 2.44 0 00-1.228.306c-.48.284-.874.678-1.147 1.143v15.781h-7.455V34.751c0-1.295-.573-1.906-1.802-1.906a2.086 2.086 0 00-1.228.306 4.057 4.057 0 00-1.147 1.143v15.781h-7.455V28.348l7.457.003zm37.679 7.852v-1.45a3.416 3.416 0 00-.492-1.828 1.668 1.668 0 00-.63-.56 1.82 1.82 0 00-.845-.202 2.155 2.155 0 00-.975.216c-.3.146-.556.361-.745.624a3.912 3.912 0 00-.736 1.982l-6.47-1.22a6.27 6.27 0 011.13-2.635 6.826 6.826 0 012.228-1.939 11.935 11.935 0 015.897-1.449 11.806 11.806 0 016.225 1.45 5.806 5.806 0 012.189 2.186c.505.899.739 1.909.678 2.921v12.046c-.036.795.047 1.59.244 2.363.102.378.268.738.492 1.067h-7.7c-.082-.228-.082-.534-.163-.915 0-.382-.082-.686-.082-1.067a9.195 9.195 0 01-2.457 1.828 7.114 7.114 0 01-3.113.686 6.778 6.778 0 01-2.618-.396 6.412 6.412 0 01-2.216-1.357c-1.246-1.353-1.89-3.098-1.801-4.879a6.028 6.028 0 011.077-3.552 6.714 6.714 0 013.018-2.395 18.571 18.571 0 017.865-1.525zm0 8.158v-4.88a8.058 8.058 0 00-3.358.839c-.458.376-.809.85-1.023 1.382a3.249 3.249 0 00-.206 1.668c0 1.525.737 2.286 2.13 2.286a2.363 2.363 0 001.147-.305 3.51 3.51 0 001.31-.99zm21.789-.152c0-.915-.983-1.753-2.867-2.44a37.257 37.257 0 01-5.488-2.21 5.946 5.946 0 01-2.198-2.15 5.432 5.432 0 01-.751-2.883c.031-1.587.738-3.097 1.965-4.198a9.29 9.29 0 013.232-1.962 9.819 9.819 0 013.812-.555 10.913 10.913 0 015.325 1.296c1.718 1.056 2.968 2.653 3.522 4.499l-5.242 1.295a8.334 8.334 0 00-1.31-1.83 2.927 2.927 0 00-.999-.68 3.115 3.115 0 00-1.213-.234c-1.474 0-2.212.457-2.212 1.373 0 .915.984 1.677 2.867 2.44a58.256 58.256 0 015.489 2.21 5.79 5.79 0 012.178 2.07c.518.858.784 1.826.77 2.81a6.181 6.181 0 01-.581 2.985 6.649 6.649 0 01-1.959 2.426c-1.919 1.375-4.297 2.077-6.717 1.983a11.012 11.012 0 01-6.307-1.677c-1.632-1.086-2.84-2.638-3.44-4.421l5.734-1.677a9.979 9.979 0 001.556 2.21c.321.301.705.538 1.127.695.423.157.875.233 1.33.221a2.833 2.833 0 001.72-.458 1.3 1.3 0 00.497-.487c.115-.201.17-.428.158-.656l.002.005zm9.828-10.979v11.736c-.075.761.025 1.53.294 2.252a5.333 5.333 0 001.263 1.94 7.53 7.53 0 004.75 1.296c.902 0 1.883-.076 2.785-.152a20.486 20.486 0 002.457-.382v-5.03a6.668 6.668 0 01-1.72.228c-1.147 0-1.802-.228-2.13-.762a4.644 4.644 0 01-.24-1.902v-9.228h4.083v-4.88h-4.083v-7.7h-7.455v7.7h-3.035v4.88l3.031.005zm32.601 7.395h-12.539a7.468 7.468 0 00.573 3.278 2.695 2.695 0 001.069 1.342 3.02 3.02 0 001.716.487 3.42 3.42 0 001.281-.191 3.232 3.232 0 001.094-.648 4.34 4.34 0 001.392-2.135l4.997 1.753c-.581 1.71-1.764 3.187-3.358 4.194a10.385 10.385 0 01-5.897 1.676 9.95 9.95 0 01-4.386-.814 9.254 9.254 0 01-3.478-2.617c-1.783-2.301-2.678-5.096-2.538-7.93-.14-2.835.755-5.63 2.538-7.93a9.273 9.273 0 013.454-2.557 9.948 9.948 0 014.328-.797 9.03 9.03 0 014.281.856 8.317 8.317 0 013.254 2.727c1.528 2.337 2.269 5.045 2.13 7.777v1.525l.089.005zm-12.452-4.118h5.57a5.562 5.562 0 00-.736-3.432 2.415 2.415 0 00-.939-.712 2.594 2.594 0 00-1.192-.203 2.435 2.435 0 00-1.274.35c-.378.23-.676.559-.856.945a8.88 8.88 0 00-.573 3.052zm22.607-8.159v3.278a4.764 4.764 0 011.044-1.666 5.18 5.18 0 011.66-1.154 10.9 10.9 0 014.423-.915v7.013a11.222 11.222 0 00-1.557-.458 7.87 7.87 0 00-1.475-.152 7.46 7.46 0 00-2.622.382 4 4 0 00-1.556 1.295v13.951h-7.372V28.348l7.455.002z" fill="#fff"/><path d="M102.012 32.592v10.436a3.342 3.342 0 00.649 2.184 2.096 2.096 0 001.703.727 1.9 1.9 0 001.866-1.374c.396-1.559.56-3.167.486-4.774v-1.698a21.995 21.995 0 00-.321-5.014 1.969 1.969 0 00-1.946-1.699 2.422 2.422 0 00-1.217.405 2.491 2.491 0 00-1.216.808l-.004-.002zm-7.22 17.553V18.434h7.22v10.678a5.861 5.861 0 012.11-1.294 7.489 7.489 0 012.433-.566 6.344 6.344 0 013.291.83c1 .57 1.826 1.402 2.387 2.406a14.816 14.816 0 012.029 8.252 15.726 15.726 0 01-1.865 7.766 6.948 6.948 0 01-2.619 2.922 6.971 6.971 0 01-3.789 1.041 6.76 6.76 0 01-3.488-.89 7.908 7.908 0 01-2.597-2.59l-1.378 3.237h-3.734v-.08zm29.042-22.325v22.406h-7.22V27.82h7.22zm-7.22-2.993v-6.393h7.22v6.39l-7.22.003zm29.042-6.39v31.708h-6.814v-2.184a10.273 10.273 0 01-2.758 1.94 7.159 7.159 0 01-2.839.486 5.812 5.812 0 01-3.091-.823 5.788 5.788 0 01-2.183-2.333 14.44 14.44 0 01-1.711-7.441 18.557 18.557 0 011.542-8.415 6.166 6.166 0 012.364-2.707 6.195 6.195 0 013.476-.934 6.381 6.381 0 014.704 1.94V18.353h7.301l.009.084zm-7.22 26.037v-11.64a2.663 2.663 0 00-2.271-1.052c-.974 0-1.623.566-1.866 1.779a19.893 19.893 0 00-.487 5.096c0 2.346 0 3.803.081 4.45.244 2.103.893 3.155 1.946 3.155a3.105 3.105 0 002.597-1.788z" fill="url(#e)"/><path fill-rule="evenodd" clip-rule="evenodd" d="M94.792 39.213c2.268.357 4.698.64 7.21.926v3.706a2.7 2.7 0 00.647 1.923c.209.215.471.384.766.495.295.111.615.161.935.146.419.008.829-.107 1.166-.326a1.68 1.68 0 00.697-.884c.396-1.373.56-2.79.486-4.204v-.428c2.43.142 4.942.286 7.452.357-.061 2.111-.671 4.182-1.782 6.055-.572 1.061-1.48 1.955-2.615 2.574a7.674 7.674 0 01-3.783.916 7.471 7.471 0 01-3.483-.784 7.501 7.501 0 01-2.593-2.28l-1.376 2.85h-3.727V39.213zm21.79 1.71h2.916c1.459 0 2.916 0 4.294-.072v9.263h-7.21v-9.192zm9.632-.07a124.95 124.95 0 007.535-.428c0 1.782 0 2.921.081 3.42.243 1.852.891 2.779 1.943 2.779a3.274 3.274 0 001.582-.409 2.75 2.75 0 001.091-1.087v-5.13c2.593-.286 5.023-.57 7.21-.998v11.116h-6.802V48.19c-.805.7-1.736 1.277-2.755 1.709a8.004 8.004 0 01-2.835.427 6.412 6.412 0 01-3.086-.725c-.931-.491-1.687-1.203-2.18-2.054-1.223-2.011-1.811-4.274-1.701-6.553l-.083-.142z" fill="url(#f)"/><defs><linearGradient id="b" x1="159.047" y1="66.188" x2="110.567" y2="-2.333" gradientUnits="userSpaceOnUse"><stop stop-color="#1E3464"/><stop offset=".6" stop-color="#29ABE2"/><stop offset="1" stop-color="#C6E8F9"/></linearGradient><linearGradient id="c" x1="136.269" y1="58.408" x2="107.953" y2="7.787" gradientUnits="userSpaceOnUse"><stop stop-color="#A6A8AC"/><stop offset=".8" stop-color="#fff"/><stop offset="1" stop-color="#fff"/></linearGradient><linearGradient id="d" x1="136.769" y1="68.97" x2="127.509" y2="16.892" gradientUnits="userSpaceOnUse"><stop stop-color="#A6A8AC"/><stop offset=".7" stop-color="#fff"/><stop offset="1" stop-color="#fff"/></linearGradient><linearGradient id="e" x1="120.224" y1="50.439" x2="120.224" y2="18.449" gradientUnits="userSpaceOnUse"><stop stop-color="#4F121B"/><stop offset=".022" stop-color="#56151D"/><stop offset=".11" stop-color="#721C22"/><stop offset=".205" stop-color="#8B2124"/><stop offset=".308" stop-color="#A22226"/><stop offset=".422" stop-color="#B42226"/><stop offset=".553" stop-color="#C12227"/><stop offset=".714" stop-color="#C92127"/><stop offset="1" stop-color="#CB2027"/></linearGradient><linearGradient id="f" x1="120.173" y1="37.681" x2="120.173" y2="51.709" gradientUnits="userSpaceOnUse"><stop stop-color="#4F121B"/><stop offset=".022" stop-color="#56151D"/><stop offset=".11" stop-color="#721C22"/><stop offset=".205" stop-color="#8B2124"/><stop offset=".308" stop-color="#A22226"/><stop offset=".422" stop-color="#B42226"/><stop offset=".553" stop-color="#C12227"/><stop offset=".714" stop-color="#C92127"/><stop offset="1" stop-color="#CB2027"/></linearGradient><radialGradient id="a" cx="0" cy="0" r="1" gradientUnits="userSpaceOnUse" gradientTransform="matrix(54.7674 0 0 55.4432 100.197 37.439)"><stop stop-color="#8ED7F7"/><stop offset=".53" stop-color="#29ABE2"/><stop offset=".89" stop-color="#1E3464"/><stop offset="1" stop-color="#1E3464"/></radialGradient></defs></svg>