<svg width="160" height="34" fill="none" xmlns="http://www.w3.org/2000/svg"><g clip-path="url(#a)"><path d="M107.901 0l5.102 33.915h-7.769L100.143 0h7.758z" fill="#00A651"/><path d="M133.013 0l-5.663 33.915h-7.673L125.34 0h7.673z" fill="url(#b)"/><path d="M146.64 0l5.091 33.915h-7.758L138.87 0h7.77z" fill="#00A651"/><path d="M113.539 0h7.722l-5.091 33.915h-2.716l-2.362-15.081L113.539 0z" fill="url(#c)"/><path d="M152.291 0H160l-5.091 33.915h-2.715l-2.241-15.081L152.291 0z" fill="url(#d)"/><path d="M138.395 33.915h-7.721L135.777 0h2.704l2.277 15.057-2.363 18.858z" fill="url(#e)"/><path opacity=".5" d="M97.293 9.12c.22-4.154-1.668-7.906-5.955-8.914A8.012 8.012 0 0089.828 0l2.436 7.529a4.625 4.625 0 010 2.562 6.684 6.684 0 01-2.144 4.298l1.425 4.372a12.913 12.913 0 003.854-3.902 12.871 12.871 0 001.882-5.145l.012-.595zM12.8 4.516a6.182 6.182 0 00-3.345 1.618 6.15 6.15 0 00-1.807 3.24l-2.557 14.74a4.25 4.25 0 00.11 2.174l2.435 7.614a7.89 7.89 0 01-1.547-.207 7.963 7.963 0 01-4.919-3.574 7.921 7.921 0 01-.95-5.994L2.788 9.435A12.396 12.396 0 015.765 3.54 12.45 12.45 0 0111.35 0l1.45 4.517zm7.709 5.197h-4.872a4.322 4.322 0 00-.097-2.185L13.104 0a8.01 8.01 0 011.51.206 7.915 7.915 0 014.938 3.529 7.866 7.866 0 01.969 5.98h-.012zm-7.502 14.924h4.871a12.227 12.227 0 01-2.975 5.814 12.28 12.28 0 01-5.55 3.463l-1.486-4.48a6.097 6.097 0 003.35-1.608 6.067 6.067 0 001.79-3.25v.06zm15.003 9.265h-9.182L24.82 0h4.871l-5.14 29.046h1.852l1.607 4.857zm6.09 0h-4.372l-1.572-4.857h6.723l-.78 4.857zm11.106 0h-9.255L41.955 0h6.759l1.57 4.857h-4.31l-1.705 9.714h1.85l1.584 4.858h-4.3L41.7 29.143h1.851l1.656 4.76zm5.968 0h-4.385l-1.583-4.857h6.723l-.755 4.857zm2.411-14.474h-4.238l-1.571-4.858h6.722l-.913 4.858zm2.618-14.572h-4.286L50.333 0h6.723l-.853 4.857zm10.218 21.748h-5.529l-2.85 7.286H53.05L65.483 2.186l.439 11.572-3.179 8.1h3.459l.22 4.747zm7.003 7.286h-4.97L67.14 0h4.968l1.316 33.89zm21.348 0h-5.456l-4.688-14.462h-1.815L80.243 34h-4.87L81.34 0h6.722l1.571 4.857h-4.287l-1.705 9.714h4.872l6.26 19.32z" fill="#231F20"/></g><defs><linearGradient id="b" x1="119.677" y1="16.964" x2="133.013" y2="16.964" gradientUnits="userSpaceOnUse"><stop stop-color="#00A651"/><stop offset=".14" stop-color="#00A651"/><stop offset="1" stop-color="#00A651"/></linearGradient><linearGradient id="c" x1="109.801" y1="18.117" x2="124.666" y2="14.674" gradientUnits="userSpaceOnUse"><stop stop-color="#005B30"/><stop offset=".04" stop-color="#006936"/><stop offset=".14" stop-color="#007F40"/><stop offset=".25" stop-color="#009148"/><stop offset=".38" stop-color="#009D4D"/><stop offset=".56" stop-color="#00A450"/><stop offset="1" stop-color="#00A651"/></linearGradient><linearGradient id="d" x1="1375.41" y1="511.099" x2="1504.03" y2="519.899" gradientUnits="userSpaceOnUse"><stop stop-color="#005B30"/><stop offset=".04" stop-color="#006936"/><stop offset=".14" stop-color="#007F40"/><stop offset=".25" stop-color="#009148"/><stop offset=".38" stop-color="#009D4D"/><stop offset=".56" stop-color="#00A450"/><stop offset="1" stop-color="#00A651"/></linearGradient><linearGradient id="e" x1="-2637.84" y1="12741.6" x2="-2766.92" y2="12750.5" gradientUnits="userSpaceOnUse"><stop stop-color="#005B30"/><stop offset=".04" stop-color="#006936"/><stop offset=".14" stop-color="#007F40"/><stop offset=".25" stop-color="#009148"/><stop offset=".38" stop-color="#009D4D"/><stop offset=".56" stop-color="#00A450"/><stop offset="1" stop-color="#00A651"/></linearGradient><clipPath id="a"><path fill="#fff" d="M0 0h160v34H0z"/></clipPath></defs></svg>