<svg width="64" height="64" fill="none" xmlns="http://www.w3.org/2000/svg"><circle cx="32" cy="32" fill="#F1F1F8" r="32"/><path d="M16 43.733v-12.8c0-1.066 2.133-1.066 4.267-1.066 1.706 0 3.555.71 4.266 1.066V44.8h-6.4c-1.706 0-2.133-.711-2.133-1.067zm17.067-26.666v-3.2c.355.355 1.28 1.066 2.133 1.066s1.778.712 2.133 1.067v3.2L35.2 25.6l1.067 1.067h7.466c1.707 0 2.845.71 3.2 1.066v3.2L48 32v2.133l-1.067 2.134V38.4l-1.066 2.133-1.067 3.2-2.133 1.067-5.334 1.067H28.8L24.533 44.8V29.867l3.2-2.134 5.334-10.666z" fill="#fff"/><path d="M49.063 33.19c-.044-1.08-.559-1.938-.966-2.453.484-1.142.69-2.959-.905-4.375-2.613-2.322-8.79-1.061-9.486-.91l-.008.002c-.394.067-.808.149-1.235.243-.049-.422-.004-1.552.916-4.263 1.027-3.031.967-5.35-.18-6.89-1.204-1.618-3.133-1.744-3.696-1.744-.544 0-1.017.21-1.368.61-.809.918-.692 2.672-.604 3.384-.968 2.532-3.709 8.786-6.039 10.524a.976.976 0 00-.107.093 7.516 7.516 0 00-1.46 2.156 3.048 3.048 0 00-1.491-.39h-4.499c-1.655 0-3.002 1.31-3.002 2.918V43.74c0 1.608 1.347 2.917 3.002 2.917h4.499c.68 0 1.307-.224 1.811-.597l1.672.248.02.003c.2.025 4.951.62 9.825.524.879.066 1.702.1 2.466.1 1.317 0 2.46-.1 3.416-.297 2.233-.461 3.76-1.381 4.536-2.735.6-1.046.585-2.092.486-2.74 2.006-1.755 1.88-3.862 1.37-5.15.722-.89 1.068-1.838 1.027-2.822zM17.935 44.852c-.631 0-1.145-.499-1.145-1.113V32.096c0-.614.514-1.113 1.145-1.113h4.499c.398 0 .75.2.955.502.02.153.078.297.17.418.011.063.02.127.02.193v11.643c0 .614-.514 1.113-1.145 1.113h-4.499zm28.331-9.608a.875.875 0 00-.127 1.085c.128.213 1.185 2.129-1.059 3.767a.878.878 0 00-.319 1.018c.014.04.335.995-.214 1.93-.51.868-1.616 1.484-3.29 1.829-1.343.278-3.158.331-5.395.16a1.032 1.032 0 00-.093-.004c-4.648.096-9.347-.478-9.583-.507l-.831-.123c.05-.212.08-.432.08-.66V32.096c0-.31-.05-.607-.143-.887.14-.511.516-1.59 1.392-2.507 3.294-2.534 6.532-11.133 6.669-11.5a.879.879 0 00.045-.446c-.136-.845-.07-1.897.127-2.152.367.004 1.495.092 2.17.998.767 1.03.739 2.852-.08 5.268-1.227 3.617-1.342 5.514-.384 6.341.47.405 1.091.428 1.544.267.45-.1.885-.186 1.293-.256a.978.978 0 00.089-.02c1.564-.332 6.187-.927 7.783.491 1.233 1.096.364 2.54.264 2.696a.891.891 0 00.158 1.156c.008.008.814.738.847 1.731.022.649-.296 1.31-.943 1.968z" fill="#2158F5"/></svg>