<svg width="64" height="64" fill="none" xmlns="http://www.w3.org/2000/svg"><circle cx="32" cy="32" fill="#F1F1F8" r="32"/><circle cx="32.5" cy="32.5" r="15.5" fill="#fff"/><path d="M50.998 30.667c-.05-1.461-1.478-2.608-2.718-3.443l-.048.068c-.915-3.023-2.702-5.682-5.079-7.7-.526-1.502-1.708-4.004-3.845-4.47-1.36-.297-2.882-.043-4.46.663a17.166 17.166 0 00-2.674-.211c-3.525 0-6.797 1.07-9.498 2.893-1.763-.4-3.202-.196-4.196.63-1.086.903-1.043 2.893-.919 4.687l.1-.006a16 16 0 00-1.716 4.11l-.082-.123c-2.428 1.55-2.896 3.101-2.861 4.13.049 1.454 1.093 2.75 2.89 3.807a16.202 16.202 0 004.18 7.477c.157 1.108.446 2.103.88 2.944.765 1.476 1.954 2.428 3.438 2.752.383.084.78.125 1.187.125 1.155 0 2.405-.337 3.73-1.002a17.027 17.027 0 008.785-.813l-.048.146c1.053.34 2.128.645 3.102.645.74 0 1.423-.177 1.992-.65 1.082-.9 1.483-2.4 1.283-4.296 2.236-2.343 3.78-5.323 4.3-8.629 1.5-1.113 2.323-2.383 2.277-3.734zm-1.575.05c.015.445-.163.903-.51 1.36.001-.056.005-.112.005-.17 0-.794-.062-1.574-.174-2.338.435.434.668.82.68 1.149zm-2.081 1.19c0 .542-.032 1.077-.09 1.604-1.018.644-2.367 1.252-3.995 1.778a2.374 2.374 0 00-2.41-1.038c-1.184-1.877-2.638-3.828-4.34-5.776-1.797-2.057-3.706-3.906-5.61-5.451a2.258 2.258 0 00-.36-2.113c1.512-1.565 3.063-2.778 4.531-3.527 6.984 1.322 12.274 7.33 12.274 14.524zm-15.146 5.136c-3.245.104-6.188-.105-8.7-.525a2.3 2.3 0 00-1.003-1.524 33.9 33.9 0 011.674-4.52 36.249 36.249 0 013.495-6.083 2.392 2.392 0 002.268-.153c1.82 1.48 3.65 3.256 5.377 5.234a44.294 44.294 0 014.158 5.55c-.32.364-.523.827-.56 1.334a46.682 46.682 0 01-6.71.687zm6.768-20.42c.505.11 1.01.49 1.474 1.088a17.018 17.018 0 00-2.577-1.166c.383-.02.753 0 1.103.077zm-6.79.488c.118 0 .233.006.35.009-1.125.787-2.254 1.773-3.352 2.931a2.388 2.388 0 00-1.92.394 24.24 24.24 0 00-.808-.467 18.52 18.52 0 00-1.836-.886 15.358 15.358 0 017.566-1.981zm-12.672 3.156c.35-.292.84-.44 1.436-.458a16.662 16.662 0 00-1.84 1.915c.043-.776.177-1.268.404-1.457zm3.485-.122c.816.252 1.72.643 2.683 1.172.231.127.464.263.698.402a2.23 2.23 0 00-.079.58c0 .35.082.68.225.977a38.154 38.154 0 00-3.788 6.579 35.593 35.593 0 00-1.765 4.754 2.374 2.374 0 00-1.664.89 15.74 15.74 0 01-2.021-.83 14.443 14.443 0 01-.27-2.761c0-4.792 2.35-9.057 5.981-11.763zm-8.41 11.7c-.024-.703.41-1.35.978-1.893a16.025 16.025 0 00-.124 1.956c0 .54.029 1.074.082 1.6-.59-.539-.917-1.103-.936-1.664zm4.232 5.148c.033.849.534 1.58 1.261 1.952a19.924 19.924 0 00-.122 1.706 14.656 14.656 0 01-2.147-4.029c.322.13.658.253 1.008.371zm5.925 10.38c-1.023-.222-1.822-.877-2.375-1.944-.07-.137-.131-.287-.193-.434a16.86 16.86 0 004.502 2.335c-.7.152-1.354.17-1.934.044zm-3.16-4.896c-.097-1.006-.076-2.12.06-3.313a2.363 2.363 0 001.58-1.11c2.186.358 4.634.554 7.264.554.581 0 1.172-.01 1.77-.028a49.43 49.43 0 007.089-.723 2.377 2.377 0 002.175.955c.614 1.373 1.021 2.623 1.224 3.7a15.31 15.31 0 01-10.562 4.193 15.311 15.311 0 01-10.6-4.228zm20.543 3.678c-.42.35-1.108.35-2.037.147a16.828 16.828 0 002.782-1.832c-.074.754-.32 1.331-.745 1.685zm1.932-5.058a20.16 20.16 0 00-1.093-2.973c.343-.345.575-.794.644-1.294 1.225-.386 2.327-.824 3.282-1.307a14.609 14.609 0 01-2.833 5.574z" fill="#2158F5"/></svg>