<svg width="64" height="64" fill="none" xmlns="http://www.w3.org/2000/svg"><circle cx="32" cy="32" r="32" fill="#F1F1F8"/><path d="M35 20v-3.5l.5-1h-7V20H24l-2 4.5h-3V33l-5 2 2.5 7.5c.833 1 2.8 3.1 4 3.5 1.5.5 5-2.5 6-2.5S31 46 32 46s5-3 5.5-3 4 2.5 5 3c.8.4 2-.833 2.5-1.5l2.5-1L50 35l-5-2 .5-8.5h-3L40 20h-5z" fill="#fff"/><path d="M23 32.567V27.4h17.308v5.511l-8.124-3.1L23 32.567z" stroke="#2158F5" stroke-width="2"/><path d="M45.846 43.311a6.908 6.908 0 01-.539.988 5.023 5.023 0 01-.706.86c-.257.25-.545.456-.855.61-.322.157-.67.235-1.022.23a4.12 4.12 0 01-1.32-.188 3.585 3.585 0 01-.985-.5 10.887 10.887 0 01-.78-.632c-.237-.21-.467-.427-.689-.65a2.038 2.038 0 00-.725-.484 3.909 3.909 0 00-.855-.21 1.862 1.862 0 00-.855.188 3.413 3.413 0 00-.706.484 13.81 13.81 0 00-.669.63 4.452 4.452 0 01-1.769 1.103c-.442.14-.898.21-1.357.21a4.186 4.186 0 01-1.338-.188 4.349 4.349 0 01-1.766-1.113 6.347 6.347 0 00-1.394-1.114 1.953 1.953 0 00-.853-.21 1.946 1.946 0 00-.857.188c-.254.13-.492.298-.706.5-.223.21-.453.421-.688.631-.235.21-.496.428-.781.651a2.67 2.67 0 01-1.004.484 8.16 8.16 0 01-1.32.21 2.5 2.5 0 01-1.034-.21 2.61 2.61 0 01-.836-.609 7.35 7.35 0 01-.688-.861 6.284 6.284 0 01-.558-1.001l-.037-.063M50 43.243h-2.85l2.849-8.5-4.8-1.564v-8.765h-2.85l-2.4-4.707H35.6V15h-7.2v4.713h-4.35l-2.4 4.707H18.8v8.765L14 34.748l2.85 8.496H14" stroke="#2158F5" stroke-width="2" style="mix-blend-mode:multiply"/></svg>