<svg width="64" height="64" fill="none" xmlns="http://www.w3.org/2000/svg"><circle cx="32" cy="32" r="32" fill="#F1F1F8"/><path d="M53.947 39.463v3.642a.366.366 0 01-.382.369H45.8v-1.527c0-3.93-1.916-7.324-4.676-9.688a8.643 8.643 0 014.367-1.206c4.665 0 8.504 3.824 8.457 8.41zM14.4 23c0-2.749 2.3-5 5.057-5 1.96 0 3.644 1.07 4.491 2.617a9.522 9.522 0 00-1.347 4.91c0 .438.027.88.084 1.31A5.011 5.011 0 0119.457 28c-2.804 0-5.057-2.245-5.057-5zm27.946 2.526c0-1.793-.48-3.442-1.301-4.896A5.073 5.073 0 0145.49 18c2.792 0 5.057 2.287 5.057 5.053 0 2.754-2.253 5-5.057 5a5.012 5.012 0 01-3.232-1.168c.058-.452.088-.905.088-1.359zm-14.93 0c0-2.754 2.254-5 5.057-5 2.804 0 5.057 2.246 5.057 5 0 2.755-2.253 5-5.057 5-2.803 0-5.056-2.245-5.056-5zM11 39.474c0-4.653 3.797-8.421 8.457-8.421a8.16 8.16 0 014.338 1.224c-2.773 2.337-4.647 5.747-4.647 9.723v1.526H11.38c-.176 0-.381-.168-.381-.42v-3.632zM24.017 42c0-4.657 3.747-8.421 8.456-8.421 4.717 0 8.51 3.772 8.51 8.421v3.632c0 .151-.156.368-.434.368H24.398a.366.366 0 01-.381-.368V42z" fill="#fff" stroke="#2158F5" stroke-width="2"/></svg>