<svg width="436" height="67" fill="none" xmlns="http://www.w3.org/2000/svg"><path opacity=".1" fill-rule="evenodd" clip-rule="evenodd" d="M435.108 67c-12.466-26.845-33.78-46.593-65.093-57.94C350.561 2.015 330.187 0 309.576 0h-168.27v.06c-8.333 0-16.666-.003-25-.006C105.778.051 95.25.045 84.722.04 56.482.025 28.241.01 0 .03v25c28.222-.02 56.44-.004 84.673.01 18.868.01 37.744.02 56.633.02h25V25h143.27c19.115 0 36.268 1.895 51.924 7.566 20.245 7.336 35.068 18.741 45.169 34.434h28.439z" fill="url(#paint0_linear_186_1152)"/><defs><linearGradient id="paint0_linear_186_1152" x1="217.554" y1="0" x2="217.554" y2="67" gradientUnits="userSpaceOnUse"><stop stop-color="#B5C8FF"/><stop offset="1" stop-color="#2158F5"/></linearGradient></defs></svg>