<svg xmlns="http://www.w3.org/2000/svg" viewBox="-15557 -13942 31.49 42.613"><defs><style>.cls-1{fill:#16896b}</style></defs><g id="if_15_2257361" transform="translate(-15628.2 -13948)"><g id="Group_3696" data-name="Group 3696" transform="translate(71.2 6)"><path id="XMLID_14_" class="cls-1" d="M101.932 48.613H71.967a.769.769 0 01-.767-.767V6.767A.769.769 0 0171.967 6h29.957a.769.769 0 01.767.767v41.079a.762.762 0 01-.759.767z" transform="translate(-71.2 -6)"/><path id="XMLID_13_" transform="translate(1.236 1.227)" fill="#fff" d="M0 0h29.036v40.158H0z"/><g id="Group_3695" data-name="Group 3695" transform="translate(5.344 10.074)"><g id="XMLID_174_"><g id="XMLID_189_"><path id="XMLID_190_" class="cls-1" d="M0 0h20.812v.955H0z"/></g><g id="XMLID_187_" transform="translate(0 1.977)"><path id="XMLID_188_" class="cls-1" d="M0 0h20.812v.955H0z"/></g><g id="XMLID_185_" transform="translate(0 3.946)"><path id="XMLID_186_" class="cls-1" d="M0 0h20.812v.955H0z"/></g><g id="XMLID_183_" transform="translate(0 5.915)"><path id="XMLID_184_" class="cls-1" d="M0 0h20.812v.955H0z"/></g><g id="XMLID_181_" transform="translate(0 7.892)"><path id="XMLID_182_" class="cls-1" d="M0 0h20.812v.955H0z"/></g><g id="XMLID_179_" transform="translate(0 9.861)"><path id="XMLID_180_" class="cls-1" d="M0 0h20.812v.955H0z"/></g><g id="XMLID_177_" transform="translate(0 11.838)"><path id="XMLID_178_" class="cls-1" d="M0 0h20.812v.955H0z"/></g><g id="XMLID_175_" transform="translate(0 13.807)"><path id="XMLID_176_" class="cls-1" d="M0 0h15.375v.955H0z"/></g></g></g><g id="Group_3697" data-name="Group 3697" transform="translate(5.344 27.204)"><g id="XMLID_174_2" data-name="XMLID_174_"><g id="XMLID_189_2" data-name="XMLID_189_"><path id="XMLID_190_2" data-name="XMLID_190_" class="cls-1" d="M0 0h20.812v.955H0z"/></g><g id="XMLID_187_2" data-name="XMLID_187_" transform="translate(0 1.977)"><path id="XMLID_188_2" data-name="XMLID_188_" class="cls-1" d="M0 0h20.812v.955H0z"/></g><g id="XMLID_185_2" data-name="XMLID_185_" transform="translate(0 3.946)"><path id="XMLID_186_2" data-name="XMLID_186_" class="cls-1" d="M0 0h20.812v.955H0z"/></g><g id="XMLID_183_2" data-name="XMLID_183_" transform="translate(0 5.915)"><path id="XMLID_184_2" data-name="XMLID_184_" class="cls-1" d="M0 0h20.812v.955H0z"/></g><g id="XMLID_181_2" data-name="XMLID_181_" transform="translate(0 7.892)"><path id="XMLID_182_2" data-name="XMLID_182_" class="cls-1" d="M0 0h20.812v.955H0z"/></g></g></g><path id="XMLID_4_" d="M274 18.784V6h10.517v12.784l-5.259-3.084z" transform="translate(-256.716 -6)" fill="#2ebc9a"/><path id="XMLID_1_" d="M258.1 7.227h1.355V6z" transform="translate(-242.171 -6)" fill="#096047"/></g></g></svg>