<svg width="72" height="13" fill="none" xmlns="http://www.w3.org/2000/svg"><path d="M6.915 0l1.633 4.966h5.283L9.557 8.034 11.189 13 6.915 9.931 2.641 13l1.633-4.966L0 4.966h5.283L6.915 0zm14.543 0l1.632 4.966h5.283l-4.274 3.068L25.732 13l-4.274-3.069L17.184 13l1.632-4.966-4.274-3.068h5.283L21.458 0zM36 0l1.633 4.966h5.282l-4.274 3.068L40.274 13 36 9.931 31.726 13l1.633-4.966-4.274-3.068h5.282L36 0zm14.542 0l1.633 4.966h5.283l-4.274 3.068L54.816 13l-4.274-3.069L46.27 13l1.63-4.966-4.274-3.068h5.283L50.542 0zm14.543 0l1.632 4.966H72l-4.274 3.068L69.36 13l-4.274-3.069L60.81 13l1.632-4.966-4.274-3.068h5.283L65.085 0z" fill="#FDB81E"/></svg>