<svg width="29" height="30" fill="none" xmlns="http://www.w3.org/2000/svg"><path d="M10.842 29.154l.675-.817 1.043.846-.675.817-1.043-.846zm-3.226-5.192a16.682 16.682 0 01-4.898-6.78 16.498 16.498 0 01-.97-8.275l.454-3.758.124.027c.524.125 1.061.19 1.6.195a3.977 3.977 0 002.528-.786C7.776 3.545 7.96 1.82 7.96.112V0h10.928v1.056H9.013c-.166 3.38-2.067 5.391-5.101 5.391-.262 0-.524-.015-.785-.045l-.093.745c-.37 2.894-.79 6.172.875 10.108 1.58 3.742 3.44 5.213 7.928 8.769.754.598 1.58 1.25 2.489 1.982l5.993-4.86a15.654 15.654 0 004.551-6.348c.953-2.46 1.261-5.12.897-7.73l-.318-2.685c-.183.011-.366.02-.546.02-3.394 0-5.422-2.193-5.422-5.872V.417h1.069v.111a5.094 5.094 0 001.178 3.615 4.13 4.13 0 003.138 1.187 7.798 7.798 0 001.395-.133l.119-.022.014.117c.048.4.099.795.146 1.187.456 3.603.89 7.006-.874 11.19-1.685 3.997-3.667 5.58-8.46 9.39a348.32 348.32 0 00-2.81 2.253l-.07.058-6.71-5.408zm1.481 3.791l.675-.82 1.046.842-.674.82-1.047-.842zm-1.743-1.406l.675-.818 1.046.843-.675.817-1.046-.842zm-.874-.708c-.256-.206-.477-.38-.785-.656l-.084-.078.715-.786.085.078c.292.259.492.42.745.623l.183.148-.675.82-.184-.149zm7.77-.102c-.737-.593-1.406-1.123-2.019-1.61-3.597-2.847-5.24-4.145-6.592-7.373a14.8 14.8 0 01-.79-8.089l.062-.497.09-.01c3.053-.257 4.685-1.739 5.28-4.815l.018-.088h7.917l.016.088c.61 2.972 2.259 4.44 5.338 4.762l.09.01.011.088c.017.145.037.295.057.453.5 2.72.23 5.524-.782 8.102-1.347 3.221-2.975 4.52-6.55 7.364-.61.486-1.276 1.014-2.007 1.609l-.07.058-.069-.052zM5.852 9.067a13.299 13.299 0 00.774 7.08c1.243 2.975 2.824 4.223 5.973 6.715.527.417 1.097.864 1.716 1.365.477-.393.958-.765 1.426-1.132 4.407-3.464 7.888-6.203 6.955-14.224a6.346 6.346 0 01-3.424-1.552 6.227 6.227 0 01-1.92-3.204h-6.181a6.026 6.026 0 01-1.858 3.263 6.145 6.145 0 01-3.446 1.555l-.015.133zm-.998 15.12c-.27-.273-.532-.557-.781-.845l-.074-.081.813-.687.073.083c.234.27.477.54.734.795l.08.079-.766.737-.079-.082zm19.079-1.71l.07-.087c.334-.406.636-.792.858-1.085l.065-.087.86.628-.067.089c-.23.314-.545.712-.891 1.126l-.07.087-.825-.672zm-20.586-.03a20.138 20.138 0 01-.666-.937l-.062-.092.89-.58.063.091c.2.3.41.598.627.884l.068.089-.855.634-.065-.09zm21.905-2.074l.056-.095a18.63 18.63 0 002.623-9.6v-.113H29v.111c.01 3.567-.95 7.07-2.782 10.142l-.057.095-.91-.54zm-23.177.164c-.169-.29-.35-.629-.515-.95l-.098-.198A19.63 19.63 0 01.03 15.453l-.03-.11 1.037-.25.026.109a18.277 18.277 0 001.936 4.804l.056.098-.925.526-.055-.093zm7.579-6.344V9.216l5.07 5.516 4.434-3.711v3.936h-1.066V13.3l-3.46 2.897-3.906-4.248v1.831l3.698 4.003 2.862-2.41.695.803-3.65 3.077-4.677-5.06z" fill="#fff"/></svg>