<svg width="18" height="18" fill="none" xmlns="http://www.w3.org/2000/svg"><path d="M5.854 3.38a8.957 8.957 0 015.163 0 .56.56 0 01.383.513v.494c0 .258-.211.47-.47.474H9.363v.507h2.474l1.938 1.787v1.427l.65-.03a.518.518 0 01.514-.515h.711c.25 0 .494.182.567.423a7.12 7.12 0 010 3.968.613.613 0 01-.567.426h-.711a.52.52 0 01-.515-.522h-1.513v1.874H6.903l-1.489-1.701H3.018v-2.099h-.393v1.112c0 .458-.227.735-.516.761l-.046.002c-.311 0-.563-.281-.563-.763v-3.91c0-.483.252-.764.563-.764.31 0 .562.281.562.763v1.3h.393V6.741l2.097-1.374h2.396V4.86H5.947a.477.477 0 01-.473-.474v-.494a.56.56 0 01.38-.513zm1.833 3.558v5.156l3.75-2.578-3.75-2.579z" fill="#2158F5"/></svg>