<svg width="96" height="46" fill="none" xmlns="http://www.w3.org/2000/svg"><path fill="#fff" d="M4.063 16.571h35.444v5.984H4.063z"/><path fill-rule="evenodd" clip-rule="evenodd" d="M32.084.703c1.656.293 3.016 1.758 3.253 2.05L37.939 7.5h3.963c.473 0 .828.352.828.762V9.9c0 .41-.355.762-.828.762h-2.248l1.183 1.113 1.183 4.98V27.77c0 .703-.532 1.23-1.242 1.23h-5.5c-.651 0-1.242-.527-1.242-1.23v-1.465H9.016v1.465c0 .703-.532 1.23-1.242 1.23h-5.5c-.651 0-1.242-.527-1.242-1.23 0-3.691.059-7.323.059-11.014l1.124-4.98 1.182-1.113H1.15A.78.78 0 01.38 9.9V8.26a.78.78 0 01.769-.762h4.022l2.602-4.745C7.952 2.46 9.312.996 11.027.703c6.447-.937 14.61-.937 21.057 0zm-7.749 21.09a.464.464 0 00.474-.468c0-.234-.178-.41-.474-.41h-5.619a.402.402 0 00-.414.41c0 .235.178.469.415.469h5.619zm1.006-1.64c.236 0 .414-.234.414-.468s-.177-.469-.414-.469h-7.57c-.237 0-.474.235-.474.469 0 .234.237.469.473.469h7.571zm1.36-1.64c.237 0 .414-.234.414-.469 0-.234-.177-.468-.414-.468H16.41c-.237 0-.473.234-.473.468 0 .235.236.47.473.47H26.7zm-15.437-1.172l-6.21-1a.805.805 0 00-.829.82v1.817c0 .468.355.82.829.82l6.21 1c.414 0 .828-.351.828-.82v-1.816c0-.47-.414-.82-.828-.82zm20.583 0h6.151c.474 0 .888.352.888.82v1.817c0 .468-.414.82-.888.82h-6.15a.805.805 0 01-.829-.82v-1.816c0-.47.355-.82.828-.82z" fill="#B5B5B5"/><mask id="a" maskUnits="userSpaceOnUse" x="0" y="0" width="43" height="29"><path fill-rule="evenodd" clip-rule="evenodd" d="M32.084.703c1.656.293 3.016 1.758 3.253 2.05L37.939 7.5h3.963c.473 0 .828.352.828.762V9.9c0 .41-.355.762-.828.762h-2.248l1.183 1.113 1.183 4.98V27.77c0 .703-.532 1.23-1.242 1.23h-5.5c-.651 0-1.242-.527-1.242-1.23v-1.465H9.016v1.465c0 .703-.532 1.23-1.242 1.23h-5.5c-.651 0-1.242-.527-1.242-1.23 0-3.691.059-7.323.059-11.014l1.124-4.98 1.182-1.113H1.15A.78.78 0 01.38 9.9V8.26a.78.78 0 01.769-.762h4.022l2.602-4.745C7.952 2.46 9.312.996 11.027.703c6.447-.937 14.61-.937 21.057 0zm-7.749 21.09a.464.464 0 00.474-.468c0-.234-.178-.41-.474-.41h-5.619a.402.402 0 00-.414.41c0 .235.178.469.415.469h5.619zm1.006-1.64c.236 0 .414-.234.414-.468s-.177-.469-.414-.469h-7.57c-.237 0-.474.235-.474.469 0 .234.237.469.473.469h7.571zm1.36-1.64c.237 0 .414-.234.414-.469 0-.234-.177-.468-.414-.468H16.41c-.237 0-.473.234-.473.468 0 .235.236.47.473.47H26.7zm-15.437-1.172h-6.21a.805.805 0 00-.829.82v1.817c0 .468.355.82.829.82h6.21c.414 0 .828-.351.828-.82v-1.816c0-.47-.414-.82-.828-.82zm20.583 0h6.151c.474 0 .888.352.888.82v1.817c0 .468-.414.82-.888.82h-6.15a.805.805 0 01-.829-.82v-1.816c0-.47.355-.82.828-.82z" fill="#B5B5B5"/></mask><g mask="url(#a)"><path fill="#000" d="M.381 26.238H43.19v5.524H.381z"/></g><path d="M6.65 8.911l2.634-5.113c.348-.677.89-1.231 1.618-1.451 1.527-.46 4.85-1.119 11.114-.966 5.708.14 8.805.615 10.362.97.908.206 1.582.877 1.958 1.73l2.246 5.091a1 1 0 01-.922 1.404l-28.13-.207a1 1 0 01-.881-1.458zm50.032 7.66h35.444v5.984H56.682z" fill="#fff"/><path fill-rule="evenodd" clip-rule="evenodd" d="M84.703.703c1.656.293 3.016 1.758 3.253 2.05L90.558 7.5h3.963c.473 0 .828.352.828.762V9.9c0 .41-.355.762-.828.762h-2.247l1.183 1.113 1.182 4.98V27.77c0 .703-.532 1.23-1.242 1.23h-5.5c-.65 0-1.242-.527-1.242-1.23v-1.465h-25.02v1.465c0 .703-.532 1.23-1.242 1.23h-5.5c-.65 0-1.242-.527-1.242-1.23 0-3.691.059-7.323.059-11.014l1.124-4.98 1.182-1.113H53.77A.78.78 0 0153 9.9V8.26a.78.78 0 01.769-.762h4.022l2.602-4.745c.178-.293 1.538-1.758 3.253-2.051 6.448-.937 14.61-.937 21.057 0zm-7.749 21.09a.464.464 0 00.474-.468c0-.234-.178-.41-.474-.41h-5.618a.402.402 0 00-.415.41c0 .235.178.469.414.469h5.62zm1.006-1.64c.237 0 .414-.234.414-.468s-.177-.469-.414-.469h-7.57c-.237 0-.474.235-.474.469 0 .234.237.469.473.469h7.571zm1.36-1.64c.237 0 .414-.234.414-.469 0-.234-.177-.468-.414-.468H69.03c-.237 0-.473.234-.473.468 0 .235.236.47.473.47h10.29zm-15.437-1.172h-6.21a.805.805 0 00-.828.82v1.817c0 .468.354.82.828.82h6.21c.414 0 .828-.351.828-.82v-1.816c0-.47-.414-.82-.828-.82zm20.583 0L91 16.5c.473 0 .505 1.193.505 1.662V19c0 .469-.474.685-.947.685l-6.092.815c-.473 0-.828-.053-.828-.522v-1.816c0-.47.355-.82.828-.82z" fill="#B5B5B5"/><mask id="b" maskUnits="userSpaceOnUse" x="53" y="0" width="43" height="29"><path fill-rule="evenodd" clip-rule="evenodd" d="M84.703.703c1.656.293 3.016 1.758 3.253 2.05L90.558 7.5h3.963c.473 0 .828.352.828.762V9.9c0 .41-.355.762-.828.762h-2.247l1.183 1.113 1.182 4.98V27.77c0 .703-.532 1.23-1.242 1.23h-5.5c-.65 0-1.242-.527-1.242-1.23v-1.465h-25.02v1.465c0 .703-.532 1.23-1.242 1.23h-5.5c-.65 0-1.242-.527-1.242-1.23 0-3.691.059-7.323.059-11.014l1.124-4.98 1.182-1.113H53.77A.78.78 0 0153 9.9V8.26a.78.78 0 01.769-.762h4.022l2.602-4.745c.178-.293 1.538-1.758 3.253-2.051 6.448-.937 14.61-.937 21.057 0zm-7.749 21.09a.464.464 0 00.474-.468c0-.234-.178-.41-.474-.41h-5.618a.402.402 0 00-.415.41c0 .235.178.469.414.469h5.62zm1.006-1.64c.237 0 .414-.234.414-.468s-.177-.469-.414-.469h-7.57c-.237 0-.474.235-.474.469 0 .234.237.469.473.469h7.571zm1.36-1.64c.237 0 .414-.234.414-.469 0-.234-.177-.468-.414-.468H69.03c-.237 0-.473.234-.473.468 0 .235.236.47.473.47h10.29zm-15.437-1.172h-6.21a.805.805 0 00-.828.82v1.817c0 .468.354.82.828.82h6.21c.414 0 .828-.351.828-.82v-1.816c0-.47-.414-.82-.828-.82zm20.583 0h6.152c.473 0 .887.352.887.82v1.817c0 .468-.414.82-.887.82h-6.152a.805.805 0 01-.828-.82v-1.816c0-.47.355-.82.828-.82z" fill="#B5B5B5"/></mask><g mask="url(#b)"><path fill="#000" d="M53 26.238h42.809v5.524H53z"/></g><path d="M59.269 8.911l2.634-5.113c.348-.677.89-1.231 1.618-1.451 1.527-.46 4.85-1.119 11.114-.966 5.708.14 8.805.615 10.362.97.908.206 1.582.877 1.958 1.73L89.2 9.172a1 1 0 01-.922 1.404l-28.129-.207a1 1 0 01-.881-1.458z" fill="#fff"/><path fill-rule="evenodd" clip-rule="evenodd" d="M61.168 7.945c2.307.394 4.202 2.364 4.532 2.758l3.625 6.382C73.5 16 76.5 19 73.281 21.5l.082 1.336 1.648 6.697v14.813c0 .945-.741 1.654-1.73 1.654h-7.664c-.906 0-1.73-.71-1.73-1.654v-1.97H29.03v1.97c0 .945-.742 1.654-1.73 1.654h-7.664c-.907 0-1.73-.71-1.73-1.654 0-4.964.082-9.849.082-14.813l1.566-6.697c0-2.5-3.45-5.836 2.445-5.836l1.675.085 3.625-6.382c.247-.394 2.143-2.364 4.532-2.758 8.982-1.26 20.354-1.26 29.336 0zM50.373 36.31c.412 0 .66-.315.66-.63s-.248-.552-.66-.552h-7.828c-.33 0-.577.237-.577.552 0 .315.247.63.577.63h7.828zm1.4-2.206c.33 0 .578-.315.578-.63s-.248-.63-.577-.63H41.226c-.33 0-.659.315-.659.63s.33.63.66.63h10.547zm1.896-2.206c.33 0 .577-.315.577-.63 0-.316-.247-.63-.577-.63H39.331c-.33 0-.66.314-.66.63 0 .315.33.63.66.63h14.338zm-21.507-1.576H23.51c-.66 0-1.154.473-1.154 1.103v2.443c0 .63.495 1.103 1.154 1.103h8.652c.577 0 1.154-.473 1.154-1.103v-2.443c0-.63-.577-1.103-1.154-1.103zm28.676 0h8.57c.66 0 1.236.473 1.236 1.103v2.443c0 .63-.577 1.103-1.236 1.103h-8.57c-.66 0-1.154-.473-1.154-1.103v-2.443c0-.63.495-1.103 1.154-1.103z" fill="#F0F0F7"/><path fill="#fff" d="M25.444 29h42.778v7.222H25.444z"/><path fill-rule="evenodd" clip-rule="evenodd" d="M59.262 9.848c1.999.354 3.64 2.122 3.926 2.475l3.141 5.727h4.783c.57 0 1 .425 1 .92v1.98c0 .494-.43.919-1 .919h-2.713l1.428 1.343 1.427 6.01v13.293c0 .849-.642 1.485-1.499 1.485h-6.638c-.785 0-1.5-.636-1.5-1.485v-1.767H31.423v1.767c0 .849-.642 1.485-1.499 1.485h-6.639c-.785 0-1.499-.636-1.499-1.485 0-4.454.072-8.838.072-13.293l1.356-6.01 1.428-1.343h-2.713a.94.94 0 01-.928-.92v-1.98a.94.94 0 01.928-.919h4.854l3.141-5.727c.214-.353 1.856-2.121 3.926-2.475 7.781-1.13 17.632-1.13 25.413 0zm-9.351 25.455a.56.56 0 00.57-.566c0-.282-.214-.495-.57-.495h-6.782c-.285 0-.5.213-.5.495 0 .283.215.566.5.566h6.782zm1.213-1.98c.286 0 .5-.283.5-.565 0-.283-.214-.566-.5-.566h-9.137c-.286 0-.571.283-.571.566 0 .282.285.565.571.565h9.137zm1.642-1.98c.285 0 .5-.282.5-.565s-.215-.566-.5-.566h-12.42c-.286 0-.572.283-.572.566s.286.565.571.565h12.421zM34.135 29.93h-7.496a.972.972 0 00-.999.99v2.192c0 .566.428.99 1 .99h7.495c.5 0 1-.424 1-.99V30.92c0-.566-.5-.99-1-.99zm24.841 0H66.4c.571 0 1.071.425 1.071.99v2.192c0 .566-.5.99-1.07.99h-7.425c-.57 0-.999-.424-.999-.99V30.92c0-.566.428-.99 1-.99z" fill="#B5B5B5"/><mask id="c" maskUnits="userSpaceOnUse" x="21" y="9" width="52" height="35"><path fill-rule="evenodd" clip-rule="evenodd" d="M59.262 9.848c1.999.354 3.64 2.122 3.926 2.475l3.141 5.727h4.783c.57 0 1 .425 1 .92v1.98c0 .494-.43.919-1 .919h-2.713l1.428 1.343 1.427 6.01v13.293c0 .849-.642 1.485-1.499 1.485h-6.638c-.785 0-1.5-.636-1.5-1.485v-1.767H31.423v1.767c0 .849-.642 1.485-1.499 1.485h-6.639c-.785 0-1.499-.636-1.499-1.485 0-4.454.072-8.838.072-13.293l1.356-6.01 1.428-1.343h-2.713a.94.94 0 01-.928-.92v-1.98a.94.94 0 01.928-.919h4.854l3.141-5.727c.214-.353 1.856-2.121 3.926-2.475 7.781-1.13 17.632-1.13 25.413 0zm-9.351 25.455a.56.56 0 00.57-.566c0-.282-.214-.495-.57-.495h-6.782c-.285 0-.5.213-.5.495 0 .283.215.566.5.566h6.782zm1.213-1.98c.286 0 .5-.283.5-.565 0-.283-.214-.566-.5-.566h-9.137c-.286 0-.571.283-.571.566 0 .282.285.565.571.565h9.137zm1.642-1.98c.285 0 .5-.282.5-.565s-.215-.566-.5-.566h-12.42c-.286 0-.572.283-.572.566s.286.565.571.565h12.421zM34.135 29.93h-7.496a.972.972 0 00-.999.99v2.192c0 .566.428.99 1 .99h7.495c.5 0 1-.424 1-.99V30.92c0-.566-.5-.99-1-.99zm24.841 0H66.4c.571 0 1.071.425 1.071.99v2.192c0 .566-.5.99-1.07.99h-7.425c-.57 0-.999-.424-.999-.99V30.92c0-.566.428-.99 1-.99z" fill="#B5B5B5"/></mask><g mask="url(#c)"><path fill="#000" d="M21 40.667h51.667v6.667H21z"/></g><path d="M28.412 20.054l3.443-6.685c.349-.676.89-1.232 1.614-1.465 1.727-.555 5.75-1.43 13.642-1.237 7.263.177 11.024.806 12.796 1.238.905.221 1.577.895 1.953 1.747l2.96 6.71a1 1 0 01-.922 1.404l-34.605-.254a1 1 0 01-.881-1.458z" fill="#fff"/></svg>