<svg width="82" height="40" fill="none" xmlns="http://www.w3.org/2000/svg"><path d="M63 8l13.5 1 2.5 9H63V8zm10 16l7-2-.5 9-3.5-.5-3-6.5zm-2 10a4 4 0 11-8 0 4 4 0 018 0zm-42-.5a4.5 4.5 0 11-9 0 4.5 4.5 0 019 0zm-14 0a4.5 4.5 0 11-9 0 4.5 4.5 0 019 0z" fill="#fff"/><path d="M1.736 15.39v1.364H54.7L56.033.45h1.201v18.869h1.391V3.239h-.89s-.355-3.645 1.868-3.2l5.871 1.6s7.473-.355 8.896 2.225l.711 1.69h1.512L78.995 8.4s1.246 1.156-1.779 1.156l1.602 4.893s2.402 2.402 2.402 10.853h-1.156v5.694s.178 3.202-2.313 3.202h-4.003s1.69-7.83-8.095-7.83l-4.354.11c-2.487 2.56-2.534 7.47-2.534 7.47h-2.3v-7.223h-2.816v.73h.957c.578 0 1.045.468 1.045 1.046v2.646c0 .577-.468 1.045-1.045 1.045h-9.52a1.045 1.045 0 01-1.045-1.045V28.5c0-.578.468-1.046 1.045-1.046h1.624v-.73h-5.337v.735c.525.056.934.5.934 1.04v3.714c0 .578-.468 1.047-1.045 1.047h-2.651a1.046 1.046 0 01-1.045-1.047V28.5c0-.542.41-.987.938-1.041v-.735h-3.428v7.224h-2.301s-.035-3.457-1.674-5.93l-1.943 1.784a6.214 6.214 0 00-4.683-2.107c-1.67 0-3.24.65-4.421 1.83a6.297 6.297 0 00-1.092 1.466h-2.848a6.29 6.29 0 00-1.092-1.465 6.211 6.211 0 00-4.422-1.831 6.215 6.215 0 00-4.682 2.107l-1.943-1.784c-1.638 2.473-1.673 5.93-1.673 5.93H0V15.39h1.736zm76.682 14.786c0 .059.048.107.107.107h1.031a.108.108 0 00.107-.107v-2.544a.106.106 0 00-.107-.107h-1.031a.106.106 0 00-.107.107v2.544zM69.797 11.24v4.47c0 1.536 2.535 1.388 2.535 1.388h4.671c1.868 0 .8-2.655.8-2.655l-1.601-4.537h-4.604c-2.002 0-1.801 1.334-1.801 1.334zm-2.05 5.857c.342 0 .619-.292.619-.651v-5.89c0-.36-.277-.65-.619-.65h-3.478c-.342 0-.619.292-.619.65v5.89c0 .36.277.65.619.65h3.478zM47.644 27.455h5.071v-.73h-5.071v.73zm-8.207 0h1.001v-.73h-1.001v.73z" fill="#BFBFBF"/><path d="M66.725 28.158a5.797 5.797 0 015.79 5.79 5.797 5.797 0 01-5.79 5.79 5.797 5.797 0 01-5.79-5.79 5.797 5.797 0 015.79-5.79zm-2.74 3.887a.275.275 0 00-.371.107.274.274 0 00.092.375.274.274 0 00.37-.107.274.274 0 00-.091-.375zm1.318-1.114a.273.273 0 00-.375-.093.272.272 0 00-.107.37.271.271 0 00.374.092.27.27 0 00.108-.37zm1.699-.306v-.008a.271.271 0 00-.249-.26h-.056a.288.288 0 00-.169.078.261.261 0 00-.018.358.287.287 0 00.392.037.263.263 0 00.1-.205zm1.518.213a.272.272 0 00-.374.093.27.27 0 00.107.369.272.272 0 00.375-.092.273.273 0 00-.108-.37zm1.314 1.314a.272.272 0 00-.37-.107.273.273 0 00-.092.375.272.272 0 00.37.107.273.273 0 00.092-.375zm.482 1.796a.272.272 0 00-.268-.277.271.271 0 00-.266.277c0 .154.119.278.266.278a.273.273 0 00.268-.278zm-.851 1.902a.272.272 0 00.37-.107.272.272 0 00-.092-.374.273.273 0 00-.37.107.27.27 0 00.092.374zm-1.319 1.116a.274.274 0 00.374.093.273.273 0 00.107-.371.275.275 0 00-.375-.093.274.274 0 00-.106.37zm-1.421.573c.153 0 .277-.12.277-.268a.272.272 0 00-.277-.267.272.272 0 00-.278.267c0 .148.123.268.278.268zm0-1.767a1.824 1.824 0 100-3.65 1.824 1.824 0 000 3.65zm-1.796 1.286a.275.275 0 00.375-.093.274.274 0 00-.107-.371.274.274 0 00-.374.093.272.272 0 00.106.37zm-1.315-1.315a.271.271 0 00.371.107.273.273 0 00.092-.374.27.27 0 00-.37-.107.273.273 0 00-.093.374zm-.213-1.517a.273.273 0 00.267-.278.272.272 0 00-.267-.277.272.272 0 00-.267.277c0 .154.12.278.267.278zm-38.926-6.068c1.726 0 3.277.759 4.339 1.96a5.767 5.767 0 011.451 3.83 5.797 5.797 0 01-5.79 5.79 5.797 5.797 0 01-5.789-5.79 5.794 5.794 0 015.789-5.79zm-1.421 2.773a.272.272 0 00-.374-.093.289.289 0 00-.126.153.252.252 0 00.02.217.27.27 0 00.373.092.275.275 0 00.133-.31.243.243 0 00-.026-.06zm1.421-.574a.273.273 0 00-.277.268c0 .146.124.267.277.267.154 0 .278-.12.278-.267a.272.272 0 00-.278-.268zm1.796.48a.272.272 0 00-.374.094.275.275 0 00.108.37c.133.077.3.037.374-.092a.259.259 0 00.02-.217.286.286 0 00-.128-.154zm.853 1.583a.272.272 0 00.37.107.273.273 0 00.092-.375.271.271 0 00-.369-.107.272.272 0 00-.093.375zm.943 1.528a.271.271 0 00-.268-.277.272.272 0 00-.267.277c0 .154.12.278.267.278a.272.272 0 00.268-.278zm-.851 1.902a.271.271 0 00.369-.107.273.273 0 00-.092-.374.273.273 0 00-.37.107.273.273 0 00.093.374zm-1.319 1.116a.274.274 0 00.374.093.273.273 0 00.107-.371.274.274 0 00-.374-.093.275.275 0 00-.107.37zm-1.422.573c.154 0 .278-.12.278-.268a.272.272 0 00-.278-.267.272.272 0 00-.277.267c0 .148.124.268.277.268zm0-1.767a1.824 1.824 0 100-3.648 1.824 1.824 0 000 3.648zm-1.795 1.286a.274.274 0 00.374-.093.273.273 0 00-.107-.371.273.273 0 00-.373.093.274.274 0 00.106.37zm-.943-5.013a.275.275 0 00-.371.107.274.274 0 00.093.375.274.274 0 00.37-.107.275.275 0 00-.092-.375zm-.371 3.698a.271.271 0 00.371.107.273.273 0 00.092-.374.271.271 0 00-.37-.107.273.273 0 00-.093.374zm-.214-1.517a.273.273 0 00.267-.278.271.271 0 00-.267-.277.271.271 0 00-.267.277c0 .154.12.278.267.278zm-10.551-6.068a5.796 5.796 0 015.79 5.79 5.797 5.797 0 01-5.79 5.79 5.796 5.796 0 01-5.789-5.79c0-1.467.549-2.81 1.451-3.83a5.776 5.776 0 014.338-1.96zM9.18 30.93a.272.272 0 00-.374-.093.286.286 0 00-.127.153.26.26 0 00.02.217.27.27 0 00.374.092.276.276 0 00.132-.31.239.239 0 00-.025-.06zm1.421-.574a.273.273 0 00-.278.268c0 .146.125.267.278.267.153 0 .278-.12.278-.267a.272.272 0 00-.278-.268zm1.796.48a.273.273 0 00-.375.094.277.277 0 00.108.37.272.272 0 00.375-.092.262.262 0 00.019-.217.289.289 0 00-.127-.154zm.852 1.583a.272.272 0 00.37.107.274.274 0 00.093-.375.272.272 0 00-.37-.107.274.274 0 00-.093.375zm.943 1.528a.271.271 0 00-.267-.277.272.272 0 00-.268.277c0 .154.12.278.268.278a.272.272 0 00.267-.278zm-.851 1.902a.272.272 0 00.37-.107.273.273 0 00-.093-.374.273.273 0 00-.37.107.275.275 0 00.093.374zm-1.319 1.116a.275.275 0 00.375.093.273.273 0 00.107-.371.275.275 0 00-.375-.093.275.275 0 00-.107.37zm-1.421.573c.153 0 .278-.12.278-.268a.273.273 0 00-.278-.267.273.273 0 00-.278.267c0 .148.125.268.278.268zm0-1.767a1.824 1.824 0 10-.001-3.648 1.824 1.824 0 00.001 3.648zm-1.795 1.286c.132.075.3.035.374-.093a.274.274 0 00-.107-.371.274.274 0 00-.374.093.273.273 0 00.107.37zm-.944-5.013a.274.274 0 00-.37.107.272.272 0 00.093.375.273.273 0 00.369-.107.274.274 0 00-.092-.375zm-.37 3.698a.27.27 0 00.37.107.273.273 0 00.092-.374.27.27 0 00-.369-.107.271.271 0 00-.093.374zm-.215-1.517a.273.273 0 00.268-.278.271.271 0 00-.268-.277.272.272 0 00-.267.277c0 .154.12.278.267.278zM9 11.36s.055 1.45.78 1.936a7.318 7.318 0 002.827 1.147c.513.12 1.048.12 1.56 0 0 0 .285 1.566 2.667 1.555 2.382-.01 3.046-1.555 3.046-1.555h.793l.335.39h.552l.3-.39h17.695s.592 1.487 3.147 1.555c2.554.068 2.801-1.744 2.801-1.744h.438s.057.695.272.58c.215-.117.255-.419.763-.58.508-.16 2.471-.415 2.524-1.168a.968.968 0 00-.908.21h-1.616l-.477-3.181-2.837-1.413h-4.107l-4.805 2.197-10.537.617h-2.49l-2.015-2.218L17.48 8.5h-2.87l-2.006 1.615-.373 2.016-1.926-.197L9 11.36z" fill="#000"/><path d="M9.067 5.935c-.364-.07 1.04-.156 2.712-1.079 1.673-.922 6.884-2.711 10.905-2.811 4.02-.1 5.277 0 5.277 0S32.2 2.01 39.704 6.183c3.08.299 9.266 1.944 10.01 2.923.12.25.162.53.122.804a8.035 8.035 0 01-.283 1.019.345.345 0 00.162.525.61.61 0 01.251.724c-.09.221-.412 1.085-.412 1.085a.661.661 0 01-.457.234c-.278.007-2.017 0-2.017 0s.259-4.451-4.25-4.65c-4.099-.183-4.411 4.65-4.411 4.65l-17.21-.305s-.065-4.344-4.162-4.344c-4.097 0-4.486 3.83-4.486 3.83l-2.838-.26a.649.649 0 01-.416-.427c-.048-.18-.13-.35-.239-.5a2.72 2.72 0 010-1.2c.142-.675.222-1.36.239-2.05h.273V6.657h-.273s.125-.65-.239-.722z" fill="#BFBFBF"/><path d="M14.345 4.455s3.5-1.81 8.945-1.91c5.446-.1 4.919 0 4.919 0s4.694-.061 10.166 4.137c.237.181.147.332-.36.317-.507-.015-18.035-.97-18.035-.97s-4.86-.29-5.635-.794c-.776-.504 0-.78 0-.78z" fill="#fff"/><path d="M25.5 2.522l.189.33s.336 3.146.202 3.722c-.135.576 2.609.401 2.609.401l-.522-.4-.787-2.784s-.196-1.22.466-1.27c.662-.048-2.157 0-2.157 0z" fill="#BFBFBF"/><path d="M16.75 15a2.25 2.25 0 100-4.5 2.25 2.25 0 000 4.5z" stroke="#BFBFBF" stroke-width="2"/><path d="M15.003 11.544c-.27.19-.41.229-.483.951a.832.832 0 00.067.55c.085.174.228.33.416.448a.596.596 0 00.246-.014.481.481 0 00.203-.109c.148-.17-.093-.368-.077-.721a2.776 2.776 0 01.077-.788c.053-.026-.18-.507-.449-.317z" fill="#fff"/><path d="M16 10.599L16.419 13h.436l.645-2.5-1.5.099z" fill="#BFBFBF"/><path d="M18.068 10.795L16.62 12.89l.151.1 1.88-1.932-.584-.263z" fill="#BFBFBF"/><path d="M14.867 11.038l1.735 1.902.151-.1-1.432-2.228-.454.426z" fill="#BFBFBF"/><path d="M14.106 12.39l2.651.524.052-.163-2.632-.951-.07.59z" fill="#BFBFBF"/><path d="M19.182 11.948l-2.568.798.048.165 2.793-.423-.273-.54zM17 15.402L16.721 13h-.29L16 15.25l1 .152z" fill="#BFBFBF"/><path d="M15.387 14.935l1.447-2.095-.151-.1-1.88 1.932.584.263z" fill="#BFBFBF"/><path d="M18.588 14.693l-1.736-1.903-.15.1 1.432 2.228.454-.425z" fill="#BFBFBF"/><path d="M19.348 13.34l-2.65-.524-.052.163 2.632.951.07-.59z" fill="#BFBFBF"/><path d="M14.273 13.782l2.568-.798-.048-.164-2.543.18.023.782z" fill="#BFBFBF"/><path d="M42.75 15a2.25 2.25 0 100-4.5 2.25 2.25 0 000 4.5z" stroke="#BFBFBF" stroke-width="2"/><path d="M41.252 11.544c-.135.19-.206.229-.242.951-.02.185-.009.374.033.55.043.174.115.33.209.448a.156.156 0 00.123-.014.262.262 0 00.1-.109c.075-.17-.045-.368-.037-.721a5.48 5.48 0 01.038-.788c.026-.026-.09-.507-.224-.317z" fill="#fff"/><path d="M42.5 10.599L42.64 13h.145L43 10.5l-.5.099z" fill="#BFBFBF"/><path d="M43.88 10.795l-1.32 2.095.137.1 1.716-1.932-.533-.263z" fill="#BFBFBF"/><path d="M40.958 11.038l1.584 1.902.138-.1-1.308-2.228-.414.426z" fill="#BFBFBF"/><path d="M40.264 12.39l2.42.524.047-.163-2.403-.951-.064.59z" fill="#BFBFBF"/><path d="M44.897 11.948l-2.345.798.044.165 2.55-.423-.25-.54zM43 15.402L42.86 13h-.145l-.215 2.5.5-.098z" fill="#BFBFBF"/><path d="M41.433 14.935l1.32-2.095-.138-.1-1.715 1.932.533.263z" fill="#BFBFBF"/><path d="M44.355 14.693L42.77 12.79l-.137.1 1.307 2.228.415-.425z" fill="#BFBFBF"/><path d="M45.049 13.34l-2.42-.524-.047.163 2.402.951.065-.59z" fill="#BFBFBF"/><path d="M40.416 13.782l2.345-.798-.045-.164-2.549.422.25.54z" fill="#BFBFBF"/><path d="M9.245 6.506c.233.025.47.025.703 0l1.757.907s.663.357 0 .488a9.966 9.966 0 01-1.757.093h-.703S8.987 7.828 9 7.62c.014-.206 0-.88 0-.88s.087-.284.244-.235zm16.292.496c.176.03 3.191.145 3.191.145s.482.314.163.349c-.318.035-3.026-.168-3.026-.168s-.503-.356-.328-.326zM45 8h1.876a4.632 4.632 0 011.938.758c.178.118.196.133.182.37a.549.549 0 01-.182.372H46.71L45 8zm3.003 3.123c.03.148.33 1.813.33 1.813s.162.207.165-.124c.004-.33 0-1.636 0-1.636s-.01-.162-.166-.17c-.155-.008-.36-.03-.329.117z" fill="#fff"/></svg>