<svg xmlns="http://www.w3.org/2000/svg" viewBox="8775.239 1080.76 74.144 79.24"><defs><filter id="Path_179" x="8784.379" y="1082" width="65.004" height="78" filterUnits="userSpaceOnUse"><feOffset dy="3"/><feGaussianBlur stdDeviation="3" result="blur"/><feFlood flood-opacity=".161"/><feComposite operator="in" in2="blur"/><feComposite in="SourceGraphic"/></filter><style>.cls-1{fill:#fff}.cls-2{fill:#bfbfbf}.cls-3{fill:#f06b00}</style></defs><g id="icon_FAQ" transform="translate(8786 1081.32)"><g transform="translate(-8786 -1081.32)" filter="url(#Path_179)"><path id="Path_179-2" data-name="Path 179" class="cls-1" d="M2 0h43a2 2 0 012 2v48.984L37.983 60H2a2 2 0 01-2-2V2a2 2 0 012-2z" transform="translate(8793.38 1088)"/></g><path id="Path_178" data-name="Path 178" class="cls-2" d="M2 0h7L0 9V2a2 2 0 012-2z" transform="translate(45.379 57.68)"/><rect id="Rectangle_195" data-name="Rectangle 195" class="cls-2" width="39" height="2" rx="1" transform="translate(11.379 11.68)"/><rect id="Rectangle_196" data-name="Rectangle 196" class="cls-2" width="39" height="2" rx="1" transform="translate(11.379 16.68)"/><rect id="Rectangle_197" data-name="Rectangle 197" class="cls-2" width="34" height="2" rx="1" transform="translate(11.379 21.68)"/><rect id="Rectangle_198" data-name="Rectangle 198" class="cls-2" width="26" height="2" rx="1" transform="translate(11.379 26.68)"/><rect id="Rectangle_199" data-name="Rectangle 199" class="cls-2" width="26" height="2" rx="1" transform="translate(11.379 31.68)"/><rect id="Rectangle_200" data-name="Rectangle 200" class="cls-2" width="39" height="2" rx="1" transform="translate(11.379 36.68)"/><rect id="Rectangle_203" data-name="Rectangle 203" class="cls-2" width="39" height="2" rx="1" transform="translate(11.379 41.68)"/><rect id="Rectangle_201" data-name="Rectangle 201" class="cls-2" width="20" height="2" rx="1" transform="translate(11.379 46.68)"/><rect id="Rectangle_202" data-name="Rectangle 202" class="cls-2" width="10" height="2" rx="1" transform="translate(11.379 51.68)"/><g id="pen" transform="rotate(45 7.4 79.398)"><path id="Rectangle_214" data-name="Rectangle 214" class="cls-3" transform="translate(-35 18.68)" d="M0 0h9v44H0z"/><path id="Path_217" data-name="Path 217" class="cls-3" d="M4.523 36.039L9 44H0z" transform="translate(-35 -27.32)"/><path id="Rectangle_215" data-name="Rectangle 215" class="cls-1" transform="translate(-31 22.68)" d="M0 0h1v36H0z"/></g></g></svg>