<svg xmlns="http://www.w3.org/2000/svg" viewBox="9034 1009.557 120.597 54.445"><defs><filter id="body" x="9035.78" y="1009.557" width="117.776" height="50.603" filterUnits="userSpaceOnUse"><feOffset dy="3"/><feGaussianBlur stdDeviation="4" result="blur"/><feFlood flood-opacity=".161"/><feComposite operator="in" in2="blur"/><feComposite in="SourceGraphic"/></filter><filter id="Path_185" x="9064.464" y="1012.892" width="38.996" height="31.46" filterUnits="userSpaceOnUse"><feOffset dy="3"/><feGaussianBlur stdDeviation="4" result="blur-2"/><feFlood flood-opacity=".161"/><feComposite operator="in" in2="blur-2"/><feComposite in="SourceGraphic"/></filter><filter id="Path_186" x="9081.941" y="1012.953" width="40.309" height="31.239" filterUnits="userSpaceOnUse"><feOffset dy="3"/><feGaussianBlur stdDeviation="4" result="blur-3"/><feFlood flood-opacity=".161"/><feComposite operator="in" in2="blur-3"/><feComposite in="SourceGraphic"/></filter><filter id="Path_187" x="9095.231" y="1011.824" width="33.187" height="31.359" filterUnits="userSpaceOnUse"><feOffset dy="3"/><feGaussianBlur stdDeviation="4" result="blur-4"/><feFlood flood-opacity=".161"/><feComposite operator="in" in2="blur-4"/><feComposite in="SourceGraphic"/></filter><filter id="Path_188" x="9052.177" y="1012.693" width="31.416" height="31.357" filterUnits="userSpaceOnUse"><feOffset dy="3"/><feGaussianBlur stdDeviation="4" result="blur-5"/><feFlood flood-opacity=".161"/><feComposite operator="in" in2="blur-5"/><feComposite in="SourceGraphic"/></filter><filter id="Path_194" x="9034" y="1030.13" width="29.941" height="27.567" filterUnits="userSpaceOnUse"><feOffset dy="3"/><feGaussianBlur stdDeviation="4" result="blur-6"/><feFlood flood-opacity=".161"/><feComposite operator="in" in2="blur-6"/><feComposite in="SourceGraphic"/></filter><filter id="Path_195" x="9121.527" y="1031.522" width="33.069" height="27.03" filterUnits="userSpaceOnUse"><feOffset dy="3"/><feGaussianBlur stdDeviation="4" result="blur-7"/><feFlood flood-opacity=".161"/><feComposite operator="in" in2="blur-7"/><feComposite in="SourceGraphic"/></filter><style>.cls-1{fill:#bfbfbf}.cls-2{fill:#fff}.cls-3{fill:#f06b00}</style></defs><g id="icon_car_search" transform="translate(8748.133 540)"><g id="recent_car" transform="translate(-266.002 50.65)"><g id="wheel" transform="translate(581.334 447.091)"><circle id="Ellipse_3" data-name="Ellipse 3" cx="7.379" cy="7.379" r="7.379"/><circle id="Ellipse_4" data-name="Ellipse 4" class="cls-1" cx="3.546" cy="3.546" r="3.546" transform="translate(3.833 3.833)"/><circle id="Ellipse_5" data-name="Ellipse 5" class="cls-2" cx="1.629" cy="1.629" r="1.629" transform="translate(5.75 5.75)"/></g><g id="wheel-2" data-name="wheel" transform="translate(637.488 447.091)"><circle id="Ellipse_3-2" data-name="Ellipse 3" cx="7.379" cy="7.379" r="7.379"/><circle id="Ellipse_4-2" data-name="Ellipse 4" class="cls-1" cx="3.546" cy="3.546" r="3.546" transform="translate(3.833 3.833)"/><circle id="Ellipse_5-2" data-name="Ellipse 5" class="cls-2" cx="1.629" cy="1.629" r="1.629" transform="translate(5.75 5.75)"/></g><g transform="translate(-8482.13 -590.65)" filter="url(#body)"><path id="body-2" data-name="body" class="cls-1" d="M573.9 446.407l-.615 3.115s-1.07 2.111 2.9 2.26 12.092.481 12.092.481l.327-1.835s-.224-1.319 1.861-1.259 11.525 0 11.525 0a2.552 2.552 0 011.854 2.184c.339 1.893.22 2.729 1.966 2.724s37.436.434 37.436.434 1.21-8.113 5.541-8.373a48.857 48.857 0 016.967 0s2.843.168 3.6 2.415 1.2 3.711 1.2 3.711h4.712l1.662-7.294v-3.482a1.726 1.726 0 00-1.662-1.3 5.971 5.971 0 01-2.736-1.08s-15.879-1.979-20.936-1.747c-2.612-2.675-8.363-7.619-8.363-7.619s-2.407-2.252-15.779-1.77-15.2.828-20.737 2.728a57.134 57.134 0 00-6.687 7.163 42.126 42.126 0 00-13.442 2.769 7.841 7.841 0 000 2.944l-1.32 2.828z" transform="translate(8474.62 590.65)"/></g><g transform="translate(-8482.13 -590.65)" filter="url(#Path_185)"><path id="Path_185-2" data-name="Path 185" class="cls-2" d="M722.822 448.076a7.918 7.918 0 013.053-1.7c1.818-.509 11.059-1.063 11.059-1.063s.543-.109.551 1.063.327 5.7.327 5.7.134.638-.878.675-13.155 0-13.155 0-.471-.157-.559-1-.398-3.675-.398-3.675z" transform="translate(8353.64 576.58)"/></g><g transform="translate(-8482.13 -590.65)" filter="url(#Path_186)"><path id="Path_186-2" data-name="Path 186" class="cls-2" d="M814.014 446.446l.362 5.536s.037.89.8.883 14.274 0 14.274 0 1.239-.275.761-.883-5.325-5.536-5.325-5.536a2.436 2.436 0 00-2.161-.818c-1.643.013-7.979 0-7.979 0s-.764-.06-.733.543" transform="translate(8279.93 576.33)"/></g><g transform="translate(-8482.13 -590.65)" filter="url(#Path_187)"><path id="Path_187-2" data-name="Path 187" class="cls-2" d="M884.473 439.732l-.782.6a.769.769 0 000 1.255c.747.691 4.891 4.767 4.891 4.767a2.222 2.222 0 002.294.6c1.239-.521 1.669 0 1.669 0z" transform="translate(8223.87 581.09)"/></g><g transform="translate(-8482.13 -590.65)" filter="url(#Path_188)"><path id="Path_188-2" data-name="Path 188" class="cls-2" d="M661.7 451.37h2.3s.466.878 1.738-.611 3.3-3.756 3.3-3.756a4.1 4.1 0 000-1.8c-.2-1.256-.773-.875-.773-.875z" transform="translate(8402.47 577.42)"/></g><path id="Path_189" data-name="Path 189" class="cls-2" d="M576.578 494.955c-.3-.173-2.329.755-2.329.755l-.249.527a.742.742 0 00-.639.151 2.519 2.519 0 00-.193 1.542 1.187 1.187 0 00.488.41v1.509l.344.907h1.255l.635-.907.687-1.92s.301-2.801.001-2.974z" transform="translate(-7.51 -54.194)"/><path id="Path_190" data-name="Path 190" class="cls-2" d="M1060.518 494.285c-.211-.931-.564-1.147-.564-1.147s1.89.247 2.131.572a6.6 6.6 0 010 2.189 9.777 9.777 0 01-.483 1.733c-.175.222-1.259 0-1.259 0l.336-1.733a6.042 6.042 0 00-.161-1.614z" transform="translate(-401.267 -52.729)"/><path id="Path_191" data-name="Path 191" class="cls-2" d="M1037.995 532.014h4.229v1.359h-3.043z" transform="translate(-383.259 -84.154)"/><path id="Path_192" data-name="Path 192" class="cls-2" d="M722.822 490.848v.818h1.55v-.4s1.616-.328 1.808 0 1.031.4 1.031.4v-.818h-4.388z" transform="translate(-128.49 -50.877)"/><path id="Path_193" data-name="Path 193" class="cls-3" d="M722.822 490.848v.818h1.55v-.4s1.616-.328 1.808 0 1.031.4 1.031.4v-.818h-4.388z" transform="translate(-110.666 -50.877)"/><g transform="translate(-8482.13 -590.65)" filter="url(#Path_194)"><path id="Path_194-2" data-name="Path 194" class="cls-2" d="M565.919 535.254c1.007.042 2.565 0 2.565 0s1.411.387 1.321 1.558-.507 1.931-.879 1.984-3.265 0-3.265 0-1.683.133-1.787-1.34a1.969 1.969 0 012.045-2.202z" transform="translate(8482.13 503.88)"/></g><g transform="translate(-8482.13 -590.65)" filter="url(#Path_195)"><path id="Path_195-2" data-name="Path 195" class="cls-2" d="M1026.488 542.516h7.192s1.758-.065 1.864 1.03-.433 1.98-.944 1.993-7.078 0-7.078 0z" transform="translate(8107.04 498.01)"/></g></g><g id="glass" transform="rotate(-45 371.575 504.75)"><path id="Line_132" data-name="Line 132" fill="none" stroke="#f06b00" stroke-width="8" d="M371.604 500.183l-.133 27.672"/><rect id="Rectangle_226" data-name="Rectangle 226" class="cls-3" width="29" height="12" rx="5" transform="translate(357 489)"/><rect id="Rectangle_227" data-name="Rectangle 227" class="cls-3" width="8" height="16" rx="4" transform="translate(355.075 487)"/><rect id="Rectangle_228" data-name="Rectangle 228" class="cls-3" width="8" height="16" rx="4" transform="translate(380.075 487)"/></g></g></svg>