<svg xmlns="http://www.w3.org/2000/svg" viewBox="9335.953 1096.178 101.409 51.187"><defs><style>.cls-1{fill:#bfbfbf}.cls-2{fill:#fff}.cls-3,.cls-7{fill:none}.cls-3{stroke:#bfbfbf;stroke-width:2px}.cls-6{stroke:none}</style></defs><g id="Group_204" data-name="Group 204" transform="translate(9014 618)"><g id="Group_180" data-name="Group 180" transform="translate(-665.046 -33.986)"><path id="Path_197" data-name="Path 197" d="M987 582.021s.136 3.677 1.944 4.907a18.065 18.065 0 007.044 2.907 8.4 8.4 0 003.891 0s.709 3.971 6.645 3.944 7.592-3.944 7.592-3.944h1.976l.833.992h1.377l.748-.992h44.1s1.475 3.771 7.841 3.944 6.982-4.421 6.982-4.421h1.09s.144 1.762.68 1.468.634-1.061 1.9-1.468 6.16-1.054 6.291-2.963a2.373 2.373 0 00-2.264.532h-4.027l-1.188-8.065-7.071-3.583h-10.234l-11.976 5.571-26.26 1.564h-6.205l-5.024-5.622-5.549-2.024h-7.151l-5 4.095-.93 5.111-4.8-.5z" transform="translate(0 -46.744)"/><path id="Path_196" data-name="Path 196" class="cls-1" d="M987.561 521.822c-.9-.173 2.567-.384 6.7-2.647s17.008-6.654 26.942-6.9 13.04 0 13.04 0 10.472-.083 29.009 10.155c7.611.733 22.894 4.771 24.734 7.172a3.4 3.4 0 01.3 1.974 19.617 19.617 0 01-.7 2.5.841.841 0 00.4 1.288 1.5 1.5 0 01.621 1.776c-.221.544-1.018 2.664-1.018 2.664a1.633 1.633 0 01-1.13.574c-.687.016-4.982 0-4.982 0s.639-10.923-10.5-11.409c-10.128-.45-10.9 11.409-10.9 11.409l-42.519-.749s-.162-10.66-10.284-10.66-11.083 9.4-11.083 9.4l-7.013-.638a1.606 1.606 0 01-1.027-1.048 3.7 3.7 0 00-.59-1.226 6.628 6.628 0 010-2.947 27.39 27.39 0 00.59-5.029h.674v-3.887h-.674s.309-1.594-.59-1.772z" transform="translate(-.28)"/><path id="Path_198" data-name="Path 198" class="cls-2" d="M1038.292 523.383s8.685-4.359 22.2-4.6 12.207 0 12.207 0 11.651-.146 25.232 9.963c.588.437.365.8-.894.764s-44.759-2.335-44.759-2.335-12.062-.7-13.987-1.913.001-1.879.001-1.879z" transform="translate(-37.659 -4.861)"/><path id="Path_199" data-name="Path 199" class="cls-1" d="M1147.884 516.071l.51.822s.908 7.849.545 9.285 7.049 1 7.049 1l-1.409-1-2.126-6.942s-.53-3.043 1.258-3.165-5.827 0-5.827 0z" transform="translate(-120.125 -2.877)"/><g id="wheel" transform="translate(1000.427 532.643)"><g id="Ellipse_6" data-name="Ellipse 6" class="cls-3"><circle class="cls-6" cx="6.46" cy="6.46" r="6.46"/><circle class="cls-7" cx="6.46" cy="6.46" r="5.46"/></g><path id="Path_215" data-name="Path 215" class="cls-2" d="M1300.268 607.689c-.506.463-.771.558-.907 2.323a2.592 2.592 0 00.907 2.437.868.868 0 00.842-.3c.278-.416-.173-.9-.143-1.762a8.749 8.749 0 01.143-1.924c.1-.063-.336-1.238-.842-.774z" transform="translate(-1297.234 -603.886)"/><path id="Path_200" data-name="Path 200" class="cls-1" d="M1063.275 594.188l.406 6.14h.423l.625-6.392z" transform="translate(-1057.378 -593.699)"/><path id="Path_201" data-name="Path 201" class="cls-1" d="M0 .251l.406 6.14h.423L1.455 0z" transform="rotate(36 3.025 15.492)"/><path id="Path_202" data-name="Path 202" class="cls-1" d="M0 .251l.406 6.14h.423L1.455 0z" transform="rotate(-36 3.807 -2.387)"/><path id="Path_203" data-name="Path 203" class="cls-1" d="M0 .251l.406 6.14h.423L1.455 0z" transform="rotate(-74 3.658 2.433)"/><path id="Path_204" data-name="Path 204" class="cls-1" d="M0 .251l.406 6.14h.423L1.455 0z" transform="rotate(74.99 3.427 10.114)"/><path id="Path_205" data-name="Path 205" class="cls-1" d="M0 .251l.406 6.14h.423L1.455 0z" transform="rotate(180 3.55 6.409)"/><path id="Path_206" data-name="Path 206" class="cls-1" d="M0 .251l.406 6.14h.423L1.455 0z" transform="rotate(-144 3.585 5.399)"/><path id="Path_207" data-name="Path 207" class="cls-1" d="M0 .251l.406 6.14h.423L1.455 0z" transform="rotate(144 3.602 7.401)"/><path id="Path_208" data-name="Path 208" class="cls-1" d="M0 .251l.406 6.14h.423L1.455 0z" transform="rotate(106 3.413 8.668)"/><path id="Path_209" data-name="Path 209" class="cls-1" d="M0 .251l.406 6.14h.423L1.455 0z" transform="rotate(-105.01 3.747 4.17)"/></g><g id="wheel-2" data-name="wheel" transform="translate(1064.27 532.643)"><g id="Ellipse_6-2" data-name="Ellipse 6" class="cls-3"><circle class="cls-6" cx="6.46" cy="6.46" r="6.46"/><circle class="cls-7" cx="6.46" cy="6.46" r="5.46"/></g><path id="Path_214" data-name="Path 214" class="cls-2" d="M1300.268 607.689c-.506.463-.771.558-.907 2.323a2.592 2.592 0 00.907 2.437.868.868 0 00.842-.3c.278-.416-.173-.9-.143-1.762a8.749 8.749 0 01.143-1.924c.1-.063-.336-1.238-.842-.774z" transform="translate(-1297.487 -603.886)"/><path id="Path_200-2" data-name="Path 200" class="cls-1" d="M1063.275 594.188l.406 6.14h.423l.625-6.392z" transform="translate(-1057.378 -593.699)"/><path id="Path_201-2" data-name="Path 201" class="cls-1" d="M0 .251l.406 6.14h.423L1.455 0z" transform="rotate(36 3.025 15.492)"/><path id="Path_202-2" data-name="Path 202" class="cls-1" d="M0 .251l.406 6.14h.423L1.455 0z" transform="rotate(-36 3.807 -2.387)"/><path id="Path_203-2" data-name="Path 203" class="cls-1" d="M0 .251l.406 6.14h.423L1.455 0z" transform="rotate(-74 3.658 2.433)"/><path id="Path_204-2" data-name="Path 204" class="cls-1" d="M0 .251l.406 6.14h.423L1.455 0z" transform="rotate(74.99 3.427 10.114)"/><path id="Path_205-2" data-name="Path 205" class="cls-1" d="M0 .251l.406 6.14h.423L1.455 0z" transform="rotate(180 3.55 6.409)"/><path id="Path_206-2" data-name="Path 206" class="cls-1" d="M0 .251l.406 6.14h.423L1.455 0z" transform="rotate(-144 3.585 5.399)"/><path id="Path_207-2" data-name="Path 207" class="cls-1" d="M0 .251l.406 6.14h.423L1.455 0z" transform="rotate(144 3.602 7.401)"/><path id="Path_208-2" data-name="Path 208" class="cls-1" d="M0 .251l.406 6.14h.423L1.455 0z" transform="rotate(106 3.413 8.668)"/><path id="Path_209-2" data-name="Path 209" class="cls-1" d="M0 .251l.406 6.14h.423L1.455 0z" transform="rotate(-105.01 3.747 4.17)"/></g><path id="Path_210" data-name="Path 210" class="cls-2" d="M989.053 557.373a7.623 7.623 0 001.712 0l4.282 2.315s1.615.913 0 1.246a23.185 23.185 0 01-4.282.237h-1.712s-.629-.424-.595-.951 0-2.244 0-2.244.214-.728.595-.603z" transform="translate(-1.088 -33.745)"/><path id="Path_211" data-name="Path 211" class="cls-2" d="M1147.589 561.437c.473.088 8.584.431 8.584.431s1.295.934.438 1.037-8.139-.5-8.139-.5-1.355-1.056-.883-.968z" transform="translate(-119.83 -36.786)"/><path id="Path_212" data-name="Path 212" class="cls-2" d="M1343 572.458h4.441a10.788 10.788 0 014.591 1.848c.421.287.463.324.431.9a1.352 1.352 0 01-.431.909h-4.986z" transform="translate(-265.809 -45.019)"/><path id="Path_213" data-name="Path 213" class="cls-2" d="M1369.08 602.6c.092.29.991 3.557.991 3.557s.489.408.5-.242 0-3.212 0-3.212-.033-.319-.5-.334-1.083-.059-.991.231z" transform="translate(-285.275 -67.344)"/></g><path id="Path_216" data-name="Path 216" d="M2.313 0h11.564a2.174 2.174 0 012.313 2l.034 23c-.02.03.057.805-.874 0L8.2 18.908S1.785 24.268.937 25 0 25 0 25V2a2.174 2.174 0 012.313-2z" transform="translate(392.903 504)" fill="#b95200"/><circle id="Ellipse_58" data-name="Ellipse 58" cx="15.015" cy="15.015" r="15.015" transform="translate(386 488)" fill="#f06b00"/></g></svg>