<svg width="65" height="54" fill="none" xmlns="http://www.w3.org/2000/svg"><path d="M50.47.872c-6.838 0-12.583 4.322-14.107 10.095H15.267l-1.47-5.078c-.221-.76-.98-1.29-1.848-1.29H1.963a2.313 2.313 0 00-.183 0C.742 4.665-.047 5.47.002 6.41c.05.94.92 1.672 1.96 1.648h8.506l7.288 25.1c-1.672.76-2.844 2.315-2.844 4.106 0 2.522 2.304 4.608 5.09 4.608h29.876c1.038-.02 1.868-.788 1.868-1.728s-.83-1.708-1.868-1.729H20.003c-.738 0-1.269-.486-1.269-1.15 0-.666.531-1.149 1.269-1.149h30.073c.834 0 1.572-.491 1.821-1.212l2.9-8.376C60.695 24.86 65 19.87 65 14.001 65 6.771 58.466.871 50.471.871v.001zm0 3.457c5.931 0 10.707 4.314 10.707 9.673 0 4.59-3.507 8.396-8.24 9.396a2.047 2.047 0 00-.276.064 12 12 0 01-2.19.199c-5.931 0-10.693-4.3-10.693-9.66 0-5.358 4.762-9.672 10.692-9.672zm-34.2 10.095h19.71c.25 7.033 6.654 12.697 14.492 12.697.038 0 .074-.006.112-.006l-1.919 5.543H21.556L16.27 14.424z" fill="#7CB9FF"/><circle cx="25.5" cy="49.371" r="3" stroke="#0D66CC" stroke-width="3"/><circle cx="42.5" cy="49.371" r="3" stroke="#0D66CC" stroke-width="3"/><path d="M54.839 9.144l-6.507 7.263-1.77-2.178a.888.888 0 00-.592-.284.872.872 0 00-.618.208 1.006 1.006 0 00-.336.598 1.06 1.06 0 00.113.689l2.095 3.873c.1.171.238.312.402.41a1.045 1.045 0 001.07 0 1.15 1.15 0 00.403-.41c.33-.483 6.617-9.078 6.617-9.078.777-.97-.215-1.817-.877-1.09z" fill="#0D66CC"/></svg>