<svg width="92" height="45" fill="none" xmlns="http://www.w3.org/2000/svg"><path d="M81.791 37.849h8.207v-6.061s-.862-5.934-6.96-5.934H70.782V15.407" stroke="#6FA6E5" stroke-width="3" stroke-miterlimit="10" stroke-linecap="round" stroke-linejoin="round"/><path d="M55.26 15.407h20.88V31.54m0-16.134s-5.05-8.899-16.63-8.96h-4.25M69.355 38h-40M2 38h15.742m41.77-31.554v31.403" stroke="#6FA6E5" stroke-width="3" stroke-miterlimit="10" stroke-linecap="round" stroke-linejoin="round"/><path d="M76.141 43.162c3.13 0 5.667-2.546 5.667-5.687 0-3.14-2.537-5.687-5.667-5.687s-5.666 2.546-5.666 5.687c0 3.14 2.537 5.687 5.666 5.687z" stroke="#6FA6E5" stroke-width="3" stroke-miterlimit="10"/><path d="M55.261 37.849V1.87h-3.388M2 31.962h52m9.7-6.11h2.834" stroke="#6FA6E5" stroke-width="3" stroke-miterlimit="10" stroke-linecap="round" stroke-linejoin="round"/><path d="M23.409 43.162c3.13 0 5.667-2.546 5.667-5.687 0-3.14-2.537-5.687-5.667-5.687s-5.667 2.546-5.667 5.687c0 3.14 2.537 5.687 5.667 5.687z" stroke="#6FA6E5" stroke-width="3" stroke-miterlimit="10"/><path d="M90 31.788h-3.82" stroke="#6FA6E5" stroke-width="3" stroke-miterlimit="10" stroke-linecap="round" stroke-linejoin="round"/><path d="M37.308 20.916c0 .332 1.167.593 2.24.747 1.742.248 3.982 0 6.221.995" stroke="#D8E2E9" stroke-width=".25" stroke-linecap="round"/><path d="M24.863 16.934l.25.498c.841 1.684 1.742 8.709.746 10.701-.25.498-.498.747-.498.747" stroke="#D8E2E9" stroke-width=".25"/><path d="M6.205 24.668s0 0 0 0v.023c-.002.105 0 .153.006.192.004.028.01.052.024.08l.004.006.028.051a17.592 17.592 0 00.454.778 7.919 7.919 0 00.448.655 7.5 7.5 0 00.324.048c.31.041.702.081 1.102.118.796.072 1.583.125 1.716.134l.03.002.03.004c1.065.134 2.138.343 3.17.543l.43.083c1.169.225 2.284.427 3.366.516 7.995.216 15.401.184 21.915-.218h.024l6.891-.26c.272-.031.75-.09 1.19-.158a9.29 9.29 0 00.636-.12c.012-.014.026-.03.041-.05a5.755 5.755 0 00.564-.857c.035-.2.054-.48.04-.742l-.003-.067.005-.067a7.048 7.048 0 01.203-1.116 6.366 6.366 0 00-1.108-.631c-.711-.327-1.574-.615-2.531-.86-1.912-.49-4.119-.783-6.064-.875-.251-.009-.569-.008-.89-.008h-.225c-.19 0-.378 0-.532-.005a4.28 4.28 0 01-.231-.012h-.001c-.05-.005-.183-.016-.318-.059l-.091-.029-.084-.045c-.264-.142-.526-.285-.788-.428-2.591-1.412-5.143-2.803-8.783-3.365-3.717-.312-5.62-.16-8.438.233h-.002c-1.162.16-3.423.754-5.488 1.337-1.018.287-1.966.564-2.675.773l-.192.056a203.75 203.75 0 01-.937.272l-.007.002c-.035.01-.138.04-.227.053h0c-.05.007-.216.019-.387.031l-.11.008a124.376 124.376 0 00-1.441.112 1.43 1.43 0 01-.18.402l-.007.022a8.55 8.55 0 00-.133.411c-.108.36-.24.837-.365 1.32a42.66 42.66 0 00-.32 1.308c-.04.179-.068.314-.083.4zm1.045 1.876a.08.08 0 000 0zm40.859.568a.112.112 0 000 0zm.503-.904a.04.04 0 000 0z" stroke="#0D66CC" stroke-width="2"/><path opacity=".2" d="M5.52 24.794a.125.125 0 00-.138.208l.139-.208zm1.424 1.1l-.069.104.027.017.032.003.01-.125zm-1.562-.892l1.493.995.139-.207-1.493-.996-.14.208zm1.552 1.016l2.987.249.02-.25-2.986-.248-.02.249z" fill="#3E6C93"/><path d="M17.894 27.962h18.911c0-.498-.245-4.48 3.489-5.227" stroke="#0D66CC" stroke-width=".5" stroke-linecap="round"/><path d="M14.264 30.113a3.27 3.27 0 100-6.541 3.27 3.27 0 000 6.54z" fill="#C5E4FF"/><path d="M14.265 30.5a3.644 3.644 0 113.643-3.658c0 .966-.383 1.893-1.067 2.577a3.658 3.658 0 01-2.576 1.082zm0-6.57a2.897 2.897 0 102.882 2.927 2.912 2.912 0 00-.853-2.044c-.542-.543-1.262-.879-2.03-.883z" fill="#0D66CC"/><path d="M41.1 30.113a3.27 3.27 0 100-6.541 3.27 3.27 0 000 6.54z" fill="#C5E4FF"/><path d="M41.1 30.5a3.644 3.644 0 113.643-3.658 3.643 3.643 0 01-3.658 3.644l.015.015zm0-6.57a2.897 2.897 0 102.897 2.912 2.912 2.912 0 00-2.912-2.897l.015-.015z" fill="#0D66CC"/><path d="M41.1 28.709a1.867 1.867 0 100-3.733 1.867 1.867 0 000 3.733z" fill="#3E6C93"/><path d="M39.219 26.842a1.866 1.866 0 111.15 1.732 1.852 1.852 0 01-.911-.836m-25.193.971a1.867 1.867 0 100-3.734 1.867 1.867 0 000 3.734z" fill="#0D66CC"/><circle r=".25" transform="scale(-1 1) rotate(15 -110.441 -40.17)" fill="#C5E4FF" stroke="#3E6C93" stroke-width=".5" stroke-dasharray="0.25 0.25"/><path d="M10 20c3.724.167 13.683 1.5 16 1.5s8.207.167 10 0" stroke="#2158F5"/></svg>