<svg width="61" height="44" fill="none" xmlns="http://www.w3.org/2000/svg"><path d="M13.364 39.737c0 .697-.228 2.09-1.137 2.09H4.273c-.758 0-2.273-.418-2.273-2.09V24.07c0-2.089 1.59-4.178 3.41-4.178.378 0 1.135-.209 1.135-1.044 0-1.045-1.136-1.045-3.409-1.045C2 17.802 2 15.713 4.273 15.713h4.545c2.273-3.133 5.682-8.356 7.955-8.356h15.909m13.636 32.38c0 .697.227 2.09 1.137 2.09h7.954c.758 0 2.273-.418 2.273-2.09V24.07c0-2.089-1.591-4.178-3.41-4.178-.378 0-1.136-.209-1.136-1.044 0-1.045 1.137-1.045 3.41-1.045 1.136 0 1.136-2.089-1.137-2.089h-4.545c-2.273-3.133-6.819-8.356-7.955-8.356H27" stroke="#7CB9FF" stroke-width="3"/><path d="M12.986 17.963c11.363 1.131 28.863.905 35.227 0M8.44 24.75l7.955 1.131m37.5-1.131l-7.955 1.131m-27.272 4.525h10.227l2.273 2.263 2.272-2.263h10.228" stroke="#0D66CC" stroke-width="3"/><path d="M7.303 38.327c17.045 1.131 29.545 1.131 47.727 0" stroke="#7CB9FF" stroke-width="3"/><circle cx="47.5" cy="14.371" r="13.5" fill="#fff"/><path d="M42 15.671l3.143 3.2 7.857-8" stroke="#0D66CC" stroke-width="4"/></svg>