<svg width="56" height="49" fill="none" xmlns="http://www.w3.org/2000/svg"><path d="M15 27.372v-7.5h25v8l-11.735-4.5-13.265 4z" stroke="#7CB9FF" stroke-width="3"/><path d="M48 42.968a9.995 9.995 0 01-.779 1.434 7.21 7.21 0 01-1.02 1.25c-.37.362-.786.66-1.234.884a3.255 3.255 0 01-1.476.334 5.927 5.927 0 01-1.907-.274 5.167 5.167 0 01-1.423-.726c-.41-.305-.787-.61-1.128-.916-.341-.305-.673-.62-.994-.944a2.942 2.942 0 00-1.047-.703 5.62 5.62 0 00-1.235-.305 2.68 2.68 0 00-1.235.274 4.926 4.926 0 00-1.02.702c-.323.285-.645.59-.966.916a7.095 7.095 0 01-1.129.915c-.45.29-.93.52-1.427.686a6.474 6.474 0 01-1.96.305 6.022 6.022 0 01-1.932-.274 6.276 6.276 0 01-2.551-1.615 9.184 9.184 0 00-.994-.916 8.048 8.048 0 00-1.02-.702 2.809 2.809 0 00-1.232-.305 2.798 2.798 0 00-1.238.273c-.367.189-.71.433-1.02.727-.322.305-.654.61-.993.916-.34.305-.716.62-1.129.944a3.85 3.85 0 01-1.45.703c-.628.154-1.266.256-1.907.305a3.596 3.596 0 01-1.493-.306 3.769 3.769 0 01-1.207-.883 10.641 10.641 0 01-.994-1.25c-.31-.454-.58-.94-.807-1.453L8 42.87" stroke="#0D66CC" stroke-width="3"/><path d="M54 42.87h-4.116l4.114-12.34-6.933-2.27V15.537H42.95l-3.466-6.833H33.2V1.871H22.798v6.842h-6.283l-3.466 6.832H8.933V28.27L2 30.538 6.116 42.87H2" stroke="#7CB9FF" stroke-width="3"/></svg>