<svg width="9" height="16" fill="none" xmlns="http://www.w3.org/2000/svg"><path opacity=".5" d="M5.477.82v2.305h-1.22V.82h1.22zm-.149 12.758v2.102H4.11v-2.102h1.22zm.86-2.562c0-.297-.055-.55-.165-.758a1.479 1.479 0 00-.515-.555 4.505 4.505 0 00-.953-.469 13.453 13.453 0 01-1.79-.828A3.508 3.508 0 011.57 7.305c-.286-.443-.43-1.003-.43-1.68 0-.646.154-1.206.462-1.68a3.007 3.007 0 011.273-1.093c.547-.26 1.182-.391 1.906-.391.552 0 1.052.083 1.5.25A3.112 3.112 0 018.18 4.578c.172.453.258.971.258 1.555H6.194c0-.313-.034-.589-.101-.828a1.669 1.669 0 00-.297-.602 1.16 1.16 0 00-.453-.36 1.359 1.359 0 00-.586-.124c-.318 0-.578.062-.781.187a1.108 1.108 0 00-.446.508 1.824 1.824 0 00-.133.719c0 .265.047.497.141.695.099.198.268.38.508.547.24.161.568.328.984.5.677.26 1.271.542 1.782.844.51.302.908.672 1.195 1.11.286.437.43.994.43 1.671 0 .672-.157 1.245-.47 1.719-.312.469-.75.828-1.312 1.078-.562.245-1.213.367-1.953.367-.479 0-.956-.062-1.43-.187a3.851 3.851 0 01-1.289-.625 3.038 3.038 0 01-.921-1.141c-.23-.48-.344-1.068-.344-1.766h2.25c0 .38.05.698.148.953.1.25.23.451.39.602a1.5 1.5 0 00.563.313c.209.062.42.093.633.093.333 0 .607-.06.82-.18a1.18 1.18 0 00.493-.492 1.5 1.5 0 00.171-.718z" fill="#333"/></svg>