<svg fill="none" xmlns="http://www.w3.org/2000/svg" viewBox="0 0 14 12"><path fill-rule="evenodd" clip-rule="evenodd" d="M11.33 2.363a1.905 1.905 0 01-1.843 1.433 1.903 1.903 0 01-1.902-1.902 1.903 1.903 0 013.746-.469h1.372a.469.469 0 110 .938h-1.372zm-2.807-.469a.965.965 0 011.928-.013v.027a.966.966 0 01-1.928-.014zM3.684 3.905c-.887 0-1.634.61-1.843 1.434H.47a.469.469 0 000 .937h1.37A1.905 1.905 0 003.685 7.71 1.903 1.903 0 005.03 4.462a1.903 1.903 0 00-1.345-.557zm0 .938a.966.966 0 00-.962.953v.022a.966.966 0 10.964-.975h-.002z" fill="#fff"/><path d="M6.735 6.276h5.968a.469.469 0 000-.937H6.735a.469.469 0 000 .937zm-.298-3.913H.469a.469.469 0 110-.938h5.968a.469.469 0 110 .938zM.469 10.238h5.974a.469.469 0 000-.938H.47a.469.469 0 100 .938z" fill="#fff"/><path fill-rule="evenodd" clip-rule="evenodd" d="M11.466 9.302a1.904 1.904 0 00-1.844-1.434 1.903 1.903 0 000 3.804c.888 0 1.635-.61 1.844-1.432h1.237a.469.469 0 000-.938h-1.237zm-2.807.47a.966.966 0 011.927 0 .965.965 0 01-1.927 0z" fill="#fff"/></svg>