<svg width="24" height="24" fill="none" xmlns="http://www.w3.org/2000/svg"><path fill-rule="evenodd" clip-rule="evenodd" d="M19.545 8.985c0 .639-.095 1.639-.548 2.772l-1.966 5.865a1.25 1.25 0 01-.723.766c-.257.13-.545.151-.81.053-.3-.112-.547-.37-.695-.727l-1.6-4.486-1.49 4.47a1.595 1.595 0 01-1.878 1.037 1.582 1.582 0 01-1.116-1.007L5.482 8.843a.794.794 0 01.04-1.585c.018 0 .035.002.052.005a6.448 6.448 0 002.542 0 .268.268 0 01.052-.005.794.794 0 01.029 1.587l-.038.007 2.383 6.667 1.314-3.89L10.8 8.883c-.091-.012-.183-.024-.274-.039a.795.795 0 01.023-1.587.29.29 0 01.044.003 9.358 9.358 0 003.088 0 .794.794 0 11.067 1.584c-.066.011-.132.019-.198.029l2.284 6.436.881-2.619a.357.357 0 01.008-.02c.122-.451.176-.776.176-1.049 0-.714-.168-1.056-.402-1.53l-.101-.208c-.093-.192-.199-.38-.302-.563-.266-.472-.518-.918-.518-1.403 0-.905.683-1.587 1.587-1.587 1.48 0 1.86.302 2.188 1.155.129.335.194.693.194 1.064v.435zM12 0C5.373 0 0 5.373 0 12s5.373 12 12 12 12-5.373 12-12S18.627 0 12 0z" fill="#fff"/></svg>