<svg width="24" height="24" fill="none" xmlns="http://www.w3.org/2000/svg"><path fill-rule="evenodd" clip-rule="evenodd" d="M12 0a12 12 0 100 24 12 12 0 000-24zm0 6.1a50 50 0 012.9.04c.71.03 1.1.15 1.35.25.33.13.57.28.82.54.26.25.41.49.54.82.1.26.22.64.25 1.34.03.76.04.99.04 2.91a50 50 0 01-.04 2.9c-.03.71-.15 1.1-.25 1.35-.13.33-.28.57-.54.82-.25.26-.49.41-.82.54-.26.1-.64.22-1.34.25-.76.04-.99.04-2.91.04-1.92 0-2.15 0-2.91-.04a3.99 3.99 0 01-1.34-.25 2.23 2.23 0 01-.82-.54c-.26-.25-.41-.49-.54-.82-.1-.26-.22-.64-.25-1.34-.04-.76-.04-.99-.04-2.91 0-1.92 0-2.15.04-2.91.03-.7.15-1.08.25-1.34.13-.33.28-.57.54-.82.25-.26.49-.41.82-.54.26-.1.64-.22 1.34-.25A50 50 0 0112 6.1zm0-1.3c-1.96 0-2.2 0-2.97.04s-1.29.16-1.75.34c-.47.18-.87.43-1.27.83-.4.4-.65.8-.83 1.27-.18.46-.3.99-.34 1.75-.03.77-.04 1.01-.04 2.97 0 1.96 0 2.2.04 2.97.04.76.16 1.29.34 1.75.18.47.43.87.83 1.27.4.4.8.65 1.27.83.46.18.99.3 1.75.34.77.03 1.01.04 2.97.04 1.96 0 2.2 0 2.97-.04a5.28 5.28 0 001.75-.34c.47-.18.87-.43 1.27-.83.4-.4.65-.8.83-1.27.18-.46.3-.99.34-1.75A51 51 0 0019.2 12c0-1.96 0-2.2-.04-2.97a5.28 5.28 0 00-.34-1.75A3.53 3.53 0 0018 6.01c-.4-.4-.8-.65-1.27-.83a5.3 5.3 0 00-1.75-.34c-.77-.03-1.01-.04-2.97-.04zm0 3.5a3.7 3.7 0 100 7.4 3.7 3.7 0 000-7.4zm0 6.1a2.4 2.4 0 110-4.8 2.4 2.4 0 010 4.8zm4.7-6.24a.86.86 0 11-1.72 0 .86.86 0 011.73 0z" fill="#fff"/></svg>