<svg width="24" height="24" fill="none" xmlns="http://www.w3.org/2000/svg"><path fill-rule="evenodd" clip-rule="evenodd" d="M17.354 9.254c.004.118.007.238.007.36 0 3.648-2.778 7.855-7.859 7.855a7.796 7.796 0 01-4.234-1.24 5.54 5.54 0 004.09-1.142 2.766 2.766 0 01-2.58-1.92 2.73 2.73 0 001.246-.047 2.762 2.762 0 01-2.216-2.707c0-.012 0-.023.003-.036.37.208.798.331 1.25.345a2.757 2.757 0 01-.856-3.686 7.841 7.841 0 005.692 2.886 2.762 2.762 0 014.706-2.52 5.478 5.478 0 001.756-.67 2.774 2.774 0 01-1.215 1.528 5.475 5.475 0 001.586-.433 5.617 5.617 0 01-1.376 1.427zM11.999 0C5.383 0 0 5.384 0 12c0 6.617 5.383 12 11.998 12C18.617 24 24 18.617 24 12c0-6.616-5.384-12-12.002-12z" fill="#fff"/></svg>