<svg width="14" height="16" fill="none" xmlns="http://www.w3.org/2000/svg"><path d="M7 0C5.143 0 3.363.632 2.05 1.757.737 2.883 0 4.41 0 6v4.667c.001.294.116.58.328.813.21.233.506.399.839.473v.547c0 .928.43 1.818 1.196 2.475C3.129 15.63 4.167 16 5.25 16h2.528l.583-.099a1.5 1.5 0 00.781-.6c.172-.272.228-.586.159-.89a1.313 1.313 0 00-.536-.772 1.72 1.72 0 00-.987-.306H7a1.73 1.73 0 00-.95.281c-.27.181-.464.434-.55.72h-.25a2.34 2.34 0 01-1.511-.539c-.401-.343-.627-.809-.628-1.295V12c.413 0 .808-.14 1.1-.39.292-.25.456-.59.456-.943V8c0-.354-.164-.693-.456-.943a1.696 1.696 0 00-1.1-.39H1.892V6c0-1.161.538-2.275 1.496-3.096.958-.82 2.257-1.282 3.612-1.282s2.654.461 3.612 1.282c.957.821 1.496 1.935 1.496 3.096v.667h-1.22c-.412 0-.807.14-1.099.39-.292.25-.456.59-.456.943v2.667c0 .353.164.692.456.943.292.25.687.39 1.1.39h1.555c.413 0 .809-.14 1.1-.39.292-.25.456-.59.456-.943V6c0-1.591-.738-3.117-2.05-4.243C10.637.632 8.857 0 7 0z" fill="#fff"/></svg>