<svg width="38" height="44" fill="none" xmlns="http://www.w3.org/2000/svg"><circle cx="14.366" cy="11.817" r="4.86" fill="#ECE8FF" stroke="#2E1C75"/><rect x="-.5" y=".5" width="2.896" height="12.88" rx=".5" transform="matrix(-1 0 0 1 24.615 16.09)" fill="#fff" stroke="#2E1C75"/><rect x="18.072" y="14.824" width="4.142" height="18.531" rx=".5" fill="#fff" stroke="#2E1C75"/><rect x="20.832" y="1" width="6.727" height="3.293" rx=".5" stroke="#2E1C75"/><path stroke="#2E1C75" d="M15.898 7.218l5.147-3.035"/><circle r="4.265" transform="matrix(-1 0 0 1 6.437 26.706)" stroke="#2E1C75"/><rect x="-.5" y=".5" width="4.181" height="18.531" rx=".5" transform="matrix(-1 0 0 1 10.201 14.324)" fill="#fff" stroke="#2E1C75"/><rect x="-.5" y=".5" width="6.73" height="3.294" rx=".5" transform="matrix(-1 0 0 1 7.402 .5)" stroke="#2E1C75"/><path stroke="#2E1C75" d="M11.899 7.797L7.602 4.183"/><rect x="10.695" y="21.789" width="7.338" height="21.092" rx="3.669" fill="#ECE8FF" stroke="#2E1C75"/><circle cx="33.261" cy="24.929" r="2.859" stroke="#2E1C75"/><rect x="30.092" y="16.59" width="2.896" height="12.88" rx=".5" fill="#fff" stroke="#2E1C75" stroke-dasharray="2 2"/><circle cx="27.603" cy="14.439" r="3.279" stroke="#2E1C75"/><rect x="32.307" y="6.957" width="4.447" height="2.026" rx=".5" stroke="#2E1C75"/><path stroke="#2E1C75" d="M28.563 11.396l3.844-2.48"/><rect x="-.5" y=".5" width="4.449" height="2.027" rx=".5" transform="matrix(-1 0 0 1 22.398 6.457)" stroke="#2E1C75"/><path stroke="#2E1C75" d="M26.848 11.356l-4.156-2.367"/><rect x="25.162" y="21.613" width="4.878" height="14.574" rx="2.439" stroke="#2E1C75"/></svg>