<svg width="50" height="47" fill="none" xmlns="http://www.w3.org/2000/svg"><path d="M36.328 16.328l-2.268.648c-.43.122-.68.54-.344.834.355.31 1 .644 2.107.866 1.675.335 2.058 2.102 2.038 3.346-.006.389-.285.707-.656.82l-10.342 3.147a1 1 0 00-.658.64l-.334 1.003-3.426 7.34a.998.998 0 01-.146.228l-2.701 3.151a1 1 0 00-.233.527l-.32 2.559a1 1 0 00.992 1.123h9.17a1 1 0 00.991-1.132l-.37-2.775a9.205 9.205 0 015.267-9.575l3.02-1.394a4.589 4.589 0 012.492-.387c1.531.192 3.612 1.002 4.851.082.101-.075.207-.156.317-.244 1.923-1.539-4.669-7.535-8.558-10.632a.989.989 0 00-.889-.175z" stroke="#3859D6"/><path d="M28.585 21.223l3.919 1.045c.967.258.997 1.619.043 1.92l-5.774 1.824a1 1 0 00-.593.506l-.806 1.612-2.467 5.345a1 1 0 01-1.509.381l-6.915-5.186a.997.997 0 01-.107-.093l-3.78-3.78a1.001 1.001 0 00-.348-.227l-6.073-2.335a1 1 0 01-.348-.227l-.134-.133c-.63-.63-.183-1.707.708-1.707h6.957a1 1 0 01.868.504l1.53 2.676a1 1 0 00.497.433l2.164.865 4.8 1.746a1 1 0 001.122-.316l3.305-4.13a1 1 0 01.585-.357l1.902-.38a1 1 0 01.454.014z" stroke="#3859D6"/><path d="M49.5 37.582a8.457 8.457 0 11-16.914 0 8.457 8.457 0 0116.914 0z" fill="#DCE3FF" stroke="#3859D6"/><circle cx="8.957" cy="37.582" r="8.457" fill="#DCE3FF" stroke="#3859D6"/><path d="M27.517 12.798l.407-.125.08.26.478-.147.794 2.584-.407.125-.384-1.25-.478.146-.49-1.593zm2.96 2.697l-.407-.125.793-2.584.478.147.08-.26.407.125-.489 1.593-.478-.147-.384 1.251zm2.382-4.704l2.583-.794.125.408-1.25.384.146.478-1.593.49-.125-.408.26-.08-.146-.478zm4.79-.503l-1.592.49-.126-.408.95-.291.644-.198.125.407zm1.101-.543a.462.462 0 01-.172.233l-.245-.346.038-.011.38.124zm0-.29l-.38.125-.037-.011.245-.346a.461.461 0 01.172.233zm-1.1-.542l-.125.407-.644-.197-.95-.292.126-.407 1.593.49zm-3.334-.5l1.251.384-.125.407-2.583-.794.146-.478-.26-.08.125-.407 1.593.49-.147.477zm-2.488-2.01l-.406.126-.08-.261-.479.147-.793-2.584.407-.125.384 1.251.478-.147.49 1.594zm-2.96-2.697l.408.125-.794 2.584-.478-.147-.08.26-.407-.124.49-1.594.478.147.384-1.25zm-2.38 4.704l-2.584.794-.125-.407 1.251-.385-.147-.478 1.594-.49.125.408-.26.08.146.478zm-4.791.503l1.593-.49.125.408-.95.292-.643.197-.125-.407zm-.929.31l.245.346-.037.011-.38-.124a.462.462 0 01.172-.233zm-.172.522l.38-.124.037.011-.245.346a.462.462 0 01-.172-.233zm2.694 1.032l-1.593-.49.125-.406.644.197.95.292-.126.407zm1.74.012l-1.25-.384.124-.408 2.584.794-.147.478.26.08-.124.407-1.594-.49.147-.477zm3.874-7.447l-.407-.125.49-1.594.407.126-.198.643-.292.95zM29.641.94l-.346-.245a.462.462 0 01.233-.172l.125.38-.012.037zm.052-.037l.125-.38a.461.461 0 01.233.172l-.346.245-.012-.037zm.667.72l.49 1.594-.408.125-.291-.95-.198-.643.407-.126zm.082 14.236l.407.125-.489 1.594-.407-.125.198-.644.291-.95zm-1.05 1.594l-.406.125-.49-1.594.407-.125.292.95.198.644z" stroke="#3859D6" stroke-dasharray="2 2"/></svg>