<svg width="49" height="50" fill="none" xmlns="http://www.w3.org/2000/svg"><path d="M20.465 21.927c0-.457-.128-.819-.384-1.086-.251-.273-.68-.524-1.287-.752a15.92 15.92 0 01-1.57-.676 5.29 5.29 0 01-1.136-.777 3.252 3.252 0 01-.735-1.036c-.172-.395-.259-.866-.259-1.411 0-.941.3-1.713.902-2.314.602-.601 1.4-.952 2.397-1.052v-1.788h1.337v1.813c.985.139 1.757.55 2.313 1.236.557.68.836 1.562.836 2.648h-2.414c0-.669-.14-1.167-.418-1.496-.273-.334-.64-.5-1.102-.5-.457 0-.81.13-1.061.392-.25.256-.376.612-.376 1.069 0 .423.123.763.367 1.019.245.256.7.518 1.362.785.668.267 1.217.52 1.645.76.43.234.791.501 1.086.802.295.295.52.635.677 1.019.156.379.234.821.234 1.328 0 .947-.296 1.715-.886 2.305-.59.59-1.403.939-2.439 1.044v1.663h-1.328v-1.654c-1.141-.123-2.026-.527-2.656-1.211-.623-.69-.935-1.607-.935-2.748h2.414c0 .662.155 1.172.467 1.528.318.351.772.526 1.362.526.49 0 .877-.128 1.16-.384.285-.262.427-.612.427-1.052z" fill="#008A48"/><circle cx="18.779" cy="19.017" r="15.384" stroke="#008A48"/><circle cx="33.877" cy="34.952" r="14.85" fill="#DCFFED"/><path d="M42.883 35.61c0-.59-.31-1.107-.776-1.399a1.65 1.65 0 00-1.367-2.57h-4.081l.587-1.492c.26-.633.391-1.302.391-1.986 0-1.09-.886-1.976-1.975-1.976h-.566a.967.967 0 00-.951.795l-.265 1.456-3.075 3.558h-.56a.935.935 0 00-.935-.934h-2.138a1 1 0 00-1 1v8.974a1 1 0 001 1h2.196a.876.876 0 00.877-.876l1.777.67a1 1 0 00.353.065h7.292a1.65 1.65 0 001.454-2.425 1.651 1.651 0 00.837-2.38 1.65 1.65 0 00.925-1.48zm-13.618 4.447a1 1 0 01-1 1h-.114a1 1 0 01-1-1v-7.016a1 1 0 011-1h.114a1 1 0 011 1v7.016zm11.274-1.46h-2.835a.49.49 0 100 .98h1.963a.67.67 0 010 1.339h-7.113a1 1 0 01-.353-.065l-1.956-.737v-7.139h1.008l3.543-4.099.31-1.71h.556c.55 0 .996.448.996.997 0 .558-.107 1.102-.32 1.617l-.58 1.476a1 1 0 00.931 1.365h4.05a.67.67 0 010 1.34h-2.085a.49.49 0 100 .979h2.58a.67.67 0 010 1.339h-2.659a.49.49 0 100 .98h1.964a.67.67 0 010 1.338z" fill="#008A48"/><path fill-rule="evenodd" clip-rule="evenodd" d="M37.241 15.899l.493-.083a18.81 18.81 0 00-.472-2.078l-.48.138-.481.138a17.9 17.9 0 01.447 1.968l.493-.083zm-1.145-3.98l.462-.192c-.273-.66-.583-1.3-.926-1.92l-.437.243-.437.242c.325.587.618 1.194.877 1.818l.461-.191zM34.09 8.294l.408-.29a19.1 19.1 0 00-1.33-1.665l-.372.334-.373.333c.449.501.87 1.028 1.26 1.578l.407-.29zm-2.762-3.089l.334-.372a19.092 19.092 0 00-1.666-1.33l-.29.408-.289.407c.55.39 1.076.812 1.578 1.26l.333-.373zm-3.377-2.4l.242-.437a18.92 18.92 0 00-1.92-.926l-.19.462-.192.461c.624.26 1.23.552 1.818.877l.242-.437zm-3.826-1.586l.138-.48a18.88 18.88 0 00-2.078-.473l-.083.493-.083.493c.67.113 1.326.262 1.968.447l.138-.48zm-4.086-.69l.028-.5a19.302 19.302 0 00-2.132 0l.028.5.027.499a18.306 18.306 0 012.022 0l.027-.5zM15.9.759l-.083-.493c-.707.119-1.4.277-2.078.472l.138.48.138.481a17.877 17.877 0 011.968-.447L15.9.759zm-3.98 1.145l-.192-.462c-.66.273-1.3.583-1.92.926l.243.437.242.437a17.913 17.913 0 011.818-.877l-.191-.461zM8.293 3.91l-.29-.408a19.09 19.09 0 00-1.665 1.33l.334.372.333.373a18.09 18.09 0 011.578-1.26l-.29-.407zM5.205 6.673l-.372-.334a19.09 19.09 0 00-1.33 1.665l.408.29.407.29c.39-.55.811-1.077 1.26-1.578l-.373-.333zm-2.4 3.377l-.437-.242c-.343.62-.653 1.26-.926 1.919l.462.192.461.191c.26-.624.552-1.231.877-1.818l-.437-.242zm-1.586 3.826l-.48-.138a18.88 18.88 0 00-.473 2.078l.493.083.493.083c.113-.67.262-1.326.447-1.968l-.48-.138z" fill="#008A48"/></svg>