<svg width="28" height="17" fill="none" xmlns="http://www.w3.org/2000/svg"><g clip-path="url(#clip0_409_456)" fill="#6F130B"><path d="M0 16h4.719c3.048 0 6.344-.5 9.285-1.235 2.944-.736 5.474-2.007 7.065-4.128 1.58-2.106 2.806-5.042 1.95-9.446l.981-.19c.894 4.595-.336 7.843-2.131 10.237-1.785 2.379-4.567 3.733-7.623 4.497C11.187 16.5 7.796 17 4.72 17c-1.541 0-3.406.047-4.719 0v-1z"/><path fill-rule="evenodd" clip-rule="evenodd" d="M23.646 0L28 4.354l-.707.707-3.647-3.647L20 5.061l-.707-.707L23.646 0z"/></g><defs><clipPath id="clip0_409_456"><path fill="#fff" d="M0 0h28v17H0z"/></clipPath></defs></svg>