<svg width="51" height="47" fill="none" xmlns="http://www.w3.org/2000/svg"><path d="M45.574 1.406a1.068 1.068 0 00-.56-.16H13.029c-2.75 0-4.987 2.216-4.987 4.933l-.188 27.556h-5.78c-.593 0-1.074.48-1.074 1.074v4.965a6.61 6.61 0 006.6 6.604c.074 0 .149-.008.221-.023h26.686c.159.011.32.019.48.019a6.712 6.712 0 006.699-6.711V23.555h7.24c.593 0 1.074-.482 1.074-1.075V6.529a5.207 5.207 0 00-4.426-5.123zM3.148 39.774v-3.89H28.29v3.78a6.69 6.69 0 001.773 4.542H7.453c-.05 0-.1.004-.15.012a4.458 4.458 0 01-4.155-4.444zM39.538 6.53v33.134a4.545 4.545 0 01-1.327 3.202 4.496 4.496 0 01-3.077 1.357 1.076 1.076 0 00-.176-.016h-.378a4.594 4.594 0 01-4.142-4.542V34.81c0-.593-.481-1.074-1.074-1.074H10.002l.188-27.549a2.818 2.818 0 012.84-2.79h27.575a5.13 5.13 0 00-1.067 3.133zm8.314 14.877h-6.166V6.528a3.084 3.084 0 016.166 0v14.877z" fill="#7CB9FF"/><path fill-rule="evenodd" clip-rule="evenodd" d="M1 39.774v-4.965c0-.593.48-1.074 1.074-1.074h5.78l.188-27.556c0-2.717 2.237-4.933 4.987-4.933h31.985c.197 0 .392.056.56.16A5.207 5.207 0 0150 6.529V22.48c0 .593-.48 1.075-1.074 1.075h-7.24v16.108a6.712 6.712 0 01-6.698 6.71c-.162 0-.322-.007-.481-.018H7.821a1.086 1.086 0 01-.22.023A6.61 6.61 0 011 39.774zm6.868 7.081a1.591 1.591 0 01-.268.023 7.11 7.11 0 01-7.1-7.104V34.81c0-.87.704-1.574 1.574-1.574h5.284L7.542 6.18v-.002C7.543 3.18 10.01.747 13.03.747h31.985c.254 0 .504.061.728.18a5.707 5.707 0 014.758 5.6V22.48c0 .87-.705 1.575-1.574 1.575h-6.74v15.608a7.212 7.212 0 01-7.197 7.21 7.21 7.21 0 01-.5-.018H7.868zm-.414-2.65h22.609a6.697 6.697 0 01-1.773-4.542v-3.779H3.148v3.89a4.458 4.458 0 004.155 4.444c.05-.008.1-.012.15-.012zm-.165-.49a1.56 1.56 0 01.16-.01H29.03a7.19 7.19 0 01-1.24-4.042M7.289 43.715a3.959 3.959 0 01-3.64-3.941v-3.39h24.14v3.279m10.422 3.202a4.545 4.545 0 001.327-3.202V6.529a5.13 5.13 0 011.067-3.134H13.029a2.818 2.818 0 00-2.839 2.791l-.188 27.549h19.362c.593 0 1.074.481 1.074 1.074v4.855a4.594 4.594 0 004.142 4.542h.378c.06 0 .118.006.176.016a4.496 4.496 0 003.077-1.357zm-3.049.855a3.996 3.996 0 002.69-1.204l.005-.004a4.045 4.045 0 001.18-2.85V6.529c0-.923.227-1.827.654-2.634H13.025A2.318 2.318 0 0010.69 6.19l-.184 27.045h18.858c.87 0 1.574.705 1.574 1.574v4.853a4.094 4.094 0 003.668 4.044h.355c.067 0 .134.005.201.014zm7.024-22.814V6.533a2.584 2.584 0 015.166 0v14.373h-5.166zm5.666.5V6.528a3.084 3.084 0 00-6.166 0v14.877h6.166z" fill="#7CB9FF"/><path fill-rule="evenodd" clip-rule="evenodd" d="M13.398 8.727a1.5 1.5 0 011.5-1.5h9.46a1.5 1.5 0 010 3h-9.46a1.5 1.5 0 01-1.5-1.5zm0 6.146a1.5 1.5 0 011.5-1.5h9.46a1.5 1.5 0 010 3h-9.46a1.5 1.5 0 01-1.5-1.5z" fill="#7CB9FF"/><path fill-rule="evenodd" clip-rule="evenodd" d="M35.65 22.94a1.5 1.5 0 010 2.12l-4.853 4.854a1.5 1.5 0 01-2.286.195l-2.357-2.356a1.5 1.5 0 012.121-2.122l1.281 1.281 3.973-3.973a1.5 1.5 0 012.121 0z" fill="#0D66CC"/></svg>