<svg width="62" height="30" fill="none" xmlns="http://www.w3.org/2000/svg"><path d="M.069 18.793V9.368c0-.712.531-1.304 1.18-1.482L8.1 6.64c.414-.296.827-.652 1.24-.948C12.823 3.025 16.071.476 26.345.476c10.452 0 18.423 5.928 20.313 7.41 11.042.652 14.88 6.283 15.057 6.52.177.237.236.534.236.83v7.884c0 .83-.65 1.482-1.476 1.482h-4.252c-.885 2.549-3.306 4.446-6.14 4.446-2.835 0-5.256-1.838-6.142-4.446H19.377c-.885 2.549-3.306 4.446-6.14 4.446-2.835 0-5.315-1.897-6.142-4.505C4.025 24.068 1.9 23.06.836 21.52.01 20.393.01 19.267.07 18.793zM27.88 7.886h13.582c-3.13-1.838-7.913-4.031-13.582-4.387v4.387zM24.928 3.44c-5.02.119-7.972.948-10.156 2.134l2.362 2.253h7.794V3.44zm34.13 12.33c-.945-1.067-4.547-4.565-12.99-4.92H27.82v10.788h15.825c.414-3.26 3.13-5.81 6.437-5.81 3.306 0 6.081 2.55 6.436 5.81h2.48V15.77h.059zm-8.916 10.314c2.007 0 3.601-1.66 3.601-3.616a3.586 3.586 0 00-3.602-3.616c-2.007 0-3.601 1.66-3.601 3.616a3.586 3.586 0 003.602 3.616zm-36.847 0c2.008 0 3.602-1.66 3.602-3.616a3.586 3.586 0 00-3.601-3.616c-2.008 0-3.602 1.66-3.602 3.616v.296c.059.178.059.297.059.474.413 1.66 1.83 2.846 3.543 2.846zM6.86 21.52c.473-3.201 3.189-5.691 6.437-5.691 3.306 0 6.081 2.549 6.436 5.809h5.196V10.85h-8.385a1.38 1.38 0 01-1.004-.415l-3.306-3.142-.06-.06c-.354.297-.708.534-1.062.83-.532.416-1.063.83-1.595 1.186-.177.119-.354.237-.59.237l-5.964 1.067v8.595c0 .534.709 1.779 3.897 2.372z" fill="#7CB9FF"/><path d="M35.143 14.94h-4.488a1.465 1.465 0 01-1.476-1.482c0-.83.65-1.482 1.476-1.482h4.488c.827 0 1.476.652 1.476 1.482s-.65 1.482-1.476 1.482zM5.03 12.035h4.488c.827 0 1.476.652 1.476 1.482S10.344 15 9.518 15H5.03a1.465 1.465 0 01-1.476-1.482c0-.83.65-1.482 1.476-1.482z" fill="#0D66CC"/></svg>