<svg width="56" height="52" fill="none" xmlns="http://www.w3.org/2000/svg"><mask id="a" style="mask-type:alpha" maskUnits="userSpaceOnUse" x="0" y="0" width="56" height="52"><path fill="#C4C4C4" d="M0 0h56v52H0z"/></mask><g mask="url(#a)"><path d="M44.83 26.15c0-9.417-7.63-17.072-17.017-17.072s-17.018 7.655-17.018 17.071c0 9.417 7.63 17.072 17.018 17.072 9.386 0 17.017-7.655 17.017-17.072zM27.813 39.833c-7.496 0-13.642-6.165-13.642-13.685 0-7.52 6.146-13.752 13.642-13.752 7.496 0 13.64 6.165 13.64 13.685 0 7.52-6.145 13.752-13.64 13.752z" fill="#7CB9FF"/><path d="M16.737 45.66l-1.485-5.623a1.772 1.772 0 00-2.094-1.22 1.779 1.779 0 00-1.215 2.1l.067.204a22.54 22.54 0 01-5.74-15.04c0-7.926 4.187-15.378 11.007-19.375.81-.474 1.08-1.49.608-2.303a1.663 1.663 0 00-2.296-.61C7.756 8.4 2.961 16.936 2.961 26.081a25.865 25.865 0 007.023 17.75l-.54-.068c-.946-.068-1.756.61-1.823 1.558-.068.949.607 1.762 1.553 1.83l5.875.541h.135c.135 0 .27 0 .405-.068h.068a.512.512 0 00.27-.135c.067-.068.135-.068.202-.136l.068-.067.135-.136.067-.067c.068-.068.068-.136.136-.204 0 0 0-.067.067-.067.068-.068.068-.204.135-.271v-.068c0-.068.068-.136.068-.203v-.475c-.068.068-.068-.067-.068-.135zm28.97-38.14l.54.067c.946.068 1.756-.61 1.824-1.558.068-.949-.608-1.761-1.553-1.83l-5.875-.541h-.271c-.135 0-.202 0-.27.068h-.067c-.068 0-.135.067-.203.067-.067 0-.067.068-.135.068-.067 0-.067.068-.135.068-.067 0-.067.068-.135.068l-.135.135-.068.068c-.067.068-.067.135-.135.135l-.067.068c-.068.068-.068.203-.135.271v.136c0 .067 0 .135-.068.203v.745l1.486 5.555c.203.745.878 1.287 1.62 1.287.136 0 .27 0 .406-.067a1.779 1.779 0 001.215-2.1l-.067-.204a22.54 22.54 0 015.74 15.04c0 7.926-4.187 15.378-11.008 19.375a1.674 1.674 0 00-.607 2.303c.337.542.878.813 1.485.813.27 0 .608-.068.878-.203 7.834-4.607 12.629-13.143 12.629-22.288.135-6.707-2.432-13.007-6.889-17.75z" fill="#7CB9FF"/><path d="M38.279 22.152h-.068c-.743 0-4.12-.203-5.942-.948-2.432-.88-4.12-.88-4.255-.88h-.135c-.203 0-1.756.135-4.322 1.15-1.486.543-4.12.678-5.537.678h-.54c-.946 0-1.689.745-1.689 1.694 0 .948.743 1.694 1.62 1.694h.541c3.309.067 5.267.948 6.213 1.49a4.127 4.127 0 012.026 2.913c0 .203-.068.474-.068.677v5.081c0 .949.743 1.694 1.688 1.694h.135c.946 0 1.689-.745 1.689-1.694v-5.08c0-.204 0-.475-.068-.678a4.127 4.127 0 012.026-2.913c.946-.542 3.107-1.49 6.686-1.49.945 0 1.688-.746 1.688-1.694 0-.949-.743-1.694-1.688-1.694zm-10.4 3.659c-.54-.61-1.148-1.22-1.823-1.626 1.08-.34 1.755-.407 1.958-.475.203 0 .945.068 1.89.34a7.323 7.323 0 00-2.025 1.76z" fill="#0D66CC"/></g></svg>