<svg width="49" height="47" fill="none" xmlns="http://www.w3.org/2000/svg"><path d="M24.628 15.382c-.798-2.19-1.796-7.436-1.796-7.502-.133-.797-.798-1.328-1.596-1.395-.731 0-1.462.532-1.662 1.262-.2.797-.665 2.855-.864 3.519-.133.531-.4 1.062-.665 1.527l-1.13-2.59c0-.066-.067-.066-.067-.132C13.59 4.228 8.536.444 8.27.31c-.665-.465-1.595-.399-2.127.133-.532.53-.665 1.394-.266 2.058.399 1.062.399 6.573-2.195 9.76-3.79 4.647-4.654 9.56-2.593 14.74 2.327 5.643 7.713 6.97 7.913 6.97.133 0 .266.067.399.067.598 0 1.13-.265 1.396-.797a1.595 1.595 0 00-.133-1.925c-2.593-3.054-1.13-5.51-.332-6.374.731-.797 1.33-1.992 1.728-2.988 1.264 2.059.665 5.113.665 5.113-.133.796.266 1.593.998 1.859.731.332 1.596 0 1.994-.664l2.993-4.648c.465-.796.266-1.792-.532-2.323-.798-.532-1.796-.266-2.328.53l-.199.333c-.532-1.727-1.53-3.453-3.59-4.582-.466-.199-.931-.265-1.397-.066-.465.2-.798.598-.93 1.062-.267.797-1.131 3.12-1.996 4.183a8.043 8.043 0 00-1.928 5.71c-.665-.664-1.263-1.593-1.729-2.656-1.595-3.983-.93-7.635 2.062-11.353 1.928-2.39 2.859-5.776 3.125-8.631 1.463 1.527 3.191 3.585 4.521 5.975l2.194 5.046c.2.465.665.863 1.197.996s1.064 0 1.463-.398c.067-.067 1.197-1.063 2.128-2.723.2.73.399 1.461.598 1.992.333.863 1.264 1.262 2.128.996.998-.531 1.463-1.46 1.13-2.324z" fill="#7CB9FF"/><path d="M36.795 12.527c-.732-.597-1.796-.464-2.328.266l-22.075 28.55c-.532.73-.465 1.792.266 2.323.332.266.665.332.997.332.466 0 .998-.199 1.33-.663l22.142-28.417c.532-.73.4-1.793-.332-2.39zm7.778 11.819l-2.859-3.32-.2-.2s-.066 0-.066-.066c-.066-.066-.133-.066-.2-.132 0 0-.066 0-.066-.067 0 0-.066 0-.066-.066h-.2c-.066 0-.2-.067-.266-.067h-.332c-.067 0-.133 0-.2.067h-.066c-.067 0-.133.066-.2.066h-.066c-.067.067-.2.133-.266.2l-.067.066-.133.133-2.992 3.32c-.598.663-.532 1.726.133 2.323.665.598 1.729.531 2.327-.133l.067-.132v4.58c0 .93.731 1.66 1.662 1.66.931 0 1.662-.73 1.662-1.66V26.47c.333.332.798.532 1.197.532.4 0 .798-.133 1.064-.399.665-.531.732-1.593.133-2.257z" fill="#0D66CC"/><path d="M28.484 37.69c2.128-1.393 4.521-1.526 6.65-.198.066 0 .066.066.132.066.067 0 .133.066.2.133 1.728 1.062 4.189 2.39 6.582 2.39.466 0 .931-.066 1.33-.133 3.192-.796 4.854-3.519 5.453-4.647.399-.797.066-1.86-.732-2.258-.798-.398-1.795-.066-2.26.73-.333.731-1.397 2.457-3.259 2.922-1.13.266-2.992-.332-5.386-1.859-.133-.066-.266-.133-.332-.2-3.192-1.991-6.982-1.858-10.24.266-.731.532-.997 1.527-.465 2.324.532.797 1.596.996 2.327.465z" fill="#7CB9FF"/><path d="M48.1 39.948c-.799-.398-1.796-.066-2.261.73-.333.73-1.397 2.457-3.259 2.922-1.13.265-2.992-.332-5.386-1.86-.133-.066-.266-.132-.332-.198-3.192-1.992-6.982-1.86-10.24.265-.731.531-.997 1.527-.465 2.324.532.797 1.53.996 2.327.465 2.128-1.395 4.521-1.527 6.65-.2.066 0 .066.067.132.067.067 0 .133.066.2.133 1.728 1.062 4.189 2.39 6.582 2.39.466 0 .931-.066 1.33-.133 3.192-.797 4.854-3.519 5.453-4.648.399-.863.066-1.858-.732-2.257z" fill="#7CB9FF"/></svg>