<svg width="42" height="42" fill="none" xmlns="http://www.w3.org/2000/svg"><path d="M26.535 3.64c-.06-.062-.18-.123-.302-.184L23.514.64a1.518 1.518 0 00-2.175 0c-.604.612-.604 1.652 0 2.264l.483.49c-8.52.612-12.145 4.895-12.689 5.63-3.565 3.916-4.532 8.75-4.774 12.178l-.725-.734c-.604-.612-1.57-.674-2.175-.062-.604.612-.604 1.591-.06 2.265l3.504 3.733.06.06.061.062.06.061c.061 0 .061.061.121.061.06.062.121.062.182.062.06 0 .06.06.12.06.061 0 .121.062.182.062h.06c.121 0 .182.061.302.061.121 0 .242 0 .363-.06h.06c.121 0 .182-.062.302-.123.06-.061.182-.061.242-.123l.06-.06.182-.184s.06 0 .06-.062l3.022-3.733a1.649 1.649 0 00-.182-2.264c-.664-.55-1.631-.49-2.175.184l-.483.49c.241-2.877 1.087-6.732 3.927-9.792.06-.062.121-.123.121-.184.12-.184 2.9-3.917 10.574-4.406l-.906 1.101a1.649 1.649 0 00.181 2.265c.302.245.665.367.967.367.423 0 .907-.184 1.209-.55l2.78-3.428c.24-.184.422-.367.543-.673.12-.245.12-.49.12-.796a1.34 1.34 0 00-.483-1.224z" fill="#0D66CC"/><path d="M41.096 9.392V4.374c.06-.429.06-1.897-.967-3.06C39.646.702 38.68.029 37.048.029c-3.868 0-5.62 2.815-5.62 4.773 0 2.264.665 3.733 1.631 4.529-.966 2.754-3.262 9.18-3.867 11.81-.06.368-.181.858-.302 1.286-.665 2.57-1.45 5.875-.967 8.445-4.35-.55-10.211-.918-13.716-.673-4.35.306-5.74 3.794-5.922 5.569v.245c.363 4.467 4.049 5.63 5.982 5.63h18.188c2.961-.123 4.472-3.978 4.713-4.774.302-.856-.12-1.713-.966-2.02-.786-.305-1.692.123-1.994.98-.423 1.163-1.33 2.57-1.934 2.632H14.328c-.423 0-2.659-.184-2.9-2.51.06-.49.543-2.386 3.02-2.57 3.868-.306 11.783.245 16.074 1.163.846.184 1.692-.367 1.812-1.224a1.606 1.606 0 00-.846-1.714c0-.06-.06-.06-.06-.122-1.209-1.285-.12-5.814.483-8.262.121-.49.242-.918.303-1.346.543-2.448 2.9-8.996 3.806-11.566.725.061 1.45.183 1.994.367.484.55.967 1.224.846 1.713-.302 1.898-3.384 18.299-3.444 18.42-.181.858.363 1.714 1.209 1.837h.302c.725 0 1.39-.551 1.51-1.285.121-.673 3.142-16.585 3.445-18.543.362-1.285-.182-2.51-.786-3.427zm-4.048-6.12c.362 0 .664.061.785.184.181.183.181.55.181.673v3.243a11.641 11.641 0 00-2.598-.306c-.544 0-.846-1.101-.846-2.203 0-.428.604-1.59 2.477-1.59z" fill="#7CB9FF"/><path d="M34.27 38.093c-2.72 0-4.956-2.264-4.956-5.079s2.236-5.08 4.955-5.08c2.72 0 4.955 2.265 4.955 5.08s-2.236 5.08-4.955 5.08zm0-7.037c-1.028 0-1.874.857-1.874 1.897s.846 1.897 1.873 1.897c1.028 0 1.873-.857 1.873-1.897-.06-.98-.846-1.897-1.873-1.897z" fill="#0D66CC"/></svg>