<svg width="45" height="44" fill="none" xmlns="http://www.w3.org/2000/svg"><path d="M22.565 23.513l-2.584-2.584c-.516-.517-1.263-.804-2.01-.804a3.06 3.06 0 00-2.354 1.091l-5.57 5.972c-1.205 1.263-1.377 3.273-.114 4.536l1.895 1.895c.574.574 1.32.86 2.124.86.862 0 1.723-.344 2.412-.975l5.971-5.57c.69-.631 1.091-1.493 1.091-2.354-.057-.746-.344-1.493-.86-2.067zm-7.924 8.21c-.516.46-1.033.345-1.205.173l-1.838-1.837c-.172-.173-.287-.69.172-1.206l.345-.402 2.928 2.928-.402.345zm2.182-2.009l-3.043-3.043 1.263-1.378 3.158 3.158-1.378 1.263zm4.134-4.191c0 .23-.114.459-.344.689l-.69.631-3.272-3.273.632-.689c.23-.23.459-.344.631-.344.115 0 .172.057.23.115l2.584 2.583c.172.058.23.173.23.288zm-1.32-5.972c.516 0 1.033-.23 1.435-.574.402-.402.574-.861.574-1.436 0-.517-.23-1.033-.574-1.435-.746-.747-2.124-.747-2.87 0-.403.402-.575.861-.575 1.435 0 .517.23 1.034.574 1.436.402.344.919.574 1.436.574zm-.345-2.354c.172-.172.517-.172.69 0 .171.172.171.517 0 .689-.173.172-.518.172-.69 0-.172-.172-.172-.517 0-.69z" fill="#0D66CC"/><path d="M43.983 1.809A2.602 2.602 0 0043.35.718a2.602 2.602 0 00-1.09-.632 2.359 2.359 0 00-1.264 0l-3.273.976c-.23.058-.402.172-.574.345l-1.952 1.952c-.115.115-.173.172-.23.287l-1.263 2.24-1.206.344c-.23.057-.402.172-.574.344l-3.388 3.388c-.172.172-.344.46-.402.747l-.115.631h-.23c-.344 0-.688.115-.975.402l-1.953 1.952-.803-.746c-1.149-1.149-2.757-1.78-4.364-1.78-1.608.057-3.158.746-4.25 1.952L2.7 27.015C1.55 28.28.919 29.886.976 31.61a6.881 6.881 0 001.895 4.478l5.11 5.11a6.667 6.667 0 004.479 1.953h.115a6.564 6.564 0 004.421-1.723L30.891 28.68c1.206-1.09 1.895-2.64 1.953-4.248a5.928 5.928 0 00-1.723-4.364l-.69-.69 1.953-1.951c.115-.115.23-.288.287-.402l.46-1.034 1.148-.517c.46-.23.804-.689.804-1.206v-.172l.574-.115c.23-.057.46-.172.69-.344l1.951-1.952c.23-.23.345-.517.402-.862v-.344l.517-.057c.287-.058.517-.173.746-.402l2.756-2.757c.173-.172.288-.401.345-.631l.919-3.33c.057-.632.115-1.091 0-1.493zM29.11 26.614L15.216 39.36c-.746.69-1.665 1.034-2.641.977a3.653 3.653 0 01-2.584-1.092l-5.11-5.11a3.686 3.686 0 01-1.091-2.641c0-.976.344-1.952 1.033-2.641L17.57 14.957c.574-.631 1.436-1.033 2.297-1.033h.057c.862 0 1.666.345 2.297.976l7.063 7.063a3.35 3.35 0 01.976 2.354c-.173.861-.517 1.665-1.149 2.296zM40.48 5.369L38.297 7.55l-1.09.23a1.402 1.402 0 00-1.149 1.262l-.057.92-1.321 1.262-1.263.287a1.351 1.351 0 00-1.091 1.321v.402l-.804.402c-.287.115-.517.402-.69.689l-.516 1.263-1.78 1.78-1.722-1.723 1.55-1.55h.804c.689 0 1.263-.46 1.32-1.148l.23-1.32 2.813-2.814 1.436-.402c.344-.115.632-.345.804-.632l1.435-2.526 1.55-1.608 2.412-.689-.689 2.412z" fill="#7CB9FF"/></svg>