<svg width="84" height="50" fill="none" xmlns="http://www.w3.org/2000/svg"><mask id="a" style="mask-type:alpha" maskUnits="userSpaceOnUse" x="0" y="0" width="84" height="50"><path fill="#C4C4C4" d="M0 0h84v50H0z"/></mask><g mask="url(#a)"><path d="M52.79 14.315c-.25-.246-.549-.394-.898-.394H31.705a2.825 2.825 0 00-2.84 2.812v9.818H20.49v-1.43c0-.692-.548-1.234-1.246-1.234s-1.246.542-1.246 1.233v15.147c0 .69.548 1.233 1.246 1.233s1.246-.543 1.246-1.233v-1.925h9.67c.25 0 .449-.049.648-.197l6.18-3.65h20.038a2.825 2.825 0 002.841-2.813V22.16c0-.346-.1-.642-.349-.839l-6.729-7.006zm-29.36 21.61h-2.94v-6.858h2.94v6.858zm6.33 0h-3.838v-6.858h2.941v2.664c0 1.58 1.296 2.813 2.841 2.813h.3l-2.244 1.38zm27.564-4.194c0 .148-.1.346-.349.346h-25.27c-.15 0-.35-.099-.35-.346V16.733c0-.148.1-.346.35-.346h19.638l5.981 6.266v9.078z" fill="#7CB9FF"/><path d="M49.799 18.262c-.498.444-.548 1.233-.1 1.776l1.994 2.171-.748 1.974-2.492.542c-.498.099-.847.494-.997.938l-.747 3.503c-.15.69.299 1.332.947 1.48.1 0 .199.05.249.05.598 0 1.096-.396 1.246-.988l.598-2.713 1.545-.346.798 1.135c.249.346.648.543 1.047.543.249 0 .498-.05.697-.198.598-.394.748-1.184.35-1.726l-.898-1.283 1.047-2.714a1.32 1.32 0 00-.25-1.282l-2.542-2.763a1.176 1.176 0 00-1.744-.099zm6.131-3.947c.699 0 1.247-.542 1.247-1.233V9.233c0-.69-.548-1.233-1.246-1.233s-1.246.543-1.246 1.233v3.849c-.05.69.548 1.233 1.246 1.233zm2.69 2.27c.3 0 .649-.1.898-.346l3.19-3.059a1.242 1.242 0 000-1.776 1.273 1.273 0 00-1.794 0l-3.19 3.06a1.242 1.242 0 000 1.775c.199.198.548.346.897.346zm6.132-.148h-3.44c-.697 0-1.246.543-1.246 1.233 0 .69.549 1.234 1.246 1.234h3.44c.698 0 1.246-.543 1.246-1.234 0-.69-.548-1.233-1.246-1.233z" fill="#0D66CC"/></g></svg>