<svg width="50" height="47" fill="none" xmlns="http://www.w3.org/2000/svg"><path d="M24.963 6.912c-9.873 0-17.912 8.087-17.912 17.97 0 5.322 2.327 10.299 6.417 13.755.706.622 1.834.553 2.469-.208.634-.76.493-1.797-.212-2.419-3.315-2.764-5.148-6.704-5.148-11.058 0-7.949 6.488-14.446 14.457-14.446S39.49 17.003 39.49 24.952c0 4.285-1.904 8.363-5.219 11.197-.705.622-.776 1.728-.14 2.419a1.75 1.75 0 001.34.622c.422 0 .775-.138 1.127-.415 4.09-3.525 6.418-8.57 6.418-13.823-.141-9.953-8.18-18.04-18.054-18.04z" fill="#7CB9FF"/><path d="M24.964 26.956c.564 0 1.128-.208 1.48-.553h1.482c.987 0 1.763-.76 1.763-1.728s-.776-1.728-1.763-1.728h-1.481c-.423-.346-.917-.553-1.481-.553a2.339 2.339 0 00-2.327 2.35c0 1.175 1.058 2.212 2.327 2.212zm.002-8.432c.987 0 1.763-.76 1.763-1.728V14.03c0-.968-.776-1.728-1.763-1.728-.987 0-1.763.76-1.763 1.728v2.765c0 .967.776 1.728 1.763 1.728zm-5.431 2.28c.423 0 .916-.138 1.198-.483a1.728 1.728 0 000-2.489l-1.974-1.935a1.728 1.728 0 00-2.468 0 1.728 1.728 0 000 2.488l1.974 1.936c.353.345.846.483 1.27.483zm-6.842 3.733c0 .967.776 1.728 1.763 1.728h2.75c.988 0 1.764-.76 1.764-1.728s-.776-1.728-1.763-1.728h-2.75c-.988 0-1.764.76-1.764 1.728zm8.04 4.216a1.728 1.728 0 00-2.468 0l-1.904 2.004a1.728 1.728 0 000 2.488 1.67 1.67 0 001.199.484c.423 0 .917-.138 1.199-.483l1.974-1.936c.706-.76.706-1.866 0-2.557zm12.837 2.004l-1.975-1.935a1.728 1.728 0 00-2.468 0 1.728 1.728 0 000 2.488l1.974 1.936c.353.345.776.483 1.2.483.422 0 .916-.138 1.198-.483.776-.76.776-1.867.07-2.489zm-2.611-6.22c0 .967.776 1.728 1.763 1.728h2.75c.988 0 1.763-.76 1.763-1.728s-.775-1.728-1.763-1.728h-2.75c-.987 0-1.763.76-1.763 1.728zm.139-8.709L29.124 17.9a1.793 1.793 0 00.07 2.489 1.67 1.67 0 001.2.483c.493 0 .916-.207 1.269-.552l1.974-2.074a1.793 1.793 0 00-.07-2.488c-.706-.691-1.834-.622-2.469.069zM28.773 35.32h-7.475c-.987 0-1.763.76-1.763 1.727 0 .968.776 1.728 1.763 1.728h7.546c.987 0 1.763-.76 1.763-1.728-.07-.967-.846-1.728-1.834-1.728z" fill="#0D66CC"/><path d="M24.965 0C11.213 0 0 11.197 0 25.02a24.808 24.808 0 0012.835 21.773c.282.138.564.207.846.207H36.46c.282 0 .564-.07.846-.207C45.134 42.438 50 34.075 50 25.02 49.93 11.197 38.717 0 24.965 0zm11.001 43.544H14.104C7.475 39.743 3.456 32.693 3.456 25.021c0-11.889 9.661-21.565 21.509-21.565 11.847 0 21.509 9.676 21.509 21.565 0 7.672-4.02 14.722-10.508 18.523z" fill="#7CB9FF"/></svg>