<svg width="54" height="47" fill="none" xmlns="http://www.w3.org/2000/svg"><mask id="a" style="mask-type:alpha" maskUnits="userSpaceOnUse" x="0" y="0" width="54" height="47"><path d="M0 0h54v47H0V0z" fill="#C4C4C4"/></mask><g mask="url(#a)"><path d="M30.9 42.786c-10.887 0-19.778-8.837-19.778-19.732S20.013 3.322 30.901 3.322c10.887 0 19.778 8.837 19.778 19.732S41.788 42.786 30.9 42.786zm0-36.438c-9.254 0-16.754 7.505-16.754 16.706 0 9.2 7.5 16.705 16.755 16.705 9.254 0 16.754-7.505 16.754-16.705S40.155 6.348 30.9 6.348z" fill="#7CB9FF"/><path d="M30.9 35.28c-6.774 0-12.278-5.447-12.278-12.227 0-6.779 5.504-12.226 12.278-12.226 6.775 0 12.279 5.508 12.279 12.226 0 6.78-5.504 12.227-12.279 12.227zm0-21.427c-5.08 0-9.254 4.116-9.254 9.2 0 5.085 4.174 9.2 9.254 9.2 5.081 0 9.255-4.115 9.255-9.2 0-5.084-4.174-9.2-9.255-9.2z" fill="#0D66CC"/><path d="M30.9 17.364a1.498 1.498 0 01-1.512-1.513V12.28c0-.848.665-1.513 1.512-1.513s1.512.665 1.512 1.513v3.571c0 .847-.665 1.513-1.512 1.513zm-6.896 4.963c-.181 0-.302 0-.484-.06l-3.326-1.09c-.786-.242-1.21-1.15-.968-1.937.242-.787 1.15-1.21 1.936-.968l3.326 1.09c.787.241 1.21 1.15.968 1.936a1.54 1.54 0 01-1.452 1.03zm.606 10.835c-.302 0-.604-.121-.906-.303-.666-.484-.847-1.453-.363-2.118l2.056-2.845c.484-.666 1.452-.848 2.117-.363.666.484.847 1.452.363 2.118l-2.056 2.845c-.303.484-.726.666-1.21.666zm12.58 0c-.483 0-.967-.242-1.27-.666l-2.056-2.845c-.484-.666-.302-1.634.363-2.118.665-.485 1.633-.303 2.117.363L38.4 30.74c.484.666.303 1.634-.362 2.118-.242.242-.545.303-.847.303zm.485-10.835c-.665 0-1.21-.424-1.452-1.029-.242-.787.182-1.634.968-1.937l3.327-1.09c.786-.241 1.633.182 1.935.97.242.786-.181 1.634-.968 1.936l-3.326 1.09c-.121.06-.303.06-.484.06z" fill="#0D66CC"/><path d="M30.175 6.348h-17.54a1.498 1.498 0 01-1.513-1.513c0-.848.665-1.513 1.512-1.513h17.54c.848 0 1.513.665 1.513 1.513 0 .847-.666 1.513-1.512 1.513zm0 36.438H4.409a1.498 1.498 0 01-1.513-1.513c0-.848.666-1.514 1.513-1.514h25.766c.847 0 1.512.666 1.512 1.514 0 .847-.665 1.513-1.512 1.513zm-12.278-5.387H9.066a1.498 1.498 0 01-1.512-1.513c0-.848.665-1.513 1.512-1.513h8.83c.847 0 1.513.665 1.513 1.513 0 .847-.666 1.513-1.512 1.513zm-1.089-24.454H4.227a1.498 1.498 0 01-1.512-1.513c0-.847.665-1.513 1.512-1.513h12.58c.848 0 1.513.666 1.513 1.513 0 .848-.666 1.513-1.512 1.513zM30.9 27.896c-2.661 0-4.899-2.18-4.899-4.842 0-2.664 2.177-4.843 4.9-4.843 2.66 0 4.899 2.18 4.899 4.843-.061 2.663-2.238 4.842-4.9 4.842zm0-6.658a1.783 1.783 0 00-1.814 1.816A1.82 1.82 0 0030.9 24.87a1.82 1.82 0 001.815-1.816 1.783 1.783 0 00-1.815-1.816z" fill="#7CB9FF"/></g></svg>