<svg width="50" height="41" fill="none" xmlns="http://www.w3.org/2000/svg"><path d="M41.16 6.567H7.881c-.844 0-1.464.628-1.464 1.484 0 .857.62 1.485 1.464 1.485H41.16c.789 0 1.464-.685 1.464-1.485 0-.856-.619-1.484-1.464-1.484zm-18.413 8.051H7.882c-.844 0-1.464.628-1.464 1.485 0 .857.62 1.485 1.464 1.485h14.865c.394 0 .845-.172 1.126-.514.282-.286.395-.628.338-.97 0-.857-.62-1.486-1.464-1.486zm0 7.709H7.882c-.844 0-1.464.628-1.464 1.485 0 .857.62 1.485 1.464 1.485h14.865c.45 0 .845-.172 1.126-.457a1.16 1.16 0 00.338-1.028c0-.857-.62-1.485-1.464-1.485z" fill="#0D66CC"/><path d="M46.565 0H3.435C1.52 0 0 1.542 0 3.483v26.724c0 1.942 1.52 3.484 3.435 3.484h24.662l-.845 5.653c-.056.457.113.97.507 1.313.394.286.9.343 1.408.172l6.531-2.798 6.87 2.855c.169.114.394.114.506.114.17 0 .62-.057.845-.285.394-.286.62-.743.507-1.314l-.901-5.653h3.04c1.915 0 3.435-1.542 3.435-3.483V3.483C50 1.542 48.48 0 46.565 0zM36.261 35.118c-.169-.114-.338-.114-.507-.114-.281 0-.506.114-.563.114l-4.842 2.056.62-4.397.281-1.656.113-.685c.281.171.563.285.844.4.45.171.901.342 1.408.457l.844.17c.338.058.676.058 1.014.058h.225c.338 0 .62 0 1.014-.057 1.238-.171 2.42-.571 3.49-1.256l.17 1.027c.056.229.056.457.112.686.056.456.17 1.028.282 1.541l.563 3.712-5.068-2.056zm4.054-8.68c-1.07 1.428-2.815 2.285-4.673 2.285-1.802 0-3.491-.8-4.674-2.227a6.08 6.08 0 01-1.407-3.883c0-3.37 2.703-6.11 6.025-6.11 3.322 0 6.024 2.74 6.024 6.11.057 1.713-.675 3.026-1.295 3.826zm6.926 3.77c0 .342-.338.685-.676.685h-3.434l-.45-2.97a9.072 9.072 0 001.745-5.31c0-4.911-3.942-8.908-8.784-8.908-4.842 0-8.784 3.997-8.784 8.908 0 2.113.732 4.054 2.083 5.71l-.394 2.57H3.435c-.338 0-.676-.343-.676-.686V3.483c0-.285.169-.514.394-.628.056 0 .17-.057.282-.057h43.13c.338 0 .676.343.676.685v26.724z" fill="#7CB9FF"/></svg>