<svg width="54" height="32" fill="none" xmlns="http://www.w3.org/2000/svg"><path d="M8.048 6.897c.731-.962 1.625-2.085 2.438-2.967.57-.642 1.057-1.123 1.545-1.444.487-.4.813-.4.894-.4H34.06c.162.08.325.16.569.4.488.401 1.057.882 1.626 1.524l.406.401c.65-.401 1.3-.642 2.032-.882-.325-.321-.65-.642-.975-1.043-.65-.561-1.3-1.123-1.87-1.604a2.921 2.921 0 00-.813-.561C34.791.24 34.466 0 34.06 0H12.925c-.813 0-1.545.401-2.114.802-.569.561-1.219 1.123-1.788 1.764-.894.963-1.788 2.166-2.601 3.128l-.407.481h-3.17c-1.22 0-2.195.562-2.439 1.444-.08.24-.08.481-.08.722 0 .24.162.481.243.641.325.401.813.642 1.382.642h.244c-.407.24-.813.561-1.138.882C.407 11.228 0 12.271 0 13.233v11.549c0 .962.488 1.684 1.138 2.085.57.321 1.22.481 1.707.481h6.422c.975 0 1.463-.721 1.707-1.203.244-.48.244-.962.244-1.363H9.186v.32c0 .081 0 .161-.082.241H2.845c-.162 0-.406-.08-.569-.16-.081 0-.081-.08-.162-.16-.082-.08-.082-.16-.082-.241V13.393c0-.56.244-1.042.57-1.523.406-.401.812-.642 1.137-.642.325 0 .732-.08 1.138-.32.244-.161.488-.402.57-.642.162-.24.243-.562.243-.802a1.57 1.57 0 00-.488-1.123c-.08-.08-.162-.16-.243-.16H6.99l.325-.402c.244-.24.488-.561.732-.882z" fill="#7CB9FF"/><path d="M31.133 8.34c-6.26.161-14.307 0-20.16-.48l-.162 1.924c5.527.482 12.843.562 18.94.482.325-.642.813-1.284 1.382-1.925zm-3.414 7.86h-.65l-1.464 1.204-1.463-1.203h-8.698v1.924h7.885l2.195 1.845 2.032-1.684c.081-.722.081-1.444.163-2.085zM7.072 14.357l6.421.722.244-1.925-6.422-.722-.243 1.925zM28.857 23.5c-7.072.32-13.657-.321-21.46-1.845L6.99 23.58c8.373 1.684 15.364 2.245 22.923 1.845-.406-.642-.731-1.284-1.056-1.925z" fill="#0D66CC"/><path d="M50.237 24.782c-.081-.882 0-1.604.732-3.93.813-2.566 1.057-3.85.975-5.373-.162-3.449-2.195-6.657-5.365-8.501-.325-.241-.975-.482-1.626-.722-.65-.24-1.3-.481-1.707-.562-1.3-.24-2.682-.24-3.983-.08-.65.08-.894.24-1.056.642-.163.32-.163.641.243 1.203.163.24 1.139 1.524 2.195 2.807 1.87 2.486 1.87 2.566 1.87 2.646 0 .241-3.495 2.647-3.495 2.647-.082 0-.163.08-.244.08-.082 0-.082-.08-2.358-2.967-1.95-2.487-2.194-2.807-2.438-2.968-.325-.16-.65-.08-.976.08-.162.08-.244.16-.65 1.204-.57 1.283-.732 1.844-.813 3.208-.163 1.604.081 3.208.732 4.812l.487 1.203-.487.4c-.65.562-.813.963.243 2.166.976 1.123 2.033 1.925 4.634 3.449 1.788 1.042 2.439 1.443 3.008 2.085.243.24.406.561 1.625 3.529h2.276c-1.056-2.486-1.707-4.09-1.788-4.25-.406-.642-1.138-1.364-2.032-1.926-.244-.16-1.22-.722-2.195-1.283-1.626-.962-2.926-1.764-3.414-2.326l-.407-.4 5.447-3.93c3.008-2.246 5.283-3.85 5.365-4.01.162-.161.244-.562.162-.883-.08-.16-.894-1.283-1.95-2.647L40.97 7.54l.976.08c.244 0 .813.16 1.22.24.65.161 1.788.562 2.194.883 1.057.642 1.788 1.203 2.439 2.005 1.625 1.845 2.357 4.33 1.95 6.657-.08.721-.243 1.283-1.138 4.09-.487 1.604-.569 2.887-.406 4.01.081.16 1.057 2.646 2.52 6.496h2.276c-1.3-3.288-2.764-6.977-2.764-7.218zm-13.331-7.7c-.081.161-2.195 1.685-2.357 1.765-.407 0-.732-1.283-.813-1.844-.244-1.043-.244-2.567 0-3.449 0-.32.081-.401.081-.401h.081l.082.08c.162.08 2.845 3.77 2.926 3.77v.08z" fill="#7CB9FF"/><path d="M44.628 17.644c-.162 0-.325 0-.487.08-.082.08-.976.642-2.033 1.444-1.625 1.123-1.87 1.363-1.95 1.604-.244.4-.163.722.162 1.043.244.32.569.4.975.32.407-.08 4.146-2.807 4.39-3.128.244-.4.081-.962-.244-1.283-.325 0-.569-.08-.813-.08z" fill="#0D66CC"/></svg>