<svg width="56" height="48" fill="none" xmlns="http://www.w3.org/2000/svg"><mask id="a" style="mask-type:alpha" maskUnits="userSpaceOnUse" x="0" y="0" width="56" height="48"><path fill="#C4C4C4" d="M0 0h56v48H0z"/></mask><g mask="url(#a)"><path d="M50.355 20.155H5.06v-7.543c0-1.85 1.406-3.31 3.249-3.31h38.797c1.794 0 3.25 1.46 3.25 3.31v7.543zm-42.87-2.482H47.93v-5.061c0-.487-.34-.827-.825-.827H8.31c-.485 0-.825.34-.825.827v5.061z" fill="#7CB9FF"/><path d="M38.522 40.595H6.272c-.679 0-1.212-.535-1.212-1.265V18.89c0-.681.533-1.265 1.212-1.265.679 0 1.212.535 1.212 1.265v19.223h31.038c.68 0 1.213.536 1.213 1.266s-.534 1.216-1.213 1.216z" fill="#7CB9FF"/><path d="M14.468 22.978c-1.213 0-2.134.487-2.861 1.509-.63 1.022-.97 2.384-.97 4.039 0 1.752.29 3.017.97 4.04.679 1.07 1.6 1.605 2.861 1.605 1.26 0 2.23-.535 2.861-1.508.63-1.022.97-2.385.97-4.04 0-1.654-.34-3.017-.97-4.039-.679-1.022-1.697-1.606-2.861-1.606zm1.455 5.548c0 1.363-.146 2.336-.437 2.871-.242.487-.63.682-1.115.682s-.825-.244-1.116-.682c-.29-.486-.436-1.508-.436-2.871 0-1.12.146-2.093.388-2.725.242-.584.582-.828 1.164-.828.485 0 .824.244 1.115.682.291.535.437 1.46.437 2.871zm9.214-5.548c-1.26 0-2.23.535-2.86 1.509-.631 1.022-.97 2.384-.97 4.039 0 1.606.29 2.92.97 4.04.678 1.07 1.6 1.605 2.86 1.605 1.261 0 2.231-.535 2.862-1.508.63-1.022.97-2.385.97-4.04 0-1.655-.34-3.017-.97-4.04-.63-1.021-1.65-1.605-2.862-1.605zm1.116 8.42c-.243.486-.63.68-1.116.68-.485 0-.824-.243-1.115-.68-.291-.488-.436-1.51-.436-2.872 0-1.12.145-2.093.388-2.725.242-.584.581-.828 1.163-.828.485 0 .825.244 1.116.682.29.535.436 1.46.436 2.87 0 1.315-.145 2.337-.436 2.872zm9.602-8.42c-1.212 0-2.134.487-2.861 1.509-.63 1.022-.97 2.384-.97 4.039 0 1.655.34 3.017.97 4.04.679 1.07 1.6 1.605 2.861 1.605 1.261 0 2.231-.535 2.862-1.508.63-1.022.97-2.385.97-4.04 0-1.654-.34-3.017-.97-4.039-.68-1.022-1.698-1.606-2.862-1.606zm1.504 5.548c0 1.363-.146 2.336-.437 2.871-.242.487-.63.682-1.115.682s-.825-.244-1.116-.682c-.29-.486-.436-1.508-.436-2.871 0-1.12.145-2.093.388-2.725.242-.584.582-.828 1.164-.828.485 0 .824.244 1.115.682.291.535.437 1.46.437 2.871zm12.124-3.942c-.63-1.022-1.65-1.606-2.862-1.606-1.212 0-2.134.487-2.861 1.509-.63 1.022-.97 2.384-.97 4.039 0 1.654.34 3.017.97 4.04.679 1.07 1.6 1.605 2.861 1.605 1.261 0 2.231-.535 2.862-1.508.63-1.022.97-2.385.97-4.04-.049-1.655-.34-3.017-.97-4.04zm-1.407 3.942c0 1.363-.145 2.336-.436 2.871-.243.487-.63.681-1.116.681-.485 0-.824-.243-1.115-.68-.291-.488-.437-1.51-.437-2.872 0-1.12.146-2.093.388-2.725.243-.584.582-.828 1.164-.828.485 0 .825.244 1.116.682.29.535.436 1.46.436 2.87z" fill="#0D66CC"/><path d="M16.699 14.51c-.68 0-1.213-.535-1.213-1.265V8.67c0-.681.534-1.265 1.213-1.265s1.212.535 1.212 1.265v4.575c0 .73-.533 1.265-1.212 1.265zm21.871 0c-.678 0-1.212-.535-1.212-1.265V8.67c0-.681.534-1.265 1.213-1.265s1.212.535 1.212 1.265v4.575c0 .73-.533 1.265-1.212 1.265z" fill="#7CB9FF"/></g></svg>