<svg width="44" height="58" fill="none" xmlns="http://www.w3.org/2000/svg"><mask id="a" style="mask-type:alpha" maskUnits="userSpaceOnUse" x="0" y="0" width="44" height="58"><path fill="#C4C4C4" d="M0 0h44v58H0z"/></mask><g mask="url(#a)"><path d="M40.188 49.3H3.73a1.52 1.52 0 01-1.216-.63c-.289-.402-.289-.918-.115-1.32l4.63-10.318c.23-.515.752-.86 1.33-.86h9.202c.81 0 1.447.631 1.447 1.376 0 .746-.637 1.376-1.447 1.376H9.285l-3.356 7.51h32.06l-3.472-7.51h-8.102c-.81 0-1.447-.63-1.447-1.376 0-.745.637-1.375 1.447-1.375h9.028c.579 0 1.1.344 1.331.802l4.803 10.319c.232.458.174.917-.115 1.318-.29.459-.753.688-1.274.688z" fill="#7CB9FF"/><path d="M21.959 44.37c-.463 0-.868-.172-1.1-.516l-7.696-9.286-.058-.058-3.068-4.184a11.908 11.908 0 01-2.546-7.338v-.115c0-3.898 1.62-7.566 4.514-10.26 2.894-2.695 6.771-4.07 10.822-3.899 7.176.402 13.021 5.962 13.658 12.898v.86c.115 2.752-.81 5.618-2.605 7.968l-3.067 4.07-.058.058-7.697 9.286a1.438 1.438 0 01-1.099.516zm-6.54-11.522l6.54 7.853 6.54-7.91 3.067-4.07c1.389-1.892 2.083-4.07 2.025-6.249v-.745c-.52-5.503-5.208-9.917-10.938-10.261-3.24-.172-6.365.917-8.68 3.095-2.315 2.179-3.588 5.045-3.588 8.198v.114c0 2.007.694 4.013 2.025 5.733l3.01 4.242z" fill="#7CB9FF"/><path d="M21.958 29.58c-3.877 0-7.002-3.038-7.002-6.821 0-3.784 3.125-6.822 7.002-6.822 3.878 0 7.003 3.038 7.003 6.822 0 3.726-3.125 6.821-7.003 6.821zm0-10.891c-2.256 0-4.108 1.777-4.108 4.012 0 2.236 1.851 4.013 4.108 4.013 2.257 0 4.11-1.777 4.11-4.013 0-2.178-1.853-4.012-4.11-4.012zM15.71 44.14h-4.4c-.81 0-1.447-.63-1.447-1.375s.637-1.376 1.447-1.376h4.398c.81 0 1.447.63 1.447 1.376 0 .745-.637 1.376-1.447 1.376zm17.014 0h-4.398c-.81 0-1.447-.63-1.447-1.375s.636-1.376 1.447-1.376h4.398c.81 0 1.447.63 1.447 1.376 0 .745-.637 1.376-1.447 1.376z" fill="#0D66CC"/></g></svg>