<svg xmlns="http://www.w3.org/2000/svg" viewBox="0 0 58 46"><defs><filter id="a" width="58" height="46" x="0" y="0" filterUnits="userSpaceOnUse"><feOffset dy="3"/><feGaussianBlur stdDeviation="3" result="blur"/><feFlood flood-opacity=".161"/><feComposite operator="in" in2="blur"/><feComposite in="SourceGraphic"/></filter></defs><g filter="url(#a)"><path d="M45 6H13a4 4 0 00-3.98 4L9 30a4 4 0 004 4h32a4 4 0 004-4V10a4 4 0 00-4-4zm-18 6h4v4h-4zm0 6h4v4h-4zm-6-6h4v4h-4zm0 6h4v4h-4zm-2 4h-4v-4h4zm0-6h-4v-4h4zm18 14H21v-4h16zm0-8h-4v-4h4zm0-6h-4v-4h4zm6 6h-4v-4h4zm0-6h-4v-4h4z" fill="#fff"/></g></svg>