<svg xmlns="http://www.w3.org/2000/svg" width="57.695" height="55.811"><defs><style>.a{fill:#7b0000}</style></defs><path class="a" d="M43.948 14.05C46.13 33.513 17.466 45.5 1.438 40.728c-.705-.55-1.517.512-.913 1.136 17.217 6.4 48.18-7.672 45.978-27.642-.182-1.637-2.74-1.824-2.555-.172z"/><path class="a" d="M45.234 1.093a1.45 1.45 0 00-2.036-.074c-3.885 4.015-6.504 9.13-9.981 13.49a.751.751 0 00.798 1.116c1.866-.49 3.103-2.315 4.223-3.778 1.966-2.57 3.687-5.314 5.894-7.676 1.639 1.822 3.302 3.621 4.918 5.468 1.738 1.986 3.352 5.154 5.656 6.436a1.123 1.123 0 001.668-1.19c-.343-2.466-2.832-4.617-4.391-6.441a140.707 140.707 0 00-6.75-7.351z"/></svg>