<svg width="55" height="13" fill="none" xmlns="http://www.w3.org/2000/svg"><path d="M37.089 0l1.754 12.967h-2.671L34.422 0h2.667z" fill="#00A651"/><path d="M45.721 0l-1.946 12.967H41.14L43.084 0h2.637z" fill="url(#paint0_linear)"/><path d="M50.405 0l1.75 12.967h-2.666L47.734 0h2.671z" fill="#00A651"/><path d="M39.03 0h2.654l-1.75 12.967H39l-.813-5.766L39.03 0z" fill="url(#paint1_linear)"/><path d="M52.347 0h2.65l-1.75 12.967h-.934l-.77-5.77L52.347 0z" fill="url(#paint2_linear)"/><path d="M47.572 12.967h-2.654L46.672 0h.93l.782 5.757-.812 7.21z" fill="url(#paint3_linear)"/><path opacity=".5" d="M33.444 3.487c.075-1.588-.573-3.023-2.047-3.408A2.492 2.492 0 0030.878 0l.837 2.878c.083.32.083.66 0 .98a2.667 2.667 0 01-.737 1.643l.49 1.672a4.731 4.731 0 001.325-1.492 5.28 5.28 0 00.647-1.967l.004-.227zM4.4 1.727c-.432.07-.833.287-1.15.619a2.433 2.433 0 00-.621 1.238l-.88 5.637a1.8 1.8 0 00.038.83l.837 2.912a2.464 2.464 0 01-.531-.08c-.704-.188-1.312-.68-1.69-1.366a3.322 3.322 0 01-.328-2.291l.883-5.619a4.958 4.958 0 011.024-2.253A4.255 4.255 0 013.902 0L4.4 1.727zm2.646 1.987H5.375a1.831 1.831 0 00-.034-.835L4.487 0c.18.007.36.033.536.079a2.6 2.6 0 01.968.488c.29.232.537.526.725.863a3.308 3.308 0 01.33 2.284zM4.471 9.421h1.674a4.882 4.882 0 01-1.022 2.224 4.186 4.186 0 01-1.908 1.324l-.51-1.714a2.017 2.017 0 001.15-.615c.318-.333.533-.768.616-1.243v.024zm5.157 3.543H6.472L8.532 0h1.675L8.44 11.105h.636l.553 1.858zm2.094 0h-1.504l-.54-1.858h2.311l-.267 1.857zm3.82 0h-3.184L14.422 0h2.323l.54 1.857h-1.48l-.586 3.715h.636l.544 1.857h-1.48l-.585 3.714h.636l.571 1.82zm2.05 0h-1.508l-.543-1.859h2.31l-.258 1.858zm.83-5.535h-1.46l-.54-1.857h2.312l-.313 1.857zm.9-5.572h-1.476L17.302 0h2.31l-.29 1.857zm3.512 8.316h-1.903l-.978 2.785h-1.718L22.51.835l.15 4.423-1.092 3.097h1.188l.078 1.818zm2.407 2.785h-1.71L23.079 0h1.708l.454 12.958zm7.339 0h-1.878L29.091 7.43h-.624L27.584 13h-1.675L27.96 0h2.31l.54 1.857h-1.473l-.586 3.715h1.673l2.156 7.386z" fill="#231F20"/><defs><linearGradient id="paint0_linear" x1="41.141" y1="6.484" x2="45.721" y2="6.484" gradientUnits="userSpaceOnUse"><stop stop-color="#00A651"/><stop offset=".14" stop-color="#00A651"/><stop offset="1" stop-color="#00A651"/></linearGradient><linearGradient id="paint1_linear" x1="37.743" y1="6.924" x2="42.878" y2="6.829" gradientUnits="userSpaceOnUse"><stop stop-color="#005B30"/><stop offset=".04" stop-color="#006936"/><stop offset=".14" stop-color="#007F40"/><stop offset=".25" stop-color="#009148"/><stop offset=".38" stop-color="#009D4D"/><stop offset=".56" stop-color="#00A450"/><stop offset="1" stop-color="#00A651"/></linearGradient><linearGradient id="paint2_linear" x1="51.056" y1="6.924" x2="56.19" y2="6.831" gradientUnits="userSpaceOnUse"><stop stop-color="#005B30"/><stop offset=".04" stop-color="#006936"/><stop offset=".14" stop-color="#007F40"/><stop offset=".25" stop-color="#009148"/><stop offset=".38" stop-color="#009D4D"/><stop offset=".56" stop-color="#00A450"/><stop offset="1" stop-color="#00A651"/></linearGradient><linearGradient id="paint3_linear" x1="325.214" y1="187.038" x2="330.349" y2="186.944" gradientUnits="userSpaceOnUse"><stop stop-color="#005B30"/><stop offset=".04" stop-color="#006936"/><stop offset=".14" stop-color="#007F40"/><stop offset=".25" stop-color="#009148"/><stop offset=".38" stop-color="#009D4D"/><stop offset=".56" stop-color="#00A450"/><stop offset="1" stop-color="#00A651"/></linearGradient></defs></svg>