<svg width="24" height="24" fill="none" xmlns="http://www.w3.org/2000/svg"><path d="M24 12c0 6.627-5.373 12-12 12S0 18.627 0 12 5.373 0 12 0s12 5.373 12 12z" fill="#fff"/><path d="M11.134 5a1 1 0 011.732 0l6.062 10.5a1 1 0 01-.866 1.5H5.938a1 1 0 01-.866-1.5L11.134 5z" fill="#B20000"/><path d="M12.21 14.02h-.6c-.08 0-.12-.04-.12-.12V8.02c0-.08.04-.12.12-.12h.6c.08 0 .12.04.12.12v5.88c0 .08-.04.12-.12.12zm.08 1.07c.1.1.15.223.15.37s-.05.27-.15.37a.498.498 0 01-.38.16.519.519 0 01-.38-.16.503.503 0 01-.15-.37c0-.147.05-.27.15-.37a.519.519 0 01.38-.16c.153 0 .28.053.38.16z" fill="#fff"/></svg>