<svg width="72" height="74" fill="none" xmlns="http://www.w3.org/2000/svg"><path d="M41.17 42.459c.678-1.002 1.389-1.957 1.892-2.447l16.854-16.419h.001v-.001h.001v-.001h.001v-.001h.001v-.001h.001v-.001h.001v-.001h.001l.001-.001h0v-.001h.001v-.001h.001l.001-.001h0v-.001h.001l.001-.001h0l.001-.001h0l.001-.001h0l.001-.001h0l.001-.001h0l.001-.001h0l.001-.001h.001v-.001h0l.001-.001h0l.001-.001h.001v-.001h0l.001-.001h0l.001-.001h.001v-.001h0l.001-.001h.001v-.001h.001v-.001h0l.001-.001h.001v-.001h.001v-.001h.001v-.001h.001v-.001h.001v-.001h.001v-.001h.001v-.001h.001v-.001h.001v-.001h.001v-.001h.001l.001-.001h0v-.001h.001v-.001h.001l.001-.001h0v-.001h.001v-.001h.001l.001-.001h0v-.001h.001l.001-.001h0l.001-.001h0v-.001h.001l.001-.001h0l.001-.001h0l.001-.001h0l.001-.001h0l.001-.001h0l.001-.001h0l.001-.001h0l.001-.001h0l.001-.001h.001v-.001h0l.001-.001h0l.001-.001h.001v-.001h0l.001-.001h.001v-.001h.001v-.001h.001v-.001h.001v-.001h.001v-.001h.001v-.001h.001v-.001h.001v-.001h.001v-.001h.001v-.001h.001v-.001h.001v-.001h.001l.001-.001h0v-.001h.001v-.001h.001l.001-.001h0v-.001H60v-.001h.001l.001-.001h0l.001-.001h0v-.001h.001l.001-.001h0l.001-.001h0l.001-.001h0v-.001h.001l.001-.001h0l.001-.001h0l.001-.001h0l.001-.001h0l.001-.001h0l.001-.001h.001v-.001h0l.001-.001h0l.001-.001h.001v-.001h.001v-.001h0l.001-.001h.001v-.001h.001v-.001h.001v-.001h0l.001-.001h.001v-.001h.001v-.001h.001v-.001h.001v-.001h.001v-.001h.001v-.001h.001v-.001h.001v-.001h.001v-.001h.001v-.001h.001l.001-.001h0v-.001h.001v-.001h.001l.001-.001h0l.001-.001h0v-.001h.001v-.001h.001l.001-.001h0l.001-.001h0v-.001h.001v-.001h.001l.001-.001h0l.001-.001h0l.001-.001h0l.001-.001h0l.001-.001h0l.001-.001h0l.001-.001h.001v-.001h0l.001-.001h0l.001-.001h0l.001-.001h.001v-.001h.001v-.001h0l.001-.001h.001v-.001h.001v-.001h.001v-.001h0l.001-.001h.001v-.001h.001v-.001h.001v-.001h.001v-.001h.001v-.001h.001v-.001h.001v-.001h.001v-.001h.001l.001-.001h0v-.001h.001v-.001h.001v-.001h.001l.001-.001h0l.001-.001h0v-.001h.001v-.001h.001l.001-.001h0l.001-.001h0l.001-.001h0v-.001h.001l.001-.001h0l.001-.001h0l.001-.001h0l.001-.001h.001v-.001h0l.001-.001h0l.001-.001h0l.001-.001h0l.001-.001h.001v-.001h.001v-.001h0l.001-.001h0l.001-.001h.001v-.001h.001v-.001h.001v-.001h.001v-.001h0l.001-.001h.001v-.001h.001v-.001h.001v-.001h.001v-.001h.001v-.001h.001v-.001h.001v-.001h.001v-.001h.001v-.001h.001l.001-.001h0V23.4h.001v-.001h.001v-.001h.001v-.001h.001l.001-.001h0l.001-.001h0l.001-.001h0v-.001h.001l.001-.001h0l.001-.001h0l.001-.001h0l.001-.001h0l.001-.001h.001v-.001h0l.001-.001h0l.001-.001h0l.001-.001h0l.001-.001h.001v-.001h.001v-.001h.001v-.001h0l.001-.001h0l.001-.001h0l.001-.001h.001v-.001h.001v-.001h.001v-.001h.001v-.001h0l.001-.001h.001v-.001h.001c.704-.687 1.53-1.302 2.303-1.807 2.186-1.428 2.577-4.553.629-6.45l-.158-.154-.012-.012-9.055-8.821-.012-.012-.32-.31c-1.834-1.787-4.954-1.61-6.423.566-.677 1.002-1.388 1.957-1.89 2.446L28.121 25.46l-.001.002c-.704.685-1.529 1.3-2.301 1.804-2.186 1.428-2.577 4.554-.63 6.451l.159.154.012.012 9.055 8.82.012.013.319.31c1.834 1.787 4.954 1.609 6.424-.566z" stroke="#2158F5" stroke-width="4"/><path d="M21.125 38.916l9.474 9.229M59.02 2l9.473 9.23" stroke="#56CCF2" stroke-width="4" stroke-linecap="round"/><path d="M32.493 15.844c0-1.53 1.273-2.769 2.843-2.769s2.842 1.24 2.842 2.769c0 1.529-1.273 2.768-2.842 2.768-1.57 0-2.843-1.24-2.843-2.768zm17.72 17.393L53 30.5l18.445 18.2c.74.72.74 1.89 0 2.61a1.93 1.93 0 01-2.68 0L50.214 33.237z" fill="#2158F5"/><path fill-rule="evenodd" clip-rule="evenodd" d="M52 60H13a2 2 0 00-2 2v1h27a2 2 0 110 4H6a2 2 0 00-2 2v1h57v-1a2 2 0 00-2-2h-8a2 2 0 110-4h3v-1a2 2 0 00-2-2zm6 3h1a6 6 0 016 6v5H0v-5a6 6 0 016-6h1v-1a6 6 0 016-6h39a6 6 0 016 6v1z" fill="#2158F5"/></svg>