<svg width="66" height="74" fill="none" xmlns="http://www.w3.org/2000/svg"><path d="M64.876 73.888c.674 0 1.123-.45 1.123-1.125V68.6c0-.225-.112-.45-.224-.675m-.899 5.963L63.753 65l2.022 2.925m-.899 5.963L1.123 74l63.753-.112zm.899-5.963l-.976.675-.669.463-.08-.115m1.725-1.023l-1.351.675-.408.204a1.248 1.248 0 01-.017-.204v.212l-.013.007.014.028v.027m.05.074l-.05-.074m.05.074a.527.527 0 00.006.016l-.01-.023s0 0 0 0l.005.007zm-.05-.074l-1.892-2.736-.355-.514V41.856l.376-.523L64 38.73v-3.005h-4.523l-.484-.3L32.998 19.35 6.89 35.43l-.483.297H2v3.126l1.892 2.736.355.514v23.859l-.355.513L2 69.212v2.786l62-.109v-3.015z" stroke="#2158F5" stroke-width="4"/><path fill="#2158F5" d="M6 33.742h56v4.005H6z"/><path fill="#56CCF2" d="M10 41.051h4v26.033h-4zm14 0h4v26.033h-4zm14 0h4v26.033h-4zm14 0h4v26.033h-4z"/><path fill-rule="evenodd" clip-rule="evenodd" d="M31 8a2 2 0 012-2 9 9 0 11-9 9 2 2 0 114 0 5 5 0 105-5 2 2 0 01-2-2z" fill="#2158F5"/><path fill-rule="evenodd" clip-rule="evenodd" d="M33 0a2 2 0 012 2v6a2 2 0 11-4 0V2a2 2 0 012-2z" fill="#2158F5"/></svg>