<svg width="92" height="50" fill="none" xmlns="http://www.w3.org/2000/svg"><path fill-rule="evenodd" clip-rule="evenodd" d="M13.693 12.016c1.303-1.735 2.724-3.627 4.156-5.25.942-1.068 1.829-1.946 2.62-2.546.842-.636 1.335-.772 1.53-.772h35.65c.027.014.06.032.098.055.22.13.527.351.92.675.781.64 1.753 1.565 2.804 2.648l.15.154a23.706 23.706 0 013.606-1.22c-.421-.456-.842-.9-1.257-1.327-1.091-1.125-2.165-2.153-3.09-2.912-.459-.378-.918-.72-1.35-.976C59.176.335 58.554 0 57.85 0H22c-1.365 0-2.625.714-3.634 1.478-1.06.801-2.122 1.875-3.128 3.015-1.532 1.736-3.075 3.792-4.392 5.546l-.623.828h-5.37c-2.051 0-3.726.951-4.202 2.61-.22.77-.137 1.64.346 2.361.507.758 1.354 1.194 2.298 1.194h.404a6.95 6.95 0 00-1.892 1.585C.713 19.917 0 21.66 0 23.46v20.376c0 1.75.889 2.948 1.978 3.631.996.625 2.12.81 2.875.81h10.911c1.687 0 2.522-1.286 2.853-2.089.347-.84.442-1.76.442-2.352h-3.472a3.4 3.4 0 01-.045.53c-.03.18-.07.339-.117.463H4.853c-.283 0-.718-.087-1.021-.277a.751.751 0 01-.259-.248c-.043-.074-.101-.21-.101-.468V23.459c0-.919.378-1.893.999-2.63.626-.745 1.345-1.08 1.941-1.08.496 0 1.23-.117 1.901-.538a2.931 2.931 0 001.394-2.544c0-.698-.216-1.432-.81-2.013a2.82 2.82 0 00-.42-.338h3.472l.521-.681c.393-.514.802-1.058 1.223-1.619zm-9.756 2.517c-.001-.001.004-.01.02-.025-.011.019-.019.026-.02.025z" fill="#2158F5"/><path fill-rule="evenodd" clip-rule="evenodd" d="M51.926 14.606c-10.51.224-23.604.023-33.376-.807l-.296 3.436c9.178.78 21.25 1.014 31.477.86a24.25 24.25 0 012.195-3.49zM47.05 28.382h-1.168l-2.484 2.109-2.483-2.109H26.213v3.448h13.42l3.765 3.197 3.766-3.197h.007a24.66 24.66 0 01-.12-3.448zm-35.107-3.196l10.935 1.327.421-3.423-10.936-1.326-.42 3.422zM50.148 41.17c-12.404.704-23.867-.364-37.643-3.203l-.705 3.377c14.84 3.057 27.1 4.101 40.59 3.137a24.266 24.266 0 01-2.242-3.311z" fill="#2158F5"/><path d="M90 29.31C90 39.62 81.582 48 71.17 48c-10.413 0-18.83-8.38-18.83-18.69 0-10.309 8.417-18.69 18.83-18.69C81.582 10.62 90 19.002 90 29.31z" stroke="#56CCF2" stroke-width="4"/><path d="M62.047 29.75l6.004 6.05 12.51-12.605" stroke="#2158F5" stroke-width="4"/></svg>