<svg xmlns="http://www.w3.org/2000/svg" viewBox="-15557 -14098 31.49 42.613"><defs><style>.cls-1{fill:#9e9e9e}.cls-3{fill:#cfcfcf}</style></defs><g id="if_15_2257361" transform="translate(-15628.2 -14104)"><g id="Group_3696" data-name="Group 3696" transform="translate(71.2 6)"><path id="XMLID_14_" class="cls-1" d="M101.932 48.613H71.967a.769.769 0 01-.767-.767V6.767A.769.769 0 0171.967 6h29.957a.769.769 0 01.767.767v41.079a.762.762 0 01-.759.767z" transform="translate(-71.2 -6)"/><path id="XMLID_13_" transform="translate(1.236 1.227)" fill="#fff" d="M0 0h29.036v40.158H0z"/><g id="Group_3695" data-name="Group 3695" transform="translate(5.344 10.074)"><g id="XMLID_174_"><g id="XMLID_189_"><path id="XMLID_190_" class="cls-3" d="M0 0h20.812v.955H0z"/></g><g id="XMLID_187_" transform="translate(0 1.977)"><path id="XMLID_188_" class="cls-3" d="M0 0h20.812v.955H0z"/></g></g></g><g id="Group_3703" data-name="Group 3703" transform="translate(5.344 14.074)"><g id="XMLID_174_2" data-name="XMLID_174_"><g id="XMLID_189_2" data-name="XMLID_189_"><path id="XMLID_190_2" data-name="XMLID_190_" class="cls-3" d="M0 0h20.812v.955H0z"/></g><g id="XMLID_187_2" data-name="XMLID_187_" transform="translate(0 1.977)"><path id="XMLID_188_2" data-name="XMLID_188_" class="cls-3" d="M0 0h20.812v.955H0z"/></g></g></g><g id="Group_3704" data-name="Group 3704" transform="translate(5.344 18.074)"><g id="XMLID_174_3" data-name="XMLID_174_"><g id="XMLID_189_3" data-name="XMLID_189_"><path id="XMLID_190_3" data-name="XMLID_190_" class="cls-3" d="M0 0h20.812v.955H0z"/></g><g id="XMLID_187_3" data-name="XMLID_187_" transform="translate(0 1.977)"><path id="XMLID_188_3" data-name="XMLID_188_" class="cls-3" d="M0 0h20.812v.955H0z"/></g></g></g><g id="Group_3705" data-name="Group 3705" transform="translate(5.344 22.074)"><g id="XMLID_174_4" data-name="XMLID_174_"><g id="XMLID_189_4" data-name="XMLID_189_"><path id="XMLID_190_4" data-name="XMLID_190_" class="cls-3" d="M0 0h20.812v.955H0z"/></g><g id="XMLID_187_4" data-name="XMLID_187_" transform="translate(0 1.977)"><path id="XMLID_188_4" data-name="XMLID_188_" class="cls-3" d="M0 0h20.812v.955H0z"/></g></g></g><g id="Group_3706" data-name="Group 3706" transform="translate(5.344 26.074)"><g id="XMLID_174_5" data-name="XMLID_174_"><g id="XMLID_189_5" data-name="XMLID_189_"><path id="XMLID_190_5" data-name="XMLID_190_" class="cls-3" d="M0 0h20.812v.955H0z"/></g><g id="XMLID_187_5" data-name="XMLID_187_" transform="translate(0 1.977)"><path id="XMLID_188_5" data-name="XMLID_188_" class="cls-3" d="M0 0h20.812v.955H0z"/></g></g></g><g id="Group_3707" data-name="Group 3707" transform="translate(5.344 30.074)"><g id="XMLID_174_6" data-name="XMLID_174_"><g id="XMLID_189_6" data-name="XMLID_189_"><path id="XMLID_190_6" data-name="XMLID_190_" class="cls-3" d="M0 0h20.812v.955H0z"/></g><g id="XMLID_187_6" data-name="XMLID_187_" transform="translate(0 1.977)"><path id="XMLID_188_6" data-name="XMLID_188_" class="cls-3" d="M0 0h20.812v.955H0z"/></g></g></g><path id="XMLID_4_" class="cls-1" d="M274 18.784V6h10.517v12.784l-5.259-3.084z" transform="translate(-256.716 -6)"/><path id="XMLID_1_" d="M258.1 7.227h1.355V6z" transform="translate(-242.171 -6)" fill="#757575"/></g></g></svg>