<svg width="72" height="33" fill="none" xmlns="http://www.w3.org/2000/svg"><path d="M64.39 27.52h5.82v-4.3s-.61-4.2-4.94-4.2h-8.7V11.6" stroke="#6FA6E5" stroke-width="3" stroke-miterlimit="10" stroke-linecap="round" stroke-linejoin="round"/><path d="M45.57 11.6h14.81v11.45m0-11.45s-3.58-6.3-11.8-6.36h-3.01m10 22.39H22.19m-20.4 0h11.16M48.58 5.25v22.27" stroke="#6FA6E5" stroke-width="3" stroke-miterlimit="10" stroke-linecap="round" stroke-linejoin="round"/><path d="M60 31a4 4 0 100-8 4 4 0 000 8z" stroke="#6FA6E5" stroke-width="3" stroke-miterlimit="10"/><path d="M45.57 27.52V2h-2.4M1.79 22.35h42.88m6.88-3.34h2.02" stroke="#6FA6E5" stroke-width="3" stroke-miterlimit="10" stroke-linecap="round" stroke-linejoin="round"/><path d="M17 31a4 4 0 100-8 4 4 0 000 8z" stroke="#6FA6E5" stroke-width="3" stroke-miterlimit="10"/><path d="M70.21 23.22h-2.7" stroke="#6FA6E5" stroke-width="3" stroke-miterlimit="10" stroke-linecap="round" stroke-linejoin="round"/><path d="M30.81 12.8c0 .3 1.07.54 2.05.68 1.59.22 3.63 0 5.68.9" stroke="#D8E2E9" stroke-width=".25" stroke-linecap="round"/><path d="M19.45 9.16l.22.45c.77 1.54 1.6 7.96.68 9.78-.22.45-.45.68-.45.68" stroke="#D8E2E9" stroke-width=".25"/><path d="M2.56 15.88l-.07.35v.18l.02.04h0l.02.05a16.38 16.38 0 00.8 1.27l.26.04a70.72 70.72 0 002.57.23h.06c.97.13 1.96.32 2.9.5l.4.08c1.06.2 2.07.39 3.06.47 7.3.2 14.06.17 20-.2h.03l6.29-.24a28.31 28.31 0 001.62-.24l.02-.03a5.15 5.15 0 00.5-.75c.03-.18.05-.42.03-.65v-.13a6.53 6.53 0 01.18-.98 5.88 5.88 0 00-.95-.53c-.64-.3-1.43-.56-2.3-.78a28.74 28.74 0 00-5.52-.8h-.8a141.87 141.87 0 01-.92-.02h0c-.04 0-.17-.02-.3-.06l-.1-.03-.08-.04-.72-.4c-2.37-1.28-4.69-2.55-8-3.06a29.61 29.61 0 00-7.68.21h0c-1.05.15-3.11.69-5 1.22l-2.44.7-.18.06-.61.18a20.17 20.17 0 01-.25.07c-.03.01-.13.04-.22.05h0-.06s0 0 0 0a20.3 20.3 0 01-.4.04 112.27 112.27 0 00-1.26.1c-.03.1-.08.21-.15.32v.01l-.12.37a34.8 34.8 0 00-.63 2.4zm.86 2l-.01-.02v.01zm37.22.5c.01 0 .01 0 0 0 0 0 0 0 0 0zm.42-.78a.06.06 0 000 0z" stroke="#0D66CC" stroke-width="2"/><path opacity=".2" d="M1.78 16.33a.12.12 0 10-.14.2l.14-.2zm1.3 1.01l-.07.1.03.02h.03v-.12zm-1.44-.8l1.37.9.14-.2-1.37-.91-.14.2zm1.43.93l2.73.22.02-.25-2.73-.22-.02.25z" fill="#3E6C93"/><path d="M13.08 19.23h17.27c0-.45-.22-4.1 3.19-4.77" stroke="#0D66CC" stroke-width=".5" stroke-linecap="round"/><path d="M9.76 21.2a2.99 2.99 0 100-5.98 2.99 2.99 0 000 5.97z" fill="#C5E4FF"/><path d="M9.76 21.55a3.33 3.33 0 110-6.66 3.33 3.33 0 010 6.66zm0-6a2.65 2.65 0 102.64 2.67c0-.7-.29-1.37-.78-1.87-.5-.5-1.16-.8-1.86-.8z" fill="#0D66CC"/><path d="M34.28 21.2a2.99 2.99 0 100-5.98 2.99 2.99 0 000 5.97z" fill="#C5E4FF"/><path d="M34.28 21.55a3.33 3.33 0 111.26-.26c-.4.16-.84.25-1.28.25h.02zm0-6a2.65 2.65 0 102.64 2.66 2.66 2.66 0 00-2.66-2.65l.02-.01z" fill="#0D66CC"/><path d="M34.28 19.91a1.7 1.7 0 100-3.4 1.7 1.7 0 000 3.4z" fill="#3E6C93"/><path d="M32.56 18.2a1.7 1.7 0 111.05 1.59 1.7 1.7 0 01-.84-.76m-23.01.88a1.7 1.7 0 100-3.4 1.7 1.7 0 000 3.4z" fill="#0D66CC"/><circle r=".25" transform="scale(-1 1) rotate(15 -75.28 -27.44)" fill="#C5E4FF" stroke="#3E6C93" stroke-width=".5" stroke-dasharray="0.25 0.25"/><path d="M20.03 14.53c-3.98-.25-8.53-.62-9.26-1-.27-.18-.17-.37 0-.44 0 0 3.16-1.04 8.56-1.09.07.22.58 1.82.7 2.53zm7.84-.58c-.47.27-.4.66-.1.84-.26.04-4.04.04-6.67-.11-.08-.34-.84-2.69-.76-2.68 3.14.25 7.22 1.42 7.4 1.64.04.06.26.23.13.31zM40.9 17c-.23-.1-.48-.15-.76-.18a.5.5 0 00-.29.1c-.66-.05-1.43-.55-2.27-1.17.38-.04.85.02 1.38.05.9.32 1.66.6 2.01.93.05.04 0 .27-.07.27zM3.3 14.56c.08-.06.53-.24 1.27-.17.75.07 1.46.88 1.46.88s-.3.2-.67.25c-.38.05-2.32.05-2.36 0-.03-.05.21-.9.3-.96zm18.54.9c-.26-.11-.43-.28-.4-.3.52.13 1.25.04 1.6.12.35.07.46.24.46.24s-1.4.06-1.66-.06zm-9.9-.55c-.23-.12-.38-.3-.35-.31.48.14 1.17.08 1.49.17.32.09.42.26.42.26s-1.32 0-1.55-.12z" fill="#0D66CC"/></svg>