<svg xmlns="http://www.w3.org/2000/svg" width="393.154" height="393.5"><defs><filter id="a" x="204.728" y="331.5" width="62" height="62" filterUnits="userSpaceOnUse"><feOffset dy="1"/><feGaussianBlur stdDeviation=".5" result="b"/><feFlood flood-opacity=".388"/><feComposite operator="in" in2="b"/><feComposite in="SourceGraphic"/></filter><filter id="c" x="140.728" y="331.5" width="62" height="62" filterUnits="userSpaceOnUse"><feOffset dy="1"/><feGaussianBlur stdDeviation=".5" result="d"/><feFlood flood-opacity=".388"/><feComposite operator="in" in2="d"/><feComposite in="SourceGraphic"/></filter><filter id="e" x="0" y="168.523" width="50.148" height="50.148" filterUnits="userSpaceOnUse"><feOffset dy="1"/><feGaussianBlur stdDeviation=".5" result="f"/><feFlood flood-opacity=".388"/><feComposite operator="in" in2="f"/><feComposite in="SourceGraphic"/></filter><style>.c,.n{fill:#fff}.d{fill:#017dd6}.g{font-size:14px;opacity:.5;font-family:SegoeUI,Segoe UI}.h{fill:#70b14a}.i{fill:none}.j{opacity:.1}.l,.n{stroke:none}</style></defs><g opacity=".2" fill="#fff"><path class="l" d="M203.912 368.485c-98.835 0-179.243-80.408-179.243-179.242C24.669 90.408 105.077 10 203.912 10c98.834 0 179.242 80.408 179.242 179.243 0 98.834-80.408 179.242-179.242 179.242z"/><path d="M203.912 20C110.59 20 34.669 95.922 34.669 189.243c0 93.32 75.922 169.242 169.243 169.242 93.32 0 169.242-75.922 169.242-169.242C373.154 95.922 297.232 20 203.912 20m0-20c104.515 0 189.242 84.727 189.242 189.243 0 104.515-84.727 189.242-189.242 189.242-104.516 0-189.243-84.727-189.243-189.242C14.669 84.727 99.396 0 203.912 0z" fill="#95989a"/></g><path d="M203.911 368.882c-1.03-.039-2.055-.083-3.339-.147-144.3-7.159-176.013-134.85-175.333-180.414" fill="transparent" stroke="#70b14a" stroke-width="20"/><path class="c" d="M191.228 348h26v34h-26z"/><g transform="translate(-.002)" filter="url(#a)"><g class="d"><path class="l" d="M235.73 389.5a27.909 27.909 0 01-19.799-8.201 27.908 27.908 0 01-8.201-19.8 27.908 27.908 0 018.201-19.799 27.909 27.909 0 0119.799-8.2 27.908 27.908 0 0119.799 8.201 27.908 27.908 0 018.2 19.799 27.908 27.908 0 01-8.201 19.799 27.908 27.908 0 01-19.798 8.2z"/><path class="n" d="M235.73 335a26.415 26.415 0 00-18.738 7.762 26.415 26.415 0 00-7.762 18.738 26.415 26.415 0 007.762 18.738A26.415 26.415 0 00235.73 388a26.415 26.415 0 0018.738-7.762 26.415 26.415 0 007.762-18.738 26.415 26.415 0 00-7.762-18.738A26.415 26.415 0 00235.73 335m0-3c16.292 0 29.5 13.208 29.5 29.5s-13.208 29.5-29.5 29.5-29.5-13.208-29.5-29.5 13.208-29.5 29.5-29.5z"/></g></g><path class="c" d="M225.228 360.571h20v2.857h-20z"/><path class="c" d="M233.799 372v-20h2.857v20z"/><g transform="translate(-.002)" filter="url(#c)"><g class="d"><path class="l" d="M171.73 389.5a27.909 27.909 0 01-19.799-8.201 27.908 27.908 0 01-8.201-19.8 27.908 27.908 0 018.201-19.799 27.909 27.909 0 0119.799-8.2 27.908 27.908 0 0119.799 8.201 27.908 27.908 0 018.2 19.799 27.908 27.908 0 01-8.201 19.799 27.908 27.908 0 01-19.798 8.2z"/><path class="n" d="M171.73 335a26.415 26.415 0 00-18.738 7.762 26.415 26.415 0 00-7.762 18.738 26.415 26.415 0 007.762 18.738A26.415 26.415 0 00171.73 388a26.415 26.415 0 0018.738-7.762 26.415 26.415 0 007.762-18.738 26.415 26.415 0 00-7.762-18.738A26.415 26.415 0 00171.73 335m0-3c16.292 0 29.5 13.208 29.5 29.5s-13.208 29.5-29.5 29.5-29.5-13.208-29.5-29.5 13.208-29.5 29.5-29.5z"/></g></g><path class="c" d="M161.228 360.571h20v2.857h-20z"/><g transform="translate(-643.772 -242)"><g transform="translate(643.77 242)" filter="url(#e)"><g class="d"><path class="l" d="M29.79 209.872a17.707 17.707 0 01-13.525-1.78 17.707 17.707 0 01-8.305-10.821 17.707 17.707 0 011.779-13.525 17.707 17.707 0 0110.822-8.306 17.707 17.707 0 0113.525 1.78 17.707 17.707 0 018.305 10.822c1.233 4.598.6 9.401-1.78 13.525a17.707 17.707 0 01-10.821 8.305z"/><path class="n" d="M20.95 176.895a16.21 16.21 0 00-9.906 7.604 16.21 16.21 0 00-1.63 12.382 16.21 16.21 0 007.604 9.907 16.21 16.21 0 0012.382 1.629 16.21 16.21 0 009.907-7.603 16.21 16.21 0 001.629-12.382 16.21 16.21 0 00-7.603-9.908 16.21 16.21 0 00-12.382-1.629m-.78-2.91c10.311-2.763 20.911 3.355 23.675 13.667 2.764 10.311-3.355 20.911-13.666 23.675-10.312 2.764-20.912-3.355-23.675-13.666-2.764-10.312 3.354-20.912 13.666-23.676z"/></g></g><circle cx="9" cy="9" r="9" transform="translate(660 426)" opacity=".2" fill="#fff"/></g><text transform="translate(175.205 183.986)" fill="#266402" font-size="46" font-family="SegoeUI-Bold,Segoe UI" font-weight="700"><tspan x="0" y="0">$0</tspan></text><text class="g" transform="translate(120.228 134)"><tspan x="0" y="0">AVAILABLE BUYER POWER</tspan></text><text class="g" transform="translate(115.228 224)"><tspan x="0" y="0">YOU CAN BID ON 1 VEHICLE</tspan></text><path class="h" d="M149.841 244.501a1.865 1.865 0 00-1.769-1.261H134.34a1.877 1.877 0 00-1.768 1.261l-2.6 7.475v9.985a1.252 1.252 0 001.248 1.248h1.252a1.252 1.252 0 001.248-1.248v-1.248h14.973v1.248a1.252 1.252 0 001.248 1.248h1.248a1.252 1.252 0 001.248-1.248v-9.985zm-15.501 12.468a1.872 1.872 0 111.872-1.872 1.87 1.87 0 01-1.872 1.872zm13.729 0a1.872 1.872 0 111.872-1.872 1.87 1.87 0 01-1.869 1.872zm-15.597-6.241l1.868-5.616h13.732l1.872 5.616z"/><path class="i" d="M126.228 237h29.953v29.954h-29.953z"/><g class="j"><path d="M179.794 244.501a1.865 1.865 0 00-1.769-1.261h-13.732a1.877 1.877 0 00-1.768 1.261l-2.6 7.475v9.985a1.252 1.252 0 001.248 1.248h1.252a1.252 1.252 0 001.248-1.248v-1.248h14.973v1.248a1.252 1.252 0 001.248 1.248h1.248a1.252 1.252 0 001.248-1.248v-9.985zm-15.501 12.468a1.872 1.872 0 111.872-1.872 1.87 1.87 0 01-1.872 1.872zm13.729 0a1.872 1.872 0 111.872-1.872 1.87 1.87 0 01-1.869 1.872zm-15.597-6.241l1.868-5.616h13.732l1.872 5.616z"/><path class="i" d="M156.181 237h29.953v29.954h-29.953z"/></g><g class="j"><path d="M209.748 244.501a1.865 1.865 0 00-1.769-1.261h-13.732a1.877 1.877 0 00-1.768 1.261l-2.6 7.475v9.985a1.252 1.252 0 001.248 1.248h1.252a1.252 1.252 0 001.248-1.248v-1.248H208.6v1.248a1.252 1.252 0 001.248 1.248h1.248a1.252 1.252 0 001.248-1.248v-9.985zm-15.501 12.468a1.872 1.872 0 111.872-1.872 1.87 1.87 0 01-1.872 1.872zm13.729 0a1.872 1.872 0 111.872-1.872 1.87 1.87 0 01-1.869 1.872zm-15.597-6.241l1.868-5.616h13.732l1.872 5.616z"/><path class="i" d="M186.135 237h29.953v29.954h-29.953z"/></g><g class="j"><path d="M239.701 244.501a1.865 1.865 0 00-1.769-1.261H224.2a1.877 1.877 0 00-1.768 1.261l-2.6 7.475v9.985a1.252 1.252 0 001.248 1.248h1.252a1.252 1.252 0 001.248-1.248v-1.248h14.973v1.248a1.252 1.252 0 001.248 1.248h1.248a1.252 1.252 0 001.248-1.248v-9.985zM224.2 256.969a1.872 1.872 0 111.872-1.872 1.87 1.87 0 01-1.872 1.872zm13.729 0a1.872 1.872 0 111.872-1.872 1.87 1.87 0 01-1.869 1.872zm-15.597-6.241l1.868-5.616h13.732l1.872 5.616z"/><path class="i" d="M216.088 237h29.953v29.954h-29.953z"/></g><g class="j"><path d="M269.654 244.501a1.865 1.865 0 00-1.769-1.261h-13.732a1.877 1.877 0 00-1.768 1.261l-2.6 7.475v9.985a1.252 1.252 0 001.248 1.248h1.252a1.252 1.252 0 001.248-1.248v-1.248h14.973v1.248a1.252 1.252 0 001.248 1.248h1.248a1.252 1.252 0 001.248-1.248v-9.985zm-15.501 12.468a1.872 1.872 0 111.872-1.872 1.87 1.87 0 01-1.872 1.872zm13.729 0a1.872 1.872 0 111.872-1.872 1.87 1.87 0 01-1.869 1.872zm-15.597-6.241l1.868-5.616h13.732l1.872 5.616z"/><path class="i" d="M246.041 237h29.953v29.954h-29.953z"/></g><g class="j"><path d="M149.841 278.199a1.865 1.865 0 00-1.769-1.261H134.34a1.877 1.877 0 00-1.768 1.261l-2.6 7.475v9.985a1.252 1.252 0 001.248 1.248h1.252a1.252 1.252 0 001.248-1.248v-1.248h14.973v1.248a1.252 1.252 0 001.248 1.248h1.248a1.252 1.252 0 001.248-1.248v-9.985zm-15.501 12.468a1.872 1.872 0 111.872-1.872 1.87 1.87 0 01-1.872 1.872zm13.729 0a1.872 1.872 0 111.872-1.872 1.87 1.87 0 01-1.869 1.872zm-15.597-6.241l1.868-5.616h13.732l1.872 5.616z"/><path class="i" d="M126.228 270.698h29.953v29.954h-29.953z"/></g><g class="j"><path d="M179.794 278.199a1.865 1.865 0 00-1.769-1.261h-13.732a1.877 1.877 0 00-1.768 1.261l-2.6 7.475v9.985a1.252 1.252 0 001.248 1.248h1.252a1.252 1.252 0 001.248-1.248v-1.248h14.973v1.248a1.252 1.252 0 001.248 1.248h1.248a1.252 1.252 0 001.248-1.248v-9.985zm-15.501 12.468a1.872 1.872 0 111.872-1.872 1.87 1.87 0 01-1.872 1.872zm13.729 0a1.872 1.872 0 111.872-1.872 1.87 1.87 0 01-1.869 1.872zm-15.597-6.241l1.868-5.616h13.732l1.872 5.616z"/><path class="i" d="M156.181 270.698h29.953v29.954h-29.953z"/></g><g class="j"><path d="M209.748 278.199a1.865 1.865 0 00-1.769-1.261h-13.732a1.877 1.877 0 00-1.768 1.261l-2.6 7.475v9.985a1.252 1.252 0 001.248 1.248h1.252a1.252 1.252 0 001.248-1.248v-1.248H208.6v1.248a1.252 1.252 0 001.248 1.248h1.248a1.252 1.252 0 001.248-1.248v-9.985zm-15.501 12.468a1.872 1.872 0 111.872-1.872 1.87 1.87 0 01-1.872 1.872zm13.729 0a1.872 1.872 0 111.872-1.872 1.87 1.87 0 01-1.869 1.872zm-15.597-6.241l1.868-5.616h13.732l1.872 5.616z"/><path class="i" d="M186.135 270.698h29.953v29.954h-29.953z"/></g><g class="j"><path d="M239.701 278.199a1.865 1.865 0 00-1.769-1.261H224.2a1.877 1.877 0 00-1.768 1.261l-2.6 7.475v9.985a1.252 1.252 0 001.248 1.248h1.252a1.252 1.252 0 001.248-1.248v-1.248h14.973v1.248a1.252 1.252 0 001.248 1.248h1.248a1.252 1.252 0 001.248-1.248v-9.985zM224.2 290.667a1.872 1.872 0 111.872-1.872 1.87 1.87 0 01-1.872 1.872zm13.729 0a1.872 1.872 0 111.872-1.872 1.87 1.87 0 01-1.869 1.872zm-15.597-6.241l1.868-5.616h13.732l1.872 5.616z"/><path class="i" d="M216.088 270.698h29.953v29.954h-29.953z"/></g><g class="j"><path d="M269.654 278.199a1.865 1.865 0 00-1.769-1.261h-13.732a1.877 1.877 0 00-1.768 1.261l-2.6 7.475v9.985a1.252 1.252 0 001.248 1.248h1.252a1.252 1.252 0 001.248-1.248v-1.248h14.973v1.248a1.252 1.252 0 001.248 1.248h1.248a1.252 1.252 0 001.248-1.248v-9.985zm-15.501 12.468a1.872 1.872 0 111.872-1.872 1.87 1.87 0 01-1.872 1.872zm13.729 0a1.872 1.872 0 111.872-1.872 1.87 1.87 0 01-1.869 1.872zm-15.597-6.241l1.868-5.616h13.732l1.872 5.616z"/><path class="i" d="M246.041 270.698h29.953v29.954h-29.953z"/></g><g transform="translate(-582.772 -789)"><rect class="h" width="98.533" height="30" rx="15" transform="translate(738 853)"/><text transform="translate(820.294 875)" font-size="20" font-family="SegoeUI,Segoe UI" fill="#fff"><tspan x="-71.924" y="0">+$4,000</tspan></text></g></svg>