<svg width="12" height="12" viewBox="0 0 12 12" fill="none" xmlns="http://www.w3.org/2000/svg">
<path d="M10.7335 0.297731L3.63499 8.22083L1.70444 5.84438C1.53128 5.65962 1.30169 5.54934 1.05866 5.53417C0.815625 5.51901 0.575803 5.60001 0.384086 5.762C0.192368 5.924 0.0618985 6.15589 0.0170978 6.41426C-0.0277028 6.67264 0.0162373 6.93979 0.140693 7.1657L2.42617 11.391C2.53509 11.5775 2.68599 11.7312 2.86478 11.8377C3.04357 11.9441 3.24443 12 3.44862 12C3.6528 12 3.85366 11.9441 4.03245 11.8377C4.21124 11.7312 4.36214 11.5775 4.47106 11.391C4.83193 10.8635 11.6898 1.48756 11.6898 1.48756C12.5378 0.429221 11.4552 -0.494419 10.7335 0.297731Z" fill="#226900"/>
</svg>
