<svg width="64" height="64" fill="none" xmlns="http://www.w3.org/2000/svg"><circle cx="32" cy="32" r="32" fill="#F1F1F8"/><mask id="a" fill="#fff"><path fill-rule="evenodd" clip-rule="evenodd" d="M19.947 40a1 1 0 00-1 1v3H16a1 1 0 00-1 1v4h30v-4a1 1 0 00-1-1h-2.947v-3a1 1 0 00-1-1H19.947z"/></mask><path fill-rule="evenodd" clip-rule="evenodd" d="M19.947 40a1 1 0 00-1 1v3H16a1 1 0 00-1 1v4h30v-4a1 1 0 00-1-1h-2.947v-3a1 1 0 00-1-1H19.947z" fill="url(#paint0_linear)"/><path d="M18.947 44v1h1v-1h-1zM15 49h-1v1h1v-1zm30 0v1h1v-1h-1zm-3.947-5h-1v1h1v-1zm-21.106-3v-2a2 2 0 00-2 2h2zm0 3v-3h-2v3h2zM16 45h2.947v-2H16v2zm0 0v-2a2 2 0 00-2 2h2zm0 4v-4h-2v4h2zm29-1H15v2h30v-2zm-1-3v4h2v-4h-2zm0 0h2a2 2 0 00-2-2v2zm-2.947 0H44v-2h-2.947v2zm-1-4v3h2v-3h-2zm0 0h2a2 2 0 00-2-2v2zm-20.106 0h20.106v-2H19.947v2z" fill="#FFB800" mask="url(#a)"/><mask id="b" fill="#fff"><path d="M49.782 37.888l-1.894 1.894a.704.704 0 01-1.02 0L36.454 29.368l-5.316 5.316a.704.704 0 01-1.02 0l-6.263-6.263a.704.704 0 010-1.02L37.4 13.855a.704.704 0 011.02 0l6.263 6.263a.704.704 0 010 1.02l-5.317 5.316L49.782 36.87a.704.704 0 010 1.02z"/></mask><path d="M49.782 37.888l-1.894 1.894a.704.704 0 01-1.02 0L36.454 29.368l-5.316 5.316a.704.704 0 01-1.02 0l-6.263-6.263a.704.704 0 010-1.02L37.4 13.855a.704.704 0 011.02 0l6.263 6.263a.704.704 0 010 1.02l-5.317 5.316L49.782 36.87a.704.704 0 010 1.02z" fill="url(#paint1_linear)"/><path d="M49.782 37.888l-.708-.707.708.707zm-1.894 1.894l.707.707-.707-.707zm-1.02 0l-.707.707.707-.707zM36.454 29.368l-.707-.708.707-.707.707.707-.707.707zm-5.316 5.316l-.708-.707.708.707zm-1.02 0l.707-.707-.707.707zm-6.263-6.263l-.707.707.707-.707zm0-1.02l-.707-.707.707.707zM37.4 13.855l.707.707-.707-.707zm1.02 0l-.708.707.707-.707zm6.263 6.263l.707-.707-.707.707zm0 1.02l.707.707-.707-.707zm-5.317 5.316l-.707.707-.707-.707.707-.707.707.707zM49.782 36.87l.707-.707-.707.707zm.707 1.727l-1.894 1.893-1.414-1.414 1.893-1.894 1.415 1.415zm-1.894 1.893a1.704 1.704 0 01-2.434 0l1.414-1.414a.283.283 0 00-.197-.075.283.283 0 00-.197.075l1.414 1.414zm-2.434 0L35.747 30.075l1.414-1.415 10.414 10.415-1.414 1.414zm-9-10.414l-5.316 5.316-1.415-1.414 5.317-5.317 1.414 1.415zm-5.316 5.316a1.703 1.703 0 01-2.434 0l1.414-1.414a.283.283 0 00-.197-.075.283.283 0 00-.198.075l1.415 1.414zm-2.434 0l-6.263-6.263 1.414-1.414 6.263 6.263-1.414 1.414zm-6.263-6.263a1.704 1.704 0 010-2.434l1.414 1.414a.284.284 0 00.074-.197.284.284 0 00-.074-.197l-1.414 1.414zm0-2.434l13.546-13.546 1.414 1.414-13.546 13.546-1.414-1.414zm13.546-13.546a1.704 1.704 0 012.433 0l-1.414 1.414a.283.283 0 00.198.075.283.283 0 00.197-.075l-1.414-1.414zm2.433 0l6.264 6.263-1.414 1.415-6.264-6.264 1.414-1.414zm6.264 6.263a1.704 1.704 0 010 2.434l-1.414-1.414a.283.283 0 00-.075.197c0 .092.039.162.075.198l1.414-1.415zm0 2.434l-5.317 5.317-1.414-1.415 5.317-5.316 1.414 1.414zm-5.317 3.902L50.49 36.162l-1.415 1.414L38.66 27.16l1.414-1.414zM50.49 36.162a1.703 1.703 0 010 2.434l-1.415-1.415a.283.283 0 00-.074.198c0 .091.038.161.074.197l1.415-1.414z" fill="#FFB800" mask="url(#b)"/><path d="M36.9 13.327a.359.359 0 010-.508l.521-.52.522-.522a.1.1 0 01.14 0l8.31 8.31a.5.5 0 010 .706l-.66.66a.5.5 0 01-.707 0L36.9 13.327z" fill="#C4C4C4"/><path d="M36.9 13.327a.359.359 0 010-.508l.521-.52.522-.522a.1.1 0 01.14 0l8.31 8.31a.5.5 0 010 .706l-.66.66a.5.5 0 01-.707 0L36.9 13.327z" fill="url(#paint2_linear)"/><path d="M36.9 13.327a.359.359 0 010-.508l.521-.52.522-.522a.1.1 0 01.14 0l8.31 8.31a.5.5 0 010 .706l-.66.66a.5.5 0 01-.707 0L36.9 13.327z" stroke="#000"/><path d="M36.9 13.327a.359.359 0 010-.508l.521-.52.522-.522a.1.1 0 01.14 0l8.31 8.31a.5.5 0 010 .706l-.66.66a.5.5 0 01-.707 0L36.9 13.327z" stroke="#FFB800"/><path d="M21.96 28.266a.359.359 0 010-.507l.522-.521.521-.521a.1.1 0 01.141 0l8.309 8.309a.5.5 0 010 .707l-.66.66a.5.5 0 01-.706 0l-8.126-8.127z" fill="#C4C4C4"/><path d="M21.96 28.266a.359.359 0 010-.507l.522-.521.521-.521a.1.1 0 01.141 0l8.309 8.309a.5.5 0 010 .707l-.66.66a.5.5 0 01-.706 0l-8.126-8.127z" fill="url(#paint3_linear)"/><path d="M21.96 28.266a.359.359 0 010-.507l.522-.521.521-.521a.1.1 0 01.141 0l8.309 8.309a.5.5 0 010 .707l-.66.66a.5.5 0 01-.706 0l-8.126-8.127z" stroke="#000"/><path d="M21.96 28.266a.359.359 0 010-.507l.522-.521.521-.521a.1.1 0 01.141 0l8.309 8.309a.5.5 0 010 .707l-.66.66a.5.5 0 01-.706 0l-8.126-8.127z" stroke="#FFB800"/><defs><linearGradient id="paint0_linear" x1="30" y1="44" x2="30" y2="49" gradientUnits="userSpaceOnUse"><stop stop-color="#FCD04E"/><stop offset="1" stop-color="#FFE146"/></linearGradient><linearGradient id="paint1_linear" x1="36.818" y1="13.637" x2="36.818" y2="40" gradientUnits="userSpaceOnUse"><stop stop-color="#FCD04E"/><stop offset="1" stop-color="#FFE146"/></linearGradient><linearGradient id="paint2_linear" x1="36.976" y1="12.036" x2="46.416" y2="21.477" gradientUnits="userSpaceOnUse"><stop stop-color="#FCD04E"/><stop offset="1" stop-color="#FFE146"/></linearGradient><linearGradient id="paint3_linear" x1="22.037" y1="26.976" x2="31.477" y2="36.416" gradientUnits="userSpaceOnUse"><stop stop-color="#FCD04E"/><stop offset="1" stop-color="#FFE146"/></linearGradient></defs></svg>