<svg width="64" height="64" fill="none" xmlns="http://www.w3.org/2000/svg"><circle cx="32" cy="32" r="32" fill="#F1F1F8"/><path d="M32 48.185h-.5v.077H17.262v-7.316c.039-1.12.166-2.006.544-2.78.374-.767 1.02-1.475 2.19-2.183h0l.005-.002c1.59-.982 3.293-1.892 4.601-2.556a79.98 79.98 0 011.703-.84l2.72 8.242.448 1.358.496-1.342 1.706-4.618.093-.252-.159-.217c-.714-.974-1.017-1.666-1.104-2.141-.083-.45.03-.687.16-.83.151-.168.397-.284.682-.354.278-.067.537-.078.653-.078.123 0 .39.012.672.083.29.072.54.191.692.361.13.146.24.382.154.83-.091.472-.4 1.16-1.125 2.125l-.163.218.095.256 1.706 4.58.497 1.335.447-1.352 2.719-8.24.1.047c.387.188.937.458 1.588.79a71.827 71.827 0 014.62 2.558v.001c1.171.708 1.817 1.416 2.191 2.182.379.775.506 1.66.545 2.78v7.279H32z" fill="#FFB800" stroke="#F5A200"/><path d="M24.937 17.788h0l.001-.015.001-.015c.17-3.39 1.713-5.006 3.235-5.803 1.563-.819 3.166-.8 3.416-.784l.032.002.032-.002c.25-.016 1.853-.035 3.417.784 1.522.796 3.065 2.413 3.234 5.803l.001.015.002.015h0v.005l.002.02.008.083c.006.074.015.184.022.325.016.282.03.687.02 1.175-.017.978-.127 2.273-.484 3.562-.357 1.291-.955 2.545-1.929 3.48-.962.924-2.325 1.57-4.289 1.597h-.073c-1.964-.018-3.326-.659-4.288-1.58-.974-.934-1.571-2.189-1.929-3.483-.357-1.291-.466-2.59-.484-3.57a16.09 16.09 0 01.043-1.506l.007-.083.002-.02v-.004h0z" fill="#FDD34D" stroke="#FFB800"/></svg>