<svg width="64" height="64" fill="none" xmlns="http://www.w3.org/2000/svg"><circle cx="32" cy="32" r="32" fill="#F1F1F8"/><circle opacity=".2" cx="32" cy="37" r="17" fill="url(#paint0_linear)"/><circle opacity=".4" cx="32" cy="34" r="17" fill="url(#paint1_linear)"/><circle opacity=".88" cx="32" cy="31" r="17" fill="url(#paint2_linear)"/><circle cx="32" cy="28" r="16.5" fill="url(#paint3_linear)" stroke="#FFB800"/><g filter="url(#filter0_dd)"><path d="M33.943 30.634c0-.48-.134-.861-.404-1.143-.264-.287-.715-.55-1.354-.79a16.839 16.839 0 01-1.652-.713 5.567 5.567 0 01-1.195-.817 3.42 3.42 0 01-.774-1.09c-.181-.416-.272-.911-.272-1.485 0-.99.316-1.802.95-2.435.632-.633 1.473-1.002 2.522-1.107v-1.881h1.406v1.907c1.037.147 1.849.58 2.434 1.3.586.716.88 1.644.88 2.787h-2.54c0-.703-.147-1.228-.44-1.573-.287-.352-.674-.528-1.16-.528-.48 0-.853.138-1.117.414-.263.269-.395.644-.395 1.125 0 .445.129.802.387 1.072s.735.545 1.432.826c.703.281 1.28.548 1.732.8a4.82 4.82 0 011.142.843c.31.311.548.668.712 1.073.164.398.246.864.246 1.397 0 .996-.31 1.805-.931 2.426-.621.621-1.477.987-2.567 1.099v1.749h-1.397v-1.74c-1.201-.13-2.133-.554-2.795-1.275-.656-.727-.984-1.69-.984-2.892h2.54c0 .698.164 1.234.492 1.609.334.369.811.553 1.432.553.516 0 .923-.134 1.222-.404.299-.275.448-.644.448-1.107z" fill="#fff"/></g><defs><linearGradient id="paint0_linear" x1="32" y1="20" x2="32" y2="54" gradientUnits="userSpaceOnUse"><stop stop-color="#DD8F30"/><stop offset="1" stop-color="#FFE146"/></linearGradient><linearGradient id="paint1_linear" x1="32" y1="17" x2="32" y2="51" gradientUnits="userSpaceOnUse"><stop stop-color="#DD8F30"/><stop offset="1" stop-color="#FFE146"/></linearGradient><linearGradient id="paint2_linear" x1="32" y1="14" x2="32" y2="48" gradientUnits="userSpaceOnUse"><stop stop-color="#DD8F30"/><stop offset="1" stop-color="#FFE146"/></linearGradient><linearGradient id="paint3_linear" x1="32" y1="11" x2="32" y2="45" gradientUnits="userSpaceOnUse"><stop stop-color="#FCD04E"/><stop offset="1" stop-color="#FFE146"/></linearGradient><filter id="filter0_dd" x="26.809" y="19.173" width="10.675" height="18.717" filterUnits="userSpaceOnUse" color-interpolation-filters="sRGB"><feFlood flood-opacity="0" result="BackgroundImageFix"/><feColorMatrix in="SourceAlpha" values="0 0 0 0 0 0 0 0 0 0 0 0 0 0 0 0 0 0 127 0"/><feOffset dy="1"/><feGaussianBlur stdDeviation=".5"/><feColorMatrix values="0 0 0 0 0.909804 0 0 0 0 0.780392 0 0 0 0 0.223529 0 0 0 0.25 0"/><feBlend in2="BackgroundImageFix" result="effect1_dropShadow"/><feColorMatrix in="SourceAlpha" values="0 0 0 0 0 0 0 0 0 0 0 0 0 0 0 0 0 0 127 0"/><feOffset dy="1"/><feGaussianBlur stdDeviation=".5"/><feColorMatrix values="0 0 0 0 1 0 0 0 0 0.6 0 0 0 0 0 0 0 0 0.45 0"/><feBlend in2="effect1_dropShadow" result="effect2_dropShadow"/><feBlend in="SourceGraphic" in2="effect2_dropShadow" result="shape"/></filter></defs></svg>