<svg width="30" height="28" fill="none" xmlns="http://www.w3.org/2000/svg"><path d="M27.391 6.522h-4.134l-2.388-2.609h-7.826v2.609h6.679l2.387 2.609h5.282v15.652H6.521v-11.74H3.914v11.74a2.616 2.616 0 002.609 2.609h20.87A2.616 2.616 0 0030 24.782V9.132a2.616 2.616 0 00-2.609-2.61z" fill="#2158F5"/><path d="M17 22c-2.76 0-5-2.24-5-5s2.24-5 5-5 5 2.24 5 5-2.24 5-5 5z" stroke="#7CB9FF" stroke-width="2"/><path d="M6.522 6.522h3.913V3.913H6.522V0H3.913v3.913H0v2.609h3.913v3.913h2.609V6.522z" fill="#2158F5"/></svg>