<svg width="137" height="137" fill="none" xmlns="http://www.w3.org/2000/svg"><g filter="url(#filter0_d)"><rect x="2" y="6" width="128" height="128" rx="64" fill="#F1F1F8"/></g><g opacity=".85" filter="url(#filter1_d)"><circle cx="117" cy="19" r="18" fill="#0D66CC"/></g><path d="M118.898 12.547V24h-2.46v-8.672c-.136.12-.297.235-.485.344a5.49 5.49 0 01-.586.289 6.261 6.261 0 01-.648.219 5.154 5.154 0 01-.664.125v-2.078c.64-.188 1.244-.428 1.812-.72a10.29 10.29 0 001.539-.96h1.492zM49.446 51h31.106c.384 0 .752.151 1.023.42.272.269.424.633.424 1.013L82 83c-5.508 5.457-5 5-11 11H49.446c-.384 0-.752-.151-1.023-.42a1.427 1.427 0 01-.424-1.013V52.433c0-.38.153-.744.424-1.013.271-.269.64-.42 1.023-.42z" fill="#fff"/><path d="M69.053 68.321l4.566 4.566 22.32-22.321L91.375 46l-22.32 22.321zm-2.782 7.324l1.768-6.31 4.565 4.566-6.333 1.744z" fill="#F06B00"/><path d="M73.112 68.321l.507.507 18.263-18.262-.508-.508-18.262 18.263z" fill="#fff"/><path d="M71 85a2 2 0 012-2h9L71 94v-9z" fill="#B7B7B7"/><path fill="#C4C4C4" d="M52 57h22v2H52zm0 4h13v2H52zm0 4h7v2h-7z"/><defs><filter id="filter0_d" x="0" y="5" width="132" height="132" filterUnits="userSpaceOnUse" color-interpolation-filters="sRGB"><feFlood flood-opacity="0" result="BackgroundImageFix"/><feColorMatrix in="SourceAlpha" values="0 0 0 0 0 0 0 0 0 0 0 0 0 0 0 0 0 0 127 0"/><feOffset dy="1"/><feGaussianBlur stdDeviation="1"/><feColorMatrix values="0 0 0 0 0 0 0 0 0 0 0 0 0 0 0 0 0 0 0.25 0"/><feBlend in2="BackgroundImageFix" result="effect1_dropShadow"/><feBlend in="SourceGraphic" in2="effect1_dropShadow" result="shape"/></filter><filter id="filter1_d" x="97" y="0" width="40" height="40" filterUnits="userSpaceOnUse" color-interpolation-filters="sRGB"><feFlood flood-opacity="0" result="BackgroundImageFix"/><feColorMatrix in="SourceAlpha" values="0 0 0 0 0 0 0 0 0 0 0 0 0 0 0 0 0 0 127 0"/><feOffset dy="1"/><feGaussianBlur stdDeviation="1"/><feColorMatrix values="0 0 0 0 0 0 0 0 0 0 0 0 0 0 0 0 0 0 0.15 0"/><feBlend in2="BackgroundImageFix" result="effect1_dropShadow"/><feBlend in="SourceGraphic" in2="effect1_dropShadow" result="shape"/></filter></defs></svg>