<svg width="137" height="137" fill="none" xmlns="http://www.w3.org/2000/svg"><g filter="url(#filter0_d)"><rect x="2" y="6" width="128" height="128" rx="64" fill="#F1F1F8"/></g><g opacity=".85" filter="url(#filter1_d)"><circle cx="117" cy="19" r="18" fill="#0D66CC"/></g><path d="M113.312 23.633v-2.149c.75.547 1.626.82 2.626.82.63 0 1.119-.135 1.468-.406.354-.27.532-.648.532-1.132 0-.5-.219-.886-.657-1.157-.432-.27-1.028-.406-1.789-.406h-1.039v-1.89h.961c1.458 0 2.188-.485 2.188-1.454 0-.911-.56-1.367-1.68-1.367-.75 0-1.479.242-2.188.727v-2.016c.787-.396 1.704-.594 2.75-.594 1.146 0 2.037.258 2.672.774.641.515.961 1.185.961 2.008 0 1.463-.742 2.38-2.226 2.75v.039c.791.099 1.416.388 1.875.867.458.474.687 1.057.687 1.75 0 1.047-.383 1.875-1.148 2.484-.766.61-1.823.914-3.172.914-1.156 0-2.097-.187-2.821-.562z" fill="#fff"/><path d="M28 73.721s.11 2.9 1.56 3.871a14.636 14.636 0 005.653 2.293c1.026.24 2.096.24 3.123 0 0 0 .568 3.132 5.332 3.111 4.764-.021 6.093-3.11 6.093-3.11h1.585l.669.782h1.105l.6-.783h35.39s1.184 2.975 6.293 3.111c5.109.137 5.603-3.487 5.603-3.487h.875s.116 1.39.546 1.158c.43-.232.508-.837 1.524-1.158 1.016-.321 4.944-.832 5.049-2.337a1.935 1.935 0 00-1.817.42h-3.232l-.953-6.363-5.674-2.826H89.11l-9.61 4.395-21.074 1.232h-4.98l-4.031-4.434L44.962 68h-5.739l-4.012 3.23-.747 4.032-3.852-.394L28 73.72z" fill="#000"/><path d="M28.134 62.87c-.728-.14 2.078-.313 5.424-2.157 3.346-1.845 13.768-5.423 21.81-5.624 8.04-.2 10.555 0 10.555 0s8.477-.068 23.482 8.277c6.161.597 18.533 3.888 20.022 5.845.239.5.324 1.06.243 1.61a15.972 15.972 0 01-.567 2.037.688.688 0 00.324 1.05c.235.147.414.37.505.634.091.263.091.55-.002.813a174.92 174.92 0 00-.824 2.171 1.33 1.33 0 01-.915.468c-.556.013-4.033 0-4.033 0s.517-8.903-8.5-9.299c-8.198-.366-8.823 9.3-8.823 9.3l-34.418-.611s-.132-8.689-8.325-8.689c-8.194 0-8.972 7.662-8.972 7.662l-5.677-.52a1.299 1.299 0 01-.831-.854 3.027 3.027 0 00-.478-1 5.436 5.436 0 010-2.401 22.48 22.48 0 00.478-4.1h.546v-3.168h-.546s.25-1.299-.478-1.444z" fill="#BFBFBF"/><path d="M38.69 59.91s6.999-3.62 17.89-3.821c10.891-.2 9.837 0 9.837 0s9.39-.121 20.333 8.274c.474.363.294.665-.72.635-1.015-.03-36.07-1.94-36.07-1.94s-9.72-.58-11.27-1.588c-1.552-1.008 0-1.56 0-1.56z" fill="#fff"/><path d="M61 56.044l.378.659s.672 6.294.403 7.445C61.512 65.3 67 64.95 67 64.95l-1.043-.802-1.574-5.566s-.393-2.44.931-2.538c1.324-.098-4.314 0-4.314 0z" fill="#BFBFBF"/><path d="M43.5 81a4.5 4.5 0 100-9 4.5 4.5 0 000 9z" stroke="#BFBFBF" stroke-width="2"/><path d="M40.006 74.089c-.54.379-.822.457-.967 1.902-.081.368-.035.747.134 1.097.17.35.457.66.833.898.164.025.335.016.493-.027a.963.963 0 00.404-.219c.296-.34-.184-.736-.152-1.442a5.546 5.546 0 01.152-1.576c.107-.051-.358-1.013-.897-.633z" fill="#fff"/><path d="M42 72.197L42.838 77h.872L45 72l-3 .197z" fill="#BFBFBF"/><path d="M46.135 72.59l-2.893 4.19.302.2 3.76-3.864-1.169-.525z" fill="#BFBFBF"/><path d="M39.734 73.075l3.47 3.805.302-.2-2.865-4.456-.907.851z" fill="#BFBFBF"/><path d="M38.213 75.78l5.301 1.049.103-.328-5.263-1.901-.141 1.18z" fill="#BFBFBF"/><path d="M48.363 74.897l-5.136 1.595.097.33 5.585-.846-.546-1.079zM44 81.804L43.442 77h-.581L42 81.5l2 .304z" fill="#BFBFBF"/><path d="M40.774 80.87l2.893-4.19-.302-.2-3.759 3.864 1.168.526z" fill="#BFBFBF"/><path d="M47.176 80.385l-3.471-3.805-.302.2 2.865 4.457.908-.852z" fill="#BFBFBF"/><path d="M48.697 77.68l-5.302-1.048-.103.327 5.264 1.902.14-1.181z" fill="#BFBFBF"/><path d="M38.546 78.563l5.136-1.595-.096-.329L38.5 77l.046 1.563z" fill="#BFBFBF"/><path d="M95.5 81a4.5 4.5 0 100-9 4.5 4.5 0 000 9z" stroke="#BFBFBF" stroke-width="2"/><path d="M92.503 74.089c-.27.379-.41.457-.483 1.902-.041.368-.018.747.067 1.097s.228.66.416.898a.311.311 0 00.246-.027.526.526 0 00.203-.219c.148-.34-.093-.736-.077-1.442-.012-.528.013-1.056.077-1.576.053-.051-.18-1.013-.45-.633z" fill="#fff"/><path d="M95 72.197L95.28 77h.29l.43-5-1 .197z" fill="#BFBFBF"/><path d="M97.76 72.591l-2.641 4.19.275.2 3.431-3.865-1.066-.525z" fill="#BFBFBF"/><path d="M91.916 73.075l3.168 3.806.276-.2-2.616-4.457-.828.851z" fill="#BFBFBF"/><path d="M90.528 75.78l4.839 1.049.094-.328-4.805-1.901-.129 1.18z" fill="#BFBFBF"/><path d="M99.793 74.897l-4.688 1.595.088.33 5.098-.846-.498-1.079zM96 81.804L95.721 77h-.29L95 82l1-.196z" fill="#BFBFBF"/><path d="M92.865 80.87l2.641-4.19-.275-.2-3.431 3.864 1.065.526z" fill="#BFBFBF"/><path d="M98.709 80.385l-3.168-3.805-.276.2 2.615 4.457.829-.852z" fill="#BFBFBF"/><path d="M100.097 77.68l-4.84-1.048-.093.327 4.805 1.902.128-1.181z" fill="#BFBFBF"/><path d="M90.833 78.563l4.688-1.595-.088-.329-5.099.846.499 1.078z" fill="#BFBFBF"/><path d="M28.49 64.011c.467.05.938.05 1.405 0l3.516 1.814s1.326.716 0 .977c-1.164.165-2.34.227-3.516.185H28.49s-.517-.332-.489-.745c.028-.413 0-1.758 0-1.758s.176-.57.489-.473zm32.584.993c.352.059 6.382.29 6.382.29s.963.629.326.698c-.637.07-6.051-.337-6.051-.337s-1.008-.71-.657-.651zM100 67h3.751a9.267 9.267 0 013.878 1.516c.355.235.391.266.364.738a1.099 1.099 0 01-.364.746h-4.212L100 67zm6.006 6.247c.061.296.659 3.624.659 3.624s.324.416.332-.246c.007-.663 0-3.273 0-3.273s-.022-.325-.332-.34c-.311-.016-.72-.06-.659.235z" fill="#fff"/><path d="M86.853 76.004h9.266a1.76 1.76 0 011.256.413c.347.296.562.714.598 1.164L98 95.713c-.016.023.046.634-.7 0l-5.73-4.803s-5.14 4.225-5.82 4.803c-.679.577-.75 0-.75 0V77.58c.036-.45.25-.868.597-1.164a1.76 1.76 0 011.256-.413z" fill="#B95200"/><path d="M91.5 87c6.904 0 12.5-5.373 12.5-12s-5.596-12-12.5-12S79 68.373 79 75s5.596 12 12.5 12z" fill="#F06B00"/><defs><filter id="filter0_d" x="0" y="5" width="132" height="132" filterUnits="userSpaceOnUse" color-interpolation-filters="sRGB"><feFlood flood-opacity="0" result="BackgroundImageFix"/><feColorMatrix in="SourceAlpha" values="0 0 0 0 0 0 0 0 0 0 0 0 0 0 0 0 0 0 127 0"/><feOffset dy="1"/><feGaussianBlur stdDeviation="1"/><feColorMatrix values="0 0 0 0 0 0 0 0 0 0 0 0 0 0 0 0 0 0 0.25 0"/><feBlend in2="BackgroundImageFix" result="effect1_dropShadow"/><feBlend in="SourceGraphic" in2="effect1_dropShadow" result="shape"/></filter><filter id="filter1_d" x="97" y="0" width="40" height="40" filterUnits="userSpaceOnUse" color-interpolation-filters="sRGB"><feFlood flood-opacity="0" result="BackgroundImageFix"/><feColorMatrix in="SourceAlpha" values="0 0 0 0 0 0 0 0 0 0 0 0 0 0 0 0 0 0 127 0"/><feOffset dy="1"/><feGaussianBlur stdDeviation="1"/><feColorMatrix values="0 0 0 0 0 0 0 0 0 0 0 0 0 0 0 0 0 0 0.15 0"/><feBlend in2="BackgroundImageFix" result="effect1_dropShadow"/><feBlend in="SourceGraphic" in2="effect1_dropShadow" result="shape"/></filter></defs></svg>