<svg xmlns="http://www.w3.org/2000/svg" xmlns:xlink="http://www.w3.org/1999/xlink" viewBox="0 0 202.053 43"><defs><linearGradient id="linear-gradient" y1=".5" x2="1" y2=".5" gradientUnits="objectBoundingBox"><stop offset="0" stop-color="#00a651"/><stop offset=".14" stop-color="#00a651"/><stop offset="1" stop-color="#00a651"/></linearGradient><linearGradient id="linear-gradient-2" x1="-.127" y1=".534" x2="1.335" y2=".433" gradientUnits="objectBoundingBox"><stop offset="0" stop-color="#005b30"/><stop offset=".04" stop-color="#006936"/><stop offset=".14" stop-color="#007f40"/><stop offset=".25" stop-color="#009148"/><stop offset=".38" stop-color="#009d4d"/><stop offset=".56" stop-color="#00a450"/><stop offset="1" stop-color="#00a651"/></linearGradient><linearGradient id="linear-gradient-3" x1="-.141" y1=".534" x2="1.339" y2=".433" xlink:href="#linear-gradient-2"/><linearGradient id="linear-gradient-4" x1="80.86" y1="5.831" x2="82.335" y2="5.73" gradientUnits="objectBoundingBox"><stop offset="0" stop-color="#00a24f"/><stop offset="1" stop-color="#821e1e"/></linearGradient><style>.cls-1{fill:#fff;opacity:.7}.cls-2{fill:#00a651}</style></defs><g id="cv-logo"><path id="CLEAR_" data-name="CLEAR" class="cls-1" d="M83.187 11.55c.277-5.26-2.107-10.012-7.52-11.289A10.089 10.089 0 0073.76 0l3.076 9.535a5.875 5.875 0 010 3.245 8.474 8.474 0 01-2.707 5.444l1.8 5.536a16.333 16.333 0 007.243-11.46z" transform="translate(39.679)"/><path id="Path_23218" data-name="Path 23218" class="cls-2" d="M92.026 0l6.444 42.954h-9.812L82.23 0z" transform="translate(44.235)"/><path id="Path_23219" data-name="Path 23219" d="M115.11 0l-7.151 42.954H98.27L105.421 0z" transform="translate(52.863)" fill="url(#linear-gradient)"/><path id="Path_23220" data-name="Path 23220" class="cls-2" d="M123.842 0l6.428 42.954h-9.8L114.03 0z" transform="translate(61.34)"/><path id="Path_23221" data-name="Path 23221" d="M94.311 0h9.75l-6.428 42.954H94.2l-2.984-19.1z" transform="translate(49.071)" fill="url(#linear-gradient-2)"/><path id="Path_23222" data-name="Path 23222" d="M126.083 0h9.735l-6.428 42.954h-3.43l-2.83-19.1z" transform="translate(66.235)" fill="url(#linear-gradient-3)"/><path id="Path_23223" data-name="Path 23223" d="M117.05 42.954h-9.75L113.744 0h3.414l2.876 19.07z" transform="translate(57.72)" fill="url(#linear-gradient-4)"/><path id="Path_23224" data-name="Path 23224" class="cls-1" d="M14.334 0A15.717 15.717 0 003.569 11.95L.278 30.558A10.058 10.058 0 007.69 42.677a9.936 9.936 0 001.938.261L6.552 33.3a5.4 5.4 0 01-.138-2.753l3.245-18.613a7.8 7.8 0 016.505-6.152z" transform="translate(.002)"/><path id="Path_23225" data-name="Path 23225" class="cls-1" d="M20.132 12.3A9.981 9.981 0 0012.689.261 10.089 10.089 0 0010.72 0l3.08 9.474a5.49 5.49 0 01.185 2.83z" transform="translate(5.769)"/><path id="Path_23226" data-name="Path 23226" class="cls-1" d="M12.95 20.28a7.69 7.69 0 01-6.49 6.152l1.815 5.66a15.5 15.5 0 0010.765-11.75h-6.152z" transform="translate(3.477 10.909)"/><path id="Path_23227" data-name="Path 23227" class="cls-1" d="M25.026 36.8h-2.338L29.178.01h-6.151L15.46 42.948h11.565z" transform="translate(8.318 .005)"/><path id="Path_23228" data-name="Path 23228" class="cls-1" d="M31.6 23.93h-8.49l2 6.152h5.413z" transform="translate(12.433 12.872)"/><path id="Path_23229" data-name="Path 23229" class="cls-1" d="M39.117 36.787h-2.353l2.168-12.242h5.413l-2-6.152h-2.336l2.168-12.241h5.413L45.591 0H37.1l-7.58 42.938h11.565z" transform="translate(15.881)"/><path id="Path_23230" data-name="Path 23230" class="cls-1" d="M45.609 23.92H37.12l2 6.152h5.413z" transform="translate(19.97 12.867)"/><path id="Path_23231" data-name="Path 23231" class="cls-1" d="M47.719 11.96H39.23l1.984 6.152h5.413z" transform="translate(21.105 6.433)"/><path id="Path_23232" data-name="Path 23232" class="cls-1" d="M49.819.01H41.33l2 6.152h5.413z" transform="translate(22.234 .005)"/><path id="Path_23233" data-name="Path 23233" class="cls-1" d="M60.169 26.668H55.8l4.014-10.212L59.262 1.8 43.56 41.97h6.275l3.6-9.227h7.013z" transform="translate(23.434 .968)"/><path id="Path_23234" data-name="Path 23234" class="cls-1" d="M61.4 0h-6.27l1.661 42.938h6.275z" transform="translate(29.657)"/><path id="Path_23235" data-name="Path 23235" class="cls-1" d="M78.433 18.388h-6.074L74.5 6.162h5.41L77.926.01h-8.489L61.87 42.948h6.136l3.245-18.393h2.338l5.921 18.393h6.905z" transform="translate(33.283 .005)"/></g></svg>