<svg width="22" height="16" fill="none" xmlns="http://www.w3.org/2000/svg"><path d="M4.81 13.818c0 .234-.075.7-.38.7H1.762c-.254 0-.762-.14-.762-.7V8.564c0-.7.534-1.401 1.143-1.401.127 0 .381-.07.381-.35 0-.351-.38-.351-1.143-.351-.381 0-.381-.7.381-.7h1.525c.762-1.052 1.905-2.803 2.667-2.803h5.336m4.573 10.86c0 .233.076.7.38.7h2.668c.255 0 .763-.14.763-.7V8.563c0-.7-.534-1.401-1.144-1.401-.127 0-.38-.07-.38-.35 0-.351.38-.351 1.143-.351.38 0 .38-.7-.382-.7h-1.524C16.625 4.71 15.1 2.958 14.72 2.958H9.384" stroke="#fff"/><path d="M4.683 6.516c3.81.38 9.68.303 11.814 0M3.158 8.792l2.668.38m12.576-.38l-2.668.38m-9.146 1.517h3.43l.762.76.762-.76h3.43M2.78 13.345c5.716.38 9.908.38 16.005 0" stroke="#fff"/><circle cx="17.287" cy="4.527" r="4.027" fill="#2158F5" stroke="#fff"/><path d="M18.837 2.455l-2.464 2.75-.67-.824a.33.33 0 00-.458-.029.38.38 0 00-.128.226.4.4 0 00.043.261l.793 1.467c.038.064.09.118.153.155a.396.396 0 00.405 0 .435.435 0 00.152-.155c.125-.183 2.506-3.438 2.506-3.438.294-.367-.082-.688-.332-.413z" fill="#fff"/></svg>