<svg width="23" height="20" fill="none" xmlns="http://www.w3.org/2000/svg"><path d="M6.25 11.2v-3h10.096v3.2l-4.739-1.8-5.357 1.6zm13.326 6.24c-.09.2-.195.392-.315.573-.12.183-.258.35-.411.5-.15.144-.318.264-.5.353-.187.091-.39.137-.595.134-.26.005-.52-.032-.77-.11a2.095 2.095 0 01-.575-.29 6.476 6.476 0 01-.456-.366 9.137 9.137 0 01-.401-.378 1.188 1.188 0 00-.423-.281c-.162-.06-.33-.1-.499-.122a1.092 1.092 0 00-.498.11 1.99 1.99 0 00-.412.28c-.13.114-.26.236-.39.366a2.602 2.602 0 01-1.032.64 2.637 2.637 0 01-.792.123 2.454 2.454 0 01-.78-.11 2.546 2.546 0 01-1.03-.646 3.704 3.704 0 00-.814-.647 1.142 1.142 0 00-.997-.013 1.775 1.775 0 00-.412.291c-.13.122-.264.244-.402.366a9.14 9.14 0 01-.455.378 1.56 1.56 0 01-.586.281 4.787 4.787 0 01-.77.122 1.464 1.464 0 01-.603-.122 1.522 1.522 0 01-.488-.354 4.263 4.263 0 01-.401-.5 3.646 3.646 0 01-.326-.58l-.021-.038" stroke="#fff" stroke-width="1.25"/><path d="M22 17.4h-1.662l1.661-4.937-2.8-.907v-5.09h-1.662l-1.4-2.733H13.6V1H9.4v2.736H6.861l-1.4 2.733H3.8v5.09l-2.8.908L2.662 17.4H1" stroke="#fff" stroke-width="1.25"/></svg>