<svg width="157" height="83" fill="none" xmlns="http://www.w3.org/2000/svg"><path d="M147.914 37.786a24860.344 24860.344 0 01-28.588 31.67c-.822.905-2.367 1.167-2.845 2.165a11.899 11.899 0 00-.323 4.15c1.116-.174 2.642.14 3.282-.6 4.679-5.407 9.019-11.224 13.78-16.523 5.553-6.181 11.423-11.97 17.16-17.923.267-.264.546-.51.834-.74 5.945-5.025 5.945-5.024 1.605-9.525-7.37.725-14.023 1.7-20.651 1.941-6.469.235-12.918-.217-19.361-.515-1.509-.07-2.946-1.048-4.446-1.029a10.388 10.388 0 00-3.473 1.479c.644 1.11 1.127 3.034 1.959 3.192a96.71 96.71 0 0013.185 1.675c5.991.3 12.024.17 18.232 1.073l-14.578 7.302c-11.222 5.62-22.926 7.522-34.694 9.61-15.813 2.572-31.683 1.528-46.718-3.073-7.624-2.173-14.746-6.317-21.99-9.83-4.904-2.376-9.609-5.247-14.454-7.777a4.664 4.664 0 00-2.283.194c-.061.94.09 1.864.44 2.68a33.715 33.715 0 006.373 4.473c8.045 3.945 16.012 8.188 24.34 11.298a144.69 144.69 0 0021.938 5.657c12.663 2.57 25.538.85 38.437-1.07 13.109-1.999 26.01-6.427 38.212-13.117 4.787-2.588 9.637-4.994 14.458-7.483l.169.646z" fill="#FDB81E"/></svg>