<svg width="20" height="20" fill="none" xmlns="http://www.w3.org/2000/svg"><circle cx="10" cy="10" r="10" fill="#4A9029"/><path d="M8.922 11.387v-.37c0-.288.033-.54.1-.755.066-.215.177-.416.333-.604a3.95 3.95 0 01.633-.597c.274-.215.49-.4.65-.557.165-.156.282-.313.352-.469a1.31 1.31 0 00.112-.556c0-.333-.114-.584-.34-.756-.223-.176-.537-.264-.944-.264-.359 0-.697.05-1.013.152a6.835 6.835 0 00-.938.381l-.486-1.031c.355-.195.74-.352 1.154-.469a4.935 4.935 0 011.377-.181c.797 0 1.412.193 1.846.58.437.386.656.896.656 1.529 0 .348-.055.646-.164.896-.11.246-.271.475-.486.686a8.362 8.362 0 01-.768.656 5.067 5.067 0 00-.568.51c-.13.14-.219.283-.27.428a1.7 1.7 0 00-.07.521v.27H8.922zm-.223 1.886c0-.32.082-.544.246-.673a.961.961 0 01.616-.2c.234 0 .435.067.603.2.168.129.252.353.252.673 0 .313-.084.54-.252.68a.926.926 0 01-.603.205.943.943 0 01-.616-.205c-.164-.14-.246-.367-.246-.68z" fill="#fff"/></svg>