<svg width="25" height="18" fill="none" xmlns="http://www.w3.org/2000/svg"><path d="M2.04.5h20.92c.846 0 1.54.693 1.54 1.557v13.886c0 .864-.694 1.557-1.54 1.557H2.04c-.846 0-1.54-.693-1.54-1.557V2.057C.5 1.193 1.194.5 2.04.5z" fill="#2158F5" stroke="#F2F2F2"/><path fill-rule="evenodd" clip-rule="evenodd" d="M14.009 10.287c-.294.465-.595.814-.903 1.041-.408.324-.922.488-1.527.488-.58 0-.973-.177-1.168-.527-.145-.254-.227-.849.202-2.24.299-.932.664-1.614 1.088-2.03.55-.554 1.202-.836 1.938-.836.302 0 .559.058.759.17.315.178.471.45.508.884l.023.267h3.922v-.291c0-1.515-.387-2.569-1.178-3.22-.71-.61-1.802-.907-3.338-.907-1.892 0-3.55.509-4.93 1.513C8.037 5.603 7.06 7.046 6.503 8.884c-.44 1.402-.499 2.579-.173 3.502.34.94.893 1.605 1.642 1.975.73.367 1.75.553 3.034.553 1.073 0 2.007-.15 2.772-.443a6.891 6.891 0 002.168-1.31c.635-.575 1.51-1.635 1.926-2.601l.176-.408h-3.954l-.085.135z" fill="#FFFFFE"/></svg>