<svg width="42" height="42" fill="none" xmlns="http://www.w3.org/2000/svg"><circle cx="21" cy="21" r="21" fill="#fff"/><path d="M21 31.45h-.5v.05h-9v-4.626c.026-.727.108-1.278.34-1.753.228-.465.624-.908 1.372-1.36h0l.004-.002a42.898 42.898 0 013.007-1.67c.371-.19.693-.347.938-.466l1.724 5.223.448 1.359.495-1.342 1.12-3.03.052-.14.052.14 1.12 3.006.497 1.335.446-1.353 1.723-5.221c.243.118.561.275.928.463.854.435 1.968 1.03 3.02 1.672l.002.001c.748.452 1.145.895 1.372 1.36.232.475.314 1.026.34 1.753v4.601H21zm-.001-7.928l-.116-.159c-.462-.63-.644-1.06-.695-1.334-.046-.25.018-.35.063-.399.067-.074.19-.138.361-.18.165-.04.32-.046.388-.046.072 0 .232.007.4.049.175.044.3.11.367.185.045.05.108.149.06.397-.052.273-.238.7-.706 1.324l-.122.163z" fill="#FFB800" stroke="#F5A200"/><path d="M16.535 11.693h0l.002-.015.001-.015c.108-2.163 1.085-3.17 2.03-3.665a4.57 4.57 0 012.152-.495l.032.002.032-.002a4.57 4.57 0 012.152.495c.945.495 1.922 1.502 2.03 3.665l.001.015.002.014h0v.003l.001.012a4.174 4.174 0 01.02.26c.01.181.018.443.012.758a9.432 9.432 0 01-.311 2.295c-.23.83-.61 1.621-1.22 2.206-.597.574-1.449.982-2.696 1h-.047c-1.247-.012-2.098-.417-2.696-.99-.608-.583-.989-1.375-1.218-2.206-.23-.83-.3-1.666-.312-2.301a10.384 10.384 0 01.032-1.022l.001-.012v-.002z" fill="#FDD34D" stroke="#FFB800"/></svg>