<svg width="42" height="42" fill="none" xmlns="http://www.w3.org/2000/svg"><circle cx="21" cy="21" r="21" fill="#fff"/><circle opacity=".2" cx="21" cy="25" r="11" fill="url(#paint0_linear)"/><circle opacity=".4" cx="21" cy="23" r="11" fill="url(#paint1_linear)"/><ellipse opacity=".88" cx="21" cy="20.5" rx="11" ry="11.5" fill="url(#paint2_linear)"/><path d="M31.5 18.5c0 6.096-4.722 11-10.5 11s-10.5-4.904-10.5-11 4.722-11 10.5-11 10.5 4.904 10.5 11z" fill="url(#paint3_linear)" stroke="#FFB800"/><g filter="url(#filter0_dd)"><path d="M21.857 20.13c0-.267-.074-.479-.224-.635-.147-.16-.397-.306-.752-.44a9.312 9.312 0 01-.918-.395 3.096 3.096 0 01-.664-.454 1.902 1.902 0 01-.43-.605 2.053 2.053 0 01-.151-.826c0-.55.176-1 .527-1.352.352-.352.819-.557 1.401-.615v-1.045h.782v1.06c.576.08 1.027.322 1.352.722.326.397.489.913.489 1.548h-1.412c0-.39-.081-.682-.244-.874a.789.789 0 00-.644-.293c-.267 0-.474.076-.62.23-.147.149-.22.357-.22.624 0 .248.072.446.215.596.143.15.408.303.796.459.39.156.71.304.962.444.25.137.462.293.634.469.173.173.305.371.396.596.091.221.137.48.137.776 0 .553-.173 1.003-.518 1.348-.345.345-.82.548-1.426.61v.972h-.776v-.967c-.668-.072-1.185-.308-1.553-.708-.364-.404-.547-.94-.547-1.606h1.411c0 .387.091.685.274.893.185.205.45.308.796.308.286 0 .512-.075.678-.225.166-.153.25-.358.25-.615z" fill="#fff"/></g><defs><linearGradient id="paint0_linear" x1="21" y1="14" x2="21" y2="36" gradientUnits="userSpaceOnUse"><stop stop-color="#DD8F30"/><stop offset="1" stop-color="#FFE146"/></linearGradient><linearGradient id="paint1_linear" x1="21" y1="12" x2="21" y2="34" gradientUnits="userSpaceOnUse"><stop stop-color="#DD8F30"/><stop offset="1" stop-color="#FFE146"/></linearGradient><linearGradient id="paint2_linear" x1="21" y1="9" x2="21" y2="32" gradientUnits="userSpaceOnUse"><stop stop-color="#DD8F30"/><stop offset="1" stop-color="#FFE146"/></linearGradient><linearGradient id="paint3_linear" x1="21" y1="7" x2="21" y2="30" gradientUnits="userSpaceOnUse"><stop stop-color="#FCD04E"/><stop offset="1" stop-color="#FFE146"/></linearGradient><filter id="filter0_dd" x="17.449" y="13.763" width="6.819" height="11.287" filterUnits="userSpaceOnUse" color-interpolation-filters="sRGB"><feFlood flood-opacity="0" result="BackgroundImageFix"/><feColorMatrix in="SourceAlpha" values="0 0 0 0 0 0 0 0 0 0 0 0 0 0 0 0 0 0 127 0"/><feOffset dy="1"/><feGaussianBlur stdDeviation=".5"/><feColorMatrix values="0 0 0 0 0.909804 0 0 0 0 0.780392 0 0 0 0 0.223529 0 0 0 0.25 0"/><feBlend in2="BackgroundImageFix" result="effect1_dropShadow"/><feColorMatrix in="SourceAlpha" values="0 0 0 0 0 0 0 0 0 0 0 0 0 0 0 0 0 0 127 0"/><feOffset dy="1"/><feGaussianBlur stdDeviation=".5"/><feColorMatrix values="0 0 0 0 1 0 0 0 0 0.6 0 0 0 0 0 0 0 0 0.45 0"/><feBlend in2="effect1_dropShadow" result="effect2_dropShadow"/><feBlend in="SourceGraphic" in2="effect2_dropShadow" result="shape"/></filter></defs></svg>