<svg width="152" height="38" fill="none" xmlns="http://www.w3.org/2000/svg"><g clip-path="url(#clip0)" fill="#000"><path d="M51.808 31.15a.894.894 0 01-.428.16l-.733.128c-.268.05-.596.093-.985.129-.389.035-.87.067-1.445.096h-2.071a13.433 13.433 0 01-2.516-.225 4.989 4.989 0 01-2.012-.84 4.196 4.196 0 01-1.354-1.723 6.989 6.989 0 01-.498-2.858v-9.554a6.988 6.988 0 01.503-2.863c.293-.68.76-1.271 1.354-1.713a4.998 4.998 0 012.018-.856 13.32 13.32 0 012.505-.214h2.087c.478-.007.956.025 1.43.096.392.036.718.077.979.123l.727.134c.155.015.302.07.429.16a.534.534 0 01.117.412v1.793a.563.563 0 01-.535.541h-5.62a2.312 2.312 0 00-1.69.482 2.692 2.692 0 00-.482 1.873v2.976h7.471a.562.562 0 01.551.546v1.98a.562.562 0 01-.55.546h-7.462v3.586c-.077.662.095 1.33.482 1.873a2.312 2.312 0 001.697.498h5.603a.562.562 0 01.546.546v1.793a.536.536 0 01-.123.374h.005zm14.74-.215a.562.562 0 01-.546.536h-2.339a.562.562 0 01-.546-.536v-.444a9.527 9.527 0 01-1.926.9c-.631.206-1.29.31-1.954.31a7.728 7.728 0 01-1.702-.188 3.747 3.747 0 01-2.622-2.114 5.26 5.26 0 01-.429-2.285v-.107a5.29 5.29 0 01.375-2.066 3.586 3.586 0 011.177-1.488 5.632 5.632 0 012.088-.9 13.49 13.49 0 013.061-.304h1.729v-1.231a2.171 2.171 0 00-.589-1.793 3.052 3.052 0 00-1.793-.44c-.877 0-1.728.024-2.553.07-.824.047-1.466.1-1.926.161h-.134a.697.697 0 01-.359-.085c-.08-.054-.128-.183-.128-.386V16.78a.557.557 0 01.519-.573c.55-.107 1.213-.207 1.99-.3.863-.094 1.73-.139 2.597-.133a6.85 6.85 0 014.48 1.284 4.871 4.871 0 011.552 3.972l-.022 9.906zm-3.629-6.283h-1.74a6.405 6.405 0 00-1.524.16c-.325.078-.63.224-.894.429-.253.19-.436.46-.52.765a3.748 3.748 0 00-.123 1.017v.107a1.605 1.605 0 00.466 1.365c.462.265.995.383 1.525.337a5.16 5.16 0 001.472-.214 7.06 7.06 0 001.338-.557v-3.41zm17.351 2.772a4.299 4.299 0 01-.33 1.686 3.587 3.587 0 01-1.002 1.376 4.892 4.892 0 01-1.696.893 7.694 7.694 0 01-2.366.332h-1a9.098 9.098 0 01-1.285-.096 22.223 22.223 0 01-1.365-.236 9.15 9.15 0 01-1.263-.257.621.621 0 01-.535-.642v-1.632a.45.45 0 01.47-.444h.108l1.166.107 1.338.096 1.231.07h.894c.342.008.683-.025 1.017-.097.215-.046.417-.141.589-.278a.899.899 0 00.283-.428c.046-.168.07-.34.07-.514a.996.996 0 00-.268-.696 4.658 4.658 0 00-.899-.712l-3.762-2.301a5.378 5.378 0 01-1.67-1.606 3.853 3.853 0 01-.642-2.194c0-2.74 1.739-4.11 5.218-4.11h1.499c.42-.002.84.04 1.252.128l1.102.177 1.05.203a.61.61 0 01.481.642v1.606c0 .357-.143.532-.428.524h-.107l-.83-.107a20.873 20.873 0 00-1.156-.107l-1.364.016h-1.253a3.024 3.024 0 00-1.445.252.941.941 0 00-.455.899.734.734 0 00.29.573c.25.205.519.387.802.546l3.586 2.194c.497.294.959.644 1.375 1.044.319.306.592.656.814 1.038.18.322.304.674.364 1.038a6.8 6.8 0 01.107.996l.016.021zm15.672-10.993a.384.384 0 010 .16L91.339 32.66a13.12 13.12 0 01-.706 1.937 4.07 4.07 0 01-1.044 1.365 3.821 3.821 0 01-1.552.77 9.3 9.3 0 01-2.344.252h-.739a4.136 4.136 0 01-.813-.075l-.75-.139a3.769 3.769 0 01-.6-.14 1.729 1.729 0 01-.4-.149.332.332 0 01-.183-.321v-1.79a.44.44 0 01.215-.294.588.588 0 01.385-.134h.75l.898.054.84.053h.718a2.38 2.38 0 001.375-.342c.387-.385.64-.884.718-1.424l.23-.824h-.412a3.092 3.092 0 01-.643-.075 1.794 1.794 0 01-.642-.284 2.32 2.32 0 01-.626-.605 4.69 4.69 0 01-.514-1.257l-3.586-12.605a.61.61 0 010-.192c0-.286.173-.428.52-.428h2.782a.428.428 0 01.338.15.9.9 0 01.187.337l2.783 11.207c.028.168.082.33.16.482a.251.251 0 00.215.128h.257L92.12 16.48a.75.75 0 01.17-.32.483.483 0 01.36-.135h2.799a.482.482 0 01.497.423l-.005-.016zM113.7 31.31a.534.534 0 01-.385.16h-2.687a.56.56 0 01-.546-.535v-8.43h-7.814v8.43a.564.564 0 01-.546.535H99.03a.562.562 0 01-.546-.535V11.561a.483.483 0 01.16-.375.557.557 0 01.391-.145h2.687a.56.56 0 01.386.15.477.477 0 01.16.375v7.6h7.814V11.56a.482.482 0 01.161-.374.555.555 0 01.385-.145h2.687a.555.555 0 01.507.32.482.482 0 01.039.205V30.94a.535.535 0 01-.161.375v-.005zm15.232-.375a.561.561 0 01-.546.535h-2.344a.561.561 0 01-.546-.535v-.444a9.517 9.517 0 01-1.926.9 6.265 6.265 0 01-1.949.31 7.727 7.727 0 01-1.702-.188 3.754 3.754 0 01-2.622-2.114 5.26 5.26 0 01-.428-2.285v-.107a5.287 5.287 0 01.364-2.066 3.578 3.578 0 011.177-1.488 5.637 5.637 0 012.087-.9 13.496 13.496 0 013.073-.304h1.728v-1.231a2.171 2.171 0 00-.588-1.793 3.053 3.053 0 00-1.788-.44c-.878 0-1.729.024-2.553.07-.824.047-1.466.1-1.927.161h-.176a.698.698 0 01-.359-.086c-.091-.053-.134-.181-.134-.385V16.78a.558.558 0 01.519-.573c.55-.107 1.215-.207 1.997-.3a22.589 22.589 0 012.601-.133 6.851 6.851 0 014.485 1.284 4.871 4.871 0 011.552 3.972l.005 9.906zm-3.628-6.283h-1.74a6.41 6.41 0 00-1.531.16 2.357 2.357 0 00-.893.429 1.429 1.429 0 00-.471.727 3.754 3.754 0 00-.129 1.017v.107a1.613 1.613 0 00.471 1.37 2.61 2.61 0 001.526.343c.5-.002.998-.078 1.477-.225a7.065 7.065 0 001.338-.546l-.048-3.382zm19.471 6.658a.539.539 0 01-.391.16h-2.526a.534.534 0 01-.386-.16.517.517 0 01-.16-.375v-.642a8.945 8.945 0 01-2.045 1.081 7.104 7.104 0 01-2.28.321 6.265 6.265 0 01-1.905-.278 3.589 3.589 0 01-1.472-.894 4.17 4.17 0 01-1.07-2.034 12.824 12.824 0 01-.305-2.98v-8.955a.571.571 0 01.16-.401.503.503 0 01.386-.182h2.504a.508.508 0 01.386.182.571.571 0 01.16.401v8.976a8.87 8.87 0 00.129 1.659c.062.372.24.714.508.98.206.168.442.295.696.374.331.092.674.133 1.017.123.274-.001.548-.037.813-.107.286-.075.567-.168.841-.278a7.26 7.26 0 00.776-.359l.674-.358V16.538a.57.57 0 01.161-.396.509.509 0 01.385-.182h2.526a.51.51 0 01.386.182.576.576 0 01.16.402V30.94a.537.537 0 01-.134.374l.006-.005zm7.075 0a.472.472 0 01-.375.176h-2.547a.51.51 0 01-.386-.182.573.573 0 01-.16-.396V11.095a.564.564 0 01.546-.546h2.553a.481.481 0 01.374.16.558.558 0 01.145.391v19.82a.599.599 0 01-.15.39zM1.231 22.923A.803.803 0 010 22.29V4.485a.792.792 0 01.45-.717C2.216 2.943 8.895 0 15.36 0c4.273-.02 8.51.763 12.492 2.312a.134.134 0 010 .251l-4.602 2.06a.803.803 0 01-.552 0c-2.397-.716-4.362-.695-7.316-.695a31.84 31.84 0 00-10.94 2.44.75.75 0 00-.481.718v7.225a.696.696 0 00.963.643L32.776 2.835a.107.107 0 01.091.188l-31.636 19.9zm.129 3.57a17.114 17.114 0 002.108 2.596.894.894 0 001.2.064l31.77-25.942a.171.171 0 00-.199-.267L1.606 25.358a.899.899 0 00-.236 1.14l-.01-.005zm25.775-5.705c-.08 3.479-.203 4.281-1.573 5.566 0 0-.188.45-4.64 3.81a55.735 55.735 0 01-5.085 3.383.653.653 0 01-.664 0l-1.338-.792a.707.707 0 01-.15-1.081l26.38-28.34a.123.123 0 00-.17-.176l-33.74 27.51a1.018 1.018 0 000 1.573 57.843 57.843 0 008.43 5.513 1.98 1.98 0 001.915 0c3.362-1.884 14.408-8.52 14.408-14.697 0-2.334.188-3.361.198-6.225a.123.123 0 00-.148-.134.123.123 0 00-.066.038l-3.372 3.425c-.3.31-.374.466-.385.627z"/></g><defs><clipPath id="clip0"><path fill="#000" d="M0 0h152v38H0z"/></clipPath></defs></svg>