<svg xmlns="http://www.w3.org/2000/svg" width="54.162" height="36.147"><defs><style>.b{fill:#275b7c}</style></defs><path d="M52.151 9.527a5.952 5.952 0 10-5.952 5.952 5.952 5.952 0 005.952-5.952zm-6.157 3.168a2.68 2.68 0 01-2.2-1.271l.76-.314a2.339 2.339 0 001.928.9c1.1 0 1.786-.448 1.786-1.171 0-.8-1.023-1.007-1.792-1.1-1.394-.153-2.459-.375-2.459-1.693 0-1.336 1.521-1.619 1.988-1.674l.161-.019v-.768h.811v.763l.156.023a2.182 2.182 0 011.7.975l-.686.311a2.277 2.277 0 00-1.624-.644c-1.052 0-1.655.377-1.655 1.034 0 .784.927.892 1.672.979 1.442.173 2.635.429 2.635 1.81a1.942 1.942 0 01-2.025 1.81l-.17.012v.893h-.811v-.845z" fill="#f4c222"/><path class="b" d="M44.772 17.608a8.892 8.892 0 01-1.191-.159l-.111-.023.215-1.051.111.023a7.673 7.673 0 001.045.139l.113.007-.069 1.071zm1.012-1.065l.112-.008a7.8 7.8 0 001.046-.145l.111-.023.219 1.05-.111.023a9.019 9.019 0 01-1.189.165l-.113.008zm-3.361.586a8.809 8.809 0 01-1.1-.475l-.1-.052.491-.954.1.052a7.775 7.775 0 00.969.417l.106.038-.356 1.012zm5.428-.987l.106-.038a7.734 7.734 0 00.966-.422l.1-.052.5.951-.1.052a8.8 8.8 0 01-1.1.481l-.106.038zm-7.56-.11a8.958 8.958 0 01-.934-.755l-.083-.077.729-.787.083.077a7.906 7.906 0 00.821.664l.092.065-.616.878zm9.439-.835l.092-.066a7.845 7.845 0 00.817-.667l.082-.077.733.783-.082.077a8.867 8.867 0 01-.93.76l-.092.065zm-4.381.313a6.7 6.7 0 116.7-6.7 6.7 6.7 0 01-6.7 6.699zm0-12.32a5.623 5.623 0 105.624 5.624 5.63 5.63 0 00-5.624-5.624zm-6.815 11.213a8.909 8.909 0 01-.7-.977l-.059-.1.913-.562.059.1a7.773 7.773 0 00.613.859l.072.088-.829.681zm12.753-.623l.071-.087a7.819 7.819 0 00.609-.863l.059-.1.916.558-.059.1a8.914 8.914 0 01-.692.981l-.071.088zm-6.092-.684v-.885a2.849 2.849 0 01-2.439-1.38l-.059-.11.99-.41.051.082a2.317 2.317 0 001.975.881c.826 0 1.659-.34 1.659-1.1 0-.783-.852-.894-1.838-1.023-1.2-.157-2.563-.335-2.563-1.864 0-.714.389-1.607 2.224-1.852v-.808h1.065v.806a2.4 2.4 0 011.9 1.071l.067.109-.9.409-.055-.064a2.33 2.33 0 00-1.7-.632c-.744 0-1.494.3-1.494.961s.707.794 1.63.9c1.49.18 2.827.466 2.827 1.986a2.117 2.117 0 01-2.2 1.986l-.071.005v.932zm-7.916-.733a8.777 8.777 0 01-.408-1.13l-.031-.109 1.032-.293.031.109a7.643 7.643 0 00.357.992l.045.1-.981.432zm15.128-.365l.045-.1a7.678 7.678 0 00.353-.994l.03-.109 1.033.289-.03.109a8.8 8.8 0 01-.4 1.133l-.045.1zm-15.785-1.94a8.9 8.9 0 01-.087-1.2v-.114l1.073-.006v.113a7.788 7.788 0 00.076 1.053l.016.111-1.062.15zm16.381-.079l.015-.112a7.772 7.772 0 00.071-1.136v-.112l1.073-.01v.113a8.9 8.9 0 01-.08 1.289l-.015.112zm-16.408-2.2l.015-.112a8.715 8.715 0 01.237-1.178l.03-.109 1.035.283-.03.109a7.742 7.742 0 00-.208 1.034l-.015.112zm16.412-.094a7.69 7.69 0 00-.224-1.031l-.031-.108 1.03-.3.032.109a8.8 8.8 0 01.255 1.174l.016.112-1.061.156zM37.198 5.458l.045-.1a8.761 8.761 0 01.547-1.07l.058-.1.919.552-.058.1a7.747 7.747 0 00-.481.939l-.044.1zm15.222.207a7.811 7.811 0 00-.495-.931l-.06-.1.911-.567.06.1a8.834 8.834 0 01.563 1.06l.046.1-.979.438zM38.406 3.388l.071-.088a8.856 8.856 0 01.815-.883l.082-.078.737.779-.082.078a7.734 7.734 0 00-.716.775l-.071.088zm12.9.491a7.791 7.791 0 00-.727-.765l-.083-.076.725-.791.083.077a8.923 8.923 0 01.828.87l.072.087-.825.685zm-11.183-2.16l.092-.066a8.854 8.854 0 011.021-.632l.1-.052.5.948-.1.053a7.74 7.74 0 00-.9.555l-.092.066zm9.632.736a7.819 7.819 0 00-.906-.541l-.1-.051.486-.956.1.051a8.831 8.831 0 011.031.616l.093.064-.611.881zM42.228.573l.106-.039a8.788 8.788 0 011.154-.332l.111-.024.225 1.049-.11.023a7.769 7.769 0 00-1.013.291l-.106.039zm5.651.929a7.667 7.667 0 00-1.019-.276l-.111-.022.209-1.052.111.022a8.767 8.767 0 011.16.314l.107.037-.35 1.014zM44.565.039l.113-.008c.218-.017.443-.025.669-.025.175 0 .353 0 .531.016l.113.007-.062 1.071-.113-.007a8.052 8.052 0 00-1.056.008l-.113.009z"/><path d="M15.406 14.097l5.487-.244a18.357 18.357 0 019.09 1.954l7.4 3.647-2.944 1.969-24.859-1.83s.09-1.791.395-2.072z" fill="#e5e05c"/><path class="b" d="M14.048 31.663l.072-1.67 19.598.843-.072 1.67z"/><path class="b" d="M38.275 36.146a5.033 5.033 0 115.033-5.033 5.039 5.039 0 01-5.033 5.033zm0-8.394a3.361 3.361 0 103.361 3.361 3.365 3.365 0 00-3.361-3.361z"/><path class="b" d="M38.275 33.492a2.466 2.466 0 112.466-2.466 2.469 2.469 0 01-2.466 2.466zm0-3.259a.793.793 0 10.793.794.795.795 0 00-.793-.794zM9.893 36.146a5.033 5.033 0 115.033-5.033 5.039 5.039 0 01-5.033 5.033zm0-8.394a3.361 3.361 0 103.361 3.361 3.365 3.365 0 00-3.361-3.361z"/><path class="b" d="M9.892 33.492a2.466 2.466 0 112.466-2.466 2.469 2.469 0 01-2.466 2.466zm0-3.259a.793.793 0 10.794.794.795.795 0 00-.794-.794zm23.461-9.016l-25.966-1.91.041-.817c.107-2.133.5-2.492.664-2.645l.12-.091 5.432-3.425.892 1.415-5.244 3.306a5.609 5.609 0 00-.123.711l23.732 1.746 2.705-1.808.929 1.39zM.814 25.538l-.606-1.559c1.6-.621 3.367-1.333 4.033-1.633.023-.121.049-.274.076-.442l-3.262-.4.2-1.66 4.948.612-.111.836c-.234 1.771-.347 1.94-.447 2.09-.168.254-.246.372-4.831 2.156zm47.691 1.528l-4.261-.935a2.48 2.48 0 01-1.43-.937l-1.583-2.134.758-1.329 5.514.57-.172 1.659-3.628-.375.45.609a.8.8 0 00.458.3l4.248.932z"/><path class="b" d="M44.567 30.788l-.186-1.662 3.218-.36.238-2.436-.6-2.043a5.371 5.371 0 00-4.172-3.777l-7.729-1.459-7.044-3.558a17.589 17.589 0 00-8.676-1.864l-7.482.332a11.207 11.207 0 00-5.619 1.806l-2.359 1.538a5.449 5.449 0 00-2.482 4.58v5.849l2.555 1.5-.848 1.441-3.38-1.987v-6.8a7.119 7.119 0 013.24-5.981l2.36-1.538a12.878 12.878 0 016.458-2.076l7.482-.332a19.2 19.2 0 019.5 2.042l6.834 3.452 7.5 1.416a7.035 7.035 0 015.466 4.948l.692 2.354-.4 4.108zM14.135 11.01l-.074-1.671 1.671-.074.074 1.671zm3.342-.148l-.074-1.671 1.671-.074.074 1.671z"/><path class="b" d="M35.851 16.069l-5.822-2.94a22.011 22.011 0 00-10.88-2.338l-.074-1.671a23.71 23.71 0 0111.708 2.516l5.822 2.94zm-3.962 13.55l-15.8-.671-.735-.509a5.917 5.917 0 00-6.975-3.383l-.438-1.614a7.6 7.6 0 018.725 3.857l15.3.649zm13.074 4.855h2.048v1.673h-2.048zm-42.778 0h40.308v1.673H2.185z"/></svg>