<svg xmlns="http://www.w3.org/2000/svg" width="51.695" height="43.993"><path d="M26.934 31.035v12.9H51.56v-12.9zm12.477 8.342l-.164.012v.833h-.782v-.787l-.161-.013a2.6 2.6 0 01-2.124-1.185l.732-.293a2.286 2.286 0 001.859.84c1.062 0 1.722-.418 1.722-1.091 0-.743-.986-.939-1.728-1.022-1.344-.142-2.371-.349-2.371-1.579 0-1.245 1.467-1.51 1.916-1.562l.155-.018v-.715h.782v.711l.15.022a2.119 2.119 0 011.637.909l-.662.29a2.234 2.234 0 00-1.566-.6c-1.014 0-1.6.351-1.6.964 0 .731.894.832 1.612.913 1.39.162 2.541.4 2.541 1.688.005 1.068-.976 1.616-1.948 1.682zM16.041 8.202h3.851v3.851h-3.851zm0 19.685h3.851v3.848h-3.851z" fill="#00ff4c"/><path d="M23.109 43.993V28.244h28.587v15.749zm26.96-1.627v-12.5H24.735v12.5zm-7.7-.085v-2.055h1.627v2.055zm-11.126 0v-2.055h1.626v2.055zm5.991-2.14v-.879a2.949 2.949 0 01-2.48-1.385l-.094-.169 1.113-.446.077.119a2.34 2.34 0 001.968.843c.815 0 1.637-.318 1.637-1.026 0-.67-.689-.806-1.825-.95-1.187-.15-2.663-.337-2.663-1.9 0-1.013.8-1.677 2.268-1.88v-.8h1.2v.8a2.55 2.55 0 011.93 1.075l.107.169-1.02.447-.083-.092a2.365 2.365 0 00-1.7-.605c-.73 0-1.467.275-1.467.888 0 .587.666.716 1.763.857 1.24.16 2.784.36 2.784 1.99 0 1.124-.863 1.871-2.317 2.017v.926zm5.135-1.284v-2.058h1.627v2.055zm-11.126 0v-2.058h1.626v2.055zm-29.528-2.14v-7.7H.431V27.39h1.284v-8.216H-.004v-1.627h1.712V9.331H-.004V7.699h1.712v-7.7h44.848v23.88H44.93V1.627H3.33v6.072h1.934a2.523 2.523 0 014.913.813 2.482 2.482 0 01-2.551 2.515 2.421 2.421 0 01-2.363-1.7H3.33v8.216h1.933a2.422 2.422 0 012.365-1.7 2.515 2.515 0 110 5.029 2.421 2.421 0 01-2.363-1.7H3.332v8.216h1.933a2.422 2.422 0 012.365-1.7 2.515 2.515 0 110 5.029 2.421 2.421 0 01-2.363-1.7H3.334v6.076h17.974v1.627zm5.948-9.405a.889.889 0 10.9.889.857.857 0 00-.903-.889zm0-9.843a.889.889 0 10.9.889.857.857 0 00-.903-.888zm0-9.843a.889.889 0 10.9.889.857.857 0 00-.903-.888zm34.706 27.807v-2.054h1.627v2.055zm-11.126 0v-2.054h1.626v2.055zm11.126-3.423v-2.055h1.627v2.055zm-11.126 0v-2.055h1.626v2.055zm-17.974-.856v-5.478h5.477v5.478zm3.851-1.627v-2.228h-2.224v2.225zm6.419-2.653v-1.625h28.157v1.627zm24.393-5.135V7.699h1.626v14.037zm-9.843-1.284v-1.626h2.482v1.627zm-16.69 0v-1.626h15.32v1.627zm-8.371-2.946l1.15-1.149 1.614 1.614 2.542-2.542 1.15 1.149-3.692 3.691zm25.061-.049v-1.627h2.482v1.627zm-16.69 0v-1.627h15.32v1.627zm-8.131-5.991V5.991h5.477v5.478zm3.851-1.627V7.617h-2.223v2.225zm4.279-.513v-1.63h17.46v1.627zm26.532-3v-2.05h1.626v2.055z" fill="#275b7c"/></svg>