<svg xmlns="http://www.w3.org/2000/svg" width="42.611" height="49.897"><defs><style>.b{fill:#275b7c}</style></defs><path d="M22.434 30.196l17.728 5.41 2.449-6.29-20.177-6.158-20.178 6.158 2.449 6.29z" fill="#6fd2ff"/><path class="b" d="M37.9 44.979a4.2 4.2 0 01-3.37-1.719 4.163 4.163 0 01-6.74 0 4.163 4.163 0 01-6.74 0 4.164 4.164 0 01-6.741 0 4.164 4.164 0 01-6.74 0 4.168 4.168 0 01-7.374-1.282l1.266-.37a2.852 2.852 0 005.474 0h1.266a2.851 2.851 0 005.474 0h1.266a2.852 2.852 0 005.474 0h1.267a2.852 2.852 0 005.474 0h1.266a2.852 2.852 0 005.474 0h1.266a2.852 2.852 0 005.474 0l1.266.37a4.193 4.193 0 01-4.002 3.001zm-3.48 4.92a4.2 4.2 0 01-3.37-1.718 4.164 4.164 0 01-6.74 0 4.164 4.164 0 01-6.74 0 4.164 4.164 0 01-6.74 0A4.194 4.194 0 017.46 49.9v-1.319a2.867 2.867 0 002.737-2.051h1.266a2.852 2.852 0 005.474 0h1.266a2.851 2.851 0 005.474 0h1.266a2.852 2.852 0 005.474 0h1.266a2.868 2.868 0 002.737 2.051zm2.583-9.854l-1.229-.479 4.58-11.762-19.3-5.891-19.3 5.891 4.58 11.762-1.229.479-5.1-13.088 21.05-6.424 21.05 6.424z"/><path class="b" d="M20.39 21.293h1.319v18.512H20.39zm-3.228 18.824c-1.014-3.14-3.159-4.646-5.234-6.1a61.058 61.058 0 01-1.082-.772l.783-1.063c.346.255.7.5 1.058.755 2.148 1.507 4.582 3.216 5.732 6.777z"/><path class="b" d="M10.846 33.243a24.633 24.633 0 00-1.011-.705l.727-1.1c.36.238.72.488 1.067.744zm-2.473-1.6c-.9-.5-1.5-.758-1.5-.761l.512-1.216a17.71 17.71 0 011.638.826zm16.564 8.474l-1.256-.405c1.15-3.562 3.585-5.271 5.734-6.779.357-.251.711-.5 1.057-.754l.783 1.063c-.354.261-.716.515-1.082.771-2.076 1.457-4.222 2.963-5.236 6.104z"/><path class="b" d="M31.256 33.242l-.784-1.062c.344-.254.7-.5 1.066-.744l.727 1.1c-.344.229-.684.466-1.009.706zm2.471-1.595l-.645-1.151a17.621 17.621 0 011.638-.826l.512 1.216c-.011.004-.605.256-1.505.761zm3.018-9.065h-1.319v-4.779h-9.7v-1.316h11.019zm-12.455-4.78h-1.759v-1.315h1.759zm-3.519 0h-1.759v-1.315h1.759zm-3.519 0h-1.756v-1.315h1.759zM6.674 22.987H5.355v-6.5h10.14v1.319h-8.82zm3.166-7.5H8.521v-3.308h5.553v1.319H9.841zm23.76 0h-1.319v-1.988h-4.233v-1.32h5.553zm-6.775-.001h-1.32v-3.83h-8.912v3.83h-1.316v-5.15h11.551z"/><path class="b" d="M23.768 11.361L22.58 6.92h-3.061l-1.188 4.441-1.275-.341 1.451-5.419h5.087l1.45 5.419z"/><path class="b" d="M20.39.001h1.319V6.26H20.39z"/></svg>