<svg xmlns="http://www.w3.org/2000/svg" width="45.691" height="42.5"><path d="M10.601 4.549a4.213 4.213 0 00-4.213 4.213c0 2.327 4.213 6.757 4.213 6.757s4.213-4.43 4.213-6.757a4.213 4.213 0 00-4.213-4.213zm1.93 4.555a1.868 1.868 0 11-1.627-2.081 1.868 1.868 0 011.628 2.081zm24.352 7.321a6.037 6.037 0 00-6.037 6.037c0 3.334 6.037 9.681 6.037 9.681s6.036-6.347 6.036-9.681a6.037 6.037 0 00-6.035-6.036zm2.766 6.527a2.677 2.677 0 11-2.332-2.982 2.677 2.677 0 012.333 2.982z" fill="#75e7ef"/><path d="M24.45 42.5A21.269 21.269 0 014.819 13.136l.062-.148 1.409.584-.061.149a19.712 19.712 0 1018.156-12.2 19.352 19.352 0 00-9.483 2.485l-.141.078-.74-1.334.141-.078A20.838 20.838 0 0124.378-.002a21.25 21.25 0 11.073 42.5zM9.988 40.965a24.885 24.885 0 01-1.705-1.376l-.12-.106 1.01-1.143.12.106c.511.451 1.049.885 1.6 1.29l.129.1-.9 1.229zm6.807-3.044l.114-.114a9.849 9.849 0 0113.723-.153l.116.111-1.054 1.1-.116-.111a8.323 8.323 0 00-11.59.129l-.114.113zm-10.369-.155A24.511 24.511 0 01.112 18.883l.015-.16 1.519.146-.016.16a22.98 22.98 0 005.921 17.706l.108.118-1.125 1.031zm29.035-5.129c-1.638-1.723-6.985-7.617-6.985-11.15a7.1 7.1 0 1114.2 0c0 3.533-5.346 9.427-6.985 11.15l-.116.122zm.116-16.725a5.582 5.582 0 00-5.575 5.575c0 2.7 4.617 7.975 5.575 9.041.958-1.066 5.576-6.346 5.576-9.041a5.582 5.582 0 00-5.575-5.574zm-9.09 15.074l1.153-2.065a13.594 13.594 0 01-9.643-.319l-.148-.062.589-1.407.148.062a12.1 12.1 0 008.6.271l-2.011-1.123.744-1.332 4.312 2.408-2.408 4.312zm-10.014-3.138a13.451 13.451 0 01-1.419-.938l-.129-.1.921-1.217.128.1a12.014 12.014 0 001.258.832l.139.08-.76 1.323zm-2.709-2.044a13.688 13.688 0 01-1.143-1.258l-.1-.125 1.191-.955.1.125a12.129 12.129 0 001.016 1.117l.115.112-1.063 1.094zm21.955-.567a3.7 3.7 0 01-2.726-1.235 3.491 3.491 0 01-.848-2.776 3.577 3.577 0 013.548-3.139 3.683 3.683 0 01.433.026 3.576 3.576 0 01-.407 7.124zm-.03-5.625a2.048 2.048 0 00-2.029 1.8 2 2 0 00.485 1.59 2.123 2.123 0 001.564.71 2.049 2.049 0 00.232-4.083 1.984 1.984 0 00-.248-.016zm-24.047 3.545a13.655 13.655 0 01-.8-1.5l-.066-.146 1.389-.631.066.147a12.248 12.248 0 00.709 1.333l.084.137-1.3.8zm-1.4-3.09a13.685 13.685 0 01-.4-1.653l-.028-.158 1.5-.264.028.158a12.018 12.018 0 00.355 1.467l.047.153-1.457.451zm14.009-1.258a4.377 4.377 0 010-8.753h5.621a.442.442 0 100-.883h-3.27a3.452 3.452 0 01-1.342-6.626l.148-.063.594 1.406-.148.062a1.925 1.925 0 00.748 3.695h3.27a1.968 1.968 0 010 3.935h-5.621a2.851 2.851 0 100 5.7h3.373v1.526zM9.97 16.289c-2.008-1.994-5.387-5.707-5.457-8.17a5.3 5.3 0 011.455-3.818 5.24 5.24 0 013.839-1.672 5.34 5.34 0 015.379 5.184c.07 2.463-3.092 6.363-4.983 8.469l-.113.126zM9.852 4.154a3.812 3.812 0 00-3.814 3.921c.04 1.419 2.145 4.139 3.988 6.1 1.728-2.06 3.675-4.9 3.634-6.314a3.792 3.792 0 00-3.81-3.705zm.126 6.623a2.763 2.763 0 01-2.467-3.976 2.736 2.736 0 012.466-1.565 2.925 2.925 0 01.357.022 2.77 2.77 0 01-.356 5.519zM9.96 6.761a1.192 1.192 0 00-1.194 1.186 1.179 1.179 0 001.08 1.3 1.14 1.14 0 00.159.01 1.245 1.245 0 00.144-2.48 1.47 1.47 0 00-.191-.014z" fill="#275b7c"/></svg>