<svg xmlns="http://www.w3.org/2000/svg" width="49.555" height="36.718"><defs><style>.b{fill:#275b7c}</style></defs><path d="M16.041 8.201h3.851v3.851h-3.851zm0 19.685h3.851v3.849h-3.851z" fill="#3bc700"/><path class="b" d="M1.712 36.718v-7.7H.428v-1.627h1.284v-8.216H-.004v-1.627h1.712V9.332H-.004V7.699h1.712v-7.7h44.848v33.25H44.93V1.627H3.33v6.072h1.934a2.523 2.523 0 014.913.813 2.482 2.482 0 01-2.551 2.515 2.421 2.421 0 01-2.363-1.7H3.33v8.216h1.933a2.422 2.422 0 012.365-1.7 2.515 2.515 0 110 5.029 2.421 2.421 0 01-2.363-1.7H3.332v8.216h1.933a2.422 2.422 0 012.365-1.7 2.515 2.515 0 110 5.029 2.421 2.421 0 01-2.363-1.7H3.334v6.076h46.218v1.627zm5.948-9.405a.889.889 0 10.9.889.857.857 0 00-.9-.89zm0-9.843a.889.889 0 10.9.889.857.857 0 00-.9-.889zm0-9.843a.889.889 0 10.9.889.857.857 0 00-.9-.889zm5.606 23.527v-5.478h5.477v5.478zm3.851-1.627v-2.228h-2.221v2.225zm6.419-2.653v-1.625h17.032v1.627zm24.393 6.374V7.699h1.626v25.55zm-9.843-12.793v-1.626h2.482v1.627zm-16.69 0v-1.626h15.32v1.627zm-8.371-2.946l1.15-1.149 1.614 1.614 2.542-2.542 1.15 1.149-3.692 3.691zm25.061-.049v-1.627h2.482v1.627zm-16.69 0v-1.627h15.32v1.627zm-8.131-5.991V5.991h5.477v5.478zm3.851-1.627V7.617h-2.22v2.225zm4.279-.513v-1.63h17.46v1.627zm26.532-3v-2.05h1.626v2.055z"/><path class="b" d="M1.712 36.718v-7.7H.428v-1.627h1.284v-8.216H-.004v-1.627h1.712V9.332H-.004V7.699h1.712v-7.7h44.848v33.25H44.93V1.627H3.33v6.072h1.934a2.523 2.523 0 014.913.813 2.482 2.482 0 01-2.551 2.515 2.421 2.421 0 01-2.363-1.7H3.33v8.216h1.933a2.422 2.422 0 012.365-1.7 2.515 2.515 0 110 5.029 2.421 2.421 0 01-2.363-1.7H3.332v8.216h1.933a2.422 2.422 0 012.365-1.7 2.515 2.515 0 110 5.029 2.421 2.421 0 01-2.363-1.7H3.334v6.076h46.218v1.627zm5.948-9.405a.889.889 0 10.9.889.857.857 0 00-.9-.89zm0-9.843a.889.889 0 10.9.889.857.857 0 00-.9-.889zm0-9.843a.889.889 0 10.9.889.857.857 0 00-.9-.889zm5.606 23.527v-5.478h5.477v5.478zm3.851-1.627v-2.228h-2.221v2.225zm6.419-2.653v-1.625h17.032v1.627zm24.393 6.374V7.699h1.626v25.55zm-9.843-12.793v-1.626h2.482v1.627zm-16.69 0v-1.626h15.32v1.627zm-8.371-2.946l1.15-1.149 1.614 1.614 2.542-2.542 1.15 1.149-3.692 3.691zm25.061-.049v-1.627h2.482v1.627zm-16.69 0v-1.627h15.32v1.627zm-8.131-5.991V5.991h5.477v5.478zm3.851-1.627V7.617h-2.22v2.225zm4.279-.513v-1.63h17.46v1.627zm26.532-3v-2.05h1.626v2.055z"/></svg>