<svg xmlns="http://www.w3.org/2000/svg" width="43.55" height="39.13"><path d="M27.07 13.431a8.607 8.607 0 108.607 8.607 8.607 8.607 0 00-8.607-8.607zm.55 13.233h-1.547v-6.278h1.547zm-1.686-8.382a.913.913 0 011.826 0 .914.914 0 01-1.827-.001z" fill="#e55cbc"/><path d="M19.197 39.129V37.65H38.38a3.694 3.694 0 003.69-3.69V8.003a3.694 3.694 0 00-3.69-3.69H12.424a3.694 3.694 0 00-3.69 3.69v20.692H7.255V8.003a5.175 5.175 0 015.169-5.169h25.957a5.175 5.175 0 015.169 5.169V33.96a5.175 5.175 0 01-5.169 5.169zm-19.2 0l7.365-9 1.144.937-5.389 6.586h13.892v1.479zm25.087-3.981l.01-1.479h.253A12.455 12.455 0 0037.81 22.438l.016-.155 1.472.146-.015.155a13.945 13.945 0 01-13.971 12.564zm-1.485-.114a14.038 14.038 0 01-1.614-.305l-.151-.038.361-1.434.151.038a12.432 12.432 0 001.442.274l.154.02-.189 1.466zm-3.181-.8a14.049 14.049 0 01-1.5-.677l-.138-.073.688-1.309.137.072a12.406 12.406 0 001.338.6l.146.056-.528 1.382zm-2.9-1.525a14.136 14.136 0 01-1.3-1.007l-.117-.1.973-1.113.117.1a12.625 12.625 0 001.161.9l.128.088-.837 1.219zm7.886-1.289a10.221 10.221 0 1110.221-10.221 10.233 10.233 0 01-10.223 10.224zm0-18.963a8.742 8.742 0 108.742 8.742 8.751 8.751 0 00-8.744-8.742zM15.049 30.549a14.187 14.187 0 01-1.028-1.28l-.09-.126 1.2-.857.091.127a12.589 12.589 0 00.919 1.145l.1.116-1.1.992zm-1.9-2.672a13.852 13.852 0 01-.7-1.484l-.058-.144 1.372-.552.058.144a12.6 12.6 0 00.626 1.327l.075.136-1.3.709zm11.426-1.4v-7.228h2.016v7.228zm-12.647-1.639a13.853 13.853 0 01-.332-1.609l-.023-.154 1.464-.212.022.154a12.429 12.429 0 00.3 1.437l.04.15-1.428.384zm-.473-3.244c-.011-.372-.006-.755.014-1.135A13.936 13.936 0 0125.389 7.25a14.214 14.214 0 011.65.1l.155.018-.173 1.469-.154-.018a12.805 12.805 0 00-1.478-.087 12.546 12.546 0 00-8.931 3.774 12.4 12.4 0 00-3.525 9.051v.156l-1.477.04zm26.407-.89a12.615 12.615 0 00-.143-1.462l-.024-.154 1.46-.23.024.153a14.06 14.06 0 01.16 1.634l.006.156-1.478.058zm-12.28-2.466a1.151 1.151 0 111.161-1.151 1.12 1.12 0 01-1.158 1.148zm11.823-.429a12.44 12.44 0 00-.482-1.386l-.06-.144 1.366-.567.059.144a13.884 13.884 0 01.539 1.552l.042.15-1.423.4zm-1.123-2.7a12.638 12.638 0 00-.793-1.236l-.091-.126 1.2-.87.091.126a14.077 14.077 0 01.886 1.381l.077.135-1.289.725zM4.417 13.655V7.101A7.1 7.1 0 0111.511.007h4.756v1.479h-4.756a5.621 5.621 0 00-5.615 5.615v6.554zm30.139-.917a12.478 12.478 0 00-1.058-1.018l-.119-.1.961-1.124.118.1a14.085 14.085 0 011.184 1.138l.106.114-1.086 1zm-2.229-1.906a12.522 12.522 0 00-1.267-.743l-.139-.071.673-1.317.138.071a13.836 13.836 0 011.416.832l.129.086-.822 1.228zM29.715 9.5a12.434 12.434 0 00-1.4-.426l-.152-.036.344-1.438.151.037a13.772 13.772 0 011.574.477l.146.054-.512 1.387zM17.777 1.486V.007h2.031v1.479z" fill="#275b7c"/></svg>