<svg xmlns="http://www.w3.org/2000/svg" width="40.673" height="46.596"><path d="M31.924 29.818a8.173 8.173 0 108.168 8.174 8.172 8.172 0 00-8.168-8.174zm.078 10.116a1.73 1.73 0 111.729-1.731 1.73 1.73 0 01-1.729 1.731zM14.733 22.658h3.833v3.834h-3.833z" fill="#ef8975"/><path d="M30.855 46.596a9.815 9.815 0 119.815-9.815 9.826 9.826 0 01-9.815 9.815zm0-18.116a8.3 8.3 0 108.3 8.3 8.31 8.31 0 00-8.3-8.3zm0 15.747a7.454 7.454 0 01-7.446-7.446v-.159h1.513v.159a5.939 5.939 0 005.932 5.932h.16v1.513zm1.279-4.818a2.669 2.669 0 01-1.195.283 2.676 2.676 0 01-.757-5.239v-5.221h1.514v5.217a2.673 2.673 0 011.546 3.924l3.138 3.138-1.07 1.07zm-1.195-3.553a1.11 1.11 0 00-1.15 1.164 1.2 1.2 0 00.287.8 1.165 1.165 0 10.863-1.965zM5.612 42.485v-1.513h14.324v1.514zm-3.764 0v-1.513h2.515v1.514zM-.003 39.21V3.132h7.525v-.786a2.293 2.293 0 012.427-2.35 2.318 2.318 0 012.431 2.35v3.712a2.327 2.327 0 01-2.453 2.343 2.278 2.278 0 01-2.405-2.343V4.645H1.51v8.729h32.745v1.513H1.514V16.3h35V4.65h-5.733v1.413a2.326 2.326 0 01-2.453 2.343 2.278 2.278 0 01-2.405-2.343V2.351a2.43 2.43 0 014.858 0v.786h7.247v23.352h-1.514v-8.67h-35v19.878h18.5v1.514zm28.27-37.7a.837.837 0 00-.836.836v3.712a.85.85 0 00.925.835.829.829 0 00.905-.835V2.346c.004-.4-.258-.832-.991-.832zm-18.326 0a.829.829 0 00-.905.834v3.712a.85.85 0 00.926.835.829.829 0 00.905-.835V2.344a.85.85 0 00-.923-.828zm26.984 34.322a5.93 5.93 0 00-.41-1.348l-.064-.147 1.387-.608.064.146a7.465 7.465 0 01.513 1.692l.028.157-1.49.264zM35.8 33.269a5.914 5.914 0 00-.979-1.012l-.124-.1.955-1.174.124.1a7.446 7.446 0 011.23 1.271l.1.127-1.2.915zm-23.4.089v-5.137h5.137v5.137zm3.623-1.514v-2.112h-2.11v2.109zM4.735 33.358v-5.137h5.137v5.137zm3.623-1.514v-2.112H6.255v2.109zm25.268-.339a5.936 5.936 0 00-1.335-.448l-.156-.032.308-1.482.156.032a7.488 7.488 0 011.677.563l.144.068-.649 1.368zm-5.9-6.091v-5.137h5.137v5.137zm3.623-1.513v-2.11h-2.104v2.11zm-11.287 1.513v-5.137h5.136v5.137zm3.623-1.513v-2.11h-2.109v2.11zm-11.287 1.513v-5.137h5.137v5.137zm3.623-1.513v-2.11h-2.11v2.11zM4.733 25.414v-5.137H9.87v5.137zm3.623-1.513v-2.11H6.255v2.11zm19.866-12.383a4.3 4.3 0 01-4.289-4.479l.008-.159 1.511.07-.008.159A2.779 2.779 0 1031 7.225v-.16h1.514v.16a4.3 4.3 0 01-4.287 4.292zm-18.186 0a4.3 4.3 0 01-4.289-4.474l.006-.159 1.512.058-.006.159a2.78 2.78 0 105.556.122v-.16h1.514v.16a4.3 4.3 0 01-4.288 4.293zm3.15-6.867V3.132h11.816v1.514z" fill="#275b7c"/></svg>