<svg xmlns="http://www.w3.org/2000/svg" width="41.64" height="43.568"><path d="M33.675 15.94l-.19-1.607a7.536 7.536 0 01-6.964-6.278h-9.074a7.355 7.355 0 01-6.9 6.354l-.177 1.492a17.575 17.575 0 001.136 8.8 16.073 16.073 0 004.632 6.332l5.921 4.829 5.878-4.823a16.1 16.1 0 004.61-6.325 17.589 17.589 0 001.128-8.774zm-6.323 6.917l-1.377 1.174-4.019 3.427-5.314-5.819v-4.372l5.7 6.27 5.012-4.242z" fill="#b0e55c"/><path d="M15.565 42.344l.97-1.189 1.5 1.225-.97 1.188zM10.933 34.8a24.229 24.229 0 01-8.419-21.863l.649-5.458.176.041a10.165 10.165 0 002.3.282A5.671 5.671 0 009.268 6.66c1.9-1.511 2.159-4.016 2.159-6.5v-.161h15.678v1.535H12.938c-.237 4.9-2.965 7.827-7.322 7.827a10.433 10.433 0 01-1.125-.063c-.043.356-.089.716-.135 1.081-.532 4.2-1.135 8.965 1.252 14.679 2.271 5.435 4.938 7.571 11.381 12.734 1.082.867 2.267 1.816 3.571 2.879l8.6-7.058a22.718 22.718 0 007.823-20.446l-.461-3.9c-.264.018-.526.027-.782.027-4.873 0-7.782-3.187-7.782-8.527V.606h1.534v.161a7.453 7.453 0 001.691 5.252 5.885 5.885 0 004.5 1.723 11.183 11.183 0 002-.193l.17-.031.02.171q.1.871.211 1.724c.655 5.232 1.274 10.175-1.256 16.25-2.417 5.8-5.264 8.1-12.143 13.638a516.255 516.255 0 00-4.032 3.269l-.1.084zm2.129 5.5l.969-1.189 1.5 1.224-.969 1.189zm-2.5-2.043l.97-1.188 1.5 1.225-.97 1.189zm-1.26-1.028c-.366-.3-.682-.554-1.128-.954l-.12-.107 1.023-1.143.12.107c.421.377.707.61 1.069.9l.264.215-.969 1.189zm11.154-.151c-1.056-.861-2.019-1.632-2.9-2.338-5.163-4.133-7.519-6.02-9.459-10.705A21.739 21.739 0 016.962 12.29l.088-.721.131-.011c4.389-.373 6.728-2.529 7.584-6.989l.025-.131h11.364l.026.129c.878 4.316 3.241 6.449 7.663 6.917l.128.013.015.128c.024.209.052.428.081.658a21.778 21.778 0 01-1.124 11.766c-1.93 4.677-4.272 6.562-9.4 10.693a379.14 379.14 0 00-2.881 2.336l-.1.084zM8.404 13.164a19.54 19.54 0 001.109 10.284c1.787 4.316 4.057 6.131 8.579 9.748a262.9 262.9 0 012.463 1.984c.691-.565 1.376-1.11 2.048-1.644 6.326-5.031 11.327-9.008 9.986-20.658a9.068 9.068 0 01-7.672-6.906h-8.876a8.774 8.774 0 01-7.615 7zM6.965 35.126c-.386-.4-.764-.809-1.123-1.229l-.1-.123 1.165-1 .105.123c.337.394.692.782 1.055 1.155l.113.116-1.1 1.072zm27.387-2.485l.1-.125c.481-.591.918-1.15 1.23-1.574l.1-.131 1.237.908-.1.13a42.426 42.426 0 01-1.278 1.636l-.1.125zm-29.55-.042c-.329-.439-.65-.9-.956-1.359l-.089-.135 1.281-.844.089.135c.287.435.59.867.9 1.282l.1.129-1.228.921zm31.447-3.014l.082-.139a27.283 27.283 0 003.772-13.943v-.161h1.535v.161a28.822 28.822 0 01-3.987 14.727l-.082.139zm-33.272.239a30.02 30.02 0 01-.74-1.38l-.143-.287a28.636 28.636 0 01-2.058-5.716l-.038-.157 1.49-.364.038.157a27.12 27.12 0 002.013 5.544c.237.478.517 1 .767 1.439l.08.14-1.33.763zm10.884-9.214v-7.223l7.281 8.012 6.366-5.389v5.716h-1.533v-2.407l-4.97 4.207-5.607-6.17v2.663l5.309 5.814 4.1-3.5 1 1.167-5.232 4.462z" fill="#275b7c"/></svg>