<svg width="35" height="34" fill="none" xmlns="http://www.w3.org/2000/svg"><path fill-rule="evenodd" clip-rule="evenodd" d="M0 8a2 2 0 012-2h14a2 2 0 012 2v24a2 2 0 01-2 2H2a2 2 0 01-2-2V8zm2 0h14v21H2V8zm9 23H7v1h4v-1z" fill="#434445"/><g filter="url(#filter0_d)"><path d="M7 17.533V3a2 2 0 012-2h22a2 2 0 012 2v12.432a2 2 0 01-2 2H13.16a2 2 0 00-1.19.392l-1.78 1.317c-1.32.977-3.19.034-3.19-1.608z" fill="#017DD6"/></g><path d="M9 5l11 6 11-6" stroke="#fff" stroke-linecap="round"/><defs><filter id="filter0_d" x="5" y="0" width="30" height="22.537" filterUnits="userSpaceOnUse" color-interpolation-filters="sRGB"><feFlood flood-opacity="0" result="BackgroundImageFix"/><feColorMatrix in="SourceAlpha" values="0 0 0 0 0 0 0 0 0 0 0 0 0 0 0 0 0 0 127 0"/><feOffset dy="1"/><feGaussianBlur stdDeviation="1"/><feColorMatrix values="0 0 0 0 0 0 0 0 0 0 0 0 0 0 0 0 0 0 0.25 0"/><feBlend in2="BackgroundImageFix" result="effect1_dropShadow"/><feBlend in="SourceGraphic" in2="effect1_dropShadow" result="shape"/></filter></defs></svg>