<svg width="16" height="16" fill="none" xmlns="http://www.w3.org/2000/svg"><circle cx="8" cy="8" r="8" fill="#ED9339"/><path d="M8.8 6.25v-3c0-.412.36-.75.8-.75.44 0 .8.338.8.75v3m0 .25V4.25c0-.413.36-.75.8-.75.44 0 .8.337.8.75V7.5m0-1.25v3.754C12 11.652 10.562 13 8.804 13H7.196C5.438 13 4 11.652 4 10.004V8m4.8-1.5V2.75C8.8 2.337 8.44 2 8 2c-.44 0-.8.337-.8.75V6.5m.533 3.5c0-1.105-.955-2-2.133-2V5.75c0-.412-.36-.75-.8-.75-.44 0-.8.338-.8.75v2.5m1.6-.5v-4.5c0-.412.36-.75.8-.75.44 0 .8.338.8.75V6.5" stroke="#fff" stroke-miterlimit="10" stroke-linecap="round" stroke-linejoin="round"/></svg>