<svg width="16" height="14" fill="none" xmlns="http://www.w3.org/2000/svg"><path fill-rule="evenodd" clip-rule="evenodd" d="M13.52.844A1.268 1.268 0 0012.312 0h-9.34c-.561 0-1.028.351-1.207.844L0 5.852v6.687c0 .46.382.836.85.836h.848c.467 0 .85-.376.85-.836v-.836h10.19v.836c0 .46.382.836.85.836h.849a.845.845 0 00.849-.836V5.852L13.519.844zm-10.25.828h8.738l.917 2.6H2.353l.917-2.6zm-1.572 8.36h11.89v-4.18H1.697v4.18zm2.123-3.345c-.704 0-1.274.562-1.274 1.254 0 .693.57 1.254 1.274 1.254.703 0 1.273-.561 1.273-1.254 0-.692-.57-1.253-1.273-1.253zm6.37 1.254c0-.692.57-1.253 1.273-1.253.704 0 1.274.56 1.274 1.253 0 .693-.57 1.254-1.274 1.254a1.264 1.264 0 01-1.274-1.254z" fill="#2158F5"/></svg>