<svg width="19" height="13" fill="none" xmlns="http://www.w3.org/2000/svg"><path fill-rule="evenodd" clip-rule="evenodd" d="M14.734.317C14.506.127 14.245 0 14 0h-3.5v1h3.466a.525.525 0 01.126.084c.116.097.285.289.46.64.422.842.885 1.42 1.095 1.63l2.207 2.207a.5.5 0 01.146.354V6.5h1v-.585a1.5 1.5 0 00-.44-1.061l-.51-.51a.962.962 0 00.45-.843v-1h-2.276a6.699 6.699 0 01-.777-1.224c-.224-.449-.472-.757-.713-.96z" fill="#fff"/><path d="M7.5 0h3v1h-3V0z" fill="#fff"/><path fill-rule="evenodd" clip-rule="evenodd" d="M15.5 4.5h-12l1-1h10.395l.605 1zm0 6a.5.5 0 01-.5.5H4a.5.5 0 010-1h11a.5.5 0 01.5.5z" fill="#fff"/><path fill-rule="evenodd" clip-rule="evenodd" d="M4.465.266A2.07 2.07 0 015.5 0h3v1h-3a1.07 1.07 0 00-.54.135c-.167.095-.352.267-.513.59-.42.84-.884 1.42-1.093 1.629l-1 1-1.208 1.207A.5.5 0 001 5.915V11.5h2.5l.005-.002.006-.001a.064.064 0 00.01-.003c.001-.001.001-.002 0 0l-.007.006H4.5a.962.962 0 01-.395.805c-.208.15-.441.195-.605.195H1c-.372 0-.689-.135-.866-.43A1.073 1.073 0 010 11.512V5.915c0-.398.158-.78.44-1.06l.51-.512A.962.962 0 01.5 3.5v-1h2.276a6.63 6.63 0 00.777-1.223c.24-.478.554-.806.912-1.01z" fill="#fff"/><path d="M4.801 6.434l-2.35-.784a.342.342 0 00-.45.325A1.024 1.024 0 003.025 7H4.71a.29.29 0 00.091-.566zM6.5 8.5A.5.5 0 017 8h5a.5.5 0 010 1H7a.5.5 0 01-.5-.5zM14.535.266A2.07 2.07 0 0013.5 0h-3v1h3c.184 0 .368.037.54.135.167.095.352.267.513.59.42.84.884 1.42 1.094 1.629l1 1 1.207 1.207a.5.5 0 01.146.354V11.5h-2.5l-.005-.002-.006-.001a.067.067 0 01-.01-.003c-.001-.001-.001-.002 0 0l.007.006H14.5a.96.96 0 00.395.805c.208.15.441.195.605.195H18c.372 0 .689-.135.866-.43.136-.228.134-.477.134-.558V5.915a1.5 1.5 0 00-.44-1.061l-.51-.51a.962.962 0 00.45-.843v-1h-2.276a6.699 6.699 0 01-.777-1.224c-.239-.478-.554-.806-.912-1.01z" fill="#fff"/><path d="M14.408 6.434l2.351-.784a.342.342 0 01.45.325A1.025 1.025 0 0116.184 7H14.5a.29.29 0 01-.092-.566z" fill="#fff"/></svg>