<svg width="120" height="90" fill="none" xmlns="http://www.w3.org/2000/svg"><path d="M0 0h120v90H0V0z" fill="#0F47AF"/><path d="M0 30h120v30H0V30z" fill="#fff"/><path fill-rule="evenodd" clip-rule="evenodd" d="M59.87 53c.23 0 .48 0 1.52-.25s1.9-.88 2.1-.97c.2-.1.5-.07.5-.07a1.26 1.26 0 00-.88-.4c-.46 0-.28 0-.66.16-.39.15-1.19.64-2.54.64h-.03c-1.35 0-2.2-.49-2.58-.64-.38-.17-.2-.17-.66-.17-.45 0-.77.3-.88.41 0 0 .3-.02.5.07.2.09 1.06.72 2.1.97s1.29.25 1.51.25z" fill="#fff"/><path fill-rule="evenodd" clip-rule="evenodd" d="M55.87 52.12c.11-.07-.02-.25-.02-.25l.4-.1c-.2-.08-.5-.06-.5-.06-.07.07-.06.15-.07.2 0 .06 0 .15.04.2.04.04.15 0 .15 0z" fill="#fff"/><path fill-rule="evenodd" clip-rule="evenodd" d="M56.26 51.78l-.41.09s.13.18.02.25l.73-.14-.34-.2zm7.61.34c-.1-.07.02-.25.02-.25l-.4-.1c.2-.08.5-.06.5-.06.08.07.06.15.08.2 0 .06 0 .15-.04.2-.05.04-.16 0-.16 0z" fill="#fff"/><path fill-rule="evenodd" clip-rule="evenodd" d="M63.49 51.78l.4.09s-.13.18-.02.25l-.72-.14s.11-.08.34-.2zM59.87 37.1l.07.08c.2-.21.22-.66.22-.66l-.13-.9s-.09.6-.16.88c-.06.27-.24.65-.27.73-.13.32-.04.36-.03.37l.3-.5zm0 14.58c-.01 0-.03-.03-.05-.03-.06-.04-.17-.04-.2-.07-.15-.18-.05-.52.02-.73.13-.39.15-.74.23-1.12.1.38.11.73.23 1.12.08.21.18.55.02.73-.03.03-.13.03-.2.07-.01 0-.03.03-.05.03z" fill="#fff"/><path fill-rule="evenodd" clip-rule="evenodd" d="M59.1 38.38c-.06-.14-.08-1.1-.06-1.25.02-.26.46-1.54.56-1.69.1-.15.07-.18.1-.27l.14-.18c.1.17.17.42.19.62 0 0-.09.61-.16.89-.07.27-.24.65-.27.73-.09.19-.08.36-.03.37l-.48.78zm.84-1.2c.2-.21.22-.66.22-.66s.14.73.06.89c-.08.15-.08.1-.06.19l-.22-.42zm-.07 12.54c.09.37.11.75.23 1.14.07.2.17.5.05.68.06 0 .11-.02.16-.04.02 0 .04-.01.05-.03a.28.28 0 01.07-.08c.04-.03.09 0 .12-.03l.03-.03c.08-.04.16-.09.19-.17a.37.37 0 00.01-.19c0-.04-.02-.08-.04-.12l-.07-.17-.1-.17a.35.35 0 00-.04-.09l-.05-.07-.06-.08-.05-.04c-.01 0-.04-.01-.04-.03l-.04-.02-.15-.28a.43.43 0 01-.03-.18h-.24zm0 0c-.08.37-.1.75-.23 1.14-.06.2-.16.5-.04.68-.06 0-.11-.02-.17-.04-.02 0-.03-.01-.05-.03a.2.2 0 00-.07-.08c-.03-.03-.08 0-.12-.03l-.03-.03c-.08-.04-.15-.09-.18-.17a.37.37 0 01-.01-.19l.03-.12.08-.17.1-.17a.35.35 0 01.04-.09l.05-.07c0-.03.04-.05.06-.08l.05-.04s.04-.01.03-.03l.04-.02.15-.28a.43.43 0 00.04-.18h.23z" fill="#00209F"/><path fill-rule="evenodd" clip-rule="evenodd" d="M56.66 42.45a3.77 3.77 0 01-.15-1.59l.68.75-.53.84zm-2.8 1.04l-.04-.65c.01-.77-.08-1.2 0-2 .07-.65.23-1.49.2-2.18-.02-.2.02-.39.03-.58l1.36 1.53c-.1 1.1-.08 1.41-.13 2.48-.01.26.22 1.39.44 1.94l-.28.48-1.58-1.02zm.96 2.06c-.1-.15-.17-.58-.19-.66a2.8 2.8 0 01-.03-.75l.75.5-.53.91zm-2.16 3.6a.78.78 0 01-.27-.33c-.09-.26-.07-.25-.14-.54-.03-.16-.03-.34-.07-.51-.04-.17-.28-.71-.28-.93-.03-.71-.26-1.2-.2-1.97.03-.6.17-1.41.1-2.03-.01-.17.01-.37.02-.54l1.53 1c-.05 1.03-.03 1.32-.03 2.31 0 .25.21 1.22.47 1.66l-1.13 1.88zm2.56.57c.28.26.8.4.9.46.18.13.46.34.94.36.35.03.5-.06.86-.1.41-.06-.05 0 .35-.08.2-.05.2-.08.47-.15.2-.05.4-.1.53-.27.05-.06.09-.11.1-.22h.27c.02.08-.06.23-.08.28l-.07.1c-.04.08-.04.06-.1.13l-.14.1c-.05.04-.1.09-.16.1-.27.04-.38.1-.63.17-.24.07-.11.06-.3.1-.09.02-.27.1-.36.1l-.36.1c-.43.1-.86.07-1.29.05-.17-.02-.6-.1-.75-.21-.27-.2-.85-.26-1.11-.45l-.24-.13c-.25-.21-.45-.27-.72-.44h1.89z" fill="#00209F"/><path fill-rule="evenodd" clip-rule="evenodd" d="M57.28 49.72h2.08c0 .1-.04.16-.09.22-.12.17-.32.22-.53.27-.21.05-.43-.06-.66-.06-.55-.17-.61-.34-.8-.43zm3.42-11.34c.05-.14.07-1.1.05-1.25-.02-.26-.47-1.54-.56-1.69-.1-.15-.07-.18-.1-.27l-.14-.18c-.1.17-.17.42-.19.62 0 0 .09.61.16.89.06.27.24.65.27.73.09.19.08.36.03.37l.47.78zm-.85-1.2c-.2-.21-.22-.66-.22-.66s-.14.73-.06.89c.08.15.08.1.06.19l.22-.42zm.07 12.54c-.09.37-.11.75-.24 1.14-.06.2-.16.5-.04.68a.42.42 0 01-.16-.04c-.02 0-.04-.01-.05-.03a.28.28 0 00-.07-.08c-.04-.03-.09 0-.13-.03 0-.02-.01-.03-.02-.03-.08-.04-.16-.09-.19-.17a.37.37 0 01-.01-.19c0-.04.02-.08.04-.12l.07-.17.1-.17a.35.35 0 01.04-.09l.05-.07c0-.03.04-.05.06-.08l.05-.04c.01 0 .04-.01.04-.03l.04-.02c.05-.1.1-.17.14-.28a.43.43 0 00.04-.18h.24zm0 0c.08.37.1.75.23 1.14.06.2.16.5.04.68.06 0 .11-.02.17-.04l.05-.03a.2.2 0 01.07-.08c.03-.03.08 0 .12-.03 0-.02.02-.03.03-.03.08-.04.15-.09.18-.17a.37.37 0 00.01-.19c0-.04-.02-.08-.04-.12l-.07-.17-.1-.17a.35.35 0 00-.04-.09l-.05-.07c0-.03-.04-.05-.06-.08l-.05-.04s-.04-.01-.04-.03l-.03-.02-.15-.28a.43.43 0 01-.04-.18h-.23z" fill="#00209F"/><path fill-rule="evenodd" clip-rule="evenodd" d="M63.13 42.45a3.76 3.76 0 00.15-1.59l-.68.75.53.84zm2.8 1.04l.04-.65c-.01-.77.08-1.2 0-2-.07-.65-.23-1.49-.2-2.18.02-.2-.02-.39-.03-.58l-1.36 1.53c.1 1.1.08 1.41.13 2.48.01.26-.22 1.39-.45 1.94l.3.48 1.57-1.02zm-.96 2.06c.09-.15.17-.58.19-.66.04-.23.04-.36.03-.75l-.75.5.53.91zm2.15 3.6c.09-.05.23-.2.28-.33.09-.26.07-.25.13-.54.04-.16.04-.34.08-.51.04-.17.28-.71.28-.93.03-.71.26-1.2.2-1.97-.03-.6-.17-1.41-.1-2.03.01-.17-.01-.37-.02-.54l-1.54 1c.06 1.03.04 1.32.04 2.31 0 .25-.21 1.22-.47 1.66l1.12 1.88zm-2.55.57c-.28.26-.81.4-.9.46-.18.13-.46.34-.94.36-.35.03-.5-.06-.86-.1-.41-.06.05 0-.35-.08-.2-.05-.2-.08-.47-.15-.2-.05-.4-.1-.53-.27a.349.349 0 01-.1-.22h-.27c-.02.08.06.23.08.28l.07.1c.04.08.04.06.1.13l.14.1c.05.04.1.09.16.1.27.04.38.1.63.17.24.07.11.06.3.1.09.02.27.1.36.1l.36.1c.43.1.86.07 1.29.05.17-.02.6-.1.75-.21.27-.2.85-.26 1.11-.45l.24-.13c.25-.21.45-.27.72-.44h-1.89z" fill="#00209F"/><path fill-rule="evenodd" clip-rule="evenodd" d="M62.5 49.72h-2.07c0 .1.04.16.09.22.12.17.32.22.53.27.21.05.43-.06.66-.06.55-.17.61-.34.8-.43z" fill="#00209F"/><path fill-rule="evenodd" clip-rule="evenodd" d="M55.35 44.64l.09-.12-3.59-2.35-.06.1 3.56 2.37zm1.84-3.03l.1-.09-3.2-3.56-.07.08 3.17 3.57z" fill="#FC0"/><path d="M59.87 37.92l-6.8 11.4h13.61l-6.81-11.4z" fill="#fff"/><path d="M58.5 40c.27-.75 1.5-2 3 0" stroke="#4374F0" stroke-width=".25"/><path d="M59.87 37.1l-7.54 12.62h15.09L59.87 37.1z" stroke="#FC0" stroke-width=".5" stroke-miterlimit="2.61"/><path d="M55.08 45.93l-2.02 3.38h13.62l-2.02-3.38h-9.58z" fill="#007E93" stroke="#007E93" stroke-width=".21" stroke-miterlimit="2.61"/><path fill-rule="evenodd" clip-rule="evenodd" d="M54.57 46.77c.07.02.22-.1.27-.14.06-.04.1-.14.15-.19.05-.06.2-.13.28-.17.31-.2.45-.31.67-.6.3-.4.64-.73 1.07-.97.13-.08.34-.06.5.01l.15.11c.18.14.43.25.73.34.28.08.35.27.58.47.1.1.23.19.37.25l.06.07c.13.1.27.17.38.27l.6.58c.03.03.04.1.08.12.15.15.29.3.47.38l.52.31c-1.74.07-3.33-.04-5.07 0-.04.02-.06 0-.32 0l-.34.02-1.64-.02.5-.84z" fill="#FC0"/><path fill-rule="evenodd" clip-rule="evenodd" d="M61.37 47.57c-.14-.1-.28-.2-.44-.27-.18-.08-.32-.23-.47-.38-.04-.02-.05-.09-.08-.12l-.6-.58c-.11-.1-.25-.18-.38-.27l-.06-.07a1.6 1.6 0 01-.37-.25c-.15-.13-.23-.26-.36-.35l.01-.01c.07-.06.15-.1.24-.14.1-.07.28-.05.4.01.04.01.1.05.14.08.15.13.35.21.6.3.24.06.3.22.49.38.09.09.19.16.3.21l.05.06c.11.08.23.14.33.23.17.15.33.3.5.48.02.02.02.08.06.1.12.12.24.24.4.31l.42.26c-.4.02-.78.02-1.16.02h-.02z" fill="#FC0"/><path fill-rule="evenodd" clip-rule="evenodd" d="M59.83 45.46l.17.05c.24.07.3.23.49.4.09.08.19.15.3.2l.05.06c.11.08.23.14.33.23.17.15.33.3.49.48.03.02.03.08.06.1.13.12.25.24.4.31.13.06.24.15.36.22.32 0 .64 0 .97-.02-.13-.08-.25-.17-.4-.23-.13-.07-.23-.18-.35-.3-.03-.01-.03-.06-.06-.08l-.45-.44c-.09-.08-.2-.14-.29-.2l-.05-.06c-.1-.05-.2-.11-.28-.19-.17-.15-.22-.3-.44-.36a1.7 1.7 0 01-.55-.25l-.11-.08c-.12-.06-.28-.08-.38-.02-.1.06-.18.11-.26.18z" fill="#FC0"/><path fill-rule="evenodd" clip-rule="evenodd" d="M61.42 45.83l.15.16c.09.08.18.14.28.2l.05.04c.1.07.2.13.29.21l.45.44c.03.02.03.07.06.09.12.1.22.22.36.29l.25.14h1.14c-.1-.07-.2-.15-.32-.2-.1-.06-.2-.15-.29-.23l-.05-.08-.36-.35c-.07-.07-.16-.11-.23-.17-.02 0-.04-.03-.04-.04-.09-.04-.16-.1-.23-.15-.14-.12-.18-.24-.35-.3a1.37 1.37 0 01-.45-.2l-.1-.07c-.1-.03-.21-.05-.3 0a1.8 1.8 0 00-.31.21v.01z" fill="#FC0"/><path fill-rule="evenodd" clip-rule="evenodd" d="M64.37 47.34l-.24-.14c-.1-.06-.2-.15-.29-.23l-.05-.08-.36-.35c-.07-.07-.16-.11-.23-.17-.02 0-.04-.03-.04-.04-.09-.04-.16-.1-.23-.15-.12-.1-.16-.2-.28-.27v.01c.06-.04.13-.09.2-.12.07-.05.18-.03.26 0l.08.06c.1.07.22.13.38.18.15.04.19.14.3.25.06.05.13.1.2.13l.03.03c.07.05.14.09.2.15l.31.3c.02.02.02.05.04.06.08.07.16.15.25.2l.27.16-.8.01v.01z" fill="#FC0"/><circle cx="60" cy="45" r="12.63" stroke="#FC0"/><path d="M70 46c0 4.97-4.48 9-10 9s-10-4.03-10-9" stroke="#090"/></svg>