<svg width="20" height="20" fill="none" xmlns="http://www.w3.org/2000/svg"><path d="M13.75 10a4.583 4.583 0 110 9.167 4.583 4.583 0 010-9.167zM10 1.25a2.917 2.917 0 012.917 2.917h4.166a.833.833 0 110 1.666h-.704l-.376 3.823a5.417 5.417 0 00-6.162 8.677H6.927a2.292 2.292 0 01-2.28-2.067L3.62 5.833h-.704a.833.833 0 110-1.666h4.166A2.917 2.917 0 0110 1.25zm1.43 10.907l-.058.048-.048.058a.417.417 0 000 .474l.048.058 1.789 1.788-1.789 1.789-.048.058a.417.417 0 000 .474l.048.057.058.049a.417.417 0 00.474 0l.057-.049 1.789-1.788 1.789 1.788.057.049a.417.417 0 00.474 0l.058-.049.048-.057a.417.417 0 000-.474l-.048-.058-1.789-1.789 1.789-1.788.048-.058a.417.417 0 000-.474l-.048-.058-.058-.048a.417.417 0 00-.474 0l-.057.048-1.789 1.79-1.789-1.79-.057-.048a.417.417 0 00-.41-.036l-.064.036zM10 2.917c-.69 0-1.25.56-1.25 1.25h2.5c0-.69-.56-1.25-1.25-1.25z" fill="#B20"/></svg>