<svg xmlns="http://www.w3.org/2000/svg" width="22" height="22.001"><g data-name="Group 1" transform="translate(-882 -510)"><rect data-name="Rectangle 2" width="22" height="22" rx="5" transform="translate(882 510)" fill="#fff"/><path d="M902.805 510.001h-19.614a1.233 1.233 0 00-1.191 1.191v19.618a1.19 1.19 0 001.191 1.191h10.527v-8.524h-2.882v-3.322h2.883v-2.445a4.017 4.017 0 014.261-4.387 19.6 19.6 0 012.564.125v2.946h-1.75c-1.379 0-1.629.627-1.629 1.63v2.131h3.321l-.442 3.322h-2.879v8.524h5.64a1.19 1.19 0 001.191-1.191v-19.618a1.151 1.151 0 00-1.191-1.191z" fill="#3b5998"/></g></svg>