<svg width="24" height="24" fill="none" xmlns="http://www.w3.org/2000/svg"><path d="M12 24a12 12 0 100-24 12 12 0 000 24z" fill="url(#paint0_linear)"/><path d="M9.8 17.5c-.39 0-.32-.15-.46-.52L8.2 13.22 17 8" fill="#C8DAEA"/><path d="M9.8 17.5c.3 0 .43-.14.6-.3l1.6-1.56-2-1.2" fill="#A9C9DD"/><path d="M10 14.44l4.84 3.57c.55.3.95.15 1.09-.5l1.97-9.28c.2-.81-.31-1.18-.84-.94L5.5 11.75c-.79.31-.78.75-.14.95l2.96.93 6.87-4.34c.33-.2.62-.09.38.13" fill="url(#paint1_linear)"/><defs><linearGradient id="paint0_linear" x1="16.01" y1="4.01" x2="10.01" y2="18" gradientUnits="userSpaceOnUse"><stop stop-color="#37AEE2"/><stop offset="1" stop-color="#1E96C8"/></linearGradient><linearGradient id="paint1_linear" x1="13.5" y1="12" x2="15.38" y2="16.27" gradientUnits="userSpaceOnUse"><stop stop-color="#EFF7FC"/><stop offset="1" stop-color="#fff"/></linearGradient></defs></svg>