<svg width="24" height="24" fill="none" xmlns="http://www.w3.org/2000/svg"><circle cx="12" cy="12" r="12" fill="#7360F2"/><path d="M17.59 6.32c-.38-.36-1.9-1.5-5.3-1.5 0 0-4-.26-5.97 1.58-1.09 1.12-1.47 2.76-1.51 4.78-.04 2.03-.1 5.82 3.47 6.85v1.57s0 .64.38.77c.5.16.78-.33 1.26-.85l.88-1.03c1.51.15 3.04.04 4.52-.34.49-.16 3.27-.52 3.73-4.33.48-3.9-.22-6.38-1.46-7.5zm.4 7.23c-.38 3.16-2.63 3.36-3.05 3.5-1.27.32-2.58.44-3.88.34 0 0-1.55 1.9-2.03 2.41a.26.26 0 01-.22.1c-.08-.03-.1-.13-.1-.27v-2.61c-3.02-.87-2.84-4.1-2.8-5.79.03-1.69.34-3.08 1.26-4.01 1.64-1.54 5.05-1.3 5.05-1.3 2.87 0 4.24.9 4.56 1.2 1.07.93 1.6 3.15 1.22 6.43z" fill="#fff"/><path d="M13.69 11.29a.19.19 0 01-.14-.06.2.2 0 01-.06-.13.97.97 0 00-.25-.74.92.92 0 00-.71-.29.2.2 0 01-.13-.07.2.2 0 01.01-.28.19.19 0 01.14-.05 1.26 1.26 0 01.97.41 1.33 1.33 0 01.35 1.09.2.2 0 01-.1.11.2.2 0 01-.07.02l-.01-.01z" fill="#fff"/><path d="M14.67 11.63a.19.19 0 01-.13-.06.2.2 0 01-.05-.14 2.33 2.33 0 00-.58-1.67 2.36 2.36 0 00-1.67-.75.19.19 0 01-.15-.06.2.2 0 01-.06-.15.2.2 0 01.08-.15.19.19 0 01.16-.03c.73.02 1.42.33 1.93.87a2.72 2.72 0 01.65 2 .2.2 0 01-.1.12.18.18 0 01-.08.02z" fill="#fff"/><path d="M15.68 12.04a.19.19 0 01-.14-.06.2.2 0 01-.05-.14A3.87 3.87 0 0014.45 9a3.53 3.53 0 00-2.54-1.03.19.19 0 01-.14-.06.2.2 0 010-.28.19.19 0 01.14-.06 3.84 3.84 0 013.7 2.58c.2.53.28 1.1.26 1.67a.2.2 0 01-.06.14.19.19 0 01-.14.06v.02zm-3.1 1.7a.51.51 0 00.41-.17l.29-.36c.1-.11.23-.19.37-.2a.6.6 0 01.41.09 7.97 7.97 0 011.36 1.01c.1.09.17.21.2.34.02.14-.01.28-.08.39-.16.28-.36.53-.6.75-.16.15-.37.26-.6.3h-.08a.78.78 0 01-.25-.04 8.85 8.85 0 01-1.65-.79 9.6 9.6 0 01-2-1.5h-.02a10.32 10.32 0 01-1.47-2.06c-.3-.54-.56-1.1-.75-1.7a.88.88 0 01-.05-.35c.04-.23.14-.45.3-.62.17-.27.39-.51.64-.72a.53.53 0 01.71.12l.53.67c.15.2.35.54.46.73a.66.66 0 01-.11.81l-.36.29a.55.55 0 00-.16.43 3.84 3.84 0 002.5 2.58z" fill="#fff"/></svg>