<svg width="40" height="40" fill="none" xmlns="http://www.w3.org/2000/svg"><rect width="40" height="40" rx="20" fill="#7360F2"/><circle cx="20" cy="20" r="15" fill="#7360F2"/><path d="M26.982 12.903c-.471-.448-2.377-1.87-6.62-1.889 0 0-5.005-.312-7.462 1.99-1.36 1.398-1.837 3.44-1.889 5.972-.051 2.532-.114 7.277 4.335 8.564v1.965s0 .797.482.956c.614.2.976-.407 1.567-1.056.322-.36.77-.885 1.102-1.287 1.893.182 3.802.038 5.649-.425.614-.206 4.093-.66 4.661-5.412.603-4.892-.264-7.985-1.825-9.378zm.516 9.03c-.482 3.96-3.3 4.208-3.817 4.38a15.35 15.35 0 01-4.862.43s-1.93 2.36-2.532 3.01a.33.33 0 01-.275.118c-.104-.03-.133-.153-.133-.336V26.27c-3.765-1.08-3.547-5.117-3.501-7.23.046-2.113.43-3.848 1.578-5.017 2.061-1.918 6.315-1.634 6.315-1.634 3.588 0 5.31 1.127 5.706 1.499 1.338 1.168 2.01 3.954 1.521 8.044z" fill="#fff"/><path d="M22.107 19.112a.238.238 0 01-.166-.069.25.25 0 01-.075-.167 1.211 1.211 0 00-.316-.927 1.119 1.119 0 00-.89-.36.24.24 0 01-.166-.083.253.253 0 01.02-.35.237.237 0 01.175-.063 1.59 1.59 0 011.212.507 1.676 1.676 0 01.448 1.263.254.254 0 01-.063.18.24.24 0 01-.167.08l-.012-.011z" fill="#fff"/><path d="M23.341 19.537a.234.234 0 01-.169-.077.25.25 0 01-.066-.177 2.918 2.918 0 00-.154-1.116 2.86 2.86 0 00-.564-.967 2.953 2.953 0 00-2.09-.938.236.236 0 01-.186-.073.249.249 0 01-.07-.193.253.253 0 01.096-.18.238.238 0 01.195-.044 3.441 3.441 0 012.411 1.091c.576.658.876 1.524.832 2.408a.25.25 0 01-.06.187.235.235 0 01-.175.079z" fill="#fff"/><path d="M24.599 20.044a.238.238 0 01-.17-.072.251.251 0 01-.071-.176c.033-.65-.064-1.3-.286-1.909a4.74 4.74 0 00-1.006-1.632 4.41 4.41 0 00-1.464-.975 4.312 4.312 0 00-1.716-.317.238.238 0 01-.17-.073.252.252 0 010-.35.238.238 0 01.17-.073 4.795 4.795 0 011.896.356 4.9 4.9 0 011.617 1.078 5.261 5.261 0 011.105 1.784c.247.666.36 1.376.33 2.088a.251.251 0 01-.07.175.238.238 0 01-.171.073l.006.023zm-3.875 2.126a.638.638 0 00.517-.201l.355-.46a.753.753 0 01.982-.136c.305.18.6.377.884.59.27.206.815.673.815.678a.706.706 0 01.143.909 3.783 3.783 0 01-.734.933c-.21.196-.471.325-.752.372a.312.312 0 01-.109 0 .976.976 0 01-.316-.047 11.058 11.058 0 01-2.055-.98 11.996 11.996 0 01-1.722-1.18 9.119 9.119 0 01-.775-.709h-.029a10.383 10.383 0 01-.689-.802 12.905 12.905 0 01-1.148-1.771 11.318 11.318 0 01-.947-2.113 1.105 1.105 0 01-.052-.33.617.617 0 010-.112c.045-.287.17-.554.362-.768.22-.344.494-.648.81-.903a.662.662 0 01.89.148s.459.59.654.838.436.679.574.909a.827.827 0 01-.138 1.015l-.448.36a.687.687 0 00-.195.537 4.804 4.804 0 001.164 2.018 4.62 4.62 0 001.959 1.204z" fill="#fff"/></svg>