<svg width="30" height="32" fill="none" xmlns="http://www.w3.org/2000/svg"><path d="M26.614 3.121C25.828 2.387 22.65.055 15.575.023c0 0-8.344-.509-12.412 3.265C.9 5.58.103 8.932.02 13.088c-.084 4.156-.193 11.945 7.229 14.057h.007l-.005 3.222s-.047 1.305.802 1.571c1.027.323 1.63-.669 2.61-1.738a84.138 84.138 0 001.842-2.107c5.076.432 8.98-.556 9.423-.702 1.025-.336 6.825-1.088 7.768-8.876.974-8.027-.471-13.105-3.081-15.394z" fill="#fff"/><path d="M24.963 4.742c-.664-.61-3.533-2.434-9.518-2.46 0 0-7.088-.472-10.528 2.681-1.915 1.913-2.56 4.757-2.63 8.228-.072 3.47-.438 10.101 5.838 11.865l-.028 5.355c0 .303.048.51.219.552.123.03.307-.034.463-.192 1.004-1.02 4.217-4.94 4.217-4.94 4.31.285 7.74-.576 8.109-.698.87-.283 5.573-.692 6.37-7.196.822-6.706-.303-11.282-2.512-13.195z" fill="#7360F2"/><path d="M18.488 12.905c-.078-1.587-.875-2.42-2.391-2.5m4.444 3.197c.032-1.48-.4-2.715-1.299-3.707-.902-.996-2.15-1.545-3.752-1.663" stroke="#fff" stroke-linecap="round" stroke-linejoin="round"/><path d="M22.644 14.434c-.02-2.567-.778-4.588-2.275-6.064-1.497-1.477-3.358-2.222-5.584-2.238" stroke="#fff" stroke-linecap="round" stroke-linejoin="round"/><path d="M16.176 18.327s.563.048.866-.329l.59-.752c.285-.372.972-.61 1.645-.23.505.29.994.607 1.468.947.446.333 1.361 1.105 1.364 1.105.436.372.536.918.24 1.495l-.003.012a6.221 6.221 0 01-1.229 1.53c-.005.003-.005.006-.01.01-.424.357-.84.56-1.249.61a.813.813 0 01-.182.011 1.64 1.64 0 01-.53-.082l-.014-.02c-.63-.18-1.68-.63-3.43-1.606a20.414 20.414 0 01-2.883-1.926c-.454-.362-.886-.75-1.296-1.163l-.044-.044-.043-.044-.044-.045-.044-.044a15.228 15.228 0 01-1.15-1.311 20.708 20.708 0 01-1.904-2.915c-.965-1.771-1.41-2.834-1.587-3.471l-.02-.014a1.699 1.699 0 01-.08-.537.82.82 0 01.01-.184c.051-.413.253-.834.605-1.263.002-.006.005-.006.008-.012a6.163 6.163 0 011.513-1.242l.012-.003c.57-.3 1.11-.198 1.478.24.002.003.764.928 1.091 1.38.337.48.65.975.937 1.486.375.68.14 1.377-.228 1.664l-.743.598c-.375.306-.325.875-.325.875s1.1 4.213 5.211 5.274z" fill="#fff"/></svg>