<svg xmlns="http://www.w3.org/2000/svg" width="20" height="20"><defs><style>.b{fill:#fff;fill-rule:evenodd}</style></defs><path d="M4 0h12a4 4 0 014 4v12a4 4 0 01-4 4H4a4 4 0 01-4-4V4a4 4 0 014-4z" fill="#7b519d"/><path class="b" d="M16.508 13.661c-.478-.385-.99-.731-1.493-1.084-1-.7-1.921-.76-2.67.374a1.168 1.168 0 01-1.625.385 7.2 7.2 0 01-3.775-3.679 1.416 1.416 0 01.459-1.987 1.409 1.409 0 00.81-1.247 8.427 8.427 0 00-2.8-3.817 1.418 1.418 0 00-.972 0 2.742 2.742 0 00-1.86 3.9 20.234 20.234 0 0011.213 11.265 5.17 5.17 0 00.8.226 3.643 3.643 0 002.995-2.278c.389-1.101-.433-1.536-1.082-2.058zM10.749 3.14c3.767.579 5.5 2.371 5.984 6.165.044.35-.086.878.414.888.523.01.4-.51.4-.86a7.162 7.162 0 00-6.69-7.008c-.273.039-.838-.188-.873.424-.022.41.453.343.765.391z"/><path class="b" d="M11.486 4.18c-.362-.044-.841-.214-.925.288-.088.528.445.474.787.551 2.327.52 3.137 1.367 3.52 3.675.056.336-.055.86.517.773.424-.064.271-.513.306-.776a4.745 4.745 0 00-4.205-4.511z"/><path class="b" d="M11.621 6.069c-.242.006-.479.032-.568.291-.133.386.147.478.433.524a1.7 1.7 0 011.552 1.668c.026.258.19.468.439.438.346-.041.377-.349.366-.641a2.514 2.514 0 00-2.223-2.28z"/></svg>