<svg width="31" height="30" fill="none" xmlns="http://www.w3.org/2000/svg"><g clip-path="url(#clip0)"><circle cx="15.003" cy="15" r="15" fill="#209E48"/><path fill-rule="evenodd" clip-rule="evenodd" d="M6.23 23.822c.1-.384.181-.714.276-1.05.289-1.058.586-2.117.862-3.18a.788.788 0 00-.054-.512 8.748 8.748 0 113.78 3.68.87.87 0 00-.538-.055c-2.318.59-3.861 1.022-4.326 1.117zm2.035-2.009c.869-.23 1.671-.432 2.473-.654a.728.728 0 01.6.087 7.164 7.164 0 004.845.917 7.311 7.311 0 10-7.532-3.694 1.524 1.524 0 01.162 1.388c-.225.615-.36 1.256-.548 1.956z" fill="#fff"/><path fill-rule="evenodd" clip-rule="evenodd" d="M17.307 19.123a8.463 8.463 0 01-6.3-4.65 2.628 2.628 0 01.405-3.363 1.242 1.242 0 011.125-.167c.095.013.195.162.243.27.249.565.492 1.132.708 1.705.114.31-.095.6-.538 1.098a.383.383 0 00-.06.498 5.954 5.954 0 003.031 2.607.365.365 0 00.457-.121c.701-.85.768-1.098 1.139-.93 1.765.849 1.907.881 1.914 1.078a1.917 1.917 0 01-2.124 1.976z" fill="#fff"/></g><defs><clipPath id="clip0"><path fill="#fff" d="M.003 0h30v30h-30z"/></clipPath></defs></svg>