<svg width="40" height="40" fill="none" xmlns="http://www.w3.org/2000/svg"><rect width="40" height="40" rx="20" fill="#209E48"/><rect x="3" y="3" width="34" height="34" rx="17" fill="#209E48"/><path fill-rule="evenodd" clip-rule="evenodd" d="M10.057 29.997c.114-.435.205-.809.312-1.19.329-1.198.665-2.398.978-3.604a.892.892 0 00-.061-.58 9.914 9.914 0 114.284 4.17.986.986 0 00-.61-.06c-2.627.668-4.376 1.157-4.903 1.264zm2.306-2.276c.985-.26 1.894-.49 2.804-.741a.825.825 0 01.68.098 8.12 8.12 0 005.49 1.04 8.285 8.285 0 10-8.537-4.186 1.726 1.726 0 01.184 1.572c-.255.697-.408 1.423-.62 2.217z" fill="#fff"/><path fill-rule="evenodd" clip-rule="evenodd" d="M22.61 24.673a9.593 9.593 0 01-7.14-5.27 2.978 2.978 0 01.46-3.811 1.407 1.407 0 011.274-.19c.107.015.221.183.276.306.282.64.557 1.283.802 1.932.13.352-.107.68-.61 1.245a.434.434 0 00-.068.564 6.748 6.748 0 003.436 2.955.413.413 0 00.518-.138c.794-.962.87-1.244 1.29-1.054 2.001.962 2.161 1 2.17 1.223a2.175 2.175 0 01-2.408 2.238z" fill="#fff"/></svg>