<svg xmlns="http://www.w3.org/2000/svg" width="22" height="22"><defs><linearGradient id="a" x1=".5" x2=".5" y2="1" gradientUnits="objectBoundingBox"><stop offset="0" stop-color="#f36044"/><stop offset="1" stop-color="#c71f0c"/></linearGradient><clipPath id="b"><path d="M1723.4-1497.528h-19.542v9.535h19.542z" transform="translate(-1703.861 1497.528)"/></clipPath></defs><g data-name="Group 2" transform="translate(-882 -510)"><rect data-name="Rectangle 2" width="22" height="22" rx="1.2" transform="translate(882 510)" fill="url(#a)"/><g clip-path="url(#b)" transform="translate(883.23 515.419)"><path d="M19.199 5.331c-.125-.094-.145-.109-.9-.356.65-.16.678-.177.793-.253a.87.87 0 00.38-.788v-.035a2.948 2.948 0 00-1.152-1.688.871.871 0 00-.872.052c-.12.08-.136.09-.63.765-.048-.788-.141-2.177-.164-2.307v-.03l-.007-.029a.871.871 0 00-.641-.614 3.631 3.631 0 00-2.3.649.875.875 0 00-.229.83l.015.058.026.054c.036.074.131.231.943 1.505l.3.472c-.727-.3-.756-.3-.906-.3a.856.856 0 00-.747.412v.005a1.545 1.545 0 00-.179.544 1.753 1.753 0 00-1.122-.674 1.832 1.832 0 00-1.069.105 1.054 1.054 0 00-1.081-.017.888.888 0 00-.254.214v-.433l-.034-.257-.01-.046a.944.944 0 00-.563-.63 1.063 1.063 0 00-.95.081.983.983 0 00-.474.913v.882a1.736 1.736 0 00-.413-.449 2.133 2.133 0 00-1.706-.325 1.835 1.835 0 00-.979.49l-.013-.026a.972.972 0 00-.62-.47 1.019 1.019 0 00-1.278.848l-.092.313c-.1-.193-.377-.718-.388-.734a.977.977 0 00-1.175-.358 1.01 1.01 0 00-.67.972 1.315 1.315 0 00.074.429l.012.036L1.248 7.43a.955.955 0 00-.741.824.98.98 0 00-.007.118.948.948 0 00.31.7 1.484 1.484 0 001.335.261c.6-.119.952-.483 1.2-1.255l.371-1.165a2.094 2.094 0 00.548 1.016 1.992 1.992 0 001.756.5 2 2 0 001.37-.749l.016.086a.963.963 0 00.53.6 1.029 1.029 0 00.871-.006.925.925 0 00.365-.288v.367a1 1 0 00.56.965 1.049 1.049 0 00.885.025.959.959 0 00.547-.607l.012-.041.037-.25v-.108a1.929 1.929 0 001.081-.2 1.81 1.81 0 00.394-.276h.246a.965.965 0 00.451.115.962.962 0 00.451-.115h.715a2.905 2.905 0 001.535.4.866.866 0 00.676-.55l.005-.014c.045-.131.052-.155.055-.895.406.655.427.673.541.762a.863.863 0 00.864.113 2.877 2.877 0 001.279-1.627.981.981 0 00.01-.133.858.858 0 00-.317-.672zm-7.4-1.727zm6.437 4.165" fill="#fff"/><path d="M19.199 5.331c-.125-.094-.145-.109-.9-.356.65-.16.678-.177.793-.253a.87.87 0 00.38-.788v-.035a2.948 2.948 0 00-1.152-1.688.871.871 0 00-.872.052c-.12.08-.136.09-.63.765-.048-.788-.141-2.177-.164-2.307v-.03l-.007-.029a.871.871 0 00-.641-.614 3.631 3.631 0 00-2.3.649.875.875 0 00-.229.83l.015.058.026.054c.036.074.131.231.943 1.505l.3.472c-.727-.3-.756-.3-.906-.3a.856.856 0 00-.747.412v.005a1.545 1.545 0 00-.179.544 1.753 1.753 0 00-1.122-.674 1.832 1.832 0 00-1.069.105 1.054 1.054 0 00-1.081-.017.888.888 0 00-.254.214v-.433l-.034-.257-.01-.046a.944.944 0 00-.563-.63 1.063 1.063 0 00-.95.081.983.983 0 00-.474.913v.882a1.736 1.736 0 00-.413-.449 2.133 2.133 0 00-1.706-.325 1.835 1.835 0 00-.979.49l-.013-.026a.972.972 0 00-.62-.47 1.019 1.019 0 00-1.278.848l-.092.313c-.1-.193-.377-.718-.388-.734a.977.977 0 00-1.175-.358 1.01 1.01 0 00-.67.972 1.315 1.315 0 00.074.429l.012.036L1.248 7.43a.955.955 0 00-.741.824.98.98 0 00-.007.118.948.948 0 00.31.7 1.484 1.484 0 001.335.261c.6-.119.952-.483 1.2-1.255l.371-1.165a2.094 2.094 0 00.548 1.016 1.992 1.992 0 001.756.5 2 2 0 001.37-.749l.016.086a.963.963 0 00.53.6 1.029 1.029 0 00.871-.006.925.925 0 00.365-.288v.367a1 1 0 00.56.965 1.049 1.049 0 00.885.025.959.959 0 00.547-.607l.012-.041.037-.25v-.108a1.929 1.929 0 001.081-.2 1.81 1.81 0 00.394-.276h.246a.965.965 0 00.451.115.962.962 0 00.451-.115h.715a2.905 2.905 0 001.535.4.866.866 0 00.676-.55l.005-.014c.045-.131.052-.155.055-.895.406.655.427.673.541.762a.863.863 0 00.864.113 2.877 2.877 0 001.279-1.627.981.981 0 00.01-.133.858.858 0 00-.317-.672zm-7.405-1.728zm6.437 4.165z" fill="none"/></g><path d="M896.753 519.722a2.547 2.547 0 00-.125 1.155.881.881 0 00.071.3.25.25 0 00.212.144 6.992 6.992 0 001.16-.353l.477-.152a.289.289 0 00.206-.276.308.308 0 00-.187-.314l-.333-.138a7.968 7.968 0 00-1.26-.493.248.248 0 00-.222.126m2.568 3.529a7.506 7.506 0 00.024-1.213v-.5a.29.29 0 00-.2-.281.308.308 0 00-.356.08l-.235.278a8.034 8.034 0 00-.857 1.044.223.223 0 00-.013.1.268.268 0 00.065.145 2.5 2.5 0 001.365.5.251.251 0 00.2-.157m1.821-.391a2.476 2.476 0 00.9-1.143.252.252 0 00-.086-.242 7.741 7.741 0 00-1.147-.4l-.474-.157a.289.289 0 00-.33.1.305.305 0 00-.032.365l.188.306a9.127 9.127 0 00.727 1.138.246.246 0 00.253.027m-.55-2.64a8.6 8.6 0 001.308-.34.25.25 0 00.1-.234v-.01a2.516 2.516 0 00-.81-1.2.253.253 0 00-.258.01 7.559 7.559 0 00-.731.965s-.294.4-.3.4a.288.288 0 000 .345.306.306 0 00.332.144l-.006.01a3.665 3.665 0 01.362-.1m-1.215-.992c-.021-.481-.165-2.621-.182-2.72a.255.255 0 00-.2-.18 3.393 3.393 0 00-1.712.481.261.261 0 00-.075.244c.034.071 1.5 2.377 1.5 2.377.217.352.394.3.451.279s.234-.073.214-.483" fill="#e9e9e9"/><path d="M896.85 519.48a2.55 2.55 0 00-.124 1.155.909.909 0 00.071.3.251.251 0 00.212.143 7.024 7.024 0 001.16-.35l.477-.152a.288.288 0 00.206-.278.307.307 0 00-.188-.316l-.333-.136a8.1 8.1 0 00-1.257-.493.249.249 0 00-.222.127m2.566 3.526a7.581 7.581 0 00.024-1.213v-.5a.288.288 0 00-.2-.282.309.309 0 00-.356.08l-.235.278a8.185 8.185 0 00-.857 1.044.229.229 0 00-.013.1.275.275 0 00.065.146 2.507 2.507 0 001.366.5.25.25 0 00.2-.157m1.819-.386a2.479 2.479 0 00.9-1.143.251.251 0 00-.086-.242 7.742 7.742 0 00-1.147-.4l-.474-.158a.29.29 0 00-.33.1.307.307 0 00-.032.365l.188.307a8.981 8.981 0 00.731 1.144.246.246 0 00.254.027m-.556-2.649a8.593 8.593 0 001.308-.341.248.248 0 00.1-.233.055.055 0 000-.01 2.513 2.513 0 00-.81-1.2.252.252 0 00-.258.01 7.578 7.578 0 00-.731.965l-.3.4a.286.286 0 000 .344.306.306 0 00.332.144l-.006.01a3.95 3.95 0 01.361-.095m-1.213-.995a113.16 113.16 0 00-.183-2.72.255.255 0 00-.2-.179 3.4 3.4 0 00-1.712.481.259.259 0 00-.075.244c.035.071 1.5 2.378 1.5 2.378.217.351.393.3.451.279s.233-.072.213-.482" fill="#bf2519"/><path d="M884.443 524.039a.923.923 0 00.794.11c.33-.065.534-.212.731-.838l.98-3.078a.525.525 0 00-.011-.41.362.362 0 00-.237-.172c-.175-.048-.392-.043-.53.426l-.514 1.746-1.048-1.978a.363.363 0 00-.457-.149.444.444 0 00-.24.627l1.277 2.6a.911.911 0 01.035.107l.012.073a.334.334 0 01-.1.24.317.317 0 01-.236.08h-.214a.364.364 0 00-.353.323.333.333 0 00.108.3m5.022-2.926h-1.364c-.037-.027-.055-.072-.027-.208a.709.709 0 01.09-.226l.054-.082a.686.686 0 01.389-.243.641.641 0 01.868.542c.026.181.009.217-.01.217zm.838-.237a1.38 1.38 0 00-.5-1 1.541 1.541 0 00-1.226-.21 1.322 1.322 0 00-1.094 1.3 2.294 2.294 0 00.425 1.938 1.427 1.427 0 001.241.33c.744-.1 1.079-.513 1.079-.771a.343.343 0 00-.284-.362c-.1-.019-.178 0-.358.161a.929.929 0 01-.828.25.618.618 0 01-.434-.384s-.032-.127-.03-.113c-.022-.115-.032-.228.039-.274l.019-.013h1.635c.151 0 .227-.02.271-.067.09-.1.083-.385.044-.782m1.483-2.356a.45.45 0 00-.4.038.387.387 0 00-.175.384v3.9s.021.139.024.145a.357.357 0 00.2.225.415.415 0 00.353 0 .394.394 0 00.226-.38v-3.9l-.025-.192a.324.324 0 00-.2-.21m3.081 3.949c-.54 0-.626-.479-.643-.841l-.007-.212.006-.163c.035-.626.164-.873.494-.941a.577.577 0 01.518.076c.191.154.275.479.267 1.022-.004.637-.115 1.059-.635 1.059zm.04-2.862a1.2 1.2 0 00-.968.19s-.033.027-.046.035l-.027.013-.082.037-.023-.091-.02-.033-.007-.021v-.006l-.023-.031a.4.4 0 00-.527-.074c-.1.058-.161.14-.161.384v3.825a.4.4 0 00.21.408.443.443 0 00.375.015.345.345 0 00.2-.214l.024-.164v-.662l-.007-.107v-.046l.039-.126.12.08a.333.333 0 01.043.033l.036.024.042.024.039.019a1.282 1.282 0 001.1-.044 1.418 1.418 0 00.7-1.307c.1-1.353-.207-2-1.037-2.16m1.677 3.161h.045c.036 0 .07 0 .07-.043s-.031-.04-.059-.04h-.056zm-.037-.116h.1c.063 0 .092.023.092.075a.067.067 0 01-.069.071l.075.115h-.039l-.071-.112h-.051v.111h-.037zm.084.321a.19.19 0 00.191-.193.189.189 0 00-.191-.192.19.19 0 00-.191.194.189.189 0 00.192.191zm0-.417a.225.225 0 01.227.224.225.225 0 01-.227.226.224.224 0 01-.227-.224.225.225 0 01.227-.226" fill="#231f20"/></g></svg>