<svg xmlns="http://www.w3.org/2000/svg" viewBox="1675 -712 187 49"><g data-name="Group 3493"><g data-name="Rectangle 221" transform="translate(1675 -712)" stroke="#3498db" stroke-width="2" fill="#fff"><rect width="187" height="49" rx="24.5" stroke="none"/><rect x="1" y="1" width="185" height="47" rx="23.5" fill="none"/></g><text data-name="Facebook" transform="translate(1696.95 -697.962)" font-size="14" font-family="SegoeUI-Semibold,Segoe UI" font-weight="600" fill="#3498db"><tspan x="46.513" y="15">Facebook</tspan></text><g data-name="1489063360_Facebook" transform="translate(1688 -703)"><circle data-name="Ellipse 32" cx="15.5" cy="15.5" r="15.5" fill="#3498db"/><path data-name="Path 882" d="M16.563 23.243l-5.392 7.144a15.531 15.531 0 01-10.652-10.9l14.96-11.159 3.594 2.029-2.664 2.543 2.18 2.664-2.18 2.482z" opacity=".3" fill-rule="evenodd"/><path data-name="Path 883" d="M16.564 23.249l.026-7.652h2.048l.283-2.565H16.59c-.031-2.137.056-2.5.777-2.707.875.03 1.766 0 1.766 0V8.049c-2.363-.779-5.336-.314-5.156 4.987h-2.05v2.565h1.978l-.009 7.651z" fill-rule="evenodd" fill="#fff"/></g></g></svg>