<svg xmlns="http://www.w3.org/2000/svg" viewBox="1892 -712 185 49"><g data-name="Group 3494"><g data-name="Rectangle 222" transform="translate(1892 -712)" stroke="#246998" stroke-width="2" fill="#fff"><rect width="185" height="49" rx="24.5" stroke="none"/><rect x="1" y="1" width="183" height="47" rx="23.5" fill="none"/></g><text data-name="Google+" transform="translate(1930.95 -697.962)" fill="#246998" font-size="14" font-family="SegoeUI-Semibold,Segoe UI" font-weight="600"><tspan x="37.768" y="15">Google+</tspan></text><g data-name="1489063431_GooglePlus" transform="translate(1901.5 -703)"><circle data-name="Ellipse 33" cx="15.5" cy="15.5" r="15.5" fill="#3498db"/><path data-name="Path 884" d="M22.947 11.807l-5.87 9.359v.139l-5.806 9.112A15.507 15.507 0 010 15.498q0-.352.016-.7L11.08 8.869l2.725.029 3.754.605-1.453 1.271.061 1.393 3.813-3.569.787 2.6z" opacity=".3" fill-rule="evenodd"/><path data-name="Path 885" d="M21.044 11.841v1.969h-1.053l.008-1.925h-1.934V10.75h1.9l-.016-2.159 1.092.01v2.149h1.9v1.074zm-3.475-2.328c-.5 0-2.158.017-2.317 0a2.843 2.843 0 01.827 3.719c-.258.575-1.765 1.691-1.738 2.314 0 1.112 3.007 1.377 3.062 4.546 0 2.512-3.625 3.079-3.625 3.079a10.053 10.053 0 01-1.836.061c-6.721-1.214-3.583-5.952 0-6.033-.026-.895 0-1.984 0-1.984-5.444-1.5-2.342-6.759.5-6.695.369-.021.827 0 .827 0 .1 0 3.9.044 3.9.044s1.106-1.177 1.151-.705c.02.282-.859 1.171-.751 1.656zm-7.86 10.5c0 1.279 1.389 2.315 3.1 2.315s3.1-1.037 3.1-2.315-1.389-2.315-3.1-2.315-3.1 1.035-3.1 2.314zm4.87-8.784c-.554-1.392-1.832-2.191-2.854-1.784s-1.4 1.863-.847 3.255 1.832 2.19 2.854 1.784 1.401-1.865.847-3.256z" fill-rule="evenodd" fill="#fff"/></g></g></svg>