<svg xmlns="http://www.w3.org/2000/svg" viewBox="1958 -631 114 61.534"><defs><style>.cls-1{fill:#fff}.cls-3{fill:#a7a9ac}.cls-4{fill:#ffc20e}.cls-5{fill:#a30046}</style></defs><g id="Group_3522" data-name="Group 3522" transform="translate(1958 -631)"><path id="Path_9142" data-name="Path 9142" class="cls-1" d="M26.345 26.1a17.745 17.745 0 100 35.489h73.912a17.745 17.745 0 000-35.489H26.345z" transform="translate(-5.486 -16.648)"/><path id="Path_9143" data-name="Path 9143" d="M97.6 60.459H23.729a19.229 19.229 0 110-38.459h73.912a19.229 19.229 0 11-.041 38.459M23.729 23.485a17.745 17.745 0 100 35.489h73.912a17.745 17.745 0 100-35.489z" transform="translate(-2.87 -14.033)" fill="#c7c8ca"/><path id="Path_9144" data-name="Path 9144" d="M228.079 45.3a5.2 5.2 0 105.179 5.215 5.185 5.185 0 00-5.179-5.215m0 7.858a2.68 2.68 0 112.68-2.68 2.721 2.721 0 01-2.68 2.68" transform="translate(-142.18 -28.895)"/><path id="Path_9145" data-name="Path 9145" d="M162.279 45.3a5.2 5.2 0 105.215 5.215 5.263 5.263 0 00-5.215-5.215m0 7.858a2.68 2.68 0 112.68-2.68 2.721 2.721 0 01-2.68 2.68" transform="translate(-100.209 -28.895)"/><path id="Path_9146" data-name="Path 9146" d="M200.085 48.774a4.3 4.3 0 01-1.014.181c-.905 0-1.086-.29-1.086-1.159v-4.78h2.137v-1.991h-2.137V38.2h-2.39l-.507 2.825h-1.811a3.381 3.381 0 00-3.042 2.137l-.833-2.137h-1.7v9.959h2.933v-4.346c0-2.173 1.3-3.585 2.825-3.621h1.593v4.961c0 2.318 1.2 3.187 3.151 3.187a7.343 7.343 0 002.245-.362z" transform="translate(-119.727 -24.366)"/><path id="Path_9147" data-name="Path 9147" d="M256.325 49.151v6.808H253.5V46h1.7l.579 1.521" transform="translate(-161.699 -29.342)"/><path id="Path_9148" data-name="Path 9148" d="M259.8 47.074a4.619 4.619 0 013.44-1.774c2.39 0 3.332 1.883 3.332 3.658v6.555h-2.933V49.03a1.343 1.343 0 00-1.485-1.3 2.4 2.4 0 00-1.811.978" transform="translate(-165.717 -28.895)"/><path id="Path_9149" data-name="Path 9149" d="M125.5 36h3.259l4.49 8.546V36h2.68v13.58H133l-4.82-9.38v9.38h-2.68z" transform="translate(-80.052 -22.963)"/><path id="Path_9150" data-name="Path 9150" class="cls-3" d="M298.956 21.9v.507h-.688V24.8h-.579v-2.39H297v-.51z" transform="translate(-189.446 -13.969)"/><path id="Path_9151" data-name="Path 9151" class="cls-3" d="M303.5 24.8v-2.9h.76l.507 1.883.507-1.883h.76v2.9h-.471v-2.248l-.579 2.245h-.435l-.579-2.245V24.8z" transform="translate(-193.592 -13.969)"/><path id="Path_9152" data-name="Path 9152" class="cls-3" d="M123.2 92.731l.688-1.05a4.08 4.08 0 002.39.8c.978 0 1.593-.435 1.593-1.231 0-.869-.76-1.123-2.028-1.557-1.123-.4-2.245-.978-2.245-2.571 0-1.485 1.2-2.318 2.752-2.318a4.758 4.758 0 012.463.579l-.543 1.117a3.815 3.815 0 00-1.883-.471c-.869 0-1.412.326-1.412 1.05 0 .833.616 1.014 1.774 1.412 1.2.4 2.535.942 2.535 2.716 0 1.485-1.05 2.463-2.969 2.463a4.685 4.685 0 01-3.114-.942" transform="translate(-78.585 -54.091)"/><path id="Path_9153" data-name="Path 9153" class="cls-3" d="M147.1 85.3h5.106v1.2h-3.658v2.354h2.9v1.159h-2.9v2.716h3.911v1.2H147.1z" transform="translate(-93.83 -54.41)"/><path id="Path_9154" data-name="Path 9154" class="cls-3" d="M167.6 89.354c0-2.535 1.2-4.454 3.621-4.454a3.109 3.109 0 012.535 1.05l-.869.978a2.13 2.13 0 00-1.666-.76c-1.412 0-2.064 1.159-2.064 3.3 0 1.992.688 3.006 2.064 3.006a2.377 2.377 0 001.779-.911l.869.942a3.253 3.253 0 01-2.644 1.231c-2.462.036-3.621-1.847-3.621-4.382" transform="translate(-106.906 -54.155)"/><path id="Path_9155" data-name="Path 9155" class="cls-3" d="M191.6 90.623V85.3h1.485v5.577c0 1.2.29 1.956 1.557 1.956 1.231 0 1.557-.76 1.557-1.956V85.3h1.485v5.323c0 2.137-.833 3.4-3.042 3.4s-3.042-1.267-3.042-3.4" transform="translate(-122.215 -54.41)"/><path id="Path_9156" data-name="Path 9156" class="cls-3" d="M222.484 93.919h-1.594l-1.666-3.658h-1.376v3.658H216.4V85.3h2.825c1.738 0 3.114.616 3.114 2.5a2.208 2.208 0 01-1.63 2.245zm-3.332-4.78c1.086 0 1.666-.362 1.666-1.34 0-.942-.579-1.3-1.557-1.3h-1.376v2.644h1.267z" transform="translate(-138.034 -54.41)"/><path id="Path_9157" data-name="Path 9157" class="cls-3" d="M240.1 85.3h5.106v1.2h-3.658v2.354h2.9v1.159h-2.9v2.716h3.875v1.2H240.1z" transform="translate(-153.151 -54.41)"/><path id="Path_9158" data-name="Path 9158" class="cls-3" d="M261.636 85.3h2.137c2.825 0 4.165 1.521 4.165 4.273 0 2.825-1.376 4.346-4.092 4.346H261.6V85.3zm2.064 7.424c2.028 0 2.716-.942 2.716-3.151 0-1.956-.543-3.078-2.535-3.078h-.8v6.229z" transform="translate(-166.866 -54.41)"/><path id="Path_9159" data-name="Path 9159" class="cls-4" d="M20.75 59.3A20.75 20.75 0 1141.5 38.55 20.772 20.772 0 0120.75 59.3m0-34.946a14.219 14.219 0 1010.031 4.165 13.931 13.931 0 00-10.031-4.164" transform="translate(0 -11.354)"/><path id="Rectangle_2388" data-name="Rectangle 2388" class="cls-4" transform="translate(43.384 3.223)" d="M0 0h1.63v1.63H0z"/><path id="Rectangle_2389" data-name="Rectangle 2389" class="cls-4" transform="translate(43.384)" d="M0 0h1.63v1.63H0z"/><path id="Rectangle_2390" data-name="Rectangle 2390" class="cls-4" transform="translate(38.821 4.816)" d="M0 0h1.521v1.593H0z"/><path id="Rectangle_2391" data-name="Rectangle 2391" transform="translate(35.815 7.931)" d="M0 0h1.521v1.521H0z"/><path id="Rectangle_2392" data-name="Rectangle 2392" transform="translate(40.342 6.41)" d="M0 0h1.702v1.521H0z"/><path id="Rectangle_2393" data-name="Rectangle 2393" transform="translate(34.294 6.482)" d="M0 0h1.521v1.449H0z"/><path id="Rectangle_2394" data-name="Rectangle 2394" transform="translate(38.821 7.931)" d="M0 0h1.521v1.521H0z"/><path id="Rectangle_2395" data-name="Rectangle 2395" transform="translate(41.79 1.63)" d="M0 0h1.593v1.593H0z"/><path id="Rectangle_2396" data-name="Rectangle 2396" transform="translate(38.821 3.223)" d="M0 0h2.97v1.593H0z"/><path id="Rectangle_2397" data-name="Rectangle 2397" transform="translate(37.336 4.816)" d="M0 0h1.485v3.114H0z"/><path id="Path_9160" data-name="Path 9160" d="M57.923 26.1v1.521H56.4V26.1h-2.533v1.086h-1.34v1.34h1.521v1.521h-1.521v-1.521h-1.593v2.354h-1.521v1.52H48.4v1.521h-1.124a89.67 89.67 0 00-5.323 9.995c-3.4-4.744-6.048-6.627-8.148-7.315-1.123-.326-2.463.869-.616 2.825 4.309 4.744 5.649 8.619 6.953 11.733.688 1.63 3.766 1.883 4.382.217a48.725 48.725 0 015.5-10.755v-1.7h1.2V37.4h1.267v-1.776h1.521v-1.7h-1.521v-1.559h1.521v1.557H55.5V32.4h1.2v-1.846h1.34v-1.231h1.3V26.1z" transform="translate(-20.587 -16.648)"/><path id="Path_9161" data-name="Path 9161" class="cls-1" d="M22.3 151.809h1.123v.833a1.982 1.982 0 011.666-.942 2.4 2.4 0 012.318 2.571v.036a2.379 2.379 0 01-2.318 2.571 1.914 1.914 0 01-1.666-.869v2.281H22.3zm3.947 2.5a1.464 1.464 0 00-1.412-1.593 1.513 1.513 0 00-1.449 1.593v.036a1.513 1.513 0 001.449 1.593 1.5 1.5 0 001.412-1.63" transform="translate(-14.224 -96.764)"/><path id="Path_9162" data-name="Path 9162" class="cls-1" d="M39 154.407a2.644 2.644 0 015.287-.036v.036a2.645 2.645 0 01-5.287 0m4.128 0a1.534 1.534 0 00-1.521-1.63 1.5 1.5 0 00-1.485 1.593v.036a1.505 1.505 0 103.006 0" transform="translate(-24.877 -96.828)"/><path id="Path_9163" data-name="Path 9163" class="cls-1" d="M55.1 152h1.159l1.014 3.4 1.086-3.4h.978l1.086 3.4 1.014-3.4H62.6l-1.63 5h-1.017l-1.123-3.37-1.123 3.37h-1.014z" transform="translate(-35.146 -96.956)"/><path id="Path_9164" data-name="Path 9164" class="cls-1" d="M77.4 154.307a2.471 2.471 0 012.426-2.607 2.4 2.4 0 012.39 2.68 1 1 0 01-.036.326h-3.657a1.383 1.383 0 001.412 1.267 1.9 1.9 0 001.34-.579l.652.579a2.549 2.549 0 01-4.527-1.666m3.658-.362a1.291 1.291 0 00-1.267-1.3 1.371 1.371 0 00-1.3 1.3z" transform="translate(-49.371 -96.764)"/><path id="Path_9165" data-name="Path 9165" class="cls-1" d="M93.836 151.869h1.123v1.123a1.763 1.763 0 011.738-1.2v1.2h-.072c-1.014 0-1.7.652-1.7 1.956v1.883H93.8v-4.961z" transform="translate(-59.832 -96.825)"/><path id="Path_9166" data-name="Path 9166" class="cls-1" d="M103.7 154.307a2.471 2.471 0 012.426-2.607 2.4 2.4 0 012.39 2.68 1 1 0 01-.036.326h-3.658a1.383 1.383 0 001.412 1.267 1.9 1.9 0 001.34-.579l.652.579a2.479 2.479 0 01-2.028.942 2.507 2.507 0 01-2.5-2.607m3.694-.362a1.291 1.291 0 00-1.267-1.3 1.371 1.371 0 00-1.3 1.3z" transform="translate(-66.147 -96.764)"/><path id="Path_9167" data-name="Path 9167" class="cls-1" d="M119.5 151.118a2.39 2.39 0 012.318-2.607 2.03 2.03 0 011.7.869v-2.68h1.123v6.844h-1.121v-.833a2 2 0 01-1.7.942 2.324 2.324 0 01-2.318-2.535m4.02 0a1.491 1.491 0 00-1.449-1.593 1.443 1.443 0 00-1.412 1.593v.036a1.485 1.485 0 001.412 1.593 1.57 1.57 0 001.449-1.63" transform="translate(-76.225 -93.575)"/><path id="Path_9168" data-name="Path 9168" class="cls-1" d="M146.523 152.884v.76H145.4V146.8h1.123v2.716a1.981 1.981 0 011.666-.942 2.4 2.4 0 012.318 2.571v.036a2.379 2.379 0 01-2.318 2.571 2.011 2.011 0 01-1.666-.869m2.825-1.7a1.464 1.464 0 00-1.412-1.593 1.513 1.513 0 00-1.449 1.593v.036a1.513 1.513 0 001.449 1.593 1.5 1.5 0 001.412-1.63" transform="translate(-92.746 -93.639)"/><path id="Path_9169" data-name="Path 9169" class="cls-1" d="M161.126 158.193l.4-.833a1.476 1.476 0 00.652.181c.326 0 .507-.145.688-.579L160.8 152h1.2l1.412 3.694 1.3-3.694h1.2l-1.956 5.106c-.4 1.014-.833 1.376-1.63 1.376a1.79 1.79 0 01-1.2-.29" transform="translate(-102.569 -96.956)"/><path id="Path_9170" data-name="Path 9170" class="cls-5" d="M184.2 147.6h1.267l1.992 5.034 1.956-5.034h1.231l-2.716 6.627h-1.014z" transform="translate(-117.495 -94.149)"/><path id="Path_9171" data-name="Path 9171" class="cls-5" d="M202.7 154.307a2.471 2.471 0 012.426-2.607 2.4 2.4 0 012.39 2.68 1 1 0 01-.036.326h-3.658a1.383 1.383 0 001.412 1.267 1.9 1.9 0 001.34-.579l.652.579a2.479 2.479 0 01-2.028.942 2.507 2.507 0 01-2.5-2.607m3.658-.362a1.291 1.291 0 00-1.267-1.3 1.371 1.371 0 00-1.3 1.3z" transform="translate(-129.295 -96.764)"/><path id="Path_9172" data-name="Path 9172" class="cls-5" d="M219.2 151.869h1.123v1.123a1.777 1.777 0 011.774-1.2v1.2h-.072c-1.014 0-1.7.652-1.7 1.956v1.883H219.2z" transform="translate(-139.82 -96.825)"/><path id="Path_9173" data-name="Path 9173" class="cls-5" d="M229.8 147h1.231v1.086H229.8zm.036 1.811h1.123v4.961h-1.123z" transform="translate(-146.581 -93.766)"/><path id="Path_9174" data-name="Path 9174" class="cls-5" d="M236.3 152.958l.688-.833a3.035 3.035 0 002.064.869c.724 0 1.159-.326 1.159-.833v-.036c0-.471-.253-.724-1.485-1.014-1.412-.326-2.173-.76-2.173-1.956v-.036a2.024 2.024 0 012.247-1.919 3.691 3.691 0 012.39.833l-.616.869a3.045 3.045 0 00-1.774-.688c-.688 0-1.086.362-1.086.8v.036c0 .507.29.724 1.557 1.05 1.376.326 2.1.833 2.1 1.919 0 1.231-.978 1.956-2.354 1.956a3.914 3.914 0 01-2.716-1.014" transform="translate(-150.728 -93.894)"/><path id="Path_9175" data-name="Path 9175" class="cls-5" d="M253.8 147h1.231v1.086H253.8V147zm.036 1.811h1.123v4.961h-1.123z" transform="translate(-161.89 -93.766)"/><path id="Path_9176" data-name="Path 9176" class="cls-5" d="M260.617 157.648l.435-.869a3.279 3.279 0 001.774.507 1.37 1.37 0 001.557-1.521v-.4a2.045 2.045 0 01-1.738.905 2.227 2.227 0 01-2.245-2.318v-.036a2.241 2.241 0 013.983-1.485v-.724h1.123v3.947a2.676 2.676 0 01-.616 1.883 2.844 2.844 0 01-2.028.652 3.911 3.911 0 01-2.245-.543m3.766-3.658a1.371 1.371 0 00-1.449-1.376 1.341 1.341 0 00-1.412 1.376v.036a1.341 1.341 0 001.412 1.376 1.446 1.446 0 001.449-1.412" transform="translate(-166.1 -96.7)"/><path id="Path_9177" data-name="Path 9177" class="cls-5" d="M278.6 151.809h1.123v.76a1.813 1.813 0 011.557-.869 1.715 1.715 0 011.774 1.919v3.151h-1.123v-2.788c0-.76-.4-1.2-1.05-1.2a1.115 1.115 0 00-1.123 1.231v2.788h-1.123v-5z" transform="translate(-177.709 -96.764)"/></g></svg>