<svg xmlns="http://www.w3.org/2000/svg" viewBox="-12351.94 -18353.301 247.326 327.502"><defs><style>.cls-2{fill:none;stroke:#000;stroke-linecap:round;stroke-linejoin:round;stroke-miterlimit:2.613;stroke-width:2px}</style></defs><g id="if_Bankruptcy_877011" transform="translate(-13031 -18550)"><path id="Path_9114" data-name="Path 9114" d="M190.937 278.2a129.838 129.838 0 0022.9-12.7l3.408-2.365-.212 4.137-2.153 42.014a6.74 6.74 0 01-.522 2.288 6.267 6.267 0 01-1.3 1.951h-.011a5.648 5.648 0 01-1.772 1.19 5.508 5.508 0 01-2.093.419h-37.33a5.273 5.273 0 01-2.028-.408l-.011-.011a5.247 5.247 0 01-1.718-1.152 6.571 6.571 0 01-1.348-2.006v-.005a7.552 7.552 0 01-.593-2.375l-1.783-21.031-.152-1.794 1.778-.359a128.593 128.593 0 0024.94-7.8M116.346 40.964l2.147-.467v2.609l2.147-.462v2.609l2.147-.462V47.4l2.147-.467v2.615l2.147-.462v2.609l2.147-.462v2.609l2.147-.467v2.615l2.147-.467v2.615l2.147-.462v1.109a24.142 24.142 0 01-6.023-1.239 22.264 22.264 0 01-6.795-3.724 18.29 18.29 0 01-4.841-5.922 15.279 15.279 0 01-1.664-6.936zm-34.561-9.507q1.093 1.019 2.1 2.1l.043.043q1.093 1.027 2.1 2.1l.043.043c.728.679 1.43 1.386 2.1 2.1l.043.043q1.093 1.019 2.1 2.1l.043.043q1.093 1.027 2.1 2.1l.049.049a45.205 45.205 0 012.1 2.1l.043.049.3.277-.016.005-.109.043-.1.054-.174.092a3.408 3.408 0 01-2.593.185 3.358 3.358 0 01-1.957-1.7v-.005a49.089 49.089 0 00-8.23-11.828zM57.764 70.264l-.75-.783-.669-.641c-.506-.495-1.006-1-1.484-1.517l-.663-.631c-.5-.489-.995-.995-1.473-1.5l-.674-.647c-.5-.489-.995-.995-1.473-1.5L49.9 62.4a47.242 47.242 0 01-1.473-1.5l-.674-.647c-.5-.489-.995-.995-1.473-1.5l-.674-.647c-.5-.489-.995-.995-1.473-1.5l-.674-.647a47.242 47.242 0 01-1.473-1.5l-.674-.647c-.5-.489-.995-.995-1.473-1.5a50.481 50.481 0 009.279 6.882l.207.13.06.038a50.425 50.425 0 007.215 3.373 49.484 49.484 0 007.616 2.18 49.75 49.75 0 008.056.93 50.422 50.422 0 008.1-.381 3.381 3.381 0 013.778 2.919v.005a3.413 3.413 0 01-.685 2.5 3.369 3.369 0 01-2.24 1.283h-.005a57.021 57.021 0 01-9.2.429h-.011a57.231 57.231 0 01-9.127-1.065v-.005c-1.1-.223-2.12-.451-3.06-.7-.683-.17-1.373-.36-2.058-.566zm-8.241 81.712l-1.337-.087c-.065-.565-.13-1.125-.2-1.691l-.033-.337-.223-.011-1.7-.114c-.065-.565-.13-1.125-.2-1.685l-.033-.337-.223-.016c-.565-.038-1.131-.071-1.7-.109-.065-.565-.13-1.125-.2-1.691l-.033-.337-.223-.011-1.7-.114c-.065-.565-.13-1.125-.2-1.691l-.033-.337-.217-.011-1.7-.114c-.065-.565-.13-1.125-.2-1.691l-.033-.332-.223-.016c-.565-.038-1.131-.076-1.7-.109-.065-.565-.13-1.125-.2-1.691l-.033-.337-.223-.011-1.7-.114c-.065-.565-.13-1.125-.2-1.691l-.033-.337-.223-.011-1.7-.114c-.065-.565-.13-1.125-.2-1.691l-.033-.337-.223-.011c-.565-.038-1.131-.076-1.7-.109-.065-.565-.13-1.125-.2-1.691l-.033-.337-.223-.011-1.7-.114c-.065-.565-.13-1.125-.2-1.691l-.033-.337-.223-.011-1.7-.114c-.065-.565-.13-1.125-.2-1.691l-.033-.337h.011a18.836 18.836 0 016.567 1.837 20.454 20.454 0 015.719 4.218 22.792 22.792 0 012.886 3.707 23.318 23.318 0 012.1 4.24c.114.31.228.625.332.935.109.337.207.652.288.94l.636 2.3 2.163-.989c2.528-1.158 5.441-2.147 8.366-3.137h.011c2.615-.886 5.257-1.783 7.507-2.789 2.484-1.109 4.474-2.375 5.441-3.93.565-.9.951-1.549 1.4-2.289l.016-.033.005-.005.043-.082a96.726 96.726 0 018.078-11.986l.707-.843-.326-1.055a15.924 15.924 0 00-2.5-4.512l-.022-.022a22.093 22.093 0 01-2.99-5.164l-.087-.255.05-.033c-1.957-5.441-2.028-8.964-1.321-11.366a10.2 10.2 0 013.175-4.62l.022-.022.022-.022.302-.276a3.391 3.391 0 114.7 4.882l-.25.245-.011.005-.087.082a3.868 3.868 0 00-1.364 2.881 14.971 14.971 0 001.212 5.881l.022.065.076.185h-.008a16.169 16.169 0 002.131 3.6l.016.022c.419.587.843 1.185 1.229 1.772s.756 1.174 1.093 1.8l.712 1.326 1.468-.288a61.45 61.45 0 006.23-1.549 42.505 42.505 0 006.5-2.528 24.632 24.632 0 005.343-3.475 13.649 13.649 0 003.707-5.012 3.41 3.41 0 016.295 2.626 19.977 19.977 0 01-4.941 7.023 30.943 30.943 0 01-7.382 4.979 49.988 49.988 0 01-7.7 2.984 70.2 70.2 0 01-7.349 1.778c-2.446.462-7.659 9.121-10.823 14.394l-.022.033-1.538 2.544c-.12.19-.245.386-.375.571-.13.185-.277.375-.424.56l-1.913 2.392 2.952.832a33.862 33.862 0 007.4 1.065c2.441.12 4.919.082 7.137.049v.011h.022l.033-.011 1.951-.038.94-.016v.011a3.38 3.38 0 012.4.989l.011.005a3.4 3.4 0 01-2.414 5.8c-1.229 0-2.115.011-2.7.016h-.1A78.956 78.956 0 0177 151.128a24.389 24.389 0 01-11.236-4.148l-.919-.679-1.038.413a77.303 77.303 0 01-2.973 1.109c-1.038.364-2.06.712-3.082 1.06-2.6.881-5.191 1.761-7.257 2.653v.005c-.341.147-.662.288-.972.435zm8.277 37.17l.386-1.348-.56-.147c-.669-.174-1.337-.353-2.006-.533l-.141-1.614c-.669-.179-1.337-.353-2.006-.538l.424-1.462-.56-.147-2.011-.538.424-1.468.495.13c3.37.913 6.811 1.843 14.1-2.745a3.388 3.388 0 013.609 5.735c-4.977 3.129-8.654 4.36-11.654 4.629zM255.559 21.531c2.712 2.711 62.823 420.96-187.505 292.9a4.787 4.787 0 00.582.283 5.4 5.4 0 002.087.424h37.328a5.28 5.28 0 002.033-.408v-.011a5.357 5.357 0 001.723-1.152v-.005a6.589 6.589 0 001.354-2.006 7.337 7.337 0 00.593-2.375l1.783-21.037.152-1.788-1.778-.364a129.571 129.571 0 01-15.628-4.229 127.761 127.761 0 01-14.976-6.163l-.864-.424-.375-.386-.005-.005-.027-.027q-1.076-1.052-2.12-2.12l-.054-.06a93.872 93.872 0 01-2.093-2.093l-.054-.054c-.707-.69-1.408-1.386-2.093-2.093l-.054-.054q-1.06-1.036-2.093-2.093l-.054-.06a93.872 93.872 0 01-2.093-2.093l-.054-.054c-.707-.69-1.408-1.386-2.093-2.093l-.054-.054q-1.06-1.036-2.093-2.093l-.054-.06a93.872 93.872 0 01-2.093-2.093l-.054-.054c-.707-.69-1.408-1.386-2.093-2.093l-.033-.033-.005-.005c-.7-.685-1.392-1.381-2.077-2.077l-.033-.033-.011-.011q-1.1-1.076-2.163-2.169-1.084-1.06-2.147-2.142a130.716 130.716 0 01-2.136-2.142q2.5 2.43 5.126 4.729l.315.277.364.12a3.433 3.433 0 011.093.6v.005a3.433 3.433 0 01.8.973l.19.353.31.25a123.364 123.364 0 0023.945 15.313v.005a121.937 121.937 0 0026.087 9.2 122.657 122.657 0 00105.092-24.44l.342-.283.2-.4a3.468 3.468 0 01.859-1.093h.005a3.327 3.327 0 011.218-.663l.424-.12.342-.3a134.12 134.12 0 005.969-5.572 122.926 122.926 0 0033.431-111.87 121.113 121.113 0 00-7.529-23.825 123.055 123.055 0 00-27.6-39.681l-.87-.837-1.152.364c-.973.31-1.957.593-2.935.848s-1.984.484-3 .685a56.68 56.68 0 01-9.127 1.065 56.48 56.48 0 01-9.208-.429h-.005a3.389 3.389 0 01-2.925-3.783v-.005a3.381 3.381 0 013.783-2.925 50.3 50.3 0 008.1.381 49.548 49.548 0 008.045-.93v-.005a50.145 50.145 0 007.621-2.174 49.842 49.842 0 007.213-3.376l.065-.038.207-.125a50.169 50.169 0 009.948-7.529 49.427 49.427 0 007.719-9.725 49.6 49.6 0 004.534-9.643 50.585 50.585 0 002.381-10.393z" transform="translate(659.194 185.4)" fill-rule="evenodd" fill="none"/><path id="Path_9115" data-name="Path 9115" class="cls-2" d="M56 49.258a53.24 53.24 0 0172.183-23.407 53.225 53.225 0 01-59.947 50.467" transform="translate(790.212 177.867)"/><path id="Path_9116" data-name="Path 9116" class="cls-2" d="M97.622 49.266a53.264 53.264 0 00-72.188-23.417 53.229 53.229 0 0059.941 50.477" transform="translate(654.625 177.897)"/><path id="Path_9117" data-name="Path 9117" class="cls-2" d="M51.119 23.9a124.512 124.512 0 0126.533 7.409" transform="translate(768.561 195.891)"/><path id="Path_9118" data-name="Path 9118" class="cls-2" d="M38.716 31.279a125.6 125.6 0 0126.674-7.393" transform="translate(713.542 195.847)"/><path id="Path_9119" data-name="Path 9119" class="cls-2" d="M230.765 29.86a126.235 126.235 0 11-185.6 170.056c-6.615-8.431-13.851-22.282-9.486-32.588 9.306-3.2 10.812-15.362 10.415-19.232 11.279-8.741 3.039-27.94-2.348-28.435 6.528-6.273.109-23.668-13.03-24.842-8.165 2.734-5.208-15.78-2.006-23.157a126.463 126.463 0 0129.335-41.633" transform="translate(654.656 222.346)"/><path id="Path_9120" data-name="Path 9120" class="cls-2" d="M91.151 48.926c29.647 0 53.679 16.65 53.679 37.187S120.8 123.3 91.151 123.3s-53.679-16.65-53.679-37.187S61.5 48.926 91.151 48.926" transform="translate(708.024 306.921)"/><path id="Path_9121" data-name="Path 9121" class="cls-2" d="M50.58 54.254a8.252 8.252 0 11-8.252 8.252 8.26 8.26 0 018.252-8.252" transform="translate(729.565 330.555)"/><path id="Path_9122" data-name="Path 9122" class="cls-2" d="M57.566 54.254a8.252 8.252 0 11-8.252 8.252 8.261 8.261 0 018.252-8.252" transform="translate(760.554 330.555)"/><path id="Path_9123" data-name="Path 9123" class="cls-2" d="M55.106 39.07a5.091 5.091 0 11-5.1 5.1 5.091 5.091 0 015.1-5.1" transform="translate(763.628 263.201)"/><path id="Path_9124" data-name="Path 9124" class="cls-2" d="M47.9 39.07a5.091 5.091 0 11-5.093 5.1 5.091 5.091 0 015.093-5.1" transform="translate(731.667 263.201)"/><path id="Path_9125" data-name="Path 9125" class="cls-2" d="M42.277 75.206a39.794 39.794 0 0129.462-11.828 43.84 43.84 0 0127.528 10.214" transform="translate(729.339 370.974)"/><path id="Line_608" data-name="Line 608" class="cls-2" transform="translate(776.339 469.386)" d="M2.158 0L0 25.462"/><path id="Path_9126" data-name="Path 9126" class="cls-2" d="M50.558 74.5c-.424 4.947-4.11 9.078-9.083 9.078" transform="translate(725.781 420.351)"/><path id="Line_609" data-name="Line 609" class="cls-2" transform="translate(729.928 503.926)" d="M37.328 0H0"/><path id="Path_9127" data-name="Path 9127" class="cls-2" d="M42.025 83.575a9.306 9.306 0 01-9.089-9.075" transform="translate(687.903 420.351)"/><path id="Line_610" data-name="Line 610" class="cls-2" transform="translate(718.05 440.587)" d="M2.789 54.261L0 0"/><path id="Line_611" data-name="Line 611" class="cls-2" transform="translate(819.799 469.386)" d="M0 0l2.163 25.462"/><path id="Path_9128" data-name="Path 9128" class="cls-2" d="M51.539 74.5c.419 4.947 4.088 9.078 9.083 9.078" transform="translate(770.424 420.351)"/><path id="Line_612" data-name="Line 612" class="cls-2" transform="translate(831.046 503.926)" d="M0 0h37.334"/><path id="Path_9129" data-name="Path 9129" class="cls-2" d="M60.078 83.575a9.286 9.286 0 009.078-9.075" transform="translate(808.302 420.351)"/><path id="Line_613" data-name="Line 613" class="cls-2" transform="translate(877.458 440.462)" d="M0 54.386L2.794 0"/><path id="Line_614" data-name="Line 614" class="cls-2" transform="translate(819.381 220.048)" d="M0 0v6.289"/><path id="Path_9130" data-name="Path 9130" class="cls-2" d="M65.618 25.1c0 7.985-8.04 14.508-17.835 14.508" transform="translate(753.763 201.236)"/><path id="Line_615" data-name="Line 615" class="cls-2" transform="translate(796.778 240.846)" d="M4.767 0H0"/><path id="Path_9131" data-name="Path 9131" class="cls-2" d="M61.46 39.609c-9.8 0-17.835-6.523-17.835-14.508" transform="translate(735.318 201.236)"/><path id="Line_616" data-name="Line 616" class="cls-2" transform="translate(778.943 220.048)" d="M0 6.289V0"/><path id="Path_9132" data-name="Path 9132" class="cls-2" d="M29.26 88.874c.527-10.53 24.255-10.074 29.745-18.906 3.055-4.9 10.024-17.618 14.623-18.487 8.453-1.587 21.048-5.436 24.858-14.72" transform="translate(671.597 252.954)"/><path id="Path_9133" data-name="Path 9133" class="cls-2" d="M42.911 60.494c-.467-5.664-4.5-8.165-6.05-12.367-3.457-9.4-.234-11.5 1.245-12.975" transform="translate(698.47 245.821)"/><path id="Path_9134" data-name="Path 9134" class="cls-2" d="M33.794 43.876c6.365 6.219 18.227 5.17 25.69 5.17" transform="translate(691.709 284.52)"/><path id="Path_9135" data-name="Path 9135" class="cls-2" d="M29.364 53.855c9.649-2.9 11.752 6.05 25.924-2.876" transform="translate(672.058 316.028)"/></g></svg>