<svg width="31" height="24" fill="none" xmlns="http://www.w3.org/2000/svg"><path d="M1 2l12.27 8L25.5 2.5" stroke="#7CB9FF" stroke-width="2"/><rect x="1.125" y="1.125" width="24.75" height="17.75" rx="1.875" stroke="#2158F5" stroke-width="2.25"/><circle cx="25" cy="18" r="6" fill="#fff"/><path d="M25.256 17.548v-.096c0-.408-.088-.728-.264-.96a.79.79 0 00-.672-.348.812.812 0 00-.696.348c-.16.224-.24.56-.24 1.008 0 .432.084.768.252 1.008a.82.82 0 00.684.348c.28 0 .504-.112.672-.336.176-.232.264-.556.264-.972zM24.5 13c1.312 0 2.388.42 3.228 1.26.848.832 1.272 1.912 1.272 3.24 0 .624-.108 1.216-.324 1.776a.889.889 0 01-.384.456 1.199 1.199 0 01-.6.156H25.94a.596.596 0 01-.6-.576l-.012-.072v-.012c-.016 0-.024.004-.024.012-.376.496-.852.744-1.428.744-.56 0-1.016-.22-1.368-.66-.352-.44-.528-1.048-.528-1.824 0-.8.168-1.412.504-1.836.344-.432.808-.648 1.392-.648.56 0 1.036.244 1.428.732 0 .008.008.012.024.012v-.084c0-.16.056-.292.168-.396a.542.542 0 01.396-.168h.144c.184 0 .344.068.48.204a.657.657 0 01.204.48v2.952c0 .064.036.096.108.096h.792c.064 0 .108-.032.132-.096a3.78 3.78 0 00.204-1.248c0-1.032-.32-1.864-.96-2.496-.632-.64-1.464-.96-2.496-.96-1.016 0-1.848.32-2.496.96-.64.64-.96 1.472-.96 2.496s.32 1.856.96 2.496c.648.64 1.48.96 2.496.96.632 0 1.18-.12 1.644-.36a.65.65 0 01.408-.06.495.495 0 01.336.204.47.47 0 01.096.384.444.444 0 01-.216.324c-.64.368-1.396.552-2.268.552-1.272 0-2.34-.42-3.204-1.26C20.432 19.9 20 18.82 20 17.5c0-1.312.424-2.388 1.272-3.228C22.128 13.424 23.204 13 24.5 13z" fill="#2158F5"/></svg>