<svg width="34" height="24" fill="none" xmlns="http://www.w3.org/2000/svg"><path d="M15.916 15.546a4.038 4.038 0 01-4.072-4.072 4.038 4.038 0 014.072-4.071 4.038 4.038 0 014.072 4.071 4.038 4.038 0 01-4.072 4.072zm0-5.748c-.958 0-1.677.718-1.677 1.676s.719 1.677 1.677 1.677c.958 0 1.677-.719 1.677-1.677.12-.958-.719-1.676-1.677-1.676zm-7.033 2.416a1.85 1.85 0 11-3.701 0 1.85 1.85 0 013.701 0zm17.027-2.22a1.85 1.85 0 11-3.702 0 1.85 1.85 0 013.702 0z" fill="#7CB9FF"/><path d="M28.13 15.546v-2.961l5.183 5.182-5.182 5.182v-3.036c-3.702 0-6.293 1.185-8.143 3.776.74-3.701 2.96-7.403 8.143-8.143z" fill="#2158F5"/><path fill-rule="evenodd" clip-rule="evenodd" d="M17.806 1.601c9.391-3.047 13.05-.853 13.416-.61.366.244.488.61.61.976v11.545a7.753 7.753 0 00-2.522-1.325l.083-9.367c-1.22-.488-4.39-.975-10.733 1.097-7.562 2.56-13.416 1.097-16.22 0V17.08c1.707.975 7.683 3.413 15.366.853a42.255 42.255 0 011.766-.545 7.772 7.772 0 00-.31 2.71 32.27 32.27 0 00-.48.151c-2.805.853-5.366 1.22-7.684 1.22-5.808 0-9.702-2.233-10.39-2.628a2.859 2.859 0 00-.098-.054c-.366-.244-.61-.61-.61-.975V1.967C0 1.479.244 1.114.61.87a1.108 1.108 0 011.22 0c0 .122 6.707 3.778 15.976.731z" fill="#2158F5"/></svg>