<svg width="446" height="124" fill="none" xmlns="http://www.w3.org/2000/svg"><mask id="a" style="mask-type:alpha" maskUnits="userSpaceOnUse" x="-139" y="0" width="712" height="124"><path d="M-139 4a4 4 0 014-4h704a4 4 0 014 4v120h-712V4z" fill="url(#paint0_linear_1316_22007)"/></mask><g mask="url(#a)"><circle opacity=".3" cx="223.341" cy="222.49" r="222.49" fill="url(#paint1_radial_1316_22007)"/><path transform="matrix(-1 0 0 1 159.277 67.65)" fill="url(#paint2_linear_1316_22007)" d="M0 0h31.366v92.106H0z"/><path transform="matrix(-1 0 0 1 165.125 67.65)" fill="url(#paint3_linear_1316_22007)" d="M0 0h5.848v92.106H0z"/><path transform="matrix(-1 0 0 1 235.301 85.992)" fill="url(#paint4_linear_1316_22007)" d="M0 0h35.62v80.144H0z"/><path transform="matrix(-1 0 0 1 241.684 85.992)" fill="url(#paint5_linear_1316_22007)" d="M0 0h6.38v80.144H0z"/><path transform="matrix(-1 0 0 1 268.793 67.518)" fill="url(#paint6_linear_1316_22007)" d="M0 0h24.987v92.106H0z"/><path transform="matrix(-1 0 0 1 273.047 67.518)" fill="url(#paint7_linear_1316_22007)" d="M0 0h4.253v92.106H0z"/><path transform="matrix(-1 0 0 1 314.516 85.992)" fill="url(#paint8_linear_1316_22007)" d="M0 0h35.088v92.106H0z"/><path transform="matrix(-1 0 0 1 320.363 85.992)" fill="url(#paint9_linear_1316_22007)" d="M0 0h5.848v92.106H0z"/><path d="M307.605 93.17h-.531v52.63h.531V93.169zm-4.253 0h-.531v52.63h.531V93.169zm-4.253 0h-.531v52.63h.531V93.169zm-4.253 0h-.531v52.63h.531V93.169zm-4.253 0h-.532v52.63h.532V93.169zm-4.253 0h-.532v52.63h.532V93.169zm-22.332-21.665h-.389v86.524h.389V71.505zm-3.112 0h-.389v86.524h.389V71.505zm-3.112 0h-.389v86.524h.389V71.505zm-3.112 0h-.389v86.524h.389V71.505zm-3.112 0h-.389v86.524h.389V71.505zm-3.112 0h-.389v86.524h.389V71.505z" opacity=".4" fill="#C4C4C4"/><g opacity=".4" fill="#C4C4C4"><path d="M231.051 89.98h-.389v70.973h.389V89.979zm-3.112 0h-.389v70.973h.389V89.979zm-3.112 0h-.389v70.973h.389V89.979zm-3.112 0h-.389v70.973h.389V89.979zm-3.112 0h-.389v70.973h.389V89.979zm-3.112 0h-.389v70.973h.389V89.979z"/><path d="M218.823 89.98h-.389v70.973h.389V89.979zm-3.112 0h-.389v70.973h.389V89.979zm-3.112 0h-.389v70.973h.389V89.979zm-3.112 0h-.389v70.973h.389V89.979zm-3.112 0h-.389v70.973h.389V89.979zm-3.112 0h-.389v70.973h.389V89.979z"/></g><g opacity=".4" fill="#C4C4C4"><path d="M157.148 71.638h-.389v70.973h.389V71.638zm-3.112 0h-.389v70.973h.389V71.638zm-3.112 0h-.389v70.973h.389V71.638zm-3.112 0h-.389v70.973h.389V71.638zm-3.112 0h-.389v70.973h.389V71.638zm-3.112 0h-.389v70.973h.389V71.638z"/><path d="M144.921 71.638h-.389v70.973h.389V71.638zm-3.112 0h-.389v70.973h.389V71.638zm-3.112 0h-.389v70.973h.389V71.638zm-3.112 0h-.389v70.973h.389V71.638zm-3.112 0h-.389v70.973h.389V71.638zm-3.112 0h-.389v70.973h.389V71.638z"/></g></g><path d="M236.014 108.505l-15.737-5.901v5.573l10.491 2.295 21.638.656v-1.967l-16.392-.656z" fill="#055A98"/><path d="M92.734 112.081h7.918l.902 3.407h-5.412a3.408 3.408 0 01-3.408-3.407zm21.844-.001l8.164-1.02.655 4.428h-5.411a3.408 3.408 0 01-3.408-3.408zm10.18-19.277h6.325v19.55h-6.325z" fill="#004679"/><circle cx="129.111" cy="92.939" r="4.51" fill="#004679"/><path fill="#004679" d="M124.551 113.337h83.929v1.967h-83.929z"/><rect x="122" y="79.209" width="4.209" height="36.279" rx="2.105" fill="#004679"/><path d="M129.07 112.353v-5.462h73.312a5.462 5.462 0 01-5.462 5.462h-67.85z" fill="#004679"/><path fill-rule="evenodd" clip-rule="evenodd" d="M88.426 107.871v-12.56a5 5 0 011.464-3.536l13.9-13.9a4 4 0 012.829-1.171h11.78a4 4 0 014 4v27.376a4 4 0 01-4 4h-1.009a8.618 8.618 0 00-8.619-8.618 8.618 8.618 0 00-8.619 8.618h-7.726a4 4 0 01-4-4v-.209z" fill="#FDB81E"/><path d="M89.614 98.952h-1.192v2.706h.673a1.81 1.81 0 001.556-.886 1.205 1.205 0 00-1.037-1.82z" fill="url(#paint10_linear_1316_22007)"/><path d="M114.179 92.438h4.41l-.445 1.002h-4.456l.491-1.002zm-15.101-7.61l6.258-6.375a2.002 2.002 0 011.428-.6h12.43a2 2 0 012 2v4.376a4 4 0 01-4.001 4h-16.688c-1.773 0-2.67-2.136-1.427-3.401z" fill="#004679"/><path opacity=".4" d="M99.078 84.828l6.258-6.375a2.002 2.002 0 011.428-.6h12.43a2 2 0 012 2v4.376a4 4 0 01-4.001 4h-16.688c-1.773 0-2.67-2.136-1.427-3.401z" fill="url(#paint11_linear_1316_22007)"/><ellipse cx="108.769" cy="111.78" rx="4.41" ry="4.309" fill="#004679"/><path d="M86.52 109.217c0-.633.512-1.145 1.145-1.145h13.586l-.701 4.008H89.383a2.863 2.863 0 01-2.864-2.863z" fill="#004679"/><path d="M131.105 108.091v-9.835h89.175v9.835h-89.175z" fill="#055A98"/><path opacity=".4" fill-rule="evenodd" clip-rule="evenodd" d="M120.821 115.602c.317-1.095.488-2.253.488-3.45 0-6.828-5.535-12.363-12.363-12.363-6.827 0-12.362 5.535-12.362 12.363 0 1.197.17 2.355.488 3.45h23.749zm88.159-7.425h-10.336v4.59h-13.749c-.013-.237-.02-.476-.02-.716 0-6.828 5.535-12.362 12.362-12.362 5.475 0 10.118 3.558 11.743 8.488z" fill="#000"/><circle cx="108.945" cy="112.152" r="8.757" fill="#4B5158" stroke="#2B3138"/><circle cx="108.947" cy="112.152" r="8.775" stroke="#4B5158" stroke-width="2" stroke-dasharray="2 2"/><circle cx="108.944" cy="112.152" r="5.635" fill="#4B5158" opacity=".45"/><circle cx="108.871" cy="112.224" r="3.195" fill="#4B5158" stroke="#1F242A"/><circle cx="197.234" cy="112.152" r="8.757" fill="#4B5158" stroke="#2B3138"/><circle cx="197.232" cy="112.152" r="8.775" stroke="#4B5158" stroke-width="2" stroke-dasharray="2 2"/><circle cx="197.237" cy="112.152" r="5.635" fill="#4B5158" opacity=".45"/><circle cx="197.163" cy="112.224" r="3.195" fill="#4B5158" stroke="#1F242A"/><path d="M222.289 96.457c-.36-.727.845-1.873 1.523-1.63 1.355.483 3.345 1.987 3.542 2.586.198.6-1.844 2.368-2.443 2.565-.6.198-2.126-2.521-2.622-3.52z" fill="#004679"/><path d="M184.872 64.901l38.358 31.146" stroke="#004679" stroke-width="2"/><path d="M126.913 94.615l56.649-29.058" stroke="#004679" stroke-width="12" stroke-linecap="round"/><path d="M124.549 81.95l58.029-16.065" stroke="#004679" stroke-width="6" stroke-linecap="round"/><path d="M227.455 99.336l-.69-1.453-.852.281.563 1.39a2.62 2.62 0 01-.161 1.104c-.178.479-.162 1.419-.131 1.829.599.223 1.966.738 2.647 1.018.681.279.978-.113 1.042-.344.202-.662.581-2.188.482-2.996-.098-.808-.65-.486-.914-.224l-.481 2.681-1.89-.952.385-2.334z" fill="#004679"/><path d="M239.107 101.005l10.704 2.085 80.505 15.68c7.136 1.389 10.481 2.041 12.422-1.979 1.552-3.216-.69-7.155-2.005-8.723l1.781-9.143c-5.513-3.389-20.409-10.965-35.896-14.167-19.358-4.002-34.128.529-47.262 2.6-20.83.97-20.817 7.056-21.338 9.732-.417 2.14-1.68 2.682 1.089 3.915z" fill="#37AAFF"/><path d="M250.739 101.882l71.361 13.899-.26 1.338-74.038-14.42 2.937-.817z" fill="#004679"/><circle cx="258.929" cy="100.237" r="8.133" transform="rotate(11.021 258.929 100.237)" fill="#055A98" stroke="#004679"/><circle cx="258.931" cy="100.237" r="4.498" transform="rotate(11.021 258.931 100.237)" fill="#004679" stroke="#004679"/><circle cx="324.046" cy="112.919" r="8.133" transform="rotate(11.021 324.046 112.919)" fill="#055A98" stroke="#004679"/><circle cx="324.048" cy="112.92" r="4.498" transform="rotate(11.021 324.048 112.92)" fill="#004679" stroke="#004679"/><path d="M337.671 102.38l4.796-3.233-1.694 8.698-3.232-4.796.13-.669z" fill="#004679"/><path d="M248.586 90.353l-3.345-.652c-1.496.079-4.091 1.595-5.111 2.477l4.416 1.091c.948-.51 3.04-1.584 3.823-1.801.783-.218.471-.834.217-1.115z" fill="url(#paint12_linear_1316_22007)"/><path d="M319.381 97.66l-49.062-9.556c10.229-3.794 25.425-3.38 35.907-1.34 4.106.8 12.787 3.245 17.258 4.975 1.739.673 1.67 2.192.104 3.204l-4.207 2.717z" fill="url(#paint13_linear_1316_22007)"/><path d="M297.845 95.317l5.352 1.043-1.022.495-5.352-1.042 1.022-.496zm-60.943 1.556l8.474 1.65-.087.446-8.474-1.65zm1.063-.719l8.474 1.65-.087.446-8.474-1.65z" fill="#004679"/><path opacity=".4" d="M279.391 100.266a2.95 2.95 0 011.954-.293l23.049 4.489c2.468.481 3.245 3.629 1.284 5.203a2.957 2.957 0 01-2.413.595l-23.049-4.489c-2.73-.532-3.279-4.196-.825-5.505z" fill="url(#paint14_linear_1316_22007)"/><rect x="138.32" y="107.521" width="19.015" height="9.835" rx="4.918" fill="#004679"/><path fill="#FDB81E" d="M215.688 100.309h3.934v1.311h-3.934z"/><circle cx="128.811" cy="93.424" r="2.295" fill="#055A98"/><circle cx="183.232" cy="65.885" r="2.295" fill="#055A98"/><defs><linearGradient id="paint0_linear_1316_22007" x1="217" y1="0" x2="217" y2="124" gradientUnits="userSpaceOnUse"><stop stop-color="#fff"/><stop offset="1" stop-color="#fff"/></linearGradient><linearGradient id="paint2_linear_1316_22007" x1="15.683" y1="0" x2="15.683" y2="92.106" gradientUnits="userSpaceOnUse"><stop stop-color="#CCE6FF"/><stop offset="1" stop-color="#E6F2FF" stop-opacity="0"/></linearGradient><linearGradient id="paint3_linear_1316_22007" x1="2.924" y1="0" x2="2.924" y2="92.106" gradientUnits="userSpaceOnUse"><stop stop-color="#E6F2FF"/><stop offset="1" stop-color="#E6F2FF" stop-opacity="0"/></linearGradient><linearGradient id="paint4_linear_1316_22007" x1="17.81" y1="0" x2="17.81" y2="80.144" gradientUnits="userSpaceOnUse"><stop stop-color="#CCE6FF"/><stop offset="1" stop-color="#E6F2FF" stop-opacity="0"/></linearGradient><linearGradient id="paint5_linear_1316_22007" x1="3.19" y1="0" x2="3.19" y2="80.144" gradientUnits="userSpaceOnUse"><stop stop-color="#E6F2FF"/><stop offset="1" stop-color="#E6F2FF" stop-opacity="0"/></linearGradient><linearGradient id="paint6_linear_1316_22007" x1="12.493" y1="0" x2="12.493" y2="92.106" gradientUnits="userSpaceOnUse"><stop stop-color="#CCE6FF"/><stop offset="1" stop-color="#E6F2FF" stop-opacity="0"/></linearGradient><linearGradient id="paint7_linear_1316_22007" x1="2.127" y1="0" x2="2.127" y2="92.106" gradientUnits="userSpaceOnUse"><stop stop-color="#E6F2FF"/><stop offset="1" stop-color="#E6F2FF" stop-opacity="0"/></linearGradient><linearGradient id="paint8_linear_1316_22007" x1="17.544" y1="0" x2="17.544" y2="92.106" gradientUnits="userSpaceOnUse"><stop stop-color="#CCE6FF"/><stop offset="1" stop-color="#E6F2FF" stop-opacity="0"/></linearGradient><linearGradient id="paint9_linear_1316_22007" x1="2.924" y1="0" x2="2.924" y2="92.106" gradientUnits="userSpaceOnUse"><stop stop-color="#E6F2FF"/><stop offset="1" stop-color="#E6F2FF" stop-opacity="0"/></linearGradient><linearGradient id="paint10_linear_1316_22007" x1="90.076" y1="98.952" x2="90.076" y2="101.658" gradientUnits="userSpaceOnUse"><stop stop-color="#004679"/><stop offset="1" stop-color="#004679"/></linearGradient><linearGradient id="paint11_linear_1316_22007" x1="108.368" y1="77.854" x2="108.466" y2="88.229" gradientUnits="userSpaceOnUse"><stop stop-color="#fff"/><stop offset="1" stop-color="#004679" stop-opacity="0"/></linearGradient><linearGradient id="paint12_linear_1316_22007" x1="244.992" y1="89.653" x2="244.297" y2="93.221" gradientUnits="userSpaceOnUse"><stop stop-color="#fff"/><stop offset="1" stop-color="#C4C4C4" stop-opacity="0"/></linearGradient><linearGradient id="paint13_linear_1316_22007" x1="320.177" y1="82.956" x2="264.052" y2="91.995" gradientUnits="userSpaceOnUse"><stop stop-color="#fff"/><stop offset="1" stop-color="#fff" stop-opacity="0"/></linearGradient><linearGradient id="paint14_linear_1316_22007" x1="306.663" y1="98.948" x2="290.783" y2="107.829" gradientUnits="userSpaceOnUse"><stop stop-color="#004679"/><stop offset="1" stop-color="#004679" stop-opacity="0"/></linearGradient><radialGradient id="paint1_radial_1316_22007" cx="0" cy="0" r="1" gradientUnits="userSpaceOnUse" gradientTransform="rotate(90 .425 222.916) scale(222.49)"><stop stop-color="#21F5DC"/><stop offset="1" stop-color="#0042FF" stop-opacity="0"/></radialGradient></defs></svg>