<svg width="162" height="345" fill="none" xmlns="http://www.w3.org/2000/svg"><path opacity=".5" d="M17.125 60h-8.75A4.383 4.383 0 004 64.375v33.25A4.382 4.382 0 008.375 102h8.75a4.384 4.384 0 004.375-4.375v-33.25A4.383 4.383 0 0017.125 60zm-3.5 1.75v38.5h-1.75v-38.5h1.75zM5.75 97.625v-1.388l2.006 2.006 1.237-1.237-3.243-3.243v-1.901l2.006 2.006 1.237-1.237-3.243-3.243v-1.901l2.006 2.006 1.237-1.237-3.243-3.243v-1.901l2.006 2.006 1.237-1.237-3.243-3.243v-1.901l2.006 2.006 1.237-1.237-3.244-3.244v-1.9l2.007 2.006 1.237-1.237-3.244-3.244v-1.9l2.007 2.006 1.237-1.237-3.244-3.244v-1.9l2.006 2.006 1.238-1.237-3.034-3.034a2.622 2.622 0 012.415-1.598h1.75v38.5h-1.75a2.625 2.625 0 01-2.625-2.625l.001.001zm11.375 2.625h-1.75v-38.5h1.75a2.622 2.622 0 012.415 1.598l-3.034 3.033 1.237 1.237 2.007-2.006v1.9l-3.244 3.244 1.237 1.237 2.007-2.006v1.9l-3.244 3.244 1.237 1.237 2.007-2.006v1.9l-3.244 3.245 1.237 1.237 2.007-2.007v1.9l-3.244 3.245 1.237 1.237 2.007-2.007v1.9l-3.244 3.245 1.237 1.237 2.007-2.006v1.9l-3.244 3.244 1.237 1.237 2.006-2.006v1.9l-3.243 3.244 1.237 1.237 2.006-2.006v1.388a2.625 2.625 0 01-2.625 2.625l.001-.001zm0 145.75h-8.75A4.384 4.384 0 004 250.375v33.25A4.381 4.381 0 008.375 288h8.75a4.384 4.384 0 004.375-4.375v-33.25A4.382 4.382 0 0017.125 246zm-3.5 1.75v38.5h-1.75v-38.5h1.75zM5.75 283.625v-1.388l2.006 2.006 1.237-1.237-3.243-3.243v-1.901l2.006 2.006 1.237-1.237-3.243-3.243v-1.901l2.006 2.006 1.237-1.237-3.243-3.243v-1.901l2.006 2.006 1.237-1.237-3.243-3.243v-1.901l2.006 2.006 1.237-1.237-3.244-3.244v-1.9l2.007 2.006 1.237-1.237-3.244-3.244v-1.9l2.007 2.006 1.237-1.237-3.244-3.244v-1.901l2.006 2.007 1.238-1.238-3.034-3.033a2.622 2.622 0 012.415-1.598h1.75v38.5h-1.75a2.625 2.625 0 01-2.625-2.625l.001.001zm11.375 2.625h-1.75v-38.5h1.75a2.625 2.625 0 012.415 1.598l-3.034 3.033 1.237 1.237 2.007-2.006v1.901l-3.244 3.243 1.237 1.237 2.007-2.006v1.901l-3.244 3.243 1.237 1.238 2.007-2.007v1.901l-3.244 3.244 1.237 1.237 2.007-2.007v1.901l-3.244 3.244 1.237 1.237 2.007-2.006v1.9l-3.244 3.244 1.237 1.237 2.007-2.006v1.9l-3.244 3.244 1.237 1.237 2.006-2.006v1.9l-3.243 3.244 1.237 1.237 2.006-2.006v1.388a2.625 2.625 0 01-2.625 2.625l.001-.001zm138-226.25h-8.75A4.382 4.382 0 00142 64.375v33.25a4.384 4.384 0 004.375 4.375h8.75a4.383 4.383 0 004.375-4.375v-33.25A4.384 4.384 0 00155.125 60zm-3.5 1.75v38.5h-1.75v-38.5h1.75zm-7.875 35.875v-1.388l2.006 2.006 1.237-1.237-3.243-3.243v-1.901l2.006 2.006 1.237-1.237-3.243-3.243v-1.901l2.006 2.006 1.237-1.237-3.243-3.243v-1.901l2.006 2.006 1.237-1.237-3.243-3.243v-1.901l2.006 2.006 1.237-1.237-3.243-3.244v-1.9l2.006 2.006 1.237-1.237-3.244-3.244v-1.9l2.007 2.006 1.237-1.237-3.244-3.244v-1.9l2.007 2.006 1.237-1.237-3.034-3.034a2.625 2.625 0 012.415-1.598h1.75v38.5h-1.75a2.625 2.625 0 01-2.625-2.625l.001.001zm11.375 2.625h-1.75v-38.5h1.75a2.624 2.624 0 012.415 1.598l-3.034 3.033 1.237 1.237 2.007-2.006v1.9l-3.244 3.244 1.237 1.237 2.007-2.006v1.9l-3.244 3.244 1.237 1.237 2.007-2.006v1.9l-3.244 3.245 1.237 1.237 2.007-2.007v1.9l-3.244 3.245 1.237 1.237 2.007-2.007v1.9l-3.244 3.245 1.237 1.237 2.006-2.006v1.9l-3.243 3.244 1.237 1.237 2.006-2.006v1.9l-3.243 3.244 1.237 1.237 2.006-2.006v1.388a2.625 2.625 0 01-2.625 2.625l.001-.001zm0 145.75h-8.75a4.383 4.383 0 00-4.375 4.375v33.25a4.383 4.383 0 004.375 4.375h8.75a4.383 4.383 0 004.375-4.375v-33.25a4.383 4.383 0 00-4.375-4.375zm-3.5 1.75v38.5h-1.75v-38.5h1.75zm-7.875 35.875v-1.388l2.006 2.006 1.237-1.237-3.243-3.243v-1.901l2.006 2.006 1.237-1.237-3.243-3.243v-1.901l2.006 2.006 1.237-1.237-3.243-3.243v-1.901l2.006 2.006 1.237-1.237-3.243-3.243v-1.901l2.006 2.006 1.237-1.237-3.243-3.244v-1.9l2.006 2.006 1.237-1.237-3.244-3.244v-1.9l2.007 2.006 1.237-1.237-3.244-3.244v-1.901l2.007 2.007 1.237-1.238-3.034-3.033a2.625 2.625 0 012.415-1.598h1.75v38.5h-1.75a2.625 2.625 0 01-2.625-2.625l.001.001zm11.375 2.625h-1.75v-38.5h1.75a2.627 2.627 0 012.415 1.598l-3.034 3.033 1.237 1.237 2.007-2.006v1.901l-3.244 3.243 1.237 1.237 2.007-2.006v1.901l-3.244 3.243 1.237 1.238 2.007-2.007v1.901l-3.244 3.244 1.237 1.237 2.007-2.007v1.901l-3.244 3.244 1.237 1.237 2.007-2.006v1.9l-3.244 3.244 1.237 1.237 2.006-2.006v1.9l-3.243 3.244 1.237 1.237 2.006-2.006v1.9l-3.243 3.244 1.237 1.237 2.006-2.006v1.388a2.625 2.625 0 01-2.625 2.625l.001-.001z" fill="#000"/><path d="M151.63 100.71c.38-26.5.76-43.64.76-43.88-.01-14.07-4.3-42.27-20.5-48.78C120.2 3.35 101.22.52 81.82 0c-.08 0-.16.01-.24.01-.09 0-.17-.01-.26-.01v.02c-19.4.51-38.37 3.35-50.07 8.05-16.21 6.51-20.5 34.71-20.5 48.78 0 .23.37 16.92.74 42.84-1.03 1.14-17.12 19.03-8.42 21.18 4.29 1.06 7.01.12 8.68-1.15.1 8.42.19 17.43.27 26.87.43 50.98.43 114.71-1.28 159.38-.3 12.51 7.64 28.89 24.66 33.67 13.45 3.78 30.48 4.8 45.91 4.81v.21h.48v-.21c15.44-.01 32.46-1.03 45.91-4.81 17.01-4.78 24.95-21.16 24.66-33.67-1.71-44.66-1.71-108.39-1.28-159.38.08-9.22.17-18.03.26-26.28 1.7.93 4.18 1.43 7.75.55 7.71-1.9-3.93-16.08-7.46-20.15zm-27.38-88.95c.5-.64 1.33-.91 2.12-.71 2.61.69 8.81 3.7 14.95 16.88 4.24 9.1 4.93 18.37 5.92 21.35.14.42-.21.84-.64.75-6.74-1.49-5.65-4.65-12.31-12.35-.04-.04-.09-.07-.14-.11-16.04-14.59-11.97-23.14-9.9-25.81zM81.81 86.04c20.34.36 40.46 3.4 56.95 9.15 1.61.57 2.79 2.62 2.52 4.28-2.28 14.3-4.62 29.12-7.04 44.38-.22 1.4-1.34 2.32-2.68 2.19-14.98-1.54-32.29-2.37-49.76-2.48h-.48c-17.47.11-34.78.93-49.76 2.48-1.33.14-2.45-.79-2.68-2.19-2.41-15.26-4.76-30.09-7.04-44.38-.26-1.66.92-3.71 2.52-4.28 16.49-5.74 36.61-8.79 56.95-9.15h.5zM15.89 49.28c.99-2.98 1.69-12.25 5.92-21.35 6.13-13.18 12.34-16.19 14.95-16.88.79-.21 1.62.06 2.12.71 2.08 2.67 6.14 11.22-9.9 25.8-.04.04-.1.07-.14.11-6.67 7.7-5.57 10.87-12.31 12.35-.42.1-.78-.32-.64-.74zm4.35 193.37c-.77-.26-1.54-.52-2.29-.78-.8-.28-1.34-1.04-1.35-1.9l-1.17-116.46c-.02-2.47 3.54-2.84 4.02-.42 1.83 9.15 3.74 19.14 4.55 24.88.89 6.39 2.28 26.33 2.28 26.36v10.97s-.07 16.44-.63 28.73c-.62 13.66-2.04 23.01-2.76 27.06a2.033 2.033 0 01-2.65 1.56zm117.62 56.26c-16.39 8.44-36.23 12.9-56.29 13.4-20.05-.5-39.9-4.96-56.29-13.4-2.28-1.19-3.93-4.45-3.51-6.69 2.06-10.83 4.18-22.08 6.36-33.68.34-1.82 1.87-2.76 3.7-2.26 14.92 4.09 32.12 6.28 49.49 6.58h.49c17.37-.3 34.57-2.49 49.49-6.58 1.83-.5 3.36.44 3.7 2.26 2.18 11.6 4.3 22.85 6.36 33.68.42 2.24-1.22 5.5-3.5 6.69zm8.68-58.94c-.01.85-.54 1.61-1.35 1.9-.76.27-1.52.53-2.29.78-1.18.39-2.43-.34-2.65-1.56-.72-4.05-2.15-13.4-2.76-27.06-.56-12.29-.63-28.73-.63-28.73v-10.97c0-.02 1.39-19.97 2.28-26.36.81-5.73 2.72-15.73 4.55-24.88.48-2.42 4.05-2.05 4.02.42l-1.17 116.46z" fill="#E6ECFD"/></svg>