<svg width="71" height="42" fill="none" xmlns="http://www.w3.org/2000/svg"><mask id="a" fill="#fff"><path fill-rule="evenodd" clip-rule="evenodd" d="M22.986 2.622a4.05 4.05 0 00-3.622.9l-9.472 8.332a4 4 0 00-1.117 4.41l4.402 11.685a3.95 3.95 0 002.774 2.446L60.075 41.06a4.053 4.053 0 004.87-2.938l5.071-20.018a3.948 3.948 0 00-2.906-4.817L22.988 2.622zm-4.642 15.84c1.329.322 2.673-.47 3.002-1.769.329-1.298-.482-2.61-1.811-2.932-1.33-.321-2.673.47-3.002 1.77-.329 1.297.482 2.61 1.811 2.931z"/></mask><path d="M19.364 3.522l-.66-.745.66.744zm3.622-.9l.246-.97-.245.97zM9.893 11.854l-.66-.745.66.745zm-1.117 4.41l-.94.357.94-.358zm4.402 11.685l-.94.358.94-.358zm2.774 2.446l.246-.97-.246.97zM60.075 41.06l-.245.97.245-.97zm4.87-2.938l-.971-.235.972.235zm5.071-20.018l.972.235-.972-.235zm-2.906-4.817l-.245.97.246-.97zm-45.764 3.406l-.972-.235.972.235zM20.024 4.266a3.038 3.038 0 012.717-.675l.491-1.938a5.063 5.063 0 00-4.527 1.124l1.32 1.489zm-9.472 8.332l9.472-8.332-1.32-1.489-9.472 8.332 1.32 1.489zm-.838 3.307a3 3 0 01.838-3.307l-1.32-1.489a5 5 0 00-1.397 5.512l1.879-.716zm4.402 11.686L9.714 15.905l-1.879.716 4.403 11.686 1.878-.716zm2.081 1.834a2.963 2.963 0 01-2.081-1.834l-1.878.716a4.938 4.938 0 003.468 3.057l.491-1.939zm44.124 10.666L16.197 29.425l-.491 1.94L59.83 42.028l.491-1.938zm3.653-2.204a3.04 3.04 0 01-3.653 2.204l-.491 1.938a5.066 5.066 0 006.088-3.672l-1.944-.47zm5.07-20.018l-5.07 20.018 1.944.47 5.07-20.018-1.944-.47zm-2.179-3.612a2.96 2.96 0 012.18 3.612l1.943.47a4.934 4.934 0 00-3.632-6.021l-.491 1.939zM22.741 3.59l44.124 10.666.491-1.94L23.232 1.654l-.491 1.938zm-2.367 12.867c-.189.744-.973 1.231-1.784 1.035l-.491 1.939c1.846.446 3.75-.651 4.219-2.504l-1.944-.47zm-1.085-1.727c.811.196 1.273.983 1.085 1.727l1.944.47c.469-1.852-.69-3.69-2.538-4.136l-.49 1.938zm-1.784 1.034c.189-.744.973-1.23 1.784-1.035l.491-1.938c-1.846-.447-3.75.65-4.219 2.503l1.944.47zm1.085 1.728c-.812-.196-1.273-.984-1.085-1.728l-1.944-.47c-.47 1.853.69 3.69 2.538 4.137l.49-1.94z" fill="#BC7100" mask="url(#a)"/><mask id="b" fill="#fff"><path fill-rule="evenodd" clip-rule="evenodd" d="M18.824 1.45a4 4 0 00-3.288 1.721L8.393 13.476a4 4 0 000 4.558l7.143 10.305a4 4 0 003.288 1.721H64.29a4 4 0 004-4V5.45a4 4 0 00-4-4H18.824zm-.608 16.466c1.37 0 2.48-1.084 2.48-2.422 0-1.337-1.11-2.421-2.48-2.421-1.369 0-2.478 1.084-2.478 2.421 0 1.338 1.11 2.422 2.479 2.422z"/></mask><path fill-rule="evenodd" clip-rule="evenodd" d="M18.824 1.45a4 4 0 00-3.288 1.721L8.393 13.476a4 4 0 000 4.558l7.143 10.305a4 4 0 003.288 1.721H64.29a4 4 0 004-4V5.45a4 4 0 00-4-4H18.824zm-.608 16.466c1.37 0 2.48-1.084 2.48-2.422 0-1.337-1.11-2.421-2.48-2.421-1.369 0-2.478 1.084-2.478 2.421 0 1.338 1.11 2.422 2.479 2.422z" fill="#FFEFDC"/><path d="M15.536 3.171l.822.57-.822-.57zM8.393 13.476l.822.57-.822-.57zm0 4.558l-.822.57.822-.57zm7.143 10.305l-.822.57.822-.57zm.822-24.598a3 3 0 012.466-1.291v-2a5 5 0 00-4.11 2.151l1.644 1.14zM9.215 14.046l7.143-10.305-1.644-1.14-7.143 10.306 1.644 1.139zm0 3.418a3 3 0 010-3.418l-1.644-1.14a5 5 0 000 5.697l1.644-1.139zm7.143 10.305L9.215 17.464l-1.644 1.14 7.143 10.305 1.644-1.14zm2.466 1.291a3 3 0 01-2.466-1.29l-1.644 1.139a5 5 0 004.11 2.151v-2zm45.466 0H18.824v2H64.29v-2zm3-3a3 3 0 01-3 3v2a5 5 0 005-5h-2zm0-20.61v20.61h2V5.45h-2zm-3-3a3 3 0 013 3h2a5 5 0 00-5-5v2zm-45.466 0H64.29v-2H18.824v2zm.871 13.044c0 .763-.64 1.422-1.479 1.422v2c1.9 0 3.48-1.51 3.48-3.422h-2zm-1.479-1.421c.84 0 1.48.658 1.48 1.421h2c0-1.911-1.58-3.421-3.48-3.421v2zm-1.478 1.421c0-.763.64-1.421 1.479-1.421v-2c-1.9 0-3.48 1.51-3.48 3.421h2zm1.479 1.422c-.84 0-1.48-.659-1.48-1.422h-2c0 1.912 1.58 3.422 3.48 3.422v-2z" fill="#BC7100" mask="url(#b)"/><path d="M37.142 16.14c-1.195 0-2.16-.373-2.894-1.118-.727-.746-1.09-1.749-1.09-3.01 0-1.375.386-2.467 1.16-3.274.781-.807 1.82-1.21 3.117-1.21 1.242 0 2.211.365 2.906 1.095.703.73 1.055 1.756 1.055 3.078 0 1.36-.387 2.44-1.16 3.24-.774.8-1.805 1.2-3.094 1.2zm.223-6.583c-1.14 0-1.711.78-1.711 2.34 0 1.476.543 2.214 1.629 2.214 1.11 0 1.664-.769 1.664-2.306 0-1.499-.528-2.248-1.582-2.248zm12.047-1.799L38.466 24.291h-2.86L46.53 7.758h2.883zm-1.805 16.764c-1.195 0-2.16-.373-2.895-1.118-.726-.746-1.09-1.75-1.09-3.01 0-1.375.387-2.467 1.16-3.274.782-.807 1.821-1.21 3.118-1.21 1.25 0 2.223.36 2.918 1.083.695.723 1.043 1.745 1.043 3.067 0 1.36-.387 2.444-1.16 3.251-.774.807-1.805 1.21-3.094 1.21zm.187-6.583c-1.132 0-1.699.78-1.699 2.34 0 1.476.551 2.214 1.653 2.214 1.109 0 1.664-.769 1.664-2.306 0-.715-.149-1.268-.446-1.66a1.4 1.4 0 00-1.172-.588z" fill="#BC7100"/><path d="M17.225 15.494c0 10.655-10.907 14.045-14.873 8.718-3.987-5.355 1.652-8.718 6.445-11.623" stroke="#BC7100" stroke-dasharray="2 2"/></svg>