<svg width="72" height="52" fill="none" xmlns="http://www.w3.org/2000/svg"><path fill-rule="evenodd" clip-rule="evenodd" d="M30.389 11H16.792a.26.26 0 00-.13.035c-.457.265-.27.965.26.965h13.06c.126-.338.262-.671.407-1z" fill="#008A48"/><path d="M12.028 15.522l6.27 2.292c.098.035.202.157.202.336 0 .238-.166.35-.275.35h-4.49c-1.192 0-2.235-1.075-2.235-2.5 0-.404.327-.552.528-.478z" stroke="#008A48"/><path d="M3.382 34.773c-.389-.649-.383-1.359-.382-1.59v-16.31a4.28 4.28 0 011.252-3.026L5.71 12.39a2.676 2.676 0 01-.736-.673c-.338-.453-.547-1.036-.547-1.731V7.133h6.488c.52-.633 1.387-1.836 2.214-3.491.682-1.365 1.58-2.3 2.599-2.883C16.737.18 17.777 0 18.679 0h24.23c.7 0 1.442.36 2.091.903l-.64.765c-.553-.463-1.075-.67-1.45-.67H18.678c-.77 0-1.631.154-2.458.627-.83.474-1.598 1.254-2.202 2.463-.863 1.728-1.772 2.994-2.335 3.678l-.3.364h-5.96v1.856c0 .71.305 1.196.713 1.49l.1.067 1.066.664-2.344 2.346a3.282 3.282 0 00-.96 2.32V33.19c-.002.219.005.679.24 1.07.274.457.791.743 1.614.743h7.127c.307 0 .756-.09 1.141-.367.408-.293.713-.779.713-1.49h.996c0 1.036-.463 1.821-1.127 2.3a3.014 3.014 0 01-1.723.554H5.85c-1.06 0-1.963-.383-2.47-1.227z" fill="#008A48"/><rect x="16" y="30" width="19" height="1" rx=".5" fill="#008A48"/><path d="M16 25c0 1 .533 2 2.667 2H32" stroke="#008A48"/><circle cx="51" cy="20" r="18" fill="#fff"/><path fill-rule="evenodd" clip-rule="evenodd" d="M55.866 23.322h-.817l-.284-.282a6.657 6.657 0 001.614-4.35 6.691 6.691 0 00-11.42-4.731 6.69 6.69 0 004.73 11.421 6.654 6.654 0 004.349-1.612l.283.282v.815L59.466 30 61 28.465l-5.134-5.143zm-6.177 0a4.628 4.628 0 01-4.634-4.633 4.632 4.632 0 114.634 4.633z" fill="#008A48"/><path d="M71 20c0 11.046-8.954 20-20 20" stroke="#008A48" stroke-dasharray="1 2"/><path fill="#008A48" d="M0 43h63v1H0zm8 4h47v1H8zm8 4h31v1H16z"/></svg>