<svg width="43" height="47" fill="none" xmlns="http://www.w3.org/2000/svg"><path fill-rule="evenodd" clip-rule="evenodd" d="M25.51 37.146c8.065-1.358 14.209-8.374 14.209-16.825 0-9.424-7.64-17.063-17.063-17.063-9.423 0-17.062 7.64-17.062 17.063 0 4.674 1.879 8.909 4.923 11.99a87.755 87.755 0 002.694-1.093 2.035 2.035 0 011.786.087l10.513 5.84z" fill="#ECE8FF"/><path fill-rule="evenodd" clip-rule="evenodd" d="M24.033 36.325c8.227-.698 14.686-7.597 14.686-16.004 0-8.871-7.192-16.063-16.063-16.063-8.87 0-16.062 7.192-16.062 16.063a16.02 16.02 0 004.94 11.59c-.328.131-.669.266-1.017.4a17.008 17.008 0 01-4.923-11.99c0-9.424 7.639-17.063 17.062-17.063 9.424 0 17.063 7.64 17.063 17.063 0 8.45-6.144 15.467-14.21 16.825l-1.476-.82z" fill="#2E1C75"/><mask id="a" fill="#fff"><path fill-rule="evenodd" clip-rule="evenodd" d="M36.301 34.636A19.753 19.753 0 0042 20.711C42 9.815 33.26 1 22.5 1S3 9.815 3 20.711a19.75 19.75 0 004.851 13.01c-.35.102-.704.2-1.06.298A20.755 20.755 0 012 20.711C2 9.273 11.178 0 22.5 0S43 9.273 43 20.711A20.753 20.753 0 0136.33 36c.406-.522.657-.963.718-1.282l-.747-.082z"/></mask><path d="M36.301 34.636l-.356-.351-.727.736 1.029.112.054-.497zm-28.45-.914l.139.48.754-.216-.515-.592-.378.328zm-1.06.297l-.384.32.206.248.31-.086-.131-.482zM36.33 36l-.394-.306.733.674L36.33 36zm.72-1.281l.49.094.102-.532-.538-.06-.055.498zm-.802.415l.187.02.108-.994-.187-.02-.108.994zm.56.061l.187.02.109-.993-.187-.02-.109.993zm-.25-.57a1.07 1.07 0 01-.082.234l.908.418c.07-.152.127-.309.156-.464l-.982-.188zm-.416.79a7.356 7.356 0 01-.206.279l.788.614c.085-.108.163-.213.236-.316l-.818-.577zm.527.953c.27-.248.532-.504.788-.766l-.716-.698c-.244.25-.494.493-.75.73l.678.734zm2.239-2.415c.454-.573.879-1.17 1.273-1.79l-.844-.537c-.376.59-.78 1.16-1.213 1.706l.784.621zm2.354-3.701c.326-.653.62-1.325.878-2.014l-.936-.351a20.208 20.208 0 01-.837 1.918l.895.447zm1.544-4.107c.184-.703.333-1.42.445-2.15l-.988-.153c-.107.696-.25 1.38-.425 2.05l.968.253zm.667-4.335c.019-.364.028-.73.028-1.098h-1c0 .351-.009.7-.026 1.047l.998.05zm.028-1.098c0-.347-.008-.692-.025-1.035l-.998.047c.015.328.023.657.023.988h1zm-.222-3.097c-.1-.689-.233-1.367-.396-2.033l-.971.24c.156.634.282 1.28.377 1.937l.99-.144zm-.989-4.017a21.223 21.223 0 00-.782-1.918l-.907.423c.277.594.527 1.204.746 1.827l.944-.332zm-1.749-3.75a21.255 21.255 0 00-1.14-1.729l-.807.59c.388.53.75 1.08 1.087 1.649l.86-.51zm-2.442-3.339a21.22 21.22 0 00-1.454-1.475l-.677.735c.484.446.946.915 1.385 1.406l.746-.666zm-3.044-2.802A21.018 21.018 0 0033.34 2.54l-.52.854a19.85 19.85 0 011.632 1.11l.602-.8zM31.52 1.55a20.756 20.756 0 00-1.91-.804l-.34.94c.62.225 1.226.481 1.817.765l.433-.9zM27.63.138a20.715 20.715 0 00-2.032-.409l-.148.99c.656.097 1.301.227 1.934.388l.246-.97zm-4.094-.613A21.133 21.133 0 0022.5-.5v1c.331 0 .66.008.987.024l.049-.999zM22.5-.5c-.347 0-.693.009-1.036.025l.05 1C21.84.507 22.168.5 22.5.5v-1zm-3.098.23c-.689.102-1.367.239-2.032.408l.246.969c.633-.16 1.278-.29 1.934-.389l-.148-.989zM15.389.746c-.652.237-1.289.506-1.91.804l.434.901a19.54 19.54 0 011.818-.765l-.342-.94zM11.66 2.54c-.59.36-1.162.75-1.713 1.165l.602.798c.525-.396 1.07-.766 1.632-1.11l-.52-.853zM8.357 5.033c-.508.467-.993.96-1.454 1.475l.746.666c.439-.49.901-.96 1.385-1.406l-.677-.735zM5.6 8.118a21.262 21.262 0 00-1.14 1.73l.86.508c.336-.567.699-1.117 1.087-1.647l-.807-.59zM3.493 11.68c-.29.623-.552 1.263-.783 1.918l.944.332c.22-.623.469-1.233.746-1.827l-.907-.423zm-1.375 3.902a21.304 21.304 0 00-.396 2.033l.99.144c.095-.657.221-1.303.377-1.938l-.97-.239zm-.593 4.095A21.77 21.77 0 001.5 20.71h1c0-.331.008-.66.023-.988l-.998-.047zM1.5 20.71c0 .31.007.617.02.923l.999-.042a20.79 20.79 0 01-.019-.881h-1zm.177 2.763c.079.615.184 1.222.315 1.82l.977-.213a20.333 20.333 0 01-.3-1.735l-.992.128zm.786 3.606c.184.59.393 1.17.625 1.738l.926-.38a20.2 20.2 0 01-.596-1.656l-.955.298zm1.4 3.415c.283.549.589 1.083.917 1.603l.845-.534a20.258 20.258 0 01-.874-1.528l-.888.459zm1.97 3.12c.186.246.377.487.574.724l.77-.64a20.14 20.14 0 01-.548-.688l-.797.605zm1.09.886l.267-.073-.267-.964-.263.073.264.964zm.8-.222l.267-.077-.277-.96-.263.075.273.962zm.506-.885a19.3 19.3 0 01-.553-.665l-.783.622c.189.238.382.47.581.7l.755-.657zm-1.566-2.065a19.26 19.26 0 01-.883-1.485l-.882.472a19.9 19.9 0 00.93 1.562l.835-.549zm-1.63-3.044a19.195 19.195 0 01-.603-1.619l-.952.307c.187.58.399 1.148.635 1.703l.92-.39zM3.975 25a19.33 19.33 0 01-.304-1.701l-.992.132c.08.605.188 1.202.32 1.79l.976-.22zm-.456-3.423a19.781 19.781 0 01-.019-.865h-1c0 .304.007.607.02.909l.999-.044zM3.5 20.71c0-.315.007-.628.022-.939l-.999-.047c-.015.327-.023.655-.023.986h1zm.201-2.807c.09-.624.21-1.238.358-1.84l-.97-.24a20.27 20.27 0 00-.378 1.937l.99.143zm.894-3.638a19.24 19.24 0 01.709-1.736l-.907-.423a20.212 20.212 0 00-.745 1.827l.943.332zm1.583-3.396c.32-.54.664-1.062 1.032-1.566l-.807-.59c-.388.53-.75 1.08-1.086 1.648l.861.508zM8.39 7.846c.417-.467.856-.913 1.316-1.337l-.678-.735A20.4 20.4 0 007.644 7.18l.746.666zm2.755-2.538a19.016 19.016 0 011.55-1.055l-.52-.854a20.01 20.01 0 00-1.632 1.11l.602.798zm3.197-1.951c.561-.27 1.137-.514 1.727-.728l-.342-.94c-.62.226-1.228.482-1.819.767l.434.9zm3.518-1.28a18.72 18.72 0 011.837-.37L19.55.72a19.72 19.72 0 00-1.936.389l.246.97zm3.703-.554c.31-.015.623-.023.938-.023v-1c-.33 0-.66.008-.987.024l.05.999zM22.5 1.5c.314 0 .627.008.938.023l.049-.999A20.098 20.098 0 0022.5.5v1zm2.803.208a18.72 18.72 0 011.838.37l.246-.97a19.72 19.72 0 00-1.936-.39l-.148.99zm3.629.92c.59.215 1.166.459 1.727.729l.434-.901a19.772 19.772 0 00-1.82-.767l-.341.94zm3.373 1.625c.535.326 1.052.678 1.55 1.054l.603-.798a20.05 20.05 0 00-1.632-1.11l-.52.854zm2.99 2.256c.46.424.9.87 1.316 1.337l.746-.666c-.438-.491-.9-.96-1.384-1.406l-.678.735zm2.495 2.795c.368.504.713 1.027 1.032 1.566l.86-.508a20.244 20.244 0 00-1.085-1.648l-.807.59zm1.906 3.226c.263.564.5 1.143.709 1.736l.943-.332a20.206 20.206 0 00-.745-1.827l-.907.423zm1.245 3.533c.148.603.268 1.217.358 1.841l.99-.143a20.291 20.291 0 00-.377-1.936l-.971.238zm.537 3.71c.014.31.022.623.022.938h1c0-.33-.008-.66-.023-.986l-1 .047zm.022.938c0 .315-.008.629-.022.94l.998.048c.016-.327.024-.657.024-.988h-1zm-.202 2.813a19.09 19.09 0 01-.36 1.845l.971.239c.157-.636.283-1.283.379-1.94l-.99-.144zM40.4 27.17c-.21.594-.447 1.174-.712 1.74l.906.423a20.34 20.34 0 00.749-1.83l-.943-.333zm-1.59 3.401a19.25 19.25 0 01-1.036 1.569l.806.591c.39-.53.753-1.08 1.09-1.65l-.86-.51zM36.59 33.6c-.21.233-.425.462-.645.685l.712.702c.232-.234.457-.474.678-.72l-.745-.667zm-.289 1.036l-.711-.703-1.454 1.473 2.056.224.11-.994zm-28.45-.914l.277.961 1.508-.434-1.03-1.184-.755.657zm-1.06.297l-.768.64.411.495.622-.17-.264-.965zM36.33 36l-.789-.614 1.468 1.35-.679-.735zm.72-1.281l.982.188.203-1.065-1.077-.117-.109.994zm-.856.912l.186.02.218-1.988-.187-.02-.217 1.988zm.56.061l.187.02.217-1.987-.187-.02-.217 1.987zm-.687-1.161c0-.002-.001.008-.009.03a.927.927 0 01-.036.089l1.816.837c.082-.177.154-.374.194-.58l-1.965-.376zm-.333.596a6.95 6.95 0 01-.193.26l1.578 1.228c.088-.113.172-.225.25-.335l-1.635-1.153zm1.275 1.608c.275-.254.544-.515.806-.784l-1.432-1.397c-.237.244-.481.481-.731.712l1.357 1.47zm2.29-2.471c.465-.587.9-1.198 1.303-1.832l-1.687-1.074a19.706 19.706 0 01-1.183 1.664l1.567 1.242zm2.41-3.789c.334-.668.634-1.355.9-2.06l-1.873-.704c-.24.64-.513 1.264-.816 1.87l1.79.894zm1.58-4.203c.189-.72.341-1.455.456-2.202l-1.977-.304a19.779 19.779 0 01-.414 2l1.935.506zm.684-4.437c.018-.372.028-.747.028-1.123h-2c0 .343-.009.684-.026 1.022l1.998.101zM44 20.711c0-.355-.008-.708-.025-1.06l-1.998.096c.015.32.023.64.023.964h2zm-.227-3.168a21.79 21.79 0 00-.406-2.08l-1.942.477c.152.618.276 1.249.368 1.89l1.98-.287zM42.76 13.43a21.692 21.692 0 00-.801-1.963l-1.813.846c.27.579.513 1.173.728 1.781l1.886-.664zm-1.79-3.838a21.8 21.8 0 00-1.167-1.77L38.19 9.004c.378.517.732 1.053 1.06 1.607l1.72-1.018zm-2.5-3.418a21.709 21.709 0 00-1.488-1.51l-1.355 1.471c.472.435.923.892 1.35 1.372l1.492-1.333zm-3.116-2.868A21.542 21.542 0 0033.6 2.114l-1.04 1.708c.548.334 1.079.695 1.59 1.081l1.205-1.596zM31.737 1.1a21.265 21.265 0 00-1.956-.824l-.683 1.88c.605.22 1.196.469 1.772.746l.867-1.802zM27.753-.347a21.22 21.22 0 00-2.081-.418l-.296 1.978c.64.095 1.268.222 1.885.378l.492-1.938zM23.56-.974A21.63 21.63 0 0022.5-1v2c.323 0 .644.008.962.024l.099-1.998zM22.5-1c-.355 0-.71.009-1.06.026l.098 1.998c.318-.016.64-.024.962-.024v-2zm-3.172.235c-.705.105-1.4.245-2.08.418l.49 1.938a19.213 19.213 0 011.886-.378l-.296-1.978zM15.218.277a21.3 21.3 0 00-1.955.824l.867 1.802a19.266 19.266 0 011.772-.746l-.683-1.88zM11.4 2.114c-.605.37-1.19.767-1.754 1.193l1.205 1.596a19.548 19.548 0 011.59-1.081L11.4 2.114zm-3.382 2.55c-.52.48-1.016.984-1.488 1.511l1.492 1.333c.428-.48.879-.937 1.35-1.372L8.018 4.665zm-2.82 3.16A21.45 21.45 0 004.03 9.593l1.722 1.018a19.38 19.38 0 011.06-1.607l-1.615-1.18zM3.04 11.467a21.7 21.7 0 00-.801 1.963l1.886.664c.215-.608.458-1.202.728-1.781l-1.813-.846zm-1.407 3.994a21.803 21.803 0 00-.406 2.08l1.98.287c.093-.64.216-1.27.368-1.89l-1.942-.477zm-.608 4.19c-.017.35-.025.704-.025 1.059h2c0-.323.008-.645.023-.964l-1.998-.095zM1 20.71c0 .316.007.631.02.944l1.998-.085A20.29 20.29 0 013 20.712H1zm.18 2.827c.082.63.19 1.25.323 1.862l1.954-.426a19.982 19.982 0 01-.293-1.692l-1.983.256zm.806 3.69c.188.605.402 1.198.64 1.78l1.85-.76a19.69 19.69 0 01-.58-1.614l-1.91.594zm1.432 3.496c.29.562.603 1.11.939 1.64l1.691-1.067a19.18 19.18 0 01-.852-1.49l-1.778.917zm2.016 3.194c.191.251.387.498.589.74L7.56 33.38a19.18 19.18 0 01-.534-.672l-1.593 1.21zm1.622 1.066l.268-.074-.534-1.928-.263.073.529 1.929zm.804-.224l.268-.077-.553-1.922-.261.075.546 1.924zm.746-1.694a18.79 18.79 0 01-.538-.648L6.5 33.662c.194.243.392.482.596.716l1.509-1.313zM7.08 31.053a18.23 18.23 0 01-.86-1.446l-1.764.944c.294.549.612 1.083.953 1.6l1.67-1.098zM5.494 28.09a18.706 18.706 0 01-.588-1.577l-1.904.613a20.7 20.7 0 00.65 1.746l1.842-.782zm-1.031-3.2a18.82 18.82 0 01-.297-1.658l-1.982.264c.082.62.192 1.231.328 1.833l1.95-.44zm-.445-3.336c-.012-.28-.018-.56-.018-.843H2c0 .312.007.622.02.93l1.998-.087zM4 20.71c0-.307.007-.612.022-.915L2.024 19.7A21.27 21.27 0 002 20.711h2zm.196-2.735a18.8 18.8 0 01.35-1.793l-1.943-.478c-.16.65-.29 1.312-.386 1.985l1.979.286zm.87-3.544c.204-.577.435-1.142.69-1.691l-1.812-.845a20.694 20.694 0 00-.764 1.872l1.887.664zm1.543-3.307c.31-.526.646-1.035 1.005-1.526L5.999 8.42a20.748 20.748 0 00-1.112 1.688l1.722 1.018zm2.153-2.946c.406-.455.834-.89 1.281-1.302l-1.355-1.47c-.495.456-.969.937-1.418 1.44L8.762 8.18zm2.683-2.472c.486-.367.99-.71 1.51-1.027l-1.042-1.707a20.54 20.54 0 00-1.672 1.137l1.204 1.597zm3.113-1.9c.546-.263 1.107-.5 1.681-.708l-.684-1.88c-.637.232-1.259.495-1.865.786l.868 1.802zm3.424-1.245a18.222 18.222 0 011.788-.36L19.475.224c-.673.1-1.335.234-1.985.4l.492 1.938zm3.605-.54c.302-.014.607-.022.913-.022V0c-.339 0-.676.008-1.011.025l.098 1.997zM22.5 2c.306 0 .61.008.913.022l.099-1.997A20.605 20.605 0 0022.5 0v2zm2.73.202c.606.09 1.202.211 1.788.36L27.51.623a20.22 20.22 0 00-1.985-.399l-.295 1.978zm3.53.897c.575.209 1.136.445 1.682.708l.868-1.802a20.256 20.256 0 00-1.865-.786L28.76 3.1zm3.285 1.58c.52.318 1.024.661 1.51 1.028l1.204-1.597a20.537 20.537 0 00-1.672-1.137L32.045 4.68zm2.911 2.198c.448.413.876.847 1.282 1.302l1.492-1.332c-.45-.503-.923-.984-1.418-1.44l-1.355 1.47zm2.43 2.722c.36.491.695 1 1.005 1.526l1.722-1.018a20.732 20.732 0 00-1.112-1.688L37.387 9.6zm1.857 3.142c.256.55.487 1.114.69 1.691l1.887-.664c-.225-.64-.48-1.264-.764-1.872l-1.813.845zm1.212 3.442c.144.587.261 1.185.349 1.793l1.98-.286a20.785 20.785 0 00-.387-1.985l-1.942.478zm.523 3.613c.015.303.022.608.022.915h2c0-.339-.008-.675-.024-1.01l-1.998.095zm.022.915c0 .308-.007.613-.022.917l1.998.095c.016-.335.024-.673.024-1.012h-2zm-.197 2.74c-.088.61-.206 1.21-.35 1.798l1.941.478c.16-.65.29-1.314.389-1.988l-1.98-.287zm-.875 3.552a18.664 18.664 0 01-.693 1.695l1.812.847c.285-.61.541-1.236.767-1.876l-1.886-.666zm-1.548 3.314c-.312.526-.65 1.036-1.01 1.527l1.613 1.183c.399-.544.772-1.108 1.117-1.69l-1.72-1.02zm-2.163 2.95c-.204.227-.413.45-.627.666l1.423 1.406c.237-.24.468-.487.694-.739l-1.49-1.334z" fill="#2E1C75" mask="url(#a)"/><path d="M1 34.758c1.969 0 2.625-.393 3.938-.656 2.275-.455 6.031-1.93 8.273-2.884a2.035 2.035 0 011.786.087l10.94 6.078c-.437 1.97-2.625 5.12-7.875 1.97" stroke="#2E1C75"/><path d="M1 45.914l9.884-3.088a2 2 0 011.229.011l8.563 2.855a2 2 0 001.327-.022l17.06-6.318c3.937-1.312 2.015-6.578-1.97-5.25-3.937 1.313-9.187 3.281-11.812 3.938" stroke="#2E1C75"/><path d="M24.469 23.447c0-.49-.138-.88-.413-1.166-.27-.293-.73-.563-1.382-.808a17.107 17.107 0 01-1.687-.727 5.687 5.687 0 01-1.22-.834 3.494 3.494 0 01-.79-1.113c-.185-.424-.277-.93-.277-1.516 0-1.01.323-1.84.969-2.485.645-.646 1.504-1.023 2.575-1.13v-1.92h1.435v1.946c1.059.15 1.887.592 2.485 1.328.598.73.898 1.678.898 2.844h-2.593c0-.718-.15-1.253-.449-1.606-.293-.359-.688-.538-1.184-.538-.49 0-.87.14-1.14.422-.269.275-.404.658-.404 1.148 0 .455.132.82.395 1.095s.75.556 1.463.843c.718.287 1.307.56 1.767.817.46.25.85.538 1.167.86.317.318.559.683.726 1.096.168.406.252.882.252 1.426 0 1.017-.317 1.842-.952 2.476-.633.634-1.507 1.008-2.62 1.122v1.785h-1.426v-1.776c-1.226-.132-2.177-.565-2.853-1.301-.67-.742-1.005-1.726-1.005-2.952H20.8c0 .712.168 1.26.503 1.642.34.377.828.565 1.462.565.526 0 .942-.137 1.247-.412.305-.282.458-.659.458-1.131z" fill="#2E1C75"/></svg>