<svg width="55" height="15" fill="none" xmlns="http://www.w3.org/2000/svg"><g clip-path="url(#clip0_3403_80667)"><path d="M15.657 11.043l1.205-1.673c.526.447 1.02.779 1.469.994a3.63 3.63 0 001.437.315c.494 0 .88-.083 1.16-.249.277-.165.416-.38.416-.662 0-.265-.092-.464-.278-.597-.185-.149-.494-.248-.927-.331l-1.917-.364c-.71-.133-1.252-.431-1.638-.878-.386-.448-.572-1.01-.572-1.707 0-.894.325-1.606.959-2.136.633-.53 1.514-.779 2.627-.779.65 0 1.298.116 1.963.365.664.248 1.236.563 1.7.977l-1.144 1.706c-.463-.381-.912-.663-1.345-.845a3.423 3.423 0 00-1.344-.265c-.433 0-.773.066-1.036.215-.247.15-.386.348-.386.597 0 .232.077.414.247.546.17.133.433.232.788.282l1.809.315c.834.149 1.483.447 1.916.894.433.448.65 1.044.65 1.773 0 .944-.34 1.69-1.036 2.253-.68.546-1.623.828-2.798.828a5.508 5.508 0 01-2.086-.414 6.196 6.196 0 01-1.84-1.16zm14.822.497c-.418.381-.85.646-1.283.812a4.148 4.148 0 01-1.484.248c-.494 0-.974-.1-1.406-.281a3.344 3.344 0 01-1.144-.779 3.661 3.661 0 01-.757-1.176 3.724 3.724 0 01-.279-1.441c0-.514.093-.994.263-1.441.186-.448.418-.845.727-1.176a3.348 3.348 0 012.457-1.06c.48 0 .927.099 1.33.298a3.21 3.21 0 011.05.811c.294.331.526.746.696 1.226.17.48.247.994.247 1.54v.53h-4.714c.14.332.34.597.618.812.278.216.619.315 1.005.315.278 0 .525-.05.742-.133a1.65 1.65 0 00.572-.397l1.36 1.292zm-2.952-4.506c-.34 0-.619.1-.866.299-.247.198-.417.48-.51.828h2.767c-.109-.332-.278-.613-.526-.812a1.366 1.366 0 00-.865-.315zm6.413-4.39v9.84h-2.025V3.107l2.025-.464zm7.356 8.896c-.417.381-.85.646-1.283.812-.432.165-.927.248-1.483.248-.495 0-.974-.1-1.407-.281a3.343 3.343 0 01-1.144-.779 3.663 3.663 0 01-.757-1.176 3.726 3.726 0 01-.278-1.441c0-.514.093-.994.263-1.441.185-.448.417-.845.726-1.176a3.31 3.31 0 011.097-.779 3.348 3.348 0 011.36-.282c.48 0 .928.1 1.33.299a3.21 3.21 0 011.05.811c.294.348.526.746.696 1.226.17.48.247.994.247 1.54v.53H37c.14.332.34.597.619.812.278.216.618.315 1.004.315.278 0 .526-.05.742-.133a1.65 1.65 0 00.572-.397l1.36 1.292zm-2.937-4.506c-.34 0-.618.1-.865.299-.247.198-.417.48-.51.828h2.767c-.109-.332-.279-.613-.526-.812-.263-.199-.541-.315-.866-.315zm7.621 3.71c.279 0 .526-.066.758-.182.232-.133.464-.315.68-.58l1.206 1.342c-.34.414-.742.729-1.221.96a3.45 3.45 0 01-1.515.348c-.495 0-.958-.099-1.376-.281a3.375 3.375 0 01-1.112-.779 3.82 3.82 0 01-.742-1.16 3.716 3.716 0 01-.263-1.44c0-.514.093-.994.263-1.458a3.63 3.63 0 01.742-1.16c.309-.331.68-.58 1.112-.778a3.26 3.26 0 011.376-.282c.54 0 1.051.116 1.546.348a3.55 3.55 0 011.252.96l-1.237 1.376a2.398 2.398 0 00-.711-.613 1.66 1.66 0 00-.804-.199c-.432 0-.803.182-1.097.53-.294.348-.448.779-.448 1.292 0 .514.154.928.448 1.276.325.298.695.48 1.144.48zm4.512-.43V7.199h-1.329V5.394h1.33V3.572l2.024-.464v2.286h1.855v1.805h-1.855v2.684c0 .315.062.53.2.662.125.133.356.2.68.2.155 0 .31-.017.45-.034.138-.016.293-.066.463-.116v1.756a3.235 3.235 0 01-.696.15c-.278.032-.525.065-.71.065-.789 0-1.392-.182-1.794-.563-.417-.38-.618-.944-.618-1.69z" fill="#333"/><path d="M10.902 8.177c0 3.078-3.69 4.82-4.689 5.229-.96-.39-4.387-2.021-4.67-4.858l-.018-.538V3.58c1.563-.223 3.145-.76 4.688-1.632a14.03 14.03 0 002.561 1.131l.113.037.96-1.224-.131-.037C8.66 1.576 7.626 1.113 6.57.501L6.195.278l-.396.223C4.086 1.52 2.372 2.095.678 2.225L0 2.281v5.914c0 4.58 5.686 6.638 5.931 6.713l.245.092.245-.092c.244-.075 5.93-2.114 5.93-6.713v-2.41l-1.487 1.928v.464h.038z" fill="#2158F5"/><path d="M12.542 0L6.178 8.195 4.276 6.471 2.62 8.25l3.898 3.523L14.52 1.445 12.542 0z" fill="#333"/></g><defs><clipPath id="clip0_3403_80667"><path fill="#fff" d="M0 0h54.375v15H0z"/></clipPath></defs></svg>