<svg width="17" height="17" fill="none" xmlns="http://www.w3.org/2000/svg"><path d="M15.938 8.5a7.438 7.438 0 11-14.876 0 7.438 7.438 0 0114.876 0z" fill="#3A844A"/><path fill-rule="evenodd" clip-rule="evenodd" d="M17 8.5a8.5 8.5 0 11-17 0 8.5 8.5 0 0117 0zm-8.5 7.438a7.438 7.438 0 100-14.876 7.438 7.438 0 000 14.876z" fill="#fff"/><path fill-rule="evenodd" clip-rule="evenodd" d="M10.429 11.859a3.844 3.844 0 01-1.69.38 3.926 3.926 0 01-1.494-.281 3.988 3.988 0 01-1.182-.793 3.783 3.783 0 01-.788-1.171 3.94 3.94 0 01-.28-1.486c0-.539.094-1.034.28-1.485a3.55 3.55 0 01.771-1.189 3.43 3.43 0 011.166-.792c.46-.198.946-.297 1.46-.297.574 0 1.119.12 1.635.361l1.646-1.655a6.504 6.504 0 00-.605-.307 6.357 6.357 0 00-2.675-.594c-.854 0-1.658.154-2.413.462a6.137 6.137 0 00-1.937 1.254 5.781 5.781 0 00-1.297 1.899 5.788 5.788 0 00-.476 2.343c0 .836.153 1.618.46 2.344.317.726.75 1.353 1.296 1.881a6.138 6.138 0 001.937 1.255 6.37 6.37 0 002.43.462c.897 0 1.767-.193 2.61-.578.853-.385 1.553-.902 2.1-1.551l-1.559-1.552a4.27 4.27 0 01-1.395 1.09z" fill="url(#paint0_angular_206_749)"/><path fill-rule="evenodd" clip-rule="evenodd" d="M10.429 11.859a3.844 3.844 0 01-1.69.38 3.926 3.926 0 01-1.494-.281 3.988 3.988 0 01-1.182-.793 3.783 3.783 0 01-.788-1.171 3.94 3.94 0 01-.28-1.486c0-.539.094-1.034.28-1.485a3.55 3.55 0 01.771-1.189 3.43 3.43 0 011.166-.792c.46-.198.946-.297 1.46-.297.574 0 1.119.12 1.635.361l1.646-1.655a6.504 6.504 0 00-.605-.307 6.357 6.357 0 00-2.675-.594c-.854 0-1.658.154-2.413.462a6.137 6.137 0 00-1.937 1.254 5.781 5.781 0 00-1.297 1.899 5.788 5.788 0 00-.476 2.343c0 .836.153 1.618.46 2.344.317.726.75 1.353 1.296 1.881a6.138 6.138 0 001.937 1.255 6.37 6.37 0 002.43.462c.897 0 1.767-.193 2.61-.578.853-.385 1.553-.902 2.1-1.551l-1.559-1.552a4.27 4.27 0 01-1.395 1.09z" fill="url(#paint1_angular_206_749)"/><path fill-rule="evenodd" clip-rule="evenodd" d="M12.791 4.016c.916.915.916 2.4 0 3.316l-3.793 3.792-3.056-3.056L7.6 6.409l1.398 1.399 3.793-3.792z" fill="#96FFAD"/><mask id="a" style="mask-type:alpha" maskUnits="userSpaceOnUse" x="5" y="4" width="9" height="8"><path fill-rule="evenodd" clip-rule="evenodd" d="M12.787 4.023c.916.916.917 2.401.002 3.319L9 11.143 5.941 8.087 7.6 6.429l1.398 1.398 3.79-3.804z" fill="#fff"/></mask><g mask="url(#a)"><path opacity=".2" d="M6.889 9.819l2.11-2.016-1.243-1.534h-.372l-1.86 1.86 1.365 1.69z" fill="url(#paint2_linear_206_749)"/></g><defs><radialGradient id="paint0_angular_206_749" cx="0" cy="0" r="1" gradientUnits="userSpaceOnUse" gradientTransform="matrix(4.54045 -4.82518 4.99673 4.70187 8 8.5)"><stop offset=".243" stop-color="#2158F5"/><stop offset="1" stop-color="#01A553"/></radialGradient><radialGradient id="paint1_angular_206_749" cx="0" cy="0" r="1" gradientUnits="userSpaceOnUse" gradientTransform="matrix(4.54045 -4.82518 4.99673 4.70187 8 8.5)"><stop offset=".243" stop-color="#fff"/><stop offset="1" stop-color="#fff"/></radialGradient><linearGradient id="paint2_linear_206_749" x1="8.296" y1="8.529" x2="7.006" y2="7.005" gradientUnits="userSpaceOnUse"><stop/><stop offset="1" stop-opacity="0"/></linearGradient></defs></svg>