<svg width="18" height="20" fill="none" xmlns="http://www.w3.org/2000/svg"><g filter="url(#filter0_d_208_754)"><rect x="2" y="1" width="14" height="16" rx="3" fill="#fff"/></g><rect x="3" y="2" width="12" height="14" rx="2" fill="#1B294F"/><rect x="4" y="3" width="10" height="5" rx="1" fill="#FAFAFA"/><path d="M12.19 4v.576h-.305V4h.305zm-.038 3.19v.525h-.304v-.526h.304zm.215-.641a.404.404 0 00-.04-.19.37.37 0 00-.13-.138 1.128 1.128 0 00-.238-.117 3.362 3.362 0 01-.447-.208.874.874 0 01-.3-.275.759.759 0 01-.107-.42c0-.161.039-.301.116-.42a.751.751 0 01.318-.273c.137-.065.296-.098.477-.098.138 0 .263.021.375.063a.786.786 0 01.474.466c.043.114.065.243.065.39h-.56a.765.765 0 00-.026-.208.418.418 0 00-.074-.15.29.29 0 00-.114-.09.34.34 0 00-.146-.031.367.367 0 00-.195.046.277.277 0 00-.112.127.457.457 0 00-.033.18.41.41 0 00.035.174c.025.05.067.095.127.137.06.04.142.082.246.125.17.065.318.135.445.21a.892.892 0 01.3.278.75.75 0 01.107.418c0 .168-.04.311-.117.43a.748.748 0 01-.329.27 1.396 1.396 0 01-.846.045.963.963 0 01-.322-.157.76.76 0 01-.23-.285A1.018 1.018 0 0111 6.406h.563c0 .095.012.175.037.239a.406.406 0 00.097.15.374.374 0 00.14.078.548.548 0 00.16.023.416.416 0 00.204-.044.295.295 0 00.123-.123.373.373 0 00.043-.18z" fill="#000"/><rect x="4" y="9" width="2" height="2" rx="1" fill="#FFA300"/><rect x="7" y="9" width="2" height="2" rx="1" fill="#FFA300"/><rect x="7" y="12" width="2" height="2" rx="1" fill="#FFA300"/><rect x="4" y="12" width="2" height="2" rx="1" fill="#FFA300"/><rect x="10" y="9" width="4" height="5" rx="1" fill="#6A6F73"/><defs><filter id="filter0_d_208_754" x="0" y="0" width="18" height="20" filterUnits="userSpaceOnUse" color-interpolation-filters="sRGB"><feFlood flood-opacity="0" result="BackgroundImageFix"/><feColorMatrix in="SourceAlpha" values="0 0 0 0 0 0 0 0 0 0 0 0 0 0 0 0 0 0 127 0" result="hardAlpha"/><feOffset dy="1"/><feGaussianBlur stdDeviation="1"/><feComposite in2="hardAlpha" operator="out"/><feColorMatrix values="0 0 0 0 0 0 0 0 0 0 0 0 0 0 0 0 0 0 0.15 0"/><feBlend in2="BackgroundImageFix" result="effect1_dropShadow_208_754"/><feBlend in="SourceGraphic" in2="effect1_dropShadow_208_754" result="shape"/></filter></defs></svg>