<svg width="22" height="14" fill="none" xmlns="http://www.w3.org/2000/svg"><circle cx="5.5" cy="11" r="2.5" fill="#fff"/><circle cx="17.5" cy="11" r="2.5" fill="#fff"/><path d="M2 8v3h12V8H2z" fill="#2158F5"/><path d="M2 8v3h12V8H2z" fill="url(#paint0_linear_206_936)" fill-opacity=".2"/><path fill="#fff" d="M1 2h13v6H1zm17.5 1H15l-1 1.5.5 6H20V6l-1.5-3z"/><path fill="url(#paint1_linear_206_936)" d="M1 2h13v6H1z"/><path d="M14 3h5l1.5 8H14V3z" fill="url(#paint2_linear_206_936)"/><path d="M.5 11a.5.5 0 00.5.5h20a.5.5 0 00.5-.5V6.263a.5.5 0 00-.066-.248L19.33 2.331a.5.5 0 00-.434-.252h-3.71V1a.5.5 0 00-.5-.5H1a.5.5 0 00-.5.5v10z" stroke="#fff" stroke-linejoin="round"/><path fill-rule="evenodd" clip-rule="evenodd" d="M15.472 11.364c.229.865 1.034 1.488 1.974 1.488s1.745-.623 1.974-1.488h1.07c.282 0 .51-.222.51-.496V6.445l-.076-.261-1.888-3.48a.51.51 0 00-.45-.265v-.001h-3.675v-.942A.503.503 0 0014.4 1H1.51a.503.503 0 00-.51.496V2h1.02v-.008h11.872v8.38H7.598c-.228-.864-1.034-1.487-1.974-1.487s-1.745.623-1.974 1.488H2.02V8H1v2.868c0 .274.228.496.51.496h2.14c.23.865 1.034 1.488 1.974 1.488s1.746-.623 1.974-1.488h7.874zM2.019 3.222H1v.741h1.02v-.74zm0 2.222V6H1v-.556h1.02zm17.4 4.929c-.228-.865-1.033-1.488-1.973-1.488-.94 0-1.745.623-1.974 1.488h-.561V3.43h.688v3.015c0 .274.228.495.51.495h3.872v3.433h-.561zM18.28 3.43l1.367 2.519h-3.03v-2.52h1.663z" fill="#2158F5"/><circle cx="5.5" cy="11" r="1" fill="#fff"/><circle cx="17.5" cy="11" r="1" fill="#fff"/><path fill="#2158F5" d="M1 3.222h5.185v.741H1zm0 2.222h2.963v.741H1z"/><defs><linearGradient id="paint0_linear_206_936" x1="8" y1="10.5" x2="8" y2="8" gradientUnits="userSpaceOnUse"><stop/><stop offset="1" stop-opacity="0"/></linearGradient><linearGradient id="paint1_linear_206_936" x1="7.5" y1="2" x2="7.5" y2="8" gradientUnits="userSpaceOnUse"><stop stop-color="#0085FF" stop-opacity="0"/><stop offset=".484" stop-color="#FAFCFF" stop-opacity=".505"/><stop offset="1" stop-color="#fff"/></linearGradient><linearGradient id="paint2_linear_206_936" x1="17.5" y1="3" x2="17.5" y2="11" gradientUnits="userSpaceOnUse"><stop stop-color="#0085FF" stop-opacity="0"/><stop offset=".484" stop-color="#FAFCFF" stop-opacity=".505"/><stop offset="1" stop-color="#fff"/></linearGradient></defs></svg>