<svg width="118" height="120" fill="none" xmlns="http://www.w3.org/2000/svg"><circle opacity=".2" cx="59" cy="59" r="59" fill="#266BA5"/><g filter="url(#filter0_dd)"><path d="M59 112c29.271 0 53-23.729 53-53S88.271 6 59 6 6 29.729 6 59s23.729 53 53 53z" fill="#fff"/></g><path d="M79.17 86.366V82.84c0-.705-.47-1.175-1.176-1.175h-5.592v-2.351c0-.705-.47-1.175-1.175-1.175H44.195c-.705 0-1.175.47-1.175 1.175v2.35h-5.592c-.706 0-1.176.47-1.176 1.176v3.526c0 .705.47 1.175 1.176 1.175h40.566c.705 0 1.175-.47 1.175-1.175zm8.48-19.145l-3.056 3.056c-.47.47-1.175.47-1.645 0L66.142 53.47l-8.58 8.58c-.47.47-1.175.47-1.645 0L45.809 51.942a1.136 1.136 0 010-1.645l21.861-21.86a1.134 1.134 0 011.645 0l10.108 10.107c.47.47.47 1.175 0 1.645l-8.58 8.58L87.65 65.576c.47.47.47 1.175 0 1.645z" fill="#266BA5"/><mask id="a" maskUnits="userSpaceOnUse" x="45" y="28" width="44" height="43"><path d="M87.65 67.221l-3.056 3.056c-.47.47-1.175.47-1.645 0L66.142 53.47l-8.58 8.58c-.47.47-1.175.47-1.645 0L45.809 51.942a1.136 1.136 0 010-1.645l21.861-21.86a1.134 1.134 0 011.645 0l10.108 10.107c.47.47.47 1.175 0 1.645l-8.58 8.58L87.65 65.576c.47.47.47 1.175 0 1.645z" fill="#266BA5"/></mask><g mask="url(#a)"><path d="M65.92 53.847l5.888-5.889 11.778.737 7.361 9.57 2.209 17.666-12.514-3.68-17.667-11.779 2.944-6.625z" fill="#266BA5"/></g><path d="M29.556 59.994h5.888c.884 0 1.473-.589 1.473-1.472s-.59-1.472-1.473-1.472h-5.888c-.884 0-1.473.589-1.473 1.472s.737 1.472 1.473 1.472zm2.502-8.834c-.588-.588-.588-1.472 0-2.06.59-.59 1.473-.59 2.062 0l3.68 3.68c.589.589.589 1.472 0 2.061s-1.472.589-2.061 0l-3.68-3.68zM37.8 62.055c.589.589.589 1.472 0 2.061l-3.68 3.68c-.59.59-1.473.59-2.062 0-.588-.588-.588-1.472 0-2.06l3.68-3.681c.59-.589 1.473-.589 2.062 0z" fill="#266BA5"/><defs><filter id="filter0_dd" x="2" y="5" width="114" height="115" filterUnits="userSpaceOnUse" color-interpolation-filters="sRGB"><feFlood flood-opacity="0" result="BackgroundImageFix"/><feColorMatrix in="SourceAlpha" values="0 0 0 0 0 0 0 0 0 0 0 0 0 0 0 0 0 0 127 0"/><feOffset dy="1"/><feGaussianBlur stdDeviation="1"/><feColorMatrix values="0 0 0 0 0 0 0 0 0 0 0 0 0 0 0 0 0 0 0.25 0"/><feBlend in2="BackgroundImageFix" result="effect1_dropShadow"/><feColorMatrix in="SourceAlpha" values="0 0 0 0 0 0 0 0 0 0 0 0 0 0 0 0 0 0 127 0"/><feOffset dy="4"/><feGaussianBlur stdDeviation="2"/><feColorMatrix values="0 0 0 0 0 0 0 0 0 0 0 0 0 0 0 0 0 0 0.1 0"/><feBlend in2="effect1_dropShadow" result="effect2_dropShadow"/><feBlend in="SourceGraphic" in2="effect2_dropShadow" result="shape"/></filter></defs></svg>