<svg width="118" height="120" fill="none" xmlns="http://www.w3.org/2000/svg"><circle opacity=".2" cx="59" cy="59" r="59" fill="#266BA5"/><g filter="url(#filter0_dd)"><path d="M59 112c29.271 0 53-23.729 53-53S88.271 6 59 6 6 29.729 6 59s23.729 53 53 53z" fill="#fff"/></g><path fill-rule="evenodd" clip-rule="evenodd" d="M47 35h-4a4 4 0 00-4 4v41a4 4 0 004 4h32a4 4 0 004-4V39a4 4 0 00-4-4h-4v3a2 2 0 01-2 2H49a2 2 0 01-2-2v-3z" fill="#266BA5"/><path d="M50 36.5a1.5 1.5 0 011.5-1.5h15a1.5 1.5 0 010 3h-15a1.5 1.5 0 01-1.5-1.5z" fill="#266BA5"/><path d="M56 35a3 3 0 116 0 3 3 0 01-6 0z" fill="#266BA5"/><path fill="#fff" d="M50 52h20v3H50zm-5 0h3v3h-3zm5 8h20v3H50zm0 8h20v3H50z"/><defs><filter id="filter0_dd" x="2" y="5" width="114" height="115" filterUnits="userSpaceOnUse" color-interpolation-filters="sRGB"><feFlood flood-opacity="0" result="BackgroundImageFix"/><feColorMatrix in="SourceAlpha" values="0 0 0 0 0 0 0 0 0 0 0 0 0 0 0 0 0 0 127 0"/><feOffset dy="1"/><feGaussianBlur stdDeviation="1"/><feColorMatrix values="0 0 0 0 0 0 0 0 0 0 0 0 0 0 0 0 0 0 0.25 0"/><feBlend in2="BackgroundImageFix" result="effect1_dropShadow"/><feColorMatrix in="SourceAlpha" values="0 0 0 0 0 0 0 0 0 0 0 0 0 0 0 0 0 0 127 0"/><feOffset dy="4"/><feGaussianBlur stdDeviation="2"/><feColorMatrix values="0 0 0 0 0 0 0 0 0 0 0 0 0 0 0 0 0 0 0.1 0"/><feBlend in2="effect1_dropShadow" result="effect2_dropShadow"/><feBlend in="SourceGraphic" in2="effect2_dropShadow" result="shape"/></filter></defs></svg>