<svg width="118" height="120" fill="none" xmlns="http://www.w3.org/2000/svg"><circle opacity=".2" cx="59" cy="59" r="59" fill="#266BA5"/><g filter="url(#filter0_dd)"><path d="M59 112c29.271 0 53-23.729 53-53S88.271 6 59 6 6 29.729 6 59s23.729 53 53 53z" fill="#fff"/></g><path d="M80.203 79.997c4.88 0 8.835-3.916 8.835-8.746s-3.955-8.747-8.835-8.747c-4.88 0-8.835 3.916-8.835 8.747 0 4.83 3.955 8.746 8.835 8.746z" fill="#fff"/><circle cx="59" cy="51.933" fill="#266BA5" r="8.392"/><mask id="a" maskUnits="userSpaceOnUse" x="31" y="31" width="56" height="56"><circle cx="59" cy="59" r="27.972" fill="#C4C4C4"/></mask><g mask="url(#a)"><circle cx="59" cy="81.378" r="19.581" fill="#266BA5"/><circle cx="59" cy="59" r="26.972" stroke="#266BA5" stroke-width="2"/><path fill="#E09524" d="M76.667 78.139H85.5v2.944h-8.833z"/></g><circle cx="81.083" cy="79.611" r="13.25" fill="#fff"/><circle cx="81.083" cy="79.611" r="10.306" fill="#266BA5"/><path d="M75.195 78.139h11.777v2.944H75.195V78.14z" fill="#fff"/><path d="M82.556 73.722V85.5H79.61V73.722h2.945z" fill="#fff"/><defs><filter id="filter0_dd" x="2" y="5" width="114" height="115" filterUnits="userSpaceOnUse" color-interpolation-filters="sRGB"><feFlood flood-opacity="0" result="BackgroundImageFix"/><feColorMatrix in="SourceAlpha" values="0 0 0 0 0 0 0 0 0 0 0 0 0 0 0 0 0 0 127 0"/><feOffset dy="1"/><feGaussianBlur stdDeviation="1"/><feColorMatrix values="0 0 0 0 0 0 0 0 0 0 0 0 0 0 0 0 0 0 0.25 0"/><feBlend in2="BackgroundImageFix" result="effect1_dropShadow"/><feColorMatrix in="SourceAlpha" values="0 0 0 0 0 0 0 0 0 0 0 0 0 0 0 0 0 0 127 0"/><feOffset dy="4"/><feGaussianBlur stdDeviation="2"/><feColorMatrix values="0 0 0 0 0 0 0 0 0 0 0 0 0 0 0 0 0 0 0.1 0"/><feBlend in2="effect1_dropShadow" result="effect2_dropShadow"/><feBlend in="SourceGraphic" in2="effect2_dropShadow" result="shape"/></filter></defs></svg>