<svg width="118" height="120" fill="none" xmlns="http://www.w3.org/2000/svg"><circle opacity=".2" cx="59" cy="59" r="59" fill="#266BA5"/><g filter="url(#filter0_dd)"><path d="M59 112c29.271 0 53-23.729 53-53S88.271 6 59 6 6 29.729 6 59s23.729 53 53 53z" fill="#fff"/></g><path fill-rule="evenodd" clip-rule="evenodd" d="M64.803 31.405a2 2 0 012 2v5.798h7.799c2.86 0 5.199 2.34 5.199 5.2v12.01l3.327 1.092a2.59 2.59 0 011.56 1.3c.312.623.364 1.351.156 2.027l-4.913 17.365h-.13c-4.16 0-7.85-2.287-10.398-5.199-2.548 2.912-6.24 5.2-10.399 5.2-4.16 0-7.85-2.288-10.398-5.2-2.548 2.912-6.24 5.2-10.398 5.2h-.13l-4.94-17.366c-.234-.676-.156-1.404.156-2.028a2.59 2.59 0 011.56-1.3l3.354-1.091v-12.01c0-2.86 2.34-5.2 5.199-5.2h7.798v-5.798a2 2 0 012-2h11.598zM43.407 44.402v10.32l15.597-5.12 15.598 5.12v-10.32H43.407z" fill="#266BA5"/><path d="M69.402 79.965c-3.171 2.21-6.785 3.328-10.398 3.328-3.613 0-7.227-1.118-10.398-3.328-3.172 2.21-6.785 3.432-10.398 3.432h-5.2v5.199h5.2c3.587 0 7.122-.91 10.398-2.574 3.275 1.664 6.837 2.522 10.398 2.522 3.562 0 7.123-.832 10.398-2.522 3.276 1.69 6.811 2.574 10.399 2.574H85v-5.2h-5.2c-3.613 0-7.226-1.221-10.398-3.43z" fill="#266BA5"/><defs><filter id="filter0_dd" x="2" y="5" width="114" height="115" filterUnits="userSpaceOnUse" color-interpolation-filters="sRGB"><feFlood flood-opacity="0" result="BackgroundImageFix"/><feColorMatrix in="SourceAlpha" values="0 0 0 0 0 0 0 0 0 0 0 0 0 0 0 0 0 0 127 0"/><feOffset dy="1"/><feGaussianBlur stdDeviation="1"/><feColorMatrix values="0 0 0 0 0 0 0 0 0 0 0 0 0 0 0 0 0 0 0.25 0"/><feBlend in2="BackgroundImageFix" result="effect1_dropShadow"/><feColorMatrix in="SourceAlpha" values="0 0 0 0 0 0 0 0 0 0 0 0 0 0 0 0 0 0 127 0"/><feOffset dy="4"/><feGaussianBlur stdDeviation="2"/><feColorMatrix values="0 0 0 0 0 0 0 0 0 0 0 0 0 0 0 0 0 0 0.1 0"/><feBlend in2="effect1_dropShadow" result="effect2_dropShadow"/><feBlend in="SourceGraphic" in2="effect2_dropShadow" result="shape"/></filter></defs></svg>