<svg xmlns="http://www.w3.org/2000/svg" viewBox="-15566 -22868 43.613 43.613"><defs><clipPath id="a"><path data-name="Path 9244" d="M.476 89.754c0 1.745 2.05 2.268 3.1 2.53 3.315.872 9.944 2.573 9.944 2.573a5.3 5.3 0 013.1 2.878v4.274H-27v-4.274a5.178 5.178 0 013.1-2.878s6.629-1.7 9.944-2.573c1.047-.262 3.1-.785 3.1-2.53V85H.476z" transform="translate(27 -85)"/></clipPath></defs><g data-name="Group 3700"><path data-name="Rectangle 2556" fill="#f5eee5" d="M-15566-22868h43.613v43.613H-15566z"/><g data-name="Group 3699"><path data-name="Path 9243" d="M-15538.524-22836.642c0 1.745 2.05 2.268 3.1 2.53 3.315.872 9.944 2.573 9.944 2.573a5.3 5.3 0 013.1 2.878v4.274h-43.62v-4.274a5.178 5.178 0 013.1-2.878s6.629-1.7 9.944-2.573c1.047-.262 3.1-.785 3.1-2.53v-4.754h11.332z" fill="#e6c19c"/><g data-name="Group 3698" clip-path="url(#a)" transform="translate(-15566 -22841.396)"><path d="M21.893-21.806h.087a11.023 11.023 0 014.972.872 7.532 7.532 0 013.707 5.277c1.047 5.975-.916 15.439-2.748 18.492a7.82 7.82 0 01-5.888 4.1h-.262a7.82 7.82 0 01-5.888-4.1c-1.83-3.053-3.793-12.517-2.746-18.492a7.532 7.532 0 013.707-5.277 11.023 11.023 0 014.971-.872h.087z" fill="#d4b08c"/></g></g></g><path d="M-15544.368-22861.022c8.33 0 9.028 6.019 9.071 6.586.48 5.19-1.308 12.255-2.966 14.7a7.989 7.989 0 01-5.888 3.62h-.218a8.2 8.2 0 01-5.931-3.663c-1.657-2.443-3.445-9.511-2.963-14.743.041-.525.565-6.5 8.895-6.5z" fill="#f2cea5"/></svg>