<svg width="24" height="32" fill="none" xmlns="http://www.w3.org/2000/svg"><path d="M16.096 30.268l.092-.05c.388-.207.763-.437 1.124-.688l.087-.06.574.824-.088.06c-.393.274-.803.524-1.226.75l-.092.05-.471-.886zm-5.229.43A10.494 10.494 0 019.218 9.843v-2.53h1.004v2.421a9.614 9.614 0 011.198-.008V7.31h1.004v2.517A10.495 10.495 0 0110.867 30.7zm0-19.981a9.49 9.49 0 109.492 9.49 9.501 9.501 0 00-9.492-9.49zm7.426 18.052l.08-.071a11.37 11.37 0 003.606-10.775l-.021-.103.983-.201.021.103a12.386 12.386 0 01-3.923 11.731l-.079.07-.667-.754zm-7.522-.116a8.353 8.353 0 118.354-8.354 8.363 8.363 0 01-8.354 8.354zm-5.106-3.075a7.309 7.309 0 004.795 2.062v-1.5h1.005v1.473a7.32 7.32 0 004.681-2.307l-1.129-1.13.712-.71 1.054 1.052a7.325 7.325 0 001.338-4.148h-1.554v-1h1.493a7.35 7.35 0 00-2.138-4.303L14.886 16.1l-.71-.71.98-.981a7.269 7.269 0 00-4.072-1.45v1.31h-1.007v-1.282a7.258 7.258 0 00-3.994 1.663l1.012 1.013-.711.711-1.031-1.031a7.352 7.352 0 00-1.911 4.408h1.532v1.004h-1.54a7.282 7.282 0 001.554 4.077l1.095-1.095.71.711-1.128 1.13zm5.079-3.563a1.714 1.714 0 01-.004-3.428h.024l1.134-3.4.952.318-1.129 3.388a1.715 1.715 0 01-.975 3.122h-.002zm0-2.424a.71.71 0 10.703.71.676.676 0 00-.703-.71zM.704 13.862l.043-.095a7.29 7.29 0 01.633-1.079L0 11.308l1.853-1.85 1.411 1.41a7.02 7.02 0 01.895-.503l.095-.044.423.91-.095.043a6.056 6.056 0 00-2.923 2.919l-.044.095-.912-.426zm1.318-1.953c.148-.156.294-.298.438-.425l-.607-.606-.43.43.6.601zm17.905 1.977a6.074 6.074 0 00-2.978-2.704l-.097-.043.388-.926.098.04c.37.157.725.345 1.063.563l1.576-1.576 1.745 1.745-1.507 1.507c.221.29.42.597.592.919l.05.092-.883.476-.047-.093zm-.714-2.458a6.5 6.5 0 01.338.311l.754-.753-.325-.325-.767.767zM12.57 8.673l.097-.044A4.007 4.007 0 0015.157 5v-.105h1.005V5a5.009 5.009 0 01-3.098 4.553l-.098.044-.396-.924zm-4.174.751A4.916 4.916 0 015.72 3.83l.026-.103.973.25-.026.102a3.918 3.918 0 002.15 4.449l.095.048-.45.898-.093-.05zm-.762-2.252V3.524h6.292v3.648H7.634zm5.287-1.005V4.528H8.64v1.639h4.282zm2.16-1.916a3.66 3.66 0 00-.299-.883l-.043-.095.906-.438.044.095a4.7 4.7 0 01.375 1.116l.021.103-.983.2-.021-.098zM6.099 2.83l.05-.093c.188-.344.414-.666.674-.96l.071-.079.748.667-.071.08c-.21.234-.39.492-.54.768l-.05.093-.882-.476zm8.181-.25a4.277 4.277 0 00-.674-.656l-.085-.066.616-.795.085.066c.31.24.591.513.84.815l.065.082-.779.635-.068-.08zM7.608 1.06L7.695 1A5.24 5.24 0 018.713.433L8.81.39l.392.925-.098.044c-.292.124-.57.278-.829.46l-.088.06-.58-.819zm5.192.37a4.435 4.435 0 00-.897-.309l-.103-.024.225-.978.103.024c.379.087.748.215 1.1.38l.095.044-.428.91-.095-.047zM9.72.117l.103-.019A5.43 5.43 0 0110.899 0h.188l-.024 1.005h-.175a4.536 4.536 0 00-.876.079l-.103.018-.19-.985z" fill="#fff"/></svg>