<svg width="30" height="28" fill="none" xmlns="http://www.w3.org/2000/svg"><path d="M10.18 28a3.433 3.433 0 01-2.456-1.046 3.622 3.622 0 01-1.02-2.524v-4.709h-4.33a2.344 2.344 0 01-1.677-.714A2.473 2.473 0 010 17.285v-5.676c0-.646.25-1.265.696-1.722a2.344 2.344 0 011.677-.714h4.332V3.57a3.624 3.624 0 011.02-2.523A3.435 3.435 0 0110.18 0h11.366a3.386 3.386 0 011.817.523c.547.344.99.837 1.28 1.425h2.984a2.34 2.34 0 011.676.715c.445.456.695 1.076.696 1.722v5.675c0 .646-.25 1.265-.696 1.722a2.344 2.344 0 01-1.676.715h-2.601V24.43c0 .946-.367 1.854-1.019 2.523A3.433 3.433 0 0121.551 28H10.18zm-2.484-3.57c0 .678.263 1.329.73 1.808.466.48 1.1.749 1.76.749H21.55c.66 0 1.293-.27 1.76-.75a2.587 2.587 0 00.729-1.807V12.5h-3.957a2.332 2.332 0 01-.928-.199 2.385 2.385 0 01-.78-.554 2.458 2.458 0 01-.509-.822 2.509 2.509 0 01-.155-.961h-3.209l3.206-4.16V4.462h-7.452v4.194h-.988V3.444h8.623c.182-.441.486-.818.875-1.084.388-.266.844-.41 1.31-.412h3.384a2.494 2.494 0 00-.855-.686 2.43 2.43 0 00-1.058-.247H10.181c-.66 0-1.293.27-1.76.75a2.59 2.59 0 00-.73 1.807v5.6H9.92a2.35 2.35 0 011.676.715c.445.457.695 1.076.696 1.722v1.416l3.205 4.16h-3.202a2.49 2.49 0 01-.55 1.657 2.368 2.368 0 01-1.488.855v1.544h11.17v-8.21h.989v9.227H9.268V19.72H7.694v4.709h.002zM2.373 10.188a1.37 1.37 0 00-.978.417c-.26.267-.406.628-.407 1.005v5.675c.001.377.147.738.407 1.004s.61.416.978.417H9.92c.367 0 .718-.15.978-.417s.405-.628.406-1.005v-1.113h2.152l-2.151-2.792v-1.77a1.443 1.443 0 00-.407-1.004 1.369 1.369 0 00-.978-.417H2.373zM18.696 8.95v1.114c.001.377.147.738.406 1.004.26.267.612.417.979.418h7.547c.367-.001.719-.151.978-.418.26-.266.406-.627.406-1.004V4.387c0-.376-.146-.738-.406-1.004a1.369 1.369 0 00-.978-.417h-7.547c-.367 0-.72.15-.979.417a1.447 1.447 0 00-.406 1.004v1.769l-2.151 2.791 2.151.003zM14.3 26.134v-3.313h3.227v3.313H14.3zm2.238-1.015V23.84h-1.245v1.278h1.245zM7.342 14.952v-1.015h1.25v1.015h-1.25zm-2.081 0v-1.015H6.51v1.015H5.26zm-2.082 0v-1.015h1.25v1.015h-1.25zm17.52-5.9V8.038h4.494v1.016H20.7zm0-2.39V5.645h6.449V6.66H20.7zm-5.728-3.995V1.651h1.886v1.016h-1.886z" fill="#fff"/></svg>