<svg xmlns="http://www.w3.org/2000/svg" viewBox="2385 7792 463 348"><path fill="#f2f2f2" d="M2385 7792h463v348h-463z"/><text data-name="IMAGE NOT AVAILABLE" transform="translate(2542 8003)" style="line-height:20px" fill="#939398" font-size="14" font-family="SegoeUI,Segoe UI,Helvetica,Arial,sans-serif" letter-spacing=".02em"><tspan x="0" y="0">IMAGE NOT AVAILABLE</tspan></text><g opacity=".3"><path data-name="Path 9113" d="M2627.878 7968.291h-34.1c-.251 0-.251 0-.251-.251v-32.425c0-.179.036-.251.251-.251h1.149a.263.263 0 01.215.072l3.51 3.511a.035.035 0 00.036.036c-.036.072-.072.036-.143.036h-1.185c-.143 0-.179.036-.143.179v25.188c0 .251 0 .251.251.251h26.649a.6.6 0 01.394.143l3.331 3.332c.036.036.107.072.143.143-.107 0-.107 0-.107.036z"/><path data-name="Path 9114" d="M2621.538 7961.949a11.842 11.842 0 01-2.436.717 11 11 0 01-12-14.977c.072-.143.107-.143.179-.036l2.686 2.687a.222.222 0 01.072.251 7.239 7.239 0 001.54 5.876 6.949 6.949 0 004.048 2.472 6.837 6.837 0 002.83.072c.072 0 .143-.036.215.036.967.967 1.934 1.9 2.866 2.9z"/><path data-name="Path 9115" d="M2602.519 7944.536a1.76 1.76 0 01-1.5-1 1.7 1.7 0 01.107-1.791c.072-.107.107-.143.215-.036.752.788 1.54 1.541 2.292 2.293.072.072.072.143 0 .179a1.715 1.715 0 01-1.114.355z"/><path data-name="Path 9116" d="M2637.872 7968.291c.036.107.072.107.143.179 1.29 1.29 2.579 2.58 3.9 3.87.107.107.107.143 0 .251-.788.752-1.54 1.541-2.328 2.329-.107.107-.179.107-.287 0q-11.5-11.448-22.924-22.931l-24.281-24.293c-.107-.107-.143-.179 0-.322.752-.749 1.54-1.505 2.292-2.293.107-.107.179-.107.287 0l10.137 10.144a.46.46 0 00.358.143h.681a.325.325 0 00.251-.107c.824-1.111 1.684-2.257 2.507-3.368.107-.107.179-.179.322-.179h16.047a.313.313 0 01.322.179 207.232 207.232 0 002.507 3.332c.107.107.179.179.322.179h12.359c.179 0 .215.036.215.215v32.457c0 .179-.072.215-.215.215-.86-.036-1.723 0-2.615 0zm-.788-16.446v-12.576c0-.179-.036-.215-.215-.215h-10.567a.389.389 0 01-.322-.143 212.544 212.544 0 00-2.543-3.368.325.325 0 00-.251-.107h-12.5a.217.217 0 00-.215.107l-2.257 3.01c-.072.107-.072.143 0 .215 1.15 1.11 2.256 2.257 3.366 3.367a.169.169 0 00.215.036 10.78 10.78 0 017.45-1 10.912 10.912 0 018.525 11.5 10.862 10.862 0 01-1.218 4.228c-.072.107-.036.179.036.287 2.436 2.436 4.907 4.873 7.343 7.345a.353.353 0 00.287.107h2.507c.179 0 .215-.036.215-.215.144-4.198.144-8.386.144-12.578zm-12.788-.179a7.068 7.068 0 00-.609-2.687 7.337 7.337 0 00-3.654-3.762 7.165 7.165 0 00-5.373-.322c-.107.036-.179.072-.036.179l9.1 9.1c.107.107.143.072.179-.036a8.512 8.512 0 00.393-2.472z"/></g></svg>