<svg width="167" height="40" fill="none" xmlns="http://www.w3.org/2000/svg"><path fill-rule="evenodd" clip-rule="evenodd" d="M49.055 34.626c-.923.448-2.63.784-4.587.784-5.342 0-8.726-3.278-8.726-8.46 0-4.819 3.3-8.797 9.453-8.797 1.343 0 2.825.225 3.916.645l-.811 3.81c-.616-.28-1.51-.505-2.881-.505-2.685 0-4.447 1.933-4.419 4.623 0 2.997 2.014 4.622 4.53 4.622 1.203 0 2.154-.196 2.937-.532l.588 3.81zm1.202-23.532h5.118v9.469h.056a5.473 5.473 0 012.014-1.737 5.998 5.998 0 012.657-.645c3.272 0 5.761 2.27 5.761 7.256v9.637h-5.118v-9.077c0-2.157-.755-3.642-2.657-3.642-1.342 0-2.181.869-2.573 1.821-.14.309-.168.757-.168 1.121v9.805H50.23V11.094h.028zm21.73 17.369c.14 2.129 2.266 3.137 4.644 3.137 1.761 0 3.16-.224 4.558-.7l.671 3.474c-1.678.7-3.747 1.036-5.985 1.036-5.593 0-8.81-3.25-8.81-8.404 0-4.174 2.602-8.825 8.335-8.825 5.342 0 7.355 4.146 7.355 8.236 0 .869-.111 1.653-.167 2.018h-10.6v.028zm6.014-3.53c0-1.26-.532-3.334-2.909-3.334-2.153 0-3.048 1.99-3.16 3.334h6.069zm11.075.588h.056a26.6 26.6 0 011.175-1.989l3.328-4.958h6.209l-5.902 6.695 6.741 9.833h-6.321l-4-6.807-1.286 1.624v5.183h-5.118V11.094h5.118V25.52zm18.123-11.57c0 1.429-1.035 2.578-2.769 2.578-1.622 0-2.657-1.15-2.657-2.578 0-1.457 1.091-2.577 2.741-2.577 1.622.028 2.657 1.12 2.685 2.577zm-5.314 21.123V18.546h5.118v16.528h-5.118z" fill="#008F4A"/><path fill-rule="evenodd" clip-rule="evenodd" d="M32.023 0C21.619 7.396 16.36 20.534 16.36 20.534s-5.37-6.527-6.293-6.639c-.923-.112-4.307 5.239-4.307 5.239s3.72 2.409 5.734 4.818c2.013 2.41 4.67 6.051 4.67 6.051s2.21-8.572 7.16-16.136c3.44-5.239 8.865-11.15 8.865-11.15S32.33.98 32.023 0z" fill="#C8432E"/><path fill-rule="evenodd" clip-rule="evenodd" d="M25.366 14.175v15.632c0 .784-.615 1.4-1.398 1.4H5.314a1.386 1.386 0 01-1.399-1.4V11.122c0-.785.616-1.401 1.399-1.401h15.158c.979-1.4 1.986-2.718 3.049-3.922H5.314A5.316 5.316 0 000 11.12v18.686a5.316 5.316 0 005.314 5.323h18.654a5.316 5.316 0 005.314-5.323V11.122c0-.617-.112-1.205-.308-1.737-1.23 1.512-2.517 3.165-3.608 4.79z" fill="#C8432E"/><path d="M109.873 35.17c-.355 0-.652-.108-.889-.327a1.055 1.055 0 01-.355-.807c0-.328.121-.597.362-.806.246-.21.552-.315.916-.315.369 0 .67.107.903.321.237.21.355.477.355.8 0 .333-.121.606-.362.82-.237.21-.547.315-.93.315zm8.142-.423c-.488.283-1.192.424-2.113.424-1.075 0-1.946-.326-2.611-.978-.665-.651-.998-1.492-.998-2.522 0-1.19.355-2.126 1.066-2.81.716-.688 1.671-1.032 2.865-1.032.825 0 1.422.11 1.791.328v1.832a2.465 2.465 0 00-1.511-.506c-.62 0-1.112.183-1.477.547-.36.36-.54.86-.54 1.497 0 .62.173 1.108.52 1.463.346.351.822.527 1.429.527.537 0 1.064-.169 1.579-.506v1.736zm4.757.424c-1.166 0-2.084-.326-2.754-.978-.666-.656-.998-1.545-.998-2.666 0-1.157.346-2.062 1.039-2.713.692-.657 1.629-.985 2.809-.985 1.162 0 2.074.328 2.735.985.66.651.991 1.515.991 2.59 0 1.162-.342 2.08-1.026 2.755-.679.675-1.611 1.012-2.796 1.012zm.055-5.688c-.51 0-.907.176-1.189.527-.283.35-.424.847-.424 1.49 0 1.344.542 2.017 1.627 2.017 1.034 0 1.552-.69 1.552-2.072 0-1.308-.522-1.962-1.566-1.962zM139.11 35h-2.153v-3.992c0-1.017-.374-1.525-1.121-1.525-.356 0-.645.153-.868.458-.224.306-.335.686-.335 1.142V35h-2.16v-4.033c0-.99-.367-1.484-1.101-1.484-.369 0-.665.146-.889.438-.218.292-.328.688-.328 1.19V35h-2.16v-7h2.16v1.094h.028a2.56 2.56 0 01.936-.91 2.584 2.584 0 011.326-.355c.989 0 1.666.435 2.031 1.306.533-.87 1.317-1.306 2.351-1.306 1.522 0 2.283.939 2.283 2.816V35zm2.673.17a1.26 1.26 0 01-.888-.327 1.056 1.056 0 01-.356-.807c0-.328.121-.597.362-.806.246-.21.552-.315.916-.315.37 0 .67.107.903.321.237.21.355.477.355.8 0 .333-.121.606-.362.82-.237.21-.547.315-.93.315zm9.598-.17h-2.153v-3.89c0-1.084-.388-1.627-1.163-1.627-.373 0-.681.144-.922.431-.242.287-.363.652-.363 1.094V35h-2.16v-7h2.16v1.107h.028c.515-.852 1.264-1.278 2.249-1.278 1.549 0 2.324.962 2.324 2.885V35zm8.579-.8c0 1.299-.376 2.304-1.128 3.015-.752.715-1.841 1.073-3.268 1.073-.943 0-1.69-.134-2.242-.403v-1.819c.72.42 1.447.63 2.181.63.729 0 1.294-.194 1.695-.582.401-.383.602-.904.602-1.565v-.554h-.028c-.492.784-1.219 1.176-2.18 1.176-.893 0-1.602-.315-2.126-.944-.524-.628-.786-1.471-.786-2.529 0-1.185.291-2.126.875-2.823.583-.697 1.351-1.046 2.303-1.046.853 0 1.491.328 1.914.985h.028V28h2.16v6.2zm-2.133-2.563v-.554c0-.442-.132-.818-.396-1.128a1.26 1.26 0 00-1.019-.472c-.478 0-.854.187-1.128.56-.273.375-.41.901-.41 1.58 0 .583.13 1.046.39 1.388.259.337.615.506 1.066.506.447 0 .807-.171 1.08-.513.278-.346.417-.802.417-1.367z" fill="#008F4A"/></svg>