<svg width="47" height="28" fill="none" xmlns="http://www.w3.org/2000/svg"><mask id="a" maskUnits="userSpaceOnUse" x="11" y="8" width="36" height="20"><path fill-rule="evenodd" clip-rule="evenodd" d="M44.716 15.203a3.946 3.946 0 01-3.983 3.784l-28.732-.303a.771.771 0 00-.302.057c-.701.287-.62 1.31.117 1.497l26.685 6.777a3.942 3.942 0 004.815-2.904L46.525 10.8a2.063 2.063 0 00-1.494-2.477l-.315 6.881z" fill="#fff"/></mask><g mask="url(#a)"><path d="M40.733 18.987v1.003-1.003zm3.983-3.784l.997.057-.997-.057zm-32.715 3.48v-1.002 1.003zm-.302.058l.384.93-.384-.93zm.117 1.497l-.234.973.234-.973zm26.685 6.777l.235-.972-.235.973zm4.815-2.904l-.969-.246.969.247zM46.525 10.8l.969.246-.969-.246zm-1.494-2.477l.234-.972-1.174-.298-.056 1.213.996.057zM40.733 19.99a4.934 4.934 0 004.98-4.73l-1.993-.114a2.96 2.96 0 01-2.987 2.838v2.006zm-28.732-.303l28.732.303v-2.006l-28.732-.303v2.006zm.082-.016a.212.212 0 01-.082.016V17.68a1.766 1.766 0 00-.687.131l.769 1.859zm-.032-.405a.232.232 0 01.161.193.195.195 0 01-.028.117.227.227 0 01-.101.095l-.769-1.859c-1.589.65-1.406 2.973.268 3.399l.469-1.945zm26.685 6.777l-26.685-6.777-.469 1.945 26.685 6.777.469-1.945zm3.611-2.178a2.957 2.957 0 01-3.611 2.178l-.469 1.945a4.927 4.927 0 006.018-3.63l-1.938-.493zm3.209-13.312l-3.209 13.312 1.938.493 3.209-13.313-1.938-.492zm-.759-1.259c.553.14.893.704.759 1.26l1.938.491a3.077 3.077 0 00-2.229-3.695l-.468 1.944zm.916 5.966l.314-6.88-1.992-.115-.315 6.881 1.993.114z" fill="#fff"/></g><mask id="b" maskUnits="userSpaceOnUse" x="5" y="0" width="41" height="20"><path fill-rule="evenodd" clip-rule="evenodd" d="M13.49 0a4 4 0 00-3.339 1.797L6.274 7.675a3.998 3.998 0 000 4.406l3.877 5.877a4 4 0 003.34 1.798h27.73a4 4 0 004-4V4a4 4 0 00-4-4h-27.73zm-1.176 11.37c.9 0 1.629-.749 1.629-1.672 0-.924-.729-1.672-1.629-1.672-.899 0-1.629.748-1.629 1.672 0 .923.73 1.672 1.629 1.672z" fill="#fff"/></mask><g mask="url(#b)" fill="#fff"><path d="M10.151 1.797l1.67 1.102-1.67-1.102zM6.274 7.675l1.67 1.102-1.67-1.102zm0 4.406l-1.67 1.1 1.67-1.1zm3.877 5.877l1.67-1.1-1.67 1.1zm1.67-15.06A2 2 0 0113.491 2v-4A6 6 0 008.481.696l3.34 2.203zm-3.878 5.88L11.821 2.9 8.482.696 4.604 6.574l3.34 2.203zm0 2.202a1.999 1.999 0 010-2.202L4.604 6.574a6 6 0 000 6.608l3.34-2.203zm3.878 5.878L7.943 10.98l-3.339 2.203 3.878 5.878 3.34-2.203zm1.67.899a2 2 0 01-1.67-.899L8.482 19.06a6 6 0 005.008 2.696v-4zm27.73 0h-27.73v4h27.73v-4zm2-2a2 2 0 01-2 2v4a6 6 0 006-6h-4zm0-11.756v11.756h4V4h-4zm-2-2a2 2 0 012 2h4a6 6 0 00-6-6v4zm-27.73 0h27.73v-4h-27.73v4zm-1.548 7.698c0-.132.118-.328.371-.328v4c2.053 0 3.629-1.694 3.629-3.672h-4zm.371.328c-.253 0-.371-.197-.371-.328h4c0-1.979-1.576-3.672-3.629-3.672v4zm.371-.328c0 .131-.117.328-.371.328v-4c-2.053 0-3.629 1.693-3.629 3.672h4zm-.371-.328c.254 0 .371.196.371.328h-4c0 1.978 1.576 3.672 3.629 3.672v-4zm12.438.773c-.786 0-1.42-.258-1.902-.773-.478-.514-.716-1.207-.716-2.077 0-.95.254-1.704.762-2.261.513-.558 1.196-.836 2.049-.836.816 0 1.453.252 1.909.756.463.504.694 1.213.694 2.126 0 .94-.255 1.685-.763 2.237s-1.186.828-2.033.828zm.146-4.546c-.749 0-1.124.539-1.124 1.616 0 1.019.357 1.528 1.07 1.528.729 0 1.094-.53 1.094-1.592 0-1.035-.347-1.552-1.04-1.552zm7.917-1.242l-7.193 11.416h-1.879l7.178-11.416h1.894zm-1.186 11.575c-.785 0-1.419-.257-1.902-.772-.477-.515-.716-1.207-.716-2.078 0-.95.254-1.703.762-2.26.514-.558 1.197-.837 2.049-.837.821 0 1.46.25 1.917.749.457.499.686 1.205.686 2.117 0 .94-.254 1.688-.763 2.245-.508.558-1.186.836-2.033.836zm.123-4.545c-.744 0-1.116.538-1.116 1.616 0 1.019.362 1.528 1.086 1.528.729 0 1.093-.53 1.093-1.592 0-.494-.097-.876-.292-1.146a.907.907 0 00-.771-.406z"/></g><path d="M11.663 9.698c0 7.357-7.168 9.698-9.775 6.02C-.73 12.02 2.974 9.697 6.124 7.69" stroke="#fff" stroke-dasharray="2 2"/></svg>