<svg width="36" height="30" fill="none" xmlns="http://www.w3.org/2000/svg"><path d="M13.811 26.857H3.787c-1.272 0-2.244-.963-2.244-2.223V3.88c0-1.26.972-2.224 2.244-2.224h28.426c1.272 0 2.244.964 2.244 2.224v20.753c0 1.26-.972 2.223-2.244 2.223h-2.618" stroke="#fff" stroke-width="2"/><path d="M30.343 6.8H5.657v1.028h24.686V6.8zm-14.915 3.6H5.657v1.028h9.771V10.4zm6.429 11.314a1.8 1.8 0 100-3.6 1.8 1.8 0 000 3.6z" fill="#fff"/><path fill-rule="evenodd" clip-rule="evenodd" d="M25.782 23.417l2.961 3.905c.148.217 0 .434-.37.361l-2.665-.723c-.148-.072-.296 0-.296.145l-.741 2.675a.233.233 0 01-.444 0l-1.999-4.628h-.888l-1.999 4.628a.233.233 0 01-.444 0l-.74-2.675c0-.073-.148-.145-.296-.145l-2.665.723c-.222.073-.37-.217-.222-.361l2.961-3.905c-.74-.868-1.259-2.025-1.259-3.326 0-2.82 2.295-5.062 5.182-5.062 2.887 0 5.182 2.241 5.182 5.062 0 1.301-.444 2.458-1.258 3.326zm-3.925.355a3.857 3.857 0 100-7.715 3.857 3.857 0 000 7.715z" fill="#fff"/></svg>