<svg width="41" height="25" fill="none" xmlns="http://www.w3.org/2000/svg"><path fill-rule="evenodd" clip-rule="evenodd" d="M16.11 6.6H8.115a.155.155 0 00-.08.022c-.271.16-.157.578.16.578h7.677c.075-.203.154-.403.24-.6z" fill="#fff"/><path d="M5.243 9.503s0 0 0 0l3.665 1.365a.062.062 0 01.003.032H6.315c-.561 0-1.109-.528-1.109-1.3 0-.057.024-.087.037-.097z" stroke="#fff"/><path d="M.225 20.863c-.229-.388-.226-.815-.225-.954v-9.785c0-.68.265-1.333.737-1.815l.857-.875a1.65 1.65 0 01-.433-.404 1.727 1.727 0 01-.322-1.04V4.28h3.816c.306-.38.816-1.102 1.303-2.095.4-.819.929-1.38 1.528-1.73A3.414 3.414 0 019.223 0h14.253c.411 0 .848.216 1.23.542l-.376.459c-.326-.278-.633-.403-.854-.403H9.223c-.453 0-.96.093-1.446.377-.488.284-.94.753-1.295 1.478A12.092 12.092 0 015.108 4.66l-.176.218H1.425v1.113c0 .427.18.718.42.894.019.014.038.028.058.04l.627.4-1.379 1.407a1.99 1.99 0 00-.565 1.392v9.79c0 .131.004.407.141.642.162.274.466.445.95.445H5.87c.18 0 .445-.053.672-.22.24-.175.419-.467.419-.893h.586c0 .621-.272 1.092-.663 1.38-.348.255-.74.332-1.014.332H1.677c-.623 0-1.155-.23-1.452-.737z" fill="#fff"/><rect x="7.646" y="18" width="11.177" height=".6" rx=".3" fill="#fff"/><path d="M7.646 15c0 .6.314 1.2 1.57 1.2h7.842" stroke="#fff"/><ellipse cx="28.236" cy="12" rx="10.588" ry="10.8" fill="#fff"/><path d="M40 12c0 6.627-5.267 12-11.765 12" stroke="#fff" stroke-dasharray="1 2"/><path d="M29.681 12.05l3.049 2.974a.746.746 0 010 1.04l-.51.52a.711.711 0 01-1.02 0l-3.149-3.11m-.37.659a.454.454 0 00-.13.318v.527a.451.451 0 01-.13.318.435.435 0 01-.623 0l-3.603-3.676a.456.456 0 010-.636.436.436 0 01.311-.132h.517c.117 0 .23-.047.312-.132l2.646-2.698a.454.454 0 00.129-.318v-.528c0-.119.046-.233.13-.318a.435.435 0 01.623 0l3.603 3.676a.456.456 0 010 .636.437.437 0 01-.312.132h-.516a.437.437 0 00-.312.132l-2.646 2.699zm-1.544 1.76l-3.528-3.598a.488.488 0 00-.7 0 .512.512 0 000 .713l3.528 3.598a.488.488 0 00.7 0 .511.511 0 000-.713zm2.387-9.632l3.528 3.598a.488.488 0 00.7 0 .511.511 0 000-.713l-3.528-3.598a.488.488 0 00-.7 0 .512.512 0 000 .713z" stroke="#549D36"/></svg>