<svg width="33" height="35" fill="none" xmlns="http://www.w3.org/2000/svg"><path fill-rule="evenodd" clip-rule="evenodd" d="M28.177 14.978c0 6.13-4.968 11.098-11.093 11.098-.066 0-.133 0-.199-.002l2.771 1.54a3.32 3.32 0 01-.057.22c6.027-1.172 10.578-6.483 10.578-12.856 0-7.234-5.862-13.099-13.093-13.099-7.23 0-13.092 5.865-13.092 13.099a13.06 13.06 0 003.614 9.036c.725-.273 1.43-.555 2.036-.807a11.072 11.072 0 01-3.65-8.23c0-6.13 4.967-11.098 11.092-11.098 6.125 0 11.093 4.968 11.093 11.099z" fill="#fff"/><mask id="a" fill="#fff"><path fill-rule="evenodd" clip-rule="evenodd" d="M26.747 25.075A13.978 13.978 0 0031 15.016C31 7.275 24.727 1 16.99 1 9.255 1 2.982 7.275 2.982 15.016a13.97 13.97 0 003.573 9.35 61.53 61.53 0 01-1.064.3 14.96 14.96 0 01-3.509-9.65C1.981 6.723 8.701 0 16.991 0 25.28 0 32 6.723 32 15.016c0 4.39-1.883 8.34-4.885 11.086.298-.379.482-.699.527-.93l-.895-.097z"/></mask><path d="M26.747 25.075l-.349-.359-.763.741 1.058.115.054-.497zm-20.193-.708l.14.48.763-.222-.53-.592-.373.334zm-1.064.298l-.383.322.205.244.309-.083-.131-.483zm21.625 1.437l-.393-.31.73.678-.337-.368zm.527-.93l.49.095.104-.534-.54-.059-.054.498zm-.95.4l.225.024.107-.994-.224-.024-.107.994zm.672.073l.224.024.108-.995-.224-.024-.108.995zm-.213-.568a.64.64 0 01-.05.138l.907.421c.055-.117.1-.242.125-.37l-.982-.19zm-.282.52a5.154 5.154 0 01-.147.195l.786.619a6.21 6.21 0 00.176-.235l-.815-.58zm.584.873c.264-.241.52-.492.766-.75l-.724-.69c-.23.242-.47.477-.717.703l.675.738zm2.136-2.402c.416-.58.794-1.19 1.129-1.825l-.885-.466a14.522 14.522 0 01-1.056 1.707l.812.584zm1.995-3.789c.241-.668.437-1.357.586-2.064l-.98-.206a14.397 14.397 0 01-.546 1.931l.94.34zm.879-4.19c.024-.354.036-.712.036-1.073h-1c0 .338-.011.673-.034 1.005l.998.068zm.036-1.073c0-.34-.01-.68-.032-1.015l-.998.065c.02.314.03.63.03.95h1zm-.294-3.027a15.425 15.425 0 00-.524-1.96l-.948.32c.202.595.366 1.207.49 1.834l.982-.194zm-1.301-3.836c-.301-.61-.64-1.196-1.016-1.757l-.831.556c.35.525.669 1.074.95 1.644l.897-.443zm-2.252-3.366a15.61 15.61 0 00-1.434-1.435l-.66.751c.476.418.925.867 1.342 1.343l.752-.66zM25.61 2.115a15.49 15.49 0 00-1.756-1.017l-.443.896c.57.282 1.118.6 1.643.952l.556-.831zM21.98.32a15.393 15.393 0 00-1.962-.525l-.194.981a14.39 14.39 0 011.834.491L21.98.32zm-3.973-.787A15.73 15.73 0 0016.99-.5v1c.319 0 .636.01.95.03l.065-.997zM16.99-.5c-.341 0-.68.011-1.016.033l.065.998c.314-.02.631-.031.95-.031v-1zm-3.027.295c-.67.133-1.325.309-1.962.525l.322.947a14.392 14.392 0 011.834-.49l-.194-.982zm-3.836 1.303c-.61.301-1.196.641-1.756 1.017l.556.83c.525-.35 1.073-.669 1.643-.95l-.443-.897zM6.763 3.352c-.509.446-.988.926-1.434 1.435l.752.66c.417-.477.866-.926 1.342-1.344l-.66-.751zm-2.67 3.044a15.604 15.604 0 00-1.016 1.757l.897.443c.281-.57.6-1.119.95-1.644l-.831-.556zM2.3 10.028a15.411 15.411 0 00-.524 1.961l.981.194c.124-.627.289-1.239.49-1.834l-.947-.32zm-.786 3.973c-.022.336-.033.674-.033 1.015h1c0-.32.01-.636.031-.95L1.514 14zm-.033 1.015c0 .303.01.604.026.902l.999-.057c-.016-.28-.025-.561-.025-.845h-1zm.233 2.693c.105.598.244 1.184.415 1.756l.958-.286a14.42 14.42 0 01-.388-1.642l-.985.172zm1.031 3.452c.24.554.51 1.092.81 1.611l.866-.5c-.28-.485-.534-.989-.758-1.507l-.918.396zm1.802 3.118c.18.241.366.477.56.708l.766-.643a14.57 14.57 0 01-.524-.662l-.802.597zm1.074.869l.268-.074-.266-.964-.264.073.262.965zm.805-.224l.268-.077-.28-.96-.263.075.275.962zm.5-.891c-.182-.204-.36-.414-.53-.63l-.783.622c.183.23.372.456.569.675l.745-.667zm-1.47-1.978a13.48 13.48 0 01-.77-1.452l-.91.413c.244.539.52 1.06.826 1.56l.854-.52zm-1.358-2.988a13.427 13.427 0 01-.394-1.596l-.984.18c.107.585.25 1.158.424 1.715l.954-.299zm-.592-3.228a13.744 13.744 0 01-.025-.823h-1c0 .297.01.59.027.883l.998-.06zm-.025-.823c0-.297.01-.592.029-.885l-.998-.064c-.02.314-.03.63-.03.95h1zm.257-2.638a13.42 13.42 0 01.457-1.707l-.947-.321a14.419 14.419 0 00-.49 1.835l.98.193zm1.133-3.34c.262-.53.558-1.041.885-1.53l-.831-.556a14.503 14.503 0 00-.95 1.644l.896.442zm1.961-2.932a13.6 13.6 0 011.25-1.251l-.66-.751a14.6 14.6 0 00-1.341 1.342l.751.66zm2.652-2.329c.488-.327.999-.623 1.53-.886l-.444-.896c-.57.282-1.118.6-1.643.951l.557.831zm3.162-1.563a13.4 13.4 0 011.707-.457l-.194-.98c-.627.124-1.24.288-1.835.49l.322.947zm3.46-.685c.292-.02.587-.029.884-.029v-1c-.318 0-.635.01-.95.03l.065.999zm.884-.029c.298 0 .593.01.886.029L17.94.53c-.314-.02-.63-.03-.95-.03v1zm2.638.257c.584.116 1.154.27 1.707.457l.322-.947a14.401 14.401 0 00-1.835-.49l-.194.98zm3.34 1.134c.53.263 1.04.559 1.53.886l.556-.83a14.487 14.487 0 00-1.643-.952l-.444.896zm2.93 1.964c.444.39.861.807 1.25 1.25l.752-.659a14.6 14.6 0 00-1.341-1.342l-.66.75zm2.327 2.653c.327.489.623 1 .885 1.53l.897-.442c-.282-.57-.6-1.12-.95-1.644l-.832.556zm1.561 3.163c.188.554.341 1.124.456 1.707l.982-.194a14.402 14.402 0 00-.49-1.834l-.948.32zm.685 3.46c.019.293.029.588.029.885h1c0-.319-.01-.635-.031-.95l-.998.065zm.029.885c0 .303-.01.604-.03.902l.998.066c.02-.32.032-.643.032-.968h-1zm-.267 2.688c-.12.594-.28 1.174-.474 1.738l.945.327c.21-.605.38-1.229.509-1.867l-.98-.198zm-1.176 3.397a13.503 13.503 0 01-.918 1.55l.825.566c.364-.53.694-1.087.986-1.666l-.893-.45zm-2.033 2.966c-.201.223-.41.44-.626.65l.697.716c.232-.224.456-.457.672-.697l-.743-.67zm-.277 1.008l-.697-.718-1.527 1.483 2.116.229.108-.994zm-20.193-.708l.28.96 1.525-.444L7.3 23.7l-.745.668zm-1.064.298l-.766.643.41.49.618-.168-.262-.965zm21.625 1.437l-.786-.619 1.461 1.356-.675-.737zm.527-.93l.982.19.206-1.068-1.08-.117-.108.995zm-1.003.897l.224.024.215-1.988-.224-.024-.215 1.988zm.672.073l.224.024.215-1.989-.224-.024-.215 1.989zm-.65-1.16c.002-.016.005-.022.003-.017a.412.412 0 01-.016.039l1.813.843a2.11 2.11 0 00.163-.486l-1.964-.38zm-.199.324a4.09 4.09 0 01-.133.177l1.572 1.237a6.7 6.7 0 00.19-.254l-1.629-1.16zm1.328 1.533c.273-.249.537-.508.791-.775l-1.448-1.38c-.223.235-.454.461-.693.68l1.35 1.475zm2.205-2.48c.43-.598.82-1.227 1.165-1.883l-1.769-.932a14.019 14.019 0 01-1.02 1.648l1.624 1.168zm2.06-3.91c.248-.69.451-1.402.604-2.132l-1.957-.41c-.134.638-.311 1.26-.529 1.864l1.882.678zm.907-4.326c.025-.366.037-.735.037-1.107h-2c0 .327-.01.65-.032.97l1.995.137zm.037-1.107c0-.351-.01-.7-.033-1.047l-1.996.129c.02.303.03.61.03.918h2zm-.304-3.124a15.906 15.906 0 00-.54-2.024l-1.895.642c.195.574.353 1.165.473 1.77l1.962-.388zm-1.343-3.96c-.31-.63-.661-1.235-1.048-1.814L28.64 7.23c.34.507.646 1.037.918 1.587l1.793-.885zm-2.324-3.475c-.46-.525-.955-1.02-1.48-1.48l-1.32 1.502c.46.404.893.837 1.296 1.297l1.504-1.319zM25.888 1.7A15.995 15.995 0 0024.075.65l-.887 1.794c.55.272 1.08.579 1.587.918L25.888 1.7zM22.139-.153a15.896 15.896 0 00-2.024-.542l-.389 1.962c.605.12 1.196.278 1.77.473l.643-1.893zm-4.101-.813A16.227 16.227 0 0016.99-1v2c.308 0 .614.01.918.03l.129-1.996zM16.99-1c-.352 0-.701.011-1.048.034l.13 1.996c.303-.02.609-.03.918-.03v-2zm-3.125.305c-.691.137-1.367.319-2.024.542l.643 1.893a13.892 13.892 0 011.77-.473l-.389-1.962zM9.906.65c-.629.31-1.234.662-1.813 1.05l1.113 1.66c.507-.34 1.037-.646 1.587-.918L9.906.65zM6.433 2.976c-.525.461-1.02.956-1.48 1.481l1.504 1.319c.403-.46.836-.893 1.296-1.297l-1.32-1.503zM3.677 6.118A16.003 16.003 0 002.63 7.932l1.793.885c.272-.55.579-1.08.918-1.587L3.677 6.118zm-1.85 3.75a15.908 15.908 0 00-.541 2.024l1.962.388c.12-.605.278-1.196.473-1.77l-1.894-.642zm-.812 4.101c-.022.346-.034.696-.034 1.047h2c0-.308.01-.615.03-.918l-1.996-.129zm-.034 1.047c0 .312.01.623.027.93l1.997-.114c-.016-.27-.024-.542-.024-.816h-2zm.24 2.78c.109.617.252 1.222.428 1.812l1.917-.572a13.923 13.923 0 01-.374-1.585l-1.97.345zm1.065 3.563c.247.573.527 1.128.836 1.664l1.732-1.001a14.235 14.235 0 01-.732-1.455l-1.836.792zm1.86 3.219c.186.249.378.492.578.73l1.532-1.286a14.09 14.09 0 01-.506-.639l-1.604 1.195zm1.606 1.052l.27-.074-.531-1.928a63.5 63.5 0 01-.263.072l.524 1.93zm.81-.225l.271-.078-.558-1.92-.26.074.548 1.924zm.737-1.706a13.132 13.132 0 01-.51-.606L5.22 24.335c.189.24.385.472.588.699l1.49-1.335zm-1.417-1.904a13.07 13.07 0 01-.741-1.4l-1.821.828c.253.557.539 1.096.856 1.614l1.706-1.042zm-1.306-2.877c-.157-.5-.284-1.013-.38-1.537l-1.968.361c.111.605.258 1.197.44 1.774l1.908-.598zm-.57-3.109a13.243 13.243 0 01-.025-.793h-2c0 .307.01.61.028.913l1.996-.12zm-.025-.793c0-.287.01-.57.028-.853l-1.996-.129a15.23 15.23 0 00-.032.982h2zm.248-2.54c.111-.563.258-1.111.44-1.645l-1.895-.642c-.209.616-.379 1.25-.507 1.899l1.962.387zm1.09-3.216c.253-.511.537-1.003.852-1.474L4.51 6.674c-.363.543-.692 1.11-.983 1.7l1.793.886zm1.89-2.825a13.1 13.1 0 011.203-1.204l-1.32-1.503a15.1 15.1 0 00-1.387 1.389l1.503 1.318zm2.553-2.242c.47-.316.962-.6 1.473-.853l-.886-1.793c-.59.291-1.158.62-1.7.984l1.113 1.662zm3.044-1.505a12.902 12.902 0 011.644-.44L14.062.286a14.9 14.9 0 00-1.899.508l.643 1.894zm3.332-.66c.281-.019.566-.028.852-.028V0c-.33 0-.657.01-.981.032l.129 1.995zM16.99 2c.287 0 .572.01.853.027l.13-1.995A15.216 15.216 0 0016.99 0v2zm2.541.248c.562.111 1.11.259 1.644.44l.643-1.894c-.616-.21-1.25-.38-1.899-.508l-.388 1.962zm3.215 1.092c.51.252 1.003.537 1.473.853l1.113-1.662a14.995 14.995 0 00-1.7-.984l-.886 1.793zm2.823 1.89c.427.376.829.778 1.204 1.205l1.503-1.318a15.102 15.102 0 00-1.387-1.39l-1.32 1.504zm2.24 2.556c.316.47.6.963.853 1.474l1.793-.886c-.291-.59-.62-1.157-.983-1.7L27.81 7.786zm1.504 3.045c.18.534.328 1.083.439 1.644l1.962-.387a14.904 14.904 0 00-.507-1.899l-1.894.642zm.66 3.332c.017.282.027.566.027.853h2c0-.33-.011-.657-.032-.982l-1.996.13zm.027.853c0 .292-.01.582-.029.87l1.996.13c.021-.33.033-.664.033-1h-2zm-.258 2.59a12.84 12.84 0 01-.456 1.672l1.89.655c.217-.627.394-1.272.527-1.933l-1.96-.395zm-1.132 3.27a13.02 13.02 0 01-.883 1.493l1.65 1.13c.376-.548.717-1.124 1.019-1.722l-1.786-.902zm-1.957 2.856c-.194.215-.395.424-.603.625l1.393 1.435c.24-.232.471-.473.695-.72l-1.485-1.34z" fill="#fff" mask="url(#a)"/><path d="M1 25.65c1.473 0 1.964-.295 2.946-.491 1.626-.326 4.263-1.348 5.958-2.061a2.045 2.045 0 011.787.09l7.965 4.427c-.327 1.473-1.963 3.83-5.891 1.473" stroke="#fff" stroke-width="2"/><path d="M1 34l7.239-2.263a2 2 0 011.23.011l6.083 2.03a2 2 0 001.328-.023l12.596-4.667c2.945-.982 1.508-4.924-1.473-3.93-2.946.983-6.874 2.456-8.838 2.948" stroke="#fff" stroke-width="2"/><path d="M18.557 17.183c0-.367-.103-.658-.308-.873-.202-.22-.546-.42-1.034-.604a12.786 12.786 0 01-1.262-.544 4.25 4.25 0 01-.913-.625 2.615 2.615 0 01-.59-.832c-.14-.318-.209-.697-.209-1.135 0-.757.242-1.377.725-1.86.484-.484 1.126-.766 1.927-.847V8.426h1.074v1.458c.792.111 1.411.443 1.859.993.447.547.671 1.256.671 2.13h-1.94c0-.538-.112-.939-.335-1.203-.22-.268-.515-.403-.886-.403-.367 0-.651.106-.853.316-.201.206-.302.492-.302.86 0 .34.098.613.295.819.197.206.562.416 1.095.631.537.215.977.419 1.322.611.344.188.635.403.872.645.238.237.419.51.544.82.125.303.188.66.188 1.067 0 .761-.237 1.379-.711 1.853-.475.475-1.128.755-1.96.84v1.336h-1.068v-1.33c-.917-.098-1.628-.423-2.134-.973-.501-.555-.752-1.292-.752-2.21h1.94c0 .533.125.943.376 1.23.255.281.62.422 1.094.422.394 0 .705-.103.933-.309.228-.21.342-.492.342-.846z" fill="#fff"/></svg>