<svg width="36" height="30" fill="none" xmlns="http://www.w3.org/2000/svg"><path d="M9 16.842v-5.526h18.421v5.895l-8.842-3.316L9 16.842z" fill="#fff"/><path d="M30.773 26.894c-.14.271-.304.53-.49.774a4.115 4.115 0 01-.64.674 3.126 3.126 0 01-.778.477 2.322 2.322 0 01-.928.18 4.304 4.304 0 01-1.2-.147 3.48 3.48 0 01-.894-.393 9.933 9.933 0 01-.71-.493 13.538 13.538 0 01-.625-.51 1.896 1.896 0 00-.659-.379 4.03 4.03 0 00-.776-.165 1.921 1.921 0 00-.777.148 3.162 3.162 0 00-.641.379 11.07 11.07 0 00-.608.494 4.48 4.48 0 01-.71.494c-.284.156-.585.28-.897.37a4.708 4.708 0 01-1.233.164 4.37 4.37 0 01-1.216-.147 4.258 4.258 0 01-.912-.378 3.797 3.797 0 01-.692-.494 5.55 5.55 0 00-.625-.494 5.166 5.166 0 00-.641-.379 2.004 2.004 0 00-1.554-.017 2.8 2.8 0 00-.641.392c-.203.165-.412.33-.625.494-.214.165-.45.335-.71.51a2.606 2.606 0 01-.912.379 8.508 8.508 0 01-1.2.164c-.32.004-.64-.052-.939-.164a2.388 2.388 0 01-.759-.477 5.992 5.992 0 01-.625-.675 4.777 4.777 0 01-.507-.784l-.034-.05" stroke="#fff" stroke-width="2" stroke-dasharray="1 1"/><path d="M34.421 26.263h-2.566l2.565-7.604-4.323-1.398V9.42h-2.566L25.37 5.21h-3.918V1h-6.485v4.215H11.05l-2.161 4.21H6.322v7.841L2 18.664l2.566 7.6H2" stroke="#fff" stroke-width="2"/></svg>