<svg width="36" height="29" fill="none" xmlns="http://www.w3.org/2000/svg"><path d="M31.154 8.308a1.385 1.385 0 11-2.77 0 1.385 1.385 0 012.77 0zm-4.846 0a1.385 1.385 0 11-2.77 0 1.385 1.385 0 012.77 0zm-4.846 0a1.385 1.385 0 11-2.77 0 1.385 1.385 0 012.77 0z" fill="#fff"/><path fill-rule="evenodd" clip-rule="evenodd" d="M4 8.308a4 4 0 00-4 4v8.615a4 4 0 004 4h.154v3.462l3.461-3.462h10.539a4 4 0 004-4v-8.615a4 4 0 00-4-4H4z" fill="#fff"/><path fill-rule="evenodd" clip-rule="evenodd" d="M4 8.308a4 4 0 00-4 4v8.615a4 4 0 004 4h.154v3.462l3.461-3.462h10.539a4 4 0 004-4v-8.615a4 4 0 00-4-4H4z" fill="url(#paint0_linear)"/><mask id="b" maskUnits="userSpaceOnUse" x="13" y="0" width="23" height="21"><mask id="a" fill="#fff"><path fill-rule="evenodd" clip-rule="evenodd" d="M32 0a4 4 0 014 4v8.615a4 4 0 01-4 4h-.154v3.462l-3.461-3.462H17.846a4 4 0 01-4-4V4a4 4 0 014-4H32z"/></mask><path d="M31.846 16.615h-2v-2h2v2zm0 3.462h2v4.828l-3.414-3.414 1.414-1.414zm-3.461-3.462v-2h.828l.586.586-1.414 1.414zM34 4a2 2 0 00-2-2v-4a6 6 0 016 6h-4zm0 8.615V4h4v8.615h-4zm-2 2a2 2 0 002-2h4a6 6 0 01-6 6v-4zm-.154 0H32v4h-.154v-4zm2 2v3.462h-4v-3.462h4zm-3.414 4.876L26.97 18.03l2.83-2.83 3.461 3.462-2.828 2.828zm-12.586-6.876h10.539v4H17.846v-4zm-2-2a2 2 0 002 2v4a6 6 0 01-6-6h4zm0-8.615v8.615h-4V4h4zm2-2a2 2 0 00-2 2h-4a6 6 0 016-6v4zM32 2H17.846v-4H32v4z" fill="#fff" mask="url(#a)"/></mask><g mask="url(#b)"><mask id="d" maskUnits="userSpaceOnUse" x="13" y="0" width="23" height="21"><mask id="c" fill="#fff"><path fill-rule="evenodd" clip-rule="evenodd" d="M32 0a4 4 0 014 4v8.615a4 4 0 01-4 4h-.154v3.462l-3.461-3.462H17.846a4 4 0 01-4-4V4a4 4 0 014-4H32z"/></mask><path d="M31.846 16.615h-1v-1h1v1zm0 3.462h1v2.414l-1.707-1.707.707-.707zm-3.461-3.462v-1h.414l.293.293-.707.707zM37 4v.479h-2V4h2zm0 2.393v.957h-2v-.957h2zm0 2.872v.957h-2v-.957h2zm0 2.872v.478h-2v-.478h2zm0 .478c0 .22-.014.438-.042.652l-1.983-.258c.016-.129.025-.26.025-.394h2zm-1.033 3.045a5.022 5.022 0 01-.922.922l-1.22-1.586c.209-.16.396-.347.556-.555l1.586 1.219zm-3.315 1.913a5.036 5.036 0 01-.652.042v-2c.134 0 .265-.008.393-.025l.259 1.983zm-.652.042h-.026v-2H32v2zm-.128 0h-.026v-2h.026v2zm.974-1v.577h-2v-.577h2zm0 2.885v.577h-2V19.5h2zm-1.707 1.284l-.288-.288 1.414-1.415.288.289-1.414 1.414zm-1.442-1.442l-.577-.577 1.414-1.414.577.576-1.414 1.415zm-1.731-1.731l-.289-.288 1.415-1.415.288.289-1.414 1.414zm.419.004h-.44v-2h.44v2zm-2.196 0h-.878v-2h.878v2zm-2.634 0h-.879v-2h.879v2zm-2.635 0h-.878v-2h.878v2zm-2.635 0h-.439v-2h.44v2zm-.439 0c-.22 0-.438-.014-.652-.042l.26-1.983c.127.017.258.025.392.025v2zm-3.044-1.033a5.022 5.022 0 01-.922-.922l1.585-1.219c.16.208.347.395.555.555l-1.218 1.586zm-1.914-3.315a5.036 5.036 0 01-.042-.652h2c0 .134.009.265.026.393l-1.984.26zm-.042-.652v-.478h2v.478h-2zm0-2.393v-.957h2v.957h-2zm0-2.872v-.957h2v.957h-2zm0-2.871V4h2v.479h-2zm0-.479c0-.22.014-.438.042-.652l1.984.259c-.017.128-.026.26-.026.393h-2zM13.88.956c.265-.346.576-.657.922-.923L16.02 1.62c-.208.16-.394.347-.554.555L13.88.956zm3.314-1.914c.214-.028.432-.042.652-.042v2c-.134 0-.265.009-.393.025l-.259-1.983zM17.846-1h.472v2h-.472v-2zm2.36 0h.943v2h-.944v-2zm2.83 0h.944v2h-.944v-2zm2.83 0h.944v2h-.943v-2zm2.831 0h.944v2h-.944v-2zm2.831 0H32v2h-.472v-2zM32-1c.22 0 .438.014.652.042l-.259 1.983A3.037 3.037 0 0032 1v-2zM35.044.033c.347.266.657.577.923.923L34.38 2.174a3.024 3.024 0 00-.555-.555L35.044.033zm1.914 3.315c.028.214.042.432.042.652h-2c0-.134-.009-.265-.025-.393l1.983-.259zm-5.112 13.267h-2v-2h2v2zm0 3.462h2v4.828l-3.414-3.414 1.414-1.414zm-3.461-3.462v-2h.828l.586.586-1.414 1.414zM38 4v.479h-4V4h4zm0 2.393v.957h-4v-.957h4zm0 2.872v.957h-4v-.957h4zm0 2.872v.478h-4v-.478h4zm0 .478c0 .264-.017.525-.05.781l-3.967-.517c.011-.085.017-.173.017-.264h4zm-1.24 3.654c-.32.415-.691.787-1.106 1.106l-2.438-3.172a2.01 2.01 0 00.372-.371l3.171 2.437zm-3.979 2.296a6.11 6.11 0 01-.781.05v-4c.09 0 .178-.005.264-.017l.517 3.967zm-.781.05h-.026v-4H32v4zm-.128 0h-.026v-4h.026v4zm1.974-2v.577h-4v-.577h4zm0 2.885v.577h-4V19.5h4zm-3.414 1.991l-.288-.288 2.828-2.829.288.289-2.828 2.828zM28.99 20.05l-.577-.577 2.828-2.829.577.577-2.828 2.829zm-1.731-1.73l-.289-.29 2.829-2.828.288.289-2.828 2.828zm1.126.296h-.44v-4h.44v4zm-2.196 0h-.878v-4h.878v4zm-2.634 0h-.879v-4h.879v4zm-2.635 0h-.878v-4h.878v4zm-2.635 0h-.439v-4h.44v4zm-.439 0a6.05 6.05 0 01-.781-.05l.517-3.967c.086.011.174.017.264.017v4zm-3.654-1.24a6.022 6.022 0 01-1.105-1.106l3.171-2.437c.107.14.232.264.372.371l-2.438 3.172zm-2.295-3.979a6.03 6.03 0 01-.05-.78h4c0 .09.005.178.016.263l-3.966.518zm-.05-.78v-.48h4v.48h-4zm0-2.394v-.957h4v.957h-4zm0-2.872v-.957h4v.957h-4zm0-2.871V4h4v.479h-4zm0-.479c0-.264.016-.525.05-.781l3.966.517a2.028 2.028 0 00-.017.264h-4zm1.24-3.654a5.99 5.99 0 011.105-1.105l2.438 3.171c-.14.107-.265.232-.372.372L13.087.346zm3.978-2.295A6.04 6.04 0 0117.846-2v4c-.09 0-.178.006-.264.017l-.517-3.966zM17.846-2h.472v4h-.472v-4zm2.36 0h.943v4h-.944v-4zm2.83 0h.944v4h-.944v-4zm2.83 0h.944v4h-.943v-4zm2.831 0h.944v4h-.944v-4zm2.831 0H32v4h-.472v-4zM32-2c.264 0 .525.017.781.05l-.517 3.967A2.036 2.036 0 0032 2v-4zm3.654 1.24c.415.32.787.691 1.105 1.106l-3.171 2.438a2.025 2.025 0 00-.371-.372l2.437-3.171zm2.295 3.979c.034.256.051.517.051.781h-4c0-.09-.006-.178-.017-.264l3.966-.517z" fill="#fff" mask="url(#c)"/></mask><g mask="url(#d)"><path fill="#6385CE" d="M13.153 8.308h9v9h-9z"/></g><path d="M12.46 0h24.924v8.308H12.461V0zm9.693 8.308H38.77v12.461H22.153V8.308z" fill="#fff"/></g><defs><linearGradient id="paint0_linear" x1="11.077" y1="8.308" x2="11.077" y2="28.384" gradientUnits="userSpaceOnUse"><stop stop-color="#DBE9FF"/><stop offset="1" stop-color="#fff" stop-opacity="0"/></linearGradient></defs></svg>