<svg width="56" height="28" fill="none" xmlns="http://www.w3.org/2000/svg"><rect x="1" y="1" width="54" height="26" rx="1" stroke="#fff" stroke-width="2"/><rect x="3.611" y="4.389" width="20.778" height="13" rx="1.5" stroke="#fff"/><rect x="28.5" y="5.167" width="23.889" height="6.778" rx="1.5" stroke="#fff"/><rect x="28.5" y="14.5" width="23.889" height="6.778" rx="1.5" stroke="#fff"/><path stroke="#fff" stroke-width=".778" d="M28.389 23.722H52.5v.778H28.389z"/><path stroke="#fff" d="M3.611 20.722h20.778v3.667H3.611z"/><path fill="#fff" d="M.777.778h54.444v1.556H.777z"/><path d="M3.11 1.167a.389.389 0 11-.777 0 .389.389 0 01.778 0zm1.556 0a.389.389 0 11-.777 0 .389.389 0 01.777 0zm1.556 0a.389.389 0 11-.778 0 .389.389 0 01.778 0z" fill="#489CE5"/><path d="M10.111 12.056L12.056 14l6.61-6.611" stroke="#E5F9FF"/></svg>