<svg xmlns="http://www.w3.org/2000/svg" viewBox="-2859.4 -435.765 315.283 157.765"><path d="M-2859.4-435.2l9.183 9.157 10.657-9.723 9.75 9.723 10.657-9.723 9.753 9.723 10.657-9.723 9.75 9.723 10.657-9.723 9.75 9.723 10.657-9.723 9.75 9.723 10.657-9.723 9.75 9.723 10.657-9.723 9.75 9.723 10.657-9.723 9.75 9.723 10.657-9.723 9.75 9.723 10.651-9.722 9.75 9.723 10.657-9.723 9.75 9.723 10.657-9.723 9.75 9.723 10.657-9.723 9.75 9.723 10.657-9.723 9.75 9.723 10.657-9.723 9.75 9.723V-278H-2859.4z" fill="#f9eba4"/></svg>