<svg xmlns="http://www.w3.org/2000/svg" viewBox="0 0 284 71"><defs><style>.cls-1{fill:#fff}</style></defs><g id="Layer_1"><path id="Path_23243" d="M96.8 58.2a1.67 1.67 0 01-.8.3l-1.37.24q-.75.14-1.84.24t-2.7.18h-3.87a25.09 25.09 0 01-4.7-.42 9.32 9.32 0 01-3.76-1.57 7.84 7.84 0 01-2.53-3.22 13.06 13.06 0 01-.93-5.34V30.76a13.06 13.06 0 01.94-5.35 7.86 7.86 0 012.53-3.2 9.34 9.34 0 013.77-1.6 25.1 25.1 0 014.68-.4h3.9a16.6 16.6 0 012.67.18q1.1.1 1.83.23l1.36.25a1.67 1.67 0 01.8.3 1 1 0 01.22.77v3.35a1.05 1.05 0 01-1 1.01H85.5a4.32 4.32 0 00-3.16.9 5.03 5.03 0 00-.9 3.5v5.56H95.4a1.05 1.05 0 011.03 1.02v3.7A1.05 1.05 0 0195.4 42H81.46v6.7a5.03 5.03 0 00.9 3.5 4.32 4.32 0 003.17.93H96a1.05 1.05 0 011.02 1.02v3.35a1 1 0 01-.23.7z" class="cls-1"/><path id="Path_23244" d="M124.34 57.8a1.05 1.05 0 01-1.02 1h-4.37a1.05 1.05 0 01-1.02-1v-.83a17.79 17.79 0 01-3.6 1.68 11.7 11.7 0 01-3.65.58 14.43 14.43 0 01-3.18-.35 7 7 0 01-4.9-3.95 9.83 9.83 0 01-.8-4.27v-.2a9.88 9.88 0 01.7-3.86 6.7 6.7 0 012.2-2.78 10.52 10.52 0 013.9-1.68 25.2 25.2 0 015.72-.57h3.23v-2.3a4.06 4.06 0 00-1.1-3.35 5.7 5.7 0 00-3.35-.82q-2.46 0-4.77.13t-3.6.3h-.25a1.3 1.3 0 01-.67-.16c-.15-.1-.24-.34-.24-.72v-3.3a1.04 1.04 0 01.97-1.07q1.54-.3 3.72-.56a42.2 42.2 0 014.85-.25 12.8 12.8 0 018.37 2.4 9.1 9.1 0 012.9 7.42zm-6.78-11.74h-3.25a11.97 11.97 0 00-2.85.3 4.4 4.4 0 00-1.67.8 2.68 2.68 0 00-.97 1.43 7 7 0 00-.23 1.9v.2a3 3 0 00.87 2.55 4.88 4.88 0 002.85.63 9.55 9.55 0 002.75-.4 13.18 13.18 0 002.5-1.04z" class="cls-1"/><path id="Path_23245" d="M149.98 51.24a8.03 8.03 0 01-.62 3.15 6.7 6.7 0 01-1.87 2.57 9.14 9.14 0 01-3.17 1.67 14.38 14.38 0 01-4.42.62h-1.87a16.98 16.98 0 01-2.4-.18q-1.28-.18-2.55-.44a17.1 17.1 0 01-2.36-.48 1.16 1.16 0 01-1-1.2V53.9a.84.84 0 01.24-.58.82.82 0 01.64-.25h.2l2.18.2 2.5.18 2.3.13h1.67a8.1 8.1 0 001.9-.18 2.66 2.66 0 001.1-.52 1.68 1.68 0 00.53-.8 3.66 3.66 0 00.13-.96 1.86 1.86 0 00-.5-1.3 8.7 8.7 0 00-1.68-1.33l-7.03-4.3a10.05 10.05 0 01-3.12-3 7.2 7.2 0 01-1.2-4.1q0-7.68 9.75-7.68h2.8a11.1 11.1 0 012.34.24l2.06.33 1.96.38a1.14 1.14 0 01.9 1.2v3q0 1-.8.98h-.2l-1.55-.2q-.97-.12-2.16-.2l-2.55.03h-2.34a5.65 5.65 0 00-2.7.47 1.76 1.76 0 00-.85 1.68 1.37 1.37 0 00.54 1.07 10.36 10.36 0 001.5 1.02l6.7 4.1a13.95 13.95 0 012.57 1.95 8.88 8.88 0 011.52 1.94 5.95 5.95 0 01.68 1.94 12.5 12.5 0 01.2 1.86z" class="cls-1"/><path id="Path_23246" d="M179.26 30.7a.72.72 0 010 .3l-8.6 30.02a24.7 24.7 0 01-1.32 3.62 7.6 7.6 0 01-1.95 2.55 7.14 7.14 0 01-2.9 1.44 17.38 17.38 0 01-4.38.47h-1.38a7.74 7.74 0 01-1.52-.14l-1.4-.26a7.04 7.04 0 01-1.12-.26 3.23 3.23 0 01-.75-.28.62.62 0 01-.34-.6v-3.34a.82.82 0 01.4-.55 1.1 1.1 0 01.72-.25h1.4l1.68.1 1.57.1h1.34a4.45 4.45 0 002.57-.64 4.7 4.7 0 001.34-2.66l.43-1.54h-.77a5.77 5.77 0 01-1.2-.14 3.35 3.35 0 01-1.2-.53 4.34 4.34 0 01-1.17-1.13 8.77 8.77 0 01-.96-2.35l-6.7-23.55a1.14 1.14 0 010-.36q0-.8.97-.8h5.2a.8.8 0 01.63.28 1.68 1.68 0 01.35.63l5.2 20.94a3.08 3.08 0 00.3.9.47.47 0 00.4.24h.48l5.54-22.12a1.4 1.4 0 01.32-.6.9.9 0 01.67-.25h5.23a.9.9 0 01.67.26.84.84 0 01.26.53z" class="cls-1"/><path id="Path_23247" d="M212.44 58.5a1 1 0 01-.72.3h-5.02a1.05 1.05 0 01-1.02-1V42.05h-14.6V57.8a1.05 1.05 0 01-1.02 1h-5.03a1.05 1.05 0 01-1.02-1V21.6a.9.9 0 01.3-.7 1.04 1.04 0 01.73-.27h5.02a1.04 1.04 0 01.72.28.9.9 0 01.3.7v14.2h14.6V21.6a.9.9 0 01.3-.7 1.04 1.04 0 01.72-.27h5.02a1.04 1.04 0 01.72.28.9.9 0 01.3.7v36.2a1 1 0 01-.3.7z" class="cls-1"/><path id="Path_23248" d="M240.9 57.8a1.05 1.05 0 01-1.02 1h-4.38a1.05 1.05 0 01-1.02-1v-.83a17.8 17.8 0 01-3.6 1.68 11.7 11.7 0 01-3.64.58 14.43 14.43 0 01-3.18-.35 7 7 0 01-4.9-3.95 9.83 9.83 0 01-.8-4.27v-.2a9.88 9.88 0 01.68-3.86 6.7 6.7 0 012.2-2.78 10.52 10.52 0 013.9-1.68 25.2 25.2 0 015.74-.57h3.23v-2.3a4.06 4.06 0 00-1.1-3.35 5.7 5.7 0 00-3.34-.82q-2.46 0-4.77.13t-3.6.3h-.33a1.3 1.3 0 01-.67-.16c-.17-.1-.25-.34-.25-.72v-3.3a1.04 1.04 0 01.97-1.07q1.54-.3 3.73-.56a42.18 42.18 0 014.86-.25 12.8 12.8 0 018.38 2.4 9.1 9.1 0 012.9 7.42zm-6.78-11.74h-3.25a11.97 11.97 0 00-2.86.3 4.4 4.4 0 00-1.67.8 2.68 2.68 0 00-.88 1.36 7.03 7.03 0 00-.24 1.9v.2a3 3 0 00.88 2.56 4.88 4.88 0 002.85.64 9.55 9.55 0 002.76-.42 13.17 13.17 0 002.5-1.02z" class="cls-1"/><path id="Path_23249" d="M270.5 58.5a1 1 0 01-.73.3h-4.72a1 1 0 01-.72-.3.97.97 0 01-.3-.7v-1.2a16.73 16.73 0 01-3.82 2.02 13.28 13.28 0 01-4.26.6 11.7 11.7 0 01-3.56-.52 6.7 6.7 0 01-2.75-1.67 7.8 7.8 0 01-2-3.8 23.98 23.98 0 01-.57-5.57V30.93a1.07 1.07 0 01.3-.75.95.95 0 01.72-.34h4.68a.95.95 0 01.72.34 1.07 1.07 0 01.3.75V47.7a16.64 16.64 0 00.24 3.1 3.35 3.35 0 00.95 1.83 3.87 3.87 0 001.3.7 6.37 6.37 0 001.9.23 6.05 6.05 0 001.52-.2 12.8 12.8 0 001.57-.52 13.4 13.4 0 001.45-.67l1.26-.67V30.9a1.07 1.07 0 01.3-.74.95.95 0 01.72-.34h4.72a.95.95 0 01.72.34 1.07 1.07 0 01.3.75v26.9a1 1 0 01-.25.7z" class="cls-1"/><path id="Path_23250" d="M283.72 58.5a.87.87 0 01-.7.33h-4.76a.95.95 0 01-.72-.34 1.07 1.07 0 01-.3-.74V20.73a1.05 1.05 0 011.02-1.02h4.77a.9.9 0 01.7.3 1.04 1.04 0 01.27.73v37.03a1.12 1.12 0 01-.28.73z" class="cls-1"/><path id="Path_23251" d="M2.3 42.83A1.5 1.5 0 010 41.65V8.38a1.48 1.48 0 01.84-1.34C4.14 5.5 16.62 0 28.7 0a63.56 63.56 0 0123.34 4.32.25.25 0 010 .47l-8.6 3.85a1.5 1.5 0 01-1.03 0c-4.48-1.34-8.15-1.3-13.67-1.3A59.4 59.4 0 008.3 11.9a1.4 1.4 0 00-.9 1.34v13.5a1.3 1.3 0 001.8 1.2L61.24 5.3a.2.2 0 01.17.35z" class="cls-1"/><path id="Path_23252" d="M2.54 49.5a31.98 31.98 0 003.94 4.85 1.67 1.67 0 002.24.12L68.08 6a.32.32 0 00-.37-.5L3 47.38a1.68 1.68 0 00-.44 2.13z" class="cls-1"/><path id="Path_23253" d="M50.7 38.84c-.15 6.5-.38 8-2.94 10.4 0 0-.35.84-8.67 7.12a104.16 104.16 0 01-9.5 6.32 1.22 1.22 0 01-1.24 0l-2.5-1.48a1.32 1.32 0 01-.28-2.02L74.86 6.23a.23.23 0 00-.32-.33L11.5 57.3a1.9 1.9 0 000 2.94 108.08 108.08 0 0015.75 10.3 3.7 3.7 0 003.58 0c6.28-3.52 26.92-15.92 26.92-27.46 0-4.36.35-6.28.37-11.63a.23.23 0 00-.4-.18l-6.3 6.4c-.56.58-.7.87-.72 1.17z" class="cls-1"/></g></svg>