<svg width="290" height="282" fill="none" xmlns="http://www.w3.org/2000/svg"><g clip-path="url(#clip0)"><g filter="url(#filter0_d)"><path d="M48 198.308L145.557 277 242 198.308V21.361C229.736 14.574 193.277 0 145.557 0S60.636 14.574 48 21.36v176.948z" fill="#9A2A26"/></g><path d="M18.5 141.253L0 120h48v43H0l18.5-21.747z" fill="#5D8B85"/><path d="M144.234 265.549l1.273 1.04 1.267-1.047 86.5-71.5.726-.6V27.828l-1.022-.573C221.674 20.918 188.636 8.5 145.5 8.5c-43.136 0-76.83 12.418-88.456 18.743L56 27.811V193.45l.734.6 87.5 71.5z" stroke="#EBE5B3" stroke-width="4"/><path d="M38 138.5L48 126v12.5H38z" fill="#326D6C"/><path d="M271.691 141.253L290 120h-48v43h48l-18.309-21.747z" fill="#5D8B85"/><path d="M251.897 138.287L242 125.931v12.356h9.897z" fill="#326D6C"/><path fill="#64958F" d="M38 138h214v43H38z"/><path d="M72.228 163.07h-5.136l-.977 2.93H63l5.293-14.219h2.715L76.33 166h-3.115l-.987-2.93zm-4.345-2.373h3.555l-1.788-5.322-1.767 5.322zm20.361-8.916v9.365c0 1.556-.488 2.787-1.465 3.692-.97.905-2.298 1.357-3.984 1.357-1.66 0-2.979-.439-3.955-1.318-.977-.879-1.475-2.087-1.494-3.623v-9.473h2.93v9.385c0 .931.22 1.611.663 2.041.45.423 1.068.635 1.856.635 1.647 0 2.484-.866 2.51-2.598v-9.463h2.94zm13.106 2.373h-4.356V166h-2.93v-11.846h-4.296v-2.373h11.582v2.373zm13.086 5.059c0 1.4-.248 2.627-.743 3.682-.494 1.054-1.204 1.868-2.129 2.441-.918.573-1.972.859-3.164.859-1.178 0-2.229-.283-3.154-.849-.924-.567-1.641-1.374-2.148-2.422-.508-1.055-.765-2.266-.772-3.633v-.703c0-1.4.251-2.63.752-3.692.508-1.067 1.221-1.884 2.139-2.451.924-.573 1.979-.859 3.164-.859s2.236.286 3.154.859c.925.567 1.638 1.384 2.139 2.451.508 1.062.762 2.289.762 3.682v.635zm-2.969-.645c0-1.491-.267-2.623-.801-3.398-.534-.775-1.296-1.162-2.285-1.162-.983 0-1.742.384-2.276 1.152-.533.762-.804 1.882-.81 3.36v.693c0 1.452.267 2.578.801 3.379.534.801 1.302 1.201 2.304 1.201.983 0 1.739-.384 2.266-1.152.527-.775.794-1.901.801-3.379v-.694zm5.097 7.432v-14.219h4.981c1.725 0 3.034.332 3.926.996.892.658 1.338 1.625 1.338 2.901 0 .696-.179 1.312-.538 1.845-.358.528-.856.915-1.494 1.163.73.182 1.302.55 1.719 1.103.423.553.635 1.231.635 2.031 0 1.368-.436 2.403-1.309 3.106-.872.703-2.116 1.061-3.73 1.074h-5.528zm2.93-6.191v3.837h2.51c.69 0 1.227-.162 1.611-.488.391-.332.586-.788.586-1.367 0-1.302-.674-1.963-2.021-1.982h-2.686zm0-2.071h2.168c1.478-.026 2.217-.615 2.217-1.767 0-.645-.189-1.107-.567-1.387-.371-.286-.96-.43-1.767-.43h-2.051v3.584zM132.453 166h-2.93v-14.219h2.93V166zm2.725 0v-14.219h4.375c1.25 0 2.366.283 3.349.85.99.56 1.761 1.361 2.315 2.402.553 1.035.83 2.214.83 3.535v.655c0 1.321-.274 2.496-.82 3.525a5.818 5.818 0 01-2.295 2.393c-.99.566-2.106.852-3.35.859h-4.404zm2.929-11.846v9.492h1.416c1.146 0 2.022-.374 2.627-1.123.606-.748.915-1.819.928-3.212v-.752c0-1.446-.299-2.539-.898-3.282-.599-.748-1.475-1.123-2.627-1.123h-1.446zm13.907-2.373l3.652 10.313 3.633-10.313h3.847V166h-2.939v-3.887l.293-6.709L156.662 166h-2.012l-3.828-10.586.293 6.699V166h-2.929v-14.219h3.828zm21.894 11.289h-5.137l-.976 2.93h-3.115l5.293-14.219h2.715L178.01 166h-3.115l-.987-2.93zm-4.346-2.373h3.555l-1.787-5.322-1.768 5.322zm17.149 1.573c0-.554-.195-.977-.586-1.27-.391-.299-1.094-.612-2.109-.938-1.016-.332-1.82-.657-2.412-.976-1.615-.872-2.422-2.048-2.422-3.525 0-.769.214-1.452.644-2.051.436-.606 1.058-1.078 1.865-1.416.814-.339 1.726-.508 2.735-.508 1.015 0 1.92.185 2.715.557.794.364 1.409.882 1.845 1.552.443.671.664 1.433.664 2.285h-2.929c0-.651-.205-1.155-.616-1.513-.41-.365-.986-.547-1.728-.547-.716 0-1.273.153-1.67.459a1.42 1.42 0 00-.596 1.191c0 .463.231.85.694 1.162.468.313 1.155.606 2.06.879 1.667.502 2.881 1.123 3.643 1.866.762.742 1.142 1.666 1.142 2.773 0 1.23-.465 2.197-1.396 2.9-.931.697-2.184 1.045-3.76 1.045-1.094 0-2.09-.198-2.988-.595-.899-.404-1.585-.954-2.061-1.651-.468-.696-.703-1.504-.703-2.422h2.94c0 1.569.937 2.354 2.812 2.354.697 0 1.24-.14 1.631-.42.391-.287.586-.684.586-1.191zm15.635-8.116h-4.356V166h-2.929v-11.846h-4.297v-2.373h11.582v2.373zm10.234 5.684h-5.625v3.808h6.602V166h-9.532v-14.219h9.512v2.373h-6.582v3.389h5.625v2.295zm7.959.957h-2.334V166h-2.93v-14.219h5.284c1.679 0 2.975.375 3.886 1.123.912.749 1.367 1.807 1.367 3.174 0 .97-.211 1.781-.634 2.432-.417.644-1.052 1.159-1.905 1.543l3.077 5.81V166h-3.145l-2.666-5.205zm-2.334-2.373h2.363c.736 0 1.306-.186 1.709-.557.404-.377.606-.895.606-1.553 0-.67-.192-1.197-.576-1.582-.378-.384-.961-.576-1.748-.576h-2.354v4.268z" fill="#fff"/><path d="M102.507 50.03h-9.16v24.556h-7.356V50.03H77v-5.616h25.507v5.616zm14.461 13.904h-3.982v10.652h-7.357V44.414h12.01c3.618 0 6.448.795 8.488 2.383 2.04 1.59 3.06 3.834 3.06 6.735 0 2.1-.433 3.84-1.3 5.222-.852 1.382-2.193 2.5-4.024 3.357l6.372 12.164v.31h-7.881l-5.386-10.65zm-3.982-5.615h4.653c1.397 0 2.445-.36 3.143-1.078.713-.732 1.069-1.747 1.069-3.046 0-1.298-.356-2.314-1.069-3.046-.712-.746-1.76-1.119-3.143-1.119h-4.653v8.289zm44.579-13.905v19.748c0 2.238-.482 4.18-1.446 5.823-.965 1.63-2.348 2.874-4.15 3.73-1.803.857-3.934 1.285-6.393 1.285-3.716 0-6.643-.953-8.781-2.86-2.138-1.906-3.228-4.517-3.27-7.832V44.414h7.399v20.038c.083 3.302 1.634 4.953 4.652 4.953 1.523 0 2.676-.414 3.459-1.243.782-.83 1.173-2.176 1.173-4.041V44.414h7.357zm20.35 22.152c0-1.064-.384-1.892-1.152-2.487-.755-.593-2.089-1.208-4.003-1.844-1.915-.635-3.48-1.25-4.695-1.844-3.954-1.92-5.931-4.559-5.931-7.916 0-1.671.489-3.143 1.467-4.413.992-1.285 2.389-2.28 4.191-2.984 1.803-.719 3.829-1.078 6.078-1.078 2.194 0 4.157.387 5.89 1.16 1.746.774 3.102 1.88 4.066 3.316.964 1.423 1.446 3.053 1.446 4.89h-7.336c0-1.23-.384-2.182-1.152-2.86-.755-.676-1.782-1.015-3.081-1.015-1.314 0-2.355.29-3.123.87-.755.567-1.132 1.292-1.132 2.176 0 .774.419 1.479 1.258 2.114.838.622 2.312 1.271 4.422 1.948 2.11.663 3.842 1.381 5.198 2.155 3.297 1.879 4.946 4.469 4.946 7.77 0 2.64-1.006 4.712-3.018 6.217-2.012 1.506-4.772 2.259-8.279 2.259-2.473 0-4.715-.435-6.728-1.305-1.998-.885-3.507-2.086-4.527-3.606-1.006-1.534-1.509-3.295-1.509-5.284h7.378c0 1.616.419 2.811 1.257 3.585.853.76 2.229 1.14 4.129 1.14 1.216 0 2.173-.256 2.872-.767.712-.525 1.068-1.257 1.068-2.197zM213 50.03h-9.159v24.556h-7.356V50.03h-8.992v-5.616H213v5.616zM112.083 92.95c-1.934-.569-3.343-1.267-4.228-2.093-.876-.834-1.315-1.861-1.315-3.08 0-1.38.536-2.519 1.609-3.417 1.08-.907 2.482-1.36 4.204-1.36 1.175 0 2.22.233 3.136.698.924.465 1.636 1.107 2.137 1.925.509.818.763 1.713.763 2.683h-2.266c0-1.059-.329-1.889-.987-2.49-.657-.61-1.585-.915-2.783-.915-1.112 0-1.981.253-2.607.758-.618.497-.928 1.191-.928 2.082 0 .713.294 1.32.881 1.817.595.489 1.601.938 3.018 1.347 1.425.41 2.537.862 3.335 1.36.807.489 1.402 1.063 1.785 1.72.392.658.588 1.432.588 2.323 0 1.42-.541 2.558-1.621 3.417-1.08.85-2.525 1.275-4.333 1.275a7.937 7.937 0 01-3.289-.686c-1.017-.465-1.804-1.099-2.36-1.9-.548-.803-.822-1.713-.822-2.732h2.266c0 1.059.38 1.897 1.14 2.514.767.61 1.789.915 3.065.915 1.19 0 2.102-.249 2.736-.746.634-.497.951-1.175.951-2.033 0-.859-.294-1.52-.881-1.986-.587-.473-1.652-.938-3.194-1.395zm22.383 7.809H132.2v-8.097h-8.62v8.097h-2.255V83.241h2.255v7.532h8.62V83.24h2.266v17.518zm6.424 0h-2.255V83.241h2.255v17.518zm13.798-8.097h-7.41v6.208h8.608v1.889h-10.863V83.241h10.746v1.9h-8.491v5.632h7.41v1.889zm6.271 6.208h8.103v1.889h-10.369V83.241h2.266v15.63zm10.675 1.889V83.241h4.827c1.487 0 2.802.337 3.945 1.01 1.144.674 2.024 1.633 2.643 2.876.626 1.243.943 2.671.951 4.283v1.12c0 1.652-.313 3.1-.939 4.343-.619 1.243-1.508 2.198-2.666 2.864-1.151.665-2.494 1.006-4.028 1.022h-4.733zm2.255-15.617V98.87h2.372c1.738 0 3.089-.553 4.052-1.66.97-1.107 1.456-2.683 1.456-4.729V91.46c0-1.99-.458-3.534-1.374-4.633-.908-1.107-2.2-1.668-3.876-1.684h-2.63z" fill="#EBE5B3"/><path d="M114.033 123.493V127h-2.051v-9.953h3.883c.748 0 1.404.137 1.969.41.57.273 1.007.663 1.312 1.169.306.501.458 1.073.458 1.716 0 .975-.334 1.745-1.004 2.31-.666.561-1.589.841-2.769.841h-1.798zm0-1.661h1.832c.543 0 .955-.128 1.238-.383.287-.255.43-.62.43-1.094 0-.487-.143-.881-.43-1.182-.288-.301-.684-.456-1.19-.465h-1.88v3.124zm10.671 1.524h-1.634V127h-2.05v-9.953h3.698c1.176 0 2.082.262 2.72.786.638.524.958 1.265.958 2.222 0 .679-.149 1.246-.445 1.702-.291.451-.736.811-1.333 1.08l2.153 4.067V127h-2.201l-1.866-3.644zm-1.634-1.661h1.655c.515 0 .913-.13 1.196-.389.282-.265.424-.627.424-1.087 0-.47-.135-.839-.404-1.108-.264-.269-.672-.403-1.223-.403h-1.648v2.987zm15.067.554c0 .98-.173 1.839-.52 2.577-.346.738-.843 1.308-1.49 1.709-.643.401-1.381.602-2.215.602-.825 0-1.561-.199-2.208-.595-.647-.396-1.148-.962-1.504-1.695-.355-.739-.535-1.586-.54-2.543v-.492c0-.98.176-1.842.527-2.584.355-.748.854-1.32 1.497-1.716.647-.401 1.385-.602 2.214-.602.83 0 1.566.201 2.208.602.648.396 1.147.968 1.498 1.716.355.742.533 1.601.533 2.577v.444zm-2.078-.451c0-1.044-.187-1.837-.561-2.379-.374-.542-.907-.814-1.6-.814-.688 0-1.219.269-1.592.807-.374.533-.563 1.317-.568 2.352v.485c0 1.016.187 1.805.561 2.365.374.561.911.841 1.613.841.688 0 1.217-.269 1.586-.807.369-.542.556-1.33.561-2.365v-.485zm11.443 3.944c-.369.442-.891.786-1.565 1.032-.675.242-1.422.363-2.243.363-.861 0-1.618-.187-2.269-.561-.647-.378-1.149-.925-1.504-1.64-.351-.716-.531-1.557-.54-2.523v-.677c0-.993.166-1.852.499-2.577.337-.729.82-1.285 1.449-1.668.634-.387 1.374-.581 2.222-.581 1.18 0 2.103.283 2.768.848.666.56 1.06 1.378 1.183 2.454h-1.996c-.091-.57-.294-.987-.609-1.251-.309-.264-.738-.397-1.285-.397-.697 0-1.228.262-1.592.787-.365.524-.55 1.303-.554 2.337v.636c0 1.044.198 1.832.595 2.365.396.534.977.8 1.743.8.77 0 1.319-.164 1.647-.492v-1.716h-1.866v-1.51h3.917v3.971zm5.352-2.386h-1.633V127h-2.051v-9.953h3.698c1.176 0 2.083.262 2.721.786.638.524.957 1.265.957 2.222 0 .679-.148 1.246-.444 1.702-.292.451-.736.811-1.333 1.08l2.153 4.067V127h-2.201l-1.867-3.644zm-1.633-1.661h1.654c.515 0 .914-.13 1.196-.389.283-.265.424-.627.424-1.087 0-.47-.134-.839-.403-1.108-.265-.269-.672-.403-1.224-.403h-1.647v2.987zm12.509 3.254h-3.595l-.684 2.051h-2.18l3.705-9.953h1.9l3.726 9.953h-2.181l-.691-2.051zm-3.042-1.661h2.489l-1.251-3.726-1.238 3.726zm9.523-6.241l2.557 7.219 2.543-7.219h2.693V127h-2.058v-2.721l.205-4.696-2.686 7.417h-1.408l-2.68-7.41.205 4.689V127h-2.051v-9.953h2.68zM74 108h142v1H74z" opacity=".4" fill="#fff"/><path d="M116.495 201.75l4.05 3.646 4.719-2.724-2.217 4.978 4.05 3.646-5.419-.57-2.217 4.978-1.133-5.33-5.419-.569 4.719-2.725-1.133-5.33zm57.01 0l-4.05 3.646-4.719-2.724 2.217 4.978-4.05 3.646 5.419-.57 2.217 4.978 1.133-5.33 5.419-.569-4.719-2.725 1.133-5.33zm-23.031 8.75l-5.939 5.348-6.922-3.996 3.251 7.301-5.939 5.347 7.948-.835 3.251 7.301 1.661-7.817 7.948-.836-6.921-3.996 1.662-7.817z" fill="#EBE5B3"/></g><defs><clipPath id="clip0"><path fill="#fff" d="M0 0h290v282H0z"/></clipPath><filter id="filter0_d" x="44" y="0" width="202" height="285" filterUnits="userSpaceOnUse" color-interpolation-filters="sRGB"><feFlood flood-opacity="0" result="BackgroundImageFix"/><feColorMatrix in="SourceAlpha" values="0 0 0 0 0 0 0 0 0 0 0 0 0 0 0 0 0 0 127 0" result="hardAlpha"/><feOffset dy="4"/><feGaussianBlur stdDeviation="2"/><feComposite in2="hardAlpha" operator="out"/><feColorMatrix values="0 0 0 0 0 0 0 0 0 0 0 0 0 0 0 0 0 0 0.25 0"/><feBlend in2="BackgroundImageFix" result="effect1_dropShadow"/><feBlend in="SourceGraphic" in2="effect1_dropShadow" result="shape"/></filter></defs></svg>