<svg width="54" height="66" fill="none" xmlns="http://www.w3.org/2000/svg"><g filter="url(#filter0_d)"><path d="M2 3a2 2 0 012-2h34.676a2 2 0 011.409.58l11.323 11.233a2 2 0 01.592 1.42V61a2 2 0 01-2 2H4a2 2 0 01-2-2V3z" fill="#fff"/></g><mask id="a" maskUnits="userSpaceOnUse" x="2" y="1" width="50" height="62"><path d="M2 3a2 2 0 012-2h34.676a2 2 0 011.409.58l11.323 11.233a2 2 0 01.592 1.42V61a2 2 0 01-2 2H4a2 2 0 01-2-2V3z" fill="#fff"/></mask><g mask="url(#a)"><path d="M39 0l15 15H40a1 1 0 01-1-1V0z" fill="#F2F2F2"/></g><path d="M17.33 35.623V39h-2.21v-9.803h3.46c2.47 0 3.704 1.042 3.704 3.124 0 .985-.355 1.782-1.066 2.393-.707.606-1.652.909-2.837.909h-1.053zm0-4.73v3.055h.867c1.176 0 1.764-.515 1.764-1.545 0-1.007-.588-1.51-1.764-1.51h-.868zM23.72 39v-9.803h3.473c3.482 0 5.223 1.593 5.223 4.779 0 1.526-.476 2.745-1.429 3.657-.948.911-2.212 1.367-3.794 1.367h-3.472zm2.209-8.005v6.214h1.094c.957 0 1.706-.287 2.248-.861.547-.575.82-1.356.82-2.345 0-.934-.27-1.668-.813-2.201-.537-.538-1.294-.807-2.27-.807h-1.08zm13.781 0h-3.459v2.406h3.179v1.791h-3.18V39h-2.208v-9.803h5.667v1.798z" fill="#900"/><defs><filter id="filter0_d" x="0" y="0" width="54" height="66" filterUnits="userSpaceOnUse" color-interpolation-filters="sRGB"><feFlood flood-opacity="0" result="BackgroundImageFix"/><feColorMatrix in="SourceAlpha" values="0 0 0 0 0 0 0 0 0 0 0 0 0 0 0 0 0 0 127 0"/><feOffset dy="1"/><feGaussianBlur stdDeviation="1"/><feColorMatrix values="0 0 0 0 0 0 0 0 0 0 0 0 0 0 0 0 0 0 0.15 0"/><feBlend in2="BackgroundImageFix" result="effect1_dropShadow"/><feBlend in="SourceGraphic" in2="effect1_dropShadow" result="shape"/></filter></defs></svg>