<svg width="15" height="18" fill="none" xmlns="http://www.w3.org/2000/svg"><path fill-rule="evenodd" clip-rule="evenodd" d="M6.632 17.554c.273.153.539.302.792.446l.076-.043.076.043c.253-.144.519-.293.792-.446 1.743-.976 3.8-2.128 5.055-3.483 1.163-1.258 1.41-2.702 1.577-4.339V1.778a10.26 10.26 0 01-2 .166C11.04 1.911 9.108 1.28 7.5 0 5.892 1.28 3.96 1.911 2 1.944a10.273 10.273 0 01-2-.166v7.954c.168 1.637.414 3.081 1.577 4.34 1.255 1.354 3.312 2.506 5.055 3.482zM2 3.926c1.9-.027 3.747-.517 5.424-1.515l.076.066c1.677.997 3.6 1.422 5.5 1.449V9.63c-.162 1.535-.378 2.373-1.052 3.101-.544.588-1.36 1.193-2.358 1.815-.454.284-.946.55-1.425.81-.226.123-.45.244-.665.364-.215-.12-.439-.241-.665-.364a26.57 26.57 0 01-1.425-.81c-.998-.623-1.814-1.227-2.358-1.815-.674-.728-.89-1.566-1.052-3.101V3.926z" fill="#fff"/><path d="M10.261 5.126l-4.14 4.579L4.993 8.33a.558.558 0 00-.77-.048.633.633 0 00-.214.378c-.026.15 0 .303.072.434l1.333 2.442a.728.728 0 00.256.258.67.67 0 00.681 0 .728.728 0 00.256-.258c.21-.305 4.211-5.724 4.211-5.724.495-.611-.137-1.145-.558-.687z" fill="#fff"/></svg>