<svg width="17" height="15" xmlns="http://www.w3.org/2000/svg"><path d="M15.406 5.357a1.532 1.532 0 01.614.126 1.6 1.6 0 01.506.343 1.735 1.735 0 01.349.51 1.416 1.416 0 01.125.628 1.567 1.567 0 01-.083.51L14.791 13.9a1.613 1.613 0 01-.232.444 1.742 1.742 0 01-.349.352 1.313 1.313 0 01-.432.217 2.323 2.323 0 01-.494.084H9.033a7.336 7.336 0 01-2.866-.577 7 7 0 00-1.2-.367 6.078 6.078 0 00-1.253-.126H0v-7.5h3.46a2.564 2.564 0 001.012-.2 2.759 2.759 0 00.866-.587L10.5.444a1.93 1.93 0 01.415-.326A1.015 1.015 0 0111.421 0a1.323 1.323 0 01.515.1 1.232 1.232 0 01.419.294 1.429 1.429 0 01.283.427 1.422 1.422 0 01.108.519 5.411 5.411 0 01-.146 1.289 6.368 6.368 0 01-.439 1.222 6.172 6.172 0 00-.283.729 3.878 3.878 0 00-.158.779z" fill="#fff"/></svg>