<svg width="33" height="21" fill="none" xmlns="http://www.w3.org/2000/svg"><path d="M5.067 1.962a.5.5 0 01.5-.5v-1a1.5 1.5 0 00-1.5 1.5h1zm.5-.5h25.886v-1H5.567v1zm25.886 0a.5.5 0 01.5.5h1a1.5 1.5 0 00-1.5-1.5v1zm.5.5v13.67h1V1.963h-1zm0 13.67a.5.5 0 01-.5.5v1a1.5 1.5 0 001.5-1.5h-1zM2.47 19.73a.5.5 0 01-.5-.5h-1a1.5 1.5 0 001.5 1.5v-1zm26.386-.5a.5.5 0 01-.5.5v1a1.5 1.5 0 001.5-1.5h-1zm-.5-14.17a.5.5 0 01.5.5h1a1.5 1.5 0 00-1.5-1.5v1zm-25.886-1a1.5 1.5 0 00-1.5 1.5h1a.5.5 0 01.5-.5v-1zm15.542 8.334c0 1.46-1.169 2.634-2.599 2.634v1c1.993 0 3.599-1.633 3.599-3.634h-1zm-2.599 2.634c-1.43 0-2.598-1.174-2.598-2.634h-1c0 2.001 1.605 3.634 3.598 3.634v-1zm-2.598-2.634c0-1.46 1.169-2.634 2.598-2.634v-1c-1.993 0-3.598 1.632-3.598 3.634h1zm2.598-2.634c1.43 0 2.599 1.174 2.599 2.634h1c0-2.002-1.606-3.634-3.599-3.634v1zm7.813-4.522c0 3.009 2.055 5.491 5.285 5.491v-1c-2.603 0-4.285-1.958-4.285-4.49h-1zM6.598 5.32c0 1.278-.414 2.379-1.131 3.154-.713.772-1.756 1.255-3.085 1.255v1c1.588 0 2.903-.585 3.82-1.576.91-.985 1.396-2.34 1.396-3.833h-1zm.998 13.958c0-1.507-.536-2.82-1.497-3.757-.96-.937-2.31-1.465-3.882-1.465v1c1.345 0 2.434.448 3.184 1.18s1.195 1.779 1.195 3.042h1zm16.629.138c0-1.284.396-2.371 1.09-3.132.69-.755 1.708-1.227 3.04-1.227v-1c-1.585 0-2.881.57-3.778 1.553-.892.977-1.352 2.319-1.352 3.806h1zM5.067 4.559V1.962h-1v2.597h1zm26.386 11.574h-2.098v1h2.098v-1zm-2.598-1.576v4.673h1v-4.674h-1zm.5-.5h-1v1h1v-1zm-1 5.673h-4.63v1h4.63v-1zm-4.13.5v-.814h-1v.814h1zm4.63-14.67v4.67h1V5.56h-1zm0 4.67v4.326h1V10.23h-1zm-.345.5h.845v-1h-.845v1zm-4.785-5.67h4.63v-1h-4.63v1zm.5.178V4.56h-1v.68h1zM2.469 5.06h4.63v-1h-4.63v1zm4.63 0h16.626v-1H7.098v1zm.5.261v-.76h-1v.76h1zm-5.63 4.91V5.56h-1v4.67h1zm.413-.5H1.47v1h.913v-1zm-.413 9.5v-4.674h-1v4.674h1zm0-4.674V10.23h-1v4.328h1zm.248-.5H1.47v1h.748v-1zm21.508 5.674H7.095v1h16.63v-1zm-16.63 0H2.47v1h4.627v-1zm-.5-.452v.952h1v-.952h-1z" fill="#fff"/></svg>