<svg width="88" height="68" fill="none" xmlns="http://www.w3.org/2000/svg"><path fill-rule="evenodd" clip-rule="evenodd" d="M61 4.018H4v34.153h4v8.727l5.54-4.71h-.005l4.602-4.017H61V4.018zm-42 38.17h42c2.21 0 4-1.798 4-4.017V4.018C65 1.798 63.21 0 61 0H4C1.79 0 0 1.799 0 4.018v34.153c0 2.219 1.79 4.018 4 4.018v4.709c0 3.42 3.984 5.277 6.584 3.067L19 42.19zm-5.442 0h-.01v.001l.013.001h.002-.003l-.002-.001z" fill="#56CCF2"/><path fill-rule="evenodd" clip-rule="evenodd" d="M27 21.094h57v34.153h-4v8.728l-5.54-4.71h.005l-4.602-4.018H27V21.094zm42 38.171H27c-2.21 0-4-1.799-4-4.018V21.094c0-2.219 1.79-4.018 4-4.018h57c2.21 0 4 1.8 4 4.018v34.153c0 2.22-1.79 4.018-4 4.018v4.71c0 3.42-3.984 5.276-6.584 3.066L69 59.266zm5.442 0h.01a.158.158 0 00-.013.002h-.002l.003-.001h.002z" fill="#2158F5"/></svg>