<svg width="18" height="18" fill="none" xmlns="http://www.w3.org/2000/svg"><path d="M8.96 15.69c3.502 0 6.367-2.938 6.367-6.529 0-3.59-2.865-6.529-6.367-6.529-3.503 0-6.368 2.938-6.368 6.529 0 3.59 2.865 6.529 6.368 6.529zM8.96 1c4.378 0 7.96 3.672 7.96 8.161 0 4.489-3.582 8.161-7.96 8.161S1 13.65 1 9.161C1 4.672 4.582 1 8.96 1zm3.98 9.712-.558 1.06-4.218-2.366V5.08h1.194v3.591l3.582 2.04z" fill="#2158F5"/><rect width="18" height="18" rx="4" fill="#2158F5"/><path d="M9.04 13.225c2.178 0 3.96-1.827 3.96-4.06 0-2.232-1.782-4.06-3.96-4.06-2.177 0-3.96 1.828-3.96 4.06 0 2.233 1.783 4.06 3.96 4.06zm0-9.134c2.723 0 4.95 2.283 4.95 5.074s-2.228 5.075-4.95 5.075-4.95-2.284-4.95-5.075c0-2.79 2.228-5.074 4.95-5.074zm2.475 6.039-.347.66-2.623-1.472v-2.69h.743v2.233l2.227 1.269z" fill="#fff"/></svg>