<svg width="18" height="18" fill="none" xmlns="http://www.w3.org/2000/svg"><rect width="18" height="18" rx="4" fill="#2158F5"/><path fill-rule="evenodd" clip-rule="evenodd" d="M4.556 4H6.5c.306 0 .556.25.556.556 0 .694.11 1.36.316 1.983a.558.558 0 0 1-.139.567L6.011 8.328a8.416 8.416 0 0 0 3.661 3.66l1.222-1.221a.57.57 0 0 1 .567-.134 6.336 6.336 0 0 0 1.983.317c.306 0 .556.25.556.556v1.938c0 .306-.25.556-.556.556A9.444 9.444 0 0 1 4 4.556C4 4.25 4.25 4 4.556 4Zm1.41 1.111c.034.495.117.978.25 1.439l-.666.667a8.236 8.236 0 0 1-.422-2.106h.839Zm5.479 6.678a7.09 7.09 0 0 0 1.444.25v.828a8.571 8.571 0 0 1-2.111-.417l.667-.66Z" fill="#fff"/></svg>