<svg width="145" height="84" fill="none" xmlns="http://www.w3.org/2000/svg"><path d="M78.923 43.554v5.813h-3.954v-5.653c-3.665-.017-7.078-.84-10.238-2.464v-7.421c1.047.84 2.61 1.616 4.686 2.33 2.076.715 3.927 1.126 5.552 1.233V27.64c-4.225-1.554-7.114-3.233-8.667-5.037C64.767 20.782 64 18.567 64 15.96c0-2.804 1.002-5.188 3.006-7.153 2.004-1.982 4.659-3.134 7.963-3.456V.367h3.954v4.876c3.81.179 6.653.786 8.531 1.822v7.233c-2.528-1.518-5.371-2.447-8.531-2.786v10.154c3.954 1.41 6.789 3.027 8.504 4.849C89.142 28.319 90 30.507 90 33.078c0 2.965-.957 5.359-2.87 7.18-1.915 1.804-4.65 2.903-8.207 3.296zm-3.954-23.442v-8.493c-2.51.447-3.765 1.742-3.765 3.885 0 1.84 1.255 3.376 3.765 4.608zm3.954 9.055v8.118c2.582-.393 3.873-1.67 3.873-3.831 0-1.75-1.291-3.18-3.873-4.287z" fill="#AED9A9"/><circle cx="120" cy="40.367" r="7" fill="#AED9A9"/><path d="M73.125 49.034c0 .339.465.7.82.913a.69.69 0 00.442.099c.536-.07.842-.373.98-.608a.606.606 0 00.067-.31v-.633a1 1 0 011-1h5.415c.293 0 .691-.175.989-.337a.726.726 0 00.37-.51c.085-.47.18-1.364.18-2.745 0-1.715-.737-2.089-1.185-2.065-.065.003-.13.012-.196.012h-4.264c-2.381 0-3.836 2.24-4.316 3.47a.896.896 0 00-.056.252c-.088 1.068-.246 3.068-.246 3.462z" stroke="#000"/><path d="M130.086 67.508c0 6.093 1.9 5.644-4.619 5.644-6.518 0-18.987.449-18.987-5.644 0-6.094 5.285-11.033 11.803-11.033 6.519 0 11.803 4.94 11.803 11.033zm-51.06-3.08c0 5.102-5.284 9.237-11.803 9.237-6.518 0-20.27-2.34-20.27-7.44 0-5.102 5.284-9.238 11.803-9.238 6.518 0 20.27 2.34 20.27 7.441z" fill="#17104E"/><ellipse cx="112.637" cy="70.843" rx="9.75" ry="11.29" fill="#17104E"/><path d="M118.536 82.133h-6.158l-1.026-22.58h7.184v22.58z" fill="#17104E"/><ellipse cx="118.281" cy="70.843" rx="9.75" ry="11.29" fill="#300084"/><ellipse opacity=".4" cx="118.283" cy="70.844" rx="6.158" ry="7.184" fill="#938FF4"/><ellipse cx="52.598" cy="70.842" rx="9.75" ry="11.29" fill="#17104E"/><path d="M58.497 82.132h-6.158l-1.026-22.58h7.184v22.58z" fill="#17104E"/><ellipse cx="58.242" cy="70.842" rx="9.75" ry="11.29" fill="#300084"/><ellipse opacity=".4" cx="58.244" cy="70.843" rx="6.158" ry="7.184" fill="#938FF4"/><ellipse cx="78.77" cy="70.843" rx="9.75" ry="11.29" fill="#300084"/><path d="M84.669 82.133H78.51l-1.027-22.58h7.185v22.58z" fill="#300084"/><ellipse cx="84.414" cy="70.843" rx="9.75" ry="11.29" fill="#17104E"/><ellipse cx="14.625" cy="70.842" rx="9.75" ry="11.29" fill="#300084"/><path d="M20.524 82.132h-6.158l-1.026-22.58h7.184v22.58z" fill="#300084"/><ellipse cx="20.27" cy="70.842" rx="9.75" ry="11.29" fill="#17104E"/><path opacity=".99" fill-rule="evenodd" clip-rule="evenodd" d="M47.467 71.18c-.19 3.146-3.494 3.511-6.157 3.511l-35.665-.256C3.763 74.605 0 74.229 0 71.355c0-2.873.171-8.38.257-10.776.598-2.48 2.822-7.404 7.44-8.723 5.389-1.54 18.73-4.875 19.5-4.875.616 0 1.455-.343 1.797-.514 6.329-3.848 20.218-11.597 25.145-11.802 4.926-.206 8.04-.257 8.98-.257h27.71c7.356-.085 25.043 2.72 36.948 14.625 1.198.086 3.746.821 4.362 3.08.616 2.257.257 12.914 0 17.96-.171 1.112-.821 3.336-2.052 3.336-.508 0-.83-.204-1.027-.486v-5.159c0-5.668-4.595-10.263-10.263-10.263h-1.026c-5.669 0-10.264 4.595-10.264 10.263v3.85c-.171 1.111-1.027 3.077-3.592 3.077l-3.117-.007c-6.536-.02-21.095-.062-28.955.007-.826 0-2.235-.31-2.823-1.394v-5.533c0-5.668-4.595-10.263-10.263-10.263H57.73c-5.669 0-10.264 4.595-10.264 10.263v2.087a6.088 6.088 0 000 .732v.597z" fill="#fff"/><ellipse cx="100.321" cy="43.902" rx="1.539" ry="1.283" fill="#D9D9D9"/><path d="M52.857 51.342l.1.283-.1-.283zM5.694 54.931l.002.3-.002-.3zm.9-2.04a.3.3 0 10-.262-.54l.263.54zm59.85-5.018a6.24 6.24 0 01-1.104 1.525c-.516.513-1.106.875-1.707.875v.6c.837 0 1.572-.494 2.13-1.05a6.838 6.838 0 001.218-1.682l-.537-.268zm-2.81 2.4c-.443 0-1.105-.032-1.927-.06a55.3 55.3 0 00-2.793-.037c-2.029.033-4.314.225-6.158.884l.202.565c1.748-.624 3.953-.817 5.965-.849a54.749 54.749 0 012.764.036c.806.028 1.49.06 1.946.06v-.6zm-10.878.787c-1.675.598-3.38 1.447-4.986 2.12-1.63.683-3.187 1.198-4.663 1.198v.6c1.603 0 3.253-.557 4.895-1.244 1.664-.697 3.295-1.516 4.956-2.11l-.202-.564zm-9.65 3.318c-2.464 0-25.528.167-37.415.252l.005.6c11.89-.085 34.95-.252 37.41-.252v-.6zm-37.415.252a3.301 3.301 0 01-.702-.055c-.17-.037-.248-.083-.28-.111-.02-.018-.019-.024-.018-.037a.43.43 0 01.081-.19c.128-.196.38-.437.718-.684a7.438 7.438 0 011.105-.662l-.263-.54a8.124 8.124 0 00-1.197.718c-.357.262-.678.553-.865.84a.998.998 0 00-.179.488.632.632 0 00.216.512c.141.127.334.205.554.252.224.049.501.072.835.07l-.005-.6z" fill="url(#paint0_linear_2116_26786)"/><path d="M96.352 47.17l-3.984-10.78a.494.494 0 01.487-.667c14.562.762 26.987 8.97 28.248 10.23 1.026 1.027.342 1.711-.257 1.797l-24.03-.253a.5.5 0 01-.464-.327z" fill="url(#paint1_linear_2116_26786)"/><path d="M96.352 47.17l-3.984-10.78a.494.494 0 01.487-.667c14.562.762 26.987 8.97 28.248 10.23 1.026 1.027.342 1.711-.257 1.797l-24.03-.253a.5.5 0 01-.464-.327z" fill="url(#paint2_linear_2116_26786)"/><path d="M94.423 47.493L90.061 35.69h-4.828a12 12 0 00-9.55 4.734l-2.935 3.858c-1.002 1.317-.063 3.211 1.591 3.211h20.084z" fill="url(#paint3_linear_2116_26786)"/><path d="M94.423 47.493L90.061 35.69h-4.828a12 12 0 00-9.55 4.734l-2.935 3.858c-1.002 1.317-.063 3.211 1.591 3.211h20.084z" fill="url(#paint4_linear_2116_26786)"/><path d="M72.59 35.44c-6.617.014-19.198.065-22.556.251-3.596.946-14.447 6.916-19.897 9.985-.889.5-.531 1.835.488 1.841l34.392.221a4 4 0 003.162-1.517l5.973-7.545c1.038-1.311.11-3.24-1.561-3.236z" fill="url(#paint5_linear_2116_26786)"/><path fill="#A6BCFB" d="M8.465 64.172h7.697v4.105H8.465z"/><path opacity=".4" d="M33.755 61.493l-5.807-.114a.648.648 0 01-.445-1.106 12.967 12.967 0 019.17-3.798h6.612c.661 0 .976.814.487 1.258a14.47 14.47 0 01-10.017 3.76z" fill="#2158F5"/><path d="M131.626 52.37H65.941" stroke="url(#paint6_linear_2116_26786)" stroke-width=".6"/><path d="M72.098 70.073c.171-5.217-2.36-15.549-13.855-15.138-11.495.41-14.198 10.947-14.112 16.164" stroke="url(#paint7_linear_2116_26786)" stroke-width=".6"/><path d="M131.107 70.315c.163-5.296-2.252-15.784-13.216-15.367-10.963.416-13.541 11.113-13.459 16.409" stroke="url(#paint8_linear_2116_26786)"/><path d="M103.916 71.612L72.613 72.64" stroke="url(#paint9_linear_2116_26786)" stroke-width=".6"/><path d="M96.73 53.395l.77 6.928.257 11.29" stroke="#90ABFA"/><path d="M94.167 53.91h-5.132m14.878 0h-5.132" stroke="#2158F5"/><path d="M26.684 56.217c-1.112 2.395-2.823 7.184-5.132 7.184H7.697c-2.566-.256-3.336-1.026-3.85-2.052-.366-.735-.512-4.277-.769-5.902" stroke="url(#paint10_linear_2116_26786)" stroke-width=".6" stroke-linecap="round"/><path d="M40.537 71.356c-.77-.77-1.283-2.31-3.849-2.31H.254" stroke="url(#paint11_linear_2116_26786)" stroke-width=".6"/><path d="M1.95 61.289c.693-.31.601-1.927.238-3.235-.162-.582-.73-.649-.993-.105-.368.762-.775 1.869-.901 2.946-.046.392.208.74.6.698.279-.03.635-.116 1.056-.304z" fill="#A6BCFB"/><rect opacity=".4" x="10.52" y="81.106" width="134.448" height="2.053" rx="1.026" fill="url(#paint12_radial_2116_26786)"/><path d="M97.79 79.768l-.362-.12a1.474 1.474 0 01-.638-.422L75.295 54.917a1.287 1.287 0 01-.005-1.699c.068-.078.127-.165.175-.257.441-.856 1.593-1.054 2.28-.379l9.078 8.925c.403.396.775.824 1.111 1.279l11.198 15.133a1.199 1.199 0 01-1.342 1.85z" fill="url(#paint13_radial_2116_26786)"/><path d="M93.025 62.133l-3.114 5.73-11.417-13.196 3.114-5.732 11.417 13.198z" fill="#12A953"/><path d="M113.863 53.417c1.215.005 2.919.842 3.81 1.876.892 1.034.636 1.862-.58 1.856-1.215-.005-2.919-.842-3.81-1.876-.896-1.026-.636-1.862.58-1.856z" fill="#046B30"/><path d="M118.27 49.907l10.014 11.583-11.192-.05-1.451-1.676 2.978.015c.08-.792.802-1.289 2.093-1.281l3.899.017-4.918-5.687-3.899-.017c-1.257-.009-2.804-.495-4.216-1.252l-3.025-.01-1.451-1.677 11.168.035z" fill="#046B30"/><path d="M119.69 52.815l4.918 5.687-3.899-.017c-1.291-.008-2.018.497-2.094 1.28l-2.977-.014-7.096-8.22 3.025.01c1.412.758 2.959 1.243 4.208 1.247l3.915.027zm-2.602 4.342c1.216.006 1.477-.83.585-1.864-.891-1.034-2.595-1.87-3.81-1.876-1.216-.006-1.476.83-.585 1.864.896 1.026 2.6 1.863 3.81 1.876z" fill="#12A953"/><path d="M106.402 49.044l.697.815 1.451 1.677 7.096 8.22 1.451 1.677.697.815-.362-.001-1.135-.012-11.396-13.195 1.14.003.315.006.046-.005z" fill="#FFF4DB"/><path d="M91.303 52.568c1.181.006 1.885-.424 2.055-1.094l5.947.025.206.237c-.395.875.072 2.278 1.447 3.865 1.368 1.58 3.328 2.984 5.234 3.867l.214.242-5.872-.023c-1.383-.716-2.868-1.175-4.092-1.186l-4.71-.017-5.135-5.942 4.706.026zm6.514 2.64c-.891-1.033-2.595-1.87-3.81-1.876-1.216-.005-1.477.83-.586 1.864.891 1.035 2.595 1.871 3.81 1.877 1.208 0 1.477-.83.586-1.864z" fill="#12A953"/><path d="M99.516 51.728l6.681 7.732c-1.914-.888-3.874-2.291-5.234-3.867-1.375-1.587-1.842-2.99-1.447-3.865z" fill="#046B30"/><path d="M98.66 49.011l11.395 13.196-1.501-.005-11.397-13.195 1.502.004z" fill="#FFF1D2"/><path d="M104.901 49.04l11.396 13.195 1.135.012-7.377-.04L98.659 49.01l-1.502-.004 7.744.033z" fill="#FFF4DB"/><path d="M93.998 53.327c1.216.006 2.928.848 3.811 1.877.891 1.034.635 1.861-.58 1.856-1.216-.006-2.928-.847-3.81-1.877-.897-1.026-.636-1.861.58-1.856z" fill="#046B30"/><path d="M93.102 61.328L83.088 49.745l14.776.06 1.451 1.678-5.947-.025c-.175.678-.874 1.1-2.056 1.093l-4.698-.02 5.135 5.941 4.706.026c1.224.01 2.714.462 4.092 1.186l5.872.023 1.451 1.677-14.768-.056z" fill="#046B30"/><path d="M118.339 49.097l11.417 13.198-11.962-.047-.697-.815 11.192.05-10.019-11.576-11.171-.048-.697-.815h-.361l-1.14-.004-7.743-.033.7.807-14.775-.061 10.02 11.575 14.749.067.702.807-15.529-.07-11.417-13.197 36.731.162z" fill="#12A953"/><path d="M129.756 62.295l-3.114 5.73-11.963-.046 3.115-5.731 11.962.047z" fill="#007E36"/><path d="M117.432 62.247l-3.114 5.73-7.382-.031 3.119-5.74 7.377.04z" fill="#F0E6CF"/><path d="M117.794 62.248l-3.115 5.73-1.496-.012 3.114-5.73 1.497.012zm-7.739-.041l-3.119 5.739-1.497-.013 3.115-5.73 1.501.004z" fill="#FFF1D2"/><path d="M108.554 62.202l-3.115 5.731-15.528-.07 3.114-5.73 15.529.07z" fill="#007E36"/><path d="M104.791 77.384l-3.114 5.731L90.26 69.918l3.114-5.731 11.417 13.197z" fill="#12A953"/><path d="M125.628 68.668c1.216.006 2.92.842 3.811 1.876.891 1.035.635 1.862-.58 1.856-1.216-.005-2.92-.842-3.811-1.876-.896-1.026-.635-1.861.58-1.856z" fill="#046B30"/><path d="M130.035 65.158l10.015 11.584-11.192-.05-1.451-1.677 2.977.015c.08-.792.802-1.288 2.094-1.28l3.898.016-4.917-5.687-3.899-.016c-1.258-.01-2.804-.495-4.217-1.252l-3.024-.01-1.452-1.678 11.168.035z" fill="#046B30"/><path d="M131.456 68.066l4.917 5.687-3.899-.016c-1.291-.008-2.018.497-2.093 1.28l-2.978-.015-7.095-8.22 3.024.011c1.413.757 2.959 1.243 4.209 1.247l3.915.026zm-2.602 4.343c1.215.005 1.476-.83.585-1.865-.891-1.034-2.595-1.87-3.811-1.876-1.215-.005-1.476.83-.585 1.864.896 1.026 2.6 1.863 3.811 1.877z" fill="#12A953"/><path d="M118.168 64.296l.696.814 1.452 1.677 7.095 8.22 1.452 1.677.696.815h-.362l-1.135-.012-11.396-13.196 1.14.004.315.005.047-.004z" fill="#FFF4DB"/><path d="M103.068 67.819c1.182.007 1.886-.424 2.056-1.094l5.947.025.206.237c-.395.875.071 2.279 1.447 3.865 1.367 1.581 3.328 2.984 5.234 3.868l.213.242-5.871-.023c-1.383-.717-2.869-1.176-4.092-1.186l-4.711-.018-5.135-5.942 4.706.026zm6.515 2.641c-.891-1.034-2.596-1.87-3.811-1.876-1.216-.006-1.476.83-.585 1.864.891 1.034 2.595 1.87 3.811 1.876 1.207 0 1.476-.83.585-1.864z" fill="#12A953"/><path d="M111.282 66.98l6.681 7.732c-1.914-.888-3.875-2.292-5.234-3.868-1.376-1.586-1.842-2.99-1.447-3.865z" fill="#046B30"/><path d="M110.425 64.263l11.396 13.195-1.502-.004-11.396-13.196 1.502.005z" fill="#FFF1D2"/><path d="M116.666 64.291l11.396 13.196 1.135.011-7.376-.04-11.396-13.195-1.502-.005 7.743.033z" fill="#FFF4DB"/><path d="M105.764 68.579c1.215.005 2.928.847 3.811 1.876.891 1.034.635 1.862-.581 1.856-1.215-.005-2.927-.847-3.81-1.876-.896-1.026-.636-1.862.58-1.856z" fill="#046B30"/><path d="M104.868 76.58L94.854 64.996l14.775.061 1.452 1.677-5.948-.025c-.174.678-.873 1.1-2.055 1.094l-4.698-.02 5.135 5.941 4.706.026c1.223.01 2.714.461 4.092 1.186l5.871.023 1.452 1.677-14.768-.056z" fill="#046B30"/><path d="M130.104 64.349l11.417 13.197-11.962-.047-.696-.815 11.192.05-10.02-11.576-11.171-.047-.696-.815-.362-.001-1.14-.004-7.743-.033.701.807-14.775-.06 10.019 11.575 14.75.067.701.807-15.528-.07-11.417-13.197 36.73.162z" fill="#12A953"/><path d="M141.521 77.546l-3.114 5.731-11.962-.047 3.114-5.73 11.962.046z" fill="#007E36"/><path d="M129.197 77.498l-3.114 5.731-7.381-.032 3.119-5.739 7.376.04z" fill="#F0E6CF"/><path d="M129.559 77.5l-3.114 5.73-1.497-.012 3.114-5.731 1.497.012zm-7.738-.042l-3.119 5.74-1.497-.013 3.114-5.731 1.502.004z" fill="#FFF1D2"/><path d="M120.319 77.454l-3.114 5.73-15.528-.069 3.114-5.73 15.528.069z" fill="#007E36"/><defs><linearGradient id="paint0_linear_2116_26786" x1="5.389" y1="54.934" x2="71.587" y2="40.566" gradientUnits="userSpaceOnUse"><stop stop-color="#2158F5"/><stop offset="1" stop-color="#2158F5" stop-opacity="0"/></linearGradient><linearGradient id="paint1_linear_2116_26786" x1="106.87" y1="35.69" x2="106.87" y2="47.75" gradientUnits="userSpaceOnUse"><stop stop-color="#2158F5"/><stop offset="1" stop-color="#255BF5" stop-opacity=".21"/></linearGradient><linearGradient id="paint2_linear_2116_26786" x1="106.87" y1="35.69" x2="106.87" y2="47.75" gradientUnits="userSpaceOnUse"><stop stop-color="#2158F5"/><stop offset="1" stop-color="#68AFFF"/></linearGradient><linearGradient id="paint3_linear_2116_26786" x1="82.364" y1="35.69" x2="82.364" y2="47.493" gradientUnits="userSpaceOnUse"><stop stop-color="#2158F5"/><stop offset="1" stop-color="#255BF5" stop-opacity=".21"/></linearGradient><linearGradient id="paint4_linear_2116_26786" x1="82.364" y1="35.69" x2="82.364" y2="47.493" gradientUnits="userSpaceOnUse"><stop stop-color="#2158F5"/><stop offset="1" stop-color="#68AFFF"/></linearGradient><linearGradient id="paint5_linear_2116_26786" x1="51.83" y1="35.435" x2="51.83" y2="47.751" gradientUnits="userSpaceOnUse"><stop stop-color="#2158F5"/><stop offset="1" stop-color="#68AFFF"/></linearGradient><linearGradient id="paint6_linear_2116_26786" x1="66.994" y1="53.37" x2="87.815" y2="20.391" gradientUnits="userSpaceOnUse"><stop stop-color="#2158F5"/><stop offset="1" stop-color="#2158F5" stop-opacity="0"/></linearGradient><linearGradient id="paint7_linear_2116_26786" x1="44.577" y1="71.108" x2="75.641" y2="69.813" gradientUnits="userSpaceOnUse"><stop stop-color="#2158F5"/><stop offset="1" stop-color="#2158F5" stop-opacity="0"/></linearGradient><linearGradient id="paint8_linear_2116_26786" x1="104.857" y1="71.366" x2="134.491" y2="70.205" gradientUnits="userSpaceOnUse"><stop stop-color="#2158F5"/><stop offset="1" stop-color="#2158F5" stop-opacity="0"/></linearGradient><linearGradient id="paint9_linear_2116_26786" x1="73.115" y1="70.587" x2="101.183" y2="56.824" gradientUnits="userSpaceOnUse"><stop stop-color="#2158F5"/><stop offset="1" stop-color="#2158F5" stop-opacity="0"/></linearGradient><linearGradient id="paint10_linear_2116_26786" x1="3.456" y1="63.406" x2="29.578" y2="61.536" gradientUnits="userSpaceOnUse"><stop stop-color="#2158F5"/><stop offset="1" stop-color="#2158F5" stop-opacity="0"/></linearGradient><linearGradient id="paint11_linear_2116_26786" x1=".899" y1="71.357" x2="38.968" y2="55.344" gradientUnits="userSpaceOnUse"><stop stop-color="#2158F5"/><stop offset="1" stop-color="#2158F5" stop-opacity="0"/></linearGradient><radialGradient id="paint12_radial_2116_26786" cx="0" cy="0" r="1" gradientUnits="userSpaceOnUse" gradientTransform="matrix(0 1.02632 -67.2242 0 77.744 82.132)"><stop stop-color="#17104E"/><stop offset="1" stop-color="#300084" stop-opacity="0"/></radialGradient><radialGradient id="paint13_radial_2116_26786" cx="0" cy="0" r="1" gradientUnits="userSpaceOnUse" gradientTransform="matrix(0 13.2686 -27.0736 0 104.316 62.204)"><stop stop-color="#17104E"/><stop offset="1" stop-color="#300084" stop-opacity="0"/></radialGradient></defs></svg>