<svg width="149" height="86" fill="none" xmlns="http://www.w3.org/2000/svg"><path d="M73.125 51.498c0 .339.465.7.82.913a.69.69 0 00.442.099c.536-.07.842-.374.98-.608a.606.606 0 00.067-.31v-.633a1 1 0 011-1h5.415c.293 0 .691-.175.989-.337a.726.726 0 00.37-.51c.085-.47.18-1.364.18-2.745 0-1.715-.737-2.089-1.185-2.065-.065.003-.13.012-.196.012h-4.264c-2.381 0-3.836 2.24-4.316 3.47a.895.895 0 00-.056.252c-.088 1.068-.246 3.068-.246 3.462z" stroke="#000"/><rect opacity=".24" x="56.191" y="24.557" width="23.092" height="49.777" rx="6" fill="#00BA82"/><rect opacity=".24" x="88.519" y="14.807" width="23.092" height="59.527" rx="6" fill="#00BA82"/><rect opacity=".24" x="23.859" y="37.898" width="23.092" height="36.434" rx="6" fill="#00BA82"/><path d="M130.086 69.972c0 6.093 1.9 5.644-4.619 5.644-6.518 0-18.987.449-18.987-5.644 0-6.094 5.285-11.033 11.803-11.033 6.519 0 11.803 4.94 11.803 11.033zm-51.06-3.08c0 5.101-5.284 9.237-11.803 9.237-6.518 0-20.27-2.34-20.27-7.44 0-5.102 5.284-9.238 11.803-9.238 6.518 0 20.27 2.34 20.27 7.441z" fill="#17104E"/><ellipse cx="112.637" cy="73.308" rx="9.75" ry="11.29" fill="#17104E"/><path d="M118.536 84.598h-6.158l-1.026-22.58h7.184v22.58z" fill="#17104E"/><ellipse cx="118.281" cy="73.308" rx="9.75" ry="11.29" fill="#300084"/><ellipse opacity=".4" cx="118.283" cy="73.308" rx="6.158" ry="7.184" fill="#938FF4"/><ellipse cx="52.598" cy="73.307" rx="9.75" ry="11.29" fill="#17104E"/><path d="M58.497 84.597h-6.158l-1.026-22.58h7.184v22.58z" fill="#17104E"/><ellipse cx="58.242" cy="73.307" rx="9.75" ry="11.29" fill="#300084"/><ellipse opacity=".4" cx="58.244" cy="73.307" rx="6.158" ry="7.184" fill="#938FF4"/><ellipse cx="78.77" cy="73.308" rx="9.75" ry="11.29" fill="#300084"/><path d="M84.669 84.598H78.51l-1.027-22.58h7.185v22.58z" fill="#300084"/><ellipse cx="84.414" cy="73.308" rx="9.75" ry="11.29" fill="#17104E"/><ellipse cx="14.625" cy="73.307" rx="9.75" ry="11.29" fill="#300084"/><path d="M20.524 84.597h-6.158l-1.026-22.58h7.184v22.58z" fill="#300084"/><ellipse cx="20.27" cy="73.307" rx="9.75" ry="11.29" fill="#17104E"/><path opacity=".99" fill-rule="evenodd" clip-rule="evenodd" d="M47.467 73.644c-.19 3.147-3.494 3.512-6.157 3.512L5.645 76.9C3.763 77.07 0 76.694 0 73.82c0-2.873.171-8.381.257-10.776.598-2.48 2.822-7.404 7.44-8.723 5.389-1.54 18.73-4.876 19.5-4.876.616 0 1.455-.342 1.797-.513 6.329-3.848 20.218-11.597 25.145-11.802 4.926-.206 8.04-.257 8.98-.257h27.71c7.356-.086 25.043 2.72 36.948 14.625 1.198.086 3.746.821 4.362 3.08.616 2.257.257 12.914 0 17.96-.171 1.112-.821 3.335-2.052 3.335-.508 0-.83-.204-1.027-.485v-5.16c0-5.667-4.595-10.262-10.263-10.262h-1.026c-5.669 0-10.264 4.595-10.264 10.263v3.85c-.171 1.111-1.027 3.077-3.592 3.077-.439 0-1.546-.003-3.117-.008-6.536-.019-21.095-.06-28.955.008-.826 0-2.235-.31-2.823-1.394v-5.533c0-5.668-4.595-10.263-10.263-10.263H57.73c-5.669 0-10.264 4.595-10.264 10.263v2.087a6.088 6.088 0 000 .732v.596z" fill="#fff"/><ellipse cx="100.321" cy="46.367" rx="1.539" ry="1.283" fill="#D9D9D9"/><path d="M52.857 53.807l.1.283-.1-.283zM5.694 57.395l.002.3-.002-.3zm.9-2.04a.3.3 0 00-.262-.539l.263.54zm59.85-5.017a6.242 6.242 0 01-1.104 1.525c-.516.513-1.106.874-1.707.874v.6c.837 0 1.572-.494 2.13-1.05a6.836 6.836 0 001.218-1.681l-.537-.269zm-2.81 2.4c-.443 0-1.105-.032-1.927-.06a55.418 55.418 0 00-2.793-.037c-2.029.032-4.314.225-6.158.884l.202.565c1.748-.625 3.953-.817 5.965-.849a54.741 54.741 0 012.764.036c.806.028 1.49.06 1.946.06v-.6zm-10.878.787c-1.675.598-3.38 1.447-4.986 2.12-1.63.683-3.187 1.198-4.663 1.198v.6c1.603 0 3.253-.557 4.895-1.244 1.664-.697 3.295-1.516 4.956-2.11l-.202-.564zm-9.65 3.318c-2.464 0-25.528.167-37.415.252l.005.6c11.89-.085 34.95-.252 37.41-.252v-.6zm-37.415.252a3.303 3.303 0 01-.702-.055c-.17-.037-.248-.083-.28-.112-.02-.017-.019-.023-.018-.037a.43.43 0 01.081-.19c.128-.196.38-.436.718-.683a7.429 7.429 0 011.105-.662l-.263-.54a8.038 8.038 0 00-1.197.718c-.357.261-.678.553-.865.84a.998.998 0 00-.179.488.632.632 0 00.216.512c.141.127.334.205.554.252.224.049.501.072.835.07l-.005-.6z" fill="url(#paint0_linear_2116_26726)"/><path d="M96.352 49.635l-3.984-10.781a.494.494 0 01.487-.666c14.562.762 26.987 8.97 28.248 10.23 1.026 1.027.342 1.711-.257 1.797l-24.03-.253a.5.5 0 01-.464-.327z" fill="url(#paint1_linear_2116_26726)"/><path d="M96.352 49.635l-3.984-10.781a.494.494 0 01.487-.666c14.562.762 26.987 8.97 28.248 10.23 1.026 1.027.342 1.711-.257 1.797l-24.03-.253a.5.5 0 01-.464-.327z" fill="url(#paint2_linear_2116_26726)"/><path d="M94.423 49.958l-4.362-11.803h-4.828a12 12 0 00-9.55 4.734l-2.935 3.858c-1.002 1.317-.063 3.211 1.591 3.211h20.084z" fill="url(#paint3_linear_2116_26726)"/><path d="M94.423 49.958l-4.362-11.803h-4.828a12 12 0 00-9.55 4.734l-2.935 3.858c-1.002 1.317-.063 3.211 1.591 3.211h20.084z" fill="url(#paint4_linear_2116_26726)"/><path d="M72.59 37.904c-6.617.013-19.198.064-22.556.251-3.596.946-14.447 6.916-19.897 9.985-.889.5-.531 1.835.488 1.841l34.392.22a4 4 0 003.162-1.516l5.973-7.545c1.038-1.311.11-3.24-1.561-3.236z" fill="url(#paint5_linear_2116_26726)"/><path fill="#A6BCFB" d="M8.465 66.637h7.697v4.105H8.465z"/><path opacity=".4" d="M33.755 63.957l-5.807-.114a.648.648 0 01-.445-1.106 12.968 12.968 0 019.17-3.799h6.612c.661 0 .976.814.487 1.26a14.469 14.469 0 01-10.017 3.76z" fill="#2158F5"/><path d="M131.626 54.834H65.941" stroke="url(#paint6_linear_2116_26726)" stroke-width=".6"/><path d="M72.098 72.538c.171-5.217-2.36-15.549-13.855-15.138-11.495.41-14.198 10.947-14.112 16.164" stroke="url(#paint7_linear_2116_26726)" stroke-width=".6"/><path d="M131.107 72.779c.163-5.296-2.252-15.784-13.216-15.367-10.963.416-13.541 11.113-13.459 16.409" stroke="url(#paint8_linear_2116_26726)"/><path d="M103.916 74.077l-31.303 1.026" stroke="url(#paint9_linear_2116_26726)" stroke-width=".6"/><path d="M96.73 55.86l.77 6.928.257 11.29" stroke="#90ABFA"/><path d="M94.167 56.373h-5.132m14.878 0h-5.132" stroke="#2158F5"/><path d="M26.684 58.682c-1.112 2.395-2.823 7.184-5.132 7.184H7.697c-2.566-.257-3.336-1.026-3.85-2.053-.366-.734-.512-4.276-.769-5.9" stroke="url(#paint10_linear_2116_26726)" stroke-width=".6" stroke-linecap="round"/><path d="M40.537 73.82c-.77-.77-1.283-2.31-3.849-2.31H.254" stroke="url(#paint11_linear_2116_26726)" stroke-width=".6"/><path d="M1.95 63.753c.693-.31.601-1.927.238-3.235-.162-.582-.73-.649-.993-.105-.368.762-.775 1.869-.901 2.946-.046.392.208.74.6.698a3.52 3.52 0 001.056-.304z" fill="#A6BCFB"/><rect opacity=".4" x="10.52" y="83.57" width="134.448" height="2.053" rx="1.026" fill="url(#paint12_radial_2116_26726)"/><path opacity=".4" d="M90.794 79.625l-.362-.12a1.473 1.473 0 01-.638-.422L68.3 54.773a1.287 1.287 0 01-.006-1.698c.069-.078.128-.165.175-.258.442-.855 1.594-1.053 2.28-.378l9.078 8.925c.404.396.775.824 1.112 1.278l11.197 15.133a1.198 1.198 0 01-1.342 1.85z" fill="url(#paint13_radial_2116_26726)"/><g opacity=".4"><path d="M92.953 4.975v1.563h-6.488V4.975h6.488zM90.6 2.517v6.597h-1.775V2.517H90.6z" fill="url(#paint14_linear_2116_26726)"/><path d="M100.481 8.623v1.4h-6.475V8.828l3.062-3.143a8.68 8.68 0 00.728-.865c.178-.253.306-.48.384-.679.082-.203.123-.396.123-.579 0-.273-.047-.508-.142-.703a1.036 1.036 0 00-.423-.46 1.306 1.306 0 00-.676-.162c-.286 0-.533.066-.741.199a1.28 1.28 0 00-.468.554 1.974 1.974 0 00-.156.803h-1.88c0-.54.135-1.033.404-1.482a2.897 2.897 0 011.138-1.076c.49-.27 1.07-.405 1.742-.405.663 0 1.222.104 1.677.311.46.204.806.498 1.04.884.239.382.358.838.358 1.37 0 .298-.05.59-.15.877-.1.282-.242.564-.429.846-.182.278-.403.56-.663.847-.26.286-.548.583-.864.89l-1.645 1.768h4.056z" fill="url(#paint15_linear_2116_26726)"/><path d="M108.023 4.695v1.569c0 .68-.076 1.267-.228 1.761-.151.49-.37.892-.656 1.208a2.595 2.595 0 01-1.008.69 3.61 3.61 0 01-1.3.225c-.382 0-.737-.046-1.067-.137a2.725 2.725 0 01-.89-.442c-.26-.2-.486-.45-.676-.753a3.726 3.726 0 01-.429-1.096c-.1-.423-.15-.909-.15-1.456V4.695c0-.68.076-1.263.228-1.749.156-.49.375-.89.656-1.201.286-.311.624-.54 1.014-.685a3.625 3.625 0 011.301-.224c.381 0 .734.048 1.059.143.33.092.627.235.891.43s.49.446.676.753c.187.303.33.666.429 1.09.1.418.15.9.15 1.443zM106.144 6.5V4.452c0-.327-.02-.614-.059-.858a2.395 2.395 0 00-.162-.623 1.318 1.318 0 00-.273-.423 1.003 1.003 0 00-.371-.237 1.352 1.352 0 00-.461-.074c-.213 0-.401.04-.566.118a1.03 1.03 0 00-.409.38c-.113.17-.2.398-.261.684a5.407 5.407 0 00-.084 1.033V6.5c0 .328.017.616.052.865.039.25.095.463.169.641.078.175.169.318.273.43a.995.995 0 00.371.236c.143.05.299.075.468.075.208 0 .392-.04.552-.118a1.06 1.06 0 00.416-.386 1.95 1.95 0 00.26-.697c.057-.286.085-.635.085-1.046z" fill="url(#paint16_linear_2116_26726)"/><path d="M109.271 3.183v-.48c0-.344.078-.657.234-.94.156-.281.386-.508.689-.678.304-.17.676-.255 1.118-.255.455 0 .835.085 1.138.255.308.17.538.397.689.679.156.282.234.595.234.94v.479c0 .336-.078.645-.234.927a1.687 1.687 0 01-.682.679c-.304.17-.679.255-1.125.255-.451 0-.83-.085-1.138-.255a1.737 1.737 0 01-.689-.679 1.885 1.885 0 01-.234-.927zm1.242-.48v.48c0 .145.028.284.084.417a.79.79 0 00.273.317.842.842 0 00.455.118.796.796 0 00.455-.118.761.761 0 00.261-.317c.056-.133.084-.272.084-.417v-.48a.975.975 0 00-.091-.423.689.689 0 00-.267-.317.768.768 0 00-.455-.125.766.766 0 00-.715.442c-.056.129-.084.27-.084.424zm3.283 5.577v-.479c0-.34.078-.651.234-.934a1.78 1.78 0 01.695-.678c.308-.17.685-.255 1.132-.255.45 0 .828.085 1.131.255.303.17.533.396.689.678.156.283.234.594.234.934v.48c0 .34-.078.65-.234.933a1.69 1.69 0 01-.683.678c-.303.17-.678.256-1.124.256-.451 0-.83-.086-1.138-.256a1.766 1.766 0 01-.702-.678 1.897 1.897 0 01-.234-.934zm1.248-.479v.48a.9.9 0 00.104.422.828.828 0 00.286.318.804.804 0 00.436.118c.208 0 .37-.04.487-.118a.6.6 0 00.241-.318c.048-.132.071-.273.071-.423v-.479a.96.96 0 00-.091-.417.755.755 0 00-.721-.442.787.787 0 00-.455.125.754.754 0 00-.267.317.96.96 0 00-.091.417zm1.274-5.546l-4.622 7.083-.91-.46 4.622-7.083.91.46z" fill="url(#paint17_linear_2116_26726)"/></g><g opacity=".4"><path d="M59.142 13.774v1.368h-5.287v-1.367h5.287zm-1.918-2.15v5.772h-1.446v-5.773h1.447z" fill="url(#paint18_linear_2116_26726)"/><path d="M63.719 10.245v7.946h-1.526v-6.137l-1.832.599v-1.237l3.194-1.17h.164z" fill="url(#paint19_linear_2116_26726)"/><path d="M67.665 14.58l-1.218-.299.44-4.02h4.333v1.27h-3.078l-.19 1.759c.102-.062.257-.127.466-.196a2.1 2.1 0 01.699-.11c.374 0 .706.06.996.18.29.12.535.295.736.523.205.23.36.509.466.84.106.33.16.703.16 1.121 0 .352-.054.688-.16 1.008a2.52 2.52 0 01-.482.85 2.25 2.25 0 01-.81.582c-.325.141-.71.212-1.155.212a3.08 3.08 0 01-.964-.152 2.624 2.624 0 01-.832-.452c-.243-.2-.44-.442-.588-.725a2.243 2.243 0 01-.228-.98h1.515c.022.225.078.42.17.583.095.16.22.283.376.37.155.087.337.13.546.13.194 0 .36-.037.498-.114a.911.911 0 00.333-.315c.085-.138.147-.298.186-.48a2.68 2.68 0 00.063-.599c0-.214-.025-.408-.074-.583a1.26 1.26 0 00-.228-.452 1.012 1.012 0 00-.392-.294 1.336 1.336 0 00-.545-.103c-.283 0-.502.045-.657.136-.152.09-.28.194-.382.31z" fill="url(#paint20_linear_2116_26726)"/><path d="M72.438 12.206v-.42c0-.3.064-.575.191-.822s.314-.444.561-.593c.248-.15.551-.223.912-.223.37 0 .68.074.927.223.25.149.438.346.561.593.127.247.19.521.19.823v.42c0 .293-.063.564-.19.81a1.432 1.432 0 01-.556.594c-.247.149-.553.223-.916.223-.368 0-.677-.074-.927-.223a1.468 1.468 0 01-.562-.594 1.745 1.745 0 01-.19-.81zm1.012-.42v.42c0 .127.023.249.069.365.05.113.123.205.222.278a.648.648 0 00.371.103.617.617 0 00.371-.103.652.652 0 00.212-.278.984.984 0 00.069-.365v-.42a.911.911 0 00-.074-.37.598.598 0 00-.588-.386.592.592 0 00-.36.109.632.632 0 00-.223.277.971.971 0 00-.069.37zm2.675 4.88v-.419c0-.298.064-.57.19-.817.132-.247.32-.445.568-.594.25-.148.558-.223.921-.223.368 0 .675.075.922.223.247.15.434.347.562.594.127.247.19.52.19.817v.42c0 .297-.063.57-.19.816a1.432 1.432 0 01-.557.594c-.247.149-.552.223-.916.223-.367 0-.676-.074-.927-.223a1.495 1.495 0 01-.572-.594 1.757 1.757 0 01-.19-.817zm1.017-.419v.42c0 .13.029.253.085.37a.71.71 0 00.233.277.62.62 0 00.355.104c.17 0 .302-.035.397-.104a.52.52 0 00.196-.277c.04-.116.058-.24.058-.37v-.42a.898.898 0 00-.074-.365.633.633 0 00-.222-.278.587.587 0 00-.366-.108.61.61 0 00-.37.108.647.647 0 00-.218.278.898.898 0 00-.074.365zm1.038-4.852l-3.766 6.197-.742-.403 3.767-6.197.742.403z" fill="url(#paint21_linear_2116_26726)"/></g><g opacity=".4"><path d="M28.439 24.774v1.562h-6.033v-1.562h6.033zm-2.189-2.458v6.597H24.6v-6.597h1.65z" fill="url(#paint22_linear_2116_26726)"/><path d="M35.347 27.338c0 .569-.129 1.048-.386 1.438a2.423 2.423 0 01-1.064.878c-.447.195-.955.292-1.523.292a3.82 3.82 0 01-1.53-.292 2.462 2.462 0 01-1.07-.878c-.262-.39-.392-.87-.392-1.438 0-.381.074-.726.223-1.033.15-.311.357-.576.623-.796a2.81 2.81 0 01.949-.51 3.72 3.72 0 011.184-.181c.573 0 1.085.103 1.536.31.451.208.806.5 1.064.878s.386.822.386 1.332zm-1.752-.118a1.52 1.52 0 00-.158-.716 1.08 1.08 0 00-.429-.466 1.262 1.262 0 00-.647-.162c-.245 0-.46.054-.646.162-.186.107-.33.263-.436.466-.1.2-.15.438-.15.716 0 .274.05.51.15.71.105.199.25.352.436.46.19.104.409.156.659.156.25 0 .465-.052.646-.156a1.05 1.05 0 00.423-.46c.101-.2.152-.436.152-.71zm1.565-4.058c0 .46-.119.87-.356 1.226a2.392 2.392 0 01-.992.828c-.419.2-.898.299-1.438.299-.544 0-1.028-.1-1.451-.299a2.392 2.392 0 01-.991-.828 2.16 2.16 0 01-.357-1.226c0-.548.119-1.008.357-1.382.241-.377.572-.664.99-.859a3.4 3.4 0 011.44-.292c.544 0 1.025.097 1.444.292.423.195.754.482.991.86.242.373.363.833.363 1.381zm-1.74.081c0-.245-.043-.456-.128-.635a.97.97 0 00-.362-.423 1.02 1.02 0 00-.569-.15 1.06 1.06 0 00-.562.144.943.943 0 00-.356.417c-.08.178-.121.394-.121.647 0 .245.04.46.12.647.085.183.206.326.363.43.158.104.347.155.569.155a.98.98 0 00.562-.155.971.971 0 00.356-.43c.085-.186.127-.402.127-.647z" fill="url(#paint23_linear_2116_26726)"/><path d="M36.502 22.982v-.48c0-.344.072-.657.218-.94.145-.282.358-.508.64-.678.282-.17.629-.255 1.04-.255.423 0 .776.085 1.058.255.286.17.5.396.64.678.145.283.218.596.218.94v.48c0 .336-.073.645-.218.927a1.636 1.636 0 01-.634.678c-.282.17-.63.256-1.046.256-.419 0-.772-.085-1.058-.256a1.677 1.677 0 01-.64-.678 1.998 1.998 0 01-.218-.927zm1.154-.48v.48c0 .145.027.284.079.417a.774.774 0 00.254.317.738.738 0 00.423.118.71.71 0 00.423-.118.746.746 0 00.242-.317c.052-.133.079-.272.079-.417v-.48c0-.153-.029-.294-.085-.423a.683.683 0 00-.248-.317.678.678 0 00-.423-.125.674.674 0 00-.411.125.723.723 0 00-.254.317c-.052.129-.078.27-.078.423zm3.053 5.577v-.48c0-.34.072-.65.217-.933a1.72 1.72 0 01.647-.678c.286-.17.637-.255 1.052-.255.42 0 .77.085 1.052.255.282.17.495.396.64.678.145.282.218.594.218.934v.48c0 .34-.072.65-.217.933a1.636 1.636 0 01-.635.678c-.282.17-.63.255-1.046.255-.419 0-.772-.085-1.058-.255a1.707 1.707 0 01-.653-.678 2.012 2.012 0 01-.217-.934zm1.16-.48v.48c0 .15.033.29.097.423a.811.811 0 00.266.318.707.707 0 00.405.118c.194 0 .345-.04.453-.118a.594.594 0 00.224-.318c.044-.133.067-.273.067-.423v-.48c0-.148-.029-.288-.085-.416a.724.724 0 00-.254-.318.668.668 0 00-.417-.124c-.17 0-.31.041-.423.124a.74.74 0 00-.248.318 1.027 1.027 0 00-.084.417zm1.185-5.545l-4.297 7.083-.847-.46 4.298-7.083.846.46z" fill="url(#paint24_linear_2116_26726)"/></g><path d="M85.594 62.934l-3.114 5.731-11.418-13.197 3.115-5.73 11.417 13.196z" fill="#12A953"/><path d="M106.431 54.218c1.215.006 2.92.842 3.811 1.877.891 1.034.635 1.861-.58 1.856-1.216-.006-2.92-.842-3.811-1.877-.896-1.026-.636-1.861.58-1.856z" fill="#3D5E2A"/><path d="M110.843 50.7l10.015 11.584-11.192-.05-1.452-1.677 2.978.015c.08-.791.802-1.288 2.093-1.28l3.899.016-4.918-5.687-3.899-.016c-1.257-.01-2.804-.495-4.216-1.252l-3.025-.01-1.451-1.677 11.168.035z" fill="#3D5E2A"/><path d="M112.263 53.608l4.918 5.687-3.899-.016c-1.291-.008-2.018.497-2.093 1.28l-2.975-.002-7.095-8.22 3.024.011c1.412.757 2.959 1.243 4.208 1.247l3.912.013zm-2.601 4.343c1.215.005 1.476-.83.585-1.864-.891-1.035-2.596-1.871-3.811-1.877-1.216-.005-1.476.83-.585 1.864.891 1.035 2.595 1.871 3.811 1.877z" fill="#839749"/><path d="M98.97 49.846l.694.802 1.455 1.69 7.095 8.22 1.452 1.676.701.807-.37-.006-1.132.002L97.469 49.84l1.132-.001.323.01.047-.004z" fill="#A43936"/><path d="M83.87 53.37c1.183.006 1.886-.424 2.056-1.094l5.948.024.205.238c-.394.874.072 2.278 1.448 3.864 1.367 1.581 3.327 2.985 5.233 3.868l.214.242-5.872-.023c-1.382-.716-2.868-1.176-4.092-1.186l-4.71-.018-5.135-5.941 4.706.025zm6.507 2.635c-.89-1.034-2.595-1.87-3.81-1.876-1.216-.005-1.477.83-.585 1.864.89 1.034 2.595 1.871 3.81 1.877 1.216.005 1.476-.83.585-1.865z" fill="#839749"/><path d="M92.084 52.53l6.681 7.732c-1.914-.888-3.874-2.291-5.234-3.868-1.375-1.586-1.841-2.99-1.447-3.865z" fill="#3D5E2A"/><path d="M91.228 49.813l11.396 13.195-1.502-.004L89.731 49.8l1.497.013z" fill="#A43936"/><path d="M97.469 49.841l11.396 13.196 1.132-.002-7.373-.027-11.396-13.195-1.497-.013 7.738.041z" fill="#C8C8C8"/><path d="M86.567 54.129c1.215.006 2.927.847 3.81 1.876.891 1.034.636 1.862-.58 1.856-1.215-.005-2.927-.847-3.81-1.876-.897-1.026-.636-1.861.58-1.856z" fill="#3D5E2A"/><path d="M85.67 62.13L75.657 50.546l14.776.061 1.451 1.677-5.947-.025c-.175.678-.874 1.101-2.055 1.094l-4.716-.01 5.134 5.942 4.706.026c1.224.01 2.715.462 4.093 1.186l5.871.023 1.452 1.677-14.75-.067z" fill="#3D5E2A"/><path d="M110.912 49.891l11.412 13.205-11.957-.055-.701-.807 11.184.045L110.843 50.7l-11.179-.052-.693-.802-.37-.006-1.132.001-7.738-.04.696.814-14.77-.069L85.67 62.13l14.755.059.696.815-15.528-.07-11.417-13.197 36.735.154z" fill="#046B30"/><path d="M122.324 63.096l-3.114 5.731-11.957-.055 3.114-5.73 11.957.054z" fill="#54602F"/><path d="M109.997 63.035l-3.119 5.74-7.369-.036 3.115-5.73 7.373.026z" fill="gray"/><path d="M110.367 63.041l-3.114 5.731-1.502-.004 3.114-5.731 1.502.004zm-7.743-.033l-3.115 5.731-1.501-.004 3.114-5.731 1.502.004z" fill="#692423"/><path d="M101.122 63.004l-3.114 5.731-15.528-.07 3.114-5.73 15.528.069z" fill="#007E36"/><path d="M119.955 70.546c1.215.006 2.92.842 3.811 1.876.891 1.035.635 1.862-.581 1.857-1.215-.006-2.919-.843-3.81-1.877-.896-1.026-.636-1.861.58-1.856z" fill="#3D5E2A"/><path d="M125.787 69.936l4.918 5.687-3.899-.016c-1.291-.008-2.018.496-2.093 1.28l-2.978-.015-7.096-8.22 3.025.011c1.412.757 2.959 1.243 4.208 1.247l3.915.026zm-2.602 4.343c1.216.005 1.477-.83.586-1.864-.892-1.035-2.596-1.871-3.811-1.877-1.216-.005-1.476.83-.585 1.864.891 1.034 2.595 1.871 3.81 1.877z" fill="#839749"/><path d="M124.367 67.028l10.014 11.584-11.192-.05-1.451-1.677 2.978.015c.08-.792.802-1.288 2.093-1.28l3.899.016-4.918-5.687-3.899-.016c-1.257-.01-2.804-.495-4.216-1.252l-3.025-.01-1.451-1.678 11.168.035z" fill="#3D5E2A"/><path d="M124.436 66.219l11.412 13.205-11.957-.055-.702-.807 11.184.045-10.006-11.579-11.179-.052-.701-.807 11.949.05z" fill="#046B30"/><path d="M112.487 66.169l.701.807 1.454 1.69 7.088 8.214 1.459 1.682.702.807-.37-.006-1.132.002-11.391-13.204 1.447.004.042.004z" fill="#FFF1D2"/><path d="M105.608 68.857l6.681 7.733c-1.914-.888-3.874-2.292-5.234-3.868-1.375-1.586-1.841-2.99-1.447-3.865z" fill="#3D5E2A"/><path d="M112.445 66.165l-1.447-.004 11.391 13.204 1.132-.002-7.373-.027-11.405-13.2.118.005 7.584.024z" fill="#C8C8C8"/><path d="M104.743 66.136l11.405 13.2-1.502-.004-11.391-13.204.281.007h1.207z" fill="#FFF1D2"/><path d="M97.4 69.689c1.181.007 1.885-.424 2.055-1.094l5.947.025.206.237c-.394.875.072 2.279 1.447 3.865 1.368 1.581 3.328 2.985 5.234 3.868l.214.242-5.872-.023c-1.382-.717-2.868-1.176-4.092-1.186l-4.71-.018-5.135-5.942 4.706.026zm6.501 2.644c-.891-1.034-2.595-1.87-3.811-1.876-1.215-.006-1.476.83-.585 1.864.891 1.034 2.596 1.87 3.811 1.876 1.216.006 1.476-.83.585-1.864z" fill="#12A953"/><path d="M100.09 70.457c1.216.005 2.928.847 3.811 1.876.891 1.034.636 1.862-.58 1.856-1.215-.005-2.928-.847-3.81-1.876-.897-1.026-.636-1.862.579-1.856z" fill="#3D5E2A"/><path d="M99.118 79.262L87.7 66.065l15.835.07-.281-.007.696.815-14.77-.069 10.014 11.584 14.754.059.697.815-15.528-.07z" fill="#046B30"/><path d="M99.195 78.458L89.18 66.874l14.776.061 1.451 1.677-5.947-.025c-.175.678-.874 1.1-2.055 1.094l-4.698-.02 5.134 5.941 4.706.026c1.224.01 2.714.461 4.092 1.186l5.872.023 1.451 1.677-14.767-.056z" fill="#046B30"/><path d="M135.848 79.424l-3.114 5.731-11.958-.055 3.115-5.73 11.957.054z" fill="#12A953"/><path d="M123.521 79.363l-3.114 5.731-7.374-.027 3.115-5.73 7.373.026z" fill="#F0E6CF"/><path d="M123.891 79.37l-3.115 5.73-1.519.007 3.137-5.75 1.497.012zm-7.743-.034l-3.115 5.731-1.501-.004 3.114-5.731 1.502.004z" fill="#FFF1D2"/><path d="M114.646 79.332l-3.114 5.73-15.529-.069 3.115-5.73 15.528.069zm-15.528-.07l-3.115 5.731-11.417-13.197 3.115-5.731 11.417 13.197zm-9.866-22.355l-3.114 5.731-11.412-13.205 3.114-5.731 11.412 13.205z" fill="#12A953"/><path d="M110.094 48.183c1.216.006 2.92.842 3.811 1.876.891 1.035.636 1.862-.58 1.857-1.215-.006-2.92-.843-3.811-1.877-.896-1.026-.635-1.861.58-1.856z" fill="#3D5E2A"/><path d="M114.494 44.668l10.014 11.584-11.192-.05-1.451-1.677 2.977.015c.08-.791.803-1.288 2.094-1.28l3.899.016-4.918-5.687-3.899-.017c-1.257-.009-2.804-.494-4.217-1.251l-3.024-.01-1.451-1.678 11.168.035z" fill="#3D5E2A"/><path d="M115.922 47.581l4.918 5.687-3.899-.017c-1.291-.007-2.019.498-2.094 1.281l-2.977-.015-7.096-8.22 3.024.011c1.413.757 2.96 1.243 4.209 1.247l3.915.026zm-2.602 4.342c1.216.006 1.476-.83.585-1.864-.891-1.034-2.595-1.87-3.811-1.876-1.215-.005-1.476.83-.585 1.864.883 1.03 2.596 1.871 3.811 1.877z" fill="#A7C05D"/><path d="M102.621 43.814l.702.806 1.451 1.678 7.096 8.22 1.446 1.684.701.807h-.361l-1.127-.007-11.397-13.196 1.128.007.32-.003.041.004z" fill="#FFF1D2"/><path d="M87.526 47.329c1.182.007 1.886-.424 2.056-1.094l5.947.025.206.237c-.395.875.072 2.279 1.447 3.865 1.368 1.581 3.328 2.985 5.234 3.868l.214.242-5.872-.023c-1.383-.717-2.869-1.176-4.092-1.186l-4.711-.018-5.135-5.942 4.706.026zm6.51 2.65c-.891-1.035-2.595-1.872-3.81-1.877-1.216-.006-1.477.83-.586 1.864.891 1.034 2.595 1.87 3.81 1.876 1.221-.002 1.482-.838.586-1.864z" fill="#A7C05D"/><path d="M95.743 46.502l6.681 7.733c-1.914-.888-3.874-2.292-5.234-3.868-1.376-1.586-1.85-2.995-1.447-3.865z" fill="#3D5E2A"/><path d="M94.883 43.773l11.391 13.203-1.489-.007-11.396-13.196h1.494z" fill="#FFF1D2"/><path d="M101.132 43.806l11.397 13.196 1.127.006-7.382-.032-11.391-13.203h-1.494l7.743.033z" fill="#C8C8C8"/><path d="M90.225 48.102c1.216.005 2.928.847 3.81 1.876.892 1.034.636 1.862-.58 1.856-1.215-.005-2.927-.847-3.81-1.876-.891-1.034-.635-1.862.58-1.856z" fill="#3D5E2A"/><path d="M89.321 56.098L79.315 44.519l14.776.061 1.451 1.677-5.96-.022c-.175.678-.874 1.1-2.056 1.094l-4.698-.02 5.135 5.941 4.706.026c1.224.01 2.714.461 4.092 1.186l5.872.023 1.451 1.677-14.763-.064z" fill="#046B30"/><path d="M114.571 43.864l11.417 13.197-11.971-.052-.701-.807 11.192.05-10.014-11.584-11.171-.047-.702-.807-.361-.001-1.128-.007-7.743-.033.702.807-14.776-.06L89.32 56.097l14.763.064.701.807-15.533-.062L77.84 43.702l36.731.162z" fill="#046B30"/><path d="M125.988 57.061l-3.115 5.731-11.97-.052 3.114-5.73 11.971.051zm-12.332-.053l-3.115 5.731-7.381-.032 3.114-5.73 7.382.031z" fill="#12A953"/><path d="M114.017 57.01l-3.114 5.73-1.497-.012 3.115-5.731 1.496.012zm-7.743-.034l-3.114 5.731-1.489-.007 3.114-5.731 1.489.007zm-1.489-.007l-3.114 5.73-15.533-.06 3.114-5.732 15.533.062zm-12.123-6.103l-3.114 5.73L78.131 43.4l3.114-5.731 11.417 13.197z" fill="#12A953"/><path d="M113.5 42.15c1.215.005 2.919.842 3.81 1.876.891 1.034.636 1.862-.58 1.856-1.215-.005-2.919-.842-3.811-1.876-.896-1.026-.635-1.862.581-1.856z" fill="#046B30"/><path d="M117.907 38.64l10.014 11.584-11.192-.05-1.451-1.677 2.977.015c.08-.792.803-1.288 2.094-1.28l3.899.016-4.918-5.687-3.899-.017c-1.257-.009-2.804-.494-4.217-1.252l-3.024-.01-1.451-1.677 11.168.035z" fill="#046B30"/><path d="M119.327 41.548l4.918 5.687-3.899-.017c-1.291-.007-2.019.497-2.094 1.28l-2.977-.014-7.096-8.22 3.024.01c1.413.758 2.96 1.243 4.209 1.247l3.915.027zm-2.602 4.342c1.216.006 1.476-.83.585-1.864-.891-1.034-2.595-1.87-3.81-1.876-1.216-.006-1.477.83-.586 1.864.897 1.026 2.601 1.863 3.811 1.876z" fill="#12A953"/><path d="M106.039 37.777l.697.815 1.451 1.677 7.096 8.22 1.451 1.677.697.815-.362-.001-1.135-.012-11.396-13.195 1.14.003.315.006.046-.005z" fill="#FFF4DB"/><path d="M90.94 41.3c1.181.008 1.885-.423 2.055-1.093l5.947.025.206.237c-.395.875.072 2.279 1.447 3.865 1.368 1.581 3.328 2.984 5.234 3.867l.214.242-5.872-.022c-1.383-.717-2.869-1.176-4.092-1.187l-4.71-.017-5.135-5.942 4.706.026zm6.514 2.642c-.891-1.034-2.595-1.871-3.81-1.877-1.216-.005-1.477.83-.586 1.864.891 1.035 2.595 1.871 3.81 1.877 1.208 0 1.477-.83.586-1.864z" fill="#12A953"/><path d="M99.153 40.46l6.681 7.733c-1.914-.888-3.874-2.291-5.234-3.867-1.375-1.587-1.842-2.99-1.447-3.865z" fill="#046B30"/><path d="M98.296 37.744l11.396 13.196-1.501-.005L96.794 37.74l1.502.004z" fill="#FFF1D2"/><path d="M104.538 37.773l11.396 13.195 1.135.012-7.377-.04-11.396-13.196-1.502-.004 7.744.033z" fill="#FFF4DB"/><path d="M93.635 42.06c1.216.006 2.928.848 3.81 1.877.892 1.034.636 1.861-.58 1.856-1.215-.006-2.927-.847-3.81-1.876-.896-1.026-.635-1.862.58-1.857z" fill="#046B30"/><path d="M92.74 50.061L82.724 38.478l14.776.06 1.451 1.678-5.947-.025c-.175.678-.874 1.1-2.056 1.093l-4.698-.02 5.135 5.942 4.706.025c1.223.01 2.714.462 4.092 1.186l5.872.023 1.451 1.677-14.768-.056z" fill="#046B30"/><path d="M117.976 37.83l11.417 13.198-11.962-.047-.697-.815 11.192.05-10.019-11.576-11.171-.048-.697-.815h-.361l-1.14-.004-7.744-.033.702.807-14.776-.061L92.74 50.06l14.749.068.702.806-15.529-.07L81.245 37.67l36.731.162z" fill="#12A953"/><path d="M129.393 51.028l-3.115 5.73-11.962-.046 3.115-5.731 11.962.047z" fill="#007E36"/><path d="M117.069 50.98l-3.114 5.73-7.382-.031 3.119-5.74 7.377.04z" fill="#F0E6CF"/><path d="M117.431 50.98l-3.115 5.732-1.497-.013 3.115-5.73 1.497.012zm-7.739-.04l-3.119 5.739-1.497-.013 3.115-5.73 1.501.004z" fill="#FFF1D2"/><path d="M108.191 50.935l-3.115 5.731-15.528-.07 3.114-5.73 15.529.07z" fill="#007E36"/><path d="M126.293 64.511c1.216.006 2.92.842 3.811 1.876.891 1.035.635 1.862-.58 1.856-1.216-.005-2.92-.842-3.811-1.876-.904-1.03-.635-1.861.58-1.856z" fill="#046B30"/><path d="M132.12 63.91l4.918 5.686-3.899-.017c-1.291-.007-2.018.498-2.093 1.281l-2.978-.015-7.095-8.22 3.032.016c1.413.757 2.959 1.242 4.208 1.247l3.907.021zm-2.609 4.337c1.215.005 1.476-.83.585-1.865-.891-1.034-2.595-1.87-3.811-1.876-1.215-.005-1.476.83-.585 1.864.896 1.026 2.603 1.876 3.811 1.877z" fill="#12A953"/><path d="M130.692 60.996l10.015 11.584-11.192-.05-1.452-1.677 2.978.015c.08-.791.802-1.288 2.093-1.28l3.899.016-4.913-5.695-3.899-.017c-1.257-.009-2.803-.494-4.216-1.251l-3.024-.01-1.452-1.678 11.163.043z" fill="#046B30"/><path d="M130.769 60.192l11.417 13.197-11.97-.052-.696-.815 11.192.05-10.02-11.576-11.171-.047-.696-.815 11.944.058z" fill="#046B30"/><path d="M118.825 60.134l.696.815 1.452 1.677 7.095 8.22 1.452 1.676.696.815h-.362l-1.127-.007-11.396-13.196 1.447.004.047-.004z" fill="#FFF1D2"/><path d="M111.946 62.822l6.681 7.733c-1.914-.888-3.874-2.292-5.233-3.868-1.389-1.583-1.855-2.987-1.448-3.865z" fill="#046B30"/><path d="M118.778 60.138l-1.447-.004 11.396 13.196 1.127.006-7.381-.032-11.391-13.203h.109l7.587.037z" fill="#FFF4DB"/><path d="M111.082 60.1l11.391 13.204-1.489-.007L109.588 60.1l.278-.006 1.216.006z" fill="#FFF1D2"/><path d="M103.725 63.657c1.182.007 1.885-.424 2.055-1.094l5.948.025.205.237c-.394.875.072 2.279 1.448 3.865 1.367 1.581 3.327 2.985 5.233 3.868l.214.242-5.872-.023c-1.382-.716-2.868-1.176-4.091-1.186l-4.711-.018-5.135-5.942 4.706.026zm6.509 2.65c-.891-1.035-2.595-1.872-3.81-1.877-1.216-.006-1.476.83-.585 1.864.891 1.034 2.595 1.87 3.81 1.876 1.221-.002 1.481-.838.585-1.864z" fill="#12A953"/><path d="M106.424 64.43c1.215.005 2.927.847 3.81 1.876.892 1.034.636 1.862-.58 1.856-1.215-.005-2.927-.847-3.81-1.876-.9-1.04-.636-1.862.58-1.856z" fill="#046B30"/><path d="M105.456 73.227L94.039 60.03l15.827.065-.278.006.701.807-14.784-.066 10.02 11.576 14.758.072.701.807-15.528-.07z" fill="#12A953"/><path d="M105.525 72.418L95.51 60.834l14.776.061 1.452 1.677-5.948-.025c-.175.678-.873 1.1-2.055 1.094l-4.698-.02 5.134 5.941 4.706.026c1.224.01 2.715.461 4.092 1.186l5.872.023 1.452 1.677-14.768-.056z" fill="#046B30"/><path d="M142.186 73.39l-3.114 5.73-11.97-.052 3.114-5.73 11.97.051z" fill="#12A953"/><path d="M129.854 73.336l-3.114 5.731-7.381-.032 3.114-5.73 7.381.031z" fill="#F0E6CF"/><path d="M130.216 73.337l-3.114 5.731-1.507.004 3.132-5.742 1.489.007zm-7.743-.033l-3.114 5.731-1.489-.007 3.114-5.731 1.489.007z" fill="#FFF1D2"/><path d="M120.984 73.297l-3.114 5.73-15.528-.069 3.114-5.73 15.528.069z" fill="#12A953"/><path d="M105.456 73.227l-3.114 5.731-11.418-13.197 3.115-5.731 11.417 13.197z" fill="#12A953"/><path d="M84.96 45.178l7.43 8.159-.069-.031 2.065.018 1.033.015c.35.004.685.011 1.029.024l1.029.023 1.031.037 1.032.036 1.027.044-.002.021-1.032.019-1.028.01c-.34.001-.687.01-1.035.006l-1.031-.003c-.341 0-.69-.003-1.03-.002l-1.034-.016-2.058-.047-.042-.004-.027-.027-7.305-8.271.018-.011zm-6.553 14.923l1.372 1.485 2.734 2.985.681.75.336.383c.11.124.222.247.335.384l-.068-.032c.395.055.781.104 1.171.167.2.034.39.062.589.096.199.034.39.063.584.104l-.002.021c-.2-.013-.394-.02-.594-.033-.201-.013-.397-.034-.59-.041l-1.19-.1h-.034l-.027-.027c-.11-.123-.23-.252-.34-.375l-.341-.375-3.316-3.808-1.322-1.53.022-.054zm17.235 12.092l4.725 5.447-.053-.021 7.149-.144a134.36 134.36 0 011.79-.018l1.785-.01c.593 0 1.194.004 1.788.003.593 0 1.189.012 1.786.025l-.002.02c-.6.03-1.196.052-1.791.073-.595.022-1.19.043-1.788.052l-1.784.043c-.598.01-1.189.023-1.787.031l-7.149.055-.034.002-.019-.023-4.64-5.516.024-.019zm-10.073-2.05l4.652 5.369-4.803-5.23.15-.14z" fill="#046B30"/><path d="M77.298 44.907l4.83 5.633-4.981-5.494.15-.14z" fill="#B3B3B3"/><path d="M111.773 66.699l-3.114 5.731-11.417-13.197 3.114-5.731 11.417 13.197z" fill="#12A953"/><path d="M132.611 57.983c1.215.005 2.919.842 3.81 1.876.891 1.034.636 1.862-.58 1.856-1.215-.005-2.92-.842-3.811-1.876-.896-1.026-.635-1.862.581-1.856z" fill="#046B30"/><path d="M137.018 54.473l10.014 11.584-11.192-.05-1.451-1.677 2.977.015c.08-.792.803-1.288 2.094-1.28l3.899.016-4.918-5.687-3.899-.017c-1.257-.009-2.804-.494-4.217-1.251l-3.024-.01-1.451-1.678 11.168.035z" fill="#046B30"/><path d="M138.438 57.381l4.918 5.687-3.899-.017c-1.291-.007-2.019.497-2.094 1.28l-2.977-.014-7.096-8.22 3.024.01c1.413.758 2.96 1.243 4.209 1.248l3.915.026zm-2.602 4.342c1.216.006 1.476-.83.585-1.864-.891-1.034-2.595-1.87-3.81-1.876-1.216-.006-1.477.83-.586 1.864.896 1.026 2.601 1.863 3.811 1.876z" fill="#12A953"/><path d="M125.15 53.61l.697.815 1.451 1.677 7.096 8.22 1.451 1.677.696.815-.361-.001-1.135-.012-11.396-13.195 1.14.003.315.006.046-.005z" fill="#FFF4DB"/><path d="M110.05 57.134c1.182.007 1.886-.424 2.056-1.094l5.947.025.206.237c-.395.875.072 2.279 1.447 3.865 1.368 1.581 3.328 2.984 5.234 3.868l.214.242-5.872-.023c-1.383-.717-2.869-1.176-4.092-1.186l-4.711-.018-5.135-5.942 4.706.026zm6.515 2.64c-.891-1.033-2.595-1.87-3.811-1.876-1.215-.005-1.476.83-.585 1.865.891 1.034 2.595 1.87 3.811 1.876 1.207 0 1.476-.83.585-1.864z" fill="#12A953"/><path d="M118.264 56.294l6.681 7.733c-1.914-.889-3.874-2.292-5.234-3.868-1.375-1.586-1.842-2.99-1.447-3.865z" fill="#046B30"/><path d="M117.407 53.577l11.396 13.196-1.502-.004-11.396-13.196 1.502.004z" fill="#FFF1D2"/><path d="M123.649 53.606l11.396 13.195 1.135.012-7.377-.04-11.396-13.196-1.502-.004 7.744.033z" fill="#FFF4DB"/><path d="M112.746 57.894c1.216.005 2.928.847 3.811 1.876.891 1.034.635 1.861-.58 1.856-1.216-.005-2.928-.847-3.811-1.876-.896-1.026-.635-1.862.58-1.856z" fill="#046B30"/><path d="M111.85 65.894l-10.014-11.583 14.776.06 1.451 1.678-5.947-.025c-.175.678-.874 1.1-2.056 1.094l-4.698-.021 5.135 5.942 4.706.025c1.223.01 2.714.462 4.092 1.187l5.872.022 1.451 1.677-14.768-.056z" fill="#046B30"/><path d="M137.087 53.664l11.417 13.197-11.963-.047-.696-.815 11.192.05-10.019-11.576-11.171-.048-.697-.815h-.361l-1.14-.004-7.744-.033.702.807-14.776-.061 10.019 11.575 14.75.068.701.806-15.528-.069-11.417-13.197 36.731.162z" fill="#12A953"/><path d="M148.504 66.86l-3.115 5.732-11.962-.047 3.114-5.731 11.963.047z" fill="#007E36"/><path d="M136.18 66.813l-3.115 5.73-7.381-.031 3.119-5.74 7.377.04z" fill="#F0E6CF"/><path d="M136.541 66.814l-3.114 5.73-1.497-.011 3.115-5.732 1.496.013zm-7.738-.041l-3.119 5.739-1.497-.013 3.114-5.73 1.502.004z" fill="#FFF1D2"/><path d="M127.301 66.769l-3.114 5.73-15.528-.069 3.114-5.731 15.528.07z" fill="#007E36"/><path d="M100.868 43.034V46h-1.977v-2.884c-1.833-.01-3.54-.428-5.12-1.258v-3.786c.524.428 1.305.825 2.344 1.19 1.038.364 1.963.573 2.776.628v-4.975c-2.113-.793-3.557-1.65-4.334-2.57-.767-.93-1.15-2.06-1.15-3.39 0-1.43.5-2.647 1.502-3.65 1.002-1.01 2.33-1.599 3.982-1.763V21h1.977v2.488c1.905.09 3.326.4 4.265.93v3.69c-1.264-.775-2.685-1.249-4.265-1.422v5.18c1.977.72 3.394 1.545 4.252 2.475.857.92 1.286 2.036 1.286 3.348 0 1.513-.478 2.734-1.435 3.664-.957.92-2.325 1.48-4.103 1.68zm-1.977-11.96V26.74c-1.255.228-1.883.888-1.883 1.982 0 .938.628 1.722 1.883 2.35zm1.977 4.62v4.141c1.291-.2 1.936-.852 1.936-1.954 0-.893-.645-1.622-1.936-2.187z" fill="#AED9A9"/><defs><linearGradient id="paint0_linear_2116_26726" x1="5.389" y1="57.399" x2="71.587" y2="43.031" gradientUnits="userSpaceOnUse"><stop stop-color="#2158F5"/><stop offset="1" stop-color="#2158F5" stop-opacity="0"/></linearGradient><linearGradient id="paint1_linear_2116_26726" x1="106.87" y1="38.155" x2="106.87" y2="50.215" gradientUnits="userSpaceOnUse"><stop stop-color="#2158F5"/><stop offset="1" stop-color="#255BF5" stop-opacity=".21"/></linearGradient><linearGradient id="paint2_linear_2116_26726" x1="106.87" y1="38.155" x2="106.87" y2="50.215" gradientUnits="userSpaceOnUse"><stop stop-color="#2158F5"/><stop offset="1" stop-color="#68AFFF"/></linearGradient><linearGradient id="paint3_linear_2116_26726" x1="82.364" y1="38.155" x2="82.364" y2="49.958" gradientUnits="userSpaceOnUse"><stop stop-color="#2158F5"/><stop offset="1" stop-color="#255BF5" stop-opacity=".21"/></linearGradient><linearGradient id="paint4_linear_2116_26726" x1="82.364" y1="38.155" x2="82.364" y2="49.958" gradientUnits="userSpaceOnUse"><stop stop-color="#2158F5"/><stop offset="1" stop-color="#68AFFF"/></linearGradient><linearGradient id="paint5_linear_2116_26726" x1="51.83" y1="37.898" x2="51.83" y2="50.214" gradientUnits="userSpaceOnUse"><stop stop-color="#2158F5"/><stop offset="1" stop-color="#68AFFF"/></linearGradient><linearGradient id="paint6_linear_2116_26726" x1="66.994" y1="55.834" x2="87.815" y2="22.856" gradientUnits="userSpaceOnUse"><stop stop-color="#2158F5"/><stop offset="1" stop-color="#2158F5" stop-opacity="0"/></linearGradient><linearGradient id="paint7_linear_2116_26726" x1="44.577" y1="73.573" x2="75.641" y2="72.278" gradientUnits="userSpaceOnUse"><stop stop-color="#2158F5"/><stop offset="1" stop-color="#2158F5" stop-opacity="0"/></linearGradient><linearGradient id="paint8_linear_2116_26726" x1="104.857" y1="73.83" x2="134.491" y2="72.668" gradientUnits="userSpaceOnUse"><stop stop-color="#2158F5"/><stop offset="1" stop-color="#2158F5" stop-opacity="0"/></linearGradient><linearGradient id="paint9_linear_2116_26726" x1="73.115" y1="73.052" x2="101.183" y2="59.289" gradientUnits="userSpaceOnUse"><stop stop-color="#2158F5"/><stop offset="1" stop-color="#2158F5" stop-opacity="0"/></linearGradient><linearGradient id="paint10_linear_2116_26726" x1="3.456" y1="65.871" x2="29.578" y2="64.001" gradientUnits="userSpaceOnUse"><stop stop-color="#2158F5"/><stop offset="1" stop-color="#2158F5" stop-opacity="0"/></linearGradient><linearGradient id="paint11_linear_2116_26726" x1=".899" y1="73.821" x2="38.968" y2="57.807" gradientUnits="userSpaceOnUse"><stop stop-color="#2158F5"/><stop offset="1" stop-color="#2158F5" stop-opacity="0"/></linearGradient><linearGradient id="paint14_linear_2116_26726" x1="107.404" y1="-1.449" x2="107.404" y2="11.935" gradientUnits="userSpaceOnUse"><stop stop-color="#4A9029"/><stop offset="1" stop-color="#15B725"/></linearGradient><linearGradient id="paint15_linear_2116_26726" x1="107.404" y1="-1.449" x2="107.404" y2="11.935" gradientUnits="userSpaceOnUse"><stop stop-color="#4A9029"/><stop offset="1" stop-color="#15B725"/></linearGradient><linearGradient id="paint16_linear_2116_26726" x1="107.404" y1="-1.449" x2="107.404" y2="11.935" gradientUnits="userSpaceOnUse"><stop stop-color="#4A9029"/><stop offset="1" stop-color="#15B725"/></linearGradient><linearGradient id="paint17_linear_2116_26726" x1="107.404" y1="-1.449" x2="107.404" y2="11.935" gradientUnits="userSpaceOnUse"><stop stop-color="#4A9029"/><stop offset="1" stop-color="#15B725"/></linearGradient><linearGradient id="paint18_linear_2116_26726" x1="70.917" y1="8.153" x2="70.917" y2="19.864" gradientUnits="userSpaceOnUse"><stop stop-color="#4A9029"/><stop offset="1" stop-color="#15B725"/></linearGradient><linearGradient id="paint19_linear_2116_26726" x1="70.917" y1="8.153" x2="70.917" y2="19.864" gradientUnits="userSpaceOnUse"><stop stop-color="#4A9029"/><stop offset="1" stop-color="#15B725"/></linearGradient><linearGradient id="paint20_linear_2116_26726" x1="70.917" y1="8.153" x2="70.917" y2="19.864" gradientUnits="userSpaceOnUse"><stop stop-color="#4A9029"/><stop offset="1" stop-color="#15B725"/></linearGradient><linearGradient id="paint21_linear_2116_26726" x1="70.917" y1="8.153" x2="70.917" y2="19.864" gradientUnits="userSpaceOnUse"><stop stop-color="#4A9029"/><stop offset="1" stop-color="#15B725"/></linearGradient><linearGradient id="paint22_linear_2116_26726" x1="33.57" y1="18.35" x2="33.57" y2="31.734" gradientUnits="userSpaceOnUse"><stop stop-color="#4A9029"/><stop offset="1" stop-color="#15B725"/></linearGradient><linearGradient id="paint23_linear_2116_26726" x1="33.57" y1="18.35" x2="33.57" y2="31.734" gradientUnits="userSpaceOnUse"><stop stop-color="#4A9029"/><stop offset="1" stop-color="#15B725"/></linearGradient><linearGradient id="paint24_linear_2116_26726" x1="33.57" y1="18.35" x2="33.57" y2="31.734" gradientUnits="userSpaceOnUse"><stop stop-color="#4A9029"/><stop offset="1" stop-color="#15B725"/></linearGradient><radialGradient id="paint12_radial_2116_26726" cx="0" cy="0" r="1" gradientUnits="userSpaceOnUse" gradientTransform="matrix(0 1.02632 -67.2242 0 77.744 84.597)"><stop stop-color="#17104E"/><stop offset="1" stop-color="#300084" stop-opacity="0"/></radialGradient><radialGradient id="paint13_radial_2116_26726" cx="0" cy="0" r="1" gradientUnits="userSpaceOnUse" gradientTransform="matrix(0 11.2324 -10.0976 0 78.495 62.312)"><stop stop-color="#17104E"/><stop offset="1" stop-color="#300084" stop-opacity="0"/></radialGradient></defs></svg>