<svg width="72" height="72" fill="none" xmlns="http://www.w3.org/2000/svg"><circle cx="36" cy="36" r="35" stroke="#2158F5" stroke-width="2"/><path d="M34 42.286v10.76L18.855 37.348l-.008-.009-.009-.008a8.363 8.363 0 01-1.162-1.479 12.365 12.365 0 01-.925-1.807 9.134 9.134 0 01-.546-1.887A13.075 13.075 0 0116 30.124c.002-.945.117-1.837.341-2.683.23-.864.559-1.67.988-2.426a10.24 10.24 0 011.528-2.057 9.893 9.893 0 011.968-1.579 9.224 9.224 0 012.297-1.01 9.863 9.863 0 012.58-.369c1.044.001 1.904.125 2.605.338a8.36 8.36 0 012.066.935c.644.409 1.288.922 1.93 1.55.72.703 1.475 1.46 2.269 2.269l1.469 1.5 1.426-1.541c.706-.761 1.4-1.469 2.085-2.123a13.55 13.55 0 011.984-1.576 8.884 8.884 0 012.107-1.003c.686-.223 1.497-.349 2.455-.349 1.376 0 2.65.256 3.842.758a9.428 9.428 0 013.126 2.12 10.601 10.601 0 012.153 3.237c.51 1.182.781 2.516.781 4.028 0 1.301-.16 2.353-.437 3.19-.3.91-.709 1.733-1.225 2.477a17.266 17.266 0 01-1.965 2.34c-.665.667-1.36 1.379-2.084 2.136H34v2z" stroke="#56CCF2" stroke-width="4"/><mask id="a" fill="#fff"><path d="M41.75 53.143V56h16.5v-2.857h-16.5zM39 46v2.857h19.25V46H39z"/></mask><path d="M41.75 56h-4v4h4v-4zm0-2.857v-4h-4v4h4zm16.5 0h4v-4h-4v4zm0 2.857v4h4v-4h-4zM39 48.857h-4v4h4v-4zM39 46v-4h-4v4h4zm19.25 0h4v-4h-4v4zm0 2.857v4h4v-4h-4zM45.75 56v-2.857h-8V56h8zm-4 1.143h16.5v-8h-16.5v8zm12.5-4V56h8v-2.857h-8zm4-1.143h-16.5v8h16.5v-8zM43 48.857V46h-8v2.857h8zM39 50h19.25v-8H39v8zm15.25-4v2.857h8V46h-8zm4-1.143H39v8h19.25v-8z" fill="#56CCF2" mask="url(#a)"/></svg>