<svg width="45" height="20" fill="none" xmlns="http://www.w3.org/2000/svg"><path d="M22.782 11.766V16h-1.313V4.797h3.078c1.198 0 2.125.292 2.782.875.661.583.992 1.406.992 2.469 0 1.062-.367 1.932-1.102 2.609-.729.677-1.716 1.016-2.96 1.016h-1.477zm0-5.782v4.594h1.375c.906 0 1.596-.206 2.07-.617.48-.417.719-1.003.719-1.758 0-1.479-.875-2.219-2.625-2.219h-1.54zM35.446 16h-1.281v-1.25h-.032c-.557.958-1.377 1.438-2.46 1.438-.797 0-1.422-.211-1.875-.633-.448-.422-.672-.982-.672-1.68 0-1.495.88-2.365 2.64-2.61l2.399-.335c0-1.36-.55-2.04-1.649-2.04-.963 0-1.833.329-2.61.985V8.562c.787-.5 1.694-.75 2.72-.75 1.88 0 2.82.995 2.82 2.985V16zm-1.281-4.047l-1.93.266c-.594.083-1.042.232-1.344.445-.302.208-.453.58-.453 1.117 0 .39.138.711.414.961.281.245.654.367 1.117.367.636 0 1.16-.221 1.57-.664.417-.448.626-1.013.626-1.695v-.797zM44.227 8l-3.68 9.281c-.656 1.657-1.578 2.485-2.765 2.485-.333 0-.612-.034-.836-.102v-1.148c.276.093.529.14.758.14.646 0 1.13-.385 1.453-1.156l.64-1.516L36.673 8h1.421l2.164 6.156c.026.078.081.281.164.61h.047c.026-.125.078-.323.157-.594L42.899 8h1.328zM8.586 6.523c-.534 0-1.36-.63-2.229-.606-1.147.015-2.2.689-2.791 1.757-1.191 2.144-.307 5.31.855 7.053.57.848 1.242 1.803 2.133 1.772.855-.038 1.177-.575 2.214-.575 1.03 0 1.323.575 2.229.553.92-.016 1.505-.864 2.068-1.72.65-.985.92-1.94.935-1.992a3.075 3.075 0 01-1.812-2.834c-.015-1.772 1.396-2.62 1.461-2.659-.803-1.22-2.038-1.356-2.47-1.386-1.125-.09-2.067.637-2.593.637zm1.9-1.788c.474-.591.789-1.417.7-2.235-.679.03-1.497.47-1.987 1.06-.438.523-.818 1.364-.716 2.167.753.06 1.527-.401 2.002-.992z" fill="#fff"/></svg>