<svg width="52" height="25" fill="none" xmlns="http://www.w3.org/2000/svg"><path d="M10.156 7.183c-.97 0-2.471-1.123-4.052-1.082-2.086.027-3.999 1.23-5.075 3.138-2.166 3.829-.558 9.483 1.554 12.594 1.036 1.515 2.259 3.22 3.88 3.166 1.554-.068 2.138-1.028 4.025-1.028 1.873 0 2.405 1.028 4.052.987 1.674-.027 2.737-1.542 3.76-3.07 1.182-1.76 1.673-3.464 1.7-3.558-.04-.014-3.255-1.272-3.295-5.06-.026-3.165 2.538-4.68 2.657-4.748-1.461-2.178-3.706-2.421-4.49-2.475-2.046-.163-3.76 1.136-4.716 1.136zm3.454-3.192c.863-1.056 1.435-2.53 1.275-3.991-1.235.054-2.723.839-3.613 1.894-.797.933-1.488 2.435-1.302 3.869 1.368.108 2.776-.717 3.64-1.772zm16.171 10.775V19H28.47V7.797h3.078c1.198 0 2.125.292 2.781.875.662.583.992 1.406.992 2.469 0 1.062-.367 1.932-1.101 2.609-.73.677-1.716 1.016-2.961 1.016H29.78zm0-5.782v4.594h1.375c.907 0 1.597-.206 2.07-.617.48-.417.72-1.003.72-1.758 0-1.479-.876-2.219-2.626-2.219h-1.539zM42.445 19h-1.28v-1.25h-.032c-.558.958-1.378 1.438-2.461 1.438-.797 0-1.422-.211-1.875-.633-.448-.422-.672-.982-.672-1.68 0-1.495.88-2.365 2.64-2.61l2.4-.335c0-1.36-.55-2.04-1.65-2.04-.963 0-1.833.329-2.609.985v-1.313c.787-.5 1.693-.75 2.719-.75 1.88 0 2.82.995 2.82 2.985V19zm-1.28-4.047l-1.93.266c-.594.083-1.042.232-1.344.445-.302.208-.453.58-.453 1.117 0 .39.137.711.414.961.28.245.653.367 1.117.367.635 0 1.159-.221 1.57-.664.417-.448.625-1.013.625-1.695v-.797zM51.226 11l-3.68 9.281c-.656 1.657-1.578 2.485-2.766 2.485-.333 0-.612-.034-.836-.102v-1.148c.276.093.529.14.758.14.646 0 1.13-.385 1.453-1.156l.64-1.516L43.673 11h1.422l2.164 6.156c.026.078.08.282.164.61h.047a9.12 9.12 0 01.156-.594L49.898 11h1.329z" fill="#000"/></svg>