<svg width="47" height="24" fill="none" xmlns="http://www.w3.org/2000/svg"><rect x=".5" y=".5" width="46" height="23" rx="3.5" stroke="#E7E7E7"/><path d="M12.094 8.31c-.582 0-1.483-.674-2.432-.65-1.251.017-2.399.74-3.045 1.884-1.299 2.296-.334 5.69.933 7.556.622.909 1.355 1.932 2.327 1.9.933-.041 1.284-.618 2.416-.618 1.124 0 1.443.617 2.43.593 1.005-.016 1.643-.925 2.257-1.843A8.227 8.227 0 0018 14.998c-.024-.008-1.953-.763-1.977-3.036-.016-1.899 1.523-2.808 1.594-2.849-.876-1.306-2.224-1.452-2.694-1.485-1.227-.097-2.256.682-2.83.682zm2.072-1.916c.518-.633.86-1.517.765-2.394-.741.032-1.634.503-2.168 1.136-.478.56-.893 1.461-.781 2.322.82.065 1.666-.43 2.184-1.064z" fill="#000"/><g clip-path="url(#clip0)"><path d="M25.086 13.324V16.5h-.984V8.098h2.308c.899 0 1.594.218 2.086.656.496.437.744 1.055.744 1.851 0 .797-.275 1.45-.826 1.957-.547.508-1.287.762-2.22.762h-1.108zm0-4.336v3.446h1.031c.68 0 1.197-.155 1.553-.463.36-.313.539-.752.539-1.319 0-1.109-.656-1.664-1.969-1.664h-1.154zm9.498 7.512h-.961v-.938H33.6c-.418.72-1.034 1.079-1.846 1.079-.598 0-1.067-.159-1.406-.475-.336-.316-.504-.736-.504-1.26 0-1.12.66-1.773 1.98-1.957l1.799-.252c0-1.02-.412-1.529-1.236-1.529-.723 0-1.375.246-1.957.738v-.984c.59-.375 1.27-.563 2.039-.563 1.41 0 2.115.746 2.115 2.239V16.5zm-.961-3.035l-1.447.2c-.446.062-.782.173-1.008.333-.227.156-.34.436-.34.838a.93.93 0 00.31.72c.212.184.49.276.839.276.476 0 .869-.166 1.177-.498.313-.336.469-.76.469-1.271v-.598zM41.17 10.5l-2.76 6.96c-.492 1.243-1.183 1.864-2.074 1.864-.25 0-.459-.025-.627-.076v-.861c.207.07.396.105.568.105.485 0 .848-.289 1.09-.867l.48-1.137-2.343-5.988h1.066l1.623 4.617c.02.059.06.211.123.457h.036a6.84 6.84 0 01.117-.445l1.705-4.629h.996z" fill="#000"/></g><defs><clipPath id="clip0"><path fill="#fff" transform="translate(23 3.5)" d="M0 0h19v16H0z"/></clipPath></defs></svg>