<svg width="83" height="53" fill="none" xmlns="http://www.w3.org/2000/svg"><path d="M38 28H2a2 2 0 00-2 2v21a2 2 0 002 2h36a2 2 0 002-2V30a2 2 0 00-2-2z" fill="#0A7EC2"/><path d="M9.484 36.625v.137c0 .836-.002 1.672.002 2.508 0 .116-.03.155-.148.151a13.699 13.699 0 00-.728-.001c-.086.002-.117-.028-.117-.115.002-1.228.002-2.455 0-3.682 0-.086.031-.12.116-.12.464.002.927.003 1.39 0 .098 0 .126.055.154.132.26.727.522 1.453.785 2.178.019.053.043.104.08.187.04-.102.073-.173.099-.246.251-.702.503-1.404.75-2.107.036-.103.083-.148.197-.146.432.006.865.006 1.298 0 .124-.002.155.044.155.163-.004 1.2-.005 2.402 0 3.602 0 .128-.041.159-.16.155a8.308 8.308 0 00-.688 0c-.12.005-.147-.04-.146-.153.004-.828.002-1.655.002-2.482v-.156l-.033-.01c-.022.045-.048.087-.065.133-.31.846-.62 1.691-.924 2.538-.034.094-.077.133-.18.13a8.683 8.683 0 00-.635 0c-.1.003-.147-.033-.18-.128-.306-.847-.616-1.693-.925-2.538-.017-.047-.041-.092-.063-.137l-.036.007zm25.38 1.244c.004-.06.012-.121.012-.181v-2.002c0-.181.002-.182.174-.182.225 0 .45.003.676-.002.103-.002.148.024.148.142a574.712 574.712 0 000 3.643c0 .111-.04.135-.14.133a30.56 30.56 0 00-.966 0c-.095.002-.153-.03-.205-.11a549.28 549.28 0 00-1.462-2.224c-.033-.05-.072-.093-.109-.14l-.035.012v.152c0 .716-.003 1.432.003 2.149 0 .131-.04.166-.165.162-.243-.01-.486-.006-.729-.001-.09.002-.122-.028-.122-.122.002-1.224.002-2.447 0-3.67 0-.094.032-.126.122-.126.358.003.716.004 1.073 0 .09-.001.135.043.18.11.468.712.938 1.422 1.41 2.132.03.047.065.09.099.136l.036-.011zm-13.932.133l1.285 1.415c-.416 0-.807.003-1.198-.004-.045-.001-.095-.057-.131-.098-.344-.394-.684-.79-1.026-1.186-.074-.085-.361-.146-.45-.085-.03.02-.043.082-.043.126-.003.368-.006.738 0 1.106.002.11-.03.148-.142.144a15.187 15.187 0 00-.754 0c-.094.002-.12-.033-.12-.124.002-1.223.002-2.446 0-3.668 0-.094.032-.126.122-.125.785.005 1.571-.003 2.356.016.597.014 1.081.48 1.155 1.07a1.242 1.242 0 01-.884 1.36l-.17.053zM20 37.196h.543c.26-.02.427-.173.433-.396.005-.241-.144-.41-.413-.423-.36-.019-.723-.015-1.084-.021-.075-.002-.113.029-.113.11.003.205.003.41 0 .614-.001.085.032.12.117.117.173-.004.345 0 .517-.001zm3.647 6.896l1.277 1.405h-.26c-.29 0-.582.005-.873-.004a.277.277 0 01-.18-.082c-.309-.348-.627-.689-.908-1.059-.168-.22-.357-.258-.608-.208-.005.053-.014.108-.014.165-.002.342-.005.684 0 1.027.003.117-.028.169-.155.164-.238-.01-.477-.006-.715-.002-.092.002-.135-.021-.135-.125.002-1.223.002-2.446 0-3.669 0-.084.025-.118.114-.118.745.003 1.492-.014 2.237.007.56.016 1.036.28 1.208.826.212.671-.072 1.37-.799 1.607-.053.017-.105.037-.189.066zm-.927-1.656a.16.16 0 000 .012c-.168 0-.336.004-.503-.002-.096-.003-.138.029-.137.127.003.196.003.391 0 .587-.002.093.04.126.128.124.366-.006.732-.004 1.098-.017.213-.008.36-.154.374-.342.018-.244-.082-.408-.316-.447-.211-.035-.429-.03-.644-.042zm-8.367-4.976c0-.6.004-1.201-.002-1.802-.002-.128.043-.157.16-.157.993.004 1.986.004 2.98 0 .122 0 .162.04.154.162-.01.168-.002.338-.002.507 0 .184 0 .185-.178.185h-1.893c-.205 0-.205 0-.205.203 0 .107.006.214-.002.32-.01.118.037.155.152.154.609-.004 1.218-.002 1.827-.002.288 0 .242-.024.246.25.001.151-.008.303.002.454.008.122-.042.15-.153.15-.618-.005-1.236-.003-1.854-.002-.219 0-.219 0-.219.217 0 .098.007.196-.001.293-.012.127.031.17.161.168.64-.006 1.28-.002 1.92-.002.197 0 .197 0 .197.204 0 .182-.003.365.001.547.002.08-.026.11-.107.11a655.524 655.524 0 00-3.072 0c-.103 0-.113-.049-.113-.131.002-.61.001-1.219.001-1.828zm10.941 6.065c0-.596.003-1.192-.002-1.788-.001-.114.028-.153.147-.152.993.004 1.987.004 2.98 0 .113 0 .16.03.154.15-.008.19-.007.382 0 .573.004.114-.042.142-.148.142-.649-.004-1.298-.002-1.947-.002-.17 0-.17 0-.171.178 0 .11.009.223-.002.333-.013.129.041.154.157.153.627-.005 1.254.001 1.88-.006.133 0 .182.032.173.17a5.817 5.817 0 000 .56c.003.107-.036.137-.14.136-.635-.004-1.27.002-1.906-.004-.126-.001-.175.034-.164.164.01.133.006.267 0 .4-.003.083.033.113.108.113h.464c.512 0 1.024.004 1.537-.002.121-.001.164.04.159.162a6.247 6.247 0 000 .534c.005.122-.036.161-.159.16-.927-.004-1.854-.002-2.78-.002-.34 0-.34 0-.34-.343v-1.629zM9.508 43.11h1.411c.22 0 .441.003.662-.002.096-.003.135.025.132.127-.007.2-.007.4 0 .6.004.105-.03.138-.136.137-.63-.004-1.262-.002-1.893-.002-.176 0-.176 0-.176.173v.49c.08.005.145.012.21.012.627 0 1.254.004 1.88-.003.135-.001.178.041.17.176a6.19 6.19 0 000 .546c.002.096-.027.134-.128.134a584.12 584.12 0 00-3.018 0c-.1 0-.129-.035-.129-.132.003-1.219.003-2.437 0-3.656 0-.09.026-.125.121-.125 1.01.003 2.021.003 3.032 0 .094 0 .123.033.121.124a11.3 11.3 0 000 .614c.004.103-.038.127-.132.126-.657-.003-1.315.001-1.973-.004-.12-.001-.164.032-.156.156.01.163.002.328.002.508zm-1.276-3.692h-.764c-.364 0-.363 0-.505-.34-.051-.123-.096-.25-.158-.367-.024-.043-.09-.089-.136-.09a67.58 67.58 0 00-1.642.001c-.049 0-.12.055-.142.102-.09.193-.162.394-.25.588-.02.044-.074.1-.114.101-.334.008-.67.005-1.021.005.013-.044.02-.077.032-.107.538-1.227 1.076-2.454 1.611-3.683.04-.09.087-.128.187-.127.358.006.715.003 1.073.002.075 0 .132.01.168.092.546 1.253 1.095 2.505 1.643 3.757.006.012.007.025.018.066zm-2.361-2.97l-.048.003c-.18.434-.36.869-.549 1.321h1.148l-.551-1.324zm21.079 2.969l.223-.514c.471-1.077.945-2.153 1.411-3.232.057-.132.13-.175.268-.17.34.009.68.005 1.02.001.087 0 .134.03.17.112.538 1.236 1.08 2.471 1.62 3.707l.037.097h-.23c-.264 0-.529-.002-.793.002-.078.001-.12-.025-.149-.099-.078-.198-.166-.392-.245-.59-.032-.08-.075-.116-.166-.115-.539.004-1.077.003-1.615 0-.084 0-.128.03-.159.106-.077.199-.157.396-.243.59-.019.043-.067.1-.102.101-.338.008-.677.005-1.047.005zm2.384-2.969l-.049.004-.546 1.318h1.144l-.549-1.322zm7.079 5.139c-.13.288-.244.547-.37.801-.017.035-.093.057-.142.057-.53.004-1.06.002-1.59.003-.154 0-.292.046-.364.194-.108.222.055.46.319.465.313.006.628-.013.94.007.225.015.456.052.67.124.329.11.526.365.591.709.094.492-.006.928-.403 1.261-.209.176-.46.274-.729.279-.728.012-1.457.006-2.185.01-.092.001-.124-.031-.121-.124a8.448 8.448 0 00-.001-.587c-.005-.116.042-.143.147-.142.6.003 1.2.002 1.801 0 .075 0 .15-.004.224-.014a.322.322 0 00.047-.633.75.75 0 00-.195-.026c-.34-.003-.68.01-1.02-.005-.334-.015-.635-.125-.867-.39-.433-.494-.358-1.523.434-1.847.207-.085.442-.13.667-.136.661-.017 1.324-.006 1.986-.006h.16zm-3.851 0c-.131.286-.246.55-.374.806-.017.034-.096.052-.146.052-.512.004-1.024.002-1.536.003a.734.734 0 00-.182.02c-.188.049-.276.18-.254.363.02.158.155.274.338.277.291.004.583-.011.873.005.232.014.47.032.688.102.369.117.593.39.654.78.089.567-.102 1.114-.66 1.361a1.47 1.47 0 01-.546.131c-.701.016-1.403.007-2.105.012-.106 0-.138-.041-.136-.142a8.5 8.5 0 000-.56c-.004-.119.042-.154.155-.153.591.004 1.183.002 1.774.001.075 0 .15-.004.224-.013.181-.021.287-.123.298-.282.014-.192-.07-.311-.26-.358a.788.788 0 00-.182-.02c-.34-.003-.68.009-1.02-.006a1.183 1.183 0 01-.82-.349c-.468-.476-.447-1.634.537-1.943a1.93 1.93 0 01.545-.082c.662-.01 1.324-.004 1.986-.004h.149zm-15.837 3.91h-.31c-.286 0-.573-.004-.86.002a.258.258 0 01-.225-.106c-.286-.344-.58-.682-.87-1.023l-.104-.124c-.047.045-.084.074-.114.11-.294.343-.588.686-.878 1.033-.062.074-.125.111-.224.11-.37-.005-.74-.002-1.146-.002.16-.184.3-.345.442-.506.398-.453.794-.907 1.196-1.356.076-.085.078-.136.003-.22-.473-.529-.94-1.062-1.41-1.594l-.202-.234h.416c.252 0 .504.005.755-.002a.26.26 0 01.227.104c.28.333.565.66.843.993.074.089.12.09.194.003.288-.342.58-.682.874-1.019.034-.038.093-.075.141-.076.375-.006.75-.003 1.126-.003.011 0 .023.007.054.016-.122.14-.237.273-.353.404-.407.463-.812.927-1.224 1.385-.08.088-.068.14.002.22.508.575 1.013 1.152 1.519 1.729.036.042.07.085.128.156zm.198-1.954c0-.605.002-1.209-.002-1.813-.001-.11.03-.146.14-.145.738.005 1.475-.01 2.21.007.645.013 1.126.358 1.274.958.216.876-.38 1.651-1.278 1.66-.397.003-.794.004-1.191-.001-.11-.001-.145.037-.143.146.006.338 0 .676.004 1.014.002.1-.033.132-.13.13a16.638 16.638 0 00-.754 0c-.11.003-.133-.041-.132-.142.004-.605.002-1.21.002-1.814zm1.664-.194c.18 0 .361.005.542-.001.167-.006.308-.066.39-.227.161-.322-.045-.662-.416-.671-.347-.008-.696 0-1.044-.004-.087 0-.128.024-.125.12.005.222.005.445 0 .666-.003.098.036.121.124.119.176-.005.353-.001.53-.002zm8.228-4.784c-.132.281-.256.545-.383.807-.01.022-.048.043-.074.044-.435.016-.864-.008-1.262-.217-.524-.275-.792-.732-.883-1.301-.069-.43-.048-.86.11-1.273.24-.624.704-.997 1.351-1.073.528-.063 1.066-.037 1.599-.044.03 0 .087.061.088.095.008.227.002.454.006.68.001.1-.06.104-.13.104-.296 0-.592-.005-.888.002-.149.003-.3.012-.446.043-.364.077-.603.309-.665.674-.04.236-.04.49.003.725.086.457.427.704.933.724.163.007.327.002.49.003.043 0 .085.004.151.007zm-4.229-1.112v-1.761c0-.188 0-.189.193-.189.225 0 .45.003.675 0 .094-.002.134.03.134.13-.002 1.222-.002 2.445 0 3.668 0 .097-.041.12-.128.118a15.658 15.658 0 00-.742.001c-.11.004-.134-.04-.133-.14.002-.609.001-1.218.001-1.827z" fill="#fff"/><g clip-path="url(#clip0)"><path d="M81 .25H45A1.75 1.75 0 0043.25 2v21c0 .966.783 1.75 1.75 1.75h36A1.75 1.75 0 0082.75 23V2A1.75 1.75 0 0081 .25z" fill="#fff" stroke="#EFEFEF"/><path d="M82.5 15.5s-6.5 5.464-18.5 9h17.046c.831 0 1.502-.677 1.497-1.509L82.5 15.5z" fill="#F58220"/><path d="M47.6 10.235H46v5.579h1.6c.88 0 1.52-.236 2-.629.64-.471 1.04-1.336 1.04-2.121 0-1.65-1.28-2.829-3.04-2.829zm1.28 4.243c-.32.314-.8.471-1.52.471h-.32v-3.693h.32c.72 0 1.12.158 1.52.472.4.314.64.864.64 1.414-.08.472-.24 1.022-.64 1.336zm3.361-4.243h-1.12v5.579h1.12v-5.579zm2.721 2.2c-.64-.236-.88-.393-.88-.707 0-.314.32-.629.8-.629.32 0 .64.157.88.472l.56-.707c-.48-.393-1.04-.629-1.68-.629-1.04 0-1.76.707-1.76 1.571 0 .786.32 1.179 1.36 1.493.4.157.64.236.8.315.24.157.32.314.32.55 0 .471-.4.785-.88.785-.56 0-.96-.235-1.2-.707l-.72.707c.48.707 1.12 1.1 2 1.1 1.12 0 2-.785 2-1.807 0-.943-.32-1.414-1.6-1.807zm2 .629c0 1.65 1.28 2.907 3.04 2.907.48 0 .88-.078 1.36-.314V14.4c-.48.471-.8.629-1.36.629-1.12 0-1.92-.786-1.92-1.965 0-1.1.8-1.885 1.84-1.885.56 0 .96.157 1.36.628v-1.336a2.869 2.869 0 00-1.36-.314c-1.68 0-2.96 1.257-2.96 2.907zm13.118.942l-1.44-3.771h-1.28l2.48 5.736h.56l2.48-5.736h-1.2l-1.6 3.771zm3.283 1.886h3.12v-1.021h-2v-1.493h1.92v-.943h-1.92v-1.257h2v-.943h-3.12v5.657zm7.519-4.007c0-1.021-.72-1.65-2-1.65h-1.68v5.579h1.12v-2.279h.16l1.52 2.279h1.36l-1.76-2.358c.8-.157 1.28-.707 1.28-1.571zm-2.24.943h-.32v-1.729h.32c.72 0 1.04.315 1.04.865.08.55-.32.864-1.04.864z" fill="#000"/><path d="M67.762 13.065c0 1.65-1.36 2.986-3.04 2.986s-3.04-1.336-3.04-2.986c0-1.65 1.36-2.986 3.04-2.986s3.04 1.336 3.04 2.986z" fill="url(#paint0_linear)"/><path opacity=".65" d="M67.762 13.065c0 1.65-1.36 2.986-3.04 2.986s-3.04-1.336-3.04-2.986c0-1.65 1.36-2.986 3.04-2.986s3.04 1.336 3.04 2.986z" fill="url(#paint1_linear)"/><g opacity=".5"><path opacity=".5" d="M67.84 13.064c0 1.65-1.36 3.064-3.12 3.064-1.68 0-3.12-1.335-3.12-3.064 0-1.728 1.36-3.064 3.12-3.064 1.68.079 3.12 1.414 3.12 3.064z" fill="#000"/><path opacity=".5" d="M64.72 10.08c1.68 0 3.12 1.335 3.12 3.063 0 1.73-1.36 3.065-3.12 3.065-1.68 0-3.12-1.336-3.12-3.064 0-1.729 1.44-3.065 3.12-3.065z" fill="#030304"/><path opacity=".5" d="M64.72 10.08c1.68 0 3.12 1.335 3.12 3.063 0 1.65-1.36 3.065-3.12 3.065-1.68 0-3.12-1.336-3.12-3.064 0-1.729 1.44-3.065 3.12-3.065z" fill="#080808"/><path opacity=".5" d="M64.72 10.08c1.68 0 3.12 1.335 3.12 3.063 0 1.65-1.36 3.065-3.12 3.065-1.68 0-3.12-1.336-3.12-3.064.08-1.729 1.44-3.065 3.12-3.065z" fill="#0C0C0C"/><path opacity=".5" d="M64.72 10.08c1.68 0 3.12 1.335 3.12 3.063 0 1.65-1.36 3.065-3.12 3.065-1.68 0-3.12-1.336-3.12-3.064.08-1.729 1.44-3.065 3.12-3.065z" fill="#100F10"/><path opacity=".5" d="M64.72 10.08c1.68 0 3.12 1.335 3.12 3.063 0 1.65-1.36 3.065-3.12 3.065-1.68 0-3.12-1.336-3.12-3.064.08-1.729 1.44-3.065 3.12-3.065z" fill="#131313"/><path opacity=".5" d="M64.72 10.08c1.68 0 3.12 1.335 3.12 3.063 0 1.65-1.36 3.065-3.12 3.065-1.68 0-3.12-1.336-3.12-3.064.08-1.729 1.44-3.065 3.12-3.065z" fill="#161616"/><path opacity=".5" d="M64.72 10.08c1.68 0 3.12 1.335 3.12 3.063 0 1.65-1.36 3.065-3.12 3.065-1.68 0-3.12-1.336-3.12-3.064.08-1.729 1.44-3.065 3.12-3.065z" fill="#191919"/><path opacity=".5" d="M64.72 10.08c1.68 0 3.12 1.335 3.12 3.063 0 1.65-1.36 3.065-3.12 3.065-1.68 0-3.12-1.336-3.12-3.064.08-1.729 1.44-3.065 3.12-3.065z" fill="#1C1B1C"/><path opacity=".5" d="M64.72 10.08c1.68 0 3.12 1.335 3.12 3.063 0 1.65-1.36 3.065-3.12 3.065-1.68 0-3.12-1.336-3.12-3.064.08-1.729 1.44-3.065 3.12-3.065z" fill="#1E1E1F"/><path opacity=".5" d="M64.72 10.08c1.68 0 3.12 1.335 3.12 3.063 0 1.65-1.36 3.065-3.12 3.065-1.68 0-3.12-1.336-3.12-3.064.08-1.729 1.44-3.065 3.12-3.065z" fill="#212021"/><path opacity=".5" d="M64.72 10.08c1.68 0 3.12 1.335 3.12 3.063 0 1.65-1.36 3.065-3.12 3.065-1.68 0-3.12-1.336-3.12-3.064.08-1.729 1.44-3.065 3.12-3.065z" fill="#232324"/><path opacity=".5" d="M64.72 10.08c1.68 0 3.12 1.335 3.12 3.063 0 1.65-1.36 3.065-3.12 3.065-1.68 0-3.12-1.336-3.12-3.064.08-1.729 1.44-3.065 3.12-3.065z" fill="#252526"/><path opacity=".5" d="M64.72 10.08c1.68 0 3.12 1.335 3.12 3.063 0 1.65-1.36 3.065-3.12 3.065-1.68 0-3.12-1.336-3.12-3.064.08-1.729 1.44-3.065 3.12-3.065z" fill="#282728"/><path opacity=".5" d="M64.72 10.08c1.68 0 3.12 1.335 3.12 3.063 0 1.65-1.36 3.065-3.12 3.065-1.68 0-3.12-1.336-3.12-3.064.08-1.729 1.44-3.065 3.12-3.065z" fill="#2A292B"/><path opacity=".5" d="M64.72 10.08c1.68 0 3.12 1.335 3.12 3.063 0 1.65-1.36 3.065-3.12 3.065-1.68 0-3.12-1.336-3.12-3.064.08-1.729 1.44-3.065 3.12-3.065z" fill="#2C2C2D"/><path opacity=".5" d="M64.72 10.08c1.68 0 3.12 1.335 3.12 3.063 0 1.65-1.36 3.065-3.12 3.065-1.68 0-3.12-1.336-3.12-3.064.08-1.729 1.44-3.065 3.12-3.065z" fill="#2E2E2F"/><path opacity=".5" d="M64.72 10.08c1.68 0 3.12 1.335 3.12 3.063 0 1.65-1.36 2.986-3.12 2.986-1.68 0-3.12-1.336-3.12-2.986.08-1.65 1.44-3.064 3.12-3.064z" fill="#303031"/><path opacity=".5" d="M64.722 10.08c1.68 0 3.04 1.335 3.04 2.985s-1.36 2.986-3.04 2.986-3.04-1.336-3.04-2.986c0-1.572 1.36-2.986 3.04-2.986z" fill="#323133"/><path opacity=".5" d="M64.722 10.08c1.68 0 3.04 1.335 3.04 2.985s-1.36 2.986-3.04 2.986-3.04-1.336-3.04-2.986c0-1.572 1.36-2.986 3.04-2.986z" fill="#343335"/><path opacity=".5" d="M64.722 10.08c1.68 0 3.04 1.335 3.04 2.985s-1.36 2.986-3.04 2.986-3.04-1.336-3.04-2.986c0-1.572 1.36-2.986 3.04-2.986z" fill="#363537"/><path opacity=".5" d="M64.722 10.08c1.68 0 3.04 1.335 3.04 2.985s-1.36 2.986-3.04 2.986-3.04-1.336-3.04-2.986c0-1.572 1.36-2.986 3.04-2.986z" fill="#373739"/><path opacity=".5" d="M64.722 10.08c1.68 0 3.04 1.335 3.04 2.985s-1.36 2.986-3.04 2.986-3.04-1.336-3.04-2.986c0-1.572 1.36-2.986 3.04-2.986z" fill="#39393A"/><path opacity=".5" d="M64.722 10.08c1.68 0 3.04 1.335 3.04 2.985s-1.36 2.986-3.04 2.986-3.04-1.336-3.04-2.986c0-1.572 1.36-2.986 3.04-2.986z" fill="#3B3B3C"/><path opacity=".5" d="M64.722 10.08c1.68 0 3.04 1.335 3.04 2.985s-1.36 2.986-3.04 2.986-3.04-1.336-3.04-2.986c0-1.572 1.36-2.986 3.04-2.986z" fill="#3D3C3E"/><path opacity=".5" d="M64.8 10.08c1.68 0 3.04 1.335 3.04 2.985s-1.36 2.986-3.04 2.986-3.04-1.336-3.04-2.986c-.08-1.572 1.28-2.986 3.04-2.986z" fill="#3E3E40"/><path opacity=".5" d="M64.8 10.157c1.68 0 3.04 1.336 3.04 2.986 0 1.65-1.36 2.986-3.04 2.986s-3.04-1.336-3.04-2.986c-.08-1.65 1.28-2.986 3.04-2.986z" fill="#403F41"/><path opacity=".5" d="M64.8 10.157c1.68 0 3.04 1.336 3.04 2.986 0 1.65-1.36 2.986-3.04 2.986s-3.04-1.336-3.04-2.986c-.08-1.65 1.28-2.986 3.04-2.986z" fill="#414042"/><path opacity=".5" d="M64.8 10.157c1.68 0 3.04 1.336 3.04 2.986 0 1.65-1.36 2.986-3.04 2.986s-3.04-1.336-3.04-2.986c-.08-1.65 1.28-2.986 3.04-2.986z" fill="#424143"/><path opacity=".5" d="M64.8 10.157c1.68 0 3.04 1.336 3.04 2.986 0 1.65-1.36 2.986-3.04 2.986s-3.04-1.336-3.04-2.986c-.08-1.65 1.28-2.986 3.04-2.986z" fill="#434244"/><path opacity=".5" d="M64.8 10.157c1.68 0 3.04 1.336 3.04 2.986 0 1.65-1.36 2.986-3.04 2.986s-3.04-1.336-3.04-2.986c-.08-1.65 1.28-2.986 3.04-2.986z" fill="#444345"/><path opacity=".5" d="M64.8 10.157c1.68 0 3.04 1.336 3.04 2.986 0 1.65-1.36 2.986-3.04 2.986s-3.04-1.336-3.04-2.986c-.08-1.65 1.28-2.986 3.04-2.986z" fill="#454446"/><path opacity=".5" d="M64.8 10.157c1.68 0 3.04 1.336 3.04 2.986 0 1.65-1.36 2.986-3.04 2.986s-3.04-1.336-3.04-2.986c-.08-1.65 1.28-2.986 3.04-2.986z" fill="#454547"/><path opacity=".5" d="M64.8 10.157c1.68 0 3.04 1.336 3.04 2.986 0 1.65-1.36 2.986-3.04 2.986s-3.04-1.336-3.04-2.986c-.08-1.65 1.28-2.986 3.04-2.986z" fill="#464648"/><path opacity=".5" d="M64.8 10.157c1.68 0 3.04 1.336 3.04 2.986 0 1.65-1.36 2.986-3.04 2.986s-3.04-1.336-3.04-2.986c-.08-1.65 1.28-2.986 3.04-2.986z" fill="#474749"/><path opacity=".5" d="M64.8 10.157c1.68 0 3.04 1.336 3.04 2.986 0 1.65-1.36 2.986-3.04 2.986s-3.04-1.336-3.04-2.986c-.08-1.65 1.36-2.986 3.04-2.986z" fill="#48484A"/><path opacity=".5" d="M64.8 10.157c1.68 0 3.04 1.336 3.04 2.986 0 1.65-1.36 2.986-3.04 2.986s-3.04-1.336-3.04-2.986c-.08-1.65 1.36-2.986 3.04-2.986z" fill="#49494B"/><path opacity=".5" d="M64.8 10.157c1.68 0 3.04 1.336 3.04 2.986 0 1.65-1.36 2.986-3.04 2.986s-3.04-1.336-3.04-2.986c-.08-1.65 1.36-2.986 3.04-2.986z" fill="#4A4A4C"/><path opacity=".5" d="M64.8 10.157c1.68 0 3.04 1.336 3.04 2.986 0 1.65-1.36 2.986-3.04 2.986s-3.04-1.336-3.04-2.986c-.08-1.65 1.36-2.986 3.04-2.986z" fill="#4B4B4D"/><path opacity=".5" d="M64.8 10.157c1.68 0 3.04 1.336 3.04 2.986 0 1.65-1.36 2.986-3.04 2.986s-3.04-1.336-3.04-2.986c-.08-1.65 1.36-2.986 3.04-2.986z" fill="#4C4C4E"/><path opacity=".5" d="M64.8 10.157c1.68 0 3.04 1.336 3.04 2.986 0 1.65-1.36 2.986-3.04 2.986s-3.04-1.336-3.04-2.986c-.08-1.65 1.36-2.986 3.04-2.986z" fill="#4D4D4F"/><path opacity=".5" d="M64.8 10.157c1.68 0 3.04 1.336 3.04 2.986 0 1.65-1.36 2.986-3.04 2.986s-3.04-1.336-3.04-2.986c-.08-1.65 1.36-2.986 3.04-2.986z" fill="#4D4E50"/><path opacity=".5" d="M64.8 10.157c1.68 0 3.04 1.336 3.04 2.986 0 1.65-1.36 2.986-3.04 2.986s-3.04-1.336-3.04-2.986c-.08-1.65 1.36-2.986 3.04-2.986z" fill="#4E4F51"/><path opacity=".5" d="M64.8 10.157c1.68 0 3.04 1.336 3.04 2.986 0 1.65-1.36 2.986-3.04 2.986s-3.04-1.336-3.04-2.986c-.08-1.65 1.36-2.986 3.04-2.986z" fill="#4F5052"/><path opacity=".5" d="M64.802 10.157c1.68 0 3.04 1.336 3.04 2.986 0 1.65-1.36 2.986-3.04 2.986s-3.04-1.336-3.04-2.986c0-1.65 1.36-2.986 3.04-2.986z" fill="#505052"/><path opacity=".5" d="M64.802 10.157c1.68 0 3.04 1.336 3.04 2.986 0 1.65-1.36 2.986-3.04 2.986s-3.04-1.336-3.04-2.986c0-1.65 1.36-2.986 3.04-2.986z" fill="#515153"/><path opacity=".5" d="M64.802 10.157c1.68 0 3.04 1.336 3.04 2.986 0 1.65-1.36 2.986-3.04 2.986s-3.04-1.336-3.04-2.986c0-1.65 1.36-2.986 3.04-2.986z" fill="#525254"/><path opacity=".5" d="M64.802 10.157c1.68 0 3.04 1.336 3.04 2.986 0 1.65-1.36 2.986-3.04 2.986s-3.04-1.336-3.04-2.986c0-1.65 1.36-2.986 3.04-2.986z" fill="#535355"/><path opacity=".5" d="M64.802 10.157c1.68 0 3.04 1.336 3.04 2.986 0 1.65-1.36 2.986-3.04 2.986s-3.04-1.336-3.04-2.986c0-1.65 1.36-2.986 3.04-2.986z" fill="#535456"/><path opacity=".5" d="M64.802 10.157c1.68 0 3.04 1.336 3.04 2.986 0 1.65-1.36 2.986-3.04 2.986s-3.04-1.336-3.04-2.986c0-1.65 1.36-2.986 3.04-2.986z" fill="#545557"/><path opacity=".5" d="M64.802 10.157c1.68 0 3.04 1.336 3.04 2.986 0 1.65-1.36 2.986-3.04 2.986s-3.04-1.336-3.04-2.986c0-1.65 1.36-2.986 3.04-2.986z" fill="#555658"/><path opacity=".5" d="M64.802 10.157c1.68 0 3.04 1.336 3.04 2.986 0 1.65-1.36 2.986-3.04 2.986s-3.04-1.336-3.04-2.986c0-1.65 1.36-2.986 3.04-2.986z" fill="#565759"/><path opacity=".5" d="M64.802 10.157c1.68 0 3.04 1.336 3.04 2.986 0 1.65-1.36 2.986-3.04 2.986s-3.04-1.336-3.04-2.986c0-1.65 1.36-2.986 3.04-2.986z" fill="#57585A"/><path opacity=".5" d="M64.802 10.157c1.68 0 3.04 1.336 3.04 2.986 0 1.65-1.36 2.986-3.04 2.986s-3.04-1.336-3.04-2.986c0-1.65 1.36-2.986 3.04-2.986z" fill="#58585B"/><path opacity=".5" d="M64.802 10.157c1.68 0 3.04 1.336 3.04 2.986 0 1.65-1.36 2.986-3.04 2.986s-3.04-1.336-3.04-2.986c0-1.65 1.36-2.986 3.04-2.986z" fill="#58595B"/><path opacity=".5" d="M64.802 10.157c1.68 0 3.04 1.336 3.04 2.986 0 1.65-1.36 2.986-3.04 2.986s-3.04-1.336-3.04-2.986c0-1.572 1.36-2.986 3.04-2.986z" fill="#595A5C"/><path opacity=".5" d="M64.802 10.157c1.68 0 3.04 1.336 3.04 2.986 0 1.65-1.36 2.986-3.04 2.986s-3.04-1.336-3.04-2.986c0-1.572 1.36-2.986 3.04-2.986z" fill="#5A5B5D"/><path opacity=".5" d="M64.802 10.157c1.68 0 3.04 1.336 3.04 2.986 0 1.65-1.36 2.986-3.04 2.986s-3.04-1.336-3.04-2.986c0-1.572 1.36-2.986 3.04-2.986z" fill="#5B5C5E"/><path opacity=".5" d="M64.802 10.157c1.68 0 3.04 1.336 3.04 2.986 0 1.65-1.36 2.986-3.04 2.986s-3.04-1.336-3.04-2.986c0-1.572 1.36-2.986 3.04-2.986z" fill="#5C5D5F"/><path opacity=".5" d="M64.802 10.157c1.68 0 3.04 1.336 3.04 2.986 0 1.65-1.36 2.986-3.04 2.986s-3.04-1.336-3.04-2.986c0-1.572 1.36-2.986 3.04-2.986z" fill="#5C5D60"/><path opacity=".5" d="M64.802 10.157c1.68 0 3.04 1.336 3.04 2.986 0 1.65-1.36 2.986-3.04 2.986s-3.04-1.336-3.04-2.986c0-1.572 1.36-2.986 3.04-2.986z" fill="#5D5E61"/><path opacity=".5" d="M64.802 10.157c1.68 0 3.04 1.336 3.04 2.986 0 1.65-1.36 2.986-3.04 2.986s-3.04-1.336-3.04-2.986c0-1.572 1.36-2.986 3.04-2.986z" fill="#5E5F61"/><path opacity=".5" d="M64.802 10.236c1.68 0 3.04 1.336 3.04 2.986 0 1.65-1.36 2.986-3.04 2.986s-3.04-1.336-3.04-2.986c0-1.65 1.36-2.986 3.04-2.986z" fill="#5F6062"/><path opacity=".5" d="M64.802 10.236c1.68 0 3.04 1.336 3.04 2.986 0 1.65-1.36 2.986-3.04 2.986s-3.04-1.336-3.04-2.986c0-1.65 1.36-2.986 3.04-2.986z" fill="#606163"/><path opacity=".5" d="M64.802 10.236c1.68 0 3.04 1.336 3.04 2.986 0 1.65-1.36 2.986-3.04 2.986s-3.04-1.336-3.04-2.986c0-1.65 1.36-2.986 3.04-2.986z" fill="#606264"/><path opacity=".5" d="M64.802 10.236c1.68 0 3.04 1.336 3.04 2.986 0 1.65-1.36 2.986-3.04 2.986s-3.04-1.336-3.04-2.986c0-1.65 1.36-2.986 3.04-2.986z" fill="#616265"/><path opacity=".5" d="M64.802 10.236c1.68 0 3.04 1.336 3.04 2.986 0 1.65-1.36 2.986-3.04 2.986s-3.04-1.336-3.04-2.986c0-1.65 1.36-2.986 3.04-2.986z" fill="#626366"/><path opacity=".5" d="M64.802 10.236c1.68 0 3.04 1.336 3.04 2.986 0 1.65-1.36 2.986-3.04 2.986s-3.04-1.336-3.04-2.986c0-1.65 1.36-2.986 3.04-2.986z" fill="#636466"/><path opacity=".5" d="M64.802 10.236c1.68 0 3.04 1.336 3.04 2.986 0 1.65-1.36 2.986-3.04 2.986s-3.04-1.336-3.04-2.986c0-1.65 1.36-2.986 3.04-2.986z" fill="#646567"/><path opacity=".5" d="M64.802 10.236c1.68 0 3.04 1.336 3.04 2.986 0 1.65-1.36 2.986-3.04 2.986s-3.04-1.336-3.04-2.986c0-1.65 1.36-2.986 3.04-2.986z" fill="#646668"/><path opacity=".5" d="M64.802 10.236c1.68 0 3.04 1.336 3.04 2.986 0 1.65-1.36 2.986-3.04 2.986s-3.04-1.336-3.04-2.986c0-1.65 1.36-2.986 3.04-2.986z" fill="#656669"/><path opacity=".5" d="M64.802 10.236c1.68 0 3.04 1.336 3.04 2.986 0 1.65-1.36 2.986-3.04 2.986s-3.04-1.336-3.04-2.986c0-1.65 1.36-2.986 3.04-2.986z" fill="#66676A"/><path opacity=".5" d="M64.881 10.236c1.68 0 3.04 1.336 3.04 2.986 0 1.65-1.36 2.986-3.04 2.986s-3.04-1.336-3.04-2.986c-.08-1.65 1.28-2.986 3.04-2.986z" fill="#67686A"/><path opacity=".5" d="M64.881 10.236c1.68 0 3.04 1.336 3.04 2.986 0 1.65-1.36 2.986-3.04 2.986s-3.04-1.336-3.04-2.986c-.08-1.65 1.28-2.986 3.04-2.986z" fill="#67696B"/><path opacity=".5" d="M64.881 10.236c1.68 0 3.04 1.336 3.04 2.986 0 1.65-1.36 2.986-3.04 2.986s-3.04-1.336-3.04-2.986c-.08-1.65 1.28-2.986 3.04-2.986z" fill="#686A6C"/><path opacity=".5" d="M64.881 10.236c1.68 0 3.04 1.336 3.04 2.986 0 1.65-1.36 2.986-3.04 2.986s-3.04-1.336-3.04-2.986c-.08-1.65 1.28-2.986 3.04-2.986z" fill="#696A6D"/><path opacity=".5" d="M64.881 10.236c1.68 0 3.04 1.336 3.04 2.986 0 1.65-1.36 2.986-3.04 2.986s-3.04-1.336-3.04-2.986c-.08-1.65 1.28-2.986 3.04-2.986z" fill="#6A6B6D"/><path opacity=".5" d="M64.881 10.236c1.68 0 3.04 1.336 3.04 2.986 0 1.65-1.36 2.986-3.04 2.986s-3.04-1.336-3.04-2.986c-.08-1.65 1.28-2.986 3.04-2.986z" fill="#6B6C6E"/><path opacity=".5" d="M64.881 10.236c1.68 0 3.04 1.336 3.04 2.986 0 1.65-1.36 2.986-3.04 2.986s-3.04-1.336-3.04-2.986c-.08-1.65 1.28-2.986 3.04-2.986z" fill="#6B6D6F"/><path opacity=".5" d="M64.881 10.236c1.68 0 3.04 1.336 3.04 2.986 0 1.65-1.36 2.986-3.04 2.986s-3.04-1.336-3.04-2.986c-.08-1.65 1.36-2.986 3.04-2.986z" fill="#6C6D70"/><path opacity=".5" d="M64.881 10.236c1.68 0 3.04 1.336 3.04 2.986 0 1.65-1.36 2.986-3.04 2.986s-3.04-1.336-3.04-2.986c-.08-1.65 1.36-2.986 3.04-2.986z" fill="#6D6E71"/><path opacity=".5" d="M64.881 10.236c1.68 0 3.04 1.336 3.04 2.986 0 1.65-1.36 2.986-3.04 2.986s-3.04-1.336-3.04-2.986c-.08-1.65 1.36-2.986 3.04-2.986z" fill="#6D6F71"/><path opacity=".5" d="M64.881 10.236c1.68 0 3.04 1.336 3.04 2.986 0 1.65-1.36 2.986-3.04 2.986s-3.04-1.336-3.04-2.986c-.08-1.65 1.36-2.986 3.04-2.986z" fill="#6E7072"/><path opacity=".5" d="M64.881 10.236c1.68 0 3.04 1.336 3.04 2.986 0 1.65-1.36 2.986-3.04 2.986s-3.04-1.336-3.04-2.986c-.08-1.65 1.36-2.986 3.04-2.986z" fill="#6F7073"/><path opacity=".5" d="M64.88 10.236c1.68 0 3.04 1.336 3.04 2.986 0 1.65-1.36 2.986-3.04 2.986s-3.04-1.336-3.04-2.986c0-1.65 1.36-2.986 3.04-2.986z" fill="#707174"/><path opacity=".5" d="M64.88 10.236c1.68 0 3.04 1.336 3.04 2.986 0 1.65-1.36 2.986-3.04 2.986s-3.04-1.336-3.04-2.986c0-1.65 1.36-2.986 3.04-2.986z" fill="#707274"/><path opacity=".5" d="M64.88 10.236c1.68 0 3.04 1.336 3.04 2.986 0 1.65-1.36 2.986-3.04 2.986s-3.04-1.336-3.04-2.986c0-1.65 1.36-2.986 3.04-2.986z" fill="#717375"/><path opacity=".5" d="M64.88 10.236c1.68 0 3.04 1.336 3.04 2.986 0 1.65-1.36 2.986-3.04 2.986s-3.04-1.336-3.04-2.986c0-1.65 1.36-2.986 3.04-2.986z" fill="#727376"/><path opacity=".5" d="M64.88 10.236c1.68 0 3.04 1.336 3.04 2.986 0 1.65-1.36 2.986-3.04 2.986s-3.04-1.336-3.04-2.986c0-1.65 1.36-2.986 3.04-2.986z" fill="#737477"/><path opacity=".5" d="M64.88 10.236c1.68 0 3.04 1.336 3.04 2.986 0 1.65-1.36 2.986-3.04 2.986s-3.04-1.336-3.04-2.986c0-1.65 1.36-2.986 3.04-2.986z" fill="#737577"/><path opacity=".5" d="M64.88 10.236c1.68 0 3.04 1.336 3.04 2.986 0 1.65-1.36 2.986-3.04 2.986s-3.04-1.336-3.04-2.986c0-1.65 1.36-2.986 3.04-2.986z" fill="#747678"/><path opacity=".5" d="M64.88 10.236c1.68 0 3.04 1.336 3.04 2.986 0 1.65-1.36 2.986-3.04 2.986s-3.04-1.336-3.04-2.986c0-1.65 1.36-2.986 3.04-2.986z" fill="#757679"/><path opacity=".5" d="M64.88 10.236c1.68 0 3.04 1.336 3.04 2.986 0 1.65-1.36 2.986-3.04 2.986s-3.04-1.336-3.04-2.986c0-1.65 1.36-2.986 3.04-2.986z" fill="#75777A"/><path opacity=".5" d="M64.88 10.236c1.68 0 3.04 1.336 3.04 2.986 0 1.65-1.36 2.986-3.04 2.986s-3.04-1.336-3.04-2.986c0-1.65 1.36-2.986 3.04-2.986z" fill="#76787A"/><path opacity=".5" d="M64.88 10.236c1.68 0 3.04 1.336 3.04 2.986 0 1.65-1.36 2.986-3.04 2.986s-3.04-1.336-3.04-2.986c0-1.571 1.36-2.986 3.04-2.986z" fill="#77797B"/><path opacity=".5" d="M64.88 10.236c1.68 0 3.04 1.336 3.04 2.986 0 1.65-1.36 2.986-3.04 2.986s-3.04-1.336-3.04-2.986c0-1.571 1.36-2.986 3.04-2.986z" fill="#78797C"/><path opacity=".5" d="M64.88 10.236c1.68 0 3.04 1.336 3.04 2.986 0 1.65-1.36 2.986-3.04 2.986s-3.04-1.336-3.04-2.986c0-1.571 1.36-2.986 3.04-2.986z" fill="#787A7D"/><path opacity=".5" d="M64.88 10.236c1.68 0 3.04 1.336 3.04 2.986 0 1.65-1.36 2.986-3.04 2.986s-3.04-1.336-3.04-2.986c0-1.571 1.36-2.986 3.04-2.986z" fill="#797B7D"/><path opacity=".5" d="M64.88 10.314c1.68 0 3.04 1.336 3.04 2.986 0 1.65-1.36 2.986-3.04 2.986s-3.04-1.336-3.04-2.986c0-1.65 1.36-2.986 3.04-2.986z" fill="#7A7B7E"/><path opacity=".5" d="M64.88 10.314c1.68 0 3.04 1.336 3.04 2.986 0 1.65-1.36 2.986-3.04 2.986s-3.04-1.336-3.04-2.986c0-1.65 1.36-2.986 3.04-2.986z" fill="#7A7C7F"/><path opacity=".5" d="M64.88 10.314c1.68 0 3.04 1.336 3.04 2.986 0 1.65-1.36 2.986-3.04 2.986s-3.04-1.336-3.04-2.986c0-1.65 1.36-2.986 3.04-2.986z" fill="#7B7D7F"/><path opacity=".5" d="M64.88 10.314c1.68 0 3.04 1.336 3.04 2.986 0 1.65-1.36 2.986-3.04 2.986s-3.04-1.336-3.04-2.986c0-1.65 1.36-2.986 3.04-2.986z" fill="#7C7E80"/><path opacity=".5" d="M64.88 10.314c1.68 0 3.04 1.336 3.04 2.986 0 1.65-1.36 2.986-3.04 2.986s-3.04-1.336-3.04-2.986c0-1.65 1.36-2.986 3.04-2.986z" fill="#7D7E81"/><path opacity=".5" d="M64.88 10.314c1.68 0 3.04 1.336 3.04 2.986 0 1.65-1.36 2.986-3.04 2.986s-3.04-1.336-3.04-2.986c0-1.65 1.36-2.986 3.04-2.986z" fill="#7D7F82"/><path opacity=".5" d="M64.88 10.314c1.68 0 3.04 1.336 3.04 2.986 0 1.65-1.36 2.986-3.04 2.986s-3.04-1.336-3.04-2.986c0-1.65 1.36-2.986 3.04-2.986z" fill="#7E8082"/><path opacity=".5" d="M64.88 10.314c1.68 0 3.04 1.336 3.04 2.986 0 1.65-1.36 2.986-3.04 2.986s-3.04-1.336-3.04-2.986c0-1.65 1.36-2.986 3.04-2.986z" fill="#7F8183"/><path opacity=".5" d="M64.88 10.314c1.68 0 3.04 1.336 3.04 2.986 0 1.65-1.36 2.986-3.04 2.986s-3.04-1.336-3.04-2.986c0-1.65 1.36-2.986 3.04-2.986z" fill="#7F8184"/><path opacity=".5" d="M64.88 10.314c1.68 0 3.04 1.336 3.04 2.986 0 1.65-1.36 2.986-3.04 2.986s-3.04-1.336-3.04-2.986c0-1.65 1.36-2.986 3.04-2.986z" fill="#808285"/><path opacity=".5" d="M64.88 10.314c1.68 0 3.04 1.336 3.04 2.986 0 1.65-1.36 2.986-3.04 2.986s-3.04-1.336-3.04-2.986c0-1.65 1.36-2.986 3.04-2.986z" fill="#818385"/><path opacity=".5" d="M64.88 10.314c1.68 0 3.04 1.336 3.04 2.986 0 1.65-1.36 2.986-3.04 2.986s-3.04-1.336-3.04-2.986c0-1.65 1.36-2.986 3.04-2.986z" fill="#828386"/><path opacity=".5" d="M64.88 10.314c1.68 0 3.04 1.336 3.04 2.986 0 1.65-1.36 2.986-3.04 2.986s-3.04-1.336-3.04-2.986c0-1.65 1.36-2.986 3.04-2.986z" fill="#828487"/><path opacity=".5" d="M64.88 10.314c1.68 0 3.04 1.336 3.04 2.986 0 1.65-1.36 2.986-3.04 2.986s-3.04-1.336-3.04-2.986c0-1.65 1.36-2.986 3.04-2.986z" fill="#838587"/><path opacity=".5" d="M64.88 10.314c1.68 0 3.04 1.336 3.04 2.986 0 1.65-1.36 2.986-3.04 2.986s-3.04-1.336-3.04-2.986c0-1.65 1.36-2.986 3.04-2.986z" fill="#848688"/><path opacity=".5" d="M64.88 10.314c1.68 0 3.04 1.336 3.04 2.986 0 1.65-1.36 2.986-3.04 2.986s-3.04-1.336-3.04-2.986c0-1.65 1.36-2.986 3.04-2.986z" fill="#848689"/><path opacity=".5" d="M64.88 10.314c1.68 0 3.04 1.336 3.04 2.986 0 1.65-1.36 2.986-3.04 2.986s-3.04-1.336-3.04-2.986c0-1.65 1.36-2.986 3.04-2.986z" fill="#85878A"/><path opacity=".5" d="M64.88 10.314c1.68 0 3.04 1.336 3.04 2.986 0 1.65-1.36 2.986-3.04 2.986s-3.04-1.336-3.04-2.986c0-1.65 1.36-2.986 3.04-2.986z" fill="#86888A"/><path opacity=".5" d="M64.88 10.314c1.68 0 3.04 1.336 3.04 2.986 0 1.65-1.36 2.986-3.04 2.986s-3.04-1.336-3.04-2.986c0-1.65 1.36-2.986 3.04-2.986z" fill="#86888B"/><path opacity=".5" d="M64.88 10.314c1.68 0 3.04 1.336 3.04 2.986 0 1.65-1.36 2.986-3.04 2.986s-3.04-1.336-3.04-2.986c0-1.65 1.36-2.986 3.04-2.986z" fill="#87898C"/><path opacity=".5" d="M64.88 10.314c1.68 0 3.04 1.336 3.04 2.986 0 1.65-1.36 2.986-3.04 2.986s-3.04-1.336-3.04-2.986c0-1.65 1.36-2.986 3.04-2.986z" fill="#888A8C"/><path opacity=".5" d="M64.88 10.314c1.68 0 3.04 1.336 3.04 2.986 0 1.65-1.36 2.986-3.04 2.986s-3.04-1.336-3.04-2.986c0-1.65 1.36-2.986 3.04-2.986z" fill="#898B8D"/><path opacity=".5" d="M64.96 10.314c1.68 0 3.04 1.336 3.04 2.986 0 1.65-1.36 2.986-3.04 2.986s-3.04-1.336-3.04-2.986c-.08-1.65 1.28-2.986 3.04-2.986z" fill="#898B8E"/><path opacity=".5" d="M64.96 10.314c1.68 0 3.04 1.336 3.04 2.986 0 1.65-1.36 2.986-3.04 2.986s-3.04-1.336-3.04-2.986c-.08-1.65 1.28-2.986 3.04-2.986z" fill="#8A8C8F"/><path opacity=".5" d="M64.962 10.314c1.68 0 3.04 1.336 3.04 2.986 0 1.65-1.36 2.986-3.04 2.986s-3.04-1.336-3.04-2.986c-.08-1.65 1.36-2.986 3.04-2.986z" fill="#8B8D8F"/><path opacity=".5" d="M64.962 10.314c1.68 0 3.04 1.336 3.04 2.986 0 1.65-1.36 2.986-3.04 2.986s-3.04-1.336-3.04-2.986c-.08-1.65 1.36-2.986 3.04-2.986z" fill="#8B8D90"/><path opacity=".5" d="M64.962 10.314c1.68 0 3.04 1.336 3.04 2.986 0 1.65-1.36 2.986-3.04 2.986s-3.04-1.336-3.04-2.986c-.08-1.65 1.36-2.986 3.04-2.986z" fill="#8C8E91"/><path opacity=".5" d="M64.961 10.314c1.68 0 3.04 1.336 3.04 2.986 0 1.65-1.36 2.986-3.04 2.986s-3.04-1.336-3.04-2.986c0-1.65 1.36-2.986 3.04-2.986z" fill="#8D8F91"/><path opacity=".5" d="M64.961 10.314c1.68 0 3.04 1.336 3.04 2.986 0 1.65-1.36 2.986-3.04 2.986s-3.04-1.336-3.04-2.986c0-1.65 1.36-2.986 3.04-2.986z" fill="#8D9092"/><path opacity=".5" d="M64.961 10.314c1.68 0 3.04 1.336 3.04 2.986 0 1.65-1.36 2.986-3.04 2.986s-3.04-1.336-3.04-2.986c0-1.65 1.36-2.986 3.04-2.986z" fill="#8E9093"/><path opacity=".5" d="M64.961 10.314c1.68 0 3.04 1.336 3.04 2.986 0 1.65-1.36 2.986-3.04 2.986s-3.04-1.336-3.04-2.986c0-1.65 1.36-2.986 3.04-2.986z" fill="#8F9194"/><path opacity=".5" d="M64.961 10.314c1.68 0 3.04 1.336 3.04 2.986 0 1.65-1.36 2.986-3.04 2.986s-3.04-1.336-3.04-2.986c0-1.65 1.36-2.986 3.04-2.986z" fill="#909294"/><path opacity=".5" d="M64.961 10.314c1.68 0 3.04 1.336 3.04 2.986 0 1.65-1.36 2.986-3.04 2.986s-3.04-1.336-3.04-2.986c0-1.65 1.36-2.986 3.04-2.986z" fill="#909295"/><path opacity=".5" d="M64.961 10.314c1.68 0 3.04 1.336 3.04 2.986 0 1.65-1.36 2.986-3.04 2.986s-3.04-1.336-3.04-2.986c0-1.65 1.36-2.986 3.04-2.986z" fill="#919396"/><path opacity=".5" d="M64.961 10.314c1.68 0 3.04 1.336 3.04 2.986 0 1.65-1.36 2.986-3.04 2.986s-3.04-1.336-3.04-2.986c0-1.572 1.36-2.986 3.04-2.986z" fill="#929497"/><path opacity=".5" d="M64.961 10.393c1.68 0 3.04 1.336 3.04 2.986 0 1.65-1.36 2.986-3.04 2.986s-3.04-1.336-3.04-2.986c0-1.65 1.36-2.986 3.04-2.986z" fill="#939597"/><path opacity=".5" d="M64.961 10.393c1.68 0 3.04 1.336 3.04 2.986 0 1.65-1.36 2.986-3.04 2.986s-3.04-1.336-3.04-2.986c0-1.65 1.36-2.986 3.04-2.986z" fill="#939598"/><path opacity=".5" d="M64.961 10.393c1.68 0 3.04 1.336 3.04 2.986 0 1.65-1.36 2.986-3.04 2.986s-3.04-1.336-3.04-2.986c0-1.65 1.36-2.986 3.04-2.986z" fill="#949699"/><path opacity=".5" d="M64.961 10.393c1.68 0 3.04 1.336 3.04 2.986 0 1.65-1.36 2.986-3.04 2.986s-3.04-1.336-3.04-2.986c0-1.65 1.36-2.986 3.04-2.986z" fill="#959799"/><path opacity=".5" d="M64.961 10.393c1.68 0 3.04 1.336 3.04 2.986 0 1.65-1.36 2.986-3.04 2.986s-3.04-1.336-3.04-2.986c0-1.65 1.36-2.986 3.04-2.986z" fill="#95989A"/><path opacity=".5" d="M64.961 10.393c1.68 0 3.04 1.336 3.04 2.986 0 1.65-1.36 2.986-3.04 2.986s-3.04-1.336-3.04-2.986c0-1.65 1.36-2.986 3.04-2.986z" fill="#96989B"/><path opacity=".5" d="M64.961 10.393c1.68 0 3.04 1.336 3.04 2.986 0 1.65-1.36 2.986-3.04 2.986s-3.04-1.336-3.04-2.986c0-1.65 1.36-2.986 3.04-2.986z" fill="#97999C"/><path opacity=".5" d="M64.961 10.393c1.68 0 3.04 1.336 3.04 2.986 0 1.65-1.36 2.986-3.04 2.986s-3.04-1.336-3.04-2.986c0-1.65 1.36-2.986 3.04-2.986z" fill="#989A9C"/><path opacity=".5" d="M64.961 10.393c1.68 0 3.04 1.336 3.04 2.986 0 1.65-1.36 2.986-3.04 2.986s-3.04-1.336-3.04-2.986c0-1.65 1.36-2.986 3.04-2.986z" fill="#989A9D"/><path opacity=".5" d="M64.961 10.393c1.68 0 3.04 1.336 3.04 2.986 0 1.65-1.36 2.986-3.04 2.986s-3.04-1.336-3.04-2.986c0-1.65 1.36-2.986 3.04-2.986z" fill="#999B9E"/><path opacity=".5" d="M64.961 10.393c1.68 0 3.04 1.336 3.04 2.986 0 1.65-1.36 2.986-3.04 2.986s-3.04-1.336-3.04-2.986c0-1.65 1.36-2.986 3.04-2.986z" fill="#9A9C9F"/><path opacity=".5" d="M64.961 10.393c1.68 0 3.04 1.336 3.04 2.986 0 1.65-1.36 2.986-3.04 2.986s-3.04-1.336-3.04-2.986c0-1.65 1.36-2.986 3.04-2.986z" fill="#9B9D9F"/><path opacity=".5" d="M64.961 10.393c1.68 0 3.04 1.336 3.04 2.986 0 1.65-1.36 2.986-3.04 2.986s-3.04-1.336-3.04-2.986c0-1.65 1.36-2.986 3.04-2.986z" fill="#9B9DA0"/><path opacity=".5" d="M64.961 10.393c1.68 0 3.04 1.336 3.04 2.986 0 1.65-1.36 2.986-3.04 2.986s-3.04-1.336-3.04-2.986c0-1.65 1.36-2.986 3.04-2.986z" fill="#9C9EA1"/><path opacity=".5" d="M64.961 10.393c1.68 0 3.04 1.336 3.04 2.986 0 1.65-1.36 2.986-3.04 2.986s-3.04-1.336-3.04-2.986c0-1.65 1.36-2.986 3.04-2.986z" fill="#9D9FA1"/><path opacity=".5" d="M64.961 10.393c1.68 0 3.04 1.336 3.04 2.986 0 1.65-1.36 2.986-3.04 2.986s-3.04-1.336-3.04-2.986c0-1.65 1.36-2.986 3.04-2.986z" fill="#9DA0A2"/><path opacity=".5" d="M64.961 10.393c1.68 0 3.04 1.336 3.04 2.986 0 1.65-1.36 2.986-3.04 2.986s-3.04-1.336-3.04-2.986c0-1.65 1.36-2.986 3.04-2.986z" fill="#9EA0A3"/><path opacity=".5" d="M64.961 10.393c1.68 0 3.04 1.336 3.04 2.986 0 1.65-1.36 2.986-3.04 2.986s-3.04-1.336-3.04-2.986c0-1.65 1.36-2.986 3.04-2.986z" fill="#9FA1A4"/><path opacity=".5" d="M64.961 10.393c1.68 0 3.04 1.336 3.04 2.986 0 1.65-1.36 2.986-3.04 2.986s-3.04-1.336-3.04-2.986c0-1.65 1.36-2.986 3.04-2.986z" fill="#A0A2A4"/><path opacity=".5" d="M64.961 10.393c1.68 0 3.04 1.336 3.04 2.986 0 1.65-1.36 2.986-3.04 2.986s-3.04-1.336-3.04-2.986c0-1.65 1.36-2.986 3.04-2.986z" fill="#A0A3A5"/><path opacity=".5" d="M64.961 10.393c1.68 0 3.04 1.336 3.04 2.986 0 1.65-1.36 2.986-3.04 2.986s-3.04-1.336-3.04-2.986c0-1.65 1.36-2.986 3.04-2.986z" fill="#A1A3A6"/><path opacity=".5" d="M64.961 10.393c1.68 0 3.04 1.336 3.04 2.986 0 1.65-1.36 2.986-3.04 2.986s-3.04-1.336-3.04-2.986c0-1.65 1.36-2.986 3.04-2.986z" fill="#A2A4A7"/><path opacity=".5" d="M64.961 10.393c1.68 0 3.04 1.336 3.04 2.986 0 1.65-1.36 2.986-3.04 2.986s-3.04-1.336-3.04-2.986c0-1.65 1.36-2.986 3.04-2.986z" fill="#A3A5A7"/><path opacity=".5" d="M64.961 10.393c1.68 0 3.04 1.336 3.04 2.986 0 1.65-1.36 2.986-3.04 2.986s-3.04-1.336-3.04-2.986c0-1.65 1.36-2.986 3.04-2.986z" fill="#A3A6A8"/><path opacity=".5" d="M64.961 10.393c1.68 0 3.04 1.336 3.04 2.986 0 1.65-1.36 2.986-3.04 2.986s-3.04-1.336-3.04-2.986c0-1.65 1.36-2.986 3.04-2.986z" fill="#A4A6A9"/><path opacity=".5" d="M64.961 10.393c1.68 0 3.04 1.336 3.04 2.986 0 1.65-1.36 2.986-3.04 2.986s-3.04-1.336-3.04-2.986c0-1.65 1.36-2.986 3.04-2.986z" fill="#A5A7AA"/><path opacity=".5" d="M64.961 10.393c1.68 0 3.04 1.336 3.04 2.986 0 1.65-1.36 2.986-3.04 2.986s-3.04-1.336-3.04-2.986c0-1.65 1.36-2.986 3.04-2.986z" fill="#A6A8AA"/><path opacity=".5" d="M64.961 10.393c1.68 0 3.04 1.336 3.04 2.986 0 1.65-1.36 2.986-3.04 2.986s-3.04-1.336-3.04-2.986c0-1.65 1.36-2.986 3.04-2.986z" fill="#A6A9AB"/><path opacity=".5" d="M64.961 10.393c1.68 0 3.04 1.336 3.04 2.986 0 1.65-1.36 2.986-3.04 2.986s-3.04-1.336-3.04-2.986c0-1.65 1.36-2.986 3.04-2.986z" fill="#A7A9AC"/><path opacity=".5" d="M64.961 10.393c1.68 0 3.04 1.336 3.04 2.986 0 1.65-1.36 2.986-3.04 2.986s-3.04-1.336-3.04-2.986c0-1.65 1.36-2.986 3.04-2.986z" fill="#A8AAAD"/><path opacity=".5" d="M64.961 10.393c1.68 0 3.04 1.336 3.04 2.986 0 1.65-1.36 2.986-3.04 2.986s-3.04-1.336-3.04-2.986c0-1.65 1.36-2.986 3.04-2.986z" fill="#A9ABAD"/><path opacity=".5" d="M64.961 10.393c1.68 0 3.04 1.336 3.04 2.986 0 1.65-1.36 2.986-3.04 2.986s-3.04-1.336-3.04-2.986c0-1.65 1.36-2.986 3.04-2.986z" fill="#A9ACAE"/><path opacity=".5" d="M64.961 10.393c1.68 0 3.04 1.336 3.04 2.986 0 1.65-1.36 2.986-3.04 2.986s-3.04-1.336-3.04-2.986c.08-1.65 1.36-2.986 3.04-2.986z" fill="#AAACAF"/><path opacity=".5" d="M64.961 10.393c1.68 0 3.04 1.336 3.04 2.986 0 1.65-1.36 2.986-3.04 2.986s-3.04-1.336-3.04-2.986c.08-1.65 1.44-2.986 3.04-2.986z" fill="#ABADB0"/><path opacity=".5" d="M64.961 10.393c1.68 0 3.04 1.336 3.04 2.986 0 1.65-1.36 2.986-3.04 2.986s-3.04-1.336-3.04-2.986c.08-1.65 1.44-2.986 3.04-2.986z" fill="#ACAEB0"/><path opacity=".5" d="M65.04 10.393c1.68 0 3.04 1.336 3.04 2.986 0 1.65-1.36 2.986-3.04 2.986S62 15.029 62 13.379c0-1.65 1.36-2.986 3.04-2.986z" fill="#ADAFB1"/><path opacity=".5" d="M65.04 10.471c1.68 0 3.04 1.336 3.04 2.986 0 1.65-1.36 2.986-3.04 2.986S62 15.107 62 13.457c0-1.729 1.36-2.986 3.04-2.986z" fill="#ADAFB2"/><path opacity=".5" d="M65.04 10.471c1.68 0 3.04 1.336 3.04 2.986 0 1.65-1.36 2.986-3.04 2.986S62 15.107 62 13.457c0-1.65 1.36-2.986 3.04-2.986z" fill="#AEB0B3"/><path opacity=".5" d="M65.04 10.471c1.68 0 3.04 1.336 3.04 2.986 0 1.65-1.36 2.986-3.04 2.986S62 15.107 62 13.457c0-1.65 1.36-2.986 3.04-2.986z" fill="#AFB1B3"/><path opacity=".5" d="M65.04 10.471c1.68 0 3.04 1.336 3.04 2.986 0 1.65-1.36 2.986-3.04 2.986S62 15.107 62 13.457c0-1.65 1.36-2.986 3.04-2.986z" fill="#B0B2B4"/><path opacity=".5" d="M65.04 10.471c1.68 0 3.04 1.336 3.04 2.986 0 1.65-1.36 2.986-3.04 2.986S62 15.107 62 13.457c0-1.65 1.36-2.986 3.04-2.986z" fill="#B0B2B5"/><path opacity=".5" d="M65.04 10.471c1.68 0 3.04 1.336 3.04 2.986 0 1.65-1.36 2.986-3.04 2.986S62 15.107 62 13.457c0-1.65 1.36-2.986 3.04-2.986z" fill="#B1B3B6"/><path opacity=".5" d="M65.04 10.471c1.68 0 3.04 1.336 3.04 2.986 0 1.65-1.36 2.986-3.04 2.986S62 15.107 62 13.457c0-1.65 1.36-2.986 3.04-2.986z" fill="#B2B4B6"/><path opacity=".5" d="M65.04 10.471c1.68 0 3.04 1.336 3.04 2.986 0 1.65-1.36 2.986-3.04 2.986S62 15.107 62 13.457c0-1.65 1.36-2.986 3.04-2.986z" fill="#B3B5B7"/><path opacity=".5" d="M65.04 10.471c1.68 0 3.04 1.336 3.04 2.986 0 1.65-1.36 2.986-3.04 2.986S62 15.107 62 13.457c0-1.65 1.36-2.986 3.04-2.986z" fill="#B4B6B8"/><path opacity=".5" d="M65.04 10.471c1.68 0 3.04 1.336 3.04 2.986 0 1.65-1.36 2.986-3.04 2.986S62 15.107 62 13.457c0-1.65 1.36-2.986 3.04-2.986z" fill="#B4B6B9"/><path opacity=".5" d="M65.04 10.471c1.68 0 3.04 1.336 3.04 2.986 0 1.65-1.36 2.986-3.04 2.986S62 15.107 62 13.457c0-1.65 1.36-2.986 3.04-2.986z" fill="#B5B7B9"/><path opacity=".5" d="M65.04 10.471c1.68 0 3.04 1.336 3.04 2.986 0 1.65-1.36 2.986-3.04 2.986S62 15.107 62 13.457c0-1.65 1.36-2.986 3.04-2.986z" fill="#B6B8BA"/><path opacity=".5" d="M65.04 10.471c1.68 0 3.04 1.336 3.04 2.986 0 1.65-1.36 2.986-3.04 2.986S62 15.107 62 13.457c0-1.65 1.36-2.986 3.04-2.986z" fill="#B7B9BB"/><path opacity=".5" d="M65.04 10.471c1.68 0 3.04 1.336 3.04 2.986 0 1.65-1.36 2.986-3.04 2.986S62 15.107 62 13.457c0-1.65 1.36-2.986 3.04-2.986z" fill="#B8B9BC"/><path opacity=".5" d="M65.04 10.471c1.68 0 3.04 1.336 3.04 2.986 0 1.65-1.36 2.986-3.04 2.986S62 15.107 62 13.457c0-1.65 1.36-2.986 3.04-2.986z" fill="#B8BABD"/><path opacity=".5" d="M65.04 10.471c1.68 0 3.04 1.336 3.04 2.986 0 1.65-1.36 2.986-3.04 2.986S62 15.107 62 13.457c0-1.65 1.36-2.986 3.04-2.986z" fill="#B9BBBD"/><path opacity=".5" d="M65.04 10.471c1.68 0 3.04 1.336 3.04 2.986 0 1.65-1.36 2.986-3.04 2.986S62 15.107 62 13.457c0-1.65 1.36-2.986 3.04-2.986z" fill="#BABCBE"/><path opacity=".5" d="M65.04 10.471c1.68 0 3.04 1.336 3.04 2.986 0 1.65-1.36 2.986-3.04 2.986S62 15.107 62 13.457c0-1.65 1.36-2.986 3.04-2.986z" fill="#BBBDBF"/><path opacity=".5" d="M65.04 10.471c1.68 0 3.04 1.336 3.04 2.986 0 1.65-1.36 2.986-3.04 2.986S62 15.107 62 13.457c0-1.65 1.36-2.986 3.04-2.986z" fill="#BBBDC0"/><path opacity=".5" d="M65.04 10.471c1.68 0 3.04 1.336 3.04 2.986 0 1.65-1.36 2.986-3.04 2.986S62 15.107 62 13.457c0-1.65 1.36-2.986 3.04-2.986z" fill="#BCBEC0"/><path opacity=".5" d="M65.04 10.471c1.68 0 3.04 1.336 3.04 2.986 0 1.65-1.36 2.986-3.04 2.986S62 15.107 62 13.457c0-1.65 1.36-2.986 3.04-2.986z" fill="#BDBFC1"/><path opacity=".5" d="M65.04 10.471c1.68 0 3.04 1.336 3.04 2.986 0 1.65-1.36 2.986-3.04 2.986S62 15.107 62 13.457c0-1.65 1.36-2.986 3.04-2.986z" fill="#BEC0C2"/><path opacity=".5" d="M65.04 10.471c1.68 0 3.04 1.336 3.04 2.986 0 1.65-1.36 2.986-3.04 2.986S62 15.107 62 13.457c0-1.65 1.36-2.986 3.04-2.986z" fill="#BFC0C3"/><path opacity=".5" d="M65.04 10.471c1.68 0 3.04 1.336 3.04 2.986 0 1.65-1.36 2.986-3.04 2.986S62 15.107 62 13.457c0-1.65 1.36-2.986 3.04-2.986z" fill="#BFC1C3"/><path opacity=".5" d="M65.04 10.471c1.68 0 3.04 1.336 3.04 2.986 0 1.65-1.36 2.986-3.04 2.986S62 15.107 62 13.457c0-1.65 1.36-2.986 3.04-2.986z" fill="#C0C2C4"/><path opacity=".5" d="M65.04 10.471c1.68 0 3.04 1.336 3.04 2.986 0 1.65-1.36 2.986-3.04 2.986S62 15.107 62 13.457c0-1.65 1.36-2.986 3.04-2.986z" fill="#C1C3C5"/><path opacity=".5" d="M65.04 10.471c1.68 0 3.04 1.336 3.04 2.986 0 1.65-1.36 2.986-3.04 2.986S62 15.107 62 13.457c0-1.65 1.36-2.986 3.04-2.986z" fill="#C2C4C6"/><path opacity=".5" d="M65.04 10.471c1.68 0 3.04 1.336 3.04 2.986 0 1.65-1.36 2.986-3.04 2.986S62 15.107 62 13.457c0-1.65 1.36-2.986 3.04-2.986z" fill="#C3C4C6"/><path opacity=".5" d="M65.04 10.471c1.68 0 3.04 1.336 3.04 2.986 0 1.65-1.36 2.986-3.04 2.986S62 15.107 62 13.457c0-1.65 1.36-2.986 3.04-2.986z" fill="#C3C5C7"/><path opacity=".5" d="M65.04 10.471c1.68 0 3.04 1.336 3.04 2.986 0 1.65-1.36 2.986-3.04 2.986S62 15.107 62 13.457c0-1.65 1.36-2.986 3.04-2.986z" fill="#C4C6C8"/><path opacity=".5" d="M65.04 10.471c1.68 0 3.04 1.336 3.04 2.986 0 1.65-1.36 2.986-3.04 2.986S62 15.107 62 13.457c0-1.65 1.36-2.986 3.04-2.986z" fill="#C5C7C9"/><path opacity=".5" d="M65.04 10.471c1.68 0 3.04 1.336 3.04 2.986 0 1.65-1.36 2.986-3.04 2.986S62 15.107 62 13.457c0-1.65 1.36-2.986 3.04-2.986z" fill="#C6C8CA"/><path opacity=".5" d="M68.08 13.457c0 1.65-1.36 2.986-3.04 2.986S62 15.107 62 13.457c0-1.65 1.36-2.986 3.04-2.986s3.04 1.336 3.04 2.986z" fill="#C7C8CA"/><path opacity=".995" d="M65.04 10.471c1.68 0 3.04 1.336 3.04 2.986 0 1.65-1.36 2.986-3.04 2.986S62 15.107 62 13.457c0-1.65 1.36-2.986 3.04-2.986z" fill="#C7C9CB"/><path opacity=".99" d="M65.04 10.471c1.68 0 3.04 1.336 3.04 2.986 0 1.65-1.36 2.986-3.04 2.986S62 15.107 62 13.457c0-1.65 1.36-2.986 3.04-2.986z" fill="#C7C9CB"/><path opacity=".985" d="M65.04 10.471c1.68 0 3.04 1.336 3.04 2.986 0 1.65-1.36 2.986-3.04 2.986S62 15.107 62 13.457c0-1.65 1.36-2.986 3.04-2.986z" fill="#C7C9CB"/><path opacity=".98" d="M65.04 10.471c1.68 0 3.04 1.336 3.04 2.986 0 1.65-1.36 2.986-3.04 2.986S62 15.107 62 13.457c0-1.65 1.36-2.986 3.04-2.986z" fill="#C8C9CB"/><path opacity=".975" d="M65.04 10.55c1.68 0 3.04 1.336 3.04 2.986 0 1.65-1.36 2.986-3.04 2.986S62 15.186 62 13.536c0-1.728 1.36-2.985 3.04-2.985z" fill="#C8CACC"/><path opacity=".97" d="M65.04 10.55c1.68 0 3.04 1.336 3.04 2.986 0 1.65-1.36 2.986-3.04 2.986S62 15.186 62 13.536c0-1.728 1.36-2.985 3.04-2.985z" fill="#C8CACC"/><path opacity=".965" d="M65.04 10.55c1.68 0 3.04 1.336 3.04 2.986 0 1.65-1.36 2.986-3.04 2.986S62 15.186 62 13.536c.08-1.728 1.36-2.985 3.04-2.985z" fill="#C8CACC"/><path opacity=".96" d="M65.04 10.55c1.68 0 3.04 1.336 3.04 2.986 0 1.65-1.36 2.986-3.04 2.986S62 15.186 62 13.536c.08-1.728 1.36-2.985 3.04-2.985z" fill="#C9CACC"/><path opacity=".955" d="M65.04 10.55c1.68 0 3.04 1.336 3.04 2.986 0 1.65-1.36 2.986-3.04 2.986S62 15.186 62 13.536c.08-1.65 1.36-2.985 3.04-2.985z" fill="#C9CBCD"/><path opacity=".95" d="M65.04 10.55c1.68 0 3.04 1.336 3.04 2.986 0 1.65-1.36 2.986-3.04 2.986S62 15.186 62 13.536c.08-1.65 1.36-2.985 3.04-2.985z" fill="#C9CBCD"/><path opacity=".945" d="M65.04 10.55c1.68 0 3.04 1.336 3.04 2.986 0 1.65-1.36 2.986-3.04 2.986S62 15.186 62 13.536c.08-1.65 1.44-2.985 3.04-2.985z" fill="#C9CBCD"/><path opacity=".94" d="M65.04 10.55c1.68 0 3.04 1.336 3.04 2.986 0 1.65-1.36 2.986-3.04 2.986S62 15.186 62 13.536c.08-1.65 1.44-2.985 3.04-2.985z" fill="#CACBCD"/><path opacity=".935" d="M65.04 10.55c1.68 0 3.04 1.336 3.04 2.986 0 1.65-1.36 2.986-3.04 2.986S62 15.186 62 13.536c.08-1.65 1.44-2.985 3.04-2.985z" fill="#CACCCE"/><path opacity=".93" d="M65.04 10.55c1.68 0 3.04 1.336 3.04 2.986 0 1.65-1.36 2.986-3.04 2.986S62 15.186 62 13.536c.08-1.65 1.44-2.985 3.04-2.985z" fill="#CACCCE"/><path opacity=".925" d="M65.04 10.55c1.68 0 3.04 1.336 3.04 2.986 0 1.65-1.36 2.986-3.04 2.986S62 15.186 62 13.536c.08-1.65 1.44-2.985 3.04-2.985z" fill="#CBCCCE"/><path opacity=".92" d="M65.04 10.55c1.68 0 3.04 1.336 3.04 2.986 0 1.65-1.36 2.986-3.04 2.986S62 15.186 62 13.536c.08-1.65 1.44-2.985 3.04-2.985z" fill="#CBCCCE"/><path opacity=".915" d="M65.12 10.55c1.68 0 3.04 1.336 3.04 2.986 0 1.65-1.36 2.986-3.04 2.986s-3.04-1.336-3.04-2.986c0-1.65 1.36-2.985 3.04-2.985z" fill="#CBCDCF"/><path opacity=".91" d="M65.12 10.55c1.68 0 3.04 1.336 3.04 2.986 0 1.65-1.36 2.986-3.04 2.986s-3.04-1.336-3.04-2.986c0-1.65 1.36-2.985 3.04-2.985z" fill="#CBCDCF"/><path opacity=".905" d="M65.12 10.55c1.68 0 3.04 1.336 3.04 2.986 0 1.65-1.36 2.986-3.04 2.986s-3.04-1.336-3.04-2.986c0-1.65 1.36-2.985 3.04-2.985z" fill="#CCCDCF"/><path opacity=".9" d="M65.12 10.55c1.68 0 3.04 1.336 3.04 2.986 0 1.65-1.36 2.986-3.04 2.986s-3.04-1.336-3.04-2.986c0-1.65 1.36-2.985 3.04-2.985z" fill="#CCCDCF"/><path opacity=".895" d="M65.12 10.55c1.68 0 3.04 1.336 3.04 2.986 0 1.65-1.36 2.986-3.04 2.986s-3.04-1.336-3.04-2.986c0-1.65 1.36-2.985 3.04-2.985z" fill="#CCCED0"/><path opacity=".89" d="M65.12 10.55c1.68 0 3.04 1.336 3.04 2.986 0 1.65-1.36 2.986-3.04 2.986s-3.04-1.336-3.04-2.986c0-1.65 1.36-2.985 3.04-2.985z" fill="#CCCED0"/><path opacity=".886" d="M65.12 10.55c1.68 0 3.04 1.336 3.04 2.986 0 1.65-1.36 2.986-3.04 2.986s-3.04-1.336-3.04-2.986c0-1.65 1.36-2.985 3.04-2.985z" fill="#CDCED0"/><path opacity=".881" d="M65.12 10.55c1.68 0 3.04 1.336 3.04 2.986 0 1.65-1.36 2.986-3.04 2.986s-3.04-1.336-3.04-2.986c0-1.65 1.36-2.985 3.04-2.985z" fill="#CDCED0"/><path opacity=".876" d="M65.12 10.55c1.68 0 3.04 1.336 3.04 2.986 0 1.65-1.36 2.986-3.04 2.986s-3.04-1.336-3.04-2.986c0-1.65 1.36-2.985 3.04-2.985z" fill="#CDCFD1"/><path opacity=".871" d="M65.12 10.55c1.68 0 3.04 1.336 3.04 2.986 0 1.65-1.36 2.986-3.04 2.986s-3.04-1.336-3.04-2.986c0-1.65 1.36-2.985 3.04-2.985z" fill="#CDCFD1"/><path opacity=".866" d="M65.12 10.55c1.68 0 3.04 1.336 3.04 2.986 0 1.65-1.36 2.986-3.04 2.986s-3.04-1.336-3.04-2.986c0-1.65 1.36-2.985 3.04-2.985z" fill="#CECFD1"/><path opacity=".861" d="M65.12 10.55c1.68 0 3.04 1.336 3.04 2.986 0 1.65-1.36 2.986-3.04 2.986s-3.04-1.336-3.04-2.986c0-1.65 1.36-2.985 3.04-2.985z" fill="#CED0D1"/><path opacity=".856" d="M65.12 10.55c1.68 0 3.04 1.336 3.04 2.986 0 1.65-1.36 2.986-3.04 2.986s-3.04-1.336-3.04-2.986c0-1.65 1.36-2.985 3.04-2.985z" fill="#CED0D1"/><path opacity=".851" d="M65.12 10.55c1.68 0 3.04 1.336 3.04 2.986 0 1.65-1.36 2.986-3.04 2.986s-3.04-1.336-3.04-2.986c0-1.65 1.36-2.985 3.04-2.985z" fill="#CED0D2"/><path opacity=".846" d="M65.12 10.55c1.68 0 3.04 1.336 3.04 2.986 0 1.65-1.36 2.986-3.04 2.986s-3.04-1.336-3.04-2.986c0-1.65 1.36-2.985 3.04-2.985z" fill="#CFD0D2"/><path opacity=".841" d="M65.12 10.55c1.68 0 3.04 1.336 3.04 2.986 0 1.65-1.36 2.986-3.04 2.986s-3.04-1.336-3.04-2.986c0-1.65 1.36-2.985 3.04-2.985z" fill="#CFD1D2"/><path opacity=".836" d="M65.12 10.55c1.68 0 3.04 1.336 3.04 2.986 0 1.65-1.36 2.986-3.04 2.986s-3.04-1.336-3.04-2.986c0-1.65 1.36-2.985 3.04-2.985z" fill="#CFD1D2"/><path opacity=".831" d="M65.12 10.55c1.68 0 3.04 1.336 3.04 2.986 0 1.65-1.36 2.986-3.04 2.986s-3.04-1.336-3.04-2.986c0-1.65 1.36-2.985 3.04-2.985z" fill="#D0D1D3"/><path opacity=".826" d="M65.12 10.55c1.68 0 3.04 1.336 3.04 2.986 0 1.65-1.36 2.986-3.04 2.986s-3.04-1.336-3.04-2.986c0-1.65 1.36-2.985 3.04-2.985z" fill="#D0D1D3"/><path opacity=".821" d="M65.12 10.55c1.68 0 3.04 1.336 3.04 2.986 0 1.65-1.36 2.986-3.04 2.986s-3.04-1.336-3.04-2.986c0-1.65 1.36-2.985 3.04-2.985z" fill="#D0D2D3"/><path opacity=".816" d="M65.12 10.55c1.68 0 3.04 1.336 3.04 2.986 0 1.65-1.36 2.986-3.04 2.986s-3.04-1.336-3.04-2.986c0-1.65 1.36-2.985 3.04-2.985z" fill="#D0D2D3"/><path opacity=".811" d="M65.12 10.55c1.68 0 3.04 1.336 3.04 2.986 0 1.65-1.36 2.986-3.04 2.986s-3.04-1.336-3.04-2.986c0-1.65 1.36-2.985 3.04-2.985z" fill="#D1D2D4"/><path opacity=".806" d="M65.12 10.55c1.68 0 3.04 1.336 3.04 2.986 0 1.65-1.36 2.986-3.04 2.986s-3.04-1.336-3.04-2.986c0-1.65 1.36-2.985 3.04-2.985z" fill="#D1D2D4"/><path opacity=".801" d="M65.12 10.55c1.68 0 3.04 1.336 3.04 2.986 0 1.65-1.36 2.986-3.04 2.986s-3.04-1.336-3.04-2.986c0-1.65 1.36-2.985 3.04-2.985z" fill="#D1D3D4"/><path opacity=".796" d="M65.12 10.55c1.68 0 3.04 1.336 3.04 2.986 0 1.65-1.36 2.986-3.04 2.986s-3.04-1.336-3.04-2.986c0-1.65 1.36-2.985 3.04-2.985z" fill="#D1D3D4"/><path opacity=".791" d="M65.12 10.55c1.68 0 3.04 1.336 3.04 2.986 0 1.65-1.36 2.986-3.04 2.986s-3.04-1.336-3.04-2.986c0-1.65 1.36-2.985 3.04-2.985z" fill="#D2D3D5"/><path opacity=".786" d="M65.12 10.55c1.68 0 3.04 1.336 3.04 2.986 0 1.65-1.36 2.986-3.04 2.986s-3.04-1.336-3.04-2.986c0-1.65 1.36-2.985 3.04-2.985z" fill="#D2D3D5"/><path opacity=".781" d="M65.12 10.55c1.68 0 3.04 1.336 3.04 2.986 0 1.65-1.36 2.986-3.04 2.986s-3.04-1.336-3.04-2.986c0-1.65 1.36-2.985 3.04-2.985z" fill="#D2D4D5"/><path opacity=".776" d="M65.12 10.55c1.68 0 3.04 1.336 3.04 2.986 0 1.65-1.36 2.986-3.04 2.986s-3.04-1.336-3.04-2.986c0-1.65 1.36-2.985 3.04-2.985z" fill="#D2D4D5"/><path opacity=".771" d="M65.12 10.55c1.68 0 3.04 1.336 3.04 2.986 0 1.65-1.36 2.986-3.04 2.986s-3.04-1.336-3.04-2.986c0-1.65 1.36-2.985 3.04-2.985z" fill="#D3D4D6"/><path opacity=".766" d="M65.12 10.55c1.68 0 3.04 1.336 3.04 2.986 0 1.65-1.36 2.986-3.04 2.986s-3.04-1.336-3.04-2.986c0-1.65 1.36-2.985 3.04-2.985z" fill="#D3D4D6"/><path opacity=".761" d="M65.12 10.55c1.68 0 3.04 1.336 3.04 2.986 0 1.65-1.36 2.986-3.04 2.986s-3.04-1.336-3.04-2.986c0-1.65 1.36-2.985 3.04-2.985z" fill="#D3D5D6"/><path opacity=".756" d="M65.12 10.55c1.68 0 3.04 1.336 3.04 2.986 0 1.65-1.36 2.986-3.04 2.986s-3.04-1.336-3.04-2.986c0-1.65 1.36-2.985 3.04-2.985z" fill="#D3D5D6"/><path opacity=".751" d="M65.12 10.55c1.68 0 3.04 1.336 3.04 2.986 0 1.65-1.36 2.986-3.04 2.986s-3.04-1.336-3.04-2.986c0-1.65 1.36-2.985 3.04-2.985z" fill="#D4D5D7"/><path opacity=".746" d="M65.12 10.628c1.68 0 3.04 1.336 3.04 2.986 0 1.65-1.36 2.986-3.04 2.986s-3.04-1.336-3.04-2.986c0-1.729 1.36-2.986 3.04-2.986z" fill="#D4D5D7"/><path opacity=".741" d="M65.12 10.628c1.68 0 3.04 1.336 3.04 2.986 0 1.65-1.36 2.986-3.04 2.986s-3.04-1.336-3.04-2.986c0-1.729 1.36-2.986 3.04-2.986z" fill="#D4D6D7"/><path opacity=".736" d="M65.12 10.628c1.68 0 3.04 1.336 3.04 2.986 0 1.65-1.36 2.986-3.04 2.986s-3.04-1.336-3.04-2.986c0-1.729 1.36-2.986 3.04-2.986z" fill="#D5D6D7"/><path opacity=".731" d="M65.12 10.628c1.68 0 3.04 1.336 3.04 2.986 0 1.65-1.36 2.986-3.04 2.986s-3.04-1.336-3.04-2.986c0-1.729 1.36-2.986 3.04-2.986z" fill="#D5D6D8"/><path opacity=".726" d="M65.12 10.628c1.68 0 3.04 1.336 3.04 2.986 0 1.65-1.36 2.986-3.04 2.986s-3.04-1.336-3.04-2.986c0-1.65 1.36-2.986 3.04-2.986z" fill="#D5D6D8"/><path opacity=".721" d="M65.12 10.628c1.68 0 3.04 1.336 3.04 2.986 0 1.65-1.36 2.986-3.04 2.986s-3.04-1.336-3.04-2.986c0-1.65 1.36-2.986 3.04-2.986z" fill="#D5D7D8"/><path opacity=".716" d="M65.12 10.628c1.68 0 3.04 1.336 3.04 2.986 0 1.65-1.36 2.986-3.04 2.986s-3.04-1.336-3.04-2.986c0-1.65 1.36-2.986 3.04-2.986z" fill="#D6D7D8"/><path opacity=".711" d="M65.12 10.628c1.68 0 3.04 1.336 3.04 2.986 0 1.65-1.36 2.986-3.04 2.986s-3.04-1.336-3.04-2.986c0-1.65 1.36-2.986 3.04-2.986z" fill="#D6D7D9"/><path opacity=".707" d="M65.12 10.628c1.68 0 3.04 1.336 3.04 2.986 0 1.65-1.36 2.986-3.04 2.986s-3.04-1.336-3.04-2.986c0-1.65 1.36-2.986 3.04-2.986z" fill="#D6D7D9"/><path opacity=".702" d="M65.12 10.628c1.68 0 3.04 1.336 3.04 2.986 0 1.65-1.36 2.986-3.04 2.986s-3.04-1.336-3.04-2.986c0-1.65 1.36-2.986 3.04-2.986z" fill="#D6D8D9"/><path opacity=".697" d="M65.12 10.628c1.68 0 3.04 1.336 3.04 2.986 0 1.65-1.36 2.986-3.04 2.986s-3.04-1.336-3.04-2.986c0-1.65 1.36-2.986 3.04-2.986z" fill="#D7D8D9"/><path opacity=".692" d="M65.12 10.628c1.68 0 3.04 1.336 3.04 2.986 0 1.65-1.36 2.986-3.04 2.986s-3.04-1.336-3.04-2.986c.08-1.65 1.36-2.986 3.04-2.986z" fill="#D7D8DA"/><path opacity=".687" d="M65.12 10.628c1.68 0 3.04 1.336 3.04 2.986 0 1.65-1.36 2.986-3.04 2.986s-3.04-1.336-3.04-2.986c.08-1.65 1.36-2.986 3.04-2.986z" fill="#D7D8DA"/><path opacity=".682" d="M65.12 10.628c1.68 0 3.04 1.336 3.04 2.986 0 1.65-1.36 2.986-3.04 2.986s-3.04-1.336-3.04-2.986c.08-1.65 1.36-2.986 3.04-2.986z" fill="#D7D9DA"/><path opacity=".677" d="M65.12 10.628c1.68 0 3.04 1.336 3.04 2.986 0 1.65-1.36 2.986-3.04 2.986s-3.04-1.336-3.04-2.986c.08-1.65 1.36-2.986 3.04-2.986z" fill="#D8D9DA"/><path opacity=".672" d="M65.12 10.628c1.68 0 3.04 1.336 3.04 2.986 0 1.65-1.36 2.986-3.04 2.986s-3.04-1.336-3.04-2.986c.08-1.65 1.44-2.986 3.04-2.986z" fill="#D8D9DB"/><path opacity=".667" d="M65.12 10.628c1.68 0 3.04 1.336 3.04 2.986 0 1.65-1.36 2.986-3.04 2.986s-3.04-1.336-3.04-2.986c.08-1.65 1.44-2.986 3.04-2.986z" fill="#D8D9DB"/><path opacity=".662" d="M65.12 10.628c1.68 0 3.04 1.336 3.04 2.986 0 1.65-1.36 2.986-3.04 2.986s-3.04-1.336-3.04-2.986c.08-1.65 1.44-2.986 3.04-2.986z" fill="#D8DADB"/><path opacity=".657" d="M65.12 10.628c1.68 0 3.04 1.336 3.04 2.986 0 1.65-1.36 2.986-3.04 2.986s-3.04-1.336-3.04-2.986c.08-1.65 1.44-2.986 3.04-2.986z" fill="#D9DADB"/><path opacity=".652" d="M65.12 10.628c1.68 0 3.04 1.336 3.04 2.986 0 1.65-1.36 2.986-3.04 2.986s-3.04-1.336-3.04-2.986c.08-1.65 1.44-2.986 3.04-2.986z" fill="#D9DADC"/><path opacity=".647" d="M65.12 10.628c1.68 0 3.04 1.336 3.04 2.986 0 1.65-1.36 2.986-3.04 2.986s-3.04-1.336-3.04-2.986c.08-1.65 1.44-2.986 3.04-2.986z" fill="#D9DBDC"/><path opacity=".642" d="M65.12 10.628c1.68 0 3.04 1.336 3.04 2.986 0 1.65-1.36 2.986-3.04 2.986s-3.04-1.336-3.04-2.986c.08-1.65 1.44-2.986 3.04-2.986z" fill="#DADBDC"/><path opacity=".637" d="M65.201 10.628c1.68 0 3.04 1.336 3.04 2.986 0 1.65-1.36 2.986-3.04 2.986s-3.04-1.336-3.04-2.986c0-1.65 1.36-2.986 3.04-2.986z" fill="#DADBDC"/><path opacity=".632" d="M65.201 10.628c1.68 0 3.04 1.336 3.04 2.986 0 1.65-1.36 2.986-3.04 2.986s-3.04-1.336-3.04-2.986c0-1.65 1.36-2.986 3.04-2.986z" fill="#DADBDD"/><path opacity=".627" d="M65.201 10.628c1.68 0 3.04 1.336 3.04 2.986 0 1.65-1.36 2.986-3.04 2.986s-3.04-1.336-3.04-2.986c0-1.65 1.36-2.986 3.04-2.986z" fill="#DADCDD"/><path opacity=".622" d="M65.201 10.628c1.68 0 3.04 1.336 3.04 2.986 0 1.65-1.36 2.986-3.04 2.986s-3.04-1.336-3.04-2.986c0-1.65 1.36-2.986 3.04-2.986z" fill="#DBDCDD"/><path opacity=".617" d="M65.201 10.628c1.68 0 3.04 1.336 3.04 2.986 0 1.65-1.36 2.986-3.04 2.986s-3.04-1.336-3.04-2.986c0-1.65 1.36-2.986 3.04-2.986z" fill="#DBDCDD"/><path opacity=".612" d="M65.201 10.628c1.68 0 3.04 1.336 3.04 2.986 0 1.65-1.36 2.986-3.04 2.986s-3.04-1.336-3.04-2.986c0-1.65 1.36-2.986 3.04-2.986z" fill="#DBDCDE"/><path opacity=".607" d="M65.201 10.628c1.68 0 3.04 1.336 3.04 2.986 0 1.65-1.36 2.986-3.04 2.986s-3.04-1.336-3.04-2.986c0-1.65 1.36-2.986 3.04-2.986z" fill="#DBDDDE"/><path opacity=".602" d="M65.201 10.628c1.68 0 3.04 1.336 3.04 2.986 0 1.65-1.36 2.986-3.04 2.986s-3.04-1.336-3.04-2.986c0-1.65 1.36-2.986 3.04-2.986z" fill="#DCDDDE"/><path opacity=".597" d="M65.201 10.628c1.68 0 3.04 1.336 3.04 2.986 0 1.65-1.36 2.986-3.04 2.986s-3.04-1.336-3.04-2.986c0-1.65 1.36-2.986 3.04-2.986z" fill="#DCDDDE"/><path opacity=".592" d="M65.201 10.628c1.68 0 3.04 1.336 3.04 2.986 0 1.65-1.36 2.986-3.04 2.986s-3.04-1.336-3.04-2.986c0-1.65 1.36-2.986 3.04-2.986z" fill="#DCDDDF"/><path opacity=".587" d="M65.201 10.628c1.68 0 3.04 1.336 3.04 2.986 0 1.65-1.36 2.986-3.04 2.986s-3.04-1.336-3.04-2.986c0-1.65 1.36-2.986 3.04-2.986z" fill="#DCDEDF"/><path opacity=".582" d="M65.201 10.628c1.68 0 3.04 1.336 3.04 2.986 0 1.65-1.36 2.986-3.04 2.986s-3.04-1.336-3.04-2.986c0-1.65 1.36-2.986 3.04-2.986z" fill="#DDDEDF"/><path opacity=".577" d="M65.201 10.628c1.68 0 3.04 1.336 3.04 2.986 0 1.65-1.36 2.986-3.04 2.986s-3.04-1.336-3.04-2.986c0-1.65 1.36-2.986 3.04-2.986z" fill="#DDDEDF"/><path opacity=".572" d="M65.201 10.628c1.68 0 3.04 1.336 3.04 2.986 0 1.65-1.36 2.986-3.04 2.986s-3.04-1.336-3.04-2.986c0-1.65 1.36-2.986 3.04-2.986z" fill="#DDDEE0"/><path opacity=".567" d="M65.201 10.628c1.68 0 3.04 1.336 3.04 2.986 0 1.65-1.36 2.986-3.04 2.986s-3.04-1.336-3.04-2.986c0-1.65 1.36-2.986 3.04-2.986z" fill="#DDDFE0"/><path opacity=".562" d="M65.201 10.628c1.68 0 3.04 1.336 3.04 2.986 0 1.65-1.36 2.986-3.04 2.986s-3.04-1.336-3.04-2.986c0-1.65 1.36-2.986 3.04-2.986z" fill="#DEDFE0"/><path opacity=".557" d="M65.201 10.628c1.68 0 3.04 1.336 3.04 2.986 0 1.65-1.36 2.986-3.04 2.986s-3.04-1.336-3.04-2.986c0-1.65 1.36-2.986 3.04-2.986z" fill="#DEDFE0"/><path opacity=".552" d="M65.201 10.628c1.68 0 3.04 1.336 3.04 2.986 0 1.65-1.36 2.986-3.04 2.986s-3.04-1.336-3.04-2.986c0-1.65 1.36-2.986 3.04-2.986z" fill="#DEDFE1"/><path opacity=".547" d="M65.201 10.628c1.68 0 3.04 1.336 3.04 2.986 0 1.65-1.36 2.986-3.04 2.986s-3.04-1.336-3.04-2.986c0-1.65 1.36-2.986 3.04-2.986z" fill="#DFE0E1"/><path opacity=".542" d="M65.201 10.628c1.68 0 3.04 1.336 3.04 2.986 0 1.65-1.36 2.986-3.04 2.986s-3.04-1.336-3.04-2.986c0-1.65 1.36-2.986 3.04-2.986z" fill="#DFE0E1"/><path opacity=".537" d="M65.201 10.628c1.68 0 3.04 1.336 3.04 2.986 0 1.65-1.36 2.986-3.04 2.986s-3.04-1.336-3.04-2.986c0-1.65 1.36-2.986 3.04-2.986z" fill="#DFE0E1"/><path opacity=".532" d="M65.201 10.628c1.68 0 3.04 1.336 3.04 2.986 0 1.65-1.36 2.986-3.04 2.986s-3.04-1.336-3.04-2.986c0-1.65 1.36-2.986 3.04-2.986z" fill="#DFE0E2"/><path opacity=".527" d="M65.201 10.628c1.68 0 3.04 1.336 3.04 2.986 0 1.65-1.36 2.986-3.04 2.986s-3.04-1.336-3.04-2.986c0-1.65 1.36-2.986 3.04-2.986z" fill="#E0E1E2"/><path opacity=".522" d="M65.201 10.628c1.68 0 3.04 1.336 3.04 2.986 0 1.65-1.36 2.986-3.04 2.986s-3.04-1.336-3.04-2.986c0-1.65 1.36-2.986 3.04-2.986z" fill="#E0E1E2"/><path opacity=".517" d="M65.201 10.708c1.68 0 3.04 1.335 3.04 2.985s-1.36 2.986-3.04 2.986-3.04-1.336-3.04-2.986c0-1.728 1.36-2.985 3.04-2.985z" fill="#E0E1E2"/><path opacity=".512" d="M65.201 10.708c1.68 0 3.04 1.335 3.04 2.985s-1.36 2.986-3.04 2.986-3.04-1.336-3.04-2.986c0-1.728 1.36-2.985 3.04-2.985z" fill="#E0E1E3"/><path opacity=".507" d="M65.201 10.708c1.68 0 3.04 1.335 3.04 2.985s-1.36 2.986-3.04 2.986-3.04-1.336-3.04-2.986c0-1.728 1.36-2.985 3.04-2.985z" fill="#E1E2E3"/><path opacity=".502" d="M65.201 10.708c1.68 0 3.04 1.335 3.04 2.985s-1.36 2.986-3.04 2.986-3.04-1.336-3.04-2.986c0-1.728 1.36-2.985 3.04-2.985z" fill="#E1E2E3"/><path opacity=".497" d="M65.201 10.708c1.68 0 3.04 1.335 3.04 2.985s-1.36 2.986-3.04 2.986-3.04-1.336-3.04-2.986c0-1.65 1.36-2.985 3.04-2.985z" fill="#E1E2E3"/><path opacity=".492" d="M65.201 10.708c1.68 0 3.04 1.335 3.04 2.985s-1.36 2.986-3.04 2.986-3.04-1.336-3.04-2.986c0-1.65 1.36-2.985 3.04-2.985z" fill="#E1E2E4"/><path opacity=".488" d="M65.201 10.708c1.68 0 3.04 1.335 3.04 2.985s-1.36 2.986-3.04 2.986-3.04-1.336-3.04-2.986c0-1.65 1.36-2.985 3.04-2.985z" fill="#E2E3E4"/><path opacity=".483" d="M65.201 10.708c1.68 0 3.04 1.335 3.04 2.985s-1.36 2.986-3.04 2.986-3.04-1.336-3.04-2.986c0-1.65 1.36-2.985 3.04-2.985z" fill="#E2E3E4"/><path opacity=".478" d="M65.201 10.708c1.68 0 3.04 1.335 3.04 2.985s-1.36 2.986-3.04 2.986-3.04-1.336-3.04-2.986c0-1.65 1.36-2.985 3.04-2.985z" fill="#E2E3E4"/><path opacity=".473" d="M65.201 10.708c1.68 0 3.04 1.335 3.04 2.985s-1.36 2.986-3.04 2.986-3.04-1.336-3.04-2.986c0-1.65 1.36-2.985 3.04-2.985z" fill="#E2E3E4"/><path opacity=".468" d="M65.201 10.708c1.68 0 3.04 1.335 3.04 2.985s-1.36 2.986-3.04 2.986-3.04-1.336-3.04-2.986c0-1.65 1.36-2.985 3.04-2.985z" fill="#E3E4E5"/><path opacity=".463" d="M65.201 10.708c1.68 0 3.04 1.335 3.04 2.985s-1.36 2.986-3.04 2.986-3.04-1.336-3.04-2.986c0-1.65 1.36-2.985 3.04-2.985z" fill="#E3E4E5"/><path opacity=".458" d="M65.201 10.708c1.68 0 3.04 1.335 3.04 2.985s-1.36 2.986-3.04 2.986-3.04-1.336-3.04-2.986c0-1.65 1.36-2.985 3.04-2.985z" fill="#E3E4E5"/><path opacity=".453" d="M65.201 10.708c1.68 0 3.04 1.335 3.04 2.985s-1.36 2.986-3.04 2.986-3.04-1.336-3.04-2.986c0-1.65 1.36-2.985 3.04-2.985z" fill="#E3E4E5"/><path opacity=".448" d="M65.201 10.708c1.68 0 3.04 1.335 3.04 2.985s-1.36 2.986-3.04 2.986-3.04-1.336-3.04-2.986c0-1.65 1.36-2.985 3.04-2.985z" fill="#E4E5E6"/><path opacity=".443" d="M65.201 10.708c1.68 0 3.04 1.335 3.04 2.985s-1.36 2.986-3.04 2.986-3.04-1.336-3.04-2.986c0-1.65 1.36-2.985 3.04-2.985z" fill="#E4E5E6"/><path opacity=".438" d="M65.201 10.708c1.68 0 3.04 1.335 3.04 2.985s-1.36 2.986-3.04 2.986-3.04-1.336-3.04-2.986c0-1.65 1.36-2.985 3.04-2.985z" fill="#E4E5E6"/><path opacity=".433" d="M65.201 10.708c1.68 0 3.04 1.335 3.04 2.985s-1.36 2.986-3.04 2.986-3.04-1.336-3.04-2.986c0-1.65 1.36-2.985 3.04-2.985z" fill="#E5E5E6"/><path opacity=".428" d="M65.201 10.708c1.68 0 3.04 1.335 3.04 2.985s-1.36 2.986-3.04 2.986-3.04-1.336-3.04-2.986c0-1.65 1.36-2.985 3.04-2.985z" fill="#E5E6E7"/><path opacity=".423" d="M65.201 10.708c1.68 0 3.04 1.335 3.04 2.985s-1.36 2.986-3.04 2.986-3.04-1.336-3.04-2.986c0-1.65 1.36-2.985 3.04-2.985z" fill="#E5E6E7"/><path opacity=".418" d="M65.201 10.708c1.68 0 3.04 1.335 3.04 2.985s-1.36 2.986-3.04 2.986-3.04-1.336-3.04-2.986c.08-1.65 1.36-2.985 3.04-2.985z" fill="#E5E6E7"/><path opacity=".413" d="M65.201 10.708c1.68 0 3.04 1.335 3.04 2.985s-1.36 2.986-3.04 2.986-3.04-1.336-3.04-2.986c.08-1.65 1.36-2.985 3.04-2.985z" fill="#E6E6E7"/><path opacity=".408" d="M65.201 10.708c1.68 0 3.04 1.335 3.04 2.985s-1.36 2.986-3.04 2.986-3.04-1.336-3.04-2.986c.08-1.65 1.36-2.985 3.04-2.985z" fill="#E6E7E8"/><path opacity=".403" d="M65.201 10.708c1.68 0 3.04 1.335 3.04 2.985s-1.36 2.986-3.04 2.986-3.04-1.336-3.04-2.986c.08-1.65 1.36-2.985 3.04-2.985z" fill="#E6E7E8"/><path opacity=".398" d="M65.201 10.708c1.68 0 3.04 1.335 3.04 2.985s-1.36 2.986-3.04 2.986-3.04-1.336-3.04-2.986c.08-1.65 1.44-2.985 3.04-2.985z" fill="#E6E7E8"/><path opacity=".393" d="M65.201 10.708c1.68 0 3.04 1.335 3.04 2.985s-1.36 2.986-3.04 2.986-3.04-1.336-3.04-2.986c.08-1.65 1.44-2.985 3.04-2.985z" fill="#E7E8E8"/><path opacity=".388" d="M65.201 10.708c1.68 0 3.04 1.335 3.04 2.985s-1.36 2.986-3.04 2.986-3.04-1.336-3.04-2.986c.08-1.65 1.44-2.985 3.04-2.985z" fill="#E7E8E9"/><path opacity=".383" d="M65.201 10.708c1.68 0 3.04 1.335 3.04 2.985s-1.36 2.986-3.04 2.986-3.04-1.336-3.04-2.986c.08-1.65 1.44-2.985 3.04-2.985z" fill="#E7E8E9"/><path opacity=".378" d="M65.201 10.708c1.68 0 3.04 1.335 3.04 2.985s-1.36 2.986-3.04 2.986-3.04-1.336-3.04-2.986c.08-1.65 1.44-2.985 3.04-2.985z" fill="#E8E8E9"/><path opacity=".373" d="M65.201 10.708c1.68 0 3.04 1.335 3.04 2.985s-1.36 2.986-3.04 2.986-3.04-1.336-3.04-2.986c.08-1.65 1.44-2.985 3.04-2.985z" fill="#E8E9E9"/><path opacity=".368" d="M65.201 10.708c1.68 0 3.04 1.335 3.04 2.985s-1.36 2.986-3.04 2.986-3.04-1.336-3.04-2.986c.08-1.65 1.44-2.985 3.04-2.985z" fill="#E8E9EA"/><path opacity=".363" d="M65.28 10.708c1.68 0 3.04 1.335 3.04 2.985s-1.36 2.986-3.04 2.986-3.04-1.336-3.04-2.986c0-1.65 1.36-2.985 3.04-2.985z" fill="#E8E9EA"/><path opacity=".358" d="M65.28 10.708c1.68 0 3.04 1.335 3.04 2.985s-1.36 2.986-3.04 2.986-3.04-1.336-3.04-2.986c0-1.65 1.36-2.985 3.04-2.985z" fill="#E9E9EA"/><path opacity=".353" d="M65.28 10.708c1.68 0 3.04 1.335 3.04 2.985s-1.36 2.986-3.04 2.986-3.04-1.336-3.04-2.986c0-1.65 1.36-2.985 3.04-2.985z" fill="#E9EAEB"/><path opacity=".348" d="M65.28 10.708c1.68 0 3.04 1.335 3.04 2.985s-1.36 2.986-3.04 2.986-3.04-1.336-3.04-2.986c0-1.65 1.36-2.985 3.04-2.985z" fill="#E9EAEB"/><path opacity=".343" d="M65.28 10.708c1.68 0 3.04 1.335 3.04 2.985s-1.36 2.986-3.04 2.986-3.04-1.336-3.04-2.986c0-1.65 1.36-2.985 3.04-2.985z" fill="#EAEAEB"/><path opacity=".338" d="M65.28 10.708c1.68 0 3.04 1.335 3.04 2.985s-1.36 2.986-3.04 2.986-3.04-1.336-3.04-2.986c0-1.65 1.36-2.985 3.04-2.985z" fill="#EAEBEB"/><path opacity=".333" d="M65.28 10.708c1.68 0 3.04 1.335 3.04 2.985s-1.36 2.986-3.04 2.986-3.04-1.336-3.04-2.986c0-1.65 1.36-2.985 3.04-2.985z" fill="#EAEBEC"/><path opacity=".328" d="M65.28 10.708c1.68 0 3.04 1.335 3.04 2.985s-1.36 2.986-3.04 2.986-3.04-1.336-3.04-2.986c0-1.65 1.36-2.985 3.04-2.985z" fill="#EAEBEC"/><path opacity=".323" d="M65.28 10.708c1.68 0 3.04 1.335 3.04 2.985s-1.36 2.986-3.04 2.986-3.04-1.336-3.04-2.986c0-1.65 1.36-2.985 3.04-2.985z" fill="#EBEBEC"/><path opacity=".318" d="M65.28 10.708c1.68 0 3.04 1.335 3.04 2.985s-1.36 2.986-3.04 2.986-3.04-1.336-3.04-2.986c0-1.65 1.36-2.985 3.04-2.985z" fill="#EBECEC"/><path opacity=".313" d="M65.28 10.708c1.68 0 3.04 1.335 3.04 2.985s-1.36 2.986-3.04 2.986-3.04-1.336-3.04-2.986c0-1.65 1.36-2.985 3.04-2.985z" fill="#EBECED"/><path opacity=".308" d="M65.28 10.708c1.68 0 3.04 1.335 3.04 2.985s-1.36 2.986-3.04 2.986-3.04-1.336-3.04-2.986c0-1.65 1.36-2.985 3.04-2.985z" fill="#EBECED"/><path opacity=".303" d="M65.28 10.708c1.68 0 3.04 1.335 3.04 2.985s-1.36 2.986-3.04 2.986-3.04-1.336-3.04-2.986c0-1.65 1.36-2.985 3.04-2.985z" fill="#ECECED"/><path opacity=".298" d="M65.28 10.708c1.68 0 3.04 1.335 3.04 2.985s-1.36 2.986-3.04 2.986-3.04-1.336-3.04-2.986c0-1.65 1.36-2.985 3.04-2.985z" fill="#ECECED"/><path opacity=".293" d="M65.28 10.708c1.68 0 3.04 1.335 3.04 2.985s-1.36 2.986-3.04 2.986-3.04-1.336-3.04-2.986c0-1.65 1.36-2.985 3.04-2.985z" fill="#ECEDED"/><path opacity=".289" d="M65.28 10.786c1.68 0 3.04 1.335 3.04 2.985s-1.36 2.986-3.04 2.986-3.04-1.336-3.04-2.986c0-1.728 1.36-2.986 3.04-2.986z" fill="#ECEDEE"/><path opacity=".284" d="M65.28 10.786c1.68 0 3.04 1.335 3.04 2.985s-1.36 2.986-3.04 2.986-3.04-1.336-3.04-2.986c0-1.728 1.36-2.986 3.04-2.986z" fill="#EDEDEE"/><path opacity=".279" d="M65.28 10.786c1.68 0 3.04 1.335 3.04 2.985s-1.36 2.986-3.04 2.986-3.04-1.336-3.04-2.986c0-1.728 1.36-2.986 3.04-2.986z" fill="#EDEEEE"/><path opacity=".274" d="M65.28 10.786c1.68 0 3.04 1.335 3.04 2.985s-1.36 2.986-3.04 2.986-3.04-1.336-3.04-2.986c0-1.728 1.36-2.986 3.04-2.986z" fill="#EDEEEE"/><path opacity=".269" d="M65.28 10.786c1.68 0 3.04 1.335 3.04 2.985s-1.36 2.986-3.04 2.986-3.04-1.336-3.04-2.986c0-1.65 1.36-2.986 3.04-2.986z" fill="#EDEEEF"/><path opacity=".264" d="M65.28 10.786c1.68 0 3.04 1.335 3.04 2.985s-1.36 2.986-3.04 2.986-3.04-1.336-3.04-2.986c0-1.65 1.36-2.986 3.04-2.986z" fill="#EEEEEF"/><path opacity=".259" d="M65.28 10.786c1.68 0 3.04 1.335 3.04 2.985s-1.36 2.986-3.04 2.986-3.04-1.336-3.04-2.986c0-1.65 1.36-2.986 3.04-2.986z" fill="#EEEFEF"/><path opacity=".254" d="M65.28 10.786c1.68 0 3.04 1.335 3.04 2.985s-1.36 2.986-3.04 2.986-3.04-1.336-3.04-2.986c0-1.65 1.36-2.986 3.04-2.986z" fill="#EEEFEF"/><path opacity=".249" d="M65.28 10.786c1.68 0 3.04 1.335 3.04 2.985s-1.36 2.986-3.04 2.986-3.04-1.336-3.04-2.986c0-1.65 1.36-2.986 3.04-2.986z" fill="#EEEFF0"/><path opacity=".244" d="M65.28 10.786c1.68 0 3.04 1.335 3.04 2.985s-1.36 2.986-3.04 2.986-3.04-1.336-3.04-2.986c0-1.65 1.36-2.986 3.04-2.986z" fill="#EFEFF0"/><path opacity=".239" d="M65.28 10.786c1.68 0 3.04 1.335 3.04 2.985s-1.36 2.986-3.04 2.986-3.04-1.336-3.04-2.986c0-1.65 1.36-2.986 3.04-2.986z" fill="#EFF0F0"/><path opacity=".234" d="M65.28 10.786c1.68 0 3.04 1.335 3.04 2.985s-1.36 2.986-3.04 2.986-3.04-1.336-3.04-2.986c0-1.65 1.36-2.986 3.04-2.986z" fill="#EFF0F0"/><path opacity=".229" d="M65.28 10.786c1.68 0 3.04 1.335 3.04 2.985s-1.36 2.986-3.04 2.986-3.04-1.336-3.04-2.986c0-1.65 1.36-2.986 3.04-2.986z" fill="#F0F0F1"/><path opacity=".224" d="M65.28 10.786c1.68 0 3.04 1.335 3.04 2.985s-1.36 2.986-3.04 2.986-3.04-1.336-3.04-2.986c0-1.65 1.36-2.986 3.04-2.986z" fill="#F0F0F1"/><path opacity=".219" d="M65.28 10.786c1.68 0 3.04 1.335 3.04 2.985s-1.36 2.986-3.04 2.986-3.04-1.336-3.04-2.986c0-1.65 1.36-2.986 3.04-2.986z" fill="#F0F1F1"/><path opacity=".214" d="M65.28 10.786c1.68 0 3.04 1.335 3.04 2.985s-1.36 2.986-3.04 2.986-3.04-1.336-3.04-2.986c0-1.65 1.36-2.986 3.04-2.986z" fill="#F0F1F1"/><path opacity=".209" d="M65.28 10.786c1.68 0 3.04 1.335 3.04 2.985s-1.36 2.986-3.04 2.986-3.04-1.336-3.04-2.986c0-1.65 1.36-2.986 3.04-2.986z" fill="#F1F1F2"/><path opacity=".204" d="M65.28 10.786c1.68 0 3.04 1.335 3.04 2.985s-1.36 2.986-3.04 2.986-3.04-1.336-3.04-2.986c0-1.65 1.36-2.986 3.04-2.986z" fill="#F1F1F2"/><path opacity=".199" d="M65.28 10.786c1.68 0 3.04 1.335 3.04 2.985s-1.36 2.986-3.04 2.986-3.04-1.336-3.04-2.986c0-1.65 1.36-2.986 3.04-2.986z" fill="#F1F2F2"/><path opacity=".194" d="M65.28 10.786c1.68 0 3.04 1.335 3.04 2.985s-1.36 2.986-3.04 2.986-3.04-1.336-3.04-2.986c0-1.65 1.36-2.986 3.04-2.986z" fill="#F1F2F2"/><path opacity=".189" d="M65.28 10.786c1.68 0 3.04 1.335 3.04 2.985s-1.36 2.986-3.04 2.986-3.04-1.336-3.04-2.986c0-1.65 1.36-2.986 3.04-2.986z" fill="#F2F2F3"/><path opacity=".184" d="M65.28 10.786c1.68 0 3.04 1.335 3.04 2.985s-1.36 2.986-3.04 2.986-3.04-1.336-3.04-2.986c0-1.65 1.36-2.986 3.04-2.986z" fill="#F2F2F3"/><path opacity=".179" d="M65.28 10.786c1.68 0 3.04 1.335 3.04 2.985s-1.36 2.986-3.04 2.986-3.04-1.336-3.04-2.986c0-1.65 1.36-2.986 3.04-2.986z" fill="#F2F3F3"/><path opacity=".174" d="M65.28 10.786c1.68 0 3.04 1.335 3.04 2.985s-1.36 2.986-3.04 2.986-3.04-1.336-3.04-2.986c0-1.65 1.36-2.986 3.04-2.986z" fill="#F2F3F3"/><path opacity=".169" d="M65.28 10.786c1.68 0 3.04 1.335 3.04 2.985s-1.36 2.986-3.04 2.986-3.04-1.336-3.04-2.986c0-1.65 1.36-2.986 3.04-2.986z" fill="#F3F3F4"/><path opacity=".164" d="M65.28 10.786c1.68 0 3.04 1.335 3.04 2.985s-1.36 2.986-3.04 2.986-3.04-1.336-3.04-2.986c0-1.65 1.36-2.986 3.04-2.986z" fill="#F3F3F4"/><path opacity=".159" d="M65.28 10.786c1.68 0 3.04 1.335 3.04 2.985s-1.36 2.986-3.04 2.986-3.04-1.336-3.04-2.986c0-1.65 1.36-2.986 3.04-2.986z" fill="#F3F4F4"/><path opacity=".154" d="M65.28 10.786c1.68 0 3.04 1.335 3.04 2.985s-1.36 2.986-3.04 2.986-3.04-1.336-3.04-2.986c0-1.65 1.36-2.986 3.04-2.986z" fill="#F4F4F4"/><path opacity=".149" d="M65.28 10.786c1.68 0 3.04 1.335 3.04 2.985s-1.36 2.986-3.04 2.986-3.04-1.336-3.04-2.986c0-1.65 1.36-2.986 3.04-2.986z" fill="#F4F4F5"/><path opacity=".144" d="M65.28 10.786c1.68 0 3.04 1.335 3.04 2.985s-1.36 2.986-3.04 2.986-3.04-1.336-3.04-2.986c0-1.65 1.36-2.986 3.04-2.986z" fill="#F4F4F5"/><path opacity=".139" d="M65.28 10.786c1.68 0 3.04 1.335 3.04 2.985s-1.36 2.986-3.04 2.986-3.04-1.336-3.04-2.986c.08-1.65 1.36-2.986 3.04-2.986z" fill="#F4F5F5"/><path opacity=".134" d="M65.28 10.786c1.68 0 3.04 1.335 3.04 2.985s-1.36 2.986-3.04 2.986-3.04-1.336-3.04-2.986c.08-1.65 1.36-2.986 3.04-2.986z" fill="#F5F5F5"/><path opacity=".129" d="M65.28 10.786c1.68 0 3.04 1.335 3.04 2.985s-1.36 2.986-3.04 2.986-3.04-1.336-3.04-2.986c.08-1.65 1.36-2.986 3.04-2.986z" fill="#F5F5F6"/><path opacity=".124" d="M65.28 10.786c1.68 0 3.04 1.335 3.04 2.985s-1.36 2.986-3.04 2.986-3.04-1.336-3.04-2.986c.08-1.65 1.36-2.986 3.04-2.986z" fill="#F5F6F6"/><path opacity=".119" d="M65.28 10.786c1.68 0 3.04 1.335 3.04 2.985s-1.36 2.986-3.04 2.986-3.04-1.336-3.04-2.986c.08-1.65 1.44-2.986 3.04-2.986z" fill="#F6F6F6"/><path opacity=".114" d="M65.28 10.786c1.68 0 3.04 1.335 3.04 2.985s-1.36 2.986-3.04 2.986-3.04-1.336-3.04-2.986c.08-1.65 1.44-2.986 3.04-2.986z" fill="#F6F6F7"/><path opacity=".11" d="M65.28 10.786c1.68 0 3.04 1.335 3.04 2.985s-1.36 2.986-3.04 2.986-3.04-1.336-3.04-2.986c.08-1.65 1.44-2.986 3.04-2.986z" fill="#F6F6F7"/><path opacity=".104" d="M65.28 10.786c1.68 0 3.04 1.335 3.04 2.985s-1.36 2.986-3.04 2.986-3.04-1.336-3.04-2.986c.08-1.65 1.44-2.986 3.04-2.986z" fill="#F6F7F7"/><path opacity=".1" d="M65.28 10.786c1.68 0 3.04 1.335 3.04 2.985s-1.36 2.986-3.04 2.986-3.04-1.336-3.04-2.986c.08-1.65 1.44-2.986 3.04-2.986z" fill="#F7F7F7"/><path opacity=".095" d="M65.28 10.786c1.68 0 3.04 1.335 3.04 2.985s-1.36 2.986-3.04 2.986-3.04-1.336-3.04-2.986c.08-1.65 1.44-2.986 3.04-2.986z" fill="#F7F7F8"/><path opacity=".09" d="M65.28 10.786c1.68 0 3.04 1.335 3.04 2.985s-1.36 2.986-3.04 2.986-3.04-1.336-3.04-2.986c.08-1.65 1.44-2.986 3.04-2.986z" fill="#F7F8F8"/><path opacity=".085" d="M65.36 10.786c1.68 0 3.04 1.335 3.04 2.985s-1.36 2.986-3.04 2.986-3.04-1.336-3.04-2.986c0-1.65 1.36-2.986 3.04-2.986z" fill="#F8F8F8"/><path opacity=".08" d="M65.36 10.786c1.68 0 3.04 1.335 3.04 2.985s-1.36 2.986-3.04 2.986-3.04-1.336-3.04-2.986c0-1.65 1.36-2.986 3.04-2.986z" fill="#F8F8F9"/><path opacity=".075" d="M65.36 10.786c1.68 0 3.04 1.335 3.04 2.985s-1.36 2.986-3.04 2.986-3.04-1.336-3.04-2.986c0-1.65 1.36-2.986 3.04-2.986z" fill="#F8F9F9"/><path opacity=".07" d="M65.36 10.786c1.68 0 3.04 1.335 3.04 2.985s-1.36 2.986-3.04 2.986-3.04-1.336-3.04-2.986c0-1.65 1.36-2.986 3.04-2.986z" fill="#F9F9F9"/><path opacity=".065" d="M65.36 10.786c1.68 0 3.04 1.335 3.04 2.985s-1.36 2.986-3.04 2.986-3.04-1.336-3.04-2.986c0-1.65 1.36-2.986 3.04-2.986z" fill="#F9F9F9"/><path opacity=".06" d="M65.36 10.865c1.68 0 3.04 1.335 3.04 2.986 0 1.65-1.36 2.985-3.04 2.985s-3.04-1.335-3.04-2.985c0-1.73 1.36-2.986 3.04-2.986z" fill="#F9FAFA"/><path opacity=".055" d="M65.36 10.865c1.68 0 3.04 1.335 3.04 2.986 0 1.65-1.36 2.985-3.04 2.985s-3.04-1.335-3.04-2.985c0-1.73 1.36-2.986 3.04-2.986z" fill="#FAFAFA"/><path opacity=".05" d="M65.36 10.865c1.68 0 3.04 1.335 3.04 2.986 0 1.65-1.36 2.985-3.04 2.985s-3.04-1.335-3.04-2.985c0-1.73 1.36-2.986 3.04-2.986z" fill="#FAFAFA"/><path opacity=".045" d="M65.36 10.865c1.68 0 3.04 1.335 3.04 2.986 0 1.65-1.36 2.985-3.04 2.985s-3.04-1.335-3.04-2.985 1.36-2.986 3.04-2.986z" fill="#FBFBFB"/><path opacity=".04" d="M65.36 10.865c1.68 0 3.04 1.335 3.04 2.986 0 1.65-1.36 2.985-3.04 2.985s-3.04-1.335-3.04-2.985 1.36-2.986 3.04-2.986z" fill="#FBFBFB"/><path opacity=".035" d="M65.36 10.865c1.68 0 3.04 1.335 3.04 2.986 0 1.65-1.36 2.985-3.04 2.985s-3.04-1.335-3.04-2.985 1.36-2.986 3.04-2.986z" fill="#FBFCFC"/><path opacity=".03" d="M65.36 10.865c1.68 0 3.04 1.335 3.04 2.986 0 1.65-1.36 2.985-3.04 2.985s-3.04-1.335-3.04-2.985 1.36-2.986 3.04-2.986z" fill="#FCFCFC"/><path opacity=".025" d="M65.36 10.865c1.68 0 3.04 1.335 3.04 2.986 0 1.65-1.36 2.985-3.04 2.985s-3.04-1.335-3.04-2.985 1.36-2.986 3.04-2.986z" fill="#FCFCFD"/><path opacity=".02" d="M65.36 10.865c1.68 0 3.04 1.335 3.04 2.986 0 1.65-1.36 2.985-3.04 2.985s-3.04-1.335-3.04-2.985 1.36-2.986 3.04-2.986z" fill="#FDFDFD"/><path opacity=".015" d="M65.36 10.865c1.68 0 3.04 1.335 3.04 2.986 0 1.65-1.36 2.985-3.04 2.985s-3.04-1.335-3.04-2.985 1.36-2.986 3.04-2.986z" fill="#FDFDFD"/><path opacity=".01" d="M65.36 10.865c1.68 0 3.04 1.335 3.04 2.986 0 1.65-1.36 2.985-3.04 2.985s-3.04-1.335-3.04-2.985 1.36-2.986 3.04-2.986z" fill="#FEFEFE"/><path opacity=".01" d="M65.36 10.865c1.68 0 3.04 1.335 3.04 2.986 0 1.65-1.36 2.985-3.04 2.985s-3.04-1.335-3.04-2.985 1.36-2.986 3.04-2.986z" fill="#FEFEFE"/></g><path d="M81.6 10.471c0-.078-.08-.157-.16-.157h-.16v.472h.08v-.157l.16.157h.16l-.16-.236c.08.079.08 0 .08-.079zm-.24.079v-.157c.08 0 .08 0 .08.078 0 .079 0 .079-.08.079z" fill="#000"/><path d="M81.44 10.157c-.24 0-.4.157-.4.393 0 .236.16.393.4.393.24 0 .4-.157.4-.393 0-.236-.16-.393-.4-.393zm0 .786c-.16 0-.32-.157-.32-.314 0-.158.16-.315.32-.315s.32.157.32.315c0 .157-.16.314-.32.314z" fill="#000"/></g><g clip-path="url(#clip1)"><path d="M81 28.25H45A1.75 1.75 0 0043.25 30v21c0 .967.783 1.75 1.75 1.75h36A1.75 1.75 0 0082.75 51V30A1.75 1.75 0 0081 28.25z" fill="#fff" stroke="#EFEFEF"/><path d="M66.5 35h-7v11.5h7V35z" fill="#F16122"/><path d="M60.176 40.75c0-2.279 1.13-4.35 2.824-5.73-1.27-.968-2.824-1.52-4.588-1.52-4.094 0-7.412 3.245-7.412 7.25S54.318 48 58.412 48c1.694 0 3.317-.552 4.588-1.519-1.694-1.381-2.824-3.453-2.824-5.731z" fill="#E91D25"/><path d="M75 40.75c0 4.005-3.318 7.25-7.412 7.25-1.694 0-3.317-.552-4.588-1.519a7.249 7.249 0 002.823-5.731c0-2.279-1.129-4.35-2.823-5.73 1.27-.968 2.823-1.52 4.588-1.52 4.094 0 7.412 3.245 7.412 7.25z" fill="#F79E1D"/></g><g clip-path="url(#clip2)"><path d="M38 .25H2A1.75 1.75 0 00.25 2v21c0 .966.784 1.75 1.75 1.75h36A1.75 1.75 0 0039.75 23V2A1.75 1.75 0 0038 .25z" fill="#fff" stroke="#EFEFEF"/><path d="M16.537 8.148l-3.806 8.775h-2.512L8.316 9.917c-.076-.442-.228-.59-.533-.737-.532-.295-1.522-.59-2.283-.738l.076-.22h3.958c.533 0 .99.294 1.066.884l.99 5.088 2.435-5.973h2.512v-.073zm9.743 5.899c0-2.286-3.273-2.434-3.273-3.466 0-.295.304-.664.99-.737.303-.074 1.293-.074 2.283.368l.38-1.843C26.127 8.148 25.366 8 24.453 8c-2.284 0-3.958 1.18-3.958 2.876 0 1.254 1.142 1.991 2.055 2.36.913.442 1.218.737 1.218 1.106 0 .59-.761.885-1.37.885-1.218 0-1.827-.295-2.436-.59l-.457 1.917c.533.221 1.523.443 2.588.443 2.512.073 4.187-1.107 4.187-2.95zm6.089 2.876H34.5l-1.827-8.775h-1.979c-.456 0-.837.22-.99.663l-3.5 8.112h2.435l.457-1.327h3.044l.229 1.327zm-2.588-3.097l1.218-3.319.685 3.319H29.78zm-9.895-5.678l-1.903 8.775h-2.36l1.903-8.775h2.36z" fill="#2A2A6D"/></g><defs><clipPath id="clip0"><path fill="#fff" transform="translate(43)" d="M0 0h40v25H0z"/></clipPath><clipPath id="clip1"><path fill="#fff" transform="translate(43 28)" d="M0 0h40v25H0z"/></clipPath><clipPath id="clip2"><path fill="#fff" d="M0 0h40v25H0z"/></clipPath><linearGradient id="paint0_linear" x1="66.26" y1="15.464" x2="64.219" y2="12.21" gradientUnits="userSpaceOnUse"><stop stop-color="#F9A020"/><stop offset=".204" stop-color="#F99D20"/><stop offset=".435" stop-color="#F79320"/><stop offset=".62" stop-color="#F68820"/><stop offset=".797" stop-color="#F57E20"/><stop offset="1" stop-color="#F47521"/></linearGradient><linearGradient id="paint1_linear" x1="65.929" y1="15.42" x2="62.955" y2="9.502" gradientUnits="userSpaceOnUse"><stop stop-color="#F68820" stop-opacity="0"/><stop offset=".34" stop-color="#E17029" stop-opacity=".257"/><stop offset=".694" stop-color="#D4602D" stop-opacity=".523"/><stop offset=".982" stop-color="#D05B2E" stop-opacity=".74"/></linearGradient></defs></svg>