<svg width="122" height="18" fill="none" xmlns="http://www.w3.org/2000/svg"><path d="M87 .5H66A3.5 3.5 0 0062.5 4v10a3.5 3.5 0 003.5 3.5h21a3.5 3.5 0 003.5-3.5V4A3.5 3.5 0 0087 .5z" fill="#fff" stroke="#E7E7E7"/><path d="M56 .5H35A3.5 3.5 0 0031.5 4v10a3.5 3.5 0 003.5 3.5h21a3.5 3.5 0 003.5-3.5V4A3.5 3.5 0 0056 .5z" fill="#0A7EC2" stroke="#E7E7E7"/><path d="M73.078 5.628l-2.9 6.8h-1.914L66.814 7c-.058-.343-.174-.457-.406-.572-.406-.228-1.16-.457-1.74-.571l.058-.171h3.016c.406 0 .754.228.812.685l.754 3.943 1.856-4.628h1.914v-.058zm7.424 4.572c0-1.772-2.494-1.886-2.494-2.686 0-.228.232-.514.754-.571.232-.057.986-.057 1.74.285l.29-1.428c-.406-.172-.986-.286-1.682-.286-1.74 0-3.016.914-3.016 2.229 0 .97.87 1.543 1.566 1.828.696.343.928.572.928.857 0 .458-.58.686-1.044.686-.928 0-1.392-.228-1.856-.457l-.348 1.486c.406.17 1.16.343 1.972.343 1.914.057 3.19-.858 3.19-2.286zm4.64 2.228h1.624l-1.392-6.8h-1.508c-.348 0-.638.172-.754.515l-2.668 6.285H82.3l.348-1.028h2.32l.174 1.028zm-1.972-2.4l.928-2.571.522 2.57h-1.45zm-7.54-4.4l-1.45 6.8h-1.798l1.45-6.8h1.798z" fill="#2A2A6D"/><path d="M118 .5H97A3.5 3.5 0 0093.5 4v10a3.5 3.5 0 003.5 3.5h21a3.5 3.5 0 003.5-3.5V4A3.5 3.5 0 00118 .5z" fill="#fff" stroke="#fff"/><path d="M25 .5H4A3.5 3.5 0 00.5 4v10A3.5 3.5 0 004 17.5h21a3.5 3.5 0 003.5-3.5V4A3.5 3.5 0 0025 .5z" fill="#fff" stroke="#E7E7E7"/><path d="M25 .5H4A3.5 3.5 0 00.5 4v10A3.5 3.5 0 004 17.5h21a3.5 3.5 0 003.5-3.5V4A3.5 3.5 0 0025 .5z" fill="#fff" stroke="#E7E7E7"/><path d="M121 10.5s-5.095 4.517-13.795 7.089c-.986.286 12.296 0 12.296 0l1.499-1.59.5-5-.5-.5v.001z" fill="#F58220"/><path d="M118 .5H97A3.5 3.5 0 0093.5 4v10a3.5 3.5 0 003.5 3.5h21a3.5 3.5 0 003.5-3.5V4A3.5 3.5 0 00118 .5z" stroke="#E7E7E7"/><path d="M95.784 6.372h-1.16v4.057h1.16c.638 0 1.102-.172 1.45-.457.464-.343.754-.972.754-1.543 0-1.2-.928-2.057-2.204-2.057zm.928 3.085c-.232.23-.58.343-1.102.343h-.232V7.114h.232c.522 0 .812.115 1.102.343.29.23.464.63.464 1.03-.058.342-.174.742-.464.97zm2.437-3.085h-.812v4.057h.812V6.372zm1.971 1.6c-.464-.172-.638-.286-.638-.515 0-.228.232-.457.58-.457.232 0 .464.114.638.343l.406-.514c-.348-.286-.754-.457-1.218-.457-.754 0-1.276.514-1.276 1.142 0 .572.232.858.986 1.086.29.114.464.172.58.23.174.113.232.227.232.4 0 .342-.29.57-.638.57-.406 0-.696-.17-.87-.514l-.522.514c.348.514.812.8 1.45.8.812 0 1.45-.57 1.45-1.314 0-.686-.232-1.029-1.16-1.314zm1.45.457c0 1.2.928 2.114 2.204 2.114.348 0 .638-.057.986-.228V9.4c-.348.343-.58.458-.986.458-.812 0-1.392-.572-1.392-1.429 0-.8.58-1.37 1.334-1.37.406 0 .696.113.986.456v-.972a2.076 2.076 0 00-.986-.228c-1.218 0-2.146.914-2.146 2.114zm9.512.685l-1.044-2.742h-.928l1.798 4.171h.406l1.798-4.17h-.87l-1.16 2.741zm2.378 1.372h2.262v-.743h-1.45V8.657h1.392v-.685h-1.392v-.915h1.45v-.685h-2.262v4.114zm5.452-2.914c0-.743-.522-1.2-1.45-1.2h-1.218v4.057h.812V8.772h.116l1.102 1.657h.986l-1.276-1.715c.58-.114.928-.514.928-1.142zm-1.624.685h-.232V7h.232c.522 0 .754.23.754.63.058.4-.232.627-.754.627z" fill="#000"/><path d="M110.4 8.43c0 1.2-.986 2.17-2.204 2.17-1.218 0-2.204-.97-2.204-2.17s.986-2.172 2.204-2.172c1.218 0 2.204.971 2.204 2.171v.001z" fill="url(#paint0_linear_1497_2)"/><path opacity=".65" d="M110.4 8.43c0 1.2-.986 2.17-2.204 2.17-1.218 0-2.204-.97-2.204-2.17s.986-2.172 2.204-2.172c1.218 0 2.204.971 2.204 2.171v.001z" fill="url(#paint1_linear_1497_2)"/><g opacity=".5"><path opacity=".5" d="M110.458 8.429c0 1.2-.986 2.228-2.262 2.228-1.218 0-2.262-.971-2.262-2.228 0-1.257.986-2.229 2.262-2.229 1.218.057 2.262 1.029 2.262 2.229z" fill="#000"/><path opacity=".5" d="M108.196 6.258c1.218 0 2.262.971 2.262 2.23 0 1.256-.986 2.227-2.262 2.227-1.218 0-2.262-.97-2.262-2.228 0-1.258 1.044-2.229 2.262-2.229z" fill="#030304"/><path opacity=".5" d="M108.196 6.258c1.218 0 2.262.971 2.262 2.23 0 1.2-.986 2.227-2.262 2.227-1.218 0-2.262-.97-2.262-2.228 0-1.258 1.044-2.229 2.262-2.229z" fill="#080808"/><path opacity=".5" d="M108.196 6.258c1.218 0 2.262.971 2.262 2.23 0 1.2-.986 2.227-2.262 2.227-1.218 0-2.262-.97-2.262-2.228.058-1.258 1.044-2.229 2.262-2.229z" fill="#0C0C0C"/><path opacity=".5" d="M108.196 6.258c1.218 0 2.262.971 2.262 2.23 0 1.2-.986 2.227-2.262 2.227-1.218 0-2.262-.97-2.262-2.228.058-1.258 1.044-2.229 2.262-2.229z" fill="#100F10"/><path opacity=".5" d="M108.196 6.258c1.218 0 2.262.971 2.262 2.23 0 1.2-.986 2.227-2.262 2.227-1.218 0-2.262-.97-2.262-2.228.058-1.258 1.044-2.229 2.262-2.229z" fill="#131313"/><path opacity=".5" d="M108.196 6.258c1.218 0 2.262.971 2.262 2.23 0 1.2-.986 2.227-2.262 2.227-1.218 0-2.262-.97-2.262-2.228.058-1.258 1.044-2.229 2.262-2.229z" fill="#161616"/><path opacity=".5" d="M108.196 6.258c1.218 0 2.262.971 2.262 2.23 0 1.2-.986 2.227-2.262 2.227-1.218 0-2.262-.97-2.262-2.228.058-1.258 1.044-2.229 2.262-2.229z" fill="#191919"/><path opacity=".5" d="M108.196 6.258c1.218 0 2.262.971 2.262 2.23 0 1.2-.986 2.227-2.262 2.227-1.218 0-2.262-.97-2.262-2.228.058-1.258 1.044-2.229 2.262-2.229z" fill="#1C1B1C"/><path opacity=".5" d="M108.196 6.258c1.218 0 2.262.971 2.262 2.23 0 1.2-.986 2.227-2.262 2.227-1.218 0-2.262-.97-2.262-2.228.058-1.258 1.044-2.229 2.262-2.229z" fill="#1E1E1F"/><path opacity=".5" d="M108.196 6.258c1.218 0 2.262.971 2.262 2.23 0 1.2-.986 2.227-2.262 2.227-1.218 0-2.262-.97-2.262-2.228.058-1.258 1.044-2.229 2.262-2.229z" fill="#212021"/><path opacity=".5" d="M108.196 6.258c1.218 0 2.262.971 2.262 2.23 0 1.2-.986 2.227-2.262 2.227-1.218 0-2.262-.97-2.262-2.228.058-1.258 1.044-2.229 2.262-2.229z" fill="#232324"/><path opacity=".5" d="M108.196 6.258c1.218 0 2.262.971 2.262 2.23 0 1.2-.986 2.227-2.262 2.227-1.218 0-2.262-.97-2.262-2.228.058-1.258 1.044-2.229 2.262-2.229z" fill="#252526"/><path opacity=".5" d="M108.196 6.258c1.218 0 2.262.971 2.262 2.23 0 1.2-.986 2.227-2.262 2.227-1.218 0-2.262-.97-2.262-2.228.058-1.258 1.044-2.229 2.262-2.229z" fill="#282728"/><path opacity=".5" d="M108.196 6.258c1.218 0 2.262.971 2.262 2.23 0 1.2-.986 2.227-2.262 2.227-1.218 0-2.262-.97-2.262-2.228.058-1.258 1.044-2.229 2.262-2.229z" fill="#2A292B"/><path opacity=".5" d="M108.196 6.258c1.218 0 2.262.971 2.262 2.23 0 1.2-.986 2.227-2.262 2.227-1.218 0-2.262-.97-2.262-2.228.058-1.258 1.044-2.229 2.262-2.229z" fill="#2C2C2D"/><path opacity=".5" d="M108.196 6.258c1.218 0 2.262.971 2.262 2.23 0 1.2-.986 2.227-2.262 2.227-1.218 0-2.262-.97-2.262-2.228.058-1.258 1.044-2.229 2.262-2.229z" fill="#2E2E2F"/><path opacity=".5" d="M108.196 6.258c1.218 0 2.262.971 2.262 2.23 0 1.2-.986 2.17-2.262 2.17-1.218 0-2.262-.97-2.262-2.17.058-1.2 1.044-2.23 2.262-2.23z" fill="#303031"/><path opacity=".5" d="M108.196 6.258c1.218 0 2.204.971 2.204 2.171 0 1.2-.986 2.172-2.204 2.172-1.218 0-2.204-.972-2.204-2.172 0-1.142.986-2.17 2.204-2.17z" fill="#323133"/><path opacity=".5" d="M108.196 6.258c1.218 0 2.204.971 2.204 2.171 0 1.2-.986 2.172-2.204 2.172-1.218 0-2.204-.972-2.204-2.172 0-1.142.986-2.17 2.204-2.17z" fill="#343335"/><path opacity=".5" d="M108.196 6.258c1.218 0 2.204.971 2.204 2.171 0 1.2-.986 2.172-2.204 2.172-1.218 0-2.204-.972-2.204-2.172 0-1.142.986-2.17 2.204-2.17z" fill="#363537"/><path opacity=".5" d="M108.196 6.258c1.218 0 2.204.971 2.204 2.171 0 1.2-.986 2.172-2.204 2.172-1.218 0-2.204-.972-2.204-2.172 0-1.142.986-2.17 2.204-2.17z" fill="#373739"/><path opacity=".5" d="M108.196 6.258c1.218 0 2.204.971 2.204 2.171 0 1.2-.986 2.172-2.204 2.172-1.218 0-2.204-.972-2.204-2.172 0-1.142.986-2.17 2.204-2.17z" fill="#39393A"/><path opacity=".5" d="M108.196 6.258c1.218 0 2.204.971 2.204 2.171 0 1.2-.986 2.172-2.204 2.172-1.218 0-2.204-.972-2.204-2.172 0-1.142.986-2.17 2.204-2.17z" fill="#3B3B3C"/><path opacity=".5" d="M108.196 6.258c1.218 0 2.204.971 2.204 2.171 0 1.2-.986 2.172-2.204 2.172-1.218 0-2.204-.972-2.204-2.172 0-1.142.986-2.17 2.204-2.17z" fill="#3D3C3E"/><path opacity=".5" d="M108.254 6.258c1.218 0 2.204.971 2.204 2.171 0 1.2-.986 2.172-2.204 2.172-1.218 0-2.204-.972-2.204-2.172-.058-1.142.928-2.17 2.204-2.17z" fill="#3E3E40"/><path opacity=".5" d="M108.254 6.314c1.218 0 2.204.972 2.204 2.172 0 1.2-.986 2.171-2.204 2.171-1.218 0-2.204-.971-2.204-2.171-.058-1.2.928-2.172 2.204-2.172z" fill="#403F41"/><path opacity=".5" d="M108.254 6.314c1.218 0 2.204.972 2.204 2.172 0 1.2-.986 2.171-2.204 2.171-1.218 0-2.204-.971-2.204-2.171-.058-1.2.928-2.172 2.204-2.172z" fill="#414042"/><path opacity=".5" d="M108.254 6.314c1.218 0 2.204.972 2.204 2.172 0 1.2-.986 2.171-2.204 2.171-1.218 0-2.204-.971-2.204-2.171-.058-1.2.928-2.172 2.204-2.172z" fill="#424143"/><path opacity=".5" d="M108.254 6.314c1.218 0 2.204.972 2.204 2.172 0 1.2-.986 2.171-2.204 2.171-1.218 0-2.204-.971-2.204-2.171-.058-1.2.928-2.172 2.204-2.172z" fill="#434244"/><path opacity=".5" d="M108.254 6.314c1.218 0 2.204.972 2.204 2.172 0 1.2-.986 2.171-2.204 2.171-1.218 0-2.204-.971-2.204-2.171-.058-1.2.928-2.172 2.204-2.172z" fill="#444345"/><path opacity=".5" d="M108.254 6.314c1.218 0 2.204.972 2.204 2.172 0 1.2-.986 2.171-2.204 2.171-1.218 0-2.204-.971-2.204-2.171-.058-1.2.928-2.172 2.204-2.172z" fill="#454446"/><path opacity=".5" d="M108.254 6.314c1.218 0 2.204.972 2.204 2.172 0 1.2-.986 2.171-2.204 2.171-1.218 0-2.204-.971-2.204-2.171-.058-1.2.928-2.172 2.204-2.172z" fill="#454547"/><path opacity=".5" d="M108.254 6.314c1.218 0 2.204.972 2.204 2.172 0 1.2-.986 2.171-2.204 2.171-1.218 0-2.204-.971-2.204-2.171-.058-1.2.928-2.172 2.204-2.172z" fill="#464648"/><path opacity=".5" d="M108.254 6.314c1.218 0 2.204.972 2.204 2.172 0 1.2-.986 2.171-2.204 2.171-1.218 0-2.204-.971-2.204-2.171-.058-1.2.928-2.172 2.204-2.172z" fill="#474749"/><path opacity=".5" d="M108.254 6.314c1.218 0 2.204.972 2.204 2.172 0 1.2-.986 2.171-2.204 2.171-1.218 0-2.204-.971-2.204-2.171-.058-1.2.986-2.172 2.204-2.172z" fill="#48484A"/><path opacity=".5" d="M108.254 6.314c1.218 0 2.204.972 2.204 2.172 0 1.2-.986 2.171-2.204 2.171-1.218 0-2.204-.971-2.204-2.171-.058-1.2.986-2.172 2.204-2.172z" fill="#49494B"/><path opacity=".5" d="M108.254 6.314c1.218 0 2.204.972 2.204 2.172 0 1.2-.986 2.171-2.204 2.171-1.218 0-2.204-.971-2.204-2.171-.058-1.2.986-2.172 2.204-2.172z" fill="#4A4A4C"/><path opacity=".5" d="M108.254 6.314c1.218 0 2.204.972 2.204 2.172 0 1.2-.986 2.171-2.204 2.171-1.218 0-2.204-.971-2.204-2.171-.058-1.2.986-2.172 2.204-2.172z" fill="#4B4B4D"/><path opacity=".5" d="M108.254 6.314c1.218 0 2.204.972 2.204 2.172 0 1.2-.986 2.171-2.204 2.171-1.218 0-2.204-.971-2.204-2.171-.058-1.2.986-2.172 2.204-2.172z" fill="#4C4C4E"/><path opacity=".5" d="M108.254 6.314c1.218 0 2.204.972 2.204 2.172 0 1.2-.986 2.171-2.204 2.171-1.218 0-2.204-.971-2.204-2.171-.058-1.2.986-2.172 2.204-2.172z" fill="#4D4D4F"/><path opacity=".5" d="M108.254 6.314c1.218 0 2.204.972 2.204 2.172 0 1.2-.986 2.171-2.204 2.171-1.218 0-2.204-.971-2.204-2.171-.058-1.2.986-2.172 2.204-2.172z" fill="#4D4E50"/><path opacity=".5" d="M108.254 6.314c1.218 0 2.204.972 2.204 2.172 0 1.2-.986 2.171-2.204 2.171-1.218 0-2.204-.971-2.204-2.171-.058-1.2.986-2.172 2.204-2.172z" fill="#4E4F51"/><path opacity=".5" d="M108.254 6.314c1.218 0 2.204.972 2.204 2.172 0 1.2-.986 2.171-2.204 2.171-1.218 0-2.204-.971-2.204-2.171-.058-1.2.986-2.172 2.204-2.172z" fill="#4F5052"/><path opacity=".5" d="M108.254 6.314c1.218 0 2.204.972 2.204 2.172 0 1.2-.986 2.171-2.204 2.171-1.218 0-2.204-.971-2.204-2.171 0-1.2.986-2.172 2.204-2.172z" fill="#505052"/><path opacity=".5" d="M108.254 6.314c1.218 0 2.204.972 2.204 2.172 0 1.2-.986 2.171-2.204 2.171-1.218 0-2.204-.971-2.204-2.171 0-1.2.986-2.172 2.204-2.172z" fill="#515153"/><path opacity=".5" d="M108.254 6.314c1.218 0 2.204.972 2.204 2.172 0 1.2-.986 2.171-2.204 2.171-1.218 0-2.204-.971-2.204-2.171 0-1.2.986-2.172 2.204-2.172z" fill="#525254"/><path opacity=".5" d="M108.254 6.314c1.218 0 2.204.972 2.204 2.172 0 1.2-.986 2.171-2.204 2.171-1.218 0-2.204-.971-2.204-2.171 0-1.2.986-2.172 2.204-2.172z" fill="#535355"/><path opacity=".5" d="M108.254 6.314c1.218 0 2.204.972 2.204 2.172 0 1.2-.986 2.171-2.204 2.171-1.218 0-2.204-.971-2.204-2.171 0-1.2.986-2.172 2.204-2.172z" fill="#535456"/><path opacity=".5" d="M108.254 6.314c1.218 0 2.204.972 2.204 2.172 0 1.2-.986 2.171-2.204 2.171-1.218 0-2.204-.971-2.204-2.171 0-1.2.986-2.172 2.204-2.172z" fill="#545557"/><path opacity=".5" d="M108.254 6.314c1.218 0 2.204.972 2.204 2.172 0 1.2-.986 2.171-2.204 2.171-1.218 0-2.204-.971-2.204-2.171 0-1.2.986-2.172 2.204-2.172z" fill="#555658"/><path opacity=".5" d="M108.254 6.314c1.218 0 2.204.972 2.204 2.172 0 1.2-.986 2.171-2.204 2.171-1.218 0-2.204-.971-2.204-2.171 0-1.2.986-2.172 2.204-2.172z" fill="#565759"/><path opacity=".5" d="M108.254 6.314c1.218 0 2.204.972 2.204 2.172 0 1.2-.986 2.171-2.204 2.171-1.218 0-2.204-.971-2.204-2.171 0-1.2.986-2.172 2.204-2.172z" fill="#57585A"/><path opacity=".5" d="M108.254 6.314c1.218 0 2.204.972 2.204 2.172 0 1.2-.986 2.171-2.204 2.171-1.218 0-2.204-.971-2.204-2.171 0-1.2.986-2.172 2.204-2.172z" fill="#58585B"/><path opacity=".5" d="M108.254 6.314c1.218 0 2.204.972 2.204 2.172 0 1.2-.986 2.171-2.204 2.171-1.218 0-2.204-.971-2.204-2.171 0-1.2.986-2.172 2.204-2.172z" fill="#58595B"/><path opacity=".5" d="M108.254 6.314c1.218 0 2.204.972 2.204 2.172 0 1.2-.986 2.171-2.204 2.171-1.218 0-2.204-.971-2.204-2.171 0-1.143.986-2.172 2.204-2.172z" fill="#595A5C"/><path opacity=".5" d="M108.254 6.314c1.218 0 2.204.972 2.204 2.172 0 1.2-.986 2.171-2.204 2.171-1.218 0-2.204-.971-2.204-2.171 0-1.143.986-2.172 2.204-2.172z" fill="#5A5B5D"/><path opacity=".5" d="M108.254 6.314c1.218 0 2.204.972 2.204 2.172 0 1.2-.986 2.171-2.204 2.171-1.218 0-2.204-.971-2.204-2.171 0-1.143.986-2.172 2.204-2.172z" fill="#5B5C5E"/><path opacity=".5" d="M108.254 6.314c1.218 0 2.204.972 2.204 2.172 0 1.2-.986 2.171-2.204 2.171-1.218 0-2.204-.971-2.204-2.171 0-1.143.986-2.172 2.204-2.172z" fill="#5C5D5F"/><path opacity=".5" d="M108.254 6.314c1.218 0 2.204.972 2.204 2.172 0 1.2-.986 2.171-2.204 2.171-1.218 0-2.204-.971-2.204-2.171 0-1.143.986-2.172 2.204-2.172z" fill="#5C5D60"/><path opacity=".5" d="M108.254 6.314c1.218 0 2.204.972 2.204 2.172 0 1.2-.986 2.171-2.204 2.171-1.218 0-2.204-.971-2.204-2.171 0-1.143.986-2.172 2.204-2.172z" fill="#5D5E61"/><path opacity=".5" d="M108.254 6.314c1.218 0 2.204.972 2.204 2.172 0 1.2-.986 2.171-2.204 2.171-1.218 0-2.204-.971-2.204-2.171 0-1.143.986-2.172 2.204-2.172z" fill="#5E5F61"/><path opacity=".5" d="M108.254 6.372c1.218 0 2.204.971 2.204 2.171 0 1.2-.986 2.171-2.204 2.171-1.218 0-2.204-.97-2.204-2.17s.986-2.172 2.204-2.172z" fill="#5F6062"/><path opacity=".5" d="M108.254 6.372c1.218 0 2.204.971 2.204 2.171 0 1.2-.986 2.171-2.204 2.171-1.218 0-2.204-.97-2.204-2.17s.986-2.172 2.204-2.172z" fill="#606163"/><path opacity=".5" d="M108.254 6.372c1.218 0 2.204.971 2.204 2.171 0 1.2-.986 2.171-2.204 2.171-1.218 0-2.204-.97-2.204-2.17s.986-2.172 2.204-2.172z" fill="#606264"/><path opacity=".5" d="M108.254 6.372c1.218 0 2.204.971 2.204 2.171 0 1.2-.986 2.171-2.204 2.171-1.218 0-2.204-.97-2.204-2.17s.986-2.172 2.204-2.172z" fill="#616265"/><path opacity=".5" d="M108.254 6.372c1.218 0 2.204.971 2.204 2.171 0 1.2-.986 2.171-2.204 2.171-1.218 0-2.204-.97-2.204-2.17s.986-2.172 2.204-2.172z" fill="#626366"/><path opacity=".5" d="M108.254 6.372c1.218 0 2.204.971 2.204 2.171 0 1.2-.986 2.171-2.204 2.171-1.218 0-2.204-.97-2.204-2.17s.986-2.172 2.204-2.172z" fill="#636466"/><path opacity=".5" d="M108.254 6.372c1.218 0 2.204.971 2.204 2.171 0 1.2-.986 2.171-2.204 2.171-1.218 0-2.204-.97-2.204-2.17s.986-2.172 2.204-2.172z" fill="#646567"/><path opacity=".5" d="M108.254 6.372c1.218 0 2.204.971 2.204 2.171 0 1.2-.986 2.171-2.204 2.171-1.218 0-2.204-.97-2.204-2.17s.986-2.172 2.204-2.172z" fill="#646668"/><path opacity=".5" d="M108.254 6.372c1.218 0 2.204.971 2.204 2.171 0 1.2-.986 2.171-2.204 2.171-1.218 0-2.204-.97-2.204-2.17s.986-2.172 2.204-2.172z" fill="#656669"/><path opacity=".5" d="M108.254 6.372c1.218 0 2.204.971 2.204 2.171 0 1.2-.986 2.171-2.204 2.171-1.218 0-2.204-.97-2.204-2.17s.986-2.172 2.204-2.172z" fill="#66676A"/><path opacity=".5" d="M108.312 6.372c1.218 0 2.204.971 2.204 2.171 0 1.2-.986 2.171-2.204 2.171-1.218 0-2.204-.97-2.204-2.17-.058-1.2.928-2.172 2.204-2.172z" fill="#67686A"/><path opacity=".5" d="M108.312 6.372c1.218 0 2.204.971 2.204 2.171 0 1.2-.986 2.171-2.204 2.171-1.218 0-2.204-.97-2.204-2.17-.058-1.2.928-2.172 2.204-2.172z" fill="#67696B"/><path opacity=".5" d="M108.312 6.372c1.218 0 2.204.971 2.204 2.171 0 1.2-.986 2.171-2.204 2.171-1.218 0-2.204-.97-2.204-2.17-.058-1.2.928-2.172 2.204-2.172z" fill="#686A6C"/><path opacity=".5" d="M108.312 6.372c1.218 0 2.204.971 2.204 2.171 0 1.2-.986 2.171-2.204 2.171-1.218 0-2.204-.97-2.204-2.17-.058-1.2.928-2.172 2.204-2.172z" fill="#696A6D"/><path opacity=".5" d="M108.312 6.372c1.218 0 2.204.971 2.204 2.171 0 1.2-.986 2.171-2.204 2.171-1.218 0-2.204-.97-2.204-2.17-.058-1.2.928-2.172 2.204-2.172z" fill="#6A6B6D"/><path opacity=".5" d="M108.312 6.372c1.218 0 2.204.971 2.204 2.171 0 1.2-.986 2.171-2.204 2.171-1.218 0-2.204-.97-2.204-2.17-.058-1.2.928-2.172 2.204-2.172z" fill="#6B6C6E"/><path opacity=".5" d="M108.312 6.372c1.218 0 2.204.971 2.204 2.171 0 1.2-.986 2.171-2.204 2.171-1.218 0-2.204-.97-2.204-2.17-.058-1.2.928-2.172 2.204-2.172z" fill="#6B6D6F"/><path opacity=".5" d="M108.311 6.372c1.218 0 2.204.971 2.204 2.171 0 1.2-.986 2.171-2.204 2.171-1.218 0-2.204-.97-2.204-2.17-.058-1.2.986-2.172 2.204-2.172z" fill="#6C6D70"/><path opacity=".5" d="M108.311 6.372c1.218 0 2.204.971 2.204 2.171 0 1.2-.986 2.171-2.204 2.171-1.218 0-2.204-.97-2.204-2.17-.058-1.2.986-2.172 2.204-2.172z" fill="#6D6E71"/><path opacity=".5" d="M108.311 6.372c1.218 0 2.204.971 2.204 2.171 0 1.2-.986 2.171-2.204 2.171-1.218 0-2.204-.97-2.204-2.17-.058-1.2.986-2.172 2.204-2.172z" fill="#6D6F71"/><path opacity=".5" d="M108.311 6.372c1.218 0 2.204.971 2.204 2.171 0 1.2-.986 2.171-2.204 2.171-1.218 0-2.204-.97-2.204-2.17-.058-1.2.986-2.172 2.204-2.172z" fill="#6E7072"/><path opacity=".5" d="M108.311 6.372c1.218 0 2.204.971 2.204 2.171 0 1.2-.986 2.171-2.204 2.171-1.218 0-2.204-.97-2.204-2.17-.058-1.2.986-2.172 2.204-2.172z" fill="#6F7073"/><path opacity=".5" d="M108.311 6.372c1.218 0 2.204.971 2.204 2.171 0 1.2-.986 2.171-2.204 2.171-1.218 0-2.204-.97-2.204-2.17s.986-2.172 2.204-2.172z" fill="#707174"/><path opacity=".5" d="M108.311 6.372c1.218 0 2.204.971 2.204 2.171 0 1.2-.986 2.171-2.204 2.171-1.218 0-2.204-.97-2.204-2.17s.986-2.172 2.204-2.172z" fill="#707274"/><path opacity=".5" d="M108.311 6.372c1.218 0 2.204.971 2.204 2.171 0 1.2-.986 2.171-2.204 2.171-1.218 0-2.204-.97-2.204-2.17s.986-2.172 2.204-2.172z" fill="#717375"/><path opacity=".5" d="M108.311 6.372c1.218 0 2.204.971 2.204 2.171 0 1.2-.986 2.171-2.204 2.171-1.218 0-2.204-.97-2.204-2.17s.986-2.172 2.204-2.172z" fill="#727376"/><path opacity=".5" d="M108.311 6.372c1.218 0 2.204.971 2.204 2.171 0 1.2-.986 2.171-2.204 2.171-1.218 0-2.204-.97-2.204-2.17s.986-2.172 2.204-2.172z" fill="#737477"/><path opacity=".5" d="M108.311 6.372c1.218 0 2.204.971 2.204 2.171 0 1.2-.986 2.171-2.204 2.171-1.218 0-2.204-.97-2.204-2.17s.986-2.172 2.204-2.172z" fill="#737577"/><path opacity=".5" d="M108.311 6.372c1.218 0 2.204.971 2.204 2.171 0 1.2-.986 2.171-2.204 2.171-1.218 0-2.204-.97-2.204-2.17s.986-2.172 2.204-2.172z" fill="#747678"/><path opacity=".5" d="M108.311 6.372c1.218 0 2.204.971 2.204 2.171 0 1.2-.986 2.171-2.204 2.171-1.218 0-2.204-.97-2.204-2.17s.986-2.172 2.204-2.172z" fill="#757679"/><path opacity=".5" d="M108.311 6.372c1.218 0 2.204.971 2.204 2.171 0 1.2-.986 2.171-2.204 2.171-1.218 0-2.204-.97-2.204-2.17s.986-2.172 2.204-2.172z" fill="#75777A"/><path opacity=".5" d="M108.311 6.372c1.218 0 2.204.971 2.204 2.171 0 1.2-.986 2.171-2.204 2.171-1.218 0-2.204-.97-2.204-2.17s.986-2.172 2.204-2.172z" fill="#76787A"/><path opacity=".5" d="M108.311 6.372c1.218 0 2.204.971 2.204 2.171 0 1.2-.986 2.171-2.204 2.171-1.218 0-2.204-.97-2.204-2.17 0-1.144.986-2.172 2.204-2.172z" fill="#77797B"/><path opacity=".5" d="M108.311 6.372c1.218 0 2.204.971 2.204 2.171 0 1.2-.986 2.171-2.204 2.171-1.218 0-2.204-.97-2.204-2.17 0-1.144.986-2.172 2.204-2.172z" fill="#78797C"/><path opacity=".5" d="M108.311 6.372c1.218 0 2.204.971 2.204 2.171 0 1.2-.986 2.171-2.204 2.171-1.218 0-2.204-.97-2.204-2.17 0-1.144.986-2.172 2.204-2.172z" fill="#787A7D"/><path opacity=".5" d="M108.311 6.372c1.218 0 2.204.971 2.204 2.171 0 1.2-.986 2.171-2.204 2.171-1.218 0-2.204-.97-2.204-2.17 0-1.144.986-2.172 2.204-2.172z" fill="#797B7D"/><path opacity=".5" d="M108.311 6.429c1.218 0 2.204.971 2.204 2.171 0 1.2-.986 2.172-2.204 2.172-1.218 0-2.204-.972-2.204-2.172 0-1.2.986-2.171 2.204-2.171z" fill="#7A7B7E"/><path opacity=".5" d="M108.311 6.429c1.218 0 2.204.971 2.204 2.171 0 1.2-.986 2.172-2.204 2.172-1.218 0-2.204-.972-2.204-2.172 0-1.2.986-2.171 2.204-2.171z" fill="#7A7C7F"/><path opacity=".5" d="M108.311 6.429c1.218 0 2.204.971 2.204 2.171 0 1.2-.986 2.172-2.204 2.172-1.218 0-2.204-.972-2.204-2.172 0-1.2.986-2.171 2.204-2.171z" fill="#7B7D7F"/><path opacity=".5" d="M108.311 6.429c1.218 0 2.204.971 2.204 2.171 0 1.2-.986 2.172-2.204 2.172-1.218 0-2.204-.972-2.204-2.172 0-1.2.986-2.171 2.204-2.171z" fill="#7C7E80"/><path opacity=".5" d="M108.311 6.429c1.218 0 2.204.971 2.204 2.171 0 1.2-.986 2.172-2.204 2.172-1.218 0-2.204-.972-2.204-2.172 0-1.2.986-2.171 2.204-2.171z" fill="#7D7E81"/><path opacity=".5" d="M108.311 6.429c1.218 0 2.204.971 2.204 2.171 0 1.2-.986 2.172-2.204 2.172-1.218 0-2.204-.972-2.204-2.172 0-1.2.986-2.171 2.204-2.171z" fill="#7D7F82"/><path opacity=".5" d="M108.311 6.429c1.218 0 2.204.971 2.204 2.171 0 1.2-.986 2.172-2.204 2.172-1.218 0-2.204-.972-2.204-2.172 0-1.2.986-2.171 2.204-2.171z" fill="#7E8082"/><path opacity=".5" d="M108.311 6.429c1.218 0 2.204.971 2.204 2.171 0 1.2-.986 2.172-2.204 2.172-1.218 0-2.204-.972-2.204-2.172 0-1.2.986-2.171 2.204-2.171z" fill="#7F8183"/><path opacity=".5" d="M108.311 6.429c1.218 0 2.204.971 2.204 2.171 0 1.2-.986 2.172-2.204 2.172-1.218 0-2.204-.972-2.204-2.172 0-1.2.986-2.171 2.204-2.171z" fill="#7F8184"/><path opacity=".5" d="M108.311 6.429c1.218 0 2.204.971 2.204 2.171 0 1.2-.986 2.172-2.204 2.172-1.218 0-2.204-.972-2.204-2.172 0-1.2.986-2.171 2.204-2.171z" fill="#808285"/><path opacity=".5" d="M108.311 6.429c1.218 0 2.204.971 2.204 2.171 0 1.2-.986 2.172-2.204 2.172-1.218 0-2.204-.972-2.204-2.172 0-1.2.986-2.171 2.204-2.171z" fill="#818385"/><path opacity=".5" d="M108.311 6.429c1.218 0 2.204.971 2.204 2.171 0 1.2-.986 2.172-2.204 2.172-1.218 0-2.204-.972-2.204-2.172 0-1.2.986-2.171 2.204-2.171z" fill="#828386"/><path opacity=".5" d="M108.311 6.429c1.218 0 2.204.971 2.204 2.171 0 1.2-.986 2.172-2.204 2.172-1.218 0-2.204-.972-2.204-2.172 0-1.2.986-2.171 2.204-2.171z" fill="#828487"/><path opacity=".5" d="M108.311 6.429c1.218 0 2.204.971 2.204 2.171 0 1.2-.986 2.172-2.204 2.172-1.218 0-2.204-.972-2.204-2.172 0-1.2.986-2.171 2.204-2.171z" fill="#838587"/><path opacity=".5" d="M108.311 6.429c1.218 0 2.204.971 2.204 2.171 0 1.2-.986 2.172-2.204 2.172-1.218 0-2.204-.972-2.204-2.172 0-1.2.986-2.171 2.204-2.171z" fill="#848688"/><path opacity=".5" d="M108.311 6.429c1.218 0 2.204.971 2.204 2.171 0 1.2-.986 2.172-2.204 2.172-1.218 0-2.204-.972-2.204-2.172 0-1.2.986-2.171 2.204-2.171z" fill="#848689"/><path opacity=".5" d="M108.311 6.429c1.218 0 2.204.971 2.204 2.171 0 1.2-.986 2.172-2.204 2.172-1.218 0-2.204-.972-2.204-2.172 0-1.2.986-2.171 2.204-2.171z" fill="#85878A"/><path opacity=".5" d="M108.311 6.429c1.218 0 2.204.971 2.204 2.171 0 1.2-.986 2.172-2.204 2.172-1.218 0-2.204-.972-2.204-2.172 0-1.2.986-2.171 2.204-2.171z" fill="#86888A"/><path opacity=".5" d="M108.311 6.429c1.218 0 2.204.971 2.204 2.171 0 1.2-.986 2.172-2.204 2.172-1.218 0-2.204-.972-2.204-2.172 0-1.2.986-2.171 2.204-2.171z" fill="#86888B"/><path opacity=".5" d="M108.311 6.429c1.218 0 2.204.971 2.204 2.171 0 1.2-.986 2.172-2.204 2.172-1.218 0-2.204-.972-2.204-2.172 0-1.2.986-2.171 2.204-2.171z" fill="#87898C"/><path opacity=".5" d="M108.311 6.429c1.218 0 2.204.971 2.204 2.171 0 1.2-.986 2.172-2.204 2.172-1.218 0-2.204-.972-2.204-2.172 0-1.2.986-2.171 2.204-2.171z" fill="#888A8C"/><path opacity=".5" d="M108.311 6.429c1.218 0 2.204.971 2.204 2.171 0 1.2-.986 2.172-2.204 2.172-1.218 0-2.204-.972-2.204-2.172 0-1.2.986-2.171 2.204-2.171z" fill="#898B8D"/><path opacity=".5" d="M108.37 6.429c1.218 0 2.204.971 2.204 2.171 0 1.2-.986 2.172-2.204 2.172-1.218 0-2.204-.972-2.204-2.172-.058-1.2.928-2.171 2.204-2.171z" fill="#898B8E"/><path opacity=".5" d="M108.37 6.429c1.218 0 2.204.971 2.204 2.171 0 1.2-.986 2.172-2.204 2.172-1.218 0-2.204-.972-2.204-2.172-.058-1.2.928-2.171 2.204-2.171z" fill="#8A8C8F"/><path opacity=".5" d="M108.369 6.429c1.218 0 2.204.971 2.204 2.171 0 1.2-.986 2.172-2.204 2.172-1.218 0-2.204-.972-2.204-2.172-.058-1.2.986-2.171 2.204-2.171z" fill="#8B8D8F"/><path opacity=".5" d="M108.369 6.429c1.218 0 2.204.971 2.204 2.171 0 1.2-.986 2.172-2.204 2.172-1.218 0-2.204-.972-2.204-2.172-.058-1.2.986-2.171 2.204-2.171z" fill="#8B8D90"/><path opacity=".5" d="M108.369 6.429c1.218 0 2.204.971 2.204 2.171 0 1.2-.986 2.172-2.204 2.172-1.218 0-2.204-.972-2.204-2.172-.058-1.2.986-2.171 2.204-2.171z" fill="#8C8E91"/><path opacity=".5" d="M108.369 6.429c1.218 0 2.204.971 2.204 2.171 0 1.2-.986 2.172-2.204 2.172-1.218 0-2.204-.972-2.204-2.172 0-1.2.986-2.171 2.204-2.171z" fill="#8D8F91"/><path opacity=".5" d="M108.369 6.429c1.218 0 2.204.971 2.204 2.171 0 1.2-.986 2.172-2.204 2.172-1.218 0-2.204-.972-2.204-2.172 0-1.2.986-2.171 2.204-2.171z" fill="#8D9092"/><path opacity=".5" d="M108.369 6.429c1.218 0 2.204.971 2.204 2.171 0 1.2-.986 2.172-2.204 2.172-1.218 0-2.204-.972-2.204-2.172 0-1.2.986-2.171 2.204-2.171z" fill="#8E9093"/><path opacity=".5" d="M108.369 6.429c1.218 0 2.204.971 2.204 2.171 0 1.2-.986 2.172-2.204 2.172-1.218 0-2.204-.972-2.204-2.172 0-1.2.986-2.171 2.204-2.171z" fill="#8F9194"/><path opacity=".5" d="M108.369 6.429c1.218 0 2.204.971 2.204 2.171 0 1.2-.986 2.172-2.204 2.172-1.218 0-2.204-.972-2.204-2.172 0-1.2.986-2.171 2.204-2.171z" fill="#909294"/><path opacity=".5" d="M108.369 6.429c1.218 0 2.204.971 2.204 2.171 0 1.2-.986 2.172-2.204 2.172-1.218 0-2.204-.972-2.204-2.172 0-1.2.986-2.171 2.204-2.171z" fill="#909295"/><path opacity=".5" d="M108.369 6.429c1.218 0 2.204.971 2.204 2.171 0 1.2-.986 2.172-2.204 2.172-1.218 0-2.204-.972-2.204-2.172 0-1.2.986-2.171 2.204-2.171z" fill="#919396"/><path opacity=".5" d="M108.369 6.429c1.218 0 2.204.971 2.204 2.171 0 1.2-.986 2.172-2.204 2.172-1.218 0-2.204-.972-2.204-2.172 0-1.143.986-2.171 2.204-2.171z" fill="#929497"/><path opacity=".5" d="M108.369 6.486c1.218 0 2.204.97 2.204 2.17s-.986 2.173-2.204 2.173c-1.218 0-2.204-.972-2.204-2.172 0-1.2.986-2.171 2.204-2.171z" fill="#939597"/><path opacity=".5" d="M108.369 6.486c1.218 0 2.204.97 2.204 2.17s-.986 2.173-2.204 2.173c-1.218 0-2.204-.972-2.204-2.172 0-1.2.986-2.171 2.204-2.171z" fill="#939598"/><path opacity=".5" d="M108.369 6.486c1.218 0 2.204.97 2.204 2.17s-.986 2.173-2.204 2.173c-1.218 0-2.204-.972-2.204-2.172 0-1.2.986-2.171 2.204-2.171z" fill="#949699"/><path opacity=".5" d="M108.369 6.486c1.218 0 2.204.97 2.204 2.17s-.986 2.173-2.204 2.173c-1.218 0-2.204-.972-2.204-2.172 0-1.2.986-2.171 2.204-2.171z" fill="#959799"/><path opacity=".5" d="M108.369 6.486c1.218 0 2.204.97 2.204 2.17s-.986 2.173-2.204 2.173c-1.218 0-2.204-.972-2.204-2.172 0-1.2.986-2.171 2.204-2.171z" fill="#95989A"/><path opacity=".5" d="M108.369 6.486c1.218 0 2.204.97 2.204 2.17s-.986 2.173-2.204 2.173c-1.218 0-2.204-.972-2.204-2.172 0-1.2.986-2.171 2.204-2.171z" fill="#96989B"/><path opacity=".5" d="M108.369 6.486c1.218 0 2.204.97 2.204 2.17s-.986 2.173-2.204 2.173c-1.218 0-2.204-.972-2.204-2.172 0-1.2.986-2.171 2.204-2.171z" fill="#97999C"/><path opacity=".5" d="M108.369 6.486c1.218 0 2.204.97 2.204 2.17s-.986 2.173-2.204 2.173c-1.218 0-2.204-.972-2.204-2.172 0-1.2.986-2.171 2.204-2.171z" fill="#989A9C"/><path opacity=".5" d="M108.369 6.486c1.218 0 2.204.97 2.204 2.17s-.986 2.173-2.204 2.173c-1.218 0-2.204-.972-2.204-2.172 0-1.2.986-2.171 2.204-2.171z" fill="#989A9D"/><path opacity=".5" d="M108.369 6.486c1.218 0 2.204.97 2.204 2.17s-.986 2.173-2.204 2.173c-1.218 0-2.204-.972-2.204-2.172 0-1.2.986-2.171 2.204-2.171z" fill="#999B9E"/><path opacity=".5" d="M108.369 6.486c1.218 0 2.204.97 2.204 2.17s-.986 2.173-2.204 2.173c-1.218 0-2.204-.972-2.204-2.172 0-1.2.986-2.171 2.204-2.171z" fill="#9A9C9F"/><path opacity=".5" d="M108.369 6.486c1.218 0 2.204.97 2.204 2.17s-.986 2.173-2.204 2.173c-1.218 0-2.204-.972-2.204-2.172 0-1.2.986-2.171 2.204-2.171z" fill="#9B9D9F"/><path opacity=".5" d="M108.369 6.486c1.218 0 2.204.97 2.204 2.17s-.986 2.173-2.204 2.173c-1.218 0-2.204-.972-2.204-2.172 0-1.2.986-2.171 2.204-2.171z" fill="#9B9DA0"/><path opacity=".5" d="M108.369 6.486c1.218 0 2.204.97 2.204 2.17s-.986 2.173-2.204 2.173c-1.218 0-2.204-.972-2.204-2.172 0-1.2.986-2.171 2.204-2.171z" fill="#9C9EA1"/><path opacity=".5" d="M108.369 6.486c1.218 0 2.204.97 2.204 2.17s-.986 2.173-2.204 2.173c-1.218 0-2.204-.972-2.204-2.172 0-1.2.986-2.171 2.204-2.171z" fill="#9D9FA1"/><path opacity=".5" d="M108.369 6.486c1.218 0 2.204.97 2.204 2.17s-.986 2.173-2.204 2.173c-1.218 0-2.204-.972-2.204-2.172 0-1.2.986-2.171 2.204-2.171z" fill="#9DA0A2"/><path opacity=".5" d="M108.369 6.486c1.218 0 2.204.97 2.204 2.17s-.986 2.173-2.204 2.173c-1.218 0-2.204-.972-2.204-2.172 0-1.2.986-2.171 2.204-2.171z" fill="#9EA0A3"/><path opacity=".5" d="M108.369 6.486c1.218 0 2.204.97 2.204 2.17s-.986 2.173-2.204 2.173c-1.218 0-2.204-.972-2.204-2.172 0-1.2.986-2.171 2.204-2.171z" fill="#9FA1A4"/><path opacity=".5" d="M108.369 6.486c1.218 0 2.204.97 2.204 2.17s-.986 2.173-2.204 2.173c-1.218 0-2.204-.972-2.204-2.172 0-1.2.986-2.171 2.204-2.171z" fill="#A0A2A4"/><path opacity=".5" d="M108.369 6.486c1.218 0 2.204.97 2.204 2.17s-.986 2.173-2.204 2.173c-1.218 0-2.204-.972-2.204-2.172 0-1.2.986-2.171 2.204-2.171z" fill="#A0A3A5"/><path opacity=".5" d="M108.369 6.486c1.218 0 2.204.97 2.204 2.17s-.986 2.173-2.204 2.173c-1.218 0-2.204-.972-2.204-2.172 0-1.2.986-2.171 2.204-2.171z" fill="#A1A3A6"/><path opacity=".5" d="M108.369 6.486c1.218 0 2.204.97 2.204 2.17s-.986 2.173-2.204 2.173c-1.218 0-2.204-.972-2.204-2.172 0-1.2.986-2.171 2.204-2.171z" fill="#A2A4A7"/><path opacity=".5" d="M108.369 6.486c1.218 0 2.204.97 2.204 2.17s-.986 2.173-2.204 2.173c-1.218 0-2.204-.972-2.204-2.172 0-1.2.986-2.171 2.204-2.171z" fill="#A3A5A7"/><path opacity=".5" d="M108.369 6.486c1.218 0 2.204.97 2.204 2.17s-.986 2.173-2.204 2.173c-1.218 0-2.204-.972-2.204-2.172 0-1.2.986-2.171 2.204-2.171z" fill="#A3A6A8"/><path opacity=".5" d="M108.369 6.486c1.218 0 2.204.97 2.204 2.17s-.986 2.173-2.204 2.173c-1.218 0-2.204-.972-2.204-2.172 0-1.2.986-2.171 2.204-2.171z" fill="#A4A6A9"/><path opacity=".5" d="M108.369 6.486c1.218 0 2.204.97 2.204 2.17s-.986 2.173-2.204 2.173c-1.218 0-2.204-.972-2.204-2.172 0-1.2.986-2.171 2.204-2.171z" fill="#A5A7AA"/><path opacity=".5" d="M108.369 6.486c1.218 0 2.204.97 2.204 2.17s-.986 2.173-2.204 2.173c-1.218 0-2.204-.972-2.204-2.172 0-1.2.986-2.171 2.204-2.171z" fill="#A6A8AA"/><path opacity=".5" d="M108.369 6.486c1.218 0 2.204.97 2.204 2.17s-.986 2.173-2.204 2.173c-1.218 0-2.204-.972-2.204-2.172 0-1.2.986-2.171 2.204-2.171z" fill="#A6A9AB"/><path opacity=".5" d="M108.369 6.486c1.218 0 2.204.97 2.204 2.17s-.986 2.173-2.204 2.173c-1.218 0-2.204-.972-2.204-2.172 0-1.2.986-2.171 2.204-2.171z" fill="#A7A9AC"/><path opacity=".5" d="M108.369 6.486c1.218 0 2.204.97 2.204 2.17s-.986 2.173-2.204 2.173c-1.218 0-2.204-.972-2.204-2.172 0-1.2.986-2.171 2.204-2.171z" fill="#A8AAAD"/><path opacity=".5" d="M108.369 6.486c1.218 0 2.204.97 2.204 2.17s-.986 2.173-2.204 2.173c-1.218 0-2.204-.972-2.204-2.172 0-1.2.986-2.171 2.204-2.171z" fill="#A9ABAD"/><path opacity=".5" d="M108.369 6.486c1.218 0 2.204.97 2.204 2.17s-.986 2.173-2.204 2.173c-1.218 0-2.204-.972-2.204-2.172 0-1.2.986-2.171 2.204-2.171z" fill="#A9ACAE"/><path opacity=".5" d="M108.369 6.486c1.218 0 2.204.97 2.204 2.17s-.986 2.173-2.204 2.173c-1.218 0-2.204-.972-2.204-2.172.058-1.2.986-2.171 2.204-2.171z" fill="#AAACAF"/><path opacity=".5" d="M108.369 6.486c1.218 0 2.204.97 2.204 2.17s-.986 2.173-2.204 2.173c-1.218 0-2.204-.972-2.204-2.172.058-1.2 1.044-2.171 2.204-2.171z" fill="#ABADB0"/><path opacity=".5" d="M108.369 6.486c1.218 0 2.204.97 2.204 2.17s-.986 2.173-2.204 2.173c-1.218 0-2.204-.972-2.204-2.172.058-1.2 1.044-2.171 2.204-2.171z" fill="#ACAEB0"/><path opacity=".5" d="M108.428 6.486c1.218 0 2.204.97 2.204 2.17s-.986 2.173-2.204 2.173c-1.218 0-2.204-.972-2.204-2.172 0-1.2.986-2.171 2.204-2.171z" fill="#ADAFB1"/><path opacity=".5" d="M108.428 6.543c1.218 0 2.204.971 2.204 2.171 0 1.2-.986 2.172-2.204 2.172-1.218 0-2.204-.972-2.204-2.172 0-1.257.986-2.171 2.204-2.171z" fill="#ADAFB2"/><path opacity=".5" d="M108.428 6.543c1.218 0 2.204.971 2.204 2.171 0 1.2-.986 2.172-2.204 2.172-1.218 0-2.204-.972-2.204-2.172 0-1.2.986-2.171 2.204-2.171z" fill="#AEB0B3"/><path opacity=".5" d="M108.428 6.543c1.218 0 2.204.971 2.204 2.171 0 1.2-.986 2.172-2.204 2.172-1.218 0-2.204-.972-2.204-2.172 0-1.2.986-2.171 2.204-2.171z" fill="#AFB1B3"/><path opacity=".5" d="M108.428 6.543c1.218 0 2.204.971 2.204 2.171 0 1.2-.986 2.172-2.204 2.172-1.218 0-2.204-.972-2.204-2.172 0-1.2.986-2.171 2.204-2.171z" fill="#B0B2B4"/><path opacity=".5" d="M108.428 6.543c1.218 0 2.204.971 2.204 2.171 0 1.2-.986 2.172-2.204 2.172-1.218 0-2.204-.972-2.204-2.172 0-1.2.986-2.171 2.204-2.171z" fill="#B0B2B5"/><path opacity=".5" d="M108.428 6.543c1.218 0 2.204.971 2.204 2.171 0 1.2-.986 2.172-2.204 2.172-1.218 0-2.204-.972-2.204-2.172 0-1.2.986-2.171 2.204-2.171z" fill="#B1B3B6"/><path opacity=".5" d="M108.428 6.543c1.218 0 2.204.971 2.204 2.171 0 1.2-.986 2.172-2.204 2.172-1.218 0-2.204-.972-2.204-2.172 0-1.2.986-2.171 2.204-2.171z" fill="#B2B4B6"/><path opacity=".5" d="M108.428 6.543c1.218 0 2.204.971 2.204 2.171 0 1.2-.986 2.172-2.204 2.172-1.218 0-2.204-.972-2.204-2.172 0-1.2.986-2.171 2.204-2.171z" fill="#B3B5B7"/><path opacity=".5" d="M108.428 6.543c1.218 0 2.204.971 2.204 2.171 0 1.2-.986 2.172-2.204 2.172-1.218 0-2.204-.972-2.204-2.172 0-1.2.986-2.171 2.204-2.171z" fill="#B4B6B8"/><path opacity=".5" d="M108.428 6.543c1.218 0 2.204.971 2.204 2.171 0 1.2-.986 2.172-2.204 2.172-1.218 0-2.204-.972-2.204-2.172 0-1.2.986-2.171 2.204-2.171z" fill="#B4B6B9"/><path opacity=".5" d="M108.428 6.543c1.218 0 2.204.971 2.204 2.171 0 1.2-.986 2.172-2.204 2.172-1.218 0-2.204-.972-2.204-2.172 0-1.2.986-2.171 2.204-2.171z" fill="#B5B7B9"/><path opacity=".5" d="M108.428 6.543c1.218 0 2.204.971 2.204 2.171 0 1.2-.986 2.172-2.204 2.172-1.218 0-2.204-.972-2.204-2.172 0-1.2.986-2.171 2.204-2.171z" fill="#B6B8BA"/><path opacity=".5" d="M108.428 6.543c1.218 0 2.204.971 2.204 2.171 0 1.2-.986 2.172-2.204 2.172-1.218 0-2.204-.972-2.204-2.172 0-1.2.986-2.171 2.204-2.171z" fill="#B7B9BB"/><path opacity=".5" d="M108.428 6.543c1.218 0 2.204.971 2.204 2.171 0 1.2-.986 2.172-2.204 2.172-1.218 0-2.204-.972-2.204-2.172 0-1.2.986-2.171 2.204-2.171z" fill="#B8B9BC"/><path opacity=".5" d="M108.428 6.543c1.218 0 2.204.971 2.204 2.171 0 1.2-.986 2.172-2.204 2.172-1.218 0-2.204-.972-2.204-2.172 0-1.2.986-2.171 2.204-2.171z" fill="#B8BABD"/><path opacity=".5" d="M108.428 6.543c1.218 0 2.204.971 2.204 2.171 0 1.2-.986 2.172-2.204 2.172-1.218 0-2.204-.972-2.204-2.172 0-1.2.986-2.171 2.204-2.171z" fill="#B9BBBD"/><path opacity=".5" d="M108.428 6.543c1.218 0 2.204.971 2.204 2.171 0 1.2-.986 2.172-2.204 2.172-1.218 0-2.204-.972-2.204-2.172 0-1.2.986-2.171 2.204-2.171z" fill="#BABCBE"/><path opacity=".5" d="M108.428 6.543c1.218 0 2.204.971 2.204 2.171 0 1.2-.986 2.172-2.204 2.172-1.218 0-2.204-.972-2.204-2.172 0-1.2.986-2.171 2.204-2.171z" fill="#BBBDBF"/><path opacity=".5" d="M108.428 6.543c1.218 0 2.204.971 2.204 2.171 0 1.2-.986 2.172-2.204 2.172-1.218 0-2.204-.972-2.204-2.172 0-1.2.986-2.171 2.204-2.171z" fill="#BBBDC0"/><path opacity=".5" d="M108.428 6.543c1.218 0 2.204.971 2.204 2.171 0 1.2-.986 2.172-2.204 2.172-1.218 0-2.204-.972-2.204-2.172 0-1.2.986-2.171 2.204-2.171z" fill="#BCBEC0"/><path opacity=".5" d="M108.428 6.543c1.218 0 2.204.971 2.204 2.171 0 1.2-.986 2.172-2.204 2.172-1.218 0-2.204-.972-2.204-2.172 0-1.2.986-2.171 2.204-2.171z" fill="#BDBFC1"/><path opacity=".5" d="M108.428 6.543c1.218 0 2.204.971 2.204 2.171 0 1.2-.986 2.172-2.204 2.172-1.218 0-2.204-.972-2.204-2.172 0-1.2.986-2.171 2.204-2.171z" fill="#BEC0C2"/><path opacity=".5" d="M108.428 6.543c1.218 0 2.204.971 2.204 2.171 0 1.2-.986 2.172-2.204 2.172-1.218 0-2.204-.972-2.204-2.172 0-1.2.986-2.171 2.204-2.171z" fill="#BFC0C3"/><path opacity=".5" d="M108.428 6.543c1.218 0 2.204.971 2.204 2.171 0 1.2-.986 2.172-2.204 2.172-1.218 0-2.204-.972-2.204-2.172 0-1.2.986-2.171 2.204-2.171z" fill="#BFC1C3"/><path opacity=".5" d="M108.428 6.543c1.218 0 2.204.971 2.204 2.171 0 1.2-.986 2.172-2.204 2.172-1.218 0-2.204-.972-2.204-2.172 0-1.2.986-2.171 2.204-2.171z" fill="#C0C2C4"/><path opacity=".5" d="M108.428 6.543c1.218 0 2.204.971 2.204 2.171 0 1.2-.986 2.172-2.204 2.172-1.218 0-2.204-.972-2.204-2.172 0-1.2.986-2.171 2.204-2.171z" fill="#C1C3C5"/><path opacity=".5" d="M108.428 6.543c1.218 0 2.204.971 2.204 2.171 0 1.2-.986 2.172-2.204 2.172-1.218 0-2.204-.972-2.204-2.172 0-1.2.986-2.171 2.204-2.171z" fill="#C2C4C6"/><path opacity=".5" d="M108.428 6.543c1.218 0 2.204.971 2.204 2.171 0 1.2-.986 2.172-2.204 2.172-1.218 0-2.204-.972-2.204-2.172 0-1.2.986-2.171 2.204-2.171z" fill="#C3C4C6"/><path opacity=".5" d="M108.428 6.543c1.218 0 2.204.971 2.204 2.171 0 1.2-.986 2.172-2.204 2.172-1.218 0-2.204-.972-2.204-2.172 0-1.2.986-2.171 2.204-2.171z" fill="#C3C5C7"/><path opacity=".5" d="M108.428 6.543c1.218 0 2.204.971 2.204 2.171 0 1.2-.986 2.172-2.204 2.172-1.218 0-2.204-.972-2.204-2.172 0-1.2.986-2.171 2.204-2.171z" fill="#C4C6C8"/><path opacity=".5" d="M108.428 6.543c1.218 0 2.204.971 2.204 2.171 0 1.2-.986 2.172-2.204 2.172-1.218 0-2.204-.972-2.204-2.172 0-1.2.986-2.171 2.204-2.171z" fill="#C5C7C9"/><path opacity=".5" d="M108.428 6.543c1.218 0 2.204.971 2.204 2.171 0 1.2-.986 2.172-2.204 2.172-1.218 0-2.204-.972-2.204-2.172 0-1.2.986-2.171 2.204-2.171z" fill="#C6C8CA"/><path opacity=".5" d="M110.632 8.714c0 1.2-.986 2.172-2.204 2.172-1.218 0-2.204-.972-2.204-2.172 0-1.2.986-2.171 2.204-2.171 1.218 0 2.204.971 2.204 2.171z" fill="#C7C8CA"/><path opacity=".995" d="M108.428 6.543c1.218 0 2.204.971 2.204 2.171 0 1.2-.986 2.172-2.204 2.172-1.218 0-2.204-.972-2.204-2.172 0-1.2.986-2.171 2.204-2.171z" fill="#C7C9CB"/><path opacity=".99" d="M108.428 6.543c1.218 0 2.204.971 2.204 2.171 0 1.2-.986 2.172-2.204 2.172-1.218 0-2.204-.972-2.204-2.172 0-1.2.986-2.171 2.204-2.171z" fill="#C7C9CB"/><path opacity=".985" d="M108.428 6.543c1.218 0 2.204.971 2.204 2.171 0 1.2-.986 2.172-2.204 2.172-1.218 0-2.204-.972-2.204-2.172 0-1.2.986-2.171 2.204-2.171z" fill="#C7C9CB"/><path opacity=".98" d="M108.428 6.543c1.218 0 2.204.971 2.204 2.171 0 1.2-.986 2.172-2.204 2.172-1.218 0-2.204-.972-2.204-2.172 0-1.2.986-2.171 2.204-2.171z" fill="#C8C9CB"/><path opacity=".975" d="M108.428 6.6c1.218 0 2.204.972 2.204 2.172 0 1.2-.986 2.17-2.204 2.17-1.218 0-2.204-.97-2.204-2.17 0-1.258.986-2.172 2.204-2.172z" fill="#C8CACC"/><path opacity=".97" d="M108.428 6.6c1.218 0 2.204.972 2.204 2.172 0 1.2-.986 2.17-2.204 2.17-1.218 0-2.204-.97-2.204-2.17 0-1.258.986-2.172 2.204-2.172z" fill="#C8CACC"/><path opacity=".965" d="M108.428 6.6c1.218 0 2.204.972 2.204 2.172 0 1.2-.986 2.17-2.204 2.17-1.218 0-2.204-.97-2.204-2.17.058-1.258.986-2.172 2.204-2.172z" fill="#C8CACC"/><path opacity=".96" d="M108.428 6.6c1.218 0 2.204.972 2.204 2.172 0 1.2-.986 2.17-2.204 2.17-1.218 0-2.204-.97-2.204-2.17.058-1.258.986-2.172 2.204-2.172z" fill="#C9CACC"/><path opacity=".955" d="M108.428 6.6c1.218 0 2.204.972 2.204 2.172 0 1.2-.986 2.17-2.204 2.17-1.218 0-2.204-.97-2.204-2.17.058-1.2.986-2.172 2.204-2.172z" fill="#C9CBCD"/><path opacity=".95" d="M108.428 6.6c1.218 0 2.204.972 2.204 2.172 0 1.2-.986 2.17-2.204 2.17-1.218 0-2.204-.97-2.204-2.17.058-1.2.986-2.172 2.204-2.172z" fill="#C9CBCD"/><path opacity=".945" d="M108.428 6.6c1.218 0 2.204.972 2.204 2.172 0 1.2-.986 2.17-2.204 2.17-1.218 0-2.204-.97-2.204-2.17.058-1.2 1.044-2.172 2.204-2.172z" fill="#C9CBCD"/><path opacity=".94" d="M108.428 6.6c1.218 0 2.204.972 2.204 2.172 0 1.2-.986 2.17-2.204 2.17-1.218 0-2.204-.97-2.204-2.17.058-1.2 1.044-2.172 2.204-2.172z" fill="#CACBCD"/><path opacity=".935" d="M108.428 6.6c1.218 0 2.204.972 2.204 2.172 0 1.2-.986 2.17-2.204 2.17-1.218 0-2.204-.97-2.204-2.17.058-1.2 1.044-2.172 2.204-2.172z" fill="#CACCCE"/><path opacity=".93" d="M108.428 6.6c1.218 0 2.204.972 2.204 2.172 0 1.2-.986 2.17-2.204 2.17-1.218 0-2.204-.97-2.204-2.17.058-1.2 1.044-2.172 2.204-2.172z" fill="#CACCCE"/><path opacity=".925" d="M108.428 6.6c1.218 0 2.204.972 2.204 2.172 0 1.2-.986 2.17-2.204 2.17-1.218 0-2.204-.97-2.204-2.17.058-1.2 1.044-2.172 2.204-2.172z" fill="#CBCCCE"/><path opacity=".92" d="M108.428 6.6c1.218 0 2.204.972 2.204 2.172 0 1.2-.986 2.17-2.204 2.17-1.218 0-2.204-.97-2.204-2.17.058-1.2 1.044-2.172 2.204-2.172z" fill="#CBCCCE"/><path opacity=".915" d="M108.486 6.6c1.218 0 2.204.972 2.204 2.172 0 1.2-.986 2.17-2.204 2.17-1.218 0-2.204-.97-2.204-2.17s.986-2.172 2.204-2.172z" fill="#CBCDCF"/><path opacity=".91" d="M108.486 6.6c1.218 0 2.204.972 2.204 2.172 0 1.2-.986 2.17-2.204 2.17-1.218 0-2.204-.97-2.204-2.17s.986-2.172 2.204-2.172z" fill="#CBCDCF"/><path opacity=".905" d="M108.486 6.6c1.218 0 2.204.972 2.204 2.172 0 1.2-.986 2.17-2.204 2.17-1.218 0-2.204-.97-2.204-2.17s.986-2.172 2.204-2.172z" fill="#CCCDCF"/><path opacity=".9" d="M108.486 6.6c1.218 0 2.204.972 2.204 2.172 0 1.2-.986 2.17-2.204 2.17-1.218 0-2.204-.97-2.204-2.17s.986-2.172 2.204-2.172z" fill="#CCCDCF"/><path opacity=".895" d="M108.486 6.6c1.218 0 2.204.972 2.204 2.172 0 1.2-.986 2.17-2.204 2.17-1.218 0-2.204-.97-2.204-2.17s.986-2.172 2.204-2.172z" fill="#CCCED0"/><path opacity=".89" d="M108.486 6.6c1.218 0 2.204.972 2.204 2.172 0 1.2-.986 2.17-2.204 2.17-1.218 0-2.204-.97-2.204-2.17s.986-2.172 2.204-2.172z" fill="#CCCED0"/><path opacity=".886" d="M108.486 6.6c1.218 0 2.204.972 2.204 2.172 0 1.2-.986 2.17-2.204 2.17-1.218 0-2.204-.97-2.204-2.17s.986-2.172 2.204-2.172z" fill="#CDCED0"/><path opacity=".881" d="M108.486 6.6c1.218 0 2.204.972 2.204 2.172 0 1.2-.986 2.17-2.204 2.17-1.218 0-2.204-.97-2.204-2.17s.986-2.172 2.204-2.172z" fill="#CDCED0"/><path opacity=".876" d="M108.486 6.6c1.218 0 2.204.972 2.204 2.172 0 1.2-.986 2.17-2.204 2.17-1.218 0-2.204-.97-2.204-2.17s.986-2.172 2.204-2.172z" fill="#CDCFD1"/><path opacity=".871" d="M108.486 6.6c1.218 0 2.204.972 2.204 2.172 0 1.2-.986 2.17-2.204 2.17-1.218 0-2.204-.97-2.204-2.17s.986-2.172 2.204-2.172z" fill="#CDCFD1"/><path opacity=".866" d="M108.486 6.6c1.218 0 2.204.972 2.204 2.172 0 1.2-.986 2.17-2.204 2.17-1.218 0-2.204-.97-2.204-2.17s.986-2.172 2.204-2.172z" fill="#CECFD1"/><path opacity=".861" d="M108.486 6.6c1.218 0 2.204.972 2.204 2.172 0 1.2-.986 2.17-2.204 2.17-1.218 0-2.204-.97-2.204-2.17s.986-2.172 2.204-2.172z" fill="#CED0D1"/><path opacity=".856" d="M108.486 6.6c1.218 0 2.204.972 2.204 2.172 0 1.2-.986 2.17-2.204 2.17-1.218 0-2.204-.97-2.204-2.17s.986-2.172 2.204-2.172z" fill="#CED0D1"/><path opacity=".851" d="M108.486 6.6c1.218 0 2.204.972 2.204 2.172 0 1.2-.986 2.17-2.204 2.17-1.218 0-2.204-.97-2.204-2.17s.986-2.172 2.204-2.172z" fill="#CED0D2"/><path opacity=".846" d="M108.486 6.6c1.218 0 2.204.972 2.204 2.172 0 1.2-.986 2.17-2.204 2.17-1.218 0-2.204-.97-2.204-2.17s.986-2.172 2.204-2.172z" fill="#CFD0D2"/><path opacity=".841" d="M108.486 6.6c1.218 0 2.204.972 2.204 2.172 0 1.2-.986 2.17-2.204 2.17-1.218 0-2.204-.97-2.204-2.17s.986-2.172 2.204-2.172z" fill="#CFD1D2"/><path opacity=".836" d="M108.486 6.6c1.218 0 2.204.972 2.204 2.172 0 1.2-.986 2.17-2.204 2.17-1.218 0-2.204-.97-2.204-2.17s.986-2.172 2.204-2.172z" fill="#CFD1D2"/><path opacity=".831" d="M108.486 6.6c1.218 0 2.204.972 2.204 2.172 0 1.2-.986 2.17-2.204 2.17-1.218 0-2.204-.97-2.204-2.17s.986-2.172 2.204-2.172z" fill="#D0D1D3"/><path opacity=".826" d="M108.486 6.6c1.218 0 2.204.972 2.204 2.172 0 1.2-.986 2.17-2.204 2.17-1.218 0-2.204-.97-2.204-2.17s.986-2.172 2.204-2.172z" fill="#D0D1D3"/><path opacity=".821" d="M108.486 6.6c1.218 0 2.204.972 2.204 2.172 0 1.2-.986 2.17-2.204 2.17-1.218 0-2.204-.97-2.204-2.17s.986-2.172 2.204-2.172z" fill="#D0D2D3"/><path opacity=".816" d="M108.486 6.6c1.218 0 2.204.972 2.204 2.172 0 1.2-.986 2.17-2.204 2.17-1.218 0-2.204-.97-2.204-2.17s.986-2.172 2.204-2.172z" fill="#D0D2D3"/><path opacity=".811" d="M108.486 6.6c1.218 0 2.204.972 2.204 2.172 0 1.2-.986 2.17-2.204 2.17-1.218 0-2.204-.97-2.204-2.17s.986-2.172 2.204-2.172z" fill="#D1D2D4"/><path opacity=".806" d="M108.486 6.6c1.218 0 2.204.972 2.204 2.172 0 1.2-.986 2.17-2.204 2.17-1.218 0-2.204-.97-2.204-2.17s.986-2.172 2.204-2.172z" fill="#D1D2D4"/><path opacity=".801" d="M108.486 6.6c1.218 0 2.204.972 2.204 2.172 0 1.2-.986 2.17-2.204 2.17-1.218 0-2.204-.97-2.204-2.17s.986-2.172 2.204-2.172z" fill="#D1D3D4"/><path opacity=".796" d="M108.486 6.6c1.218 0 2.204.972 2.204 2.172 0 1.2-.986 2.17-2.204 2.17-1.218 0-2.204-.97-2.204-2.17s.986-2.172 2.204-2.172z" fill="#D1D3D4"/><path opacity=".791" d="M108.486 6.6c1.218 0 2.204.972 2.204 2.172 0 1.2-.986 2.17-2.204 2.17-1.218 0-2.204-.97-2.204-2.17s.986-2.172 2.204-2.172z" fill="#D2D3D5"/><path opacity=".786" d="M108.486 6.6c1.218 0 2.204.972 2.204 2.172 0 1.2-.986 2.17-2.204 2.17-1.218 0-2.204-.97-2.204-2.17s.986-2.172 2.204-2.172z" fill="#D2D3D5"/><path opacity=".781" d="M108.486 6.6c1.218 0 2.204.972 2.204 2.172 0 1.2-.986 2.17-2.204 2.17-1.218 0-2.204-.97-2.204-2.17s.986-2.172 2.204-2.172z" fill="#D2D4D5"/><path opacity=".776" d="M108.486 6.6c1.218 0 2.204.972 2.204 2.172 0 1.2-.986 2.17-2.204 2.17-1.218 0-2.204-.97-2.204-2.17s.986-2.172 2.204-2.172z" fill="#D2D4D5"/><path opacity=".771" d="M108.486 6.6c1.218 0 2.204.972 2.204 2.172 0 1.2-.986 2.17-2.204 2.17-1.218 0-2.204-.97-2.204-2.17s.986-2.172 2.204-2.172z" fill="#D3D4D6"/><path opacity=".766" d="M108.486 6.6c1.218 0 2.204.972 2.204 2.172 0 1.2-.986 2.17-2.204 2.17-1.218 0-2.204-.97-2.204-2.17s.986-2.172 2.204-2.172z" fill="#D3D4D6"/><path opacity=".761" d="M108.486 6.6c1.218 0 2.204.972 2.204 2.172 0 1.2-.986 2.17-2.204 2.17-1.218 0-2.204-.97-2.204-2.17s.986-2.172 2.204-2.172z" fill="#D3D5D6"/><path opacity=".756" d="M108.486 6.6c1.218 0 2.204.972 2.204 2.172 0 1.2-.986 2.17-2.204 2.17-1.218 0-2.204-.97-2.204-2.17s.986-2.172 2.204-2.172z" fill="#D3D5D6"/><path opacity=".751" d="M108.486 6.6c1.218 0 2.204.972 2.204 2.172 0 1.2-.986 2.17-2.204 2.17-1.218 0-2.204-.97-2.204-2.17s.986-2.172 2.204-2.172z" fill="#D4D5D7"/><path opacity=".746" d="M108.486 6.657c1.218 0 2.204.972 2.204 2.172 0 1.2-.986 2.171-2.204 2.171-1.218 0-2.204-.971-2.204-2.171 0-1.257.986-2.172 2.204-2.172z" fill="#D4D5D7"/><path opacity=".741" d="M108.486 6.657c1.218 0 2.204.972 2.204 2.172 0 1.2-.986 2.171-2.204 2.171-1.218 0-2.204-.971-2.204-2.171 0-1.257.986-2.172 2.204-2.172z" fill="#D4D6D7"/><path opacity=".736" d="M108.486 6.657c1.218 0 2.204.972 2.204 2.172 0 1.2-.986 2.171-2.204 2.171-1.218 0-2.204-.971-2.204-2.171 0-1.257.986-2.172 2.204-2.172z" fill="#D5D6D7"/><path opacity=".731" d="M108.486 6.657c1.218 0 2.204.972 2.204 2.172 0 1.2-.986 2.171-2.204 2.171-1.218 0-2.204-.971-2.204-2.171 0-1.257.986-2.172 2.204-2.172z" fill="#D5D6D8"/><path opacity=".726" d="M108.486 6.657c1.218 0 2.204.972 2.204 2.172 0 1.2-.986 2.171-2.204 2.171-1.218 0-2.204-.971-2.204-2.171 0-1.2.986-2.172 2.204-2.172z" fill="#D5D6D8"/><path opacity=".721" d="M108.486 6.657c1.218 0 2.204.972 2.204 2.172 0 1.2-.986 2.171-2.204 2.171-1.218 0-2.204-.971-2.204-2.171 0-1.2.986-2.172 2.204-2.172z" fill="#D5D7D8"/><path opacity=".716" d="M108.486 6.657c1.218 0 2.204.972 2.204 2.172 0 1.2-.986 2.171-2.204 2.171-1.218 0-2.204-.971-2.204-2.171 0-1.2.986-2.172 2.204-2.172z" fill="#D6D7D8"/><path opacity=".711" d="M108.486 6.657c1.218 0 2.204.972 2.204 2.172 0 1.2-.986 2.171-2.204 2.171-1.218 0-2.204-.971-2.204-2.171 0-1.2.986-2.172 2.204-2.172z" fill="#D6D7D9"/><path opacity=".707" d="M108.486 6.657c1.218 0 2.204.972 2.204 2.172 0 1.2-.986 2.171-2.204 2.171-1.218 0-2.204-.971-2.204-2.171 0-1.2.986-2.172 2.204-2.172z" fill="#D6D7D9"/><path opacity=".702" d="M108.486 6.657c1.218 0 2.204.972 2.204 2.172 0 1.2-.986 2.171-2.204 2.171-1.218 0-2.204-.971-2.204-2.171 0-1.2.986-2.172 2.204-2.172z" fill="#D6D8D9"/><path opacity=".697" d="M108.486 6.657c1.218 0 2.204.972 2.204 2.172 0 1.2-.986 2.171-2.204 2.171-1.218 0-2.204-.971-2.204-2.171 0-1.2.986-2.172 2.204-2.172z" fill="#D7D8D9"/><path opacity=".692" d="M108.486 6.657c1.218 0 2.204.972 2.204 2.172 0 1.2-.986 2.171-2.204 2.171-1.218 0-2.204-.971-2.204-2.171.058-1.2.986-2.172 2.204-2.172z" fill="#D7D8DA"/><path opacity=".687" d="M108.486 6.657c1.218 0 2.204.972 2.204 2.172 0 1.2-.986 2.171-2.204 2.171-1.218 0-2.204-.971-2.204-2.171.058-1.2.986-2.172 2.204-2.172z" fill="#D7D8DA"/><path opacity=".682" d="M108.486 6.657c1.218 0 2.204.972 2.204 2.172 0 1.2-.986 2.171-2.204 2.171-1.218 0-2.204-.971-2.204-2.171.058-1.2.986-2.172 2.204-2.172z" fill="#D7D9DA"/><path opacity=".677" d="M108.486 6.657c1.218 0 2.204.972 2.204 2.172 0 1.2-.986 2.171-2.204 2.171-1.218 0-2.204-.971-2.204-2.171.058-1.2.986-2.172 2.204-2.172z" fill="#D8D9DA"/><path opacity=".672" d="M108.486 6.657c1.218 0 2.204.972 2.204 2.172 0 1.2-.986 2.171-2.204 2.171-1.218 0-2.204-.971-2.204-2.171.058-1.2 1.044-2.172 2.204-2.172z" fill="#D8D9DB"/><path opacity=".667" d="M108.486 6.657c1.218 0 2.204.972 2.204 2.172 0 1.2-.986 2.171-2.204 2.171-1.218 0-2.204-.971-2.204-2.171.058-1.2 1.044-2.172 2.204-2.172z" fill="#D8D9DB"/><path opacity=".662" d="M108.486 6.657c1.218 0 2.204.972 2.204 2.172 0 1.2-.986 2.171-2.204 2.171-1.218 0-2.204-.971-2.204-2.171.058-1.2 1.044-2.172 2.204-2.172z" fill="#D8DADB"/><path opacity=".657" d="M108.486 6.657c1.218 0 2.204.972 2.204 2.172 0 1.2-.986 2.171-2.204 2.171-1.218 0-2.204-.971-2.204-2.171.058-1.2 1.044-2.172 2.204-2.172z" fill="#D9DADB"/><path opacity=".652" d="M108.486 6.657c1.218 0 2.204.972 2.204 2.172 0 1.2-.986 2.171-2.204 2.171-1.218 0-2.204-.971-2.204-2.171.058-1.2 1.044-2.172 2.204-2.172z" fill="#D9DADC"/><path opacity=".647" d="M108.486 6.657c1.218 0 2.204.972 2.204 2.172 0 1.2-.986 2.171-2.204 2.171-1.218 0-2.204-.971-2.204-2.171.058-1.2 1.044-2.172 2.204-2.172z" fill="#D9DBDC"/><path opacity=".642" d="M108.486 6.657c1.218 0 2.204.972 2.204 2.172 0 1.2-.986 2.171-2.204 2.171-1.218 0-2.204-.971-2.204-2.171.058-1.2 1.044-2.172 2.204-2.172z" fill="#DADBDC"/><path opacity=".637" d="M108.544 6.657c1.218 0 2.204.972 2.204 2.172 0 1.2-.986 2.171-2.204 2.171-1.218 0-2.204-.971-2.204-2.171 0-1.2.986-2.172 2.204-2.172z" fill="#DADBDC"/><path opacity=".632" d="M108.544 6.657c1.218 0 2.204.972 2.204 2.172 0 1.2-.986 2.171-2.204 2.171-1.218 0-2.204-.971-2.204-2.171 0-1.2.986-2.172 2.204-2.172z" fill="#DADBDD"/><path opacity=".627" d="M108.544 6.657c1.218 0 2.204.972 2.204 2.172 0 1.2-.986 2.171-2.204 2.171-1.218 0-2.204-.971-2.204-2.171 0-1.2.986-2.172 2.204-2.172z" fill="#DADCDD"/><path opacity=".622" d="M108.544 6.657c1.218 0 2.204.972 2.204 2.172 0 1.2-.986 2.171-2.204 2.171-1.218 0-2.204-.971-2.204-2.171 0-1.2.986-2.172 2.204-2.172z" fill="#DBDCDD"/><path opacity=".617" d="M108.544 6.657c1.218 0 2.204.972 2.204 2.172 0 1.2-.986 2.171-2.204 2.171-1.218 0-2.204-.971-2.204-2.171 0-1.2.986-2.172 2.204-2.172z" fill="#DBDCDD"/><path opacity=".612" d="M108.544 6.657c1.218 0 2.204.972 2.204 2.172 0 1.2-.986 2.171-2.204 2.171-1.218 0-2.204-.971-2.204-2.171 0-1.2.986-2.172 2.204-2.172z" fill="#DBDCDE"/><path opacity=".607" d="M108.544 6.657c1.218 0 2.204.972 2.204 2.172 0 1.2-.986 2.171-2.204 2.171-1.218 0-2.204-.971-2.204-2.171 0-1.2.986-2.172 2.204-2.172z" fill="#DBDDDE"/><path opacity=".602" d="M108.544 6.657c1.218 0 2.204.972 2.204 2.172 0 1.2-.986 2.171-2.204 2.171-1.218 0-2.204-.971-2.204-2.171 0-1.2.986-2.172 2.204-2.172z" fill="#DCDDDE"/><path opacity=".597" d="M108.544 6.657c1.218 0 2.204.972 2.204 2.172 0 1.2-.986 2.171-2.204 2.171-1.218 0-2.204-.971-2.204-2.171 0-1.2.986-2.172 2.204-2.172z" fill="#DCDDDE"/><path opacity=".592" d="M108.544 6.657c1.218 0 2.204.972 2.204 2.172 0 1.2-.986 2.171-2.204 2.171-1.218 0-2.204-.971-2.204-2.171 0-1.2.986-2.172 2.204-2.172z" fill="#DCDDDF"/><path opacity=".587" d="M108.544 6.657c1.218 0 2.204.972 2.204 2.172 0 1.2-.986 2.171-2.204 2.171-1.218 0-2.204-.971-2.204-2.171 0-1.2.986-2.172 2.204-2.172z" fill="#DCDEDF"/><path opacity=".582" d="M108.544 6.657c1.218 0 2.204.972 2.204 2.172 0 1.2-.986 2.171-2.204 2.171-1.218 0-2.204-.971-2.204-2.171 0-1.2.986-2.172 2.204-2.172z" fill="#DDDEDF"/><path opacity=".577" d="M108.544 6.657c1.218 0 2.204.972 2.204 2.172 0 1.2-.986 2.171-2.204 2.171-1.218 0-2.204-.971-2.204-2.171 0-1.2.986-2.172 2.204-2.172z" fill="#DDDEDF"/><path opacity=".572" d="M108.544 6.657c1.218 0 2.204.972 2.204 2.172 0 1.2-.986 2.171-2.204 2.171-1.218 0-2.204-.971-2.204-2.171 0-1.2.986-2.172 2.204-2.172z" fill="#DDDEE0"/><path opacity=".567" d="M108.544 6.657c1.218 0 2.204.972 2.204 2.172 0 1.2-.986 2.171-2.204 2.171-1.218 0-2.204-.971-2.204-2.171 0-1.2.986-2.172 2.204-2.172z" fill="#DDDFE0"/><path opacity=".562" d="M108.544 6.657c1.218 0 2.204.972 2.204 2.172 0 1.2-.986 2.171-2.204 2.171-1.218 0-2.204-.971-2.204-2.171 0-1.2.986-2.172 2.204-2.172z" fill="#DEDFE0"/><path opacity=".557" d="M108.544 6.657c1.218 0 2.204.972 2.204 2.172 0 1.2-.986 2.171-2.204 2.171-1.218 0-2.204-.971-2.204-2.171 0-1.2.986-2.172 2.204-2.172z" fill="#DEDFE0"/><path opacity=".552" d="M108.544 6.657c1.218 0 2.204.972 2.204 2.172 0 1.2-.986 2.171-2.204 2.171-1.218 0-2.204-.971-2.204-2.171 0-1.2.986-2.172 2.204-2.172z" fill="#DEDFE1"/><path opacity=".547" d="M108.544 6.657c1.218 0 2.204.972 2.204 2.172 0 1.2-.986 2.171-2.204 2.171-1.218 0-2.204-.971-2.204-2.171 0-1.2.986-2.172 2.204-2.172z" fill="#DFE0E1"/><path opacity=".542" d="M108.544 6.657c1.218 0 2.204.972 2.204 2.172 0 1.2-.986 2.171-2.204 2.171-1.218 0-2.204-.971-2.204-2.171 0-1.2.986-2.172 2.204-2.172z" fill="#DFE0E1"/><path opacity=".537" d="M108.544 6.657c1.218 0 2.204.972 2.204 2.172 0 1.2-.986 2.171-2.204 2.171-1.218 0-2.204-.971-2.204-2.171 0-1.2.986-2.172 2.204-2.172z" fill="#DFE0E1"/><path opacity=".532" d="M108.544 6.657c1.218 0 2.204.972 2.204 2.172 0 1.2-.986 2.171-2.204 2.171-1.218 0-2.204-.971-2.204-2.171 0-1.2.986-2.172 2.204-2.172z" fill="#DFE0E2"/><path opacity=".527" d="M108.544 6.657c1.218 0 2.204.972 2.204 2.172 0 1.2-.986 2.171-2.204 2.171-1.218 0-2.204-.971-2.204-2.171 0-1.2.986-2.172 2.204-2.172z" fill="#E0E1E2"/><path opacity=".522" d="M108.544 6.657c1.218 0 2.204.972 2.204 2.172 0 1.2-.986 2.171-2.204 2.171-1.218 0-2.204-.971-2.204-2.171 0-1.2.986-2.172 2.204-2.172z" fill="#E0E1E2"/><path opacity=".517" d="M108.544 6.715c1.218 0 2.204.97 2.204 2.17s-.986 2.172-2.204 2.172c-1.218 0-2.204-.971-2.204-2.171 0-1.257.986-2.171 2.204-2.171z" fill="#E0E1E2"/><path opacity=".512" d="M108.544 6.715c1.218 0 2.204.97 2.204 2.17s-.986 2.172-2.204 2.172c-1.218 0-2.204-.971-2.204-2.171 0-1.257.986-2.171 2.204-2.171z" fill="#E0E1E3"/><path opacity=".507" d="M108.544 6.715c1.218 0 2.204.97 2.204 2.17s-.986 2.172-2.204 2.172c-1.218 0-2.204-.971-2.204-2.171 0-1.257.986-2.171 2.204-2.171z" fill="#E1E2E3"/><path opacity=".502" d="M108.544 6.715c1.218 0 2.204.97 2.204 2.17s-.986 2.172-2.204 2.172c-1.218 0-2.204-.971-2.204-2.171 0-1.257.986-2.171 2.204-2.171z" fill="#E1E2E3"/><path opacity=".497" d="M108.544 6.715c1.218 0 2.204.97 2.204 2.17s-.986 2.172-2.204 2.172c-1.218 0-2.204-.971-2.204-2.171 0-1.2.986-2.171 2.204-2.171z" fill="#E1E2E3"/><path opacity=".492" d="M108.544 6.715c1.218 0 2.204.97 2.204 2.17s-.986 2.172-2.204 2.172c-1.218 0-2.204-.971-2.204-2.171 0-1.2.986-2.171 2.204-2.171z" fill="#E1E2E4"/><path opacity=".488" d="M108.544 6.715c1.218 0 2.204.97 2.204 2.17s-.986 2.172-2.204 2.172c-1.218 0-2.204-.971-2.204-2.171 0-1.2.986-2.171 2.204-2.171z" fill="#E2E3E4"/><path opacity=".483" d="M108.544 6.715c1.218 0 2.204.97 2.204 2.17s-.986 2.172-2.204 2.172c-1.218 0-2.204-.971-2.204-2.171 0-1.2.986-2.171 2.204-2.171z" fill="#E2E3E4"/><path opacity=".478" d="M108.544 6.715c1.218 0 2.204.97 2.204 2.17s-.986 2.172-2.204 2.172c-1.218 0-2.204-.971-2.204-2.171 0-1.2.986-2.171 2.204-2.171z" fill="#E2E3E4"/><path opacity=".473" d="M108.544 6.715c1.218 0 2.204.97 2.204 2.17s-.986 2.172-2.204 2.172c-1.218 0-2.204-.971-2.204-2.171 0-1.2.986-2.171 2.204-2.171z" fill="#E2E3E4"/><path opacity=".468" d="M108.544 6.715c1.218 0 2.204.97 2.204 2.17s-.986 2.172-2.204 2.172c-1.218 0-2.204-.971-2.204-2.171 0-1.2.986-2.171 2.204-2.171z" fill="#E3E4E5"/><path opacity=".463" d="M108.544 6.715c1.218 0 2.204.97 2.204 2.17s-.986 2.172-2.204 2.172c-1.218 0-2.204-.971-2.204-2.171 0-1.2.986-2.171 2.204-2.171z" fill="#E3E4E5"/><path opacity=".458" d="M108.544 6.715c1.218 0 2.204.97 2.204 2.17s-.986 2.172-2.204 2.172c-1.218 0-2.204-.971-2.204-2.171 0-1.2.986-2.171 2.204-2.171z" fill="#E3E4E5"/><path opacity=".453" d="M108.544 6.715c1.218 0 2.204.97 2.204 2.17s-.986 2.172-2.204 2.172c-1.218 0-2.204-.971-2.204-2.171 0-1.2.986-2.171 2.204-2.171z" fill="#E3E4E5"/><path opacity=".448" d="M108.544 6.715c1.218 0 2.204.97 2.204 2.17s-.986 2.172-2.204 2.172c-1.218 0-2.204-.971-2.204-2.171 0-1.2.986-2.171 2.204-2.171z" fill="#E4E5E6"/><path opacity=".443" d="M108.544 6.715c1.218 0 2.204.97 2.204 2.17s-.986 2.172-2.204 2.172c-1.218 0-2.204-.971-2.204-2.171 0-1.2.986-2.171 2.204-2.171z" fill="#E4E5E6"/><path opacity=".438" d="M108.544 6.715c1.218 0 2.204.97 2.204 2.17s-.986 2.172-2.204 2.172c-1.218 0-2.204-.971-2.204-2.171 0-1.2.986-2.171 2.204-2.171z" fill="#E4E5E6"/><path opacity=".433" d="M108.544 6.715c1.218 0 2.204.97 2.204 2.17s-.986 2.172-2.204 2.172c-1.218 0-2.204-.971-2.204-2.171 0-1.2.986-2.171 2.204-2.171z" fill="#E5E5E6"/><path opacity=".428" d="M108.544 6.715c1.218 0 2.204.97 2.204 2.17s-.986 2.172-2.204 2.172c-1.218 0-2.204-.971-2.204-2.171 0-1.2.986-2.171 2.204-2.171z" fill="#E5E6E7"/><path opacity=".423" d="M108.544 6.715c1.218 0 2.204.97 2.204 2.17s-.986 2.172-2.204 2.172c-1.218 0-2.204-.971-2.204-2.171 0-1.2.986-2.171 2.204-2.171z" fill="#E5E6E7"/><path opacity=".418" d="M108.544 6.715c1.218 0 2.204.97 2.204 2.17s-.986 2.172-2.204 2.172c-1.218 0-2.204-.971-2.204-2.171.058-1.2.986-2.171 2.204-2.171z" fill="#E5E6E7"/><path opacity=".413" d="M108.544 6.715c1.218 0 2.204.97 2.204 2.17s-.986 2.172-2.204 2.172c-1.218 0-2.204-.971-2.204-2.171.058-1.2.986-2.171 2.204-2.171z" fill="#E6E6E7"/><path opacity=".408" d="M108.544 6.715c1.218 0 2.204.97 2.204 2.17s-.986 2.172-2.204 2.172c-1.218 0-2.204-.971-2.204-2.171.058-1.2.986-2.171 2.204-2.171z" fill="#E6E7E8"/><path opacity=".403" d="M108.544 6.715c1.218 0 2.204.97 2.204 2.17s-.986 2.172-2.204 2.172c-1.218 0-2.204-.971-2.204-2.171.058-1.2.986-2.171 2.204-2.171z" fill="#E6E7E8"/><path opacity=".398" d="M108.544 6.715c1.218 0 2.204.97 2.204 2.17s-.986 2.172-2.204 2.172c-1.218 0-2.204-.971-2.204-2.171.058-1.2 1.044-2.171 2.204-2.171z" fill="#E6E7E8"/><path opacity=".393" d="M108.544 6.715c1.218 0 2.204.97 2.204 2.17s-.986 2.172-2.204 2.172c-1.218 0-2.204-.971-2.204-2.171.058-1.2 1.044-2.171 2.204-2.171z" fill="#E7E8E8"/><path opacity=".388" d="M108.544 6.715c1.218 0 2.204.97 2.204 2.17s-.986 2.172-2.204 2.172c-1.218 0-2.204-.971-2.204-2.171.058-1.2 1.044-2.171 2.204-2.171z" fill="#E7E8E9"/><path opacity=".383" d="M108.544 6.715c1.218 0 2.204.97 2.204 2.17s-.986 2.172-2.204 2.172c-1.218 0-2.204-.971-2.204-2.171.058-1.2 1.044-2.171 2.204-2.171z" fill="#E7E8E9"/><path opacity=".378" d="M108.544 6.715c1.218 0 2.204.97 2.204 2.17s-.986 2.172-2.204 2.172c-1.218 0-2.204-.971-2.204-2.171.058-1.2 1.044-2.171 2.204-2.171z" fill="#E8E8E9"/><path opacity=".373" d="M108.544 6.715c1.218 0 2.204.97 2.204 2.17s-.986 2.172-2.204 2.172c-1.218 0-2.204-.971-2.204-2.171.058-1.2 1.044-2.171 2.204-2.171z" fill="#E8E9E9"/><path opacity=".368" d="M108.544 6.715c1.218 0 2.204.97 2.204 2.17s-.986 2.172-2.204 2.172c-1.218 0-2.204-.971-2.204-2.171.058-1.2 1.044-2.171 2.204-2.171z" fill="#E8E9EA"/><path opacity=".363" d="M108.601 6.715c1.218 0 2.204.97 2.204 2.17s-.986 2.172-2.204 2.172c-1.218 0-2.204-.971-2.204-2.171 0-1.2.986-2.171 2.204-2.171z" fill="#E8E9EA"/><path opacity=".358" d="M108.601 6.715c1.218 0 2.204.97 2.204 2.17s-.986 2.172-2.204 2.172c-1.218 0-2.204-.971-2.204-2.171 0-1.2.986-2.171 2.204-2.171z" fill="#E9E9EA"/><path opacity=".353" d="M108.601 6.715c1.218 0 2.204.97 2.204 2.17s-.986 2.172-2.204 2.172c-1.218 0-2.204-.971-2.204-2.171 0-1.2.986-2.171 2.204-2.171z" fill="#E9EAEB"/><path opacity=".348" d="M108.601 6.715c1.218 0 2.204.97 2.204 2.17s-.986 2.172-2.204 2.172c-1.218 0-2.204-.971-2.204-2.171 0-1.2.986-2.171 2.204-2.171z" fill="#E9EAEB"/><path opacity=".343" d="M108.601 6.715c1.218 0 2.204.97 2.204 2.17s-.986 2.172-2.204 2.172c-1.218 0-2.204-.971-2.204-2.171 0-1.2.986-2.171 2.204-2.171z" fill="#EAEAEB"/><path opacity=".338" d="M108.601 6.715c1.218 0 2.204.97 2.204 2.17s-.986 2.172-2.204 2.172c-1.218 0-2.204-.971-2.204-2.171 0-1.2.986-2.171 2.204-2.171z" fill="#EAEBEB"/><path opacity=".333" d="M108.601 6.715c1.218 0 2.204.97 2.204 2.17s-.986 2.172-2.204 2.172c-1.218 0-2.204-.971-2.204-2.171 0-1.2.986-2.171 2.204-2.171z" fill="#EAEBEC"/><path opacity=".328" d="M108.601 6.715c1.218 0 2.204.97 2.204 2.17s-.986 2.172-2.204 2.172c-1.218 0-2.204-.971-2.204-2.171 0-1.2.986-2.171 2.204-2.171z" fill="#EAEBEC"/><path opacity=".323" d="M108.601 6.715c1.218 0 2.204.97 2.204 2.17s-.986 2.172-2.204 2.172c-1.218 0-2.204-.971-2.204-2.171 0-1.2.986-2.171 2.204-2.171z" fill="#EBEBEC"/><path opacity=".318" d="M108.601 6.715c1.218 0 2.204.97 2.204 2.17s-.986 2.172-2.204 2.172c-1.218 0-2.204-.971-2.204-2.171 0-1.2.986-2.171 2.204-2.171z" fill="#EBECEC"/><path opacity=".313" d="M108.601 6.715c1.218 0 2.204.97 2.204 2.17s-.986 2.172-2.204 2.172c-1.218 0-2.204-.971-2.204-2.171 0-1.2.986-2.171 2.204-2.171z" fill="#EBECED"/><path opacity=".308" d="M108.601 6.715c1.218 0 2.204.97 2.204 2.17s-.986 2.172-2.204 2.172c-1.218 0-2.204-.971-2.204-2.171 0-1.2.986-2.171 2.204-2.171z" fill="#EBECED"/><path opacity=".303" d="M108.601 6.715c1.218 0 2.204.97 2.204 2.17s-.986 2.172-2.204 2.172c-1.218 0-2.204-.971-2.204-2.171 0-1.2.986-2.171 2.204-2.171z" fill="#ECECED"/><path opacity=".298" d="M108.601 6.715c1.218 0 2.204.97 2.204 2.17s-.986 2.172-2.204 2.172c-1.218 0-2.204-.971-2.204-2.171 0-1.2.986-2.171 2.204-2.171z" fill="#ECECED"/><path opacity=".293" d="M108.601 6.715c1.218 0 2.204.97 2.204 2.17s-.986 2.172-2.204 2.172c-1.218 0-2.204-.971-2.204-2.171 0-1.2.986-2.171 2.204-2.171z" fill="#ECEDED"/><path opacity=".289" d="M108.601 6.772c1.218 0 2.204.971 2.204 2.171 0 1.2-.986 2.172-2.204 2.172-1.218 0-2.204-.972-2.204-2.172 0-1.257.986-2.171 2.204-2.171z" fill="#ECEDEE"/><path opacity=".284" d="M108.601 6.772c1.218 0 2.204.971 2.204 2.171 0 1.2-.986 2.172-2.204 2.172-1.218 0-2.204-.972-2.204-2.172 0-1.257.986-2.171 2.204-2.171z" fill="#EDEDEE"/><path opacity=".279" d="M108.601 6.772c1.218 0 2.204.971 2.204 2.171 0 1.2-.986 2.172-2.204 2.172-1.218 0-2.204-.972-2.204-2.172 0-1.257.986-2.171 2.204-2.171z" fill="#EDEEEE"/><path opacity=".274" d="M108.601 6.772c1.218 0 2.204.971 2.204 2.171 0 1.2-.986 2.172-2.204 2.172-1.218 0-2.204-.972-2.204-2.172 0-1.257.986-2.171 2.204-2.171z" fill="#EDEEEE"/><path opacity=".269" d="M108.601 6.772c1.218 0 2.204.971 2.204 2.171 0 1.2-.986 2.172-2.204 2.172-1.218 0-2.204-.972-2.204-2.172 0-1.2.986-2.171 2.204-2.171z" fill="#EDEEEF"/><path opacity=".264" d="M108.601 6.772c1.218 0 2.204.971 2.204 2.171 0 1.2-.986 2.172-2.204 2.172-1.218 0-2.204-.972-2.204-2.172 0-1.2.986-2.171 2.204-2.171z" fill="#EEEEEF"/><path opacity=".259" d="M108.601 6.772c1.218 0 2.204.971 2.204 2.171 0 1.2-.986 2.172-2.204 2.172-1.218 0-2.204-.972-2.204-2.172 0-1.2.986-2.171 2.204-2.171z" fill="#EEEFEF"/><path opacity=".254" d="M108.601 6.772c1.218 0 2.204.971 2.204 2.171 0 1.2-.986 2.172-2.204 2.172-1.218 0-2.204-.972-2.204-2.172 0-1.2.986-2.171 2.204-2.171z" fill="#EEEFEF"/><path opacity=".249" d="M108.601 6.772c1.218 0 2.204.971 2.204 2.171 0 1.2-.986 2.172-2.204 2.172-1.218 0-2.204-.972-2.204-2.172 0-1.2.986-2.171 2.204-2.171z" fill="#EEEFF0"/><path opacity=".244" d="M108.601 6.772c1.218 0 2.204.971 2.204 2.171 0 1.2-.986 2.172-2.204 2.172-1.218 0-2.204-.972-2.204-2.172 0-1.2.986-2.171 2.204-2.171z" fill="#EFEFF0"/><path opacity=".239" d="M108.601 6.772c1.218 0 2.204.971 2.204 2.171 0 1.2-.986 2.172-2.204 2.172-1.218 0-2.204-.972-2.204-2.172 0-1.2.986-2.171 2.204-2.171z" fill="#EFF0F0"/><path opacity=".234" d="M108.601 6.772c1.218 0 2.204.971 2.204 2.171 0 1.2-.986 2.172-2.204 2.172-1.218 0-2.204-.972-2.204-2.172 0-1.2.986-2.171 2.204-2.171z" fill="#EFF0F0"/><path opacity=".229" d="M108.601 6.772c1.218 0 2.204.971 2.204 2.171 0 1.2-.986 2.172-2.204 2.172-1.218 0-2.204-.972-2.204-2.172 0-1.2.986-2.171 2.204-2.171z" fill="#F0F0F1"/><path opacity=".224" d="M108.601 6.772c1.218 0 2.204.971 2.204 2.171 0 1.2-.986 2.172-2.204 2.172-1.218 0-2.204-.972-2.204-2.172 0-1.2.986-2.171 2.204-2.171z" fill="#F0F0F1"/><path opacity=".219" d="M108.601 6.772c1.218 0 2.204.971 2.204 2.171 0 1.2-.986 2.172-2.204 2.172-1.218 0-2.204-.972-2.204-2.172 0-1.2.986-2.171 2.204-2.171z" fill="#F0F1F1"/><path opacity=".214" d="M108.601 6.772c1.218 0 2.204.971 2.204 2.171 0 1.2-.986 2.172-2.204 2.172-1.218 0-2.204-.972-2.204-2.172 0-1.2.986-2.171 2.204-2.171z" fill="#F0F1F1"/><path opacity=".209" d="M108.601 6.772c1.218 0 2.204.971 2.204 2.171 0 1.2-.986 2.172-2.204 2.172-1.218 0-2.204-.972-2.204-2.172 0-1.2.986-2.171 2.204-2.171z" fill="#F1F1F2"/><path opacity=".204" d="M108.601 6.772c1.218 0 2.204.971 2.204 2.171 0 1.2-.986 2.172-2.204 2.172-1.218 0-2.204-.972-2.204-2.172 0-1.2.986-2.171 2.204-2.171z" fill="#F1F1F2"/><path opacity=".199" d="M108.601 6.772c1.218 0 2.204.971 2.204 2.171 0 1.2-.986 2.172-2.204 2.172-1.218 0-2.204-.972-2.204-2.172 0-1.2.986-2.171 2.204-2.171z" fill="#F1F2F2"/><path opacity=".194" d="M108.601 6.772c1.218 0 2.204.971 2.204 2.171 0 1.2-.986 2.172-2.204 2.172-1.218 0-2.204-.972-2.204-2.172 0-1.2.986-2.171 2.204-2.171z" fill="#F1F2F2"/><path opacity=".189" d="M108.601 6.772c1.218 0 2.204.971 2.204 2.171 0 1.2-.986 2.172-2.204 2.172-1.218 0-2.204-.972-2.204-2.172 0-1.2.986-2.171 2.204-2.171z" fill="#F2F2F3"/><path opacity=".184" d="M108.601 6.772c1.218 0 2.204.971 2.204 2.171 0 1.2-.986 2.172-2.204 2.172-1.218 0-2.204-.972-2.204-2.172 0-1.2.986-2.171 2.204-2.171z" fill="#F2F2F3"/><path opacity=".179" d="M108.601 6.772c1.218 0 2.204.971 2.204 2.171 0 1.2-.986 2.172-2.204 2.172-1.218 0-2.204-.972-2.204-2.172 0-1.2.986-2.171 2.204-2.171z" fill="#F2F3F3"/><path opacity=".174" d="M108.601 6.772c1.218 0 2.204.971 2.204 2.171 0 1.2-.986 2.172-2.204 2.172-1.218 0-2.204-.972-2.204-2.172 0-1.2.986-2.171 2.204-2.171z" fill="#F2F3F3"/><path opacity=".169" d="M108.601 6.772c1.218 0 2.204.971 2.204 2.171 0 1.2-.986 2.172-2.204 2.172-1.218 0-2.204-.972-2.204-2.172 0-1.2.986-2.171 2.204-2.171z" fill="#F3F3F4"/><path opacity=".164" d="M108.601 6.772c1.218 0 2.204.971 2.204 2.171 0 1.2-.986 2.172-2.204 2.172-1.218 0-2.204-.972-2.204-2.172 0-1.2.986-2.171 2.204-2.171z" fill="#F3F3F4"/><path opacity=".159" d="M108.601 6.772c1.218 0 2.204.971 2.204 2.171 0 1.2-.986 2.172-2.204 2.172-1.218 0-2.204-.972-2.204-2.172 0-1.2.986-2.171 2.204-2.171z" fill="#F3F4F4"/><path opacity=".154" d="M108.601 6.772c1.218 0 2.204.971 2.204 2.171 0 1.2-.986 2.172-2.204 2.172-1.218 0-2.204-.972-2.204-2.172 0-1.2.986-2.171 2.204-2.171z" fill="#F4F4F4"/><path opacity=".149" d="M108.601 6.772c1.218 0 2.204.971 2.204 2.171 0 1.2-.986 2.172-2.204 2.172-1.218 0-2.204-.972-2.204-2.172 0-1.2.986-2.171 2.204-2.171z" fill="#F4F4F5"/><path opacity=".144" d="M108.601 6.772c1.218 0 2.204.971 2.204 2.171 0 1.2-.986 2.172-2.204 2.172-1.218 0-2.204-.972-2.204-2.172 0-1.2.986-2.171 2.204-2.171z" fill="#F4F4F5"/><path opacity=".139" d="M108.601 6.772c1.218 0 2.204.971 2.204 2.171 0 1.2-.986 2.172-2.204 2.172-1.218 0-2.204-.972-2.204-2.172.058-1.2.986-2.171 2.204-2.171z" fill="#F4F5F5"/><path opacity=".134" d="M108.601 6.772c1.218 0 2.204.971 2.204 2.171 0 1.2-.986 2.172-2.204 2.172-1.218 0-2.204-.972-2.204-2.172.058-1.2.986-2.171 2.204-2.171z" fill="#F5F5F5"/><path opacity=".129" d="M108.601 6.772c1.218 0 2.204.971 2.204 2.171 0 1.2-.986 2.172-2.204 2.172-1.218 0-2.204-.972-2.204-2.172.058-1.2.986-2.171 2.204-2.171z" fill="#F5F5F6"/><path opacity=".124" d="M108.601 6.772c1.218 0 2.204.971 2.204 2.171 0 1.2-.986 2.172-2.204 2.172-1.218 0-2.204-.972-2.204-2.172.058-1.2.986-2.171 2.204-2.171z" fill="#F5F6F6"/><path opacity=".119" d="M108.601 6.772c1.218 0 2.204.971 2.204 2.171 0 1.2-.986 2.172-2.204 2.172-1.218 0-2.204-.972-2.204-2.172.058-1.2 1.044-2.171 2.204-2.171z" fill="#F6F6F6"/><path opacity=".114" d="M108.601 6.772c1.218 0 2.204.971 2.204 2.171 0 1.2-.986 2.172-2.204 2.172-1.218 0-2.204-.972-2.204-2.172.058-1.2 1.044-2.171 2.204-2.171z" fill="#F6F6F7"/><path opacity=".11" d="M108.601 6.772c1.218 0 2.204.971 2.204 2.171 0 1.2-.986 2.172-2.204 2.172-1.218 0-2.204-.972-2.204-2.172.058-1.2 1.044-2.171 2.204-2.171z" fill="#F6F6F7"/><path opacity=".104" d="M108.601 6.772c1.218 0 2.204.971 2.204 2.171 0 1.2-.986 2.172-2.204 2.172-1.218 0-2.204-.972-2.204-2.172.058-1.2 1.044-2.171 2.204-2.171z" fill="#F6F7F7"/><path opacity=".1" d="M108.601 6.772c1.218 0 2.204.971 2.204 2.171 0 1.2-.986 2.172-2.204 2.172-1.218 0-2.204-.972-2.204-2.172.058-1.2 1.044-2.171 2.204-2.171z" fill="#F7F7F7"/><path opacity=".095" d="M108.601 6.772c1.218 0 2.204.971 2.204 2.171 0 1.2-.986 2.172-2.204 2.172-1.218 0-2.204-.972-2.204-2.172.058-1.2 1.044-2.171 2.204-2.171z" fill="#F7F7F8"/><path opacity=".09" d="M108.601 6.772c1.218 0 2.204.971 2.204 2.171 0 1.2-.986 2.172-2.204 2.172-1.218 0-2.204-.972-2.204-2.172.058-1.2 1.044-2.171 2.204-2.171z" fill="#F7F8F8"/><path opacity=".085" d="M108.659 6.772c1.218 0 2.204.971 2.204 2.171 0 1.2-.986 2.172-2.204 2.172-1.218 0-2.204-.972-2.204-2.172 0-1.2.986-2.171 2.204-2.171z" fill="#F8F8F8"/><path opacity=".08" d="M108.659 6.772c1.218 0 2.204.971 2.204 2.171 0 1.2-.986 2.172-2.204 2.172-1.218 0-2.204-.972-2.204-2.172 0-1.2.986-2.171 2.204-2.171z" fill="#F8F8F9"/><path opacity=".075" d="M108.659 6.772c1.218 0 2.204.971 2.204 2.171 0 1.2-.986 2.172-2.204 2.172-1.218 0-2.204-.972-2.204-2.172 0-1.2.986-2.171 2.204-2.171z" fill="#F8F9F9"/><path opacity=".07" d="M108.659 6.772c1.218 0 2.204.971 2.204 2.171 0 1.2-.986 2.172-2.204 2.172-1.218 0-2.204-.972-2.204-2.172 0-1.2.986-2.171 2.204-2.171z" fill="#F9F9F9"/><path opacity=".065" d="M108.659 6.772c1.218 0 2.204.971 2.204 2.171 0 1.2-.986 2.172-2.204 2.172-1.218 0-2.204-.972-2.204-2.172 0-1.2.986-2.171 2.204-2.171z" fill="#F9F9F9"/><path opacity=".06" d="M108.659 6.829c1.218 0 2.204.97 2.204 2.17s-.986 2.172-2.204 2.172c-1.218 0-2.204-.971-2.204-2.171 0-1.257.986-2.171 2.204-2.171z" fill="#F9FAFA"/><path opacity=".055" d="M108.659 6.829c1.218 0 2.204.97 2.204 2.17s-.986 2.172-2.204 2.172c-1.218 0-2.204-.971-2.204-2.171 0-1.257.986-2.171 2.204-2.171z" fill="#FAFAFA"/><path opacity=".05" d="M108.659 6.829c1.218 0 2.204.97 2.204 2.17s-.986 2.172-2.204 2.172c-1.218 0-2.204-.971-2.204-2.171 0-1.257.986-2.171 2.204-2.171z" fill="#FAFAFA"/><path opacity=".045" d="M108.659 6.829c1.218 0 2.204.97 2.204 2.17s-.986 2.172-2.204 2.172c-1.218 0-2.204-.971-2.204-2.171 0-1.2.986-2.171 2.204-2.171z" fill="#FBFBFB"/><path opacity=".04" d="M108.659 6.829c1.218 0 2.204.97 2.204 2.17s-.986 2.172-2.204 2.172c-1.218 0-2.204-.971-2.204-2.171 0-1.2.986-2.171 2.204-2.171z" fill="#FBFBFB"/><path opacity=".035" d="M108.659 6.829c1.218 0 2.204.97 2.204 2.17s-.986 2.172-2.204 2.172c-1.218 0-2.204-.971-2.204-2.171 0-1.2.986-2.171 2.204-2.171z" fill="#FBFCFC"/><path opacity=".03" d="M108.659 6.829c1.218 0 2.204.97 2.204 2.17s-.986 2.172-2.204 2.172c-1.218 0-2.204-.971-2.204-2.171 0-1.2.986-2.171 2.204-2.171z" fill="#FCFCFC"/><path opacity=".025" d="M108.659 6.829c1.218 0 2.204.97 2.204 2.17s-.986 2.172-2.204 2.172c-1.218 0-2.204-.971-2.204-2.171 0-1.2.986-2.171 2.204-2.171z" fill="#FCFCFD"/><path opacity=".02" d="M108.659 6.829c1.218 0 2.204.97 2.204 2.17s-.986 2.172-2.204 2.172c-1.218 0-2.204-.971-2.204-2.171 0-1.2.986-2.171 2.204-2.171z" fill="#FDFDFD"/><path opacity=".015" d="M108.659 6.829c1.218 0 2.204.97 2.204 2.17s-.986 2.172-2.204 2.172c-1.218 0-2.204-.971-2.204-2.171 0-1.2.986-2.171 2.204-2.171z" fill="#FDFDFD"/><path opacity=".01" d="M108.659 6.829c1.218 0 2.204.97 2.204 2.17s-.986 2.172-2.204 2.172c-1.218 0-2.204-.971-2.204-2.171 0-1.2.986-2.171 2.204-2.171z" fill="#FEFEFE"/><path opacity=".01" d="M108.659 6.829c1.218 0 2.204.97 2.204 2.17s-.986 2.172-2.204 2.172c-1.218 0-2.204-.971-2.204-2.171 0-1.2.986-2.171 2.204-2.171z" fill="#FEFEFE"/></g><path d="M120.434 6.543c0-.057-.058-.114-.116-.114h-.116v.343h.058v-.114l.116.114h.116l-.116-.172c.058.058.058 0 .058-.057zm-.174.057v-.114c.058 0 .058 0 .058.057s0 .057-.058.057z" fill="#000"/><path d="M120.318 6.315c-.174 0-.29.114-.29.285 0 .172.116.286.29.286s.29-.114.29-.286c0-.171-.116-.285-.29-.285zm0 .57c-.116 0-.232-.113-.232-.227 0-.115.116-.23.232-.23s.232.115.232.23c0 .114-.116.228-.232.228z" fill="#000"/><path d="M17.399 4.257h-5.858v9.43h5.858v-9.43z" fill="#F16122"/><path d="M12.18 9c0-1.886.928-3.6 2.32-4.743C13.456 3.457 12.18 3 10.73 3 7.366 3 4.64 5.686 4.64 9s2.726 6 6.09 6a6.22 6.22 0 003.77-1.257C13.108 12.6 12.18 10.886 12.18 9z" fill="#E91D25"/><path d="M24.36 9c0 3.314-2.726 6-6.09 6a6.22 6.22 0 01-3.77-1.257A6.014 6.014 0 0016.82 9c0-1.886-.928-3.6-2.32-4.743C15.544 3.457 16.82 3 18.27 3c3.364 0 6.09 2.686 6.09 6z" fill="#F79E1D"/><path d="M36.798 7.01l-.406-1.029-.406 1.03h.812zm8.584-.386c-.116.064-.174.064-.29.064h-.696v-.577h.696c.116 0 .174 0 .29.064.058.064.116.128.116.257 0 .064-.058.13-.116.193zm4.93.386l-.406-1.029-.406 1.03h.812zm-9.164 1.157h-.58V6.11l-.812 2.057h-.464L38.48 6.11v2.057h-1.16l-.232-.579h-1.16l-.232.58h-.58L36.16 5.53h.87l.928 2.507V5.531h.928l.754 1.8.696-1.8h.928l-.116 2.636zm2.32 0h-1.914V5.531h1.914v.514h-1.334v.515h1.276v.514h-1.276v.514h1.334v.58zm2.668-1.929a.8.8 0 01-.406.707c.116.065.232.13.29.193.058.13.116.322.116.45v.514h-.58v-.257c0-.193 0-.385-.116-.514-.058-.064-.232-.129-.406-.129h-.638v.965h-.58V5.531h1.276c.232 0 .464 0 .696.13a.623.623 0 01.348.577zm.87 1.93h-.58V5.53h.58v2.636zm6.728 0h-.812L51.82 6.173v1.993h-1.16l-.232-.579h-1.16l-.232.58h-.696c-.522.063-1.044-.323-1.16-.966v-.32c0-.387.058-.772.29-1.03.232-.257.522-.32.87-.32h.522v.578h-.522c-.174 0-.348.064-.464.128-.11.174-.17.374-.174.58 0 .256.058.45.174.642.116.128.232.128.406.128h.232l.812-2.057h.986l.928 2.507V5.595h.87l.986 1.8V5.531h.58l.058 2.636zM35 8.68h.928l.232-.579h.464l.232.58h1.914v-.45l.174.45h.986l.174-.45v.45h4.756v-.965h.116c.058 0 .058 0 .058.128v.836h2.436v-.193c.29.13.58.257.928.193h1.044l.232-.579h.464l.232.58h1.972v-.58l.29.58h1.566V5.016h-1.566v.45l-.232-.45h-1.624v.45l-.174-.45h-2.204a2.2 2.2 0 00-.928.193v-.193h-1.508v.193c-.174-.129-.406-.258-.638-.193h-5.51l-.348.964-.348-.964h-1.74v.45l-.174-.45h-1.508L35 6.752v1.93zm20.184 1.93H54.14c-.058 0-.174 0-.232.063-.058.064-.116.13-.058.193 0 .064.058.193.116.193s.174.064.232 0h.29c.232 0 .464.064.638.192l.058.065v-.707zm0 1.734c-.174.258-.464.386-.754.322h-1.102v-.579h1.102c.058 0 .174 0 .232-.064.058-.064.058-.129.058-.193s0-.128-.058-.193c-.058-.064-.116-.064-.174-.064-.522 0-1.218 0-1.218-.836 0-.45.29-.77.696-.77h1.218v-.515h-1.102c-.232 0-.522.064-.696.192v-.192h-1.508a1.43 1.43 0 00-.696.192v-.192h-2.784v.321a1.643 1.643 0 00-.754-.193h-1.856v.193c-.232-.129-.522-.257-.754-.193h-2.088l-.464.58-.464-.58h-3.074v3.664h3.016l.464-.578.464.578h1.856v-.9h.174c.29 0 .522 0 .754-.128v.964h1.508v-.964h.058c.116 0 .116 0 .116.128v.836h4.64c.29 0 .522-.064.754-.257v.257h1.624c.29 0 .58-.064.812-.193v-.643zm-2.262-1.028c.118.145.18.328.174.514 0 .58-.348.836-.87.836h-1.102v-.514h1.102c.058 0 .174 0 .232-.065.058-.064.058-.128.058-.193 0-.064 0-.128-.058-.192-.058-.065-.116-.065-.174-.065-.522 0-1.218 0-1.218-.835 0-.386.232-.772.812-.772h1.16v.58h-1.044c-.058 0-.116 0-.232.063-.058.064-.116.13-.058.193 0 .064.058.193.116.193s.174.064.232 0h.29c.174 0 .406.064.58.257zm-5.104-.193a.48.48 0 01-.29.064h-.696v-.578h.696a.48.48 0 01.29.064c.058.064.116.13.116.257 0 .064-.058.193-.116.193zm.348.386c.116.064.232.128.29.193.058.128.116.321.116.45v.514h-.58v-.322c0-.193 0-.385-.116-.514-.058-.064-.232-.128-.406-.128h-.638v.964h-.58V10.03h1.334c.232 0 .464 0 .696.13.174.127.29.32.29.577 0 .322-.174.58-.406.772zm.696-1.415h1.914v.515h-1.334v.45h1.276v.514h-1.276v.514h1.334v.514h-1.914v-2.506zm-3.828 1.222h-.754v-.643h.754c.232 0 .348.064.348.321s-.116.322-.348.322zm-1.276 1.157l-.87-1.029.87-1.028v2.057zm-2.262-.322h-1.392v-.514h1.218v-.514h-1.218v-.45h1.45l.638.771-.696.707zm4.524-1.22c0 .706-.464.9-.986.9h-.696v.9h-1.102l-.696-.837-.754.9h-2.262V10.16h2.262l.696.835.696-.835h1.798c.522-.129 1.044.064 1.044.771z" fill="#fff"/><defs><linearGradient id="paint0_linear_1497_2" x1="109.312" y1="10.174" x2="107.825" y2="7.812" gradientUnits="userSpaceOnUse"><stop stop-color="#F9A020"/><stop offset=".204" stop-color="#F99D20"/><stop offset=".435" stop-color="#F79320"/><stop offset=".62" stop-color="#F68820"/><stop offset=".797" stop-color="#F57E20"/><stop offset="1" stop-color="#F47521"/></linearGradient><linearGradient id="paint1_linear_1497_2" x1="109.072" y1="10.142" x2="106.905" y2="5.843" gradientUnits="userSpaceOnUse"><stop stop-color="#F68820" stop-opacity="0"/><stop offset=".34" stop-color="#E17029" stop-opacity=".257"/><stop offset=".694" stop-color="#D4602D" stop-opacity=".523"/><stop offset=".982" stop-color="#D05B2E" stop-opacity=".74"/></linearGradient></defs></svg>