<svg width="47" height="24" fill="none" xmlns="http://www.w3.org/2000/svg"><g clip-path="url(#clip0_2440_9699)"><path d="M19 12.138c0-.408-.033-.818-.105-1.22H13.12v2.311h3.306a2.774 2.774 0 01-1.223 1.824v1.499h1.973C18.335 15.507 19 13.963 19 12.138z" fill="#4285F4"/><path d="M13.121 18c1.651 0 3.043-.531 4.058-1.448l-1.973-1.5c-.548.366-1.257.574-2.082.574-1.597 0-2.951-1.056-3.437-2.476H7.65v1.545C8.691 16.721 10.807 18 13.121 18z" fill="#34A853"/><path d="M9.684 13.15a3.526 3.526 0 010-2.297V9.307H7.651a5.899 5.899 0 000 5.388l2.033-1.545z" fill="#FBBC04"/><path d="M13.121 8.375a3.364 3.364 0 012.348.9l1.748-1.714a5.95 5.95 0 00-4.096-1.56c-2.314 0-4.43 1.278-5.47 3.306l2.034 1.546c.483-1.422 1.84-2.478 3.436-2.478z" fill="#EA4335"/><g clip-path="url(#clip1_2440_9699)"><path d="M24.087 13.824V17h-.985V8.598h2.309c.898 0 1.594.218 2.086.656.496.437.744 1.055.744 1.851 0 .797-.276 1.45-.826 1.957-.547.508-1.287.762-2.221.762h-1.107zm0-4.336v3.446h1.03c.68 0 1.198-.155 1.554-.463.359-.313.539-.752.539-1.319 0-1.109-.657-1.664-1.97-1.664h-1.153zM33.585 17h-.961v-.938H32.6c-.418.72-1.033 1.079-1.845 1.079-.598 0-1.067-.159-1.407-.475-.336-.316-.504-.736-.504-1.26 0-1.12.66-1.773 1.98-1.957l1.8-.252c0-1.02-.412-1.529-1.237-1.529-.722 0-1.375.246-1.957.738v-.984c.59-.375 1.27-.563 2.04-.563 1.41 0 2.115.746 2.115 2.239V17zm-.961-3.035l-1.448.2c-.445.062-.78.173-1.007.333-.227.156-.34.436-.34.838 0 .293.103.533.31.72.211.184.49.276.838.276.477 0 .87-.166 1.178-.498.313-.336.469-.76.469-1.271v-.598zM40.17 11l-2.76 6.96c-.492 1.243-1.184 1.864-2.074 1.864-.25 0-.46-.025-.627-.076v-.861c.207.07.396.105.568.105.484 0 .848-.289 1.09-.867l.48-1.137L34.505 11h1.066l1.623 4.617c.02.059.06.211.123.457h.035a6.84 6.84 0 01.117-.445L39.175 11h.996z" fill="#000"/></g></g><rect x=".5" y=".5" width="46" height="23" rx="3.5" stroke="#E7E7E7"/><defs><clipPath id="clip0_2440_9699"><path fill="#fff" transform="translate(7 2)" d="M0 0h34.001v20H0z"/></clipPath><clipPath id="clip1_2440_9699"><path fill="#fff" transform="translate(22 4)" d="M0 0h19v16H0z"/></clipPath></defs></svg>