<svg width="52" height="21" fill="none" xmlns="http://www.w3.org/2000/svg"><path d="M20 11.23c0-.68-.055-1.363-.175-2.032H10.2v3.851h5.511a4.624 4.624 0 01-2.04 3.04v2.498h3.288C18.891 16.845 20 14.273 20 11.23z" fill="#4285F4"/><path d="M10.203 21c2.752 0 5.072-.886 6.763-2.415l-3.288-2.498c-.914.61-2.095.955-3.471.955-2.662 0-4.919-1.76-5.728-4.126H1.086v2.576C2.818 18.868 6.346 21 10.203 21z" fill="#34A853"/><path d="M4.474 12.918a5.877 5.877 0 010-3.829V6.513H1.085a9.831 9.831 0 000 8.98l3.39-2.575z" fill="#FBBC04"/><path d="M10.203 4.958a5.606 5.606 0 013.914 1.5l2.913-2.856a9.916 9.916 0 00-6.827-2.601C6.346 1 2.818 3.13 1.086 6.512l3.389 2.576c.806-2.37 3.066-4.13 5.728-4.13z" fill="#EA4335"/><path d="M31.607 12.03V16h-1.23V5.497h2.886c1.123 0 1.992.274 2.607.82.62.547.93 1.319.93 2.315s-.344 1.811-1.032 2.446c-.684.635-1.61.952-2.776.952h-1.385zm0-5.42v4.307h1.29c.85 0 1.496-.193 1.94-.579.45-.39.674-.94.674-1.648 0-1.386-.82-2.08-2.46-2.08h-1.444zM43.48 16h-1.201v-1.172h-.03c-.522.899-1.291 1.348-2.307 1.348-.747 0-1.333-.198-1.757-.593-.42-.396-.63-.92-.63-1.575 0-1.402.825-2.217 2.475-2.446l2.249-.315c0-1.275-.515-1.912-1.546-1.912-.903 0-1.718.308-2.446.923v-1.23c.737-.47 1.587-.704 2.549-.704 1.763 0 2.644.933 2.644 2.798V16zm-1.201-3.794l-1.81.25c-.556.077-.976.216-1.259.417-.283.195-.425.544-.425 1.047 0 .366.13.666.388.9.264.23.613.345 1.048.345.595 0 1.086-.207 1.472-.622.39-.42.586-.95.586-1.59v-.747zM51.712 8.5l-3.45 8.701c-.614 1.553-1.479 2.33-2.592 2.33-.313 0-.574-.032-.784-.096v-1.077c.259.088.496.132.71.132.606 0 1.06-.361 1.363-1.084l.6-1.42L44.63 8.5h1.334l2.029 5.771c.024.074.075.264.154.572h.044a8.42 8.42 0 01.146-.557l2.13-5.786h1.245z" fill="#000"/></svg>