<svg width="133" height="19" fill="none" xmlns="http://www.w3.org/2000/svg"><path d="M9.459 19c5.224 0 9.459-4.253 9.459-9.5S14.683 0 9.458 0C4.236 0 0 4.253 0 9.5S4.235 19 9.459 19z" fill="#fff"/><path d="M18.918 9.5c0 5.247-4.235 9.5-9.46 9.5C4.235 19 0 14.747 0 9.5c0-1.45.322-2.815.895-4.037a7.8 7.8 0 00-.561 2.839c0 4.3 3.46 4.924 4.926 4.912 2.243-.024 4.855-1.126 7.062-3.163 0 0-.287 1.605-.37 2.097-.084.479.226.898.704.898h.19c.49 0 .847-.407.93-.898l.8-4.48c.095-.504-.227-.9-.728-.9h-4.46c-.502 0-.955.264-1.038.767 0 .024-.036.168-.036.204-.072.48.262.839.74.839h2.325l-.107.107c-1.61 1.522-3.602 2.36-5.248 2.36-1.635 0-3.471-1.042-3.471-3.378C2.553 2.815 7.085 0 9.459 0c5.212 0 9.459 4.253 9.459 9.5z" fill="#DF2127"/><path d="M41.4 2.046h-.73c-.71 0-1.023.215-1.492 1.023l-3.886 6.52-1.613-6.448c-.19-.772-.4-1.077-1.215-1.077h-.607c-.798 0-1.3.485-1.457 1.347L28.596 13.9c-.14.79.208 1.203.867 1.203h.278c.694 0 1.006-.36 1.127-1.132l1.458-8.478 1.405 5.676c.121.575.225.952 1.284.952.885 0 1.093-.323 1.405-.844l3.435-5.838-1.457 8.478c-.139.809.208 1.204.85 1.204h.295c.694 0 1.006-.377 1.127-1.132L42.458 3.43c.156-.844-.243-1.383-1.059-1.383zm10.842 7.506c-.087-2.55-1.753-4.419-4.563-4.419-3.21 0-5.17 2.713-5.084 5.676.105 2.712 1.909 4.455 4.563 4.455 3.297-.018 5.17-2.748 5.084-5.712zm-5.066 3.844c-1.51 0-2.464-1.132-2.516-2.677-.07-1.993 1.197-3.754 3.001-3.754 1.388 0 2.481 1.132 2.533 2.695.052 2.101-1.214 3.736-3.018 3.736zm12.233-8.263c-1.336 0-2.394.683-3.106 1.832.07-1.31-.624-1.688-1.336-1.688-.33 0-.59.09-.607.126l-1.457 8.532c-.139.88.33 1.131.954 1.131h.26c.677 0 .955-.287 1.093-1.131l.868-5.12c.624-1.131 1.318-1.67 2.394-1.67s1.718.665 1.735 1.76c.017.288-.052.647-.104 1.078l-.677 3.952c-.139.88.347 1.131.954 1.131h.26c.677 0 .955-.287 1.093-1.131l.747-4.365c.086-.485.138-.916.121-1.311-.052-1.832-1.232-3.126-3.192-3.126zm41.047 0c-1.093 0-1.909.647-2.464 1.832.087-1.31-.607-1.688-1.318-1.688-.347 0-.59.09-.608.126l-1.474 8.532c-.139.88.416 1.131 1.04 1.131h.261c.59 0 .867-.287 1.023-1.131l.486-2.856c.365-2.228 1.163-3.772 2.447-3.772.624 0 1.023.27 1.283.574.035.036 1.007-.359.972-1.544-.052-.737-.763-1.204-1.648-1.204zm11.204.144c-.902 0-1.405.449-1.7 1.634-.572-1.113-1.752-1.796-3.123-1.796-2.914 0-4.944 2.694-4.944 5.748 0 2.514 1.492 4.382 3.852 4.382 1.439 0 2.55-.61 3.261-1.85-.104 1.294.139 1.689 1.041 1.689.798 0 1.058-.306 1.145-1.222.104-1.688.659-4.436 1.301-8.298 0-.072-.364-.287-.833-.287zm-5.412 8.118c-1.423 0-2.238-.934-2.238-2.586 0-1.94 1.093-3.88 3.122-3.88 1.649 0 2.343 1.257 2.343 2.64 0 1.743-1.145 3.826-3.227 3.826zm19.258-8.262c-1.596 0-2.654.845-3.4 2.084-.364-1.311-1.457-2.084-2.845-2.084-1.215 0-2.273.593-3.002 1.725.035-1.204-.642-1.563-1.335-1.563-.347 0-.59.09-.608.126l-1.457 8.531c-.139.88.33 1.132.954 1.132h.26c.59 0 .955-.251 1.093-1.131l.903-5.3c.659-1.059 1.283-1.508 2.255-1.508.954 0 1.544.736 1.544 1.85 0 .18-.017.377-.052.593l-.729 4.365c-.139.88.347 1.131.954 1.131h.243c.59 0 .972-.27 1.111-1.131l.902-5.3c.659-1.059 1.284-1.508 2.255-1.508.92 0 1.596.575 1.596 1.76 0 .288-.052.647-.121 1.078l-.677 3.952c-.139.88.33 1.131.954 1.131h.261c.676 0 .954-.287 1.093-1.131l.746-4.365a7.46 7.46 0 00.121-1.311c.017-1.922-1.232-3.126-3.019-3.126zM73.13 9.408c0-1.33-.26-2.21-.832-2.982-.624-.826-1.787-1.33-3.14-1.33-4.094 0-5.57 3.126-5.57 5.838 0 2.587 1.805 4.311 4.581 4.311 2.776 0 4.337-1.275 4.337-2.299 0-.682-.468-.916-1.006-.97-.729.97-1.735 1.437-3.106 1.437-1.214 0-2.654-.485-2.758-2.73h6.298c.676.018 1.197-.377 1.197-1.275zm-2.03-.306h-5.256c.503-1.383 1.666-2.245 3.14-2.245.746 0 1.319.216 1.7.647.33.395.452.934.417 1.598zm21.583-1.005h-3.748c-.45 0-.66.108-.798.252-.225.251-.347.826-.347 1.077.017.396.347.63.954.63H91.4c-.365 1.921-1.544 3.25-3.574 3.25-2.134 0-3.557-1.4-3.643-3.79-.105-3 1.821-5.478 4.545-5.478 1.596 0 2.845.88 3.348 2.048.07.09 1.544.09 1.492-1.222-.017-.467-.277-1.024-.763-1.49-.78-.809-2.255-1.51-4.216-1.51-2.74 0-4.91 1.563-6.037 3.826 0-.018-.018-.018-.018-.018-.225-.305-.59-.449-.954-.449-.607 0-1.006.198-1.596 1.276l-2.915 5.298-1.093-5.28c-.208-.988-.555-1.294-1.162-1.294-.711 0-1.284.54-1.266.665l2.082 8.532-2.152 3.664c-.225.395-.243.916.573.916h.45c.851 0 1.129-.539 1.545-1.275L81.909 7.45a8.213 8.213 0 00-.226 2.28c.104 3.45 2.36 5.533 5.656 5.533 1.561 0 2.81-.61 3.505-1.545-.052 1.006.468 1.401 1.162 1.401.382 0 .66-.125.66-.197l.953-5.533c.156-.862-.156-1.293-.936-1.293zm38.324 5.928c.069.125.121.18.208.18 0 0 .017.143-.156.143-.104 0-.174-.054-.278-.252l-.19-.359h-.174l-.087.503c-.017.072-.052.108-.121.108h-.035c-.069 0-.104-.036-.087-.126l.243-1.293c.018-.09.07-.126.156-.126h.365c.329 0 .52.144.52.395 0 .306-.191.503-.52.521l.156.306zm-.226-.485c.226 0 .347-.126.33-.324 0-.143-.104-.233-.295-.233h-.26l-.104.539h.329v.018z" fill="#000"/><path d="M130.73 12.39c.676 0 1.214.575 1.214 1.258 0 .7-.555 1.257-1.214 1.257-.677 0-1.215-.574-1.215-1.257a1.23 1.23 0 011.215-1.257zm0-.215c-.781 0-1.423.665-1.423 1.473s.642 1.473 1.423 1.473c.78 0 1.422-.665 1.422-1.473s-.642-1.473-1.422-1.473z" fill="#000"/></svg>