<svg width="52" height="36" fill="none" xmlns="http://www.w3.org/2000/svg"><path d="M26 20c5.523 0 10-4.477 10-10S31.523 0 26 0 16 4.477 16 10s4.477 10 10 10z" fill="#fff"/><path d="M36 10c0 5.523-4.477 10-10 10s-10-4.477-10-10c0-1.526.34-2.963.946-4.25a8.178 8.178 0 00-.593 2.989c0 4.527 3.657 5.183 5.208 5.17 2.37-.025 5.133-1.185 7.465-3.329 0 0-.302 1.69-.39 2.207-.089.504.24.946.744.946h.201c.517 0 .896-.43.984-.946l.845-4.716c.1-.53-.24-.946-.77-.946h-4.716c-.53 0-1.008.277-1.097.807 0 .025-.038.176-.038.214-.075.505.278.883.782.883h2.46l-.114.114c-1.703 1.601-3.809 2.484-5.549 2.484-1.727 0-3.67-1.097-3.67-3.556C18.699 2.963 23.492 0 26 0c5.51 0 10 4.477 10 10z" fill="#DF2127"/><path d="M6.442 27.094h-.365c-.357 0-.514.112-.75.533l-1.95 3.392-.81-3.355c-.096-.402-.2-.56-.61-.56h-.305c-.4 0-.653.252-.731.7l-.906 5.457c-.07.412.105.627.436.627H.59c.348 0 .505-.187.566-.59l.732-4.41.705 2.953c.061.3.113.495.644.495.445 0 .55-.168.706-.439l1.724-3.037-.731 4.41c-.07.421.104.627.426.627h.149c.348 0 .505-.196.566-.589l.897-5.494c.078-.44-.122-.72-.532-.72zM11.887 31c-.043-1.328-.88-2.3-2.29-2.3-1.611 0-2.595 1.411-2.552 2.953.052 1.411.958 2.318 2.29 2.318 1.655-.01 2.596-1.43 2.552-2.972zm-2.543 1.999c-.757 0-1.236-.589-1.262-1.393-.035-1.037.6-1.953 1.506-1.953.697 0 1.246.59 1.272 1.402.026 1.093-.61 1.944-1.516 1.944zm6.14-4.299c-.67 0-1.202.355-1.56.954.036-.683-.313-.879-.67-.879-.165 0-.296.047-.304.066l-.732 4.438c-.07.458.165.589.479.589h.13c.34 0 .48-.15.55-.589l.435-2.663c.313-.589.662-.869 1.202-.869.54 0 .862.346.87.916.01.15-.026.336-.052.56l-.34 2.056c-.07.458.175.589.48.589h.13c.34 0 .48-.15.549-.589l.374-2.27c.044-.253.07-.477.061-.683-.026-.953-.618-1.626-1.602-1.626zm20.603 0c-.549 0-.958.337-1.237.954.044-.683-.305-.879-.662-.879-.174 0-.296.047-.305.066l-.74 4.438c-.07.458.209.589.523.589h.13c.296 0 .436-.15.514-.589l.244-1.486c.183-1.158.583-1.962 1.228-1.962.313 0 .514.14.644.3.018.018.505-.188.488-.805-.026-.383-.383-.626-.827-.626zm5.626.075c-.453 0-.705.234-.853.85-.288-.579-.88-.934-1.568-.934-1.463 0-2.482 1.402-2.482 2.99 0 1.308.75 2.28 1.933 2.28.723 0 1.28-.318 1.638-.962-.053.672.07.878.522.878.4 0 .532-.159.575-.635.052-.879.331-2.308.653-4.317 0-.038-.183-.15-.418-.15zM38.996 33c-.714 0-1.123-.486-1.123-1.346 0-1.01.548-2.018 1.567-2.018.828 0 1.176.654 1.176 1.373 0 .907-.575 1.99-1.62 1.99zm9.666-4.3c-.801 0-1.332.44-1.707 1.084-.183-.682-.731-1.084-1.428-1.084-.61 0-1.14.309-1.507.898.018-.627-.322-.813-.67-.813-.174 0-.296.046-.305.065l-.732 4.438c-.07.458.166.59.48.59h.13c.296 0 .48-.132.549-.59l.453-2.756c.33-.551.644-.785 1.132-.785.479 0 .775.383.775.962 0 .094-.009.197-.026.309l-.366 2.27c-.07.458.174.59.479.59h.122c.296 0 .488-.141.557-.59l.453-2.756c.331-.551.645-.785 1.132-.785.462 0 .801.299.801.916 0 .15-.026.336-.06.56l-.34 2.056c-.07.458.165.589.479.589h.13c.34 0 .48-.15.55-.589l.374-2.27c.043-.253.06-.477.06-.683.01-1-.618-1.626-1.515-1.626zM22.37 30.924c0-.691-.13-1.15-.417-1.551-.314-.43-.897-.691-1.577-.691-2.055 0-2.795 1.626-2.795 3.036 0 1.346.905 2.243 2.299 2.243 1.393 0 2.177-.663 2.177-1.196 0-.355-.235-.477-.505-.505-.366.505-.87.748-1.559.748-.61 0-1.332-.252-1.385-1.42h3.162c.34.009.6-.197.6-.664zm-1.018-.159h-2.64c.253-.72.837-1.168 1.577-1.168.375 0 .662.112.854.337.165.205.226.486.209.831zm10.834-.523h-1.881c-.227 0-.331.056-.401.131-.113.131-.174.43-.174.56.008.206.174.328.479.328h1.332c-.183 1-.775 1.691-1.794 1.691-1.071 0-1.785-.729-1.829-1.971-.052-1.56.915-2.85 2.282-2.85.801 0 1.428.457 1.68 1.065.036.047.776.047.75-.636-.009-.242-.14-.532-.383-.775-.392-.42-1.133-.785-2.117-.785-1.376 0-2.464.813-3.03 1.99 0-.009-.009-.009-.009-.009a.579.579 0 00-.479-.234c-.305 0-.505.103-.801.664l-1.463 2.756-.549-2.747c-.104-.514-.279-.673-.584-.673-.357 0-.644.28-.635.346l1.045 4.439-1.08 1.906c-.113.205-.122.476.287.476h.227c.426 0 .566-.28.775-.663l2.944-5.345a4.406 4.406 0 00-.114 1.187c.052 1.794 1.185 2.878 2.84 2.878.783 0 1.41-.318 1.758-.804-.026.523.236.729.584.729.192 0 .331-.066.331-.103l.479-2.878c.078-.448-.078-.673-.47-.673zm19.239 3.084c.035.065.06.093.104.093 0 0 .009.075-.078.075-.052 0-.087-.028-.14-.13l-.095-.188h-.087l-.044.262c-.009.037-.026.056-.06.056h-.018c-.035 0-.052-.019-.044-.065l.122-.673c.009-.047.035-.065.078-.065h.183c.166 0 .262.074.262.205 0 .159-.096.262-.262.271l.079.159zm-.113-.252c.113 0 .174-.066.165-.168 0-.075-.052-.122-.148-.122h-.13l-.053.28h.166v.01z" fill="#000"/><path d="M51.286 32.476c.34 0 .61.3.61.654 0 .365-.28.654-.61.654-.34 0-.61-.299-.61-.654-.009-.355.27-.654.61-.654zm0-.112c-.392 0-.714.346-.714.766 0 .42.322.766.714.766.392 0 .714-.345.714-.766 0-.42-.322-.766-.714-.766z" fill="#000"/></svg>