<svg width="106" height="24" fill="none" xmlns="http://www.w3.org/2000/svg"><path d="M15.847 18.78c3.781 0 6.847-3.084 6.847-6.89 0-3.805-3.066-6.89-6.847-6.89C12.065 5 9 8.085 9 11.89c0 3.806 3.065 6.89 6.847 6.89z" fill="#fff"/><path d="M22.694 11.89c0 3.806-3.066 6.89-6.847 6.89C12.065 18.78 9 15.697 9 11.89a6.89 6.89 0 01.648-2.928 5.667 5.667 0 00-.406 2.06c0 3.119 2.504 3.57 3.566 3.562 1.623-.017 3.514-.817 5.11-2.294 0 0-.206 1.165-.267 1.52-.06.348.164.652.51.652h.138c.354 0 .613-.295.673-.651l.579-3.25c.069-.365-.164-.652-.527-.652h-3.229c-.363 0-.69.191-.751.556 0 .018-.026.122-.026.148-.052.348.19.608.535.608h1.684l-.078.079c-1.165 1.103-2.607 1.711-3.799 1.711-1.183 0-2.512-.756-2.512-2.45 0-3.52 3.28-5.561 4.999-5.561 3.773 0 6.847 3.085 6.847 6.89z" fill="#DF2127"/><path d="M36.95 7.385h-.498c-.487 0-.7.147-1.02.701l-2.658 4.467-1.103-4.418c-.13-.529-.273-.738-.83-.738h-.415c-.546 0-.89.332-.997.923l-1.233 7.186c-.095.542.142.825.593.825h.19c.474 0 .687-.246.77-.775l.997-5.809.96 3.889c.084.394.155.652.878.652.605 0 .748-.221.961-.578l2.349-4-.996 5.809c-.095.553.142.824.58.824h.202c.475 0 .688-.258.772-.775l1.221-7.236c.107-.578-.166-.947-.723-.947zm7.416 5.142c-.06-1.747-1.198-3.027-3.12-3.027-2.194 0-3.535 1.858-3.475 3.888.07 1.858 1.304 3.052 3.12 3.052 2.253-.012 3.534-1.883 3.475-3.913zm-3.464 2.633c-1.032 0-1.684-.775-1.72-1.833-.047-1.366.819-2.572 2.052-2.572.95 0 1.697.775 1.732 1.846.036 1.44-.83 2.56-2.064 2.56zm8.363-5.66c-.914 0-1.637.467-2.124 1.255.048-.898-.427-1.157-.913-1.157-.226 0-.403.062-.415.086l-.997 5.846c-.095.603.226.775.653.775h.178c.462 0 .652-.197.747-.775l.593-3.508c.427-.775.902-1.144 1.637-1.144s1.174.455 1.186 1.206c.012.197-.035.443-.07.738l-.464 2.708c-.094.603.238.775.653.775h.178c.462 0 .652-.197.747-.775l.51-2.99c.06-.333.095-.628.083-.899-.035-1.255-.842-2.141-2.182-2.141zm28.062 0c-.748 0-1.305.443-1.685 1.255.06-.898-.415-1.157-.901-1.157-.237 0-.403.062-.415.086l-1.008 5.846c-.095.603.284.775.711.775h.178c.403 0 .593-.197.7-.775l.332-1.957c.25-1.526.795-2.584 1.673-2.584.427 0 .7.184.877.393.024.025.689-.246.665-1.058-.036-.504-.522-.824-1.127-.824zm7.663.098c-.616 0-.96.307-1.162 1.12-.391-.763-1.198-1.23-2.135-1.23-1.993 0-3.38 1.845-3.38 3.937 0 1.723 1.02 3.002 2.633 3.002.984 0 1.743-.418 2.23-1.267-.072.886.094 1.157.711 1.157.546 0 .724-.21.783-.837.071-1.157.451-3.04.89-5.685 0-.05-.25-.197-.57-.197zm-3.7 5.562c-.973 0-1.53-.64-1.53-1.772 0-1.329.747-2.658 2.135-2.658 1.126 0 1.6.861 1.6 1.809 0 1.194-.782 2.621-2.205 2.621zM94.456 9.5c-1.092 0-1.815.578-2.325 1.427-.25-.898-.997-1.427-1.946-1.427-.83 0-1.554.406-2.052 1.181.024-.824-.439-1.07-.913-1.07-.238 0-.404.061-.415.086l-.997 5.845c-.095.603.225.775.652.775h.178c.404 0 .653-.172.748-.775l.617-3.63c.45-.726.877-1.034 1.542-1.034.652 0 1.055.505 1.055 1.268 0 .123-.011.258-.035.406l-.498 2.99c-.095.603.237.775.652.775h.166c.403 0 .664-.184.76-.775l.616-3.63c.45-.726.878-1.034 1.542-1.034.629 0 1.091.394 1.091 1.206 0 .197-.035.443-.083.738l-.462 2.708c-.095.603.225.775.652.775h.178c.463 0 .653-.197.747-.775l.51-2.99c.06-.333.083-.628.083-.899.012-1.317-.842-2.141-2.064-2.141zm-35.811 2.928c0-.91-.178-1.513-.57-2.043-.427-.566-1.221-.91-2.147-.91-2.799 0-3.807 2.141-3.807 4 0 1.771 1.233 2.953 3.131 2.953 1.898 0 2.966-.874 2.966-1.576 0-.467-.32-.627-.688-.664-.498.664-1.186.984-2.123.984-.83 0-1.815-.332-1.886-1.87h4.305c.463.012.819-.258.819-.874zm-1.388-.209h-3.594c.344-.947 1.139-1.538 2.147-1.538.51 0 .901.148 1.162.443.226.27.309.64.285 1.095zm14.756-.689h-2.562c-.308 0-.45.074-.545.173-.155.172-.238.566-.238.738.012.27.238.43.653.43h1.815c-.25 1.317-1.056 2.228-2.444 2.228-1.459 0-2.432-.96-2.49-2.597-.072-2.055 1.245-3.753 3.107-3.753 1.091 0 1.945.603 2.29 1.403.047.062 1.055.062 1.02-.837-.012-.32-.19-.701-.522-1.021-.534-.554-1.542-1.034-2.883-1.034-1.874 0-3.357 1.07-4.128 2.621 0-.012-.012-.012-.012-.012a.798.798 0 00-.652-.308c-.415 0-.688.136-1.091.874l-1.993 3.63-.748-3.618c-.142-.676-.38-.886-.794-.886-.487 0-.878.37-.866.456l1.423 5.845-1.47 2.51c-.155.271-.167.628.39.628h.31c.58 0 .77-.37 1.055-.874l4.01-7.039a5.64 5.64 0 00-.155 1.563c.071 2.363 1.613 3.79 3.867 3.79 1.068 0 1.922-.418 2.396-1.058-.035.69.32.96.795.96.26 0 .45-.086.45-.136l.653-3.79c.107-.59-.107-.886-.64-.886zm26.205 4.061c.048.086.083.123.143.123 0 0 .011.099-.107.099-.071 0-.119-.037-.19-.173l-.13-.246h-.12l-.058.345c-.012.05-.036.074-.083.074h-.024c-.048 0-.071-.025-.06-.086l.167-.886c.011-.062.047-.087.106-.087h.25c.225 0 .355.099.355.271 0 .21-.13.345-.355.357l.106.21zm-.154-.332c.154 0 .237-.086.225-.222 0-.098-.07-.16-.201-.16h-.178l-.071.37h.225v.012z" fill="#000"/><path d="M98.029 14.472c.463 0 .83.394.83.861 0 .48-.38.862-.83.862-.463 0-.83-.394-.83-.862a.841.841 0 01.83-.861zm0-.148c-.534 0-.973.456-.973 1.01 0 .553.44 1.008.973 1.008.534 0 .973-.455.973-1.009 0-.553-.44-1.009-.973-1.009z" fill="#000"/><rect x=".5" y=".5" width="105" height="23" rx="3.5" stroke="#E7E7E7"/></svg>