<svg width="66" height="16" fill="none" xmlns="http://www.w3.org/2000/svg"><g clip-path="url(#clip0_1978_7794)"><path d="M24.358 3.578h-3.605a.499.499 0 00-.495.425l-1.457 9.298a.304.304 0 00.297.35h1.72a.499.499 0 00.496-.427l.393-2.507a.504.504 0 01.494-.426h1.142c2.374 0 3.745-1.156 4.102-3.446.162-1.002.007-1.79-.46-2.341-.511-.606-1.42-.926-2.627-.926zm.416 3.396c-.197 1.301-1.185 1.301-2.141 1.301h-.544l.382-2.43a.303.303 0 01.296-.255h.25c.65 0 1.265 0 1.582.373.19.223.247.554.175 1.011zm10.36-.042h-1.727a.3.3 0 00-.296.255l-.077.486-.12-.176c-.374-.546-1.208-.728-2.04-.728-1.907 0-3.536 1.453-3.853 3.492-.165 1.017.07 1.989.643 2.667.526.623 1.278.883 2.174.883 1.537 0 2.39-.994 2.39-.994l-.078.483a.302.302 0 00.297.35H34a.5.5 0 00.495-.426l.933-5.943a.304.304 0 00-.17-.321.298.298 0 00-.125-.028zm-2.407 3.38c-.166.992-.949 1.657-1.947 1.657-.501 0-.902-.161-1.16-.468-.254-.304-.351-.737-.27-1.22.155-.983.951-1.67 1.934-1.67.49 0 .889.163 1.151.472.264.312.368.748.292 1.229zm11.6-3.38h-1.734a.5.5 0 00-.415.221l-2.393 3.545-1.014-3.406a.506.506 0 00-.48-.36h-1.705a.299.299 0 00-.298.258.303.303 0 00.013.142l1.91 5.64-1.796 2.55a.304.304 0 00.245.478h1.733a.498.498 0 00.411-.216l5.77-8.377a.304.304 0 00-.091-.431.3.3 0 00-.156-.044z" fill="#253B80"/><path d="M50.072 3.578h-3.606a.5.5 0 00-.494.425l-1.458 9.298a.304.304 0 00.17.321c.04.019.083.028.126.028h1.85a.349.349 0 00.346-.298l.414-2.635a.504.504 0 01.494-.426h1.14c2.376 0 3.746-1.156 4.104-3.446.162-1.002.007-1.79-.46-2.341-.512-.606-1.42-.926-2.626-.926zm.416 3.396c-.197 1.301-1.185 1.301-2.142 1.301h-.543l.382-2.43a.302.302 0 01.296-.255h.25c.65 0 1.265 0 1.582.373.19.223.247.554.175 1.011zm10.359-.042H59.12a.298.298 0 00-.296.255l-.076.486-.121-.176c-.374-.546-1.207-.728-2.039-.728-1.907 0-3.536 1.453-3.853 3.492-.165 1.017.069 1.989.642 2.667.527.623 1.279.883 2.175.883 1.537 0 2.389-.994 2.389-.994l-.077.483a.304.304 0 00.171.322c.04.018.083.028.126.028h1.555a.499.499 0 00.494-.426l.934-5.943a.304.304 0 00-.298-.349zm-2.407 3.38c-.165.992-.949 1.657-1.947 1.657-.5 0-.902-.161-1.16-.468-.254-.304-.35-.737-.27-1.22.156-.983.951-1.67 1.934-1.67.49 0 .889.163 1.151.472.264.312.369.748.292 1.229zm4.442-6.479l-1.48 9.468a.304.304 0 00.17.321c.04.019.083.028.127.028h1.487a.5.5 0 00.495-.426l1.459-9.297a.304.304 0 00-.17-.321.299.299 0 00-.126-.028h-1.666a.3.3 0 00-.296.255z" fill="#179BD7"/><path d="M3.83 15.457l.276-1.761-.614-.015H.559L2.597.685a.168.168 0 01.166-.142h4.944c1.641 0 2.774.343 3.365 1.021.278.319.454.65.54 1.017.09.384.09.842.003 1.402l-.006.04v.359l.277.158c.212.108.402.254.562.43.237.272.39.618.455 1.028.067.421.045.923-.065 1.49-.126.654-.33 1.223-.607 1.688a3.464 3.464 0 01-.962 1.06 3.888 3.888 0 01-1.296.589 6.422 6.422 0 01-1.619.188H7.97a1.162 1.162 0 00-1.144.982l-.029.159-.487 3.104-.022.114c-.006.036-.016.054-.03.066a.081.081 0 01-.051.019H3.83z" fill="#253B80"/><path d="M12.148 4.065a8.533 8.533 0 01-.05.292c-.652 3.367-2.883 4.53-5.732 4.53h-1.45a.706.706 0 00-.697.6l-.743 4.738-.21 1.343a.375.375 0 00.211.397.369.369 0 00.155.034h2.573a.62.62 0 00.612-.524l.025-.132.484-3.092.031-.17a.62.62 0 01.612-.526h.385c2.492 0 4.444-1.018 5.014-3.963.238-1.23.115-2.258-.516-2.981a2.461 2.461 0 00-.704-.546z" fill="#179BD7"/><path d="M11.466 3.792a5.118 5.118 0 00-.634-.142 8.011 8.011 0 00-1.279-.094H5.678a.616.616 0 00-.611.526l-.825 5.252-.023.153a.71.71 0 01.696-.6h1.45c2.85 0 5.08-1.164 5.732-4.53.02-.1.036-.197.05-.292a3.46 3.46 0 00-.681-.274z" fill="#222D65"/><path d="M5.067 4.082a.62.62 0 01.611-.526h3.876c.459 0 .887.03 1.278.094.265.042.526.105.781.187.192.065.371.14.536.228.194-1.244-.001-2.092-.67-2.859C10.74.362 9.41 0 7.707 0H2.763a.708.708 0 00-.698.6L.005 13.73a.43.43 0 00.242.455c.055.026.116.04.177.04h3.053l.766-4.891.824-5.252z" fill="#253B80"/></g><defs><clipPath id="clip0_1978_7794"><path fill="#fff" d="M0 0h65.144v16H0z"/></clipPath></defs></svg>