<svg width="52" height="38" fill="none" xmlns="http://www.w3.org/2000/svg"><path d="M6.244 23.972H2.197a.558.558 0 00-.366.136.57.57 0 00-.19.344l-1.637 10.5a.345.345 0 00.193.363.34.34 0 00.14.031H2.27a.558.558 0 00.366-.136.57.57 0 00.19-.345l.441-2.832a.57.57 0 01.19-.344.558.558 0 01.365-.137h1.281c2.666 0 4.205-1.305 4.607-3.891.18-1.132.007-2.021-.516-2.644-.576-.684-1.596-1.045-2.95-1.045zm.467 3.835c-.222 1.469-1.331 1.469-2.404 1.469h-.61l.428-2.744a.342.342 0 01.114-.206.335.335 0 01.219-.082h.28c.73 0 1.42 0 1.776.421.213.252.278.626.197 1.142zm11.63-.048h-1.938a.342.342 0 00-.333.288l-.086.549-.135-.199c-.42-.616-1.356-.822-2.29-.822-2.14 0-3.97 1.641-4.326 3.943-.186 1.149.078 2.247.722 3.013.59.704 1.435.997 2.44.997 1.726 0 2.683-1.122 2.683-1.122l-.086.544a.345.345 0 00.191.364c.044.02.093.032.141.032h1.746a.558.558 0 00.366-.137.571.571 0 00.19-.344l1.047-6.712a.344.344 0 00-.19-.362.332.332 0 00-.142-.032zm-2.701 3.817c-.187 1.12-1.066 1.872-2.187 1.872-.563 0-1.012-.182-1.301-.529-.286-.343-.395-.832-.304-1.377.174-1.11 1.068-1.888 2.171-1.888.55 0 .998.186 1.293.535.295.352.412.844.328 1.387zm13.023-3.817h-1.948a.559.559 0 00-.465.25l-2.686 4.003-1.139-3.847a.57.57 0 00-.54-.406h-1.914a.334.334 0 00-.274.143.343.343 0 00-.046.309l2.146 6.37-2.017 2.88a.345.345 0 00.1.49.335.335 0 00.175.049H22a.556.556 0 00.462-.244l6.478-9.46a.344.344 0 00-.103-.487.334.334 0 00-.174-.05z" fill="#253B80"/><path d="M35.2 23.972h-4.02a.54.54 0 00-.362.142.602.602 0 00-.189.358l-1.625 10.925a.374.374 0 00.076.285c.032.04.07.07.114.092a.317.317 0 00.14.033h2.063a.378.378 0 00.253-.1.422.422 0 00.132-.25l.461-3.097a.601.601 0 01.189-.358.54.54 0 01.362-.143h1.272c2.648 0 4.174-1.358 4.574-4.049.18-1.177.007-2.102-.513-2.75-.57-.711-1.583-1.088-2.928-1.088zm.463 3.99c-.22 1.529-1.32 1.529-2.387 1.529h-.606l.426-2.855a.36.36 0 01.113-.215.322.322 0 01.218-.085h.278c.725 0 1.41 0 1.763.439.211.262.275.65.195 1.187zm11.547-.049h-1.923a.32.32 0 00-.217.085.36.36 0 00-.113.215l-.085.57-.135-.207c-.417-.64-1.345-.855-2.273-.855-2.126 0-3.941 1.708-4.295 4.103-.183 1.195.077 2.337.716 3.134.588.733 1.425 1.038 2.424 1.038 1.713 0 2.663-1.168 2.663-1.168l-.086.567a.376.376 0 00.076.287c.032.039.071.07.115.091a.32.32 0 00.14.033h1.733a.54.54 0 00.363-.142.602.602 0 00.189-.358l1.04-6.983a.376.376 0 00-.077-.286.337.337 0 00-.115-.091.32.32 0 00-.14-.033zm-2.682 3.97c-.184 1.166-1.058 1.949-2.171 1.949-.558 0-1.005-.19-1.292-.55-.284-.358-.391-.867-.302-1.434.174-1.155 1.06-1.963 2.156-1.963.547 0 .99.192 1.284.555.294.367.41.88.325 1.444zm4.95-7.611L47.83 35.397a.376.376 0 00.076.285c.03.04.07.07.114.092a.317.317 0 00.14.033h1.658a.57.57 0 00.552-.5l1.626-10.925a.375.375 0 00-.076-.286.32.32 0 00-.254-.125h-1.857a.321.321 0 00-.217.086.362.362 0 00-.113.215z" fill="#179BD7"/><path d="M24.406 19.213l.34-2.19-.758-.017h-3.62L22.884.85a.204.204 0 01.204-.177h6.105c2.027 0 3.425.428 4.156 1.27.342.396.56.81.666 1.264.11.477.112 1.047.004 1.742L34.011 5v.446l.343.196c.26.134.496.315.693.535.293.338.482.768.562 1.277.083.524.055 1.148-.08 1.853-.156.812-.409 1.52-.75 2.098-.3.518-.705.967-1.188 1.318a4.793 4.793 0 01-1.6.73 7.884 7.884 0 01-1.999.235h-.475a1.43 1.43 0 00-1.413 1.221l-.035.197-.602 3.859-.027.141c-.007.045-.02.067-.038.083a.1.1 0 01-.062.023h-2.934z" fill="#253B80"/><path d="M34.677 5.053c-.018.118-.039.238-.062.362-.805 4.186-3.56 5.631-7.077 5.631h-1.791a.873.873 0 00-.86.746l-.917 5.89-.26 1.669a.47.47 0 00.26.493c.06.028.126.043.192.043h3.177a.767.767 0 00.755-.652l.031-.164.598-3.843.039-.211a.767.767 0 01.755-.654h.475c3.078 0 5.487-1.265 6.191-4.927.294-1.53.142-2.806-.636-3.705a3.041 3.041 0 00-.87-.678z" fill="#179BD7"/><path d="M33.835 4.713a6.284 6.284 0 00-.783-.176 9.826 9.826 0 00-1.58-.117h-4.784a.757.757 0 00-.497.186.775.775 0 00-.258.468l-1.017 6.528-.03.19a.883.883 0 01.294-.534.863.863 0 01.566-.211h1.791c3.518 0 6.272-1.447 7.077-5.632.024-.124.044-.244.063-.362a4.26 4.26 0 00-.842-.34z" fill="#222D65"/><path d="M25.934 5.074a.773.773 0 01.258-.468.755.755 0 01.497-.185h4.785c.566 0 1.095.037 1.578.116.327.052.65.13.964.233.238.08.459.174.662.283.24-1.547-.002-2.6-.828-3.554C32.94.45 31.297 0 29.194 0h-6.105a.876.876 0 00-.862.747l-2.543 16.32a.54.54 0 00.119.428.527.527 0 00.398.186h3.77l.945-6.08 1.018-6.527z" fill="#253B80"/></svg>