<svg width="75" height="24" fill="none" xmlns="http://www.w3.org/2000/svg"><rect x=".5" y=".5" width="74" height="23" rx="3.5" stroke="#E7E7E7"/><g clip-path="url(#clip0)"><path d="M29.358 6.578h-3.605a.499.499 0 00-.495.425l-1.457 9.298a.304.304 0 00.297.35h1.72a.499.499 0 00.496-.427l.393-2.507a.504.504 0 01.494-.426h1.142c2.374 0 3.745-1.156 4.103-3.446.16-1.002.006-1.79-.46-2.341-.512-.606-1.421-.926-2.628-.926zm.416 3.396c-.197 1.301-1.185 1.301-2.141 1.301h-.544l.382-2.43a.303.303 0 01.296-.255h.25c.65 0 1.265 0 1.582.373.19.223.247.554.175 1.011zm10.36-.042h-1.727a.3.3 0 00-.296.255l-.077.486-.12-.176c-.374-.546-1.208-.728-2.04-.728-1.907 0-3.536 1.453-3.853 3.492-.165 1.017.07 1.989.643 2.667.526.623 1.278.883 2.174.883 1.537 0 2.39-.994 2.39-.994l-.078.483a.302.302 0 00.297.35H39a.5.5 0 00.495-.426l.933-5.943a.304.304 0 00-.17-.321.298.298 0 00-.125-.028zm-2.407 3.38c-.166.992-.949 1.657-1.947 1.657-.501 0-.902-.161-1.16-.468-.254-.304-.351-.737-.27-1.22.155-.983.951-1.67 1.934-1.67.49 0 .889.163 1.151.472.264.312.368.748.292 1.229zm11.6-3.38h-1.734a.5.5 0 00-.415.221l-2.393 3.545-1.014-3.406a.505.505 0 00-.48-.36h-1.705a.299.299 0 00-.298.258.303.303 0 00.013.142l1.91 5.64-1.796 2.55a.304.304 0 00.245.478h1.733a.498.498 0 00.411-.216l5.77-8.377a.304.304 0 00-.091-.431.3.3 0 00-.156-.044z" fill="#253B80"/><path d="M55.072 6.579h-3.605a.499.499 0 00-.495.425l-1.458 9.298a.304.304 0 00.171.32c.04.02.082.029.126.029h1.85a.35.35 0 00.346-.298l.413-2.636a.505.505 0 01.495-.426h1.14c2.376 0 3.745-1.155 4.104-3.446.162-1.002.006-1.79-.46-2.34-.512-.606-1.42-.926-2.627-.926zm.416 3.396c-.197 1.3-1.185 1.3-2.141 1.3h-.544l.383-2.43a.301.301 0 01.296-.254h.25c.65 0 1.264 0 1.582.373.189.223.246.553.174 1.01zm10.36-.042h-1.726a.298.298 0 00-.296.255l-.077.485-.12-.176c-.375-.545-1.207-.728-2.04-.728-1.907 0-3.535 1.454-3.853 3.492-.164 1.017.07 1.99.643 2.668.527.623 1.278.883 2.174.883 1.537 0 2.39-.994 2.39-.994l-.078.482a.303.303 0 00.298.35h1.554a.499.499 0 00.495-.426l.933-5.943a.304.304 0 00-.298-.348zm-2.407 3.379c-.166.992-.95 1.658-1.948 1.658-.5 0-.901-.162-1.159-.468-.255-.305-.35-.738-.27-1.22.156-.984.95-1.671 1.934-1.671.49 0 .889.163 1.151.473.264.312.368.748.292 1.228zm4.441-6.478l-1.48 9.468a.304.304 0 00.171.32.28.28 0 00.126.029h1.487a.5.5 0 00.495-.426l1.46-9.297a.305.305 0 00-.171-.322.3.3 0 00-.126-.028H68.18a.3.3 0 00-.297.256z" fill="#179BD7"/><path d="M8.83 18.457l.276-1.761-.614-.015H5.56L7.597 3.685a.168.168 0 01.166-.142h4.944c1.641 0 2.774.344 3.366 1.022.277.318.453.65.539 1.016.09.384.091.842.004 1.402l-.007.04v.359l.277.158c.212.108.402.254.562.43.237.273.39.618.455 1.028.067.422.045.923-.065 1.49-.126.654-.33 1.223-.607 1.689a3.465 3.465 0 01-.962 1.06 3.91 3.91 0 01-1.295.588 6.427 6.427 0 01-1.62.188h-.384a1.163 1.163 0 00-1.145.982l-.029.16-.487 3.103-.022.114c-.006.036-.016.054-.03.067a.082.082 0 01-.051.018H8.83z" fill="#253B80"/><path d="M17.148 7.064a9.055 9.055 0 01-.05.292c-.652 3.367-2.883 4.53-5.732 4.53h-1.45a.706.706 0 00-.697.6l-.742 4.738-.21 1.343a.375.375 0 00.366.432h2.572a.62.62 0 00.612-.525l.025-.131.484-3.092.032-.17a.62.62 0 01.611-.526h.385c2.493 0 4.444-1.018 5.014-3.964.238-1.23.115-2.258-.515-2.98a2.463 2.463 0 00-.705-.547z" fill="#179BD7"/><path d="M16.466 6.791a5.118 5.118 0 00-.634-.141 8.01 8.01 0 00-1.279-.094h-3.875a.616.616 0 00-.611.526l-.825 5.252-.023.153a.71.71 0 01.696-.6h1.45c2.85 0 5.08-1.164 5.732-4.53.02-.1.036-.197.05-.292a3.462 3.462 0 00-.681-.274z" fill="#222D65"/><path d="M10.068 7.082a.621.621 0 01.61-.526h3.876c.459 0 .887.03 1.278.094.265.042.526.105.781.187.192.065.371.14.536.228.194-1.244-.002-2.092-.67-2.859C15.74 3.362 14.41 3 12.707 3H7.763a.708.708 0 00-.698.6l-2.06 13.13a.43.43 0 00.242.456.43.43 0 00.177.039h3.053l.766-4.891.825-5.252z" fill="#253B80"/></g><defs><clipPath id="clip0"><path fill="#fff" transform="translate(5 3)" d="M0 0h65.144v16H0z"/></clipPath></defs></svg>