<svg width="62" height="17" fill="none" xmlns="http://www.w3.org/2000/svg"><path d="M7.729 0H2.984a.642.642 0 00-.429.165.698.698 0 00-.223.417L.413 13.307a.432.432 0 00.09.333.397.397 0 00.301.144H3.07a.64.64 0 00.428-.165.698.698 0 00.223-.418L4.24 9.77a.698.698 0 01.222-.417.642.642 0 01.429-.165h1.502c3.125 0 4.93-1.582 5.4-4.717.213-1.371.01-2.448-.605-3.203C10.513.438 9.317 0 7.73 0zm.547 4.647c-.26 1.781-1.56 1.781-2.818 1.781h-.716l.502-3.325a.419.419 0 01.134-.25.385.385 0 01.257-.1h.328c.857 0 1.665 0 2.083.511.249.305.325.758.23 1.383zm13.636-.057H19.64a.385.385 0 00-.257.1.419.419 0 00-.134.25l-.1.664-.16-.241c-.491-.747-1.588-.996-2.683-.996-2.51 0-4.655 1.989-5.073 4.778-.217 1.392.092 2.723.846 3.65.693.854 1.684 1.21 2.862 1.21 2.023 0 3.145-1.36 3.145-1.36l-.101.66a.431.431 0 00.09.333.381.381 0 00.3.145h2.047a.64.64 0 00.428-.165.697.697 0 00.223-.417l1.228-8.133a.43.43 0 00-.09-.333.396.396 0 00-.3-.145zm-3.167 4.625c-.22 1.358-1.25 2.269-2.564 2.269-.66 0-1.187-.221-1.526-.64-.335-.417-.463-1.01-.356-1.67.205-1.346 1.252-2.287 2.546-2.287.645 0 1.17.224 1.515.647.347.427.484 1.024.385 1.681zM34.013 4.59H31.73a.64.64 0 00-.309.08.673.673 0 00-.237.223l-3.15 4.851L26.7 5.082a.691.691 0 00-.239-.355.642.642 0 00-.394-.137h-2.244a.382.382 0 00-.18.046.4.4 0 00-.142.127.424.424 0 00-.053.374l2.515 7.72-2.364 3.49a.425.425 0 00.116.593.38.38 0 00.206.06h2.28a.635.635 0 00.306-.078.67.67 0 00.236-.218L34.339 5.24a.427.427 0 00-.12-.59.382.382 0 00-.205-.06z" fill="#253B80"/><path d="M41.686 0h-4.718a.637.637 0 00-.426.166.699.699 0 00-.22.416l-1.909 12.72a.433.433 0 00.09.333.395.395 0 00.298.145h2.42a.45.45 0 00.299-.116.49.49 0 00.154-.292l.542-3.606a.7.7 0 01.221-.416.637.637 0 01.426-.166h1.492c3.108 0 4.901-1.581 5.37-4.715.212-1.37.008-2.448-.602-3.202C44.453.44 43.265.001 41.686.001zm.544 4.646c-.257 1.78-1.55 1.78-2.802 1.78h-.71l.5-3.324a.418.418 0 01.132-.25.38.38 0 01.255-.099h.326c.851 0 1.656 0 2.07.51.248.306.324.758.23 1.383zm13.556-.057h-2.258a.38.38 0 00-.255.099.417.417 0 00-.133.25l-.1.664-.158-.24c-.49-.747-1.579-.996-2.667-.996-2.497 0-4.628 1.988-5.043 4.777-.215 1.39.09 2.721.84 3.649.69.853 1.674 1.208 2.846 1.208 2.011 0 3.127-1.36 3.127-1.36l-.101.66a.434.434 0 00.09.334.395.395 0 00.299.145h2.034a.636.636 0 00.426-.166.699.699 0 00.22-.417l1.222-8.13a.436.436 0 00-.09-.333.396.396 0 00-.3-.144zm-3.149 4.623c-.217 1.357-1.242 2.268-2.549 2.268-.654 0-1.18-.221-1.516-.64-.334-.416-.46-1.01-.355-1.67.205-1.345 1.245-2.285 2.532-2.285.64 0 1.162.224 1.506.647.345.427.482 1.023.382 1.68zM58.449.35l-1.936 12.952a.433.433 0 00.089.333.395.395 0 00.298.145h1.947a.665.665 0 00.647-.583L61.404.478a.433.433 0 00-.09-.333.395.395 0 00-.298-.145h-2.18a.383.383 0 00-.255.1.42.42 0 00-.132.25z" fill="#179BD7"/></svg>