<svg width="57" height="11" fill="none" xmlns="http://www.w3.org/2000/svg"><g clip-path="url(#clip0_2250_9240)" fill="#008CFF"><path d="M9.34.22c.384.63.557 1.278.557 2.097 0 2.611-2.244 6.003-4.066 8.385H1.669L0 .792 3.644.45l.882 7.05c.825-1.334 1.842-3.43 1.842-4.859 0-.782-.135-1.315-.346-1.753L9.341.22zm4.723 4.365c.671 0 2.36-.305 2.36-1.258 0-.457-.327-.685-.71-.685-.672 0-1.553.8-1.65 1.943zm-.076 1.887c0 1.163.651 1.62 1.515 1.62.94 0 1.84-.229 3.011-.82l-.44 2.973c-.826.4-2.11.667-3.358.667-3.164 0-4.296-1.906-4.296-4.288 0-3.087 1.841-6.365 5.64-6.365 2.09 0 3.26 1.163 3.26 2.783 0 2.61-3.375 3.41-5.332 3.43zm15.847-3.964c0 .381-.058.934-.116 1.295l-1.093 6.861h-3.548l.997-6.29c.019-.17.077-.513.077-.704 0-.457-.288-.571-.634-.571-.46 0-.92.21-1.227.362l-1.131 7.203H19.59L21.22.392h3.088l.039.82c.729-.476 1.688-.991 3.049-.991 1.804 0 2.437.915 2.437 2.287zm10.534-1.125C41.384.66 42.344.26 43.666.26c1.822 0 2.456.915 2.456 2.288 0 .38-.058.933-.116 1.295l-1.092 6.86h-3.55l1.018-6.422c.018-.171.058-.38.058-.514 0-.515-.288-.629-.634-.629-.441 0-.882.19-1.209.362l-1.13 7.204h-3.549l1.016-6.423c.019-.171.057-.38.057-.514 0-.515-.288-.629-.633-.629-.46 0-.92.21-1.227.362L34 10.703h-3.567L32.062.43h3.05l.096.857C35.918.774 36.877.26 38.162.26c1.112 0 1.84.476 2.206 1.124zm12.815 2.992c0-.839-.212-1.41-.844-1.41-1.4 0-1.688 2.458-1.688 3.715 0 .954.269 1.545.901 1.545 1.324 0 1.63-2.593 1.63-3.85zm-6.138 2.154c0-3.24 1.726-6.27 5.697-6.27 2.992 0 4.086 1.753 4.086 4.174 0 3.201-1.707 6.517-5.774 6.517-3.011 0-4.009-1.963-4.009-4.421z"/></g><defs><clipPath id="clip0_2250_9240"><path fill="#fff" d="M0 0h57v11H0z"/></clipPath></defs></svg>