<svg width="70" height="26" fill="none" xmlns="http://www.w3.org/2000/svg"><path d="M2.19 25.245v-7.313H0V15.67h7.043v2.263h-2.19v7.313H2.191l-.001-.001zm6.156 0v-9.576h2.784c1.09 0 1.85.05 2.28.148.429.098.8.262 1.11.493.352.262.623.595.812 1 .189.407.284.853.284 1.342 0 .74-.186 1.344-.558 1.808-.372.465-.913.773-1.625.926l2.663 3.859h-3.01l-2.243-3.748v3.748H8.346zm2.497-5.05h.493c.575 0 .994-.095 1.259-.287.265-.192.397-.493.397-.903 0-.48-.123-.821-.37-1.024-.247-.202-.662-.304-1.245-.304h-.534v2.519-.001z" fill="#00AFD8"/><path d="M15.963 25.245l3.371-9.576h3.338l3.378 9.576H23.4l-.494-1.714h-3.785l-.508 1.714h-2.65zm3.732-3.578h2.65l-.995-3.16a7.958 7.958 0 01-.127-.463l-.206-.825c-.058.236-.115.46-.17.674-.056.214-.113.419-.17.615l-.982 3.16v-.001zm7.289 3.578v-9.576h2.57l3.692 4.925c.071.1.188.302.35.605.163.303.342.665.538 1.083-.053-.397-.093-.75-.117-1.06-.024-.31-.037-.584-.037-.824V15.67h2.557v9.576H33.98l-3.691-4.945a5.425 5.425 0 01-.357-.605 21.064 21.064 0 01-.531-1.07c.053.402.092.757.117 1.067.024.31.036.584.036.824v4.729h-2.57v-.001zm12.08-3.094c.396.44.786.77 1.171.988.385.218.77.327 1.152.327.356 0 .649-.094.878-.281a.882.882 0 00.344-.713c0-.319-.1-.564-.297-.736-.199-.172-.647-.35-1.345-.533-.957-.253-1.634-.582-2.03-.988-.396-.406-.594-.961-.594-1.668 0-.916.313-1.662.938-2.24.625-.578 1.436-.867 2.433-.867a5.422 5.422 0 011.532.212c.483.142.94.357 1.372.645l-.835 1.877a3.517 3.517 0 00-.93-.572c-.3-.125-.62-.19-.945-.193-.32 0-.581.075-.781.226-.2.15-.3.343-.3.578 0 .24.087.432.263.576.176.143.515.281 1.018.412l.12.033c1.086.288 1.8.604 2.143.948.231.236.407.518.527.847.12.33.18.695.18 1.096 0 1.016-.34 1.833-1.021 2.45-.68.616-1.589.925-2.723.925-.681 0-1.3-.114-1.86-.34-.558-.227-1.095-.582-1.612-1.066l1.202-1.943zm7.51 3.094v-9.576h5.988v2.1H49.17v1.661h3.198v2.054H49.17v3.761h-2.596zm7.44 0v-9.576h5.988v2.1h-3.391v1.661h3.197v2.054H56.61V23.1h3.392v2.145h-5.988zm7.749 0v-9.576h2.783c1.09 0 1.85.05 2.28.148.43.098.8.262 1.112.493.351.262.621.595.81 1 .19.407.284.853.284 1.342 0 .741-.185 1.344-.557 1.808-.372.465-.913.773-1.625.926l2.663 3.859h-3.01l-2.244-3.748v3.748h-2.496zm2.496-5.05h.494c.574 0 .994-.095 1.258-.287.265-.192.398-.493.398-.903 0-.48-.124-.821-.37-1.024-.248-.202-.663-.304-1.246-.304h-.534v2.519-.001z" fill="#00AFD8"/><path d="M30.546.101l1.774 6.576c.084.296.16.605.232.926.07.321.144.69.221 1.105.097-.49.179-.896.246-1.214.068-.318.134-.59.198-.817L34.875.101h3.886l-3.992 13.832h-3.567l-1.746-5.905c-.116-.404-.223-.81-.319-1.219-.05-.211-.1-.422-.154-.633l-.135.558c-.101.434-.214.866-.337 1.294l-1.717 5.905h-3.577L19.236.101h3.886l1.62 6.614c.076.34.152.68.226 1.02.074.34.143.69.207 1.05.152-.694.316-1.384.492-2.07L27.441.1h3.105zm9.643 13.832V.101h3.885v13.832h-3.885zm6.989 0V.101h4.021c1.575 0 2.672.07 3.293.213.62.141 1.155.38 1.605.713.508.378.899.86 1.172 1.446.273.585.41 1.231.41 1.936 0 1.071-.269 1.942-.805 2.613-.537.67-1.32 1.116-2.348 1.337l3.847 5.574h-4.349l-3.24-5.414v5.414h-3.606zm3.607-7.294h.713c.83 0 1.435-.138 1.818-.415.382-.277.573-.712.573-1.304 0-.693-.178-1.186-.535-1.479-.357-.293-.956-.44-1.798-.44h-.771V6.64zm9.056 7.294V.101h8.65v3.033h-4.899v2.4h4.619V8.5h-4.619v2.334h4.899v3.1h-8.65z" fill="#006E90"/><path d="M17.724 0H.112v2.739h17.612V0z" fill="url(#paint0_linear_1491_12)"/><path d="M17.726 5.316H.114v2.74h17.612v-2.74z" fill="url(#paint1_linear_1491_12)"/><path d="M17.726 11.116H.114v2.739h17.612v-2.739z" fill="url(#paint2_linear_1491_12)"/><defs><linearGradient id="paint0_linear_1491_12" x1=".112" y1="1.369" x2="17.724" y2="1.369" gradientUnits="userSpaceOnUse"><stop stop-color="#41E700" stop-opacity="0"/><stop offset=".736" stop-color="#3ACD00"/><stop offset=".781" stop-color="#36BE00"/><stop offset=".926" stop-color="#299100"/><stop offset="1" stop-color="#248000"/></linearGradient><linearGradient id="paint1_linear_1491_12" x1=".114" y1="6.686" x2="17.726" y2="6.686" gradientUnits="userSpaceOnUse"><stop stop-color="#41E700" stop-opacity="0"/><stop offset=".736" stop-color="#3ACD00"/><stop offset=".781" stop-color="#36BE00"/><stop offset=".926" stop-color="#299100"/><stop offset="1" stop-color="#248000"/></linearGradient><linearGradient id="paint2_linear_1491_12" x1=".114" y1="12.485" x2="17.726" y2="12.485" gradientUnits="userSpaceOnUse"><stop stop-color="#41E700" stop-opacity="0"/><stop offset=".736" stop-color="#3ACD00"/><stop offset=".781" stop-color="#36BE00"/><stop offset=".926" stop-color="#299100"/><stop offset="1" stop-color="#248000"/></linearGradient></defs></svg>