<svg width="47" height="24" fill="none" xmlns="http://www.w3.org/2000/svg"><rect x=".5" y=".5" width="46" height="23" rx="3.5" stroke="#E7E7E7"/><path d="M8.04 17.88v-3.441H7v-1.065h3.344v1.065h-1.04v3.441H8.04zm2.922 0v-4.506h1.321c.518 0 .879.023 1.083.07.204.045.38.123.527.231.167.123.296.28.385.471.09.191.135.401.135.631 0 .35-.088.633-.264.851-.177.219-.434.364-.772.436l1.264 1.816h-1.429l-1.065-1.764v1.764h-1.185zm1.185-2.376h.235c.272 0 .471-.045.597-.136.126-.09.189-.232.189-.425 0-.225-.059-.386-.176-.481-.117-.096-.315-.143-.591-.143h-.254v1.185z" fill="#00AFD8"/><path d="M14.578 17.88l1.6-4.506h1.585l1.604 4.506h-1.259l-.234-.806h-1.797l-.24.806h-1.259zm1.772-1.684h1.258l-.472-1.486a3.696 3.696 0 01-.06-.219l-.099-.388-.08.317-.081.29-.466 1.486zm3.46 1.684v-4.506h1.22l1.753 2.317c.034.048.09.143.166.285.078.143.163.313.256.51a9.088 9.088 0 01-.056-.499 4.904 4.904 0 01-.017-.388v-2.225h1.214v4.506h-1.214l-1.753-2.327a2.553 2.553 0 01-.17-.285c-.076-.142-.16-.31-.251-.503.025.189.044.356.055.502.012.146.018.275.018.388v2.225h-1.22zm5.735-1.456c.188.207.373.362.556.465.183.103.365.154.547.154a.64.64 0 00.417-.133.414.414 0 00.163-.335.432.432 0 00-.141-.346c-.094-.081-.307-.165-.639-.251-.454-.12-.775-.274-.963-.465-.188-.19-.282-.453-.282-.785 0-.431.148-.782.445-1.054.297-.272.682-.408 1.155-.408.256 0 .498.033.728.1.229.067.446.168.65.303l-.395.883a1.673 1.673 0 00-.442-.269c-.151-.06-.3-.09-.449-.09a.605.605 0 00-.37.106.326.326 0 00-.143.272.33.33 0 00.125.27c.084.068.245.133.483.195l.057.015c.516.136.855.284 1.018.447.11.11.193.243.25.398.057.155.086.327.086.516 0 .478-.162.862-.485 1.153-.324.29-.755.435-1.293.435-.324 0-.618-.053-.883-.16a2.504 2.504 0 01-.765-.502l.57-.914zm3.565 1.456v-4.506h2.843v.988h-1.61v.782h1.518v.966h-1.518v1.77H29.11zm3.533 0v-4.506h2.842v.988h-1.61v.782h1.519v.966h-1.519v.76h1.61v1.01h-2.842zm3.678 0v-4.506h1.322c.518 0 .878.023 1.082.07a1.4 1.4 0 01.528.231c.167.123.295.28.385.471.09.191.135.401.135.631 0 .35-.089.633-.265.851-.177.219-.434.364-.772.436l1.265 1.816h-1.43l-1.064-1.764v1.764H36.32zm1.186-2.376h.234c.273 0 .472-.045.597-.136.126-.09.189-.232.189-.425 0-.225-.059-.386-.176-.481-.117-.096-.314-.143-.59-.143h-.254v1.185z" fill="#00AFD8"/><path d="M21.501 6.048l.843 3.094c.04.14.076.285.11.436.033.151.068.324.105.52.046-.231.084-.422.116-.571.032-.15.064-.278.094-.385l.788-3.094h1.845l-1.896 6.509h-1.693l-.829-2.78c-.03-.097-.08-.288-.15-.573l-.074-.298-.064.263c-.07.287-.124.49-.16.609l-.815 2.779h-1.699l-1.89-6.51h1.845l.769 3.113.107.48c.035.16.068.325.099.493a29.213 29.213 0 01.233-.973l.842-3.112h1.474zm4.579 6.509v-6.51h1.844v6.51h-1.845zm3.318 0v-6.51h1.908c.748 0 1.269.034 1.564.1.294.067.548.18.762.336.24.178.426.405.556.68.13.276.194.58.194.912 0 .504-.127.914-.382 1.23-.255.315-.626.525-1.114.628l1.826 2.624h-2.064l-1.539-2.548v2.548h-1.712zm1.712-3.433h.338c.394 0 .681-.065.863-.195.182-.13.273-.335.273-.614 0-.326-.085-.558-.255-.696-.169-.137-.454-.206-.853-.206h-.366v1.711zm4.3 3.433v-6.51h4.105v1.428H37.19v1.13h2.193V10H37.19v1.098h2.325v1.459H35.41z" fill="#006E90"/><path d="M15.414 6H7.053v1.289h8.361V6z" fill="url(#paint0_linear)"/><path d="M15.415 8.502H7.054V9.79h8.361V8.5z" fill="url(#paint1_linear)"/><path d="M15.415 11.231H7.054v1.289h8.361v-1.29z" fill="url(#paint2_linear)"/><defs><linearGradient id="paint0_linear" x1="7.053" y1="6.644" x2="15.414" y2="6.644" gradientUnits="userSpaceOnUse"><stop stop-color="#41E700" stop-opacity="0"/><stop offset=".736" stop-color="#3ACD00"/><stop offset=".781" stop-color="#36BE00"/><stop offset=".926" stop-color="#299100"/><stop offset="1" stop-color="#248000"/></linearGradient><linearGradient id="paint1_linear" x1="7.054" y1="9.146" x2="15.415" y2="9.146" gradientUnits="userSpaceOnUse"><stop stop-color="#41E700" stop-opacity="0"/><stop offset=".736" stop-color="#3ACD00"/><stop offset=".781" stop-color="#36BE00"/><stop offset=".926" stop-color="#299100"/><stop offset="1" stop-color="#248000"/></linearGradient><linearGradient id="paint2_linear" x1="7.054" y1="11.876" x2="15.415" y2="11.876" gradientUnits="userSpaceOnUse"><stop stop-color="#41E700" stop-opacity="0"/><stop offset=".736" stop-color="#3ACD00"/><stop offset=".781" stop-color="#36BE00"/><stop offset=".926" stop-color="#299100"/><stop offset="1" stop-color="#248000"/></linearGradient></defs></svg>