<svg width="82" height="51" fill="none" xmlns="http://www.w3.org/2000/svg"><path d="M81.575 1.063H-.576c-4.071 0-7.372 3.33-7.372 7.437v34c0 4.108 3.3 7.438 7.373 7.438h82.148c4.072 0 7.373-3.33 7.373-7.438v-34c0-4.108-3.3-7.438-7.373-7.438z" stroke="#E7E7E7"/><path d="M7.934 37.995v-7.313h-2.19V28.42h7.043v2.263h-2.19v7.313H7.935zm6.156 0v-9.576h2.784c1.09 0 1.85.05 2.28.148.429.098.8.262 1.11.493.352.262.623.595.812 1 .189.407.284.853.284 1.342 0 .741-.186 1.344-.558 1.808-.372.465-.913.773-1.625.926l2.663 3.859h-3.01l-2.243-3.748v3.748H14.09zm2.497-5.05h.493c.575 0 .994-.095 1.259-.287.265-.192.397-.493.397-.903 0-.48-.123-.821-.37-1.024-.247-.202-.662-.304-1.245-.304h-.534v2.519z" fill="#00AFD8"/><path d="M21.707 37.995l3.371-9.576h3.338l3.378 9.576h-2.65l-.494-1.714h-3.785l-.508 1.714h-2.65zm3.732-3.578h2.65l-.995-3.16a7.948 7.948 0 01-.127-.463l-.206-.825c-.058.236-.115.46-.17.674-.056.214-.113.419-.17.615l-.982 3.16zm7.289 3.578v-9.576h2.57l3.692 4.925c.071.1.188.302.35.605.163.303.342.665.538 1.083-.053-.397-.093-.75-.117-1.06-.024-.31-.037-.584-.037-.824V28.42h2.557v9.576h-2.557l-3.691-4.945a5.419 5.419 0 01-.357-.605 21.06 21.06 0 01-.531-1.07c.053.402.092.757.117 1.067.024.31.036.584.036.824v4.729h-2.57zm12.08-3.094c.396.44.786.77 1.171.988.385.218.77.327 1.152.327.356 0 .649-.094.878-.281a.882.882 0 00.344-.713c0-.319-.1-.564-.297-.736-.199-.172-.647-.35-1.345-.533-.957-.253-1.634-.582-2.03-.988-.396-.406-.594-.961-.594-1.668 0-.916.313-1.662.938-2.24.625-.578 1.436-.867 2.433-.867a5.42 5.42 0 011.532.212c.483.142.94.357 1.372.645l-.835 1.877a3.519 3.519 0 00-.93-.572 2.512 2.512 0 00-.945-.193c-.32 0-.581.075-.781.226-.2.15-.3.343-.3.578 0 .24.087.432.263.576.176.143.515.281 1.018.412l.12.033c1.086.288 1.8.604 2.143.948.231.236.407.518.527.847.12.33.18.695.18 1.096 0 1.016-.34 1.833-1.021 2.45-.68.616-1.589.925-2.723.925-.681 0-1.3-.114-1.86-.34-.558-.227-1.095-.582-1.612-1.066l1.202-1.943zm7.51 3.094v-9.576h5.988v2.1h-3.392v1.661h3.198v2.054h-3.198v3.761h-2.596zm7.44 0v-9.576h5.988v2.1h-3.391v1.661h3.197v2.054h-3.198v1.616h3.392v2.145h-5.988zm7.749 0v-9.576h2.783c1.09 0 1.85.05 2.28.148.43.098.8.262 1.112.493.351.262.621.595.81 1 .19.407.284.853.284 1.342 0 .741-.185 1.344-.557 1.808-.372.465-.913.773-1.625.926l2.663 3.859h-3.01l-2.244-3.748v3.748h-2.496zm2.496-5.05h.494c.574 0 .994-.095 1.258-.287.265-.192.398-.493.398-.903 0-.48-.124-.821-.37-1.024-.248-.202-.663-.304-1.246-.304h-.534v2.519z" fill="#00AFD8"/><path d="M36.29 12.851l1.774 6.576c.084.296.16.605.232.926.07.321.144.69.221 1.105.097-.491.179-.896.246-1.214.068-.318.134-.59.198-.817l1.658-6.576h3.886l-3.992 13.832h-3.567L35.2 20.778a25.23 25.23 0 01-.319-1.219 36.13 36.13 0 00-.154-.633l-.135.558a25.84 25.84 0 01-.337 1.294l-1.717 5.905h-3.577L24.98 12.851h3.886l1.62 6.614c.076.34.152.68.226 1.02.074.34.143.69.207 1.049a64.035 64.035 0 01.492-2.07l1.774-6.613h3.105zm9.643 13.832V12.851h3.885v13.832h-3.885zm6.989 0V12.851h4.021c1.575 0 2.672.07 3.293.213.62.141 1.155.38 1.605.713.508.378.899.86 1.172 1.446.273.585.41 1.231.41 1.936 0 1.071-.269 1.942-.805 2.613-.537.67-1.32 1.116-2.348 1.337l3.847 5.574h-4.349l-3.24-5.414v5.414h-3.606zm3.607-7.294h.713c.83 0 1.435-.138 1.818-.415.382-.277.573-.712.573-1.304 0-.693-.178-1.186-.535-1.479-.357-.293-.956-.44-1.798-.44h-.771v3.638zm9.056 7.294V12.851h8.65v3.033h-4.899v2.4h4.619v2.966h-4.619v2.334h4.899v3.099h-8.65z" fill="#006E90"/><path d="M23.468 12.75H5.856v2.739h17.612V12.75z" fill="url(#paint0_linear)"/><path d="M23.47 18.066H5.858v2.74H23.47v-2.74z" fill="url(#paint1_linear)"/><path d="M23.47 23.866H5.858v2.739H23.47v-2.739z" fill="url(#paint2_linear)"/><path d="M78 .5H4A3.5 3.5 0 00.5 4v43A3.5 3.5 0 004 50.5h74a3.5 3.5 0 003.5-3.5V4A3.5 3.5 0 0078 .5z" stroke="#00AFD8"/><defs><linearGradient id="paint0_linear" x1="5.856" y1="14.119" x2="23.468" y2="14.119" gradientUnits="userSpaceOnUse"><stop stop-color="#41E700" stop-opacity="0"/><stop offset=".736" stop-color="#3ACD00"/><stop offset=".781" stop-color="#36BE00"/><stop offset=".926" stop-color="#299100"/><stop offset="1" stop-color="#248000"/></linearGradient><linearGradient id="paint1_linear" x1="5.858" y1="19.436" x2="23.47" y2="19.436" gradientUnits="userSpaceOnUse"><stop stop-color="#41E700" stop-opacity="0"/><stop offset=".736" stop-color="#3ACD00"/><stop offset=".781" stop-color="#36BE00"/><stop offset=".926" stop-color="#299100"/><stop offset="1" stop-color="#248000"/></linearGradient><linearGradient id="paint2_linear" x1="5.858" y1="25.235" x2="23.47" y2="25.235" gradientUnits="userSpaceOnUse"><stop stop-color="#41E700" stop-opacity="0"/><stop offset=".736" stop-color="#3ACD00"/><stop offset=".781" stop-color="#36BE00"/><stop offset=".926" stop-color="#299100"/><stop offset="1" stop-color="#248000"/></linearGradient></defs></svg>