<svg width="51" height="24" fill="none" xmlns="http://www.w3.org/2000/svg"><rect x=".5" y=".5" width="50" height="23" rx="3.5" stroke="#E7E7E7"/><g clip-path="url(#clip0_2444_9499)" fill="#6C1CD3"><path d="M9.308 6.212l-3.496-.03v2.242h5.793l-6.02 7.465v1.899h3.723v2.186h2.233v-2.186h3.797c.032-.088.043-.323-.16-.54a5.252 5.252 0 01-.845-1.21c-.112-.21-.197-.463-.229-.484-.747-.033-5.049-.024-5.046-.05l6.025-7.511v-1.78H11.54V4H9.308v2.212zm16.129-1.044c-.053.02-.07 1.157-.07 5.463 0 5.82-.005 5.721.261 6.22.24.448.824.85 1.479 1.014.361.093 1.425.103 1.834.02.527-.108.628-.262.42-.658a4.273 4.273 0 01-.35-1.086c-.06-.355-.134-.411-.58-.4-.213.004-.415-.011-.452-.032-.218-.133-.218-.17-.218-5.381 0-3.35-.016-5.032-.054-5.098-.053-.093-.122-.098-1.132-.093-.59 0-1.106.015-1.138.03zm4.876.015c-.07.041-.08.7-.08 5.412 0 5.078.005 5.387.1 5.742.182.7.591 1.127 1.368 1.44.297.119.43.14 1.031.155.803.02 1.213-.036 1.622-.237.404-.19.415-.324.07-.813a9.761 9.761 0 01-.469-.74l-.212-.386-.389-.005c-.484-.01-.532-.031-.622-.253-.069-.149-.08-.915-.08-5.17 0-3.35-.016-5.032-.053-5.098-.053-.093-.122-.098-1.132-.098-.59 0-1.112.026-1.154.051zM44.458 6.29c-.43.19-.654.519-.66.977-.005.39.16.69.495.9.415.273 1.08.196 1.425-.164.442-.458.351-1.25-.19-1.606-.283-.185-.777-.231-1.07-.108zm.851.19c.601.293.691 1.044.18 1.481-.217.186-.371.227-.706.196-.926-.088-1.107-1.343-.245-1.718.234-.103.505-.088.771.04z"/><path d="M44.495 6.711c-.038.062-.043 1.019-.006 1.117.016.046.064.082.107.082.053 0 .074-.072.074-.257 0-.232.01-.258.122-.258.085 0 .16.072.277.258.096.154.191.257.25.257.127 0 .122-.02-.075-.298-.117-.165-.149-.242-.1-.258.138-.046.27-.216.27-.344 0-.232-.17-.335-.553-.335-.191 0-.356.016-.366.036zm.643.165c.043.02.064.098.053.164-.016.109-.048.124-.266.14l-.255.015v-.18c0-.18.005-.185.202-.185.106 0 .229.02.266.046zM18.746 8.399a8.73 8.73 0 01-.452.102c-1.366.304-2.573 1.318-3.084 2.604-.282.71-.383 1.26-.388 2.078-.005 1.147.234 1.991.782 2.794.617.9 1.52 1.512 2.69 1.82.4.104.575.12 1.49.12.903 0 1.09-.016 1.467-.114.936-.252 1.734-.669 2.377-1.26.41-.37.404-.474-.01-.782a6.568 6.568 0 01-.681-.623c-.255-.262-.41-.386-.49-.386-.074 0-.244.103-.409.257-.569.5-1.287.736-2.228.731-.861-.005-1.489-.221-1.888-.664-.202-.22-.457-.725-.51-1.008l-.032-.19h3.313c1.824 0 3.35-.02 3.387-.047.176-.108.218-.854.09-1.666-.303-1.945-1.504-3.252-3.392-3.69-.335-.076-.612-.102-1.207-.097-.426 0-.793.01-.825.02zm1.42 1.985c.389.078.867.335 1.09.582.208.226.42.633.474.895l.037.165h-4.334l.037-.165c.16-.695.777-1.276 1.542-1.461.34-.082.798-.088 1.154-.016zm17.911-1.939c-1.888.406-3.164 1.693-3.563 3.591-.24 1.122-.106 2.428.346 3.365.617 1.296 1.739 2.135 3.27 2.438.484.098.675.108 1.436.088.643-.02.989-.057 1.287-.134.91-.232 1.707-.653 2.318-1.22.468-.437.468-.457-.037-.864a6.47 6.47 0 01-.697-.648c-.345-.386-.435-.39-.824-.051-.58.509-1.27.735-2.233.73-1.35-.005-2.138-.566-2.393-1.697l-.037-.134h6.737c.229-.16.144-1.847-.133-2.63a5.77 5.77 0 00-.314-.678c-.622-1.153-1.616-1.868-2.999-2.15-.441-.093-1.744-.093-2.164-.006zm1.66 1.94c.36.077.733.257.999.488.223.201.585.834.585 1.03v.123h-4.318l.037-.144c.276-1.101 1.446-1.755 2.696-1.497z"/></g><defs><clipPath id="clip0_2444_9499"><path fill="#fff" transform="translate(5 4)" d="M0 0h41v16H0z"/></clipPath></defs></svg>