<svg width="74" height="30" fill="none" xmlns="http://www.w3.org/2000/svg"><g clip-path="url(#clip0_1458_14222)" fill="#6C1CD3"><path d="M7.774 4.148L1.466 4.09v4.206H11.92L1.056 22.293v3.56h6.718v4.099h4.031v-4.1h6.853c.058-.164.078-.606-.287-1.011a9.861 9.861 0 01-1.527-2.269c-.201-.395-.354-.869-.412-.907-1.35-.063-9.113-.046-9.109-.096L18.198 7.487v-3.34h-6.393V0h-4.03v4.148zM36.885 2.19c-.096.038-.125 2.17-.125 10.244 0 10.91-.01 10.727.47 11.663.433.839 1.488 1.591 2.669 1.9.652.174 2.572.193 3.311.038.95-.202 1.133-.491.758-1.234-.24-.463-.556-1.476-.633-2.036-.106-.665-.24-.771-1.046-.752-.384.01-.749-.02-.816-.058-.394-.25-.394-.318-.394-10.09 0-6.28-.029-9.434-.096-9.56-.096-.173-.22-.183-2.044-.173-1.065 0-1.996.029-2.054.058zm8.801.029c-.125.077-.144 1.311-.144 10.147 0 9.521.01 10.1.182 10.766.327 1.312 1.066 2.112 2.467 2.7.537.223.777.261 1.862.29 1.45.039 2.188-.067 2.927-.444.73-.357.749-.607.125-1.524-.25-.366-.633-.993-.844-1.389l-.384-.723-.701-.01c-.873-.02-.96-.058-1.123-.473-.125-.28-.144-1.717-.144-9.694 0-6.28-.029-9.434-.096-9.56-.096-.173-.22-.183-2.044-.183-1.066 0-2.006.048-2.083.097zm25.531 2.074c-.778.357-1.18.974-1.19 1.833-.01.733.287 1.292.892 1.688.749.51 1.949.366 2.573-.309.796-.859.633-2.344-.346-3.01-.509-.347-1.401-.434-1.93-.202zm1.535.357c1.085.55 1.248 1.958.327 2.778-.394.347-.672.424-1.277.366-1.67-.164-1.996-2.517-.441-3.221.422-.193.911-.164 1.391.077z"/><path d="M71.284 5.084c-.067.115-.077 1.91-.01 2.093.03.087.115.154.192.154.096 0 .135-.135.135-.482 0-.434.019-.482.22-.482.154 0 .288.135.5.482.172.29.345.482.45.482.231 0 .221-.038-.134-.56-.21-.308-.269-.453-.182-.482.25-.086.49-.405.49-.646 0-.434-.308-.627-.999-.627-.345 0-.643.029-.662.068zm1.161.308c.077.039.116.184.096.309-.028.203-.086.232-.48.26l-.46.03v-.338c0-.338.01-.347.364-.347.192 0 .413.038.48.086zM24.81 8.248c-.047.02-.422.106-.815.193-2.467.569-4.646 2.47-5.567 4.88-.509 1.332-.691 2.364-.7 3.898-.01 2.151.421 3.733 1.41 5.238 1.113 1.688 2.745 2.836 4.857 3.415.72.192 1.036.221 2.687.221 1.632 0 1.968-.029 2.65-.212 1.688-.472 3.128-1.254 4.29-2.363.738-.695.729-.888-.02-1.466a12.03 12.03 0 01-1.228-1.168c-.461-.492-.74-.723-.883-.723-.135 0-.442.193-.74.482-1.026.936-2.322 1.38-4.02 1.37-1.556-.01-2.688-.415-3.408-1.244-.365-.415-.826-1.36-.922-1.891l-.057-.357h5.98c3.291 0 6.046-.038 6.113-.087.317-.202.394-1.601.163-3.125-.547-3.646-2.716-6.097-6.123-6.917-.605-.144-1.104-.192-2.179-.183-.768 0-1.43.02-1.487.039zm2.563 3.723c.7.145 1.565.627 1.968 1.09.374.425.758 1.187.854 1.679l.067.308H22.44l.067-.308c.288-1.303 1.401-2.393 2.783-2.74.615-.154 1.44-.164 2.083-.029zM59.7 8.334c-3.408.762-5.712 3.174-6.431 6.733-.432 2.103-.192 4.553.623 6.309 1.114 2.43 3.14 4.003 5.903 4.572.874.184 1.22.203 2.592.164 1.161-.038 1.785-.106 2.322-.25 1.642-.434 3.081-1.225 4.185-2.287.845-.82.845-.858-.067-1.62a11.845 11.845 0 01-1.257-1.216c-.624-.723-.787-.733-1.488-.096-1.046.955-2.294 1.38-4.031 1.37-2.438-.01-3.859-1.061-4.32-3.184l-.067-.25h12.161c.413-.299.26-3.463-.24-4.93-.096-.29-.355-.868-.566-1.273-1.123-2.16-2.918-3.502-5.413-4.032-.797-.174-3.148-.174-3.907-.01zm2.994 3.637a4.123 4.123 0 011.804.916c.403.377 1.056 1.563 1.056 1.93v.231H57.76l.068-.27c.499-2.064 2.61-3.29 4.866-2.807z"/></g><defs><clipPath id="clip0_1458_14222"><path fill="#fff" d="M0 0h74v30H0z"/></clipPath></defs></svg>