<svg width="100" height="60" fill="none" xmlns="http://www.w3.org/2000/svg"><mask id="a" style="mask-type:alpha" maskUnits="userSpaceOnUse" x="0" y="0" width="100" height="60"><path fill="#C4C4C4" d="M0 0h100v60H0z"/></mask><g mask="url(#a)"><path clip-rule="evenodd" d="M73.2 47.6h-47c-2.2 0-4-1.8-4-4V16c0-2.2 1.8-4 4-4h47c2.2 0 4 1.8 4 4v27.6c0 2.2-1.8 4-4 4z" stroke="#7CB9FF" stroke-width="3" stroke-miterlimit="10"/><path d="M22 21.1h55.9" stroke="#7CB9FF" stroke-width="3" stroke-miterlimit="10"/><path d="M53.5 16.7h19.3" stroke="#0D66CC" stroke-width="3" stroke-miterlimit="10" stroke-linejoin="round"/><path d="M29.6 15.2h-3v3h3v-3zm5.1 0h-3v3h3v-3zm5.2 0h-3v3h3v-3z" fill="#0D66CC"/><path d="M49.4 39.8a6.5 6.5 0 100-13 6.5 6.5 0 000 13z" stroke="#0D66CC" stroke-width="3" stroke-miterlimit="10" stroke-linejoin="round"/><path d="M53.9 38.2l4.1 4.1" stroke="#0D66CC" stroke-width="3" stroke-miterlimit="10" stroke-linecap="round" stroke-linejoin="round"/></g></svg>