<svg width="100" height="60" fill="none" xmlns="http://www.w3.org/2000/svg"><mask id="a" style="mask-type:alpha" maskUnits="userSpaceOnUse" x="0" y="0" width="100" height="60"><path fill="#C4C4C4" d="M0 0h100v60H0z"/></mask><g mask="url(#a)"><path clip-rule="evenodd" d="M73.4 46.6h-47c-2.2 0-4-1.8-4-4V15c0-2.2 1.8-4 4-4h47c2.2 0 4 1.8 4 4v27.6c0 2.2-1.8 4-4 4z" stroke="#7CB9FF" stroke-width="3" stroke-miterlimit="10"/><path d="M59.6 26.1h10c1.1 0 2 .9 2 2v10.3c0 1.1-.9 2-2 2H30.1c-1.1 0-2-.9-2-2V28.1c0-1.1.9-2 2-2h9.8" stroke="#7CB9FF" stroke-width="3" stroke-miterlimit="10" stroke-linejoin="round"/><path d="M22 20.7h55.9" stroke="#7CB9FF" stroke-width="3" stroke-miterlimit="10"/><path fill-rule="evenodd" clip-rule="evenodd" d="M61.9 47.3c.5-.3.6-.9.4-1.4l-4.2-7.2c-.3-.5-.1-1.1.4-1.4l1.3-.7c.5-.3.5-.7 0-1L55.6 33c-.5-.3-1.2-.8-1.7-1.1l-4.2-2.6c-.5-.3-.8-.1-.8.5v11.8c0 .5.4.8.9.5l1.5-.8c.5-.3 1.1-.1 1.4.4l4.2 7.3c.3.5.9.6 1.4.4l3.6-2.1z" fill="#fff"/><path d="M61.9 47.3c.5-.3.6-.9.4-1.4l-4.2-7.2c-.3-.5-.1-1.1.4-1.4l1.3-.7c.5-.3.5-.7 0-1L55.6 33c-.5-.3-1.2-.8-1.7-1.1l-4.2-2.6c-.5-.3-.8-.1-.8.5v11.8c0 .5.4.8.9.5l1.5-.8c.5-.3 1.1-.1 1.4.4l4.2 7.3c.3.5.9.6 1.4.4l3.6-2.1z" stroke="#0D66CC" stroke-width="3" stroke-miterlimit="10"/><path d="M53.5 15.9h19.3" stroke="#0D66CC" stroke-width="3" stroke-miterlimit="10" stroke-linejoin="round"/><path d="M46.5 26.1h6.9m-20.6 6.8h11.1" stroke="#7CB9FF" stroke-width="3" stroke-miterlimit="10" stroke-linejoin="round"/><path d="M29.6 14.4h-3v3h3v-3zm5.1 0h-3v3h3v-3zm5.1 0h-3v3h3v-3z" fill="#0D66CC"/></g></svg>