<svg width="100" height="60" fill="none" xmlns="http://www.w3.org/2000/svg"><mask id="a" style="mask-type:alpha" maskUnits="userSpaceOnUse" x="0" y="0" width="100" height="60"><path fill="#C4C4C4" d="M0 0h100v60H0z"/></mask><g mask="url(#a)" stroke-width="3" stroke-miterlimit="10" stroke-linejoin="round"><path clip-rule="evenodd" d="M77.2 47.5V22.2c0-1.7-1.4-3.1-3.1-3.1H39.3c-1.7 0-3.1 1.4-3.1 3.1V39c0 1.7 1.4 3.1 3.1 3.1h30.4c.8 0 1.6.3 2.2.9l5.3 4.5z" stroke="#7CB9FF" stroke-linecap="round"/><path d="M72.4 26.8H42.2m30.2 6.5H42.2" stroke="#0D66CC"/><path fill-rule="evenodd" clip-rule="evenodd" d="M22 42.1v-27c0-1.7 1.4-3.1 3.1-3.1h38.5c1.7 0 3.1 1.4 3.1 3.1v18.5c0 1.7-1.4 3.1-3.1 3.1H29.5c-.8 0-1.6.3-2.2.9L22 42.1z" fill="#fff" stroke="#7CB9FF" stroke-linecap="round"/><path d="M59.5 21.1H29.3m24.2 6.7H29.3" stroke="#0D66CC"/></g></svg>