<svg width="100" height="60" fill="none" xmlns="http://www.w3.org/2000/svg"><mask id="a" style="mask-type:alpha" maskUnits="userSpaceOnUse" x="0" y="0" width="100" height="60"><path fill="#C4C4C4" d="M0 0h100v60H0z"/></mask><g mask="url(#a)" stroke-width="3" stroke-miterlimit="10"><path clip-rule="evenodd" d="M69.5 42.7H29.6c-2.2 0-4-1.8-4-4V16c0-2.2 1.8-4 4-4h39.9c2.2 0 4 1.8 4 4v22.7c0 2.2-1.8 4-4 4z" stroke="#7CB9FF"/><path fill-rule="evenodd" clip-rule="evenodd" d="M72.1 47.6h-45c-2.8 0-5.1-2.3-5.1-5.1V42c0-.6.5-1.1 1.1-1.1h53c.6 0 1.1.5 1.1 1.1v.5c-.1 2.9-2.3 5.1-5.1 5.1z" fill="#fff" stroke="#7CB9FF"/><path d="M49.6 34.7c.4 0 .5-.1 1.3-.8 1.4-1.1 2.8-1.5 5.1-1.5.9 0 1.2-.1 1.4-.6.2-.2.2-.3.2-6.3s0-6.1-.2-6.3c-.3-.5-.5-.6-1.9-.6-2.3 0-3.7.4-5.4 1.5h-1.2c-1.7-1.1-3.1-1.5-5.4-1.5-1.1 0-1.3 0-1.5.2l-.4.4c-.1.2-.2.4-.2 6.3 0 6 0 6.1.2 6.3.3.4.6.6 1.4.6 2.3 0 3.8.4 5.1 1.5 1 .8 1.1.8 1.5.8z" fill="#fff" stroke="#0D66CC"/><path d="M49.602 20.1v13.2" stroke="#0D66CC"/></g></svg>