<svg width="100" height="60" fill="none" xmlns="http://www.w3.org/2000/svg"><mask id="a" style="mask-type:alpha" maskUnits="userSpaceOnUse" x="0" y="0" width="100" height="60"><path fill="#C4C4C4" d="M0 0h100v60H0z"/></mask><g mask="url(#a)" stroke-width="3" stroke-miterlimit="10"><path clip-rule="evenodd" d="M73.3 49H28c-2.2 0-4-1.8-4-4V18.4c0-2.2 1.8-4 4-4h45.3c2.2 0 4 1.8 4 4V45c0 2.3-1.8 4-4 4z" stroke="#7CB9FF"/><path d="M24.8 15.8l26.1 18.4 25.5-18.4" stroke="#7CB9FF"/><path d="M70.1 29.4a9.7 9.7 0 009.7-9.7c0-5.357-4.343-9.7-9.7-9.7-5.357 0-9.7 4.343-9.7 9.7 0 5.357 4.343 9.7 9.7 9.7z" fill="#fff" stroke="#7CB9FF"/><path d="M65.4 19.4l2.9 2.9 6.5-6.5" stroke="#0D66CC"/><path d="M46 30.7L26.1 47.3m29.3-16.6l20 16.6" stroke="#7CB9FF"/></g></svg>