<svg fill="none" xmlns="http://www.w3.org/2000/svg" viewBox="0 0 127 46"><mask id="a" maskUnits="userSpaceOnUse" x="22" y="0" width="105" height="46"><path fill-rule="evenodd" clip-rule="evenodd" d="M22.037 46H127V0H22.037v46z" fill="#fff"/></mask><g mask="url(#a)"><path fill-rule="evenodd" clip-rule="evenodd" d="M125.706 22.996c-6.373 12.69-34.56 23.02-62.745 23.02-28.212 0-46.004-10.33-39.632-23.02C29.677 10.356 57.888 0 86.075 0c28.212 0 46.001 10.356 39.631 22.996z" fill="#253571"/></g><mask id="b" maskUnits="userSpaceOnUse" x="22" y="0" width="105" height="46"><path fill-rule="evenodd" clip-rule="evenodd" d="M22.037 46H127V0H22.037v46z" fill="#fff"/></mask><g mask="url(#b)"><path fill-rule="evenodd" clip-rule="evenodd" d="M85.443.488c27.411 0 44.664 10.037 38.429 22.309-6.21 12.297-33.645 22.336-61.003 22.336-27.41 0-44.663-10.038-38.455-22.336 4.03-7.913 16.795-14.855 32.678-18.838 1.128-.297 2.284-.539 3.44-.81 7.9-1.692 16.42-2.661 24.91-2.661z" fill="#000"/></g><mask id="c" maskUnits="userSpaceOnUse" x="22" y="0" width="105" height="46"><path fill-rule="evenodd" clip-rule="evenodd" d="M22.037 46H127V0H22.037v46z" fill="#fff"/></mask><g mask="url(#c)"><path fill-rule="evenodd" clip-rule="evenodd" d="M85.031 1.158c27.066 0 44.136 9.687 38.023 21.512-6.114 11.87-33.156 21.536-60.196 21.536-27.067 0-44.137-9.666-38.022-21.536C30.924 10.845 57.989 1.158 85.03 1.158z" fill="#969998"/></g><path fill-rule="evenodd" clip-rule="evenodd" d="M80.717 2.836c24.452 0 39.843 8.664 34.282 19.258-5.54 10.617-30.015 19.282-54.42 19.282-24.452 0-39.843-8.665-34.304-19.281C29.87 15.264 41.257 9.27 55.426 5.832c1.007-.256 2.038-.465 3.07-.698 7.046-1.463 14.646-2.3 22.221-2.3z" fill="#000"/><path fill-rule="evenodd" clip-rule="evenodd" d="M110.985 13.748c1.174 1.888 1.391 4.014.462 6.242-.871 1.688-1.869 3.045-3.356 4.382-7.715 6.907-25.075 12.059-42.412 12.059-20.442 0-33.332-7.159-28.675-15.935 3.2-6.042 14.044-11.533 27.03-14.247a75.909 75.909 0 014.655-.798c-3.055.297-6.044.73-8.983 1.345-14.398 3.077-26.606 8.047-30.16 14.931-5.15 10.008 9.127 18.168 31.806 18.168 18.58 0 37.189-5.47 46.128-12.971 1.009-.842 2.19-2.031 3.118-3.298.382-.513.718-1.032.998-1.556 1.6-3.01 1.295-5.86-.611-8.322z" fill="#2660AD"/><path fill-rule="evenodd" clip-rule="evenodd" d="M14.171 20.861c-.433.66-.867 1.147-1.292 1.449l-.016.012c-.49.373-1.131.563-1.906.563-.504 0-.85-.098-.946-.263-.01-.025-.237-.631.464-2.82.464-1.387 1.004-2.377 1.606-2.944.747-.725 1.549-1.063 2.524-1.063.306 0 .56.046.715.129.115.063.207.113.243.522l.142 1.598h7.772a10.777 10.777 0 00-1.24 2.008h-7.535l-.53.81zm18.84.465c-.29.894-.663 1.544-1.08 1.877-.426.33-.785.479-1.162.479a.783.783 0 01-.157-.013c-.017-.099-.042-.45.218-1.25.247-.817.611-1.437 1.05-1.792.404-.313.776-.452 1.21-.452.053 0 .09.003.116.006.017.111.028.44-.195 1.145zm18.56-.018c-.24.79-.56 1.378-.903 1.658-.28.229-.517.34-.724.34l-.057-.002c.005-.138.037-.414.185-.876.32-1.012.682-1.447.93-1.633.283-.224.527-.341.783-.376-.015.168-.065.446-.208.87l-.006.018zm54.611-7.86l2.06-6.402-10.593 4.258-.27.11-.655 2.034h-2.1l-.087.266a6.606 6.606 0 00-2.671-.571 6.51 6.51 0 00-2.017.305h-8.297l-1.57 4.86a7.902 7.902 0 00-.018-.609c-.075-1.055-.457-1.99-1.077-2.63-.772-.854-1.86-1.405-3.234-1.637-1.019-.198-2.4-.289-4.35-.289-1.14 0-2.217.075-3.292.23-1.215.181-2.106.42-2.804.75-1.035.434-1.892.963-2.548 1.57-.578.511-1.106 1.162-1.613 1.986a6.892 6.892 0 00-.474-1.48c-.672-1.395-2.185-3.056-5.578-3.056-.838 0-1.63.102-2.416.312l.003-.007H43.52l-1.304 4.038a6.281 6.281 0 00-.593-1.207c-1.365-2.081-3.886-3.135-7.493-3.135-2.959 0-5.592.768-7.826 2.283-.412.281-.807.582-1.173.895v-.026c0-2.979-.835-5.085-2.552-6.441-1.495-1.237-3.7-1.839-6.741-1.839-3.628 0-6.821.948-9.492 2.817C3.69 12.707 1.8 15.379.731 18.77c-.866 2.65-.963 4.924-.289 6.76.723 1.918 1.917 3.285 3.551 4.061 1.47.712 3.47 1.073 5.949 1.073 2.062 0 3.866-.28 5.36-.834 1.51-.531 2.938-1.36 4.248-2.465a16.542 16.542 0 001.857-1.948c.32 1.442 1.1 2.461 1.704 3.066 1.477 1.431 3.671 2.158 6.525 2.158 2.998 0 5.664-.775 7.92-2.306a12.65 12.65 0 001.557-1.241l-2.689 8.325h9.48l1.718-5.285c.827.337 1.779.508 2.83.508 2.208 0 4.273-.716 6.14-2.128a10.453 10.453 0 001.491-1.389 4.11 4.11 0 00.997 1.803c1.043 1.153 2.678 1.715 5 1.715 1.532 0 2.968-.223 4.268-.66.214-.074.433-.158.65-.25l.209.604h16.348L87.4 24.62c.77-2.367 1.474-3.312 1.822-3.663.339-.293.565-.333.759-.333.022 0 .232.006.744.225l1.275.546.606-.707 1.781.004-.782 2.424c-.612 1.805-.818 3.092-.649 4.05.177 1.172.828 2.142 1.835 2.73.86.512 2.104.75 3.912.75 1.321 0 2.794-.153 4.381-.454l.77-.146.41-.079 1.587-7.543-2.839.808.813-2.538h3.113l2.334-7.242h-3.09v-.003z" fill="#fff"/><path fill-rule="evenodd" clip-rule="evenodd" d="M14.966 20.516l-.39.594c-.465.708-.94 1.238-1.417 1.577-.576.44-1.317.662-2.202.662-.712 0-1.171-.17-1.366-.505-.065-.108-.345-.77.426-3.178.49-1.464 1.071-2.52 1.731-3.142.828-.803 1.763-1.193 2.857-1.193.398 0 .716.063.947.186.273.15.441.343.49.889l.104 1.173h8.351a10.43 10.43 0 00-1.947 2.937h-7.584zm18.505.944c-.324.997-.74 1.704-1.233 2.1-.515.399-.98.585-1.468.585-.433 0-.521-.147-.58-.245-.023-.037-.213-.397.184-1.624.276-.91.681-1.586 1.2-2.006.493-.382.974-.56 1.518-.56.398 0 .468.113.544.238.007.014.205.338-.166 1.511zm16.143.83c.283-.891.66-1.535 1.096-1.863.417-.329.81-.482 1.239-.482.22 0 .235.025.285.115.044.073.1.48-.203 1.378-.27.89-.634 1.542-1.055 1.884-.37.302-.708.448-1.032.448-.392 0-.458-.105-.5-.175-.002-.003-.152-.298.17-1.304zm10.665-.227a11.19 11.19 0 00.39-1.926l2.514.248c-.914.3-1.658.672-2.26 1.127-.227.17-.443.355-.644.55zm46.309-1.839l2.034-6.312h-3.092l1.95-6.057-9.711 3.903-.692 2.153h-2.1l-.149.458c-.989-.513-1.96-.762-2.961-.762-.692 0-1.343.102-1.937.304h-8.025L77.147 28.64l-.044-.26c-.106-.623-.117-.932-.108-1.08.011-.157.07-.49.282-1.185l1.904-5.904c.266-.777.366-1.588.305-2.48-.068-.953-.406-1.788-.952-2.347-.698-.776-1.695-1.28-2.96-1.493-.997-.193-2.354-.283-4.27-.283-1.116 0-2.17.073-3.221.225-1.17.175-2.022.401-2.671.71-.988.415-1.803.915-2.419 1.485-.655.58-1.25 1.357-1.818 2.374l-.459.821c0-1.03-.194-1.982-.583-2.84-.61-1.266-1.997-2.776-5.138-2.776-1.095 0-2.13.189-3.15.573l.087-.268h-8.06l-1.769 5.478a5.756 5.756 0 00-.89-2.87c-1.267-1.933-3.65-2.912-7.083-2.912-2.858 0-5.4.74-7.552 2.2a12.45 12.45 0 00-1.927 1.608v-1.12c0-2.83-.777-4.82-2.373-6.081-1.411-1.168-3.518-1.735-6.44-1.735-3.526 0-6.625.918-9.213 2.728-2.569 1.814-4.398 4.404-5.436 7.697-.835 2.553-.935 4.73-.296 6.47.678 1.799 1.792 3.077 3.31 3.798 1.404.68 3.335 1.026 5.738 1.026 2.003 0 3.749-.27 5.188-.803 1.46-.514 2.84-1.316 4.107-2.383.84-.734 1.77-1.782 2.5-2.813.055 1.89.946 3.186 1.72 3.961 1.378 1.337 3.458 2.015 6.179 2.015 2.898 0 5.47-.747 7.644-2.222 1.215-.824 2.221-1.805 3.003-2.928l-3.207 9.927h8.476l1.775-5.463c.107.053.216.102.325.147.802.358 1.744.538 2.8.538 2.098 0 4.063-.683 5.844-2.03a10.271 10.271 0 002.147-2.24 3.63 3.63 0 00.992 2.709c.95 1.05 2.469 1.561 4.645 1.561 1.478 0 2.862-.213 4.112-.634.354-.122.72-.273 1.092-.45l.269.78h15.65l1.741-5.393c.766-2.356 1.484-3.403 1.945-3.86.366-.32.704-.464 1.093-.464.096 0 .379.026.938.265l.944.405.519-.606 2.658.006-.977 3.024c-.589 1.74-.79 2.962-.633 3.838.154 1.036.726 1.89 1.61 2.408.783.466 1.948.682 3.665.682 1.289 0 2.731-.15 4.288-.445l.867-.165 1.364-6.485-2.108.6a12.25 12.25 0 01-.816.205l1.174-3.663h3.114v.002z" fill="#000"/><path fill-rule="evenodd" clip-rule="evenodd" d="M21.636 21.799c-.651 1.45-2.078 3.207-3.285 4.26-1.112.938-2.345 1.664-3.673 2.132-1.33.491-2.923.726-4.736.726-2.224 0-3.938-.305-5.146-.89-1.232-.587-2.103-1.616-2.657-3.092-.533-1.451-.437-3.348.313-5.643.967-3.066 2.634-5.41 4.954-7.047 2.343-1.64 5.146-2.483 8.432-2.483 2.56 0 4.421.468 5.582 1.429 1.57 1.24 1.908 3.278 1.908 5.104H17.36c-.073-.82-.387-1.475-1.16-1.896-.436-.235-.967-.352-1.595-.352-1.426 0-2.707.515-3.794 1.57-.82.772-1.498 1.99-2.053 3.651-.653 2.037-.772 3.443-.314 4.216.435.75 1.281 1.147 2.513 1.147 1.209 0 2.223-.329 3.02-.936.628-.446 1.208-1.124 1.716-1.897h5.943m13.096.048c-.41 1.265-.966 2.155-1.667 2.715-.725.563-1.473.868-2.296.868-.797 0-1.377-.305-1.715-.868-.364-.584-.338-1.45.048-2.647.363-1.192.918-2.06 1.642-2.644.725-.563 1.5-.843 2.346-.843.771 0 1.327.28 1.666.843.363.562.339 1.429-.024 2.576zm5.364-4.637c-1.014-1.545-2.995-2.317-5.966-2.317-2.587 0-4.859.656-6.79 1.966-1.959 1.335-3.264 3.021-3.916 5.057-.725 2.202-.387 3.982.968 5.34 1.11 1.077 2.85 1.64 5.243 1.64 2.656 0 4.953-.68 6.886-1.99 1.933-1.312 3.214-2.998 3.89-5.058.603-1.828.483-3.373-.315-4.638zM53.302 21.8c-.362 1.194-.869 2.013-1.473 2.505-.604.492-1.232.75-1.884.75-.75 0-1.306-.258-1.62-.774-.337-.514-.312-1.31.024-2.365.363-1.146.87-1.99 1.524-2.48.652-.516 1.328-.773 2.077-.773.652 0 1.137.234 1.427.748.312.515.289 1.311-.075 2.39zm5.632-4.872c-.654-1.356-1.958-2.036-3.939-2.036-.991 0-1.958.186-2.924.585-.701.28-1.547.842-2.562 1.685l.628-1.966h-5.293l-5.968 18.476h5.704l2.078-6.394c.386.539.917.936 1.545 1.195.628.28 1.377.42 2.247.42 1.788 0 3.48-.586 5.027-1.755 1.57-1.194 2.706-2.88 3.43-5.106.655-2.036.655-3.721.027-5.104zm12.42 6.112c-.218.633-.486 1.17-.848 1.57-.362.398-.846.725-1.473 1.007a4.607 4.607 0 01-1.91.422c-.603 0-1.015-.14-1.23-.398-.243-.257-.292-.585-.147-.983.098-.352.362-.656.774-.938.386-.28 1.207-.538 2.44-.82a43.23 43.23 0 002.657-.679l-.263.82zm6.813-5.22c-.048-.68-.266-1.218-.63-1.592-.505-.563-1.256-.914-2.221-1.078-.966-.188-2.32-.258-4.01-.258-1.065 0-2.054.07-3.021.21-.943.14-1.741.329-2.32.61-.846.351-1.545.772-2.077 1.264-.556.492-1.064 1.17-1.547 2.038l5.241.515c.414-.585.823-.984 1.26-1.195.555-.258 1.28-.397 2.222-.397.724 0 1.184.116 1.4.375.196.257.196.703 0 1.335-.795.234-1.522.445-2.197.608-.7.14-2.151.422-4.398.82-1.884.304-3.262.794-4.13 1.452-.87.655-1.475 1.499-1.789 2.505-.362 1.1-.192 2.012.483 2.739.678.75 1.885 1.124 3.65 1.124 1.327 0 2.56-.188 3.67-.562.823-.28 1.719-.749 2.659-1.38a7.077 7.077 0 00-.072.842c0 .188.047.443.168.795H75.8c-.096-.561-.145-1.03-.121-1.38.025-.352.146-.844.339-1.476l1.91-5.924a5.058 5.058 0 00.239-1.99zm4.71-2.624h5.291l-.7 2.177c.822-.936 1.57-1.591 2.224-1.942.651-.375 1.375-.54 2.174-.54.846 0 1.666.235 2.511.703l-2.923 3.653c-.603-.259-1.086-.374-1.472-.374-.75 0-1.403.28-2.008.82-.82.795-1.595 2.248-2.293 4.4L84.23 28.59h-5.68l4.327-13.393zm22.496-5.106l-1.643 5.104h3.092l-1.207 3.747h-3.117l-1.523 4.754c-.194.561-.242.936-.194 1.123.097.282.363.446.844.446.413 0 1.039-.117 1.863-.352l-.749 3.56c-1.474.279-2.827.42-4.034.42-1.425 0-2.418-.162-2.973-.492-.557-.326-.894-.842-.992-1.498-.121-.678.074-1.755.581-3.254l1.52-4.707h-2.1l1.208-3.747h2.102l.798-2.481 6.524-2.623z" fill="#fff"/><path d="M75.284 40.038a.735.735 0 01-.564-.26.69.69 0 01-.147-.588l1.755-8.121a.722.722 0 01.711-.56h1.72c.22 0 .427.095.564.26.139.164.192.38.147.588l-1.275 5.916h3.371c.219 0 .426.095.564.26a.69.69 0 01.148.587l-.292 1.357a.721.721 0 01-.711.56h-5.991z" fill="#fff"/><path d="M78.757 31.208L77.3 37.972h4.265l-.291 1.358h-5.991l1.755-8.122h1.72zm0-1.407h-1.72c-.688 0-1.281.467-1.422 1.119l-1.755 8.12c-.09.416.018.848.294 1.177.276.329.69.52 1.128.52h5.99c.69 0 1.283-.468 1.423-1.12l.291-1.358a1.377 1.377 0 00-.295-1.175 1.47 1.47 0 00-1.127-.52h-2.478l1.085-5.036c.025-.102.038-.21.038-.32.001-.777-.65-1.407-1.452-1.407z" fill="#000"/><path d="M85.452 40.175c-.686 0-1.31-.139-1.854-.411a2.918 2.918 0 01-1.3-1.244 3.42 3.42 0 01-.407-1.631c0-1.27.387-2.31 1.15-3.091.776-.79 1.794-1.192 3.03-1.192 1.087 0 1.964.31 2.606.919.645.614.972 1.432.972 2.433 0 1.124-.378 2.112-1.124 2.935-.77.85-1.804 1.282-3.073 1.282zm.624-4.964a.765.765 0 00-.49.165c-.168.129-.307.337-.412.616a2.518 2.518 0 00-.185.874c0 .356.121.483.161.525a.446.446 0 00.359.145c.16 0 .351-.035.563-.292.333-.405.494-.893.494-1.49 0-.252-.078-.359-.136-.417-.061-.062-.152-.126-.354-.126z" fill="#fff"/><path d="M86.068 33.309c.896 0 1.595.24 2.098.718.503.478.755 1.121.755 1.93 0 .953-.315 1.777-.943 2.471-.63.695-1.472 1.041-2.527 1.041-.572 0-1.079-.11-1.521-.332a2.206 2.206 0 01-.99-.941 2.735 2.735 0 01-.325-1.307c0-1.09.317-1.958.952-2.607.635-.649 1.469-.973 2.501-.973zm-.56 4.93c.45 0 .828-.186 1.133-.56.434-.527.651-1.17.651-1.927 0-.377-.113-.679-.34-.906-.227-.227-.519-.34-.877-.34-.355 0-.67.106-.944.318-.274.212-.488.521-.64.925a3.185 3.185 0 00-.229 1.116c0 .421.118.756.355 1.003.236.248.533.371.892.371zm.56-6.338c-.7 0-1.352.116-1.94.345a4.546 4.546 0 00-1.614 1.066c-.897.916-1.351 2.12-1.351 3.576 0 .691.164 1.35.489 1.955a3.62 3.62 0 001.611 1.545c.648.325 1.384.49 2.188.49a5.21 5.21 0 001.992-.373 4.477 4.477 0 001.626-1.147c.866-.956 1.304-2.1 1.304-3.4 0-.573-.095-1.107-.283-1.588a3.713 3.713 0 00-.907-1.347c-.782-.745-1.83-1.122-3.115-1.122z" fill="#000"/><path d="M91.987 40.175c-.697 0-1.266-.21-1.692-.622-.426-.413-.641-.954-.641-1.61 0-.176.023-.49.21-1.357l.709-3.281a.722.722 0 01.71-.56h1.64c.22 0 .426.095.564.26a.69.69 0 01.148.587l-.75 3.485c-.064.295-.094.46-.108.551a.49.49 0 00.117-.029c.078-.03.166-.08.26-.15.102-.074.195-.161.276-.257a1.67 1.67 0 00.225-.383c.033-.077.098-.268.193-.703l.606-2.801a.722.722 0 01.71-.56h1.641c.218 0 .426.095.563.26a.69.69 0 01.148.588l-1.27 5.883a.722.722 0 01-.711.56h-1.532a.74.74 0 01-.5-.194 3.59 3.59 0 01-1.516.333z" fill="#fff"/><path d="M96.803 33.446l-1.27 5.884h-1.531l.171-.798c-.67.624-1.4.936-2.19.936-.499 0-.892-.139-1.177-.415-.286-.277-.428-.648-.428-1.114 0-.203.064-.607.194-1.213l.709-3.28h1.64l-.749 3.485c-.091.417-.138.678-.138.781 0 .17.065.316.195.438s.295.183.497.183c.145 0 .288-.026.429-.08.14-.053.286-.135.434-.243a2.3 2.3 0 00.4-.374c.118-.14.23-.326.332-.554.072-.17.151-.447.234-.831l.606-2.803h1.642v-.002zm.001-1.407h-1.641c-.446 0-.851.196-1.121.511a1.473 1.473 0 00-1.12-.511h-1.64c-.688 0-1.282.466-1.422 1.118l-.71 3.28v.003c-.198.926-.225 1.277-.225 1.5 0 .837.296 1.567.854 2.108.39.378 1.09.828 2.205.828.5 0 .988-.083 1.455-.248.176.072.367.11.563.11h1.532c.688 0 1.281-.468 1.422-1.12l1.262-5.85c.025-.103.038-.21.038-.321 0-.777-.65-1.407-1.451-1.408z" fill="#000"/><path d="M101.086 40.037a.733.733 0 01-.563-.26.686.686 0 01-.147-.588l.72-3.34c.087-.407.121-.604.136-.695-.056.008-.171.042-.357.166a1.335 1.335 0 00-.455.514l-.003.005c-.041.078-.158.353-.346 1.223l-.52 2.415a.721.721 0 01-.711.56H97.2a.734.734 0 01-.564-.26.688.688 0 01-.147-.588l1.27-5.883a.722.722 0 01.71-.56h1.555c.186 0 .363.068.497.19a3.537 3.537 0 011.499-.328c.696 0 1.265.209 1.692.62.429.413.646.952.646 1.602 0 .164-.021.48-.204 1.32l-.715 3.327a.72.72 0 01-.711.56h-1.642z" fill="#fff"/><path d="M102.017 33.309c.499 0 .893.139 1.18.415.288.277.432.645.432 1.102 0 .207-.063.598-.189 1.175l-.714 3.33h-1.641l.72-3.342c.107-.499.161-.796.161-.892 0-.203-.062-.363-.186-.479-.124-.116-.296-.174-.517-.174-.24 0-.507.097-.8.293a2.063 2.063 0 00-.692.776c-.122.229-.26.696-.412 1.401l-.52 2.415h-1.64l1.269-5.883h1.555l-.16.765c.388-.325.752-.557 1.088-.696a2.801 2.801 0 011.066-.206zm0-1.408c-.497 0-.98.083-1.44.246a1.49 1.49 0 00-.555-.107h-1.555c-.688 0-1.281.468-1.422 1.12l-1.27 5.883c-.089.415.02.847.296 1.176.276.33.69.52 1.127.52h1.64a1.47 1.47 0 001.123-.515 1.47 1.47 0 001.124.515h1.64c.689 0 1.282-.467 1.422-1.121l.714-3.328c.154-.705.22-1.142.22-1.463 0-.832-.297-1.558-.86-2.1-.391-.378-1.09-.826-2.204-.826z" fill="#000"/><path d="M107.216 42.425c-1.014 0-1.782-.179-2.348-.546-.447-.29-.98-.873-.98-2.003 0-.1.008-.21.024-.324a.703.703 0 01.281-.47.745.745 0 01.544-.135l.044.006c-.36-.511-.544-1.18-.544-1.99 0-.785.151-1.52.45-2.182.316-.702.774-1.245 1.361-1.616.587-.37 1.203-.557 1.831-.557a2.815 2.815 0 011.526.438.736.736 0 01.595-.3h1.537c.219 0 .425.096.564.26.138.165.191.38.147.587l-1.051 4.903c-.18.825-.33 1.402-.458 1.768-.144.41-.311.735-.511.996a2.664 2.664 0 01-.788.686c-.304.177-.66.304-1.059.378-.359.066-.751.1-1.165.1zm.948-7.275c-.07 0-.169.017-.309.146-.108.099-.268.31-.419.75a2.428 2.428 0 00-.147.755c0 .264.049.465.136.564a.27.27 0 00.23.106c.042 0 .172 0 .376-.159.162-.126.293-.324.39-.587a2.58 2.58 0 00.172-.888c0-.242-.055-.419-.167-.542-.131-.145-.219-.145-.262-.145z" fill="#fff"/><path d="M107.878 33.309a2.077 2.077 0 011.892 1.18l.229-1.041h1.537l-1.052 4.903c-.171.786-.316 1.348-.434 1.684a2.91 2.91 0 01-.406.803 1.93 1.93 0 01-.578.502 2.58 2.58 0 01-.822.29c-.316.06-.66.089-1.029.089-.858 0-1.506-.143-1.944-.427-.439-.284-.657-.757-.657-1.418 0-.07.005-.148.017-.232l1.732.243c0 .17.029.298.086.386.057.087.149.16.277.221.128.061.302.092.523.092.347 0 .625-.066.835-.2.156-.103.284-.27.383-.499.061-.144.139-.457.234-.941l.057-.277c-.567.457-1.154.687-1.76.687-.595 0-1.083-.204-1.464-.61s-.571-1-.571-1.783c0-.691.129-1.324.389-1.9.259-.577.623-1.013 1.092-1.308.468-.295.946-.444 1.434-.444zm-.223 4.864c.286 0 .563-.105.831-.316.269-.21.474-.51.617-.897.143-.388.215-.763.215-1.124 0-.418-.116-.754-.349-1.009-.233-.255-.501-.382-.806-.382-.294 0-.564.112-.809.338-.246.225-.449.573-.609 1.041a3.094 3.094 0 00-.184.975c0 .447.104.788.312 1.022.209.235.469.352.782.352zm.223-6.272c-.771 0-1.521.226-2.227.671-.709.447-1.257 1.095-1.632 1.925a5.964 5.964 0 00-.51 2.463c0 .577.082 1.098.245 1.558h-.001c-.31.229-.512.567-.563.94a3.21 3.21 0 00-.029.416c0 .53.098 1.01.292 1.427.222.48.562.87 1.01 1.161.689.447 1.589.664 2.752.664a7.12 7.12 0 001.304-.114 4.05 4.05 0 001.293-.465c.397-.23.733-.523.999-.872.245-.32.446-.708.614-1.187.139-.393.296-.997.481-1.847l.001-.005 1.045-4.87c.024-.103.037-.21.037-.32 0-.777-.65-1.407-1.452-1.407h-1.538c-.241 0-.47.057-.672.16a3.59 3.59 0 00-1.449-.298z" fill="#000"/><path d="M115.227 40.176c-1.013 0-1.856-.323-2.506-.96-.648-.634-.976-1.469-.976-2.48 0-.951.278-1.812.826-2.558.772-1.043 1.876-1.57 3.284-1.57.946 0 1.719.298 2.297.886.57.578.859 1.37.859 2.355 0 .438-.046.842-.135 1.201a.7.7 0 01-.249.383.685.685 0 01.009.629c-.346.692-.823 1.224-1.419 1.58a3.818 3.818 0 01-1.99.534zm-.184-2.587c.057.03.119.043.195.043a.609.609 0 00.24-.043h-.435zm.872-2.377c-.039-.03-.105-.06-.237-.06a.515.515 0 00-.249.06h.486z" fill="#fff"/><path d="M115.854 33.309c.742 0 1.334.222 1.772.668.439.445.657 1.068.657 1.87 0 .383-.037.729-.114 1.035h-4.116a2.42 2.42 0 00-.006.144c0 .391.115.708.346.948.231.24.512.36.844.36.544 0 .97-.274 1.275-.82l1.469.239c-.286.572-.668 1.001-1.146 1.288a3.071 3.071 0 01-1.609.428c-.816 0-1.479-.25-1.99-.75-.511-.5-.766-1.162-.766-1.986 0-.805.23-1.522.692-2.15.628-.849 1.525-1.274 2.692-1.274zm-1.635 2.604h2.567a2.81 2.81 0 00.005-.16c0-.436-.1-.763-.302-.98-.202-.219-.473-.328-.812-.328-.34 0-.643.124-.912.371s-.451.613-.546 1.097zm1.635-4.012c-1.633 0-2.971.644-3.873 1.862a4.904 4.904 0 00-.964 2.97c0 .58.095 1.12.284 1.608.2.517.503.977.902 1.368.399.391.865.689 1.387.885a4.615 4.615 0 001.636.284c.865 0 1.664-.215 2.372-.64.715-.427 1.283-1.057 1.691-1.872a1.38 1.38 0 00.136-.773c.069-.117.123-.244.158-.38.102-.413.154-.873.154-1.366 0-1.172-.356-2.128-1.059-2.841-.712-.723-1.689-1.105-2.824-1.105z" fill="#000"/></svg>