<svg width="148" height="30" fill="none" xmlns="http://www.w3.org/2000/svg"><mask id="a" maskUnits="userSpaceOnUse" x="0" y="0" width="148" height="30"><path d="M0 30h148V0H0v30z" fill="#fff"/></mask><g mask="url(#a)"><path fill-rule="evenodd" clip-rule="evenodd" d="M81.656 14.998C77.597 23.273 59.644 30.01 41.694 30.01c-17.97 0-29.301-6.738-25.243-15.013C20.494 6.754 38.462 0 56.415 0c17.968 0 29.298 6.754 25.241 14.998z" fill="#032B76"/><path fill-rule="evenodd" clip-rule="evenodd" d="M56.011.32c17.46 0 28.447 6.546 24.476 14.549-3.955 8.02-21.429 14.567-38.853 14.567-17.458 0-28.447-6.547-24.492-14.567 2.566-5.16 10.696-9.688 20.813-12.285.718-.194 1.454-.351 2.19-.528A74.756 74.756 0 0156.011.32z" fill="#0A0A08"/><path fill-rule="evenodd" clip-rule="evenodd" d="M55.749.755c17.238 0 28.11 6.318 24.217 14.03-3.894 7.741-21.117 14.045-38.34 14.045-17.238 0-28.11-6.304-24.216-14.045C21.288 7.072 38.526.755 55.749.755z" fill="#969998"/><path d="M98.735 9.66h-.892l-.422 2.407h-1.605l1.183-6.817 2.412.005c.772 0 1.366.18 1.783.543.419.359.607.85.563 1.475-.035.493-.177.902-.427 1.227-.251.321-.601.575-1.051.763l.919 2.725v.08h-1.712l-.75-2.407zm-.676-1.268l.939.01c.256 0 .478-.063.665-.188.192-.125.328-.295.409-.51a1.2 1.2 0 00.07-.633c-.062-.346-.284-.529-.666-.547l-1.089-.005-.328 1.873zm6.339 3.769a2.392 2.392 0 01-1.215-.318 2.052 2.052 0 01-.803-.88 2.371 2.371 0 01-.215-1.246l.014-.131c.084-.834.374-1.492.868-1.976.497-.487 1.106-.721 1.825-.702.435.006.807.117 1.117.332.31.212.537.507.68.885.144.375.192.796.142 1.264l-.09.642H103.7c.005.265.08.48.225.646.144.165.353.253.628.262.448.012.85-.16 1.206-.515l.648.857a1.922 1.922 0 01-.803.641 2.815 2.815 0 01-1.121.24h-.085zm.376-4.04a.803.803 0 00-.573.205c-.159.144-.299.384-.418.721h1.545l.028-.135a1.02 1.02 0 00.009-.31c-.053-.312-.25-.472-.591-.482zm2.488 1.404c.059-.509.198-.97.417-1.381.222-.412.499-.723.83-.932a1.99 1.99 0 011.127-.31c.51.013.894.196 1.154.549l.164-.454 1.427.004-.83 4.87c-.094.686-.396 1.228-.906 1.625-.509.396-1.145.585-1.905.566a2.727 2.727 0 01-.981-.201 2.119 2.119 0 01-.812-.58l.732-.91c.272.344.626.52 1.061.53.685.012 1.12-.351 1.304-1.091l.038-.155c-.35.344-.736.512-1.159.506a1.582 1.582 0 01-.859-.243 1.636 1.636 0 01-.582-.698 2.72 2.72 0 01-.239-1.011 4.335 4.335 0 01.019-.684zm1.525.5c0 .288.051.511.155.67.103.16.253.242.45.249.291.012.555-.1.793-.337l.399-2.15c-.126-.218-.335-.33-.629-.337-.3-.006-.552.122-.756.384-.202.26-.331.601-.384 1.026a5.284 5.284 0 00-.028.496zm5.255 2.043h-1.548L113.376 7h1.548l-.882 5.067zm-.53-6.345a.714.714 0 01.24-.571.874.874 0 01.609-.23.89.89 0 01.601.206.696.696 0 01.253.539.725.725 0 01-.239.576.877.877 0 01-.61.225.925.925 0 01-.601-.202.704.704 0 01-.253-.543zm4.373 4.893c.041-.206-.119-.36-.479-.463l-.333-.085c-.544-.143-.943-.345-1.197-.604a1.198 1.198 0 01-.357-.922c.017-.487.232-.882.648-1.185.419-.306.93-.456 1.53-.45.598.007 1.081.158 1.45.455.372.296.562.696.568 1.199l-1.539-.005c.012-.4-.165-.6-.531-.6a.752.752 0 00-.436.141.527.527 0 00-.239.365c-.053.253.171.426.67.52.436.103.772.223 1.01.36.238.135.419.302.544.501.125.2.183.44.173.722a1.347 1.347 0 01-.299.819c-.192.24-.468.432-.831.576-.36.143-.751.21-1.173.201a2.414 2.414 0 01-1.024-.23 1.848 1.848 0 01-.736-.608 1.598 1.598 0 01-.272-.89l1.436.01c.006.45.232.671.676.665.19 0 .353-.043.488-.127a.568.568 0 00.253-.365zm4.857-4.874l-.22 1.26h.811l-.192 1.095h-.812l-.394 2.327c-.022.16-.013.28.028.36.044.082.15.125.32.132.065.003.2-.005.402-.024l-.112 1.143c-.26.084-.536.123-.83.117-.479-.006-.838-.147-1.075-.422-.238-.274-.334-.647-.291-1.119l.413-2.514h-.629L120.349 7h.629l.221-1.26h1.543zm2.877 6.419a2.387 2.387 0 01-1.215-.318 2.04 2.04 0 01-.803-.88 2.382 2.382 0 01-.216-1.246l.015-.131c.084-.834.373-1.492.867-1.976.498-.487 1.106-.721 1.825-.702.436.006.808.117 1.117.332.31.212.537.507.681.885.144.375.191.796.141 1.264l-.09.642h-3.021c.006.265.081.48.225.646.144.165.353.253.628.262.448.012.85-.16 1.206-.515l.648.857a1.925 1.925 0 01-.802.641 2.816 2.816 0 01-1.122.24h-.084zm.375-4.04a.799.799 0 00-.572.205c-.16.144-.299.384-.418.721h1.544l.028-.135a1.02 1.02 0 00.009-.31c-.052-.312-.249-.472-.591-.482zm5.89.309a4.444 4.444 0 00-.479-.047c-.463-.013-.817.146-1.061.477l-.573 3.208h-1.543L129.11 7l1.441-.004-.117.664c.331-.511.722-.767 1.173-.767.128 0 .287.021.479.065l-.202 1.47zm2.35 3.731a2.39 2.39 0 01-1.215-.318 2.052 2.052 0 01-.803-.88 2.371 2.371 0 01-.215-1.246l.013-.131c.085-.834.374-1.492.869-1.976.497-.487 1.105-.721 1.825-.702.435.006.807.117 1.117.332.31.212.537.507.68.885.144.375.191.796.141 1.264l-.089.642h-3.022c.006.265.081.48.225.646.145.165.354.253.629.262.448.012.85-.16 1.206-.515l.648.857a1.928 1.928 0 01-.803.641 2.815 2.815 0 01-1.121.24h-.085zm.376-4.04a.803.803 0 00-.573.205c-.159.144-.299.384-.418.721h1.545l.027-.135a.983.983 0 00.01-.31c-.053-.312-.251-.472-.591-.482zm2.477 1.404c.098-.8.342-1.439.732-1.92.391-.48.901-.713 1.53-.697.432.012.79.193 1.074.543l.493-2.576h1.549l-1.248 7.193h-1.375l.065-.548c-.378.443-.798.658-1.262.646-.488-.006-.871-.186-1.149-.539-.276-.355-.423-.832-.441-1.428a4.39 4.39 0 01.018-.576l.014-.098zm1.539.103c-.025.2-.035.375-.033.524 0 .519.175.782.526.792.304.01.574-.136.812-.436l.347-1.943c-.103-.287-.309-.435-.619-.445-.288-.006-.521.119-.699.375-.175.253-.287.63-.334 1.133z" fill="#fff"/><path fill-rule="evenodd" clip-rule="evenodd" d="M53.001 2.073c15.574 0 25.377 5.65 21.834 12.56-3.528 6.923-19.116 12.574-34.66 12.574-15.573 0-25.376-5.65-21.849-12.575 2.29-4.454 9.543-8.363 18.567-10.605.64-.167 1.298-.303 1.954-.455 4.489-.954 9.33-1.5 14.154-1.5z" fill="#0A0A08"/><path fill-rule="evenodd" clip-rule="evenodd" d="M72.28 8.965c.747 1.232.885 2.618.293 4.072-.554 1.1-1.19 1.985-2.137 2.857-4.913 4.504-15.97 7.864-27.012 7.864-13.02 0-21.23-4.668-18.264-10.392 2.038-3.94 8.944-7.522 17.215-9.292a47.727 47.727 0 012.965-.52c-1.946.194-3.85.476-5.721.877-9.17 2.007-16.945 5.249-19.209 9.738-3.28 6.527 5.814 11.849 20.257 11.849 11.835 0 23.687-3.568 29.38-8.46a12.627 12.627 0 001.986-2.15c.243-.335.457-.674.635-1.015 1.02-1.963.825-3.822-.389-5.428z" fill="#279ED4"/><path fill-rule="evenodd" clip-rule="evenodd" d="M10.618 13.605c-.276.43-.553.748-.823.945l-.01.008c-.312.243-.72.367-1.214.367-.321 0-.541-.064-.603-.172-.006-.016-.15-.411.296-1.839.295-.904.64-1.55 1.023-1.92.476-.473.987-.693 1.607-.693.195 0 .357.03.456.084.074.042.132.074.155.34l.09 1.043h4.95c-.31.408-.576.848-.79 1.31h-4.799l-.338.527zm12 .303c-.185.583-.423 1.007-.688 1.224-.272.216-.5.312-.74.312a.466.466 0 01-.1-.008c-.011-.065-.027-.293.138-.816.158-.532.39-.936.67-1.168.257-.204.494-.295.77-.295a.63.63 0 01.075.004c.01.073.016.288-.125.747zm11.82-.012c-.152.515-.356.9-.575 1.082-.178.15-.33.222-.46.222l-.037-.001c.003-.09.023-.27.118-.572.204-.66.434-.943.592-1.065.18-.146.335-.222.498-.244-.01.109-.04.29-.132.566l-.004.012zM69.22 8.771l1.313-4.176-6.747 2.777-.173.072-.416 1.327h-1.338l-.055.173a4.12 4.12 0 00-1.701-.372c-.455 0-.887.067-1.285.199h-5.284l-1 3.17a5.258 5.258 0 00-.011-.397c-.048-.688-.292-1.298-.686-1.715-.492-.558-1.185-.917-2.06-1.069-.65-.128-1.53-.188-2.77-.188-.727 0-1.413.049-2.097.15-.774.118-1.342.274-1.786.489-.659.284-1.205.628-1.623 1.025-.368.332-.704.757-1.027 1.294a4.55 4.55 0 00-.302-.965c-.428-.91-1.392-1.993-3.553-1.993-.534 0-1.038.067-1.538.204l.002-.005H29.31l-.831 2.633a4.121 4.121 0 00-.378-.787c-.869-1.357-2.475-2.045-4.772-2.045-1.884 0-3.561.5-4.985 1.49a8.664 8.664 0 00-.747.583v-.017c0-1.943-.531-3.317-1.625-4.201-.952-.807-2.357-1.2-4.293-1.2-2.311 0-4.345.619-6.046 1.838-1.692 1.222-2.895 2.964-3.576 5.177-.552 1.728-.613 3.21-.184 4.408.46 1.251 1.22 2.143 2.262 2.65.935.463 2.21.698 3.788.698 1.313 0 2.462-.183 3.414-.544a8.61 8.61 0 002.706-1.607c.38-.34.799-.79 1.182-1.27.204.94.7 1.604 1.085 1.999.94.933 2.339 1.407 4.156 1.407 1.91 0 3.607-.506 5.044-1.504.357-.247.69-.52.992-.81l-1.712 5.43h6.037l1.094-3.447c.527.22 1.133.331 1.803.331 1.406 0 2.721-.467 3.91-1.388.34-.264.659-.569.95-.906.108.434.321.83.636 1.176.663.752 1.705 1.118 3.184 1.118a8.32 8.32 0 002.719-.43c.136-.049.275-.103.414-.163l.133.394h10.412l1.176-3.73c.49-1.543.938-2.16 1.16-2.39.216-.19.36-.216.484-.216.014 0 .148.004.474.146l.811.356.386-.46 1.135.002-.498 1.58c-.39 1.177-.52 2.017-.413 2.642.112.764.528 1.397 1.169 1.78.548.334 1.34.489 2.492.489.84 0 1.78-.1 2.79-.295l.49-.096.261-.05 1.011-4.92-1.808.526.518-1.655h1.983l1.486-4.722h-1.97z" fill="#fff"/><path fill-rule="evenodd" clip-rule="evenodd" d="M11.124 13.38l-.248.387c-.297.463-.6.808-.903 1.03-.367.285-.839.43-1.403.43-.453 0-.746-.11-.87-.329-.04-.07-.22-.503.272-2.073.312-.954.682-1.644 1.102-2.049.527-.523 1.123-.778 1.82-.778.253 0 .456.041.603.122.174.097.281.223.312.58l.066.764h5.32a6.826 6.826 0 00-1.241 1.916h-4.83zm11.786.616c-.206.65-.47 1.111-.785 1.37-.328.26-.625.381-.936.381-.275 0-.331-.096-.369-.16-.015-.024-.136-.258.117-1.059.176-.594.434-1.034.764-1.308.314-.25.622-.366.967-.366.254 0 .298.075.347.156.005.009.13.22-.105.986zm10.282.541c.18-.581.42-1 .698-1.215.265-.214.516-.315.789-.315.14 0 .15.017.182.075.028.047.063.313-.13.9-.171.58-.403 1.005-.672 1.228-.235.197-.45.292-.657.292-.25 0-.291-.069-.319-.114 0-.002-.096-.194.109-.85zm6.792-.148c.123-.432.206-.853.248-1.256l1.602.161c-.582.197-1.056.439-1.44.736a4.267 4.267 0 00-.41.359zm29.495-1.2l1.296-4.116h-1.97l1.242-3.95-6.185 2.546-.44 1.404h-1.339l-.094.299c-.63-.334-1.248-.497-1.886-.497-.441 0-.855.067-1.234.198h-5.111l-3.03 9.605-.028-.17c-.068-.405-.075-.607-.069-.704.008-.102.045-.32.18-.773l1.212-3.85c.17-.507.233-1.036.195-1.618-.043-.62-.26-1.165-.606-1.53-.445-.506-1.08-.834-1.886-.974-.635-.126-1.5-.184-2.72-.184-.71 0-1.382.048-2.052.147-.745.114-1.287.261-1.7.463-.63.27-1.149.597-1.54.968-.419.379-.797.885-1.159 1.549l-.292.536a4.52 4.52 0 00-.372-1.852c-.388-.826-1.272-1.811-3.272-1.811-.697 0-1.356.122-2.005.373l.054-.175h-5.133l-1.127 3.573a3.821 3.821 0 00-.567-1.872c-.807-1.26-2.325-1.9-4.511-1.9-1.82 0-3.439.483-4.81 1.435a8.02 8.02 0 00-1.227 1.05v-.731c0-1.846-.495-3.144-1.511-3.966-.9-.761-2.242-1.131-4.103-1.131-2.245 0-4.219.598-5.867 1.779-1.636 1.183-2.8 2.872-3.462 5.02-.532 1.665-.595 3.085-.188 4.22.43 1.172 1.14 2.006 2.107 2.477.895.443 2.125.668 3.655.668 1.276 0 2.388-.176 3.304-.523a8.331 8.331 0 002.616-1.555 10.908 10.908 0 001.593-1.834 3.792 3.792 0 001.094 2.583c.879.872 2.203 1.314 3.936 1.314 1.846 0 3.484-.488 4.87-1.45a7.382 7.382 0 001.911-1.909l-2.042 6.475h5.398l1.131-3.563c.068.035.137.067.207.096.51.233 1.11.351 1.783.351 1.336 0 2.588-.445 3.722-1.324.514-.4.972-.89 1.368-1.46-.04.828.308 1.409.632 1.765.604.686 1.572 1.019 2.958 1.019.941 0 1.822-.14 2.619-.414.225-.08.458-.178.695-.294l.171.509h9.969l1.108-3.517c.488-1.537.945-2.219 1.24-2.517.232-.21.447-.302.695-.302.061 0 .242.016.598.172l.6.264.331-.395 1.693.004-.622 1.972c-.375 1.135-.503 1.93-.403 2.503.098.675.462 1.233 1.025 1.57.5.304 1.241.445 2.335.445.82 0 1.74-.098 2.73-.29l.553-.107.869-4.23-1.343.392a7.66 7.66 0 01-.52.134l.748-2.39h1.983z" fill="#0A0A08"/><path fill-rule="evenodd" clip-rule="evenodd" d="M15.373 14.216c-.416.947-1.324 2.092-2.093 2.78a7.466 7.466 0 01-2.34 1.39c-.846.32-1.861.473-3.016.473-1.416 0-2.508-.2-3.278-.58-.785-.383-1.339-1.055-1.692-2.017-.34-.946-.278-2.183.2-3.68.615-2 1.677-3.528 3.155-4.596 1.492-1.069 3.277-1.62 5.37-1.62 1.631 0 2.816.307 3.555.933 1 .809 1.216 2.138 1.216 3.329h-3.8c-.047-.535-.248-.963-.74-1.237-.277-.153-.616-.23-1.016-.23-.908 0-1.724.336-2.416 1.024-.523.504-.954 1.298-1.308 2.382-.416 1.328-.492 2.245-.2 2.749.277.489.816.748 1.6.748.77 0 1.416-.214 1.924-.61.4-.291.77-.733 1.093-1.238h3.786zm8.341.031c-.261.825-.615 1.405-1.062 1.771-.462.367-.938.566-1.462.566-.508 0-.877-.199-1.092-.566-.231-.38-.216-.946.03-1.726.231-.778.585-1.343 1.046-1.725.462-.367.955-.55 1.494-.55.492 0 .846.183 1.062.55.23.367.215.932-.016 1.68zm3.416-3.024c-.646-1.008-1.907-1.512-3.8-1.512-1.648 0-3.095.429-4.325 1.283-1.247.87-2.078 1.97-2.493 3.298-.462 1.436-.247 2.597.616 3.483.707.702 1.815 1.069 3.34 1.069 1.691 0 3.154-.443 4.385-1.298 1.23-.855 2.047-1.955 2.477-3.299.385-1.191.308-2.199-.2-3.024zm8.41 2.994c-.23.778-.553 1.313-.938 1.633-.384.321-.784.49-1.2.49-.477 0-.831-.169-1.031-.505-.215-.336-.2-.855.015-1.543.231-.747.555-1.297.97-1.617.416-.337.846-.504 1.323-.504.416 0 .724.152.909.488.199.336.185.855-.047 1.558zm3.588-3.177c-.417-.885-1.247-1.329-2.509-1.329a4.7 4.7 0 00-1.862.383c-.447.183-.985.549-1.631 1.099l.4-1.283h-3.371l-3.802 12.05h3.633l1.324-4.17c.245.351.584.61.984.779.4.182.877.275 1.431.275 1.139 0 2.217-.383 3.202-1.146 1-.779 1.723-1.878 2.185-3.33.416-1.327.416-2.427.016-3.328zm7.91 3.986c-.14.412-.31.763-.54 1.023-.231.26-.539.473-.939.657-.4.183-.8.275-1.216.275-.384 0-.646-.092-.784-.26-.154-.168-.185-.382-.093-.641.063-.23.23-.428.493-.611.246-.184.769-.352 1.554-.535a27.07 27.07 0 001.692-.443l-.167.535zm4.338-3.405c-.03-.443-.169-.794-.4-1.038-.323-.368-.8-.597-1.416-.703-.614-.122-1.477-.169-2.554-.169-.677 0-1.308.047-1.924.138-.6.091-1.108.214-1.477.397-.539.23-.984.504-1.323.825-.354.32-.677.763-.985 1.329l3.338.335c.263-.381.524-.64.802-.779.354-.168.815-.26 1.415-.26.461 0 .754.077.892.245.124.168.124.459 0 .87-.507.153-.97.29-1.4.398-.446.091-1.37.275-2.8.534-1.2.198-2.078.519-2.632.947a3.22 3.22 0 00-1.139 1.634c-.23.718-.122 1.313.308 1.786.431.49 1.2.734 2.324.734a7.16 7.16 0 002.338-.367c.524-.183 1.094-.489 1.693-.9-.03.243-.045.426-.045.549 0 .123.03.289.107.518h3.37c-.061-.366-.092-.67-.077-.9.016-.229.093-.55.215-.962l1.218-3.863a3.34 3.34 0 00.152-1.298zm3.001-1.711h3.37l-.446 1.42c.524-.61 1-1.038 1.417-1.267.415-.245.876-.352 1.384-.352.54 0 1.062.153 1.6.459l-1.862 2.382c-.384-.169-.692-.244-.938-.244-.477 0-.893.182-1.278.535-.522.518-1.016 1.466-1.46 2.87l-.925 2.932h-3.617l2.755-8.735zm14.329-3.329L67.659 9.91h1.97l-.77 2.443h-1.984l-.97 3.1c-.124.367-.155.611-.124.733.061.184.231.29.538.29.263 0 .662-.076 1.186-.229l-.477 2.322c-.939.182-1.8.274-2.57.274-.907 0-1.54-.106-1.893-.321-.354-.213-.569-.549-.631-.976-.078-.443.047-1.146.37-2.123l.968-3.07h-1.338l.77-2.443h1.338l.508-1.619 4.156-1.71z" fill="#fff"/><path d="M93.489 23.68l1.182-6.818 2.173.005c.857.003 1.497.165 1.92.487.421.321.613.772.576 1.353-.046.718-.441 1.227-1.182 1.526.266.094.472.264.619.51.15.244.214.538.193.881-.044.659-.306 1.166-.784 1.522-.476.356-1.128.534-1.957.534h-2.74zm2.111-2.9l-.286 1.634.962.005c.3 0 .55-.073.75-.22a.88.88 0 00.357-.595c.088-.521-.112-.794-.6-.82L95.6 20.78zm.183-1.077l.756.005c.697-.016 1.088-.282 1.173-.8.075-.513-.19-.77-.798-.773l-.854-.005-.277 1.573zm7.363.338a4.403 4.403 0 00-.479-.046c-.462-.013-.816.146-1.06.477l-.573 3.208h-1.543l.882-5.067 1.441-.004-.118.664c.332-.511.723-.767 1.173-.767a2.2 2.2 0 01.478.065l-.201 1.47zm2.712-1.521c.454.006.846.12 1.178.341.331.22.574.525.727.918.157.394.212.83.169 1.311l-.009.103c-.088.778-.377 1.405-.868 1.883-.491.477-1.099.71-1.821.697-.451-.006-.84-.117-1.169-.332a1.95 1.95 0 01-.731-.913 2.763 2.763 0 01-.17-1.302c.078-.83.364-1.492.855-1.985.494-.493 1.107-.734 1.839-.721zm-1.15 2.706l-.014.276c-.044.696.17 1.05.639 1.063.606.019.959-.473 1.055-1.475l.019-.426c.006-.28-.047-.504-.16-.67a.565.565 0 00-.488-.262c-.284-.009-.519.108-.703.352-.182.24-.298.62-.348 1.142zm5.829.585l-.563.487-.24 1.382h-1.544l1.253-7.197h1.545l-.715 3.84.189-.225 1.403-1.485h1.957l-2.159 2.154 1.309 2.913h-1.694l-.741-1.869zm5.218 1.962a2.39 2.39 0 01-1.215-.318 2.045 2.045 0 01-.803-.88 2.362 2.362 0 01-.216-1.246l.014-.13c.085-.834.374-1.493.868-1.977.498-.487 1.106-.72 1.826-.702.434.006.807.117 1.117.332.309.212.536.508.68.885.144.375.19.796.141 1.265l-.089.64h-3.022c.005.266.081.482.225.647.144.166.353.253.629.262.447.013.849-.159 1.206-.515l.647.857c-.19.272-.459.485-.803.642-.34.153-.714.232-1.121.238h-.084zm.375-4.04a.804.804 0 00-.573.206c-.159.143-.298.384-.417.72h1.544l.028-.135c.019-.11.022-.212.009-.31-.053-.311-.25-.472-.591-.481zm5.889.308a4.38 4.38 0 00-.479-.046c-.463-.013-.816.146-1.06.477l-.572 3.208h-1.545l.883-5.067 1.44-.004-.117.664c.331-.511.723-.767 1.173-.767.128 0 .288.021.479.065l-.202 1.47z" fill="#fff"/><path d="M90.156 2.75l-4.827 24.77" stroke="url(#paint0_linear)" stroke-width="2" stroke-linecap="round"/></g><defs><linearGradient id="paint0_linear" x1="87.742" y1="2.749" x2="87.742" y2="27.521" gradientUnits="userSpaceOnUse"><stop stop-color="#fff" stop-opacity="0"/><stop offset=".302" stop-color="#fff"/><stop offset=".779" stop-color="#fff"/><stop offset="1" stop-color="#fff" stop-opacity="0"/></linearGradient></defs></svg>