<svg width="123" height="33" fill="none" xmlns="http://www.w3.org/2000/svg"><path fill-rule="evenodd" clip-rule="evenodd" d="M50.557 33c-13.178-4.09-16.803-14.54-16.56-22.824.21-6.43 5.127-10.245 16.56-10.175 11.435-.069 16.35 3.747 16.56 10.175.244 8.248-3.382 18.732-16.56 22.824z" fill="url(#paint0_radial)"/><path fill-rule="evenodd" clip-rule="evenodd" d="M34.242 14.368c2.824 1.444 9.1 2.475 16.35 2.475 7.251 0 13.523-.997 16.35-2.475-1.01 7.321-5.333 15.227-16.384 18.63-11.017-3.403-15.374-11.308-16.316-18.63z" fill="url(#paint1_linear)"/><path fill-rule="evenodd" clip-rule="evenodd" d="M50.558 31.314c4.95-1.615 9.203-4.47 11.923-8.971a22.037 22.037 0 002.997-12.1 7.846 7.846 0 00-1.01-3.85c-2.51-4.262-9.52-4.777-13.91-4.743-4.393-.034-11.4.481-13.91 4.744a7.845 7.845 0 00-1.01 3.85 21.963 21.963 0 002.997 12.099c2.754 4.468 6.973 7.356 11.923 8.971z" fill="url(#paint2_linear)"/><path fill-rule="evenodd" clip-rule="evenodd" d="M50.558 31.314c4.95-1.616 9.203-4.47 11.922-8.972.07-.103.14-.24.21-.343.07-.103.104-.207.174-.31l.035-.034c.07-.103.104-.206.175-.309v-.034c.065-.111.123-.226.174-.344v-.034l.07-.103v-.035l.034-.069.07-.138v-.068l.07-.138.069-.138.035-.069v-.034l.034-.102.035-.103v-.035l.035-.103.035-.103.034-.069v-.034c.035-.102.105-.206.14-.309l.035-.103a.49.49 0 00.07-.24l.034-.103.035-.103.035-.103a.492.492 0 00.07-.24l.034-.103c.341-1.047.61-2.116.804-3.2-3.278 1.066-8.576 1.753-14.607 1.753-5.997 0-11.332-.687-14.607-1.752.069.48.174.962.278 1.443.07.24.14.516.21.756v.035c.07.24.14.481.209.756.07.241.174.482.244.722v.034l.07.173.034.102v.035l.035.068.035.103v.034l.034.069v.034l.07.138.035.103v.034l.07.138.034.068.035.103v.034l.07.172v.035c.069.172.174.343.243.515l.07.172c.107.24.235.47.383.688.07.102.14.24.21.343.07.103.14.24.209.343a22.694 22.694 0 0012.168 8.974z" fill="url(#paint3_linear)"/><path d="M42.889 13.784v4.434c-.02.332.078.66.279.928a.9.9 0 00.732.31.823.823 0 00.502-.158.803.803 0 00.3-.427c.17-.662.24-1.345.209-2.028v-.722a9.242 9.242 0 00-.139-2.13.832.832 0 00-.281-.515.855.855 0 00-.555-.207c-.187.01-.367.07-.523.172-.205.06-.387.18-.523.343h-.001zm-3.103 7.458V7.768h3.103v4.537c.259-.245.568-.432.906-.55a3.248 3.248 0 011.046-.24 2.75 2.75 0 011.414.352c.43.243.785.596 1.026 1.023a6.24 6.24 0 01.872 3.506 6.62 6.62 0 01-.802 3.3 2.962 2.962 0 01-1.125 1.242 3.021 3.021 0 01-1.628.442 2.93 2.93 0 01-1.5-.378 3.381 3.381 0 01-1.115-1.1l-.592 1.375h-1.605v-.035zm12.48-9.486v9.52h-3.102v-9.52h3.103zm-3.102-1.271V7.768h3.103v2.715l-3.103.002zm12.48-2.716v13.473h-2.928v-.928a4.41 4.41 0 01-1.185.825c-.389.15-.804.22-1.22.206a2.52 2.52 0 01-1.329-.35c-.4-.237-.725-.58-.938-.99a6.083 6.083 0 01-.735-3.163 7.807 7.807 0 01.663-3.575 2.63 2.63 0 011.016-1.15 2.685 2.685 0 011.493-.397 2.77 2.77 0 012.022.824v-4.81h3.138l.003.035zm-3.102 11.064v-4.946a1.146 1.146 0 00-.977-.447c-.418 0-.697.24-.801.756a8.343 8.343 0 00-.21 2.165c0 .997 0 1.616.035 1.89.105.894.384 1.341.837 1.341a1.333 1.333 0 001.116-.759z" fill="url(#paint4_linear)"/><path d="M4.924 15.33v-.619a1.409 1.409 0 00-.21-.79.642.642 0 00-.592-.31.746.746 0 00-.697.344 2.09 2.09 0 00-.279.86l-2.649-.55c.071-.404.23-.788.464-1.126.235-.338.54-.622.896-.834a4.462 4.462 0 012.405-.619 4.718 4.718 0 012.546.62 2.442 2.442 0 011.186 2.199v5.193c-.005.345.018.69.069 1.03.05.168.12.33.21.482h-3.14c-.034-.103-.034-.24-.07-.413 0-.172-.034-.31-.034-.447-.28.328-.623.597-1.01.79a2.63 2.63 0 01-1.29.27 2.61 2.61 0 01-1.987-.755 2.573 2.573 0 01-.733-2.025 2.752 2.752 0 01.444-1.536 2.81 2.81 0 011.23-1.042 6.826 6.826 0 013.241-.722zm0 3.54v-2.096a2.66 2.66 0 00-1.36.378 1.586 1.586 0 00-.488 1.307c0 .653.279.997.872.997a.853.853 0 00.453-.138c.215-.096.396-.252.523-.447zm4.671-6.908h3.03v6.565c0 .55.244.825.732.825a.994.994 0 00.523-.138c.185-.126.34-.29.454-.481V11.96h3.036v9.316h-3.068v-1.238a3.218 3.218 0 01-1.169 1.081 3.272 3.272 0 01-1.551.397 1.892 1.892 0 01-1.464-.55 2.193 2.193 0 01-.523-1.547V11.96zm9.482 2.097h-1.254V11.96h1.255V8.627h3.033v3.334h1.673v2.097h-1.673v3.953c-.02.28.015.56.104.825.14.206.419.309.872.309.236 0 .471-.035.697-.103v2.2a6.92 6.92 0 01-1.01.172c-.384.034-.767.068-1.151.068a2.828 2.828 0 01-1.917-.55 2.28 2.28 0 01-.663-1.788v-5.086h.034zm5.16 2.51a5.37 5.37 0 011.046-3.472 3.86 3.86 0 011.437-1.066 3.912 3.912 0 011.77-.31 3.842 3.842 0 011.755.309 3.79 3.79 0 011.418 1.066 5.19 5.19 0 011.08 3.473 5.442 5.442 0 01-1.045 3.54 3.815 3.815 0 01-1.435 1.072 3.868 3.868 0 01-1.773.304 3.867 3.867 0 01-1.772-.304 3.814 3.814 0 01-1.435-1.07 5.442 5.442 0 01-1.045-3.542zm3.138 0a7.483 7.483 0 00.244 2.372.847.847 0 00.303.47.868.868 0 001.067 0 .847.847 0 00.304-.47c.207-.773.29-1.574.244-2.372a8.312 8.312 0 00-.21-2.303.818.818 0 00-.32-.467.84.84 0 00-.552-.152.887.887 0 00-.551.176.867.867 0 00-.32.477 9.867 9.867 0 00-.21 2.269h.001zm44.902-5.018v1.306a3.284 3.284 0 011.228-1.126 3.34 3.34 0 011.63-.386c.497-.006.984.138 1.395.413a1.311 1.311 0 01.592 1.1 3.283 3.283 0 011.228-1.126 3.338 3.338 0 011.631-.386 2.36 2.36 0 011.604.515 1.857 1.857 0 01.592 1.547v7.869h-3.173v-6.875c0-.584-.244-.86-.767-.86a.992.992 0 00-.522.138 1.424 1.424 0 00-.488.516v7.115h-3.173v-6.875c0-.584-.244-.86-.767-.86a.85.85 0 00-.523.139 1.782 1.782 0 00-.488.515v7.115h-3.173V11.55l3.174.002zm16.036 3.54v-.653a1.615 1.615 0 00-.21-.825.727.727 0 00-.627-.343.874.874 0 00-.732.378c-.181.266-.29.574-.314.894l-2.753-.55c.07-.426.234-.832.481-1.188a2.96 2.96 0 01.948-.874 4.855 4.855 0 012.51-.653 4.796 4.796 0 012.65.653c.394.24.716.58.931.986.215.405.314.86.288 1.317v5.431c-.015.358.02.717.105 1.065.043.17.114.333.209.482h-3.277c-.035-.103-.035-.241-.07-.413 0-.172-.035-.31-.035-.481-.298.331-.652.61-1.045.824a2.9 2.9 0 01-1.325.31 2.737 2.737 0 01-2.057-.791 3.129 3.129 0 01-.767-2.2 2.834 2.834 0 01.458-1.602 2.9 2.9 0 011.285-1.08 7.518 7.518 0 013.346-.687h.001zm0 3.678v-2.2c-.5.016-.989.145-1.43.378a1.57 1.57 0 00-.522 1.376c0 .687.314 1.03.907 1.03a.963.963 0 00.488-.137c.22-.103.41-.256.557-.447zm9.274-.068c0-.413-.419-.79-1.22-1.1a15.375 15.375 0 01-2.336-.997 2.603 2.603 0 01-.936-.969 2.557 2.557 0 01-.32-1.3 2.68 2.68 0 01.837-1.893 3.93 3.93 0 011.376-.884 3.963 3.963 0 011.622-.25 4.436 4.436 0 012.266.584 3.592 3.592 0 011.499 2.028l-2.23.584a3.754 3.754 0 00-.558-.824 1.244 1.244 0 00-.942-.413c-.627 0-.941.206-.941.619 0 .413.419.756 1.22 1.1a24.03 24.03 0 012.336.997c.387.225.707.547.927.933.221.387.334.823.328 1.267a2.963 2.963 0 01-1.081 2.44 4.428 4.428 0 01-2.859.894 4.488 4.488 0 01-2.684-.756 3.877 3.877 0 01-1.464-1.994l2.44-.756c.175.36.398.695.662.997a1.421 1.421 0 001.046.413c.26.015.52-.058.732-.207a.573.573 0 00.279-.515v.002zm4.183-4.95v5.291a2.422 2.422 0 00.662 1.89 3.073 3.073 0 002.022.585c.384 0 .801-.035 1.185-.069a8.288 8.288 0 001.046-.172v-2.268a2.691 2.691 0 01-.732.103c-.488 0-.767-.103-.907-.344a2.206 2.206 0 01-.102-.857v-4.161h1.738v-2.2h-1.738V8.077h-3.173v3.472h-1.292v2.2l1.291.002zm13.875 3.334h-5.337a3.54 3.54 0 00.244 1.478c.082.245.242.456.455.605.213.148.469.225.73.22a1.378 1.378 0 001.011-.379 1.97 1.97 0 00.593-.962l2.126.79a3.6 3.6 0 01-1.429 1.89 4.24 4.24 0 01-2.51.757 4.03 4.03 0 01-1.867-.367 3.98 3.98 0 01-1.48-1.18 5.614 5.614 0 01-1.08-3.576 5.614 5.614 0 011.08-3.575c.39-.495.894-.89 1.47-1.153a4.027 4.027 0 011.842-.36c.631-.03 1.26.103 1.822.387a3.59 3.59 0 011.385 1.23 6.118 6.118 0 01.907 3.505v.688l.038.002zm-5.3-1.857h2.371a2.632 2.632 0 00-.314-1.547 1.03 1.03 0 00-.906-.413.996.996 0 00-.543.158.97.97 0 00-.364.426c-.157.442-.24.907-.244 1.375v.001zm9.622-3.678v1.478a2.194 2.194 0 011.15-1.271 4.421 4.421 0 011.883-.413v3.162a4.565 4.565 0 00-.663-.207 3.158 3.158 0 00-.627-.068 3.01 3.01 0 00-1.116.172 1.73 1.73 0 00-.663.584v6.29h-3.137v-9.728h3.173z" fill="url(#paint5_linear)"/><path fill-rule="evenodd" clip-rule="evenodd" d="M39.786 15.983c.976.172 2.022.31 3.103.447v1.788c-.02.332.078.66.279.928a.9.9 0 00.732.309.823.823 0 00.502-.157.803.803 0 00.3-.427c.17-.662.24-1.346.209-2.028v-.207c1.045.069 2.126.138 3.206.172a6.611 6.611 0 01-.766 2.922 2.962 2.962 0 01-1.126 1.242 3.021 3.021 0 01-1.628.442 2.931 2.931 0 01-1.499-.378 3.381 3.381 0 01-1.116-1.1l-.592 1.374h-1.604v-5.327zm9.378.825h1.255c.628 0 1.255 0 1.848-.035v4.47h-3.103v-4.435zm4.145-.034a48.025 48.025 0 003.243-.206c0 .86 0 1.409.034 1.65.105.893.384 1.34.837 1.34a1.276 1.276 0 001.15-.721V16.36c1.116-.137 2.162-.274 3.103-.48v5.362h-2.928v-.928a4.408 4.408 0 01-1.185.824c-.388.15-.803.22-1.22.207a2.521 2.521 0 01-1.328-.35c-.4-.237-.726-.58-.938-.991a6.082 6.082 0 01-.732-3.162l-.036-.069z" fill="url(#paint6_linear)"/><defs><linearGradient id="paint1_linear" x1="67.727" y1="27.95" x2="47.024" y2="-1.391" gradientUnits="userSpaceOnUse"><stop stop-color="#1E3464"/><stop offset=".6" stop-color="#29ABE2"/><stop offset="1" stop-color="#C6E8F9"/></linearGradient><linearGradient id="paint2_linear" x1="57.73" y1="24.847" x2="45.316" y2="3.379" gradientUnits="userSpaceOnUse"><stop stop-color="#A6A8AC"/><stop offset=".8" stop-color="#fff"/><stop offset="1" stop-color="#fff"/></linearGradient><linearGradient id="paint3_linear" x1="58.131" y1="29.35" x2="53.983" y2="6.352" gradientUnits="userSpaceOnUse"><stop stop-color="#A6A8AC"/><stop offset=".7" stop-color="#fff"/><stop offset="1" stop-color="#fff"/></linearGradient><linearGradient id="paint4_linear" x1="50.715" y1="21.367" x2="50.715" y2="7.775" gradientUnits="userSpaceOnUse"><stop stop-color="#4F121B"/><stop offset=".022" stop-color="#56151D"/><stop offset=".11" stop-color="#721C22"/><stop offset=".205" stop-color="#8B2124"/><stop offset=".308" stop-color="#A22226"/><stop offset=".422" stop-color="#B42226"/><stop offset=".553" stop-color="#C12227"/><stop offset=".714" stop-color="#C92127"/><stop offset="1" stop-color="#CB2027"/></linearGradient><linearGradient id="paint5_linear" x1="61.5" y1="8.077" x2="61.5" y2="21.524" gradientUnits="userSpaceOnUse"><stop stop-color="#0D66CC"/><stop offset="1" stop-color="#017DD6"/></linearGradient><linearGradient id="paint6_linear" x1="50.709" y1="15.244" x2="50.709" y2="22.012" gradientUnits="userSpaceOnUse"><stop stop-color="#4F121B"/><stop offset=".022" stop-color="#56151D"/><stop offset=".11" stop-color="#721C22"/><stop offset=".205" stop-color="#8B2124"/><stop offset=".308" stop-color="#A22226"/><stop offset=".422" stop-color="#B42226"/><stop offset=".553" stop-color="#C12227"/><stop offset=".714" stop-color="#C92127"/><stop offset="1" stop-color="#CB2027"/></linearGradient><radialGradient id="paint0_radial" cx="0" cy="0" r="1" gradientUnits="userSpaceOnUse" gradientTransform="matrix(23.7897 0 0 23.4567 42.36 15.84)"><stop stop-color="#8ED7F7"/><stop offset=".53" stop-color="#29ABE2"/><stop offset=".89" stop-color="#1E3464"/><stop offset="1" stop-color="#1E3464"/></radialGradient></defs></svg>