<svg xmlns="http://www.w3.org/2000/svg" viewBox="0 0 352.8 96"><radialGradient id="a" cx="119.374" cy="46.074" r="68.232" gradientUnits="userSpaceOnUse"><stop offset="0" stop-color="#8ed7f7"/><stop offset=".53" stop-color="#29abe2"/><stop offset=".89" stop-color="#1e3464"/><stop offset="1" stop-color="#1e3464"/></radialGradient><path d="M145 96c-37.8-11.9-48.2-42.3-47.5-66.4C98.1 10.9 112.2-.2 145 0c32.8-.2 46.9 10.9 47.5 29.6.7 24-9.7 54.5-47.5 66.4z" fill-rule="evenodd" clip-rule="evenodd" fill="url(#a)"/><linearGradient id="b" gradientUnits="userSpaceOnUse" x1="194.249" y1="81.302" x2="86.053" y2="30.849"><stop offset="0" stop-color="#1e3464"/><stop offset=".6" stop-color="#29abe2"/><stop offset="1" stop-color="#c6e8f9"/></linearGradient><path d="M98.2 41.8c8.1 4.2 26.1 7.2 46.9 7.2 20.8 0 38.8-2.9 46.9-7.2-2.9 21.3-15.3 44.3-47 54.2-31.6-9.9-44.1-32.9-46.8-54.2z" fill-rule="evenodd" clip-rule="evenodd" fill="url(#b)"/><linearGradient id="c" gradientUnits="userSpaceOnUse" x1="165.541" y1="72.313" x2="129.575" y2="10.019"><stop offset="0" stop-color="#a6a8ac"/><stop offset=".8" stop-color="#fff"/><stop offset="1" stop-color="#fff"/></linearGradient><path d="M145 91.1c14.2-4.7 26.4-13 34.2-26.1 6.3-10.6 9-23 8.6-35.2-.1-3.9-.9-7.8-2.9-11.2C177.7 6.2 157.6 4.7 145 4.8c-12.6-.1-32.7 1.4-39.9 13.8-2 3.4-2.8 7.3-2.9 11.2-.4 12.2 2.3 24.7 8.6 35.2 7.9 13 20 21.4 34.2 26.1z" fill-rule="evenodd" clip-rule="evenodd" fill="url(#c)"/><linearGradient id="d" gradientUnits="userSpaceOnUse" x1="166.748" y1="85.371" x2="130.676" y2="22.893"><stop offset="0" stop-color="#a6a8ac"/><stop offset=".7" stop-color="#fff"/><stop offset="1" stop-color="#fff"/></linearGradient><path d="M145 91.1c14.2-4.7 26.4-13 34.2-26.1.2-.3.4-.7.6-1 .2-.3.3-.6.5-.9l.1-.1c.2-.3.3-.6.5-.9V62c.2-.3.3-.6.5-1v-.1l.2-.3v-.1l.1-.2.2-.4v-.2l.2-.4.2-.4.1-.2v-.1l.1-.3.1-.3v-.1l.1-.3.1-.3.1-.2V57c.1-.3.3-.6.4-.9l.1-.3c.1-.2.2-.4.2-.7l.1-.3.1-.3.1-.3c.1-.2.2-.4.2-.7l.1-.3c1-3 1.7-6.1 2.3-9.3-9.4 3.1-24.6 5.1-41.9 5.1-17.2 0-32.5-2-41.9-5.1.2 1.4.5 2.8.8 4.2.2.7.4 1.5.6 2.2v.1c.2.7.4 1.4.6 2.2.2.7.5 1.4.7 2.1v.1l.2.5.1.3v.1l.1.2.1.3v.1l.1.2v.1l.2.4.1.3v.1l.2.4.1.2.1.3v.1l.2.5v.1c.2.5.5 1 .7 1.5l.2.5c.3.7.7 1.4 1.1 2 .2.3.4.7.6 1 .2.3.4.7.6 1 8.6 13 20.7 21.4 34.9 26.1z" fill-rule="evenodd" clip-rule="evenodd" fill="url(#d)"/><linearGradient id="e" gradientUnits="userSpaceOnUse" x1="176.421" y1="62.526" x2="176.421" y2="23.461"><stop offset="0" stop-color="#2e94d2"/><stop offset=".105" stop-color="#2e90cf"/><stop offset=".685" stop-color="#2d7dc1"/><stop offset="1" stop-color="#2c76bc"/></linearGradient><path d="M14.1 44.6v-1.8c0-.9-.2-1.7-.6-2.3-.4-.6-.9-.9-1.7-.9-.9 0-1.6.3-2 1-.4.7-.7 1.5-.8 2.5l-7.6-1.6c.5-2.5 1.8-4.4 3.9-5.7 1.9-1.2 4.2-1.8 6.9-1.8 3 0 5.4.6 7.3 1.8 2.3 1.5 3.4 3.6 3.4 6.4v15.1c0 1.4.1 2.4.2 3 .2.6.4 1.1.6 1.4h-9c-.1-.3-.1-.7-.2-1.2 0-.5-.1-.9-.1-1.3-.8 1-1.8 1.7-2.9 2.3-1.1.6-2.3.8-3.7.8-2.4 0-4.3-.7-5.7-2.2C.7 58.9 0 56.8 0 54.2c0-3.3 1.6-5.8 4.8-7.5 2.6-1.4 5.7-2.1 9.3-2.1zm0 10.3v-6.1c-1.9.2-3.2.5-3.9 1.1-.9.7-1.4 2-1.4 3.8 0 1.9.8 2.9 2.5 2.9.4 0 .8-.1 1.3-.4.5-.2 1-.6 1.5-1.3zm13.4-20.1h8.7v19.1c0 1.6.7 2.4 2.1 2.4.5 0 1-.1 1.5-.4.4-.3.9-.7 1.3-1.4V34.8h8.7v27.1H41v-3.6c-2 2.8-4.6 4.3-7.8 4.3-1.8 0-3.2-.5-4.2-1.6s-1.5-2.6-1.5-4.5V34.8zm27.2 6.1h-3.6v-6.1h3.6v-9.7h8.7v9.7h4.8v6.1h-4.8v11.5c0 1.2.1 2 .3 2.4.4.6 1.2.9 2.5.9.7 0 1.3-.1 2-.3v6.4c-.8.2-1.8.4-2.9.5-1.1.1-2.2.2-3.3.2-2.4 0-4.3-.5-5.5-1.6-1.2-1.1-1.9-2.8-1.9-5.2V40.9h.1zm14.8 7.3c0-4.2 1-7.6 3-10.1 2.2-2.7 5.2-4 9.2-4 3.9 0 7 1.3 9.1 4 2.1 2.5 3.1 5.9 3.1 10.1 0 4.4-1 7.8-3 10.3-2.1 2.7-5.2 4-9.2 4-4 0-7.1-1.3-9.2-4-2-2.5-3-5.9-3-10.3zm9 0c0 3.3.2 5.6.7 6.9.5 1.3 1.3 1.9 2.4 1.9 1.1 0 1.9-.6 2.4-1.9.5-1.3.7-3.6.7-6.9 0-3.3-.2-5.5-.6-6.7-.4-1.2-1.2-1.8-2.5-1.8-1.2 0-2 .6-2.5 1.9-.3 1.2-.6 3.4-.6 6.6zm128.8-14.6v3.8c2.1-3 4.8-4.4 8.2-4.4 1.5 0 2.8.4 4 1.2 1.1.8 1.7 1.9 1.7 3.2 2.1-3 4.8-4.4 8.2-4.4 1.9 0 3.5.5 4.6 1.5 1.2 1 1.7 2.5 1.7 4.5v22.9h-9.1v-20c0-1.7-.7-2.5-2.2-2.5-.5 0-1 .1-1.5.4-.5.3-.9.7-1.4 1.5V62h-9.1V42c0-1.7-.7-2.5-2.2-2.5-.6 0-1.1.1-1.5.4-.4.3-.9.7-1.4 1.5v20.7h-9.1V33.6h9.1zm46 10.3V42c0-.9-.2-1.7-.6-2.4-.4-.6-1-1-1.8-1-.9 0-1.6.4-2.1 1.1-.5.7-.8 1.6-.9 2.6l-7.9-1.6c.5-2.6 1.8-4.6 4.1-6 2-1.2 4.4-1.9 7.2-1.9 3.1 0 5.6.6 7.6 1.9 2.4 1.5 3.5 3.8 3.5 6.7v15.8c0 1.4.1 2.5.3 3.1.2.7.4 1.1.6 1.4h-9.4c-.1-.3-.1-.7-.2-1.2 0-.5-.1-.9-.1-1.4-.9 1-1.9 1.8-3 2.4-1.2.6-2.4.9-3.8.9-2.5 0-4.5-.8-5.9-2.3-1.4-1.5-2.2-3.7-2.2-6.4 0-3.5 1.7-6.1 5-7.8 2.6-1.3 5.8-2 9.6-2zm0 10.7v-6.4c-2 .2-3.4.6-4.1 1.1-1 .7-1.5 2-1.5 4s.9 3 2.6 3c.4 0 .9-.1 1.4-.4.5-.2 1-.6 1.6-1.3zm26.6-.2c0-1.2-1.2-2.3-3.5-3.2-3.7-1.4-6-2.4-6.7-2.9-2.4-1.6-3.6-3.8-3.6-6.6 0-2 .8-3.8 2.4-5.5 2.1-2.2 4.9-3.3 8.6-3.3 2.5 0 4.6.6 6.5 1.7 2.1 1.4 3.5 3.3 4.3 5.9l-6.4 1.7c-.6-1.1-1.1-1.9-1.6-2.4-.8-.8-1.6-1.2-2.7-1.2-1.8 0-2.7.6-2.7 1.8 0 1.2 1.2 2.2 3.5 3.2 3.7 1.5 5.9 2.4 6.7 2.9 2.4 1.6 3.6 3.7 3.6 6.4 0 3-1 5.4-3.1 7.1-2.1 1.7-4.8 2.6-8.2 2.6-3.1 0-5.6-.7-7.7-2.2-2-1.4-3.4-3.4-4.2-5.8l7-2.2c.7 1.3 1.3 2.3 1.9 2.9.8.8 1.8 1.2 3 1.2.9 0 1.6-.2 2.1-.6.6-.4.8-.9.8-1.5zm12-14.4v15.4c0 2.5.6 4.3 1.9 5.5 1.3 1.1 3.2 1.7 5.8 1.7 1.1 0 2.3-.1 3.4-.2s2.1-.3 3-.5v-6.6c-.7.2-1.4.3-2.1.3-1.4 0-2.2-.3-2.6-1-.2-.4-.3-1.2-.3-2.5V40h5v-6.4h-5V23.5h-9.1v10.1h-3.7V40h3.7zm39.8 9.7h-15.3c0 1.8.2 3.2.7 4.3.7 1.6 1.8 2.4 3.4 2.4 1.1 0 2.1-.3 2.9-1.1.8-.7 1.4-1.7 1.7-2.8l6.1 2.3c-.7 2.2-2 4-4.1 5.5-2.1 1.5-4.5 2.2-7.2 2.2-4.1 0-7.3-1.5-9.6-4.5-2.1-2.7-3.1-6.2-3.1-10.4s1-7.7 3.1-10.4c2.3-2.9 5.4-4.4 9.5-4.4s7.1 1.6 9.2 4.7c1.8 2.7 2.6 6.1 2.6 10.2v2h.1zm-15.2-5.4h6.8c0-2.2-.3-3.8-.9-4.5-.6-.8-1.4-1.2-2.6-1.2-1.2 0-2 .6-2.6 1.7-.4 1.2-.7 2.5-.7 4zm27.6-10.7v4.3c.6-1.7 1.7-2.9 3.3-3.7 1.7-.8 3.5-1.2 5.4-1.2v9.2c-.8-.3-1.4-.5-1.9-.6-.5-.1-1.1-.2-1.8-.2-1.4 0-2.5.2-3.2.5-.7.3-1.3.9-1.9 1.7v18.3h-9V33.6h9.1z" fill="url(#e)"/><linearGradient id="f" gradientUnits="userSpaceOnUse" x1="145.452" y1="62.176" x2="145.452" y2="22.609"><stop offset="0" stop-color="#4f121b"/><stop offset=".022" stop-color="#56151d"/><stop offset=".11" stop-color="#721c22"/><stop offset=".205" stop-color="#8b2124"/><stop offset=".308" stop-color="#a22226"/><stop offset=".422" stop-color="#b42226"/><stop offset=".553" stop-color="#c12227"/><stop offset=".714" stop-color="#c92127"/><stop offset="1" stop-color="#cb2027"/></linearGradient><path d="M123 40.1V53c0 1.2.3 2.1.8 2.7.5.6 1.2.9 2.1.9 1.1 0 1.9-.6 2.3-1.7.4-1.2.6-3.1.6-5.9v-2.1c0-3.2-.1-5.2-.4-6.2-.4-1.4-1.2-2.1-2.4-2.1-.5 0-1 .2-1.5.5-.6.2-1.1.5-1.5 1zm-8.9 21.7V22.6h8.9v13.2c.6-.6 1.5-1.2 2.6-1.6 1.1-.4 2.1-.7 3-.7 3 0 5.3 1.3 7 4 1.7 2.6 2.5 6 2.5 10.2 0 3.7-.8 6.9-2.3 9.6-1.8 3.3-4.5 4.9-7.9 4.9-1.7 0-3.1-.4-4.3-1.1-1.2-.7-2.3-1.8-3.2-3.2l-1.7 4h-4.6v-.1zm35.8-27.6v27.7H141V34.2h8.9zm-8.9-3.7v-7.9h8.9v7.9H141zm35.8-7.9v39.2h-8.4v-2.7c-1.4 1.2-2.5 2.1-3.4 2.4-.9.4-2.1.6-3.5.6-2.8 0-5-1.3-6.5-3.9-1.4-2.4-2.1-5.4-2.1-9.2 0-4.4.6-7.9 1.9-10.4 1.5-3 4-4.5 7.2-4.5 2.3 0 4.2.8 5.8 2.4v-14h9v.1zm-8.9 32.2V40.4c-.6-.8-1.5-1.3-2.8-1.3-1.2 0-2 .7-2.3 2.2-.4 1.4-.6 3.5-.6 6.3 0 2.9 0 4.7.1 5.5.3 2.6 1.1 3.9 2.4 3.9 1.4-.1 2.4-.8 3.2-2.2z" fill="url(#f)"/><linearGradient id="g" gradientUnits="userSpaceOnUse" x1="145.452" y1="44.349" x2="145.452" y2="64.044"><stop offset="0" stop-color="#4f121b"/><stop offset=".022" stop-color="#56151d"/><stop offset=".11" stop-color="#721c22"/><stop offset=".205" stop-color="#8b2124"/><stop offset=".308" stop-color="#a22226"/><stop offset=".422" stop-color="#b42226"/><stop offset=".553" stop-color="#c12227"/><stop offset=".714" stop-color="#c92127"/><stop offset="1" stop-color="#cb2027"/></linearGradient><path d="M114.1 46.5c2.8.5 5.8.9 8.9 1.3V53c0 1.2.3 2.1.8 2.7.5.6 1.2.9 2.1.9 1.1 0 1.9-.6 2.3-1.7.4-1.2.6-3.1.6-5.9v-.6c3 .2 6.1.4 9.2.5-.1 3.2-.9 6-2.2 8.5-1.8 3.3-4.5 4.9-7.9 4.9-1.7 0-3.1-.4-4.3-1.1-1.2-.7-2.3-1.8-3.2-3.2l-1.7 4h-4.6V46.5zm26.9 2.4h3.6c1.8 0 3.6 0 5.3-.1v13H141V48.9zm11.9-.1c3.2-.1 6.3-.3 9.3-.6 0 2.5 0 4.1.1 4.8.3 2.6 1.1 3.9 2.4 3.9 1.4 0 2.5-.7 3.3-2.1v-7.2c3.2-.4 6.2-.8 8.9-1.4v15.6h-8.4v-2.7c-1.4 1.2-2.5 2.1-3.4 2.4-.9.4-2.1.6-3.5.6-2.8 0-5-1.3-6.5-3.9-1.4-2.4-2.1-5.4-2.1-9.2l-.1-.2z" fill-rule="evenodd" clip-rule="evenodd" fill="url(#g)"/></svg>