<svg xmlns="http://www.w3.org/2000/svg" xmlns:xlink="http://www.w3.org/1999/xlink" viewBox="0 0 120.109 32.684"><defs><linearGradient id="c" x1="1.024" y1=".729" x2="-.129" y2="-.202" gradientUnits="objectBoundingBox"><stop offset="0" stop-color="#1e3464"/><stop offset=".6" stop-color="#29abe2"/><stop offset="1" stop-color="#c6e8f9"/></linearGradient><linearGradient id="d" x1=".74" y1=".782" x2=".32" y2=".061" gradientUnits="objectBoundingBox"><stop offset="0" stop-color="#a6a8ac"/><stop offset=".8" stop-color="#fff"/><stop offset="1" stop-color="#fff"/></linearGradient><linearGradient id="e" x1=".764" y1=".879" x2=".334" y2="-.445" gradientUnits="objectBoundingBox"><stop offset="0" stop-color="#a6a8ac"/><stop offset=".7" stop-color="#fff"/><stop offset="1" stop-color="#fff"/></linearGradient><linearGradient id="a" x1=".5" y1=".999" x2=".5" y2=".003" gradientUnits="objectBoundingBox"><stop offset="0" stop-color="#4f121b"/><stop offset=".022" stop-color="#56151d"/><stop offset=".11" stop-color="#721c22"/><stop offset=".205" stop-color="#8b2124"/><stop offset=".308" stop-color="#a22226"/><stop offset=".422" stop-color="#b42226"/><stop offset=".553" stop-color="#c12227"/><stop offset=".714" stop-color="#c92127"/><stop offset="1" stop-color="#cb2027"/></linearGradient><linearGradient id="f" x1=".499" y1="-.115" x2=".499" y2="1.108" xlink:href="#a"/><radialGradient id="b" cx="104.923" cy="15.684" r="23.002" gradientTransform="matrix(1.01 0 0 1.01 -.074 -.155)" gradientUnits="userSpaceOnUse"><stop offset="0" stop-color="#8ed7f7"/><stop offset=".53" stop-color="#29abe2"/><stop offset=".89" stop-color="#1e3464"/><stop offset="1" stop-color="#1e3464"/></radialGradient></defs><g data-name="Group 3557"><path data-name="Path 91" d="M113.65 32.681C100.781 28.63 97.24 18.28 97.479 10.075c.2-6.366 5-10.145 16.171-10.077 11.167-.068 15.967 3.711 16.171 10.077.238 8.171-3.303 18.555-16.171 22.606z" transform="translate(-64.285 .003)" fill="url(#b)" fill-rule="evenodd"/><path data-name="Path 92" d="M98.2 41.8c2.758 1.43 8.886 2.451 15.967 2.451s13.209-.987 15.967-2.451c-.987 7.251-5.209 15.082-16 18.452C103.375 56.882 99.119 49.051 98.2 41.8z" transform="translate(-64.768 -27.568)" fill="url(#c)" fill-rule="evenodd"/><path data-name="Path 93" d="M116.746 34.177a20.563 20.563 0 0011.643-8.886 22.071 22.071 0 002.928-11.984 7.857 7.857 0 00-.987-3.813c-2.451-4.222-9.294-4.732-13.584-4.7-4.29-.034-11.133.477-13.584 4.7a7.856 7.856 0 00-.987 3.813 22 22 0 002.925 11.985 20.822 20.822 0 0011.646 8.885z" transform="translate(-67.381 -3.162)" fill="url(#d)" fill-rule="evenodd"/><path data-name="Path 94" d="M117.1 59.969a20.564 20.564 0 0011.643-8.886c.068-.1.136-.238.2-.34.068-.1.1-.2.17-.306l.034-.034c.068-.1.1-.2.17-.306v-.034a3.16 3.16 0 00.17-.34v-.034l.068-.1v-.034l.034-.068.068-.136v-.068l.068-.136.068-.136.034-.068V48.9l.034-.1.034-.1v-.034l.034-.1.034-.1.034-.068v-.038c.034-.1.1-.2.136-.306l.034-.1a.492.492 0 00.068-.238l.034-.1.034-.1.034-.1a.492.492 0 00.068-.238l.034-.1a23.9 23.9 0 00.783-3.166 49.53 49.53 0 01-14.265 1.736A49.7 49.7 0 01102.7 43.9c.068.477.17.953.272 1.43.068.238.136.511.2.749v.034c.068.238.136.477.2.749.068.238.17.477.238.715v.034l.068.17.034.1v.034l.034.068.034.1v.034l.034.068v.034l.068.136.034.1v.045l.068.136.034.068.034.1v.034l.068.17v.034c.068.17.17.34.238.511l.068.17a4.362 4.362 0 00.374.681c.068.1.136.238.2.34.068.1.136.238.2.34a22.188 22.188 0 0011.9 8.885z" transform="translate(-67.736 -28.954)" fill="url(#e)" fill-rule="evenodd"/><g data-name="Group 34"><path data-name="Path 95" d="M4.8 15.184v-.613a1.41 1.41 0 00-.2-.783.631.631 0 00-.579-.306.721.721 0 00-.681.34 2.091 2.091 0 00-.272.851l-2.591-.544A2.836 2.836 0 011.8 12.188a4.31 4.31 0 012.349-.613 4.556 4.556 0 012.485.613A2.425 2.425 0 017.8 14.367v5.141a6.454 6.454 0 00.068 1.021 2.195 2.195 0 00.2.477H5c-.034-.1-.034-.238-.068-.409 0-.17-.034-.306-.034-.443a3.142 3.142 0 01-.987.783 2.541 2.541 0 01-1.26.272 2.515 2.515 0 01-1.936-.748A2.579 2.579 0 010 18.453a2.754 2.754 0 011.634-2.552 6.589 6.589 0 013.166-.717zm0 3.507v-2.077a2.572 2.572 0 00-1.328.374A1.573 1.573 0 003 18.282c0 .647.272.987.851.987a.824.824 0 00.443-.136 1.19 1.19 0 00.506-.442zm4.562-6.843h2.962v6.5q0 .817.715.817a.961.961 0 00.511-.136 1.519 1.519 0 00.443-.477v-6.704h2.962v9.226h-3v-1.226a3.162 3.162 0 01-2.655 1.464 1.824 1.824 0 01-1.43-.545 2.192 2.192 0 01-.511-1.532v-7.387zm9.26 2.077H17.4v-2.077h1.226v-3.3h2.962v3.3h1.634v2.077h-1.638v3.915a2.125 2.125 0 00.1.817c.136.2.409.306.851.306a2.359 2.359 0 00.681-.1v2.179a6.55 6.55 0 01-.987.17c-.374.034-.749.068-1.123.068a2.734 2.734 0 01-1.872-.545 2.287 2.287 0 01-.647-1.77v-5.04zm5.039 2.485a5.371 5.371 0 011.021-3.438 3.774 3.774 0 013.132-1.362 3.707 3.707 0 013.1 1.362 5.19 5.19 0 011.055 3.438 5.445 5.445 0 01-1.021 3.507 3.73 3.73 0 01-3.132 1.362 3.73 3.73 0 01-3.132-1.362 5.445 5.445 0 01-1.021-3.507zm3.064 0a7.511 7.511 0 00.238 2.349.839.839 0 001.634 0 7.511 7.511 0 00.238-2.349 8.348 8.348 0 00-.2-2.281.814.814 0 00-.851-.613.858.858 0 00-.851.647 9.908 9.908 0 00-.2 2.247zm43.849-4.97v1.294a3.223 3.223 0 012.792-1.5 2.376 2.376 0 011.362.409 1.312 1.312 0 01.579 1.089 3.223 3.223 0 012.792-1.5 2.283 2.283 0 011.566.511 1.863 1.863 0 01.579 1.532v7.8h-3.1v-6.81c0-.579-.238-.851-.749-.851a.961.961 0 00-.511.136 1.4 1.4 0 00-.477.511v7.047h-3.1v-6.807c0-.579-.238-.851-.749-.851a.82.82 0 00-.511.136 1.756 1.756 0 00-.477.511v7.047h-3.1v-9.7zm15.66 3.507v-.646a1.617 1.617 0 00-.2-.817.715.715 0 00-.613-.34.843.843 0 00-.715.374 1.832 1.832 0 00-.306.885l-2.69-.545a2.909 2.909 0 011.4-2.043 4.689 4.689 0 012.451-.647 4.633 4.633 0 012.587.647 2.513 2.513 0 011.192 2.281v5.379a3.866 3.866 0 00.1 1.055 1.627 1.627 0 00.2.477h-3.2c-.034-.1-.034-.238-.068-.409 0-.17-.034-.306-.034-.477a3.857 3.857 0 01-1.021.817 2.787 2.787 0 01-1.294.306 2.639 2.639 0 01-2.009-.783 3.126 3.126 0 01-.749-2.179 2.836 2.836 0 011.7-2.655 7.254 7.254 0 013.268-.681zm0 3.643v-2.18a3.166 3.166 0 00-1.4.374 1.545 1.545 0 00-.511 1.362c0 .681.306 1.021.885 1.021a.931.931 0 00.477-.136 1.475 1.475 0 00.545-.443zm9.056-.068c0-.409-.409-.783-1.192-1.089a14.878 14.878 0 01-2.281-.987 2.563 2.563 0 01-1.225-2.245 2.672 2.672 0 01.817-1.872 3.822 3.822 0 012.928-1.128 4.286 4.286 0 012.213.579 3.553 3.553 0 011.464 2.009l-2.179.579a3.721 3.721 0 00-.545-.817 1.216 1.216 0 00-.919-.409q-.919 0-.919.613c0 .409.409.749 1.192 1.089a23.293 23.293 0 012.281.987 2.493 2.493 0 011.226 2.179 2.939 2.939 0 01-1.055 2.417 4.284 4.284 0 01-2.792.885 4.337 4.337 0 01-2.621-.749 3.833 3.833 0 01-1.43-1.975l2.383-.749a4.48 4.48 0 00.647.987 1.386 1.386 0 001.021.409 1.117 1.117 0 00.715-.2.565.565 0 00.272-.511zm4.085-4.9v5.239a2.407 2.407 0 00.647 1.872 2.97 2.97 0 001.975.579c.375 0 .783-.034 1.158-.068a7.972 7.972 0 001.021-.17v-2.247a2.591 2.591 0 01-.715.1c-.477 0-.749-.1-.885-.34a2.217 2.217 0 01-.1-.851v-4.118h1.7v-2.179h-1.7V8.001h-3.1v3.438h-1.26v2.179zm13.55 3.3h-5.209a3.555 3.555 0 00.238 1.464 1.192 1.192 0 001.158.817 1.332 1.332 0 00.987-.374 1.958 1.958 0 00.579-.953l2.077.783a3.561 3.561 0 01-1.4 1.872 4.1 4.1 0 01-2.451.749 3.885 3.885 0 01-3.268-1.532 5.614 5.614 0 01-1.055-3.541 5.614 5.614 0 011.055-3.541 3.885 3.885 0 013.234-1.5 3.532 3.532 0 013.132 1.6 6.125 6.125 0 01.885 3.473v.681zm-5.175-1.838h2.315a2.637 2.637 0 00-.306-1.532 1.012 1.012 0 00-.885-.409.956.956 0 00-.885.579 4.22 4.22 0 00-.238 1.362zm9.4-3.643v1.46a2.159 2.159 0 011.123-1.26 4.265 4.265 0 011.838-.409v3.132a4.42 4.42 0 00-.647-.2 3.053 3.053 0 00-.613-.068 2.9 2.9 0 00-1.089.17 1.7 1.7 0 00-.647.579v6.23h-3.064v-9.636z" fill="#fff"/><path data-name="Path 96" d="M117.13 28.492v4.392a1.409 1.409 0 00.272.919.879.879 0 00.715.306.8.8 0 00.783-.579 6.893 6.893 0 00.2-2.009v-.715a9.278 9.278 0 00-.136-2.111.828.828 0 00-.817-.715 1.013 1.013 0 00-.511.17 1.046 1.046 0 00-.511.34zm-3.03 7.388V22.534h3.03v4.494a2.459 2.459 0 01.885-.545 3.137 3.137 0 011.021-.238 2.658 2.658 0 012.383 1.362 6.249 6.249 0 01.851 3.473 6.631 6.631 0 01-.783 3.268 2.919 2.919 0 01-2.69 1.668 2.831 2.831 0 01-1.464-.374 3.325 3.325 0 01-1.089-1.089l-.579 1.362H114.1zm12.188-9.4v9.43h-3.03v-9.43zm-3.03-1.26v-2.69h3.03v2.69zm12.188-2.69v13.349h-2.86v-.919a4.306 4.306 0 01-1.158.817 3 3 0 01-1.192.2 2.434 2.434 0 01-2.213-1.328 6.094 6.094 0 01-.715-3.132 7.829 7.829 0 01.647-3.541 2.594 2.594 0 012.451-1.532 2.672 2.672 0 011.975.817V22.5h3.064zm-3.03 10.97v-4.9a1.12 1.12 0 00-.953-.443c-.409 0-.681.238-.783.749a8.375 8.375 0 00-.2 2.145c0 .987 0 1.6.034 1.872q.153 1.328.817 1.328a1.3 1.3 0 001.085-.751z" transform="translate(-75.255 -14.839)" fill="url(#a)"/></g><path data-name="Path 97" d="M114.1 46.3c.953.17 1.975.306 3.03.443v1.77a1.409 1.409 0 00.272.919.879.879 0 00.715.306.8.8 0 00.783-.579 6.893 6.893 0 00.2-2.009v-.2c1.021.068 2.077.136 3.132.17a6.622 6.622 0 01-.749 2.894 2.919 2.919 0 01-2.69 1.668 2.831 2.831 0 01-1.464-.374 3.325 3.325 0 01-1.089-1.089l-.579 1.362H114.1V46.3zm9.158.817h1.226c.613 0 1.226 0 1.8-.034v4.426h-3.03v-4.39zm4.051-.034q1.634-.051 3.166-.2c0 .851 0 1.4.034 1.634q.153 1.328.817 1.328a1.249 1.249 0 001.123-.715v-2.453c1.089-.136 2.111-.272 3.03-.477v5.311h-2.86v-.919a4.305 4.305 0 01-1.158.817 3 3 0 01-1.192.2 2.434 2.434 0 01-2.213-1.328 6.094 6.094 0 01-.715-3.132z" transform="translate(-75.255 -30.471)" fill="url(#f)" fill-rule="evenodd"/></g></svg>