<svg width="50" height="69" fill="none" xmlns="http://www.w3.org/2000/svg"><path opacity=".2" d="M50 1H16.25L33 5.5l6.5 12-3 9-8 6.5 11 11v14l-8 8-10 1.5-11-2.5L21 69l29-1V1z" fill="url(#paint0_linear_162_1652)"/><path d="M14.936 33.034h5.54c5.177-.09 9.355-1.468 12.533-4.132 3.21-2.664 4.814-6.055 4.814-10.172 0-4.692-1.438-8.416-4.314-11.17-2.846-2.756-6.812-4.133-11.898-4.133-4.965 0-9.051 1.453-12.26 4.36-3.21 2.905-4.814 6.72-4.814 11.443H2.085c0-3.512.848-6.66 2.543-9.446C6.323 7 8.669 4.834 11.666 3.291 14.665 1.747 17.98.975 21.611.975c5.722 0 10.263 1.62 13.623 4.859 3.36 3.208 5.04 7.568 5.04 13.078 0 3.511-1.12 6.645-3.36 9.4-2.21 2.754-5.207 4.707-8.99 5.857 4.328 1 7.704 2.876 10.126 5.631 2.452 2.755 3.678 6.312 3.678 10.672 0 5.63-1.801 10.111-5.404 13.441-3.602 3.33-8.37 4.995-14.304 4.995-3.996 0-7.69-.863-11.08-2.588-3.39-1.726-5.949-4.011-7.674-6.857C1.54 56.617.677 53.333.677 49.609H3.13c0 4.844 1.787 8.87 5.359 12.079 3.572 3.179 8.083 4.768 13.532 4.768 5.419 0 9.642-1.392 12.67-4.178 3.057-2.815 4.586-6.69 4.586-11.625 0-4.874-1.635-8.597-4.904-11.17-3.24-2.574-7.993-3.876-14.26-3.906h-5.176v-2.543z" fill="#2158F5"/><defs><linearGradient id="paint0_linear_162_1652" x1="9.598" y1="29.694" x2="67" y2="29.643" gradientUnits="userSpaceOnUse"><stop offset=".453" stop-color="#2158F5"/><stop offset=".72" stop-color="#2158F5" stop-opacity="0"/></linearGradient></defs></svg>