<svg width="47" height="68" fill="none" xmlns="http://www.w3.org/2000/svg"><path opacity=".2" d="M46.5 1h-27L33 5.5l4 15L30.5 34 8 61.951 4 66.5 15.207 68H46.5V1z" fill="url(#paint0_linear_162_1651)"/><path d="M41.5 68H1.948v-2.452l22.569-26.02c3.693-4.33 6.433-8.174 8.219-11.534 1.816-3.36 2.724-6.449 2.724-9.264 0-4.844-1.407-8.598-4.223-11.262-2.815-2.694-6.78-4.041-11.897-4.041-3.088 0-5.903.741-8.446 2.225-2.543 1.483-4.541 3.542-5.995 6.176-1.422 2.603-2.134 5.51-2.134 8.718H.313c0-3.542.817-6.826 2.452-9.854C4.4 7.665 6.67 5.29 9.577 3.563 12.483 1.837 15.737.975 19.34.975c5.873 0 10.444 1.559 13.714 4.677 3.27 3.118 4.904 7.477 4.904 13.078 0 5.146-2.891 11.307-8.673 18.482l-4.133 5.04-19.98 23.296H41.5V68z" fill="#2158F5"/><defs><linearGradient id="paint0_linear_162_1651" x1="8.392" y1="29.694" x2="46" y2="29.672" gradientUnits="userSpaceOnUse"><stop offset=".453" stop-color="#2158F5"/><stop offset="1" stop-color="#2158F5" stop-opacity="0"/></linearGradient></defs></svg>