<svg width="74" height="27" fill="none" xmlns="http://www.w3.org/2000/svg"><g clip-path="url(#clip0_1216_24419)"><path d="M12.85 27S-1.511 22.056.13 1.843C.13 1.843 6.452 0 12.85 0c6.4 0 12.581 1.785 12.764 1.843C27.274 22.038 12.85 27 12.85 27z" fill="#D6D6D6"/><path d="M12.85 27S-1.511 22.056.13 1.843C.13 1.843 6.452 0 12.85 0c6.4 0 12.581 1.785 12.764 1.843L24.3 3.036 12.85 25.72V27z" fill="#D6D6D6"/><path d="M1.285 2.768l-.122.036-.01.127C.378 12.45 3.578 18.185 6.398 21.323c3.06 3.402 6.36 4.563 6.392 4.578l.061.018.061-.018c.032-.011 3.346-1.18 6.417-4.582 2.831-3.138 6.045-8.873 5.261-18.384l-.01-.124-.118-.04c-.05-.018-5.738-1.676-11.61-1.676C7.1 1.092 1.341 2.75 1.284 2.768zm11.728-1.411c5.372 0 10.462 1.422 11.27 1.65.072.932.112 2.02.112 2.88 0 7.702-2.839 12.599-5.326 15.356-2.792 3.102-5.777 4.306-6.217 4.473-.44-.167-3.493-1.368-6.274-4.466-2.477-2.76-5.254-7.578-5.254-15.297 0-.853.118-1.937.19-2.862.834-.229 6.245-1.734 11.5-1.734z" fill="#D6D6D6"/><path d="M12.858 23.449S1.956 19.4 3.205 4.059c0 0 4.796.392 9.653.392s9.552-.377 9.685-.392c1.263 15.33-9.685 19.39-9.685 19.39z" fill="#707070"/><path d="M12.859 22.128s-9.417-3.493-8.34-16.745c0 0 4.145.338 8.34.338 4.194 0 8.25-.327 8.364-.338 1.091 13.237-8.364 16.745-8.364 16.745z" fill="#D6D6D6"/><path d="M22.54 4.063c-.135.01-4.828.392-9.684.392-4.857 0-9.653-.392-9.653-.392l1.317 1.32s4.145.338 8.34.338c4.194 0 8.249-.327 8.364-.338l1.317-1.32z" fill="#707070"/><path d="M12.858 23.449S1.956 19.4 3.205 4.059l1.317 1.32c-1.077 13.252 8.34 16.75 8.34 16.75l-.004 1.32z" fill="#707070"/><path d="M7.023 16.821L8.58 6.548h2.588l3.167 10.273H11.62l-1.374-5.329-.78 5.33H7.022zM14.74 6.548h2.55l1.513 10.273h-2.466l-.873-5.329-.888 4.176-1.346-4.176 1.51-4.944zm20.315 4.962l-2.015-.003-1.922-4.952h-.021l-.702 4.952h-2.168l1.42-9.218h2.148l3.26 9.221zm-1.403-4.726l1.643-4.499h2.169l1.267 9.218h-2.18l-.612-4.952h-.021l-1.26 2.968-1.006-2.735zm13.366 3.123l-.55 1.603h-2.199l3.064-9.217h2.262l3 9.217h-2.209l-.519-1.603h-2.849zm1.446-4.77h-.021l-.856 2.934h1.722l-.845-2.934zm15.172 3.605h-4.259c0 .904.433 1.393 1.267 1.393.433 0 .745-.16.967-.573h1.943a2.563 2.563 0 01-1.077 1.625c-.523.356-1.167.526-1.826.526-1.89 0-3.3-1.175-3.3-3.337 0-2.09 1.3-3.348 3.157-3.348 1.98 0 3.125 1.346 3.125 3.486v.228h.003zm-1.879-1.284c-.1-.598-.6-.99-1.145-.99-.59 0-1.077.341-1.199.99h2.344zm8.86 1.284h-4.26c0 .904.434 1.393 1.268 1.393.433 0 .744-.16.966-.573h1.944a2.563 2.563 0 01-1.078 1.625c-.522.356-1.167.526-1.825.526-1.89 0-3.3-1.175-3.3-3.337 0-2.09 1.3-3.348 3.157-3.348 1.979 0 3.124 1.346 3.124 3.486v.228h.004zm-1.88-1.284c-.1-.598-.6-.99-1.144-.99-.591 0-1.078.341-1.2.99h2.345zm2.157-3.45a1.553 1.553 0 113.107 0 1.553 1.553 0 11-3.107 0zm.251 0c0 .74.59 1.314 1.303 1.314.709 0 1.299-.577 1.299-1.314a1.3 1.3 0 10-2.602 0zm2.011.893h-.286l-.447-.816H72.1V4.9h-.25V3.138h.733c.315 0 .597.094.597.468 0 .348-.232.475-.465.482l.44.813zm-1.055-1.51v.44h.268c.236 0 .558.04.558-.2 0-.225-.186-.24-.393-.24H72.1zM53.377 6.75h-1.178V5.243h1.214V4.52c0-1.857.812-2.507 2.412-2.507.433 0 .766.073 1.023.12l-.121 1.487a1.757 1.757 0 00-.634-.094c-.512 0-.712.384-.712.994v.722h1.42V6.75h-1.42v4.734h-2V6.75h-.004zM32.785 15.9c-.645-.247-.999-.36-1.654-.36-.709 0-1.542.248-1.542 1.154 0 1.666 3.79 1.281 3.79 4.136 0 1.85-1.453 2.583-3.221 2.583-.62 0-1.224-.174-1.808-.36l.125-1.153c.43.174 1.189.42 1.833.42.72 0 1.732-.398 1.732-1.414 0-1.937-3.79-1.404-3.79-4.1 0-1.54 1.238-2.357 2.831-2.357.583 0 1.278.098 1.883.312l-.18 1.139zm2.375-1.306h4.94v1.092h-3.676v2.532h3.346v1.092h-3.346v2.855h3.675v1.091H35.16v-8.662zm12.546 1.429a3.586 3.586 0 00-1.818-.486c-2.032 0-3.385 1.44-3.385 3.388 0 2.035 1.492 3.388 3.325 3.388.63 0 1.478-.163 1.921-.42l.076 1.204c-.67.272-1.493.312-2.012.312-2.791 0-4.649-1.763-4.649-4.52 0-2.67 1.972-4.444 4.663-4.444.68 0 1.353.098 1.983.374l-.104 1.204zm7.984 3.649c0 2.434-1.253 3.737-3.425 3.737-2.172 0-3.425-1.303-3.425-3.737v-5.078h1.267v4.915c0 1.665.53 2.808 2.162 2.808s2.161-1.143 2.161-2.808v-4.915h1.264v5.078h-.004zm2.01-5.078h2.161c1.743 0 3.425.272 3.425 2.347 0 1.055-.794 1.8-1.818 1.973v.026c.39.148.58.333.859.87l1.668 3.45h-1.439l-1.353-3.004c-.39-.845-.809-.845-1.478-.845h-.759v3.849h-1.263v-8.666h-.004zm1.263 3.725h1.073c1.2 0 1.908-.522 1.908-1.353 0-.783-.605-1.28-1.768-1.28h-1.213v2.633zm6.451-3.725h4.94v1.092h-3.677v2.532h3.347v1.092h-3.347v2.855h3.676v1.091h-4.939v-8.662zm-21.651-7.39a2.085 2.085 0 00-1.214-.348c-.866 0-1.535.646-1.535 1.727 0 .994.777 1.643 1.646 1.643.459 0 .913-.109 1.246-.301l.043 1.607a5.096 5.096 0 01-1.636.276c-1.911 0-3.368-1.197-3.368-3.262 0-2.074 1.457-3.272 3.368-3.272.601 0 1.135.11 1.59.349l-.14 1.581z" fill="#707070"/></g><defs><clipPath id="clip0_1216_24419"><path fill="#fff" d="M0 0h74v27H0z"/></clipPath></defs></svg>