<svg width="81" height="37" fill="none" xmlns="http://www.w3.org/2000/svg"><path opacity=".5" fill-rule="evenodd" clip-rule="evenodd" d="M12.05 26.567s.554-.125 1.399-.43c2.656-.96 8.194-3.694 8.482-9.896.29-6.235-5.61-9.028-8.427-10.003a14.418 14.418 0 00-1.453-.43h48.155c5.786 0 10.477 4.647 10.477 10.38 0 5.732-4.69 10.379-10.477 10.379H12.05zm2.569-.43h45.587c5.546 0 10.043-4.455 10.043-9.95 0-5.494-4.496-9.949-10.043-9.949H14.718c.807.334 1.73.78 2.649 1.358 2.584 1.629 5.198 4.36 4.998 8.665-.198 4.276-2.79 6.966-5.28 8.57a17.04 17.04 0 01-2.466 1.306z" fill="#CBCBCB"/><path d="M52.715 15.525a1.648 1.648 0 01-1.639-1.65c0-.918.737-1.65 1.639-1.65s1.638.741 1.638 1.65c.01.909-.727 1.65-1.638 1.65zm0-4.877c-1.767 0-3.203 1.447-3.203 3.227 0 1.78 1.436 3.227 3.203 3.227s3.203-1.447 3.203-3.227a3.211 3.211 0 00-3.203-3.227zM37.95 15.525a1.648 1.648 0 01-1.64-1.65c0-.918.737-1.65 1.64-1.65.901 0 1.638.741 1.638 1.65 0 .909-.737 1.65-1.639 1.65zm0-4.877c-1.768 0-3.204 1.447-3.204 3.227 0 1.78 1.436 3.227 3.203 3.227s3.203-1.447 3.203-3.227c-.009-1.79-1.436-3.227-3.203-3.227zm11.343 4.97c-.202.056-.514.12-.624.12-.55 0-.66-.194-.66-.713v-2.986h1.302v-1.242h-1.303V9.035H46.54l-.312 1.762h-1.101c-.835 0-1.468.519-1.872 1.326l-.505-1.326h-1.055v6.184h1.799v-2.689c0-1.354.798-2.225 1.734-2.253h.982v3.079c0 1.446.734 1.984 1.927 1.984.614 0 1.092-.13 1.376-.223l-.22-1.26zm8.905-2.852v4.12h-1.737v-6.023h1.055l.355.92m0-.057c.541-.612 1.278-1.078 2.145-1.078 1.483 0 2.09 1.16 2.09 2.229v4.01h-1.828v-3.955c0-.521-.448-.804-.924-.804-.513 0-.84.292-1.129.594M27.578 8.605h2.038l2.792 5.202V8.605h1.685v8.282H32.25l-2.987-5.731v5.73h-1.685v-8.28z" fill="#707070"/><path d="M62.648 9.96v.14h.196v.677h.163V10.1h.206v-.14h-.565zm1.186 0l-.14.538-.153-.538h-.217v.817h.141v-.645l.174.645h.109l.173-.645v.645h.13V9.96h-.217z" fill="#000"/><path d="M12.912 8.519a7.725 7.725 0 00-5.473 2.248 7.58 7.58 0 00-2.27 5.42 7.58 7.58 0 002.27 5.421 7.725 7.725 0 005.473 2.248 7.725 7.725 0 005.472-2.248 7.67 7.67 0 002.27-5.42 7.58 7.58 0 00-2.27-5.421 7.77 7.77 0 00-5.472-2.248zm0 18.876c-6.233 0-11.314-5.034-11.314-11.207 0-6.185 5.081-11.208 11.314-11.208 6.232 0 11.314 5.023 11.314 11.207 0 6.174-5.082 11.208-11.314 11.208z" fill="#D6D6D6"/><path d="M26.114 3.248h-.88v.872h.88v-.872z" fill="#707070"/><path d="M26.114 1.506h-.88v.871h.88v-.871z" fill="#A1A1A1"/><path d="M23.583 4.12h-.825v.85h.825v-.85z" fill="#fff"/><path d="M21.953 5.797h-.836v.818h.836v-.818zm2.544-.827h-.923v.817h.923v-.818zm-3.379.042h-.825v.785h.825v-.785zm2.465.785h-.825v.818h.825v-.818zm1.649-3.409h-.869v.87h.869v-.87z" fill="#707070"/><path d="M24.365 3.248h-1.607v.872h1.607v-.872zm-1.608.872h-.804v1.677h.804V4.12zm-.804 2.495v.817h-.836v-.817h-1.38v.591H19v.732h.825v.817H19v-.817h-.88v1.28h-.825v.817h-.554v.817h-.608c-.684 1-2.378 4.12-2.9 5.39-1.856-2.56-3.3-3.572-4.43-3.937-.607-.183-1.345.473-.336 1.516 2.335 2.55 3.073 4.647 3.779 6.335.38.882 2.063 1.022 2.4.119.716-1.904 1.758-4.055 2.996-5.808v-.915h.663v-.817H19v-.957h.825v-.915h-.836v-.839h.836v.84h.814v-.829h.652v-1h.738v-.689h.706V6.615h-.782z" fill="#707070"/><path d="M30.523 22.385a.565.565 0 00-.221-.479c-.146-.112-.41-.225-.794-.34-.383-.114-.688-.241-.914-.381-.434-.27-.65-.622-.65-1.055 0-.38.155-.692.467-.938.313-.246.72-.37 1.218-.37.33 0 .626.061.885.182.259.12.462.293.61.518.148.222.222.469.222.74h-.823c0-.245-.078-.437-.235-.575-.154-.14-.376-.21-.666-.21-.27 0-.48.056-.63.17a.57.57 0 00-.222.48c0 .172.08.317.242.433.16.114.426.227.796.337a3.6 3.6 0 01.892.372c.224.138.389.297.493.479.104.179.157.389.157.63 0 .393-.153.706-.458.939-.302.23-.713.346-1.234.346a2.37 2.37 0 01-.95-.188 1.616 1.616 0 01-.673-.524 1.3 1.3 0 01-.238-.776h.826c0 .267.09.474.268.62.178.147.434.22.767.22.288 0 .503-.056.647-.17a.56.56 0 00.218-.46zm5.334-.89h-1.953v1.45h2.282v.653h-3.108v-4.71h3.086v.66h-2.26v1.3h1.953v.647zm5.633.57c-.048.502-.235.895-.561 1.177-.327.28-.761.42-1.303.42-.38 0-.713-.088-1.003-.264a1.772 1.772 0 01-.666-.76 2.716 2.716 0 01-.245-1.143v-.44c0-.444.08-.836.238-1.174.16-.339.387-.6.683-.783a1.93 1.93 0 011.032-.275c.525 0 .947.141 1.267.424.32.282.506.681.558 1.197h-.823c-.039-.339-.139-.583-.3-.732-.159-.15-.393-.226-.702-.226-.36 0-.636.13-.83.392-.191.258-.29.639-.293 1.142v.417c0 .509.091.897.274 1.165.185.267.455.4.81.4.324 0 .568-.071.731-.216.163-.144.267-.385.31-.721h.823zm5.222-3.178v3.148c0 .5-.162.898-.486 1.191-.322.291-.752.437-1.29.437-.544 0-.976-.144-1.296-.43-.32-.29-.48-.69-.48-1.2v-3.146h.823v3.152c0 .315.08.555.241.721.161.166.399.25.712.25.636 0 .954-.333.954-.997v-3.126h.822zm3.636 2.896h-.921v1.815H48.6v-4.71h1.672c.548 0 .971.121 1.27.365.298.244.447.596.447 1.058 0 .315-.077.58-.232.793a1.457 1.457 0 01-.64.488l1.068 1.964v.042H51.3l-.953-1.815zm-.921-.657h.849c.278 0 .496-.069.653-.207.157-.14.235-.33.235-.572 0-.253-.073-.448-.219-.586-.144-.138-.359-.21-.646-.213h-.872v1.578zm7.129.369h-1.953v1.45h2.283v.653h-3.109v-4.71h3.086v.66h-2.26v1.3h1.953v.647zm2.006 2.103v-4.71h1.404c.42 0 .792.092 1.117.278.326.185.579.448.757.79.179.34.268.73.268 1.17v.236c0 .447-.09.84-.271 1.178a1.87 1.87 0 01-.768.783c-.33.183-.71.275-1.14.275h-1.367zm.826-4.05v3.397h.538c.434 0 .766-.134.996-.402.233-.27.352-.655.356-1.158v-.262c0-.511-.112-.902-.336-1.171-.224-.27-.55-.405-.976-.405h-.578z" fill="#A0A0A0"/><path d="M14.46 33.393c-.425 0-.736-.158-.93-.474h-.018l.007.212c.007.124.01.26.01.409v1.043h-.252v-3.98h.214l.049.39h.015c.19-.295.493-.443.91-.443.374 0 .658.122.853.365.197.242.296.595.296 1.06 0 .45-.104.799-.311 1.048-.205.247-.486.37-.842.37zm-.004-.221c.283 0 .502-.105.656-.313.156-.209.234-.5.234-.875 0-.805-.293-1.207-.88-1.207-.323 0-.56.088-.71.264-.151.175-.227.46-.227.857v.081c0 .429.072.735.217.918.146.183.382.275.71.275zm4.214-1.203c0 .447-.11.797-.329 1.049-.218.25-.52.375-.905.375-.243 0-.457-.058-.642-.174a1.116 1.116 0 01-.425-.499 1.801 1.801 0 01-.147-.751c0-.447.11-.795.328-1.044.219-.25.52-.375.9-.375s.679.127.894.38c.217.253.326.599.326 1.039zm-2.184 0c0 .377.084.67.25.882.168.21.404.316.71.316.305 0 .541-.106.707-.316.168-.211.252-.505.252-.882 0-.378-.085-.671-.254-.88-.168-.208-.405-.312-.71-.312-.306 0-.541.104-.708.312-.164.207-.247.5-.247.88zm5.161 1.374l-.605-1.833a11.04 11.04 0 01-.15-.547h-.016l-.053.187-.115.365-.616 1.828h-.249l-.791-2.74h.27l.442 1.588c.104.393.171.682.204.867h.015c.1-.393.173-.654.219-.784l.57-1.671H21l.542 1.666c.122.395.197.656.224.784h.015c.014-.11.082-.402.204-.877l.422-1.573h.255l-.751 2.74h-.265zm2.677.05c-.402 0-.716-.122-.941-.368-.224-.245-.336-.589-.336-1.03 0-.438.108-.787.326-1.05.217-.263.51-.395.878-.395.325 0 .582.112.77.338.189.225.283.53.283.917v.202h-1.992c.003.376.091.664.264.862.175.198.424.297.748.297.158 0 .296-.01.415-.032.12-.022.273-.07.456-.142v.227a1.98 1.98 0 01-.433.136 2.345 2.345 0 01-.438.038zm-.073-2.621a.83.83 0 00-.642.262c-.16.173-.255.423-.282.751h1.71c0-.318-.07-.566-.209-.744a.69.69 0 00-.577-.27zm2.906-.222c.117 0 .242.011.376.035l-.048.24a1.491 1.491 0 00-.359-.043.699.699 0 00-.58.297c-.15.198-.226.449-.226.751v1.513h-.252v-2.74h.213l.026.494h.018c.113-.202.235-.343.364-.424a.851.851 0 01.468-.123zm2.059 2.843c-.402 0-.716-.122-.942-.368-.224-.245-.336-.589-.336-1.03 0-.438.109-.787.326-1.05.217-.263.51-.395.878-.395.326 0 .582.112.77.338.19.225.283.53.283.917v.202h-1.992c.003.376.091.664.264.862.175.198.425.297.749.297.157 0 .296-.01.414-.032.12-.022.273-.07.456-.142v.227c-.156.068-.3.113-.433.136a2.346 2.346 0 01-.437.038zm-.074-2.621c-.267 0-.48.087-.642.262-.16.173-.255.423-.282.751h1.71c0-.318-.07-.566-.209-.744a.69.69 0 00-.577-.27zm2.83-.222c.2 0 .373.036.519.108.146.072.276.196.392.37h.015a12.94 12.94 0 01-.015-.622v-.986h.249v3.923h-.165l-.064-.419h-.02c-.21.313-.513.47-.906.47-.382 0-.674-.118-.876-.354-.202-.235-.303-.578-.303-1.028 0-.474.1-.836.3-1.087.2-.25.492-.375.874-.375zm0 .227c-.302 0-.53.105-.682.315-.151.21-.227.515-.227.915 0 .776.305 1.165.914 1.165.312 0 .54-.09.687-.27.146-.18.219-.477.219-.89v-.043c0-.424-.072-.728-.217-.913-.142-.186-.374-.28-.694-.28zm4.613-.227c.387 0 .678.12.873.363.197.24.295.592.295 1.056 0 .456-.103.807-.31 1.054-.205.247-.495.37-.868.37a1.16 1.16 0 01-.532-.12.927.927 0 01-.374-.344h-.023l-.07.414h-.159V29.42h.252v.986c0 .148-.003.284-.01.409l-.008.214h.018a1.01 1.01 0 01.38-.363c.149-.078.328-.116.536-.116zm-.005.227c-.325 0-.559.092-.7.277-.14.185-.21.49-.21.915v.043c0 .413.072.71.218.89.148.18.377.27.687.27.302 0 .53-.105.682-.313.153-.21.23-.509.23-.895 0-.792-.303-1.187-.907-1.187zm1.479-.174h.26l.585 1.538c.178.472.29.79.338.955h.015c.072-.217.188-.54.35-.97l.584-1.523h.26l-1.24 3.184c-.1.258-.183.433-.251.524a.668.668 0 01-.24.204.722.722 0 01-.328.068c-.097 0-.204-.017-.323-.053v-.217c.098.027.204.04.318.04.087 0 .163-.02.23-.06a.554.554 0 00.177-.189c.055-.084.117-.218.186-.403l.138-.358-1.06-2.74zm6.357 1.759c0 .325-.119.578-.356.76-.238.18-.56.271-.968.271-.44 0-.78-.056-1.017-.169v-.413c.152.064.319.114.498.151.18.037.358.056.535.056.288 0 .505-.054.651-.162a.535.535 0 00.22-.453.563.563 0 00-.08-.313.7.7 0 00-.26-.227 3.583 3.583 0 00-.552-.234c-.346-.123-.593-.268-.743-.436-.147-.169-.221-.388-.221-.658 0-.284.108-.51.323-.678.216-.168.5-.253.855-.253.37 0 .71.068 1.02.202l-.134.373a2.326 2.326 0 00-.896-.191c-.23 0-.408.048-.537.146a.48.48 0 00-.193.406c0 .127.023.232.07.315.048.08.128.155.24.224.114.067.287.142.52.224.39.138.657.286.803.444.148.158.222.363.222.615zm.254-1.782h.453l.611 1.576c.134.36.217.619.25.779h.02c.022-.086.068-.232.137-.44.071-.207.302-.846.692-1.915h.453l-1.198 3.146c-.119.311-.258.531-.418.66a.881.881 0 01-.582.197c-.13 0-.257-.014-.382-.043v-.335c.093.02.197.03.313.03.29 0 .497-.161.62-.484l.156-.393-1.125-2.778zm6.624 2.763v-1.798c0-.22-.047-.384-.142-.494-.095-.11-.243-.166-.443-.166-.263 0-.457.075-.583.224-.125.15-.188.38-.188.691v1.543h-.422v-1.798c0-.22-.048-.384-.143-.494-.095-.11-.243-.166-.445-.166-.265 0-.46.079-.583.237-.122.156-.183.413-.183.771v1.45h-.423V30.58h.344l.069.378h.02a.83.83 0 01.336-.315c.146-.076.309-.113.488-.113.436 0 .721.156.855.468h.02a.886.886 0 01.362-.342 1.13 1.13 0 01.54-.126c.315 0 .551.08.707.242.158.16.237.416.237.769v1.802h-.423zm3.011 0l-.084-.393h-.02a1.18 1.18 0 01-.418.353c-.137.06-.31.09-.516.09-.277 0-.494-.07-.652-.211-.156-.142-.234-.342-.234-.603 0-.558.45-.85 1.351-.877l.474-.015v-.172c0-.216-.048-.376-.143-.479-.093-.104-.243-.156-.45-.156-.233 0-.496.07-.79.212l-.129-.32a2.004 2.004 0 01.944-.237c.333 0 .579.073.738.219.161.146.242.38.242.703v1.886h-.313zm-.954-.295c.263 0 .469-.071.618-.214.151-.143.227-.343.227-.6v-.25l-.423.018c-.336.012-.578.064-.728.156-.147.09-.221.233-.221.426 0 .151.046.266.137.345.094.08.223.119.39.119zm4.049.295v-1.787c0-.226-.052-.394-.156-.505-.103-.11-.265-.166-.486-.166-.292 0-.505.078-.641.234-.136.157-.204.415-.204.774v1.45h-.422V30.58h.343l.07.378h.02a.852.852 0 01.363-.315c.157-.076.33-.113.522-.113.336 0 .589.08.758.242.17.16.255.416.255.769v1.802H57.4zm2.193-.295a1.517 1.517 0 00.382-.05v.32a.754.754 0 01-.204.053 1.43 1.43 0 01-.239.022c-.54 0-.81-.281-.81-.844v-1.644h-.399v-.202l.4-.173.178-.59h.244v.64h.81v.325h-.81v1.626c0 .167.04.294.12.383.08.09.189.134.328.134zm2.12.345c-.412 0-.738-.124-.977-.373-.238-.248-.356-.594-.356-1.036 0-.445.11-.799.33-1.061.222-.262.52-.393.893-.393.35 0 .627.114.83.342.204.227.306.527.306.9v.265h-1.922c.009.325.09.57.247.739.158.168.38.252.664.252.3 0 .597-.062.89-.187v.373a2.18 2.18 0 01-.424.136 2.314 2.314 0 01-.481.043zm-.115-2.513a.697.697 0 00-.536.217c-.133.144-.21.344-.235.6h1.459c0-.264-.06-.466-.179-.605-.118-.141-.288-.212-.509-.212zm2.978 2.513c-.404 0-.717-.122-.94-.368-.22-.247-.33-.596-.33-1.046 0-.462.112-.82.336-1.071.226-.252.546-.378.962-.378a1.895 1.895 0 01.718.143l-.13.356a1.915 1.915 0 00-.306-.091 1.332 1.332 0 00-.292-.038c-.567 0-.85.358-.85 1.074 0 .34.068.6.206.782.139.181.344.272.616.272.232 0 .47-.05.715-.149v.37c-.187.096-.422.144-.705.144z" fill="#707070"/></svg>