<svg width="14" height="15" fill="none" xmlns="http://www.w3.org/2000/svg"><path d="M10 7a3.667 3.667 0 110 7.333A3.667 3.667 0 0110 7zM7 0a2.333 2.333 0 012.333 2.333h3.334a.667.667 0 110 1.334h-.563l-.302 3.058a4.333 4.333 0 00-4.93 6.942h-2.33a1.833 1.833 0 01-1.825-1.654l-.82-8.346h-.564a.667.667 0 010-1.334h3.334A2.333 2.333 0 017 0zm1.144 8.726l-.046.038-.039.046a.334.334 0 000 .38l.039.046 1.43 1.43-1.43 1.432-.039.046a.334.334 0 000 .379l.039.046.046.039a.334.334 0 00.379 0l.046-.039L10 11.138l1.43 1.431.047.039a.334.334 0 00.38 0l.045-.039.039-.046a.334.334 0 000-.38l-.039-.045-1.43-1.431 1.43-1.431.039-.046a.334.334 0 000-.38l-.039-.046-.046-.038a.334.334 0 00-.379 0l-.046.038L10 10.195l-1.431-1.43-.046-.04a.334.334 0 00-.328-.028l-.051.029zM7 1.333a1 1 0 00-1 1h2a1 1 0 00-1-1z" fill="#870000"/></svg>