<svg width="43" height="46" fill="none" xmlns="http://www.w3.org/2000/svg"><path d="M39 11.5l-8.5-8-3 1-5 5.5-7 6.5-2 3.5 4.5 5 5.5 3 2.5-2.5 12-12 1-2z" fill="#fff"/><path d="M20.355 27.087l.19.19c1.219 1.214 3.302 1.1 4.288-.392.404-.613.815-1.174 1.091-1.45L35.99 15.403h0l.001-.001h0l.001-.001h0l.001-.001h.001v-.001h0l.001-.001h0l.001-.001h0l.001-.001h0l.001-.001h0l.001-.001h0l.001-.001h0l.001-.001h0l.001-.001h0l.001-.001h0l.001-.001h0l.001-.001h.001v-.001h.001v-.001h0l.001-.001h0l.001-.001h0l.001-.001h0l.001-.001h0l.001-.001h0l.001-.001h0l.001-.001h.001v-.001h.001v-.001h0l.001-.001h0l.001-.001h0l.001-.001h0l.001-.001h0l.001-.001h.001v-.001h.001v-.001h.001v-.001h0l.001-.001h0l.001-.001h0l.001-.001h.001v-.001h.001v-.001h.001v-.001h0l.001-.001h0l.001-.001h0l.001-.001h.001v-.001h.001v-.001h.001v-.001h0l.001-.001h0l.001-.001h.001v-.001h.001v-.001h.001v-.001h0l.001-.001h0l.001-.001h.001v-.001h.001v-.001h.001v-.001h0l.001-.001h.001v-.001h.001v-.001h.001v-.001h.001v-.001h0l.001-.001h.001v-.001h.001v-.001h.001v-.001h0l.001-.001h.001v-.001h.001v-.001h.001v-.001h0l.001-.001h.001v-.001h.001v-.001h.001v-.001h.001v-.001h.001v-.001h.001v-.001h.001v-.001h.001v-.001h.001v-.001h.001v-.001h.001v-.001h.001v-.001h.001v-.001h.001v-.001h.001v-.001h.001v-.001h.001v-.001h.001v-.001h.001v-.001h.001v-.001h.001v-.001h.001v-.001h.001v-.001h.001v-.001h.001v-.001h.001v-.001h.001v-.001h.001v-.001h.001v-.001h.001v-.001h.001V15.3h.001v0h.001v-.001h.001v-.001h.001v-.001h.001v-.001h.001v-.001h.001v-.001h.001v-.001h.001v-.001h.001v-.001h.001v-.001h.001v-.001h.001v-.001h.001v-.001h.001v-.001h.001v-.001h.001v-.001h.001v-.001h.001v-.001h.001v-.001h.001v-.001h.001v-.001h.001v-.001h.001v-.001h.001v-.001h.001v-.001h.001v-.001h.001v-.001h.001v-.001h.001v-.001h.001v-.001h.001v-.001h.001v-.001h.001v-.001h.001v-.001h.001a8.99 8.99 0 011.331-1.068c1.456-.973 1.716-3.1.42-4.39l-.094-.094-.008-.008-17.421 17.381zm0 0l-.008-.007-5.408-5.391-.007-.007m5.423 5.405l-5.423-5.405m0 0a2.765 2.765 0 01-.091-.097c-.935-1.032-1.03-2.686.047-3.76l.474-.472 1.226-1.222a8.99 8.99 0 01-1.33 1.067c-1.457.973-1.716 3.098-.42 4.39l.094.094zM32.36 4.308l-.19-.19c-1.219-1.214-3.302-1.1-4.288.392-.404.613-.815 1.174-1.091 1.45L16.725 15.994 32.361 4.308zm0 0a.463.463 0 01.007.007l-.007-.007z" stroke="#7CB9FF" stroke-width="3"/><path d="M12.617 24.56l5.657 5.64M35.248 2l5.658 5.64" stroke="#0D66CC" stroke-width="3" stroke-linecap="round"/><path d="M19.406 10.46c0-.935.76-1.692 1.697-1.692.938 0 1.697.757 1.697 1.692 0 .934-.76 1.692-1.697 1.692a1.695 1.695 0 01-1.697-1.692zm10.582 10.63l1.746-1.45L42.67 30.538c.442.44.442 1.154 0 1.595-.442.44-1.159.44-1.6 0L29.99 21.088z" fill="#7CB9FF"/><path fill-rule="evenodd" clip-rule="evenodd" d="M7.921 34.72a3.39 3.39 0 00-3.395 3.384v1.128H3.395A3.39 3.39 0 000 42.616V46h38.474v-3.384a3.39 3.39 0 00-3.395-3.384h-1.132v-1.128a3.39 3.39 0 00-3.394-3.384H7.92zm23.763 3.384v3.384h3.395a1.13 1.13 0 011.132 1.128v1.128H2.263v-1.128a1.13 1.13 0 011.132-1.128h3.394v-3.384a1.13 1.13 0 011.132-1.128h22.632a1.13 1.13 0 011.131 1.128z" fill="#7CB9FF"/><path d="M4.526 40.36a1.13 1.13 0 011.132-1.128h18.105a1.13 1.13 0 011.132 1.128 1.13 1.13 0 01-1.132 1.128H5.658a1.13 1.13 0 01-1.132-1.128zm24.895 0a1.13 1.13 0 011.132-1.128h4.526a1.13 1.13 0 011.132 1.128 1.13 1.13 0 01-1.132 1.128h-4.526a1.13 1.13 0 01-1.132-1.128z" fill="#7CB9FF"/></svg>