<svg width="58" height="50" fill="none" xmlns="http://www.w3.org/2000/svg"><path d="M12 21.316h6.108l3.344-5.344L24.592 14h15.014l3.563 1.074 2.486 4.693 1.42 1.55L53 21.55V25H12.229L12 21.316z" fill="#DCE3FF"/><path d="M10.75 19.8v-.002l-2.171-7.07-.078-.253-.254-.078-7.069-2.171s0 0 0 0a.014.014 0 01-.008-.006.013.013 0 01-.002-.008c0-.007.004-.01.008-.012h.001l7.07-2.172.254-.078.078-.253L10.75.627V.625c.002-.003.006-.008.013-.008.008 0 .012.005.013.008v.001l2.172 7.07.078.254.253.078 7.07 2.172h.001c.004.001.008.005.008.013 0 .003 0 .005-.002.007a.015.015 0 01-.008.006s0 0 0 0l-7.069 2.171-.253.078-.078.253-2.172 7.07v.002c-.001.003-.005.008-.013.008a.012.012 0 01-.012-.009zM2.784 9.734l-1.555.478 1.555.477 5.731 1.761s0 0 0 0l.007.005a.009.009 0 01.003.003v.001l1.761 5.732.478 1.556.478-1.556 1.76-5.73h.001a.016.016 0 01.01-.01s0 0 0 0l5.731-1.762 1.556-.477-1.556-.478-5.73-1.761s0 0 0 0a.018.018 0 01-.01-.007s0 0 0 0v-.002L11.24 2.233 10.763.677l-.478 1.556-1.76 5.73s0 0 0 0a.016.016 0 01-.01.01s0 0 0 0L2.782 9.736z" stroke="#3859D6"/><mask id="a" fill="#fff"><path d="M51.998 20.308a.274.274 0 01-.262-.194l-1.16-3.773-3.773-1.16a.274.274 0 010-.523l3.774-1.16 1.159-3.773a.274.274 0 01.524 0l1.159 3.773 3.774 1.16a.274.274 0 010 .524l-3.774 1.159-1.16 3.773a.274.274 0 01-.261.194zm-4.181-5.388l3.06.94a.274.274 0 01.18.181l.94 3.06.94-3.06a.276.276 0 01.182-.181l3.06-.94-3.06-.94a.274.274 0 01-.181-.182l-.94-3.06-.94 3.06a.275.275 0 01-.182.182l-3.06.94z"/></mask><path d="M51.736 20.114l.956-.291v-.002l-.956.293zm-1.16-3.773l.956-.294-.155-.507-.507-.155-.293.956zm-3.773-1.16l-.296.956h.002l.294-.955zm0-.523l.291.956h.002l-.293-.956zm3.774-1.16l.293.956.507-.155.155-.507-.955-.294zm1.159-3.773l.956.293v-.002l-.956-.291zm.524 0l-.957.291v.002l.957-.293zm1.159 3.773l-.956.294.156.507.506.155.294-.956zm3.774 1.16l-.294.956h.002l.292-.956zm0 .524l.293.955h.002l-.295-.955zm-3.774 1.159l-.294-.956-.506.155-.156.507.956.294zm-1.16 3.773l-.955-.293v.002l.956.291zm-4.442-5.194l-.294-.956-3.111.956 3.111.956.294-.956zm3.06.94l.295-.955-.002-.001-.294.956zm.18.181l-.956.29v.004l.957-.294zm.94 3.06l-.955.293.956 3.112.956-3.112-.956-.293zm.94-3.06l-.954-.296-.001.002.956.294zm.182-.181l-.294-.956h-.002l.296.956zm3.06-.94l.293.956 3.112-.956-3.112-.956-.293.956zm-3.06-.94l-.296.955h.002l.294-.955zm-.181-.182l.956-.29v-.003l-.956.293zm-.94-3.06l.956-.293-.956-3.111-.956 3.111.956.294zm-.94 3.06l.955.296v-.002l-.955-.294zm-.182.182l.294.955h.002l-.296-.955zm1.122 5.328c.316 0 .6.207.694.515l-1.913.583c.164.539.66.902 1.219.902v-2zm.694.513l-1.16-3.774-1.911.587 1.159 3.774 1.912-.587zm-1.822-4.436l-3.773-1.16-.588 1.912 3.774 1.16.587-1.912zm-3.77-1.159c.301.094.51.374.51.694h-2c0 .56.366 1.052.898 1.217l.592-1.91zm.51.694c0 .316-.206.6-.515.694l-.583-1.913c-.538.164-.902.66-.902 1.219h2zm-.513.694l3.774-1.16-.587-1.912-3.774 1.16.587 1.912zm4.436-1.822l1.16-3.774-1.912-.587-1.16 3.774 1.912.587zm1.16-3.776a.726.726 0 01-.694.515v-2c-.558 0-1.055.364-1.219.902l1.913.583zm-.694.515a.726.726 0 01-.695-.515l1.913-.583a1.274 1.274 0 00-1.218-.902v2zm-.694-.513l1.159 3.774 1.912-.587-1.16-3.774-1.911.587zm1.821 4.436l3.774 1.16.587-1.912-3.773-1.16-.588 1.912zm3.776 1.16a.727.727 0 01-.515-.694h2c0-.558-.363-1.055-.902-1.219l-.583 1.913zm-.515-.694c0-.32.21-.6.51-.694l.592 1.91c.532-.164.898-.655.898-1.216h-2zm.513-.694l-3.774 1.159.588 1.912 3.773-1.16-.587-1.911zm-4.436 1.821l-1.16 3.774 1.913.587 1.159-3.774-1.912-.587zm-1.16 3.776a.726.726 0 01.695-.515v2c.558 0 1.054-.363 1.218-.902l-1.913-.583zm-3.78-3.947l3.06.94.587-1.912-3.06-.94-.587 1.912zm3.057.939a.726.726 0 01-.48-.483l1.915-.582a1.275 1.275 0 00-.843-.845l-.592 1.91zm-.478-.48l.94 3.06 1.912-.588-.94-3.06-1.912.588zm2.852 3.06l.94-3.06-1.912-.588-.94 3.06 1.912.587zm.939-3.058a.724.724 0 01-.478.478l-.592-1.91a1.276 1.276 0 00-.84.84l1.91.592zm-.48.479l3.06-.94-.588-1.912-3.06.94.588 1.912zm3.06-2.852l-3.06-.94-.587 1.912 3.059.94.587-1.912zm-3.058-.94c.225.07.408.247.48.484l-1.914.58c.124.41.444.723.842.847l.592-1.91zm.479.48l-.94-3.059-1.912.587.94 3.06 1.912-.588zm-2.852-3.059l-.94 3.06 1.912.587.94-3.06-1.912-.587zm-.94 3.057a.725.725 0 01.478-.478l.593 1.91c.4-.124.715-.438.84-.84l-1.91-.592zm.48-.478l-3.059.94.587 1.912 3.06-.94-.587-1.912z" fill="#3859D6" mask="url(#a)"/><path d="M19.494 29.473l6.067 2.218c.088.032.185.143.185.31 0 .223-.154.323-.25.323h-4.345c-1.143 0-2.147-1.031-2.147-2.403 0-.178.079-.315.176-.392a.314.314 0 01.314-.056z" stroke="#3859D6"/><path d="M11.131 48.087c-.376-.627-.37-1.314-.369-1.539V30.766a4.14 4.14 0 011.212-2.928l1.41-1.412a2.592 2.592 0 01-.713-.652c-.327-.437-.53-1-.53-1.674v-2.761h6.28c.503-.612 1.342-1.777 2.142-3.378.66-1.321 1.529-2.227 2.515-2.79.977-.56 1.984-.735 2.857-.735h12.679c.676 0 .967-.13 1.595.396l1.119.28c-.026-.11-.028-.162.235.059l-.235-.06c.027.114.082.29-.103.29h-15.29c-.745 0-1.578.15-2.378.608-.803.459-1.547 1.214-2.131 2.383-.836 1.673-1.716 2.898-2.26 3.56l-.29.352h-5.77V24.1c0 .687.295 1.157.69 1.441.032.024.064.045.097.066l1.031.642-2.268 2.271a3.176 3.176 0 00-.93 2.246v15.789c-.001.212.006.658.232 1.036.266.443.766.719 1.563.719h6.897c.297 0 .732-.086 1.104-.355.395-.284.69-.753.69-1.44h.964c0 1.001-.448 1.76-1.09 2.224a2.917 2.917 0 01-1.668.536H13.52c-1.026 0-1.9-.37-2.39-1.188z" fill="#3859D6"/><path fill-rule="evenodd" clip-rule="evenodd" d="M48.857 26.046h-30.56c-.511 0-.694-.677-.251-.934a.25.25 0 01.126-.034h30.685v.968z" fill="#3859D6"/><path d="M23.344 38.633c0 .968.516 1.935 2.58 1.935h12.904m7.233-11.095l-6.068 2.218c-.087.032-.184.143-.184.31 0 .223.154.323.25.323h4.345c1.143 0 2.147-1.031 2.147-2.403a.493.493 0 00-.177-.392.314.314 0 00-.313-.056z" stroke="#3859D6"/><path d="M54.427 48.088c.376-.627.371-1.314.37-1.539V30.767a4.141 4.141 0 00-1.212-2.928l-1.41-1.411a2.588 2.588 0 00.713-.652c.327-.438.53-1.002.53-1.675v-2.76h-6.28c-.503-.613-1.342-1.777-2.142-3.38-.66-1.32-1.53-2.225-2.515-2.79-.977-.558-1.985-.733-2.857-.733h-13.14c-.678 0-1.622.207-2.25.734l-.415.23h-.603c-.363 0 .05.159-.486.608l1.09-.607h15.804c.745 0 1.578.15 2.378.607.803.459 1.547 1.214 2.13 2.383.836 1.673 1.716 2.898 2.261 3.56l.29.352h5.77v1.796c0 .688-.296 1.157-.69 1.442a1.681 1.681 0 01-.098.065l-1.03.642 2.268 2.271c.595.596.93 1.403.93 2.246l-.001 15.753v.036c.002.213-.005.658-.232 1.036-.265.443-.766.72-1.562.72H45.14c-.297 0-.732-.087-1.105-.355-.394-.285-.69-.754-.69-1.442h-.964c0 1.002.448 1.762 1.091 2.225a2.917 2.917 0 001.668.536h6.897c1.025 0 1.9-.37 2.39-1.188z" fill="#3859D6"/><rect width="19" height="1" rx=".5" transform="matrix(-1 0 0 1 42 44)" fill="#3859D6"/><path d="M42.21 38.633c0 .968-.515 1.935-2.58 1.935H26.727" stroke="#3859D6"/></svg>