<svg fill="none" height="45" width="47" xmlns="http://www.w3.org/2000/svg"><path d="M26.43 11.332c0 1.83-.48 3.546-1.32 5.032H7.273a10.192 10.192 0 01-1.32-5.032c0-5.654 4.584-10.238 10.239-10.238 5.654 0 10.238 4.584 10.238 10.238z" stroke="#048c4b" stroke-linecap="round"/><path d="M17.281 12.2c0-.294-.082-.527-.247-.7-.162-.176-.438-.337-.83-.484a10.281 10.281 0 01-1.012-.436 3.414 3.414 0 01-.732-.501 2.096 2.096 0 01-.474-.668 2.264 2.264 0 01-.167-.91c0-.606.194-1.103.582-1.49.388-.388.903-.615 1.545-.68V5.18h.862v1.168c.635.09 1.132.355 1.49.797.36.438.54 1.007.54 1.706H17.28c0-.43-.09-.752-.269-.963a.87.87 0 00-.71-.323c-.295 0-.523.084-.684.253-.162.165-.243.395-.243.689 0 .273.08.492.237.657.158.165.45.333.878.506.43.172.784.335 1.06.49.277.15.51.323.7.517.19.19.336.409.436.656.1.244.151.53.151.856 0 .61-.19 1.106-.57 1.486s-.905.605-1.572.673v1.072h-.857v-1.066c-.735-.08-1.306-.34-1.712-.781-.402-.445-.603-1.036-.603-1.771h1.556c0 .427.1.755.302.985.204.226.497.34.877.34.316 0 .566-.084.749-.249.183-.168.274-.394.274-.678z" fill="#008a48"/><rect fill="#dcffed" height="24.235" rx=".5" stroke="#008a48" width="31.3" x=".543" y="16.328"/><path d="M40.595 24.308c-.804-.175-3.038-.41-7.758-.41-.552 0-1.009.448-1.009 1v15.655H44.96a1 1 0 001-1v-4.82a1 1 0 00-.106-.447L41.062 24.7c-.097-.193-.256-.346-.467-.393z" stroke="#008a48"/><circle cx="10.212" cy="41.06" fill="#fff" r="3.427"/><g stroke="#008a48"><circle cx="10.212" cy="41.06" r="3.427"/><circle cx="10.212" cy="41.06" r="3.427"/><circle cx="10.212" cy="41.06" r="3.427"/></g><circle cx="38.58" cy="41.06" fill="#fff" r="3.427"/><circle cx="38.58" cy="41.06" r="3.427" stroke="#008a48"/><circle cx="38.58" cy="41.06" r="3.427" stroke="#008a48"/><circle cx="38.58" cy="41.06" r="3.427" stroke="#008a48"/><path d="M1.289 31.734h30.039" stroke="#048c4b" stroke-dasharray="2 2" stroke-linecap="round"/><path d="M32.328 29.578h11.11" stroke="#048c4b" stroke-linecap="round"/></svg>