<svg fill="none" height="40" width="53" xmlns="http://www.w3.org/2000/svg"><circle cx="32.914" cy="20.317" fill="#ece8ff" r="19.184"/><path d="M33.086 11.828v11.366m.09.173l4.434 4.434" stroke="#2e1c75" stroke-linecap="round" stroke-width="2"/><g fill="#2e1c75"><circle cx="48.638" cy="20.653" r="1.091"/><circle cx="32.923" cy="4.95" r="1.091"/><circle cx="33.208" cy="35.52" r="1.091"/></g><path d="M1.801 14.297h13.706M9.23 22.094h10.427M6.293 30.016h11.5" stroke="#2e1c75" stroke-dasharray="2 2" stroke-linecap="round"/><path d="M1.242 30.016h2.813m14.101 1.864l1.083 1.185M16.748 10.82l-.736 1.427" stroke="#2e1c75" stroke-linecap="round"/><path clip-rule="evenodd" d="M52.001 20.227c0 10.291-8.342 18.634-18.633 18.634a18.59 18.59 0 01-14.032-6.373h-1.304c3.598 4.494 9.13 7.373 15.336 7.373C44.21 39.86 53 31.07 53 20.227S44.21.594 33.367.594c-7.85 0-14.625 4.607-17.766 11.265h1.112C19.78 5.771 26.086 1.594 33.368 1.594 43.658 1.594 52 9.936 52 20.227z" fill="#2e1c75" fill-rule="evenodd"/></svg>