<svg width="288" height="169" fill="none" xmlns="http://www.w3.org/2000/svg"><path opacity=".3" fill="url(#paint0_linear)" d="M0 146.387h287.812v21.71H0z"/><path transform="matrix(-1 0 0 1 66.37 23.726)" fill="url(#paint1_linear)" d="M0 0h36.597v107.464H0z"/><path transform="matrix(-1 0 0 1 73.193 23.726)" fill="url(#paint2_linear)" d="M0 0h6.823v107.464H0z"/><path transform="matrix(-1 0 0 1 155.071 45.126)" fill="url(#paint3_linear)" d="M0 0h41.559v93.508H0z"/><path transform="matrix(-1 0 0 1 162.514 45.126)" fill="url(#paint4_linear)" d="M0 0h7.443v93.508H0z"/><path transform="matrix(-1 0 0 1 194.149 0)" fill="url(#paint5_linear)" d="M0 0h29.153v107.464H0z"/><path transform="matrix(-1 0 0 1 199.111 0)" fill="url(#paint6_linear)" d="M0 0h4.962v107.464H0z"/><path transform="matrix(-1 0 0 1 247.493 45.126)" fill="url(#paint7_linear)" d="M0 0h40.939v107.464H0z"/><path transform="matrix(-1 0 0 1 254.316 45.126)" fill="url(#paint8_linear)" d="M0 0h6.823v107.464H0z"/><path d="M239.429 53.5h-.62v61.408h.62V53.499zm-4.962 0h-.62v61.408h.62V53.499zm-4.962 0h-.62v61.408h.62V53.499zm-4.962 0h-.621v61.408h.621V53.499zm-4.963 0h-.62v61.408h.62V53.499zm-4.962 0h-.62v61.408h.62V53.499zM188.566 4.652h-.454v100.952h.454V4.652zm-3.631 0h-.454v100.952h.454V4.652zm-3.631 0h-.454v100.952h.454V4.652zm-3.631 0h-.453v100.952h.453V4.652zm-3.631 0h-.453v100.952h.453V4.652zm-3.63 0h-.454v100.952h.454V4.652z" opacity=".4" fill="#C4C4C4"/><g opacity=".4" fill="#C4C4C4"><path d="M150.109 49.778h-.454v82.808h.454V49.778zm-3.631 0h-.454v82.808h.454V49.778zm-3.631 0h-.454v82.808h.454V49.778zm-3.631 0h-.454v82.808h.454V49.778zm-3.631 0h-.454v82.808h.454V49.778zm-3.631 0h-.454v82.808h.454V49.778z"/><path d="M135.842 49.778h-.454v82.808h.454V49.778zm-3.631 0h-.454v82.808h.454V49.778zm-3.631 0h-.454v82.808h.454V49.778zm-3.631 0h-.454v82.808h.454V49.778zm-3.631 0h-.453v82.808h.453V49.778zm-3.631 0h-.453v82.808h.453V49.778z"/></g><g opacity=".4" fill="#C4C4C4"><path d="M63.89 28.378h-.455v82.808h.454V28.378zm-3.632 0h-.454v82.808h.454V28.378zm-3.631 0h-.454v82.808h.454V28.378zm-3.631 0h-.454v82.808h.454V28.378zm-3.631 0h-.453v82.808h.453V28.378zm-3.631 0h-.453v82.808h.453V28.378z"/><path d="M49.623 28.378h-.454v82.808h.454V28.378zm-3.631 0h-.454v82.808h.454V28.378zm-3.632 0h-.453v82.808h.454V28.378zm-3.63 0h-.454v82.808h.454V28.378zm-3.631 0h-.454v82.808h.454V28.378zm-3.631 0h-.454v82.808h.454V28.378z"/></g><mask id="a" maskUnits="userSpaceOnUse" x="0" y="57" width="183" height="90"><path fill="#C4C4C4" d="M0 57.066h182.364v89.321H0z"/></mask><g mask="url(#a)"><path fill="#DFDFDF" d="M1.76 101.536H.356v38.384H1.76z"/><path fill="#37AAFF" d="M141.721 57.066H-82.498v89.407h224.219z"/><g opacity=".4"><path d="M70.102 67.833h-10.55v66.938h10.55V67.833z" fill="url(#paint9_linear)"/><path d="M49.002 67.833h-10.55v66.938h10.55V67.833z" fill="url(#paint10_linear)"/><path d="M27.901 67.833h-10.55v66.938h10.55V67.833z" fill="url(#paint11_linear)"/><path d="M6.8 67.833H-3.75v66.938H6.8V67.833z" fill="url(#paint12_linear)"/><path d="M-14.3 67.833h-10.55v66.938h10.55V67.833z" fill="url(#paint13_linear)"/><path d="M-35.4 67.833h-10.55v66.938h10.55V67.833z" fill="url(#paint14_linear)"/><path d="M-56.5 67.833h-10.55v66.938h10.55V67.833z" fill="url(#paint15_linear)"/></g><path fill="#055A98" d="M180.503 57.066H91.802v89.321h88.701z"/><path fill="#003052" d="M173.059 64.51H99.245v81.877h73.814z"/></g><path fill="#0B446E" d="M58.927 57.066h32.255v89.321H58.927zm122.196 0h32.255v89.321h-32.255z"/><path d="M187.326 68.852h1.24v70.092h-1.24V68.852zm6.203 0h1.24v70.092h-1.24V68.852zm6.203 0h1.24v70.092h-1.24V68.852zm6.202 0h1.241v70.092h-1.241V68.852z" fill="#003052"/><mask id="b" maskUnits="userSpaceOnUse" x="99" y="64" width="137" height="83"><path transform="matrix(-1 0 0 1 235.088 64.51)" fill="#003052" d="M0 0h135.842v81.877H0z"/></mask><g mask="url(#b)"><path d="M220.031 140.987H91.616c-10.047 0-14.757 0-16.326-5.965-1.256-4.773 2.825-9.524 5.023-11.303v-12.873c8.373-3.14 30.581-9.482 52.433-9.733 27.316-.314 46.154 9.733 63.423 16.012 27.998 6.82 26.374 15.071 26.374 18.839 0 3.014 1.569 4.081-2.512 5.023z" fill="#37AAFF"/><path d="M204.018 139.104H103.547v1.883h104.239l-3.768-1.883z" fill="#004679"/><circle r="11.431" transform="matrix(-1 0 0 1 193.343 134.708)" fill="#055A98" stroke="#004679"/><circle r="6.407" transform="matrix(-1 0 0 1 193.343 134.708)" fill="#004679" stroke="#004679"/><circle r="11.431" transform="matrix(-1 0 0 1 101.663 134.708)" fill="#055A98" stroke="#004679"/><circle r="6.407" transform="matrix(-1 0 0 1 101.663 134.708)" fill="#004679" stroke="#004679"/><path d="M209.984 124.033h4.709c2.01.502 5.128 3.244 6.28 4.709l-6.28.314c-1.151-.942-3.705-2.951-4.709-3.453-1.005-.503-.419-1.256 0-1.57z" fill="url(#paint16_linear)"/><path d="M112.024 115.241h69.074c-12.872-7.849-33.595-11.303-48.351-11.303-6.156 0-19.842 1.159-25.916 2.416-1.826.378-2.017 1.954-.673 3.247l5.866 5.64z" fill="url(#paint17_linear)"/><path d="M141.852 117.753h-7.536l1.256.942h7.536l-1.256-.942zm82.261 18.211h-11.931v.628h11.931zm-1.257-1.256h-11.931v.628h11.931z" fill="#004679"/><path opacity=".4" d="M165.56 129.324a3.998 3.998 0 00-2.523-.896h-32.655c-3.406 0-5.254 3.984-3.054 6.584l.138.163a4.002 4.002 0 003.054 1.417h32.718c3.766 0 5.446-4.73 2.523-7.105l-.201-.163z" fill="url(#paint18_linear)"/></g><path stroke="#FDB81E" d="M154.37 90.678l1.824 1.043-1.043 1.824-1.824-1.043z"/><path d="M148.527 92.74l-2.14-1.996 2.996-.803-.856 2.798zm34.736 11.164l-2.14-1.995 2.996-.803-.856 2.798zm-29.786-19.812l.62.62.707-.707-.62-.62-.707.707zm.62-1.86l1.861 1.86.707-.707-1.861-1.861-.707.707zm.31-2.172l3.722 3.722.707-.707-3.721-3.722-.708.707zm30.084 13.026l.62.62.708-.707-.621-.62-.707.707zm.62-1.86l1.861 1.86.707-.707-1.86-1.86-.708.706zm.311-2.172l3.721 3.722.707-.707-3.721-3.722-.707.707z" fill="#37AAFF"/><path stroke="#FDB81E" d="M168.582 101.789l1.824 1.043-1.043 1.824-1.824-1.043z"/><path d="M160.033 102.037l15.818-15.817" stroke="#FDB81E" stroke-dasharray="1 2"/><path stroke="#FDB81E" d="M167.447 86.668l1.333.762-.762 1.333-1.333-.762zm-23.906-11.646l-.533.569-.014-.802.795-.014-.236.235-.006.006-.006.006zm46.081 24.371l-.534.568-.013-.802.794-.013-.236.235-.005.006-.006.006z"/><path fill="#37AAFF" d="M90.561 59.547h1.861v6.203h-1.861z"/><path fill="#055A98" d="M89.941 61.408h3.101v.62h-3.101zm0 1.861h3.101v.62h-3.101z"/><path fill="#37AAFF" d="M179.882 59.547h1.861v6.203h-1.861z"/><path fill="#055A98" d="M179.262 61.408h3.101v.62h-3.101zm0 1.861h3.101v.62h-3.101z"/><path fill="#37AAFF" d="M90.561 133.981h1.861v6.203h-1.861z"/><path fill="#055A98" d="M89.941 135.222h3.101v.62h-3.101zm0 2.481h3.101v.62h-3.101z"/><path d="M65.75 68.852h1.24v70.092h-1.24V68.852zm6.203 0h1.24v70.092h-1.24V68.852zm6.203 0h1.24v70.092h-1.24V68.852zm6.203 0h1.24v70.092h-1.24V68.852z" fill="#003052"/><defs><linearGradient id="paint0_linear" x1="143.906" y1="146.387" x2="143.906" y2="168.097" gradientUnits="userSpaceOnUse"><stop stop-color="#00B2FF"/><stop offset="1" stop-color="#fff" stop-opacity="0"/></linearGradient><linearGradient id="paint1_linear" x1="18.298" y1="0" x2="18.298" y2="107.464" gradientUnits="userSpaceOnUse"><stop stop-color="#CCE6FF"/><stop offset="1" stop-color="#E6F2FF" stop-opacity="0"/></linearGradient><linearGradient id="paint2_linear" x1="3.412" y1="0" x2="3.412" y2="107.464" gradientUnits="userSpaceOnUse"><stop stop-color="#E6F2FF"/><stop offset="1" stop-color="#E6F2FF" stop-opacity="0"/></linearGradient><linearGradient id="paint3_linear" x1="20.779" y1="0" x2="20.779" y2="93.508" gradientUnits="userSpaceOnUse"><stop stop-color="#CCE6FF"/><stop offset="1" stop-color="#E6F2FF" stop-opacity="0"/></linearGradient><linearGradient id="paint4_linear" x1="3.722" y1="0" x2="3.722" y2="93.508" gradientUnits="userSpaceOnUse"><stop stop-color="#E6F2FF"/><stop offset="1" stop-color="#E6F2FF" stop-opacity="0"/></linearGradient><linearGradient id="paint5_linear" x1="14.577" y1="0" x2="14.577" y2="107.464" gradientUnits="userSpaceOnUse"><stop stop-color="#CCE6FF"/><stop offset="1" stop-color="#E6F2FF" stop-opacity="0"/></linearGradient><linearGradient id="paint6_linear" x1="2.481" y1="0" x2="2.481" y2="107.464" gradientUnits="userSpaceOnUse"><stop stop-color="#E6F2FF"/><stop offset="1" stop-color="#E6F2FF" stop-opacity="0"/></linearGradient><linearGradient id="paint7_linear" x1="20.469" y1="0" x2="20.469" y2="107.464" gradientUnits="userSpaceOnUse"><stop stop-color="#CCE6FF"/><stop offset="1" stop-color="#E6F2FF" stop-opacity="0"/></linearGradient><linearGradient id="paint8_linear" x1="3.412" y1="0" x2="3.412" y2="107.464" gradientUnits="userSpaceOnUse"><stop stop-color="#E6F2FF"/><stop offset="1" stop-color="#E6F2FF" stop-opacity="0"/></linearGradient><linearGradient id="paint9_linear" x1="-61.775" y1="67.833" x2="-61.775" y2="134.771" gradientUnits="userSpaceOnUse"><stop stop-color="#004A79"/><stop offset="1" stop-color="#37AAFF"/></linearGradient><linearGradient id="paint10_linear" x1="-61.775" y1="67.833" x2="-61.775" y2="134.771" gradientUnits="userSpaceOnUse"><stop stop-color="#004A79"/><stop offset="1" stop-color="#37AAFF"/></linearGradient><linearGradient id="paint11_linear" x1="-61.775" y1="67.833" x2="-61.775" y2="134.771" gradientUnits="userSpaceOnUse"><stop stop-color="#004A79"/><stop offset="1" stop-color="#37AAFF"/></linearGradient><linearGradient id="paint12_linear" x1="-61.775" y1="67.833" x2="-61.775" y2="134.771" gradientUnits="userSpaceOnUse"><stop stop-color="#004A79"/><stop offset="1" stop-color="#37AAFF"/></linearGradient><linearGradient id="paint13_linear" x1="-61.775" y1="67.833" x2="-61.775" y2="134.771" gradientUnits="userSpaceOnUse"><stop stop-color="#004A79"/><stop offset="1" stop-color="#37AAFF"/></linearGradient><linearGradient id="paint14_linear" x1="-61.775" y1="67.833" x2="-61.775" y2="134.771" gradientUnits="userSpaceOnUse"><stop stop-color="#004A79"/><stop offset="1" stop-color="#37AAFF"/></linearGradient><linearGradient id="paint15_linear" x1="-61.775" y1="67.833" x2="-61.775" y2="134.771" gradientUnits="userSpaceOnUse"><stop stop-color="#004A79"/><stop offset="1" stop-color="#37AAFF"/></linearGradient><linearGradient id="paint16_linear" x1="215.044" y1="124.033" x2="215.044" y2="129.056" gradientUnits="userSpaceOnUse"><stop stop-color="#fff"/><stop offset="1" stop-color="#C4C4C4" stop-opacity="0"/></linearGradient><linearGradient id="paint17_linear" x1="114.829" y1="95.086" x2="188.571" y2="122.175" gradientUnits="userSpaceOnUse"><stop stop-color="#fff"/><stop offset="1" stop-color="#fff" stop-opacity="0"/></linearGradient><linearGradient id="paint18_linear" x1="128.937" y1="120.349" x2="148.131" y2="136.592" gradientUnits="userSpaceOnUse"><stop stop-color="#004679"/><stop offset="1" stop-color="#004679" stop-opacity="0"/></linearGradient></defs></svg>