<svg width="470" height="271" fill="none" xmlns="http://www.w3.org/2000/svg"><path opacity=".3" transform="matrix(-1 0 0 1 470 236)" fill="url(#paint0_linear)" d="M0 0h468v35H0z"/><path fill="url(#paint1_linear)" d="M303 38.25h59V211.5h-59z"/><path fill="url(#paint2_linear)" d="M292 38.25h11V211.5h-11z"/><path fill="url(#paint3_linear)" d="M160 72.75h67V223.5h-67z"/><path fill="url(#paint4_linear)" d="M148 72.75h12V223.5h-12z"/><path fill="url(#paint5_linear)" d="M97 0h47v173.25H97z"/><path fill="url(#paint6_linear)" d="M89 0h8v173.25h-8z"/><path fill="url(#paint7_linear)" d="M11 72.75h66V246H11z"/><path fill="url(#paint8_linear)" d="M0 72.75h11V246H0z"/><path d="M24 86.25h1v99h-1v-99zm8 0h1v99h-1v-99zm8 0h1v99h-1v-99zm8 0h1v99h-1v-99zm8 0h1v99h-1v-99zm8 0h1v99h-1v-99zM106 7.5h.732v162.75H106V7.5zm5.854 0h.731v162.75h-.731V7.5zm5.853 0h.732v162.75h-.732V7.5zm5.854 0h.732v162.75h-.732V7.5zm5.854 0h.731v162.75h-.731V7.5zm5.853 0H136v162.75h-.732V7.5z" opacity=".4" fill="#C4C4C4"/><g opacity=".4" fill="#C4C4C4"><path d="M168 80.25h.732v133.5H168V80.25zm5.854 0h.731v133.5h-.731V80.25zm5.853 0h.732v133.5h-.732V80.25zm5.854 0h.732v133.5h-.732V80.25zm5.854 0h.731v133.5h-.731V80.25zm5.853 0H198v133.5h-.732V80.25z"/><path d="M191 80.25h.732v133.5H191V80.25zm5.854 0h.731v133.5h-.731V80.25zm5.853 0h.732v133.5h-.732V80.25zm5.854 0h.732v133.5h-.732V80.25zm5.854 0h.731v133.5h-.731V80.25zm5.853 0H221v133.5h-.732V80.25z"/></g><g opacity=".4" fill="#C4C4C4"><path d="M307 45.75h.732v133.5H307V45.75zm5.854 0h.731v133.5h-.731V45.75zm5.853 0h.732v133.5h-.732V45.75zm5.854 0h.732v133.5h-.732V45.75zm5.854 0h.731v133.5h-.731V45.75zm5.853 0H337v133.5h-.732V45.75z"/><path d="M330 45.75h.732v133.5H330V45.75zm5.854 0h.731v133.5h-.731V45.75zm5.853 0h.732v133.5h-.732V45.75zm5.854 0h.732v133.5h-.732V45.75zm5.854 0h.731v133.5h-.731V45.75zm5.853 0H360v133.5h-.732V45.75z"/></g><mask id="a" maskUnits="userSpaceOnUse" x="116" y="92" width="344" height="144"><path transform="matrix(-1 0 0 1 460 92)" fill="#C4C4C4" d="M0 0h344v144H0z"/></mask><g mask="url(#a)"><path fill="#DFDFDF" d="M407.163 163.692h2.264v61.881h-2.264z"/><path fill="#37AAFF" d="M181.523 92H543v144.138H181.523z"/><g opacity=".4"><path d="M296.984 109.357h17.009v107.915h-17.009V109.357z" fill="url(#paint9_linear)"/><path d="M331.001 109.357h17.009v107.915h-17.009V109.357z" fill="url(#paint10_linear)"/><path d="M365.019 109.357h17.008v107.915h-17.008V109.357z" fill="url(#paint11_linear)"/><path d="M399.036 109.357h17.009v107.915h-17.009V109.357z" fill="url(#paint12_linear)"/><path d="M433.053 109.357h17.009v107.915h-17.009V109.357z" fill="url(#paint13_linear)"/><path d="M467.071 109.357h17.008v107.915h-17.008V109.357z" fill="url(#paint14_linear)"/><path d="M501.088 109.357h17.009v107.915h-17.009V109.357z" fill="url(#paint15_linear)"/></g><path fill="#055A98" d="M119 92h143v144H119z"/><path fill="#003052" d="M131 104h119v132H131z"/></g><path fill="#0B446E" d="M315 92h-52v144h52zm-197 0H66v144h52z"/><path d="M268 111h2v113h-2V111zm10 0h2v113h-2V111zm10 0h2v113h-2V111zm10 0h2v113h-2V111z" fill="#003052"/><path fill="#37AAFF" d="M112 96h3v10h-3z"/><path fill="#055A98" d="M111 99h5v1h-5zm0 3h5v1h-5z"/><path fill="#37AAFF" d="M256 96h3v10h-3z"/><path fill="#055A98" d="M255 99h5v1h-5zm0 3h5v1h-5z"/><path fill="#37AAFF" d="M112 216h3v10h-3z"/><path fill="#055A98" d="M111 218h5v1h-5zm0 4h5v1h-5z"/><path d="M72 111h2v113h-2V111zm10 0h2v113h-2V111zm10 0h2v113h-2V111zm10 0h2v113h-2V111z" fill="#003052"/><mask id="b" maskUnits="userSpaceOnUse" x="65" y="104" width="185" height="132"><path transform="matrix(-1 0 0 1 250 104)" fill="#003052" d="M0 0h185v132H0z"/></mask><g mask="url(#b)"><path d="M320.726 227.296H113.7c-16.198 0-23.79 0-26.321-9.617-2.025-7.694 4.556-15.354 8.099-18.223v-20.753c13.498-5.062 49.301-15.286 84.531-15.691 44.037-.507 74.408 15.691 102.248 25.815 45.138 10.994 42.518 24.296 42.518 30.37 0 4.859 2.531 6.58-4.049 8.099z" fill="#37AAFF"/><path d="M294.911 224.259H132.935v3.037h168.05l-6.074-3.037z" fill="#004679"/><circle r="18.735" transform="matrix(-1 0 0 1 129.898 217.172)" fill="#055A98" stroke="#004679"/><circle r="10.636" transform="matrix(-1 0 0 1 129.898 217.172)" fill="#004679" stroke="#004679"/><path d="M104.589 188.32l-9.111-9.111v19.741l9.111-9.111v-1.519z" fill="#004679"/><path d="M146.602 185.789H257.96c-20.753-12.654-54.161-18.222-77.951-18.222-10.633 0-35.203 2.144-43.683 4.331-1.805.465-1.932 2.153-.588 3.446l10.864 10.445z" fill="url(#paint16_linear)"/><path d="M194.688 189.839H182.54l2.025 1.518h12.148l-2.025-1.518z" fill="#004679"/><path opacity=".4" d="M232.235 207.944a4.002 4.002 0 00-2.522-.895h-58.796c-3.405 0-5.253 3.984-3.053 6.583l4.366 5.161a4 4 0 003.054 1.416h60.78c3.766 0 5.445-4.73 2.522-7.104l-6.351-5.161z" fill="url(#paint17_linear)"/></g><defs><linearGradient id="paint0_linear" x1="234" y1="0" x2="234" y2="35" gradientUnits="userSpaceOnUse"><stop stop-color="#00B2FF"/><stop offset="1" stop-color="#fff" stop-opacity="0"/></linearGradient><linearGradient id="paint1_linear" x1="332.5" y1="38.25" x2="332.5" y2="211.5" gradientUnits="userSpaceOnUse"><stop stop-color="#CCE6FF"/><stop offset="1" stop-color="#E6F2FF" stop-opacity="0"/></linearGradient><linearGradient id="paint2_linear" x1="297.5" y1="38.25" x2="297.5" y2="211.5" gradientUnits="userSpaceOnUse"><stop stop-color="#E6F2FF"/><stop offset="1" stop-color="#E6F2FF" stop-opacity="0"/></linearGradient><linearGradient id="paint3_linear" x1="193.5" y1="72.75" x2="193.5" y2="223.5" gradientUnits="userSpaceOnUse"><stop stop-color="#CCE6FF"/><stop offset="1" stop-color="#E6F2FF" stop-opacity="0"/></linearGradient><linearGradient id="paint4_linear" x1="154" y1="72.75" x2="154" y2="223.5" gradientUnits="userSpaceOnUse"><stop stop-color="#E6F2FF"/><stop offset="1" stop-color="#E6F2FF" stop-opacity="0"/></linearGradient><linearGradient id="paint5_linear" x1="120.5" y1="0" x2="120.5" y2="173.25" gradientUnits="userSpaceOnUse"><stop stop-color="#CCE6FF"/><stop offset="1" stop-color="#E6F2FF" stop-opacity="0"/></linearGradient><linearGradient id="paint6_linear" x1="93" y1="0" x2="93" y2="173.25" gradientUnits="userSpaceOnUse"><stop stop-color="#E6F2FF"/><stop offset="1" stop-color="#E6F2FF" stop-opacity="0"/></linearGradient><linearGradient id="paint7_linear" x1="44" y1="72.75" x2="44" y2="246" gradientUnits="userSpaceOnUse"><stop stop-color="#CCE6FF"/><stop offset="1" stop-color="#E6F2FF" stop-opacity="0"/></linearGradient><linearGradient id="paint8_linear" x1="5.5" y1="72.75" x2="5.5" y2="246" gradientUnits="userSpaceOnUse"><stop stop-color="#E6F2FF"/><stop offset="1" stop-color="#E6F2FF" stop-opacity="0"/></linearGradient><linearGradient id="paint9_linear" x1="509.592" y1="109.357" x2="509.592" y2="217.272" gradientUnits="userSpaceOnUse"><stop stop-color="#004A79"/><stop offset="1" stop-color="#37AAFF"/></linearGradient><linearGradient id="paint10_linear" x1="509.592" y1="109.357" x2="509.592" y2="217.272" gradientUnits="userSpaceOnUse"><stop stop-color="#004A79"/><stop offset="1" stop-color="#37AAFF"/></linearGradient><linearGradient id="paint11_linear" x1="509.592" y1="109.357" x2="509.592" y2="217.272" gradientUnits="userSpaceOnUse"><stop stop-color="#004A79"/><stop offset="1" stop-color="#37AAFF"/></linearGradient><linearGradient id="paint12_linear" x1="509.592" y1="109.357" x2="509.592" y2="217.272" gradientUnits="userSpaceOnUse"><stop stop-color="#004A79"/><stop offset="1" stop-color="#37AAFF"/></linearGradient><linearGradient id="paint13_linear" x1="509.592" y1="109.357" x2="509.592" y2="217.272" gradientUnits="userSpaceOnUse"><stop stop-color="#004A79"/><stop offset="1" stop-color="#37AAFF"/></linearGradient><linearGradient id="paint14_linear" x1="509.592" y1="109.357" x2="509.592" y2="217.272" gradientUnits="userSpaceOnUse"><stop stop-color="#004A79"/><stop offset="1" stop-color="#37AAFF"/></linearGradient><linearGradient id="paint15_linear" x1="509.592" y1="109.357" x2="509.592" y2="217.272" gradientUnits="userSpaceOnUse"><stop stop-color="#004A79"/><stop offset="1" stop-color="#37AAFF"/></linearGradient><linearGradient id="paint16_linear" x1="151.123" y1="153.295" x2="270.008" y2="196.967" gradientUnits="userSpaceOnUse"><stop stop-color="#fff"/><stop offset="1" stop-color="#fff" stop-opacity="0"/></linearGradient><linearGradient id="paint17_linear" x1="173.868" y1="194.024" x2="204.812" y2="220.209" gradientUnits="userSpaceOnUse"><stop stop-color="#004679"/><stop offset="1" stop-color="#004679" stop-opacity="0"/></linearGradient></defs></svg>