<svg width="500" height="219" fill="none" xmlns="http://www.w3.org/2000/svg"><path fill="#DFDFDF" d="M349.265 68.507h1.571v42.89h-1.571z"/><path fill="#33383E" d="M191.876 0h213.552v89.878H191.876z"/><path fill="#4B5158" d="M269.104 0h136.324v89.878H269.104z"/><path fill="#FDB81E" d="M130.85 33.462h213.663v85.256H130.85z"/><path fill="#37AAFF" d="M192.683 18.817h250.844v99.902H192.683z"/><g opacity=".4"><path d="M272.807 30.847h11.803v74.796h-11.803V30.847z" fill="url(#paint0_linear)"/><path d="M296.413 30.847h11.803v74.796h-11.803V30.847z" fill="url(#paint1_linear)"/><path d="M320.019 30.847h11.803v74.796h-11.803V30.847z" fill="url(#paint2_linear)"/><path d="M343.625 30.847h11.803v74.796h-11.803V30.847z" fill="url(#paint3_linear)"/><path d="M367.231 30.847h11.803v74.796h-11.803V30.847z" fill="url(#paint4_linear)"/><path d="M390.837 30.847h11.803v74.796h-11.803V30.847z" fill="url(#paint5_linear)"/><path d="M414.443 30.847h11.803v74.796h-11.803V30.847z" fill="url(#paint6_linear)"/></g><path fill="#055A98" d="M149.179 18.817h100.024v99.902H149.179z"/><path d="M353.241 37.934c0 .879.137 1.557.41 2.033.274.477.682.715 1.225.715.633 0 1.101-.476 1.406-1.43l1.6.305c-.52 1.656-1.528 2.484-3.024 2.484-1.097 0-1.935-.347-2.513-1.042-.575-.7-.862-1.721-.862-3.065 0-2.691 1.11-4.037 3.328-4.037.727 0 1.334.191 1.823.574.492.383.853.951 1.084 1.705l-1.594.387c-.113-.414-.283-.734-.51-.96-.226-.231-.486-.347-.779-.347-1.063 0-1.594.893-1.594 2.678zm11.643.815c0 1.05-.266 1.863-.797 2.437-.531.57-1.295.855-2.291.855-.961 0-1.707-.285-2.239-.855-.531-.574-.796-1.387-.796-2.438 0-1.046.263-1.855.791-2.425.527-.57 1.287-.856 2.279-.856 2.035 0 3.053 1.094 3.053 3.282zm-1.723 0c0-.75-.1-1.295-.299-1.635-.199-.344-.535-.516-1.008-.516-.484 0-.834.172-1.048.516-.211.344-.317.888-.317 1.635 0 .753.108 1.304.322 1.652.219.344.541.515.967.515.485 0 .836-.17 1.055-.51.219-.343.328-.896.328-1.657zm7.096 3.175v-3.627c0-.55-.076-.955-.229-1.212-.148-.258-.406-.387-.773-.387-.407 0-.733.174-.979.521-.242.344-.363.78-.363 1.307v3.398h-1.647v-4.922c0-.34-.005-.617-.017-.832a21.506 21.506 0 00-.029-.586h1.57c.012.075.027.274.047.598.019.32.029.541.029.662h.024c.222-.484.501-.836.837-1.054.336-.22.737-.329 1.202-.329 1.312 0 1.968.813 1.968 2.438v4.025h-1.64zm4.3-5.226h-.978v-1.114h1.061l.515-1.652h1.031v1.652h2.256v1.114h-2.256v3.105c0 .344.032.576.094.698.067.117.172.21.317.28.144.067.347.1.609.1.484 0 .982-.052 1.494-.158v1.09c-.555.09-.947.143-1.178.158-.23.02-.47.03-.72.03-.496 0-.912-.067-1.248-.2a1.537 1.537 0 01-.756-.633c-.168-.289-.252-.693-.252-1.212l.011-3.258zm7.858 5.343c-.613 0-1.092-.165-1.436-.497-.343-.336-.515-.807-.515-1.413 0-.656.203-1.154.609-1.494.41-.343 1.022-.521 1.834-.533l1.307-.023v-.323c0-.402-.069-.707-.205-.914-.137-.207-.358-.31-.662-.31-.286 0-.497.072-.633.217-.133.14-.215.367-.246.68l-1.717-.083c.211-1.254 1.099-1.88 2.666-1.88.789 0 1.392.193 1.81.58.422.386.633.954.633 1.704v2.297c0 .356.039.602.117.739.082.132.217.199.405.199.125 0 .246-.012.363-.035v.89l-.264.065c-.078.02-.156.035-.234.047a3.44 3.44 0 01-.557.041c-.414 0-.72-.102-.92-.305-.195-.203-.312-.502-.351-.896h-.035c-.246.44-.528.76-.844.955-.313.195-.688.292-1.125.292zm1.799-3.052l-.785.012c-.352.007-.608.044-.768.11a.696.696 0 00-.357.311c-.082.141-.123.334-.123.58 0 .594.234.891.703.891.379 0 .695-.148.949-.445.254-.301.381-.68.381-1.137v-.322zm7.488 1.822h2.068v1.113h-6.029v-1.113h2.315v-4.113h-1.7v-1.114h3.346v5.227zm-1.646-6.37V33.23h1.646v1.213h-1.646zm9.029 7.483v-3.627c0-.55-.076-.955-.229-1.212-.148-.258-.406-.387-.773-.387-.406 0-.733.174-.979.521-.242.344-.363.78-.363 1.307v3.398h-1.646v-4.922c0-.34-.006-.617-.018-.832a21.506 21.506 0 00-.029-.586h1.57c.012.075.027.274.047.598.019.32.029.541.029.662h.024c.222-.484.502-.836.838-1.054.335-.22.736-.329 1.201-.329 1.312 0 1.968.813 1.968 2.438v4.025h-1.64zm6.047.117c-.985 0-1.744-.289-2.28-.867-.535-.582-.802-1.398-.802-2.449 0-.703.125-1.297.375-1.781a2.575 2.575 0 011.078-1.102c.465-.25 1.015-.375 1.652-.375.926 0 1.645.309 2.156.926.512.617.768 1.494.768 2.63v.048h-4.301c0 .574.127 1.03.381 1.365.258.336.609.504 1.055.504.289 0 .545-.06.767-.182a.943.943 0 00.451-.574l1.553.135a2.52 2.52 0 01-1.072 1.277c-.5.297-1.094.446-1.781.446zm0-5.537c-.403 0-.723.137-.961.41-.239.27-.365.645-.381 1.126h2.695c-.027-.47-.162-.842-.404-1.12-.238-.277-.555-.416-.949-.416zm9.873.452a7.44 7.44 0 00-1.242-.112c-.61 0-1.094.23-1.454.692-.355.46-.533 1.068-.533 1.822v2.566h-1.64v-4.107c0-.297-.028-.647-.082-1.049a9.858 9.858 0 00-.223-1.184h1.588c.14.508.23.954.269 1.336h.024c.195-.53.459-.906.791-1.125.332-.218.763-.328 1.295-.328.406 0 .808.034 1.207.1v1.389zm13.652.076l-.404 1.898h1.388v.873h-1.582l-.457 2.121h-.908l.463-2.12h-1.81l-.457 2.12h-.897l.457-2.12h-1.019v-.874h1.207l.41-1.898h-1.33v-.867h1.517l.463-2.145h.897l-.457 2.145h1.804l.463-2.145h.897l-.457 2.145h1.084v.867h-1.272zm-2.713 0l-.41 1.898h1.811l.41-1.898h-1.811zm7.102 4.892v-1.787h1.693v1.787h-1.693zm0-4.57v-1.787h1.693v1.787h-1.693zm-93.782 18.58c0 .82-.185 1.547-.554 2.18-.363.627-.894 1.116-1.591 1.468-.691.345-1.506.518-2.443.518-1.243 0-2.239-.278-2.989-.835-.744-.562-1.204-1.374-1.38-2.434l2.47-.203c.129.528.358.912.686 1.152.328.24.741.36 1.239.36.633 0 1.128-.187 1.485-.562.358-.375.536-.906.536-1.591 0-.61-.172-1.096-.518-1.46-.346-.368-.829-.553-1.45-.553-.686 0-1.245.267-1.679.8h-2.408l.43-6.706h7.445v1.837h-5.203l-.202 2.865c.597-.527 1.344-.791 2.241-.791 1.178 0 2.118.363 2.821 1.09.709.72 1.064 1.676 1.064 2.865zm10.81 0c0 .82-.184 1.547-.554 2.18-.363.627-.893 1.116-1.59 1.468-.692.345-1.506.518-2.444.518-1.242 0-2.238-.278-2.988-.835-.744-.562-1.204-1.374-1.38-2.434l2.47-.203c.129.528.357.912.685 1.152.328.24.742.36 1.24.36.632 0 1.127-.187 1.485-.562.357-.375.536-.906.536-1.591 0-.61-.173-1.096-.519-1.46-.345-.368-.829-.553-1.45-.553-.685 0-1.245.267-1.678.8h-2.409l.431-6.706h7.444v1.837h-5.203l-.202 2.865c.598-.527 1.345-.791 2.241-.791 1.178 0 2.118.363 2.822 1.09.709.72 1.063 1.676 1.063 2.865zm10.828.686c0 1.107-.398 1.968-1.195 2.584-.791.615-1.887.922-3.287.922-1.348 0-2.417-.292-3.208-.878-.785-.592-1.245-1.445-1.38-2.558l2.514-.22c.146 1.102.835 1.653 2.065 1.653.615 0 1.096-.147 1.441-.44.346-.299.519-.703.519-1.213 0-.51-.214-.9-.642-1.169-.422-.27-1.028-.404-1.819-.404h-.861v-1.995h.808c.715 0 1.263-.135 1.644-.404.387-.276.58-.657.58-1.143 0-.44-.161-.8-.483-1.081-.317-.281-.742-.422-1.275-.422-.504 0-.92.12-1.248.36-.328.235-.516.61-.562 1.125l-2.47-.175c.129-1.05.571-1.858 1.327-2.426.762-.569 1.761-.853 2.997-.853.867 0 1.617.132 2.25.396.639.263 1.125.636 1.459 1.116.34.475.51 1.025.51 1.652 0 .721-.229 1.322-.686 1.802-.457.48-1.11.803-1.96.967v.035c.92.105 1.644.407 2.171.905.528.492.791 1.114.791 1.864zm9.536.782v2.522h-2.355v-2.522h-5.634v-1.855l5.23-7.48h2.759v7.498h1.653v1.837h-1.653zm-2.355-5.45c0-.316.009-.658.026-1.028.024-.369.041-.606.053-.712-.152.328-.428.803-.826 1.424l-2.813 3.929h3.56v-3.612zm14.423 3.982c0 .82-.185 1.547-.554 2.18-.363.627-.894 1.116-1.591 1.468-.691.345-1.506.518-2.443.518-1.242 0-2.238-.278-2.988-.835-.745-.562-1.205-1.374-1.38-2.434l2.469-.203c.129.528.358.912.686 1.152.328.24.741.36 1.239.36.633 0 1.128-.187 1.486-.562.357-.375.536-.906.536-1.591 0-.61-.173-1.096-.519-1.46-.346-.368-.829-.553-1.45-.553-.686 0-1.245.267-1.679.8h-2.408l.431-6.706h7.444v1.837h-5.203l-.202 2.865c.597-.527 1.344-.791 2.241-.791 1.178 0 2.118.363 2.821 1.09.709.72 1.064 1.676 1.064 2.865zm10.661-2.136c0 2.033-.399 3.592-1.195 4.676-.791 1.084-1.934 1.626-3.428 1.626-1.09 0-1.946-.231-2.567-.694-.615-.469-1.051-1.207-1.309-2.215l2.32-.325c.229.861.756 1.292 1.582 1.292.668 0 1.193-.305 1.573-.914.387-.616.586-1.535.598-2.76-.223.44-.589.785-1.099 1.037a3.669 3.669 0 01-1.634.37c-1.073 0-1.934-.361-2.584-1.082-.651-.72-.976-1.69-.976-2.91 0-1.247.381-2.229 1.143-2.943.761-.715 1.822-1.073 3.181-1.073 1.43 0 2.52.487 3.27 1.46.75.972 1.125 2.457 1.125 4.455zm-2.61-1.6c0-.714-.173-1.288-.519-1.722-.346-.44-.788-.66-1.327-.66-.533 0-.961.191-1.283.572-.317.375-.475.885-.475 1.53 0 .632.158 1.148.475 1.546.322.393.753.59 1.292.59.533 0 .972-.17 1.318-.51.346-.346.519-.794.519-1.345zm13.464 1.794c0 1.986-.375 3.5-1.125 4.544-.75 1.043-1.839 1.564-3.269 1.564-1.436 0-2.52-.519-3.252-1.556-.727-1.042-1.09-2.56-1.09-4.552 0-2.063.355-3.595 1.063-4.597.715-1.008 1.832-1.512 3.349-1.512 1.465 0 2.552.51 3.261 1.53.709 1.02 1.063 2.546 1.063 4.579zm-2.478 0c0-1.032-.062-1.846-.185-2.444-.123-.603-.313-1.043-.571-1.318-.258-.275-.627-.413-1.107-.413-.504 0-.891.138-1.161.413-.269.275-.465.715-.588 1.318-.118.598-.176 1.412-.176 2.444 0 1.02.061 1.83.184 2.434.129.604.326 1.043.589 1.319.264.275.636.413 1.116.413.68 0 1.166-.32 1.459-.958.293-.639.44-1.708.44-3.208zm-2.839 1.054v-2.188h1.89v2.188h-1.89zm7.673 4.878v-1.837h3.419v-7.83c-.229.48-.686.884-1.371 1.212a4.874 4.874 0 01-2.145.492v-1.88c.815 0 1.544-.18 2.189-.537a3.55 3.55 0 001.459-1.476h2.337v10.02h2.839v1.836h-8.727zm19.221-6.126c0 2.033-.398 3.592-1.195 4.676-.791 1.084-1.933 1.626-3.428 1.626-1.089 0-1.945-.231-2.566-.694-.615-.469-1.052-1.207-1.31-2.215l2.321-.325c.228.861.756 1.292 1.582 1.292.668 0 1.192-.305 1.573-.914.387-.616.586-1.535.598-2.76-.223.44-.589.785-1.099 1.037a3.676 3.676 0 01-1.635.37c-1.072 0-1.933-.361-2.584-1.082-.65-.72-.975-1.69-.975-2.91 0-1.247.381-2.229 1.142-2.943.762-.715 1.823-1.073 3.182-1.073 1.43 0 2.519.487 3.269 1.46.75.972 1.125 2.457 1.125 4.455zm-2.61-1.6c0-.714-.173-1.288-.518-1.722-.346-.44-.788-.66-1.328-.66-.533 0-.96.191-1.283.572-.316.375-.474.885-.474 1.53 0 .632.158 1.148.474 1.546.323.393.753.59 1.292.59.533 0 .973-.17 1.319-.51.345-.346.518-.794.518-1.345zm4.781 7.726V58.21c.293-.644.709-1.289 1.248-1.933.545-.65 1.336-1.398 2.373-2.241.809-.663 1.333-1.12 1.574-1.371.24-.252.427-.496.562-.73.141-.24.211-.483.211-.73 0-.421-.138-.752-.413-.993-.275-.24-.68-.36-1.213-.36-.527 0-.931.144-1.213.43-.275.282-.454.707-.536 1.275l-2.487-.14c.14-1.149.568-2.025 1.283-2.628.721-.604 1.699-.906 2.936-.906 1.277 0 2.288.293 3.032.88.744.58 1.116 1.359 1.116 2.337 0 .639-.202 1.263-.606 1.872-.399.604-.999 1.219-1.802 1.846-1.137.879-1.902 1.512-2.294 1.898-.393.387-.677.78-.853 1.178h5.748v2.03h-8.666zM265.333 78.837v-7.904h5.672v1.336h-3.944v1.898h3.586v1.336h-3.586V77.5h4.184v1.336h-5.912zm12.873-1.852c0 .614-.252 1.096-.756 1.448-.5.347-1.193.521-2.08.521-.871 0-1.539-.137-2.004-.41-.461-.277-.768-.707-.92-1.29l1.447-.216c.082.3.223.514.422.639.203.125.555.187 1.055.187.461 0 .797-.058 1.008-.175a.586.586 0 00.316-.551.552.552 0 00-.258-.48c-.168-.122-.455-.223-.861-.305-.93-.184-1.557-.354-1.881-.51a1.898 1.898 0 01-.744-.615c-.168-.254-.252-.565-.252-.932 0-.606.232-1.076.697-1.412.469-.34 1.131-.51 1.987-.51.754 0 1.359.147 1.816.44.461.292.748.716.861 1.271l-1.459.152c-.046-.257-.162-.449-.345-.574-.184-.129-.475-.193-.873-.193-.391 0-.684.05-.879.152-.196.098-.293.264-.293.498 0 .184.074.33.222.44.153.105.407.193.762.263.496.102.936.207 1.319.317.386.105.695.232.925.38.235.149.42.34.557.575.141.23.211.527.211.89zm2.66-3.375h-.978v-1.113h1.06l.516-1.652h1.031v1.652h2.256v1.113h-2.256v3.106c0 .344.031.576.094.697a.7.7 0 00.316.281c.145.067.348.1.609.1.485 0 .983-.053 1.495-.158v1.09c-.555.09-.948.142-1.178.158a8.57 8.57 0 01-.721.03c-.496 0-.912-.067-1.248-.2a1.537 1.537 0 01-.756-.633c-.168-.289-.252-.693-.252-1.213l.012-3.258zm9.938 4.114h2.068v1.113h-6.029v-1.113h2.314V73.61h-1.699v-1.113h3.346v5.227zm-1.647-6.37v-1.212h1.647v1.213h-1.647zm7.137 7.483V74.98c0-.582-.037-.986-.112-1.212-.07-.227-.203-.34-.398-.34-.199 0-.357.183-.475.55-.113.368-.17.85-.17 1.448v3.41h-1.341V73.85c0-.739-.012-1.19-.035-1.354h1.224l.035.744v.281h.012c.133-.398.301-.687.504-.867.203-.183.457-.275.762-.275.343 0 .599.094.767.281.172.188.295.477.369.867h.012c.156-.414.342-.709.557-.884.218-.176.494-.264.826-.264.461 0 .791.168.99.504.199.336.299.912.299 1.728v4.225h-1.336V74.98c0-.582-.037-.986-.111-1.212-.071-.227-.203-.34-.399-.34-.199 0-.357.158-.474.474-.114.313-.17.783-.17 1.412v3.522h-1.336zm6.844.117c-.614 0-1.092-.166-1.436-.498-.344-.336-.516-.807-.516-1.412 0-.656.203-1.154.61-1.494.41-.344 1.021-.522 1.834-.533l1.306-.024v-.322c0-.402-.068-.707-.205-.914-.136-.207-.357-.31-.662-.31-.285 0-.496.072-.633.216-.132.14-.214.367-.246.68l-1.717-.082c.211-1.254 1.1-1.881 2.666-1.881.79 0 1.393.193 1.811.58.422.387.633.955.633 1.705v2.297c0 .355.039.602.117.738.082.133.217.2.404.2.125 0 .246-.012.364-.036v.89l-.264.065c-.078.02-.156.035-.234.047a3.44 3.44 0 01-.557.041c-.414 0-.721-.101-.92-.304-.195-.204-.313-.502-.352-.897h-.035c-.246.441-.527.76-.843.955-.313.195-.688.293-1.125.293zm1.798-3.053l-.785.012c-.351.008-.607.045-.767.111a.694.694 0 00-.358.311c-.082.14-.123.334-.123.58 0 .594.235.89.703.89.379 0 .696-.148.949-.445.254-.3.381-.68.381-1.136V75.9zm4.758-2.29h-.978v-1.114h1.06l.516-1.652h1.031v1.652h2.256v1.113h-2.256v3.106c0 .344.031.576.094.697a.7.7 0 00.316.281c.145.067.348.1.61.1a7.43 7.43 0 001.494-.158v1.09c-.555.09-.948.142-1.178.158-.23.02-.471.03-.721.03-.496 0-.912-.067-1.248-.2a1.537 1.537 0 01-.756-.633c-.168-.289-.252-.693-.252-1.213l.012-3.258zm8.953 5.343c-.984 0-1.744-.289-2.279-.867-.535-.582-.803-1.398-.803-2.45 0-.702.125-1.296.375-1.78a2.58 2.58 0 011.078-1.102c.465-.25 1.016-.375 1.653-.375.926 0 1.644.309 2.156.926.512.617.768 1.494.768 2.63v.047h-4.301c0 .575.127 1.03.381 1.366.257.336.609.504 1.054.504.289 0 .545-.061.768-.182a.943.943 0 00.451-.574l1.553.134a2.518 2.518 0 01-1.072 1.278c-.5.297-1.094.445-1.782.445zm0-5.537c-.402 0-.722.137-.961.41-.238.27-.365.645-.381 1.125h2.696c-.028-.469-.162-.842-.404-1.119-.239-.277-.555-.416-.95-.416zm8.326 5.42a3.969 3.969 0 01-.058-.44 7.255 7.255 0 01-.029-.591h-.024c-.207.418-.463.715-.767.89-.305.172-.666.258-1.084.258-.7 0-1.25-.293-1.653-.879-.402-.586-.603-1.385-.603-2.396 0-1.035.201-1.842.603-2.42.406-.578.979-.867 1.717-.867.418 0 .781.095 1.09.287a1.8 1.8 0 01.709.832h.012l-.012-1.043v-2.326h1.646v7.312c0 .39.016.852.047 1.383h-1.594zm-.076-3.2c0-.675-.109-1.198-.328-1.57-.219-.37-.521-.556-.908-.556-.391 0-.688.183-.891.55-.199.364-.298.903-.298 1.618 0 .718.101 1.257.304 1.617.207.355.498.533.873.533a.95.95 0 00.651-.258c.191-.175.338-.425.439-.75.106-.324.158-.718.158-1.183zm16.436-.814c0 1.29-.301 2.282-.903 2.977-.601.691-1.458 1.037-2.572 1.037h-2.467v-7.904h2.116c1.281 0 2.238.322 2.871.966.636.641.955 1.616.955 2.924zm-1.74 0c0-.886-.168-1.533-.504-1.94-.332-.41-.869-.614-1.612-.614h-.357V77.5h.598c1.25 0 1.875-.893 1.875-2.678zm5.882 4.131c-.984 0-1.744-.289-2.279-.867-.535-.582-.803-1.398-.803-2.45 0-.702.125-1.296.375-1.78a2.577 2.577 0 011.079-1.102c.464-.25 1.015-.375 1.652-.375.926 0 1.644.309 2.156.926.512.617.768 1.494.768 2.63v.047h-4.301c0 .575.127 1.03.381 1.366.258.336.609.504 1.054.504.29 0 .545-.061.768-.182a.943.943 0 00.451-.574l1.553.134a2.518 2.518 0 01-1.072 1.278c-.5.297-1.094.445-1.782.445zm0-5.537c-.402 0-.722.137-.961.41-.238.27-.365.645-.38 1.125h2.695c-.027-.469-.162-.842-.404-1.119-.239-.277-.555-.416-.95-.416zm8.192 4.307h2.068v1.113h-6.029v-1.113h2.314v-6.47h-1.699v-1.112h3.346v7.582zm7.207 0h2.068v1.113h-6.029v-1.113h2.314V73.61h-1.699v-1.113h3.346v5.227zm-1.647-6.37v-1.212h1.647v1.213h-1.647zm8.737 7.483h-1.969l-2.385-6.34h1.74l1.225 3.645c.059.195.197.683.416 1.464.023-.093.094-.341.211-.744.121-.406.619-1.861 1.494-4.365h1.723l-2.455 6.34zm6.34.117c-.985 0-1.745-.289-2.28-.867-.535-.582-.802-1.398-.802-2.45 0-.702.125-1.296.375-1.78a2.57 2.57 0 011.078-1.102c.464-.25 1.015-.375 1.652-.375.926 0 1.645.309 2.156.926.512.617.768 1.494.768 2.63v.047h-4.301c0 .575.127 1.03.381 1.366.258.336.609.504 1.055.504.289 0 .544-.061.767-.182a.943.943 0 00.451-.574l1.553.134a2.518 2.518 0 01-1.072 1.278c-.5.297-1.094.445-1.781.445zm0-5.537c-.403 0-.723.137-.961.41-.239.27-.366.645-.381 1.125h2.695c-.027-.469-.162-.842-.404-1.119-.239-.277-.555-.416-.949-.416zm9.873.451a7.442 7.442 0 00-1.243-.111c-.609 0-1.093.23-1.453.691-.355.461-.533 1.069-.533 1.823v2.566h-1.641v-4.108a7.87 7.87 0 00-.082-1.048 9.856 9.856 0 00-.222-1.184h1.588c.14.508.23.953.269 1.336h.024c.195-.531.459-.906.791-1.125.332-.219.763-.328 1.295-.328.406 0 .808.033 1.207.1v1.388zm2.777 7.46c-.414 0-.77-.026-1.066-.077v-1.172l.298.03.299.017c.235 0 .428-.037.58-.111.157-.075.295-.198.416-.37.125-.171.264-.462.416-.873l-2.625-6.275h1.741l1.113 3.088c.156.426.353 1.078.592 1.957l.052-.217.475-1.717 1.055-3.11h1.722l-2.625 6.673c-.312.805-.654 1.365-1.025 1.681-.371.317-.844.475-1.418.475zm19.242-6.505c0 1.29-.301 2.282-.902 2.977-.602.691-1.459 1.037-2.572 1.037h-2.467v-7.904h2.115c1.281 0 2.238.322 2.871.966.637.641.955 1.616.955 2.924zm-1.74 0c0-.886-.168-1.533-.504-1.94-.332-.41-.869-.614-1.611-.614h-.358V77.5h.598c1.25 0 1.875-.893 1.875-2.678zm4.787 4.131c-.613 0-1.092-.166-1.436-.498-.343-.336-.515-.807-.515-1.412 0-.656.203-1.154.609-1.494.41-.344 1.022-.522 1.834-.533l1.307-.024v-.322c0-.402-.069-.707-.205-.914-.137-.207-.358-.31-.662-.31-.286 0-.496.072-.633.216-.133.14-.215.367-.246.68l-1.717-.082c.211-1.254 1.1-1.881 2.666-1.881.789 0 1.393.193 1.81.58.422.387.633.955.633 1.705v2.297c0 .355.039.602.117.738.083.133.217.2.405.2.125 0 .246-.012.363-.036v.89l-.264.065c-.078.02-.156.035-.234.047a3.423 3.423 0 01-.557.041c-.414 0-.72-.101-.92-.304-.195-.204-.312-.502-.351-.897h-.035c-.246.441-.528.76-.844.955-.313.195-.688.293-1.125.293zm1.799-3.053l-.785.012c-.352.008-.608.045-.768.111a.696.696 0 00-.357.311c-.082.14-.123.334-.123.58 0 .594.234.89.703.89.379 0 .695-.148.949-.445.254-.3.381-.68.381-1.136V75.9zm4.758-2.29h-.979v-1.114h1.061l.515-1.652h1.032v1.652h2.255v1.113h-2.255v3.106c0 .344.031.576.093.697a.703.703 0 00.317.281c.144.067.347.1.609.1a7.43 7.43 0 001.494-.158v1.09c-.554.09-.947.142-1.178.158-.23.02-.47.03-.72.03-.496 0-.912-.067-1.248-.2a1.537 1.537 0 01-.756-.633c-.168-.289-.252-.693-.252-1.213l.012-3.258zm8.953 5.343c-.985 0-1.744-.289-2.28-.867-.535-.582-.802-1.398-.802-2.45 0-.702.125-1.296.375-1.78a2.575 2.575 0 011.078-1.102c.465-.25 1.015-.375 1.652-.375.926 0 1.645.309 2.156.926.512.617.768 1.494.768 2.63v.047h-4.301c0 .575.127 1.03.381 1.366.258.336.609.504 1.055.504.289 0 .545-.061.767-.182a.948.948 0 00.452-.574l1.552.134a2.518 2.518 0 01-1.072 1.278c-.5.297-1.094.445-1.781.445zm0-5.537c-.403 0-.723.137-.961.41-.238.27-.365.645-.381 1.125h2.695c-.027-.469-.162-.842-.404-1.119-.238-.277-.555-.416-.949-.416zm6.293 5.42V77.05h1.693v1.787h-1.693zm0-4.57V72.48h1.693v1.787h-1.693zm-138.914 22.57v-7.629c0-.615.047-1.497.14-2.645-.345 1.699-.565 2.698-.659 2.997l-1.09 4.113h-1.916L289.5 89.56c-.17-.633-.393-1.632-.668-2.998l.061.88c.041.615.062 1.204.062 1.766v7.629h-1.934V84.98h3.05l1.187 4.385c.088.276.199.952.334 2.03.117-.908.234-1.582.351-2.021l1.196-4.394h2.944v11.856h-1.951zm6.688.176c-.92 0-1.638-.25-2.153-.747-.516-.504-.774-1.21-.774-2.119 0-.984.305-1.731.914-2.24.616-.516 1.533-.783 2.751-.8l1.96-.036v-.483c0-.604-.102-1.06-.307-1.371-.205-.31-.536-.466-.993-.466-.428 0-.745.108-.95.325-.199.211-.322.551-.369 1.02l-2.575-.123c.316-1.881 1.649-2.822 3.999-2.822 1.184 0 2.089.29 2.716.87.633.58.949 1.433.949 2.558v3.445c0 .534.059.903.176 1.108.123.2.325.299.606.299.188 0 .369-.018.545-.053v1.336c-.146.035-.278.067-.395.097a3.982 3.982 0 01-.352.07 5.137 5.137 0 01-.835.062c-.621 0-1.081-.153-1.38-.458-.293-.304-.468-.753-.527-1.344h-.053c-.369.662-.791 1.14-1.265 1.432-.469.293-1.032.44-1.688.44zm2.698-4.58l-1.177.018c-.528.012-.911.068-1.152.167a1.045 1.045 0 00-.536.466c-.123.21-.184.501-.184.87 0 .89.351 1.336 1.054 1.336.569 0 1.043-.223 1.424-.668.381-.451.571-1.02.571-1.705v-.483zm13.755-3.05a11.157 11.157 0 00-1.863-.166c-.914 0-1.641.346-2.18 1.037-.533.691-.8 1.602-.8 2.733v3.85h-2.46v-6.161c0-.445-.041-.97-.123-1.573a15.094 15.094 0 00-.334-1.776h2.381c.211.762.346 1.43.405 2.004h.035c.293-.797.688-1.36 1.186-1.687.498-.329 1.146-.493 1.943-.493.609 0 1.213.05 1.81.15v2.083zm6.794 7.63c-1.441 0-2.554-.428-3.34-1.284-.785-.86-1.177-2.06-1.177-3.594 0-1.57.395-2.792 1.186-3.665.791-.88 1.913-1.319 3.366-1.319 1.12 0 2.045.282 2.778.844.732.563 1.192 1.339 1.38 2.33l-2.488.122c-.07-.486-.246-.873-.527-1.16-.281-.293-.68-.44-1.195-.44-1.272 0-1.908 1.064-1.908 3.191 0 2.192.648 3.287 1.943 3.287.469 0 .861-.146 1.178-.44.316-.298.512-.74.588-1.326l2.479.114a3.724 3.724 0 01-2.189 2.927c-.615.275-1.306.413-2.074.413zm9.018-7.787c.334-.727.753-1.254 1.257-1.582.504-.329 1.104-.493 1.801-.493.985 0 1.723.3 2.215.897.492.597.739 1.517.739 2.76v6.029h-2.461v-5.458c0-.885-.121-1.5-.361-1.846-.234-.351-.621-.527-1.16-.527-.598 0-1.081.258-1.45.773-.363.51-.545 1.166-.545 1.969v5.089h-2.47V83.794h2.47v3.56c0 .638-.023 1.262-.07 1.872h.035zm19.011 7.61v-1.713c.293-.645.709-1.289 1.248-1.934.545-.65 1.336-1.397 2.373-2.24.808-.663 1.333-1.12 1.573-1.372s.428-.495.562-.73c.141-.24.211-.483.211-.729 0-.422-.137-.753-.413-.993-.275-.24-.679-.36-1.213-.36-.527 0-.931.143-1.213.43-.275.282-.454.706-.536 1.275l-2.487-.14c.141-1.15.568-2.025 1.283-2.629.721-.603 1.699-.905 2.936-.905 1.277 0 2.288.293 3.032.879.744.58 1.116 1.36 1.116 2.338 0 .638-.202 1.262-.606 1.872-.399.603-.999 1.218-1.802 1.846-1.137.878-1.901 1.511-2.294 1.898s-.677.78-.852 1.178h5.748v2.03h-8.666zm19.45-6.125c0 2.033-.399 3.592-1.196 4.676-.791 1.084-1.933 1.626-3.427 1.626-1.09 0-1.946-.232-2.567-.695-.615-.468-1.051-1.207-1.309-2.215l2.32-.325c.229.862.756 1.292 1.582 1.292.668 0 1.192-.304 1.573-.914.387-.615.586-1.535.598-2.76-.223.44-.589.786-1.099 1.038a3.675 3.675 0 01-1.634.369c-1.073 0-1.934-.36-2.584-1.081-.651-.721-.976-1.69-.976-2.91 0-1.248.381-2.229 1.143-2.944.761-.715 1.822-1.072 3.181-1.072 1.43 0 2.52.486 3.27 1.459.75.973 1.125 2.458 1.125 4.456zm-2.611-1.6c0-.715-.172-1.289-.518-1.722-.346-.44-.788-.66-1.327-.66-.534 0-.961.19-1.284.572-.316.375-.474.885-.474 1.53 0 .632.158 1.147.474 1.546.323.392.753.589 1.292.589.534 0 .973-.17 1.319-.51.346-.346.518-.794.518-1.345zm5.968 10.916l1.486-5.818h2.768l-2.733 5.818h-1.521zm20.435-3.19v-1.714c.293-.645.709-1.289 1.248-1.934.545-.65 1.336-1.397 2.373-2.24.808-.663 1.333-1.12 1.573-1.372s.428-.495.563-.73c.14-.24.21-.483.21-.729 0-.422-.137-.753-.413-.993-.275-.24-.679-.36-1.212-.36-.528 0-.932.143-1.213.43-.276.282-.454.706-.537 1.275l-2.487-.14c.141-1.15.569-2.025 1.283-2.629.721-.603 1.7-.905 2.936-.905 1.277 0 2.288.293 3.032.879.744.58 1.116 1.36 1.116 2.338 0 .638-.202 1.262-.606 1.872-.399.603-.999 1.218-1.802 1.846-1.137.878-1.901 1.511-2.294 1.898-.392.387-.677.78-.852 1.178h5.748v2.03h-8.666zm19.494-5.933c0 1.987-.375 3.501-1.125 4.544-.75 1.043-1.84 1.565-3.27 1.565-1.435 0-2.519-.519-3.252-1.556-.726-1.043-1.089-2.56-1.089-4.553 0-2.062.354-3.594 1.063-4.596.715-1.008 1.831-1.512 3.349-1.512 1.464 0 2.551.51 3.26 1.53.709 1.019 1.064 2.545 1.064 4.578zm-2.479 0c0-1.031-.061-1.845-.184-2.443-.123-.604-.314-1.043-.572-1.318-.257-.276-.626-.413-1.107-.413-.504 0-.891.137-1.16.413-.27.275-.466.714-.589 1.318-.117.598-.176 1.412-.176 2.443 0 1.02.062 1.831.185 2.435.129.603.325 1.043.589 1.318.263.276.635.413 1.116.413.68 0 1.166-.319 1.459-.958.293-.638.439-1.708.439-3.208zm-2.839 1.055V89.77h1.89v2.189h-1.89zm7.673 4.878V95h3.419v-7.831c-.228.48-.685.885-1.371 1.213a4.87 4.87 0 01-2.144.492v-1.88c.814 0 1.544-.18 2.188-.537a3.539 3.539 0 001.459-1.476h2.338V95h2.839v1.837h-8.728zm19.222-6.126c0 2.033-.398 3.592-1.195 4.676-.791 1.084-1.934 1.626-3.428 1.626-1.09 0-1.945-.232-2.566-.695-.616-.468-1.052-1.207-1.31-2.215l2.32-.325c.229.862.756 1.292 1.582 1.292.668 0 1.193-.304 1.574-.914.386-.615.586-1.535.597-2.76-.222.44-.589.786-1.098 1.038a3.676 3.676 0 01-1.635.369c-1.072 0-1.934-.36-2.584-1.081-.651-.721-.976-1.69-.976-2.91 0-1.248.381-2.229 1.143-2.944.762-.715 1.822-1.072 3.181-1.072 1.43 0 2.52.486 3.27 1.459.75.973 1.125 2.458 1.125 4.456zm-2.61-1.6c0-.715-.173-1.289-.519-1.722-.346-.44-.788-.66-1.327-.66-.533 0-.961.19-1.283.572-.317.375-.475.885-.475 1.53 0 .632.158 1.147.475 1.546.322.392.753.589 1.292.589.533 0 .972-.17 1.318-.51.346-.346.519-.794.519-1.345z" fill="#fff"/><path fill="#004679" d="M183.742 18.78h4.189v99.902h-4.189zm26.708 0h4.189v99.902h-4.189z"/><path fill="#055A98" d="M181.647 67.743h8.379v2.615h-8.379zm26.708 0h7.855v2.615h-7.855z"/><path d="M22.004 123.707C3.283 120.969-.464 107.679.044 101.759h124.882c.739 0 1.367.413 1.739 1.052 7.318 12.56 21.016 15.165 42.81 15.193 102.66.131 307.978.316 307.978 0 0 27.783-18.527 53.409-27.79 62.749l4.187 7.103c-139.84.526-419.433.698-420.865.698.609-7.262 7.183-11.09 10.482-11.748 4.317-.861 11.954-.868 14.086-10.655 2.664-12.234-11.678-38.952-35.549-42.444z" fill="url(#paint7_linear)"/><mask id="a" maskUnits="userSpaceOnUse" x="0" y="101" width="478" height="88"><path d="M22.004 123.707C3.283 120.969-.464 107.679.044 101.759h124.882c.739 0 1.367.413 1.739 1.052 7.318 12.56 21.016 15.165 42.81 15.193 102.66.131 307.978.316 307.978 0 0 27.783-18.527 53.409-27.79 62.749l4.187 7.103c-139.84.526-419.433.698-420.865.698.609-7.262 7.183-11.09 10.482-11.748 4.317-.861 11.954-.868 14.086-10.655 2.664-12.234-11.678-38.952-35.549-42.444z" fill="url(#paint8_linear)"/></mask><g mask="url(#a)"><path d="M-.999 89.787l480.45 27.934-12.831 63.849-469.617-2.494 1.998-89.289z" fill="#333"/></g><path d="M156.82 118.719v-6.979a2 2 0 012-2h316.633a2 2 0 012 2v6.953" stroke="#333"/><path d="M164.811 109.74h.999v8.979h-.999v-8.979zm7.991 0h.999v8.979h-.999v-8.979zm7.991 0h.999v8.979h-.999v-8.979zm7.991 0h.999v8.979h-.999v-8.979zm7.991 0h.999v8.979h-.999v-8.979zm7.991 0h.998v8.979h-.998v-8.979zm7.99 0h.999v8.979h-.999v-8.979zm7.991 0h.999v8.979h-.999v-8.979zm7.991 0h.999v8.979h-.999v-8.979zm7.991 0h.999v8.979h-.999v-8.979zm7.991 0h.999v8.979h-.999v-8.979zm7.991 0h.998v8.979h-.998v-8.979zm7.99 0h.999v8.979h-.999v-8.979zm7.991 0h.999v8.979h-.999v-8.979zm7.991 0h.999v8.979h-.999v-8.979zm7.991 0h.999v8.979h-.999v-8.979zm7.991 0h.999v8.979h-.999v-8.979zm7.991 0h.999v8.979h-.999v-8.979zm7.991 0h.998v8.979h-.998v-8.979zm7.99 0h.999v8.979h-.999v-8.979zm7.991 0h.999v8.979h-.999v-8.979zm7.991 0h.999v8.979h-.999v-8.979zm7.991 0h.999v8.979h-.999v-8.979zm7.991 0h.999v8.979h-.999v-8.979zm7.991 0h.998v8.979h-.998v-8.979zm7.99 0h.999v8.979h-.999v-8.979z" fill="#333"/><path d="M268.692 109.74h.999v8.979h-.999v-8.979zm7.991 0h.999v8.979h-.999v-8.979zm7.991 0h.999v8.979h-.999v-8.979zm7.991 0h.999v8.979h-.999v-8.979zm7.991 0h.999v8.979h-.999v-8.979zm7.991 0h.998v8.979h-.998v-8.979zm7.99 0h.999v8.979h-.999v-8.979zm7.991 0h.999v8.979h-.999v-8.979zm7.991 0h.999v8.979h-.999v-8.979zm7.991 0h.999v8.979h-.999v-8.979zm7.991 0h.999v8.979h-.999v-8.979zm7.991 0h.998v8.979h-.998v-8.979zm7.99 0h.999v8.979h-.999v-8.979zm7.991 0h.999v8.979h-.999v-8.979zm7.991 0h.999v8.979h-.999v-8.979zm7.991 0h.999v8.979h-.999v-8.979zm7.991 0h.999v8.979h-.999v-8.979zm7.991 0h.999v8.979h-.999v-8.979zm7.991 0h.998v8.979h-.998v-8.979zm7.99 0h.999v8.979h-.999v-8.979zm7.991 0h.999v8.979h-.999v-8.979zm7.991 0h.999v8.979h-.999v-8.979zm7.991 0h.999v8.979h-.999v-8.979zm7.991 0h.999v8.979h-.999v-8.979zm7.991 0h.998v8.979h-.998v-8.979zm7.99 0h.999v8.979h-.999v-8.979z" fill="#333"/><path d="M.999 101.759V94.78a2 2 0 012-2H110.87a2 2 0 012 2v6.953" stroke="#333"/><path d="M8.99 92.78h.999v8.979h-1V92.78zm7.99 0h1v8.979h-1V92.78zm7.991 0h1v8.979h-1V92.78zm7.991 0h1v8.979h-1V92.78zm7.991 0h.999v8.979h-.999V92.78zm7.991 0h.999v8.979h-.999V92.78zm7.991 0h.999v8.979h-1V92.78zm7.991 0h.998v8.979h-.998V92.78zm7.99 0h1v8.979h-1V92.78zm7.991 0h1v8.979h-1V92.78zm7.991 0h1v8.979h-1V92.78zm7.992 0h.998v8.979h-.999V92.78zm7.99 0h.999v8.979h-.999V92.78z" fill="#333"/><ellipse cx="440.995" cy="139.171" rx="8.49" ry="8.48" fill="#4A5057"/><ellipse cx="440.995" cy="139.17" rx="6.493" ry="6.485" fill="#333"/><ellipse cx="75.414" cy="139.171" rx="8.49" ry="8.48" fill="#4A5057"/><ellipse cx="75.414" cy="139.17" rx="6.493" ry="6.485" fill="#333"/><path d="M56.435 174.386c-24.77 2.72-36.957 10.641-40.453 16.959C5.106 211-.998 218.483 24.472 218.483c126.189 1.163 363.084 0 406.534 0 52.592 0 51.941-3.492 56.935-7.483 4.068-3.25 24.971-16.595 0-19.655 0 0-10.488-8.278-18.978-6.983-12.343 1.883-20.976-2.293-34.461-7.78-13.484-5.487-30.964 2.293-50.442 7.78-11.823 3.331-33.961 1.995-54.937-5.487-20.976-7.483-48.944-8.778-70.419 0-16.518 6.751-38.456 7.683-62.429 0-20.668-6.625-45.947-7.281-68.421 0-27.355 8.862-41.453-7.78-71.418-4.489z" fill="url(#paint9_linear)"/><defs><linearGradient id="paint0_linear" x1="420.345" y1="30.847" x2="420.345" y2="105.643" gradientUnits="userSpaceOnUse"><stop stop-color="#004A79"/><stop offset="1" stop-color="#37AAFF"/></linearGradient><linearGradient id="paint1_linear" x1="420.345" y1="30.847" x2="420.345" y2="105.643" gradientUnits="userSpaceOnUse"><stop stop-color="#004A79"/><stop offset="1" stop-color="#37AAFF"/></linearGradient><linearGradient id="paint2_linear" x1="420.345" y1="30.847" x2="420.345" y2="105.643" gradientUnits="userSpaceOnUse"><stop stop-color="#004A79"/><stop offset="1" stop-color="#37AAFF"/></linearGradient><linearGradient id="paint3_linear" x1="420.345" y1="30.847" x2="420.345" y2="105.643" gradientUnits="userSpaceOnUse"><stop stop-color="#004A79"/><stop offset="1" stop-color="#37AAFF"/></linearGradient><linearGradient id="paint4_linear" x1="420.345" y1="30.847" x2="420.345" y2="105.643" gradientUnits="userSpaceOnUse"><stop stop-color="#004A79"/><stop offset="1" stop-color="#37AAFF"/></linearGradient><linearGradient id="paint5_linear" x1="420.345" y1="30.847" x2="420.345" y2="105.643" gradientUnits="userSpaceOnUse"><stop stop-color="#004A79"/><stop offset="1" stop-color="#37AAFF"/></linearGradient><linearGradient id="paint6_linear" x1="420.345" y1="30.847" x2="420.345" y2="105.643" gradientUnits="userSpaceOnUse"><stop stop-color="#004A79"/><stop offset="1" stop-color="#37AAFF"/></linearGradient><linearGradient id="paint7_linear" x1="238.727" y1="101.759" x2="238.727" y2="188.554" gradientUnits="userSpaceOnUse"><stop stop-color="#33383E"/><stop offset="1" stop-color="#4B5158"/></linearGradient><linearGradient id="paint8_linear" x1="238.727" y1="101.759" x2="238.727" y2="188.554" gradientUnits="userSpaceOnUse"><stop stop-color="#33383E"/><stop offset="1" stop-color="#4B5158"/></linearGradient><linearGradient id="paint9_linear" x1="285.014" y1="170.596" x2="285.014" y2="246.626" gradientUnits="userSpaceOnUse"><stop stop-color="#3CABFF"/><stop offset=".343" stop-color="#ECF4FA"/></linearGradient></defs></svg>