<svg width="458" height="257" fill="none" xmlns="http://www.w3.org/2000/svg"><path d="M0 218a2 2 0 012-2h216a2 2 0 012 2v1H0v-1z" fill="#981B1E"/><path d="M238 218a2 2 0 012-2h216a2 2 0 012 2v1H238v-1z" fill="#4A9029"/><path transform="matrix(-1 0 0 1 120 38.25)" fill="url(#paint0_linear)" d="M0 0h59v173.25H0z"/><path transform="matrix(-1 0 0 1 131 38.25)" fill="url(#paint1_linear)" d="M0 0h11v173.25H0z"/><path transform="matrix(-1 0 0 1 263 72.75)" fill="url(#paint2_linear)" d="M0 0h67v150.75H0z"/><path transform="matrix(-1 0 0 1 275 72.75)" fill="url(#paint3_linear)" d="M0 0h12v150.75H0z"/><path transform="matrix(-1 0 0 1 326 0)" fill="url(#paint4_linear)" d="M0 0h47v173.25H0z"/><path transform="matrix(-1 0 0 1 334 0)" fill="url(#paint5_linear)" d="M0 0h8v173.25H0z"/><path transform="matrix(-1 0 0 1 412 72.75)" fill="url(#paint6_linear)" d="M0 0h66v173.25H0z"/><path transform="matrix(-1 0 0 1 423 72.75)" fill="url(#paint7_linear)" d="M0 0h11v173.25H0z"/><path d="M399 86.25h-1v99h1v-99zm-8 0h-1v99h1v-99zm-8 0h-1v99h1v-99zm-8 0h-1v99h1v-99zm-8 0h-1v99h1v-99zm-8 0h-1v99h1v-99zM317 7.5h-.732v162.75H317V7.5zm-5.854 0h-.731v162.75h.731V7.5zm-5.853 0h-.732v162.75h.732V7.5zm-5.854 0h-.732v162.75h.732V7.5zm-5.854 0h-.731v162.75h.731V7.5zm-5.853 0H287v162.75h.732V7.5z" opacity=".4" fill="#C4C4C4"/><g opacity=".4" fill="#C4C4C4"><path d="M255 80.25h-.732v133.5H255V80.25zm-5.854 0h-.731v133.5h.731V80.25zm-5.853 0h-.732v133.5h.732V80.25zm-5.854 0h-.732v133.5h.732V80.25zm-5.854 0h-.731v133.5h.731V80.25zm-5.853 0H225v133.5h.732V80.25z"/><path d="M232 80.25h-.732v133.5H232V80.25zm-5.854 0h-.731v133.5h.731V80.25zm-5.853 0h-.732v133.5h.732V80.25zm-5.854 0h-.732v133.5h.732V80.25zm-5.854 0h-.731v133.5h.731V80.25zm-5.853 0H202v133.5h.732V80.25z"/></g><g opacity=".4" fill="#C4C4C4"><path d="M116 45.75h-.732v133.5H116V45.75zm-5.854 0h-.731v133.5h.731V45.75zm-5.853 0h-.732v133.5h.732V45.75zm-5.854 0h-.732v133.5h.732V45.75zm-5.854 0h-.731v133.5h.731V45.75zm-5.853 0H86v133.5h.732V45.75z"/><path d="M93 45.75h-.732v133.5H93V45.75zm-5.854 0h-.731v133.5h.731V45.75zm-5.853 0h-.732v133.5h.732V45.75zm-5.854 0h-.732v133.5h.732V45.75zm-5.854 0h-.731v133.5h.731V45.75zm-5.853 0H63v133.5h.732V45.75z"/></g><path d="M445.308 209.001H274.651c-13.352 0-19.611 0-21.697-7.928-1.669-6.342 3.755-12.657 6.676-15.021v-17.108c11.127-4.172 40.641-12.601 69.682-12.934 36.301-.418 61.336 12.934 84.285 21.28 37.209 9.063 35.049 20.028 35.049 25.035 0 4.005 2.087 5.424-3.338 6.676z" fill="#37AAFF"/><path d="M424.028 206.497H290.507v2.504h138.528l-5.007-2.504z" fill="#004679"/><circle r="15.356" transform="matrix(-1 0 0 1 409.842 200.656)" fill="#055A98" stroke="#004679"/><circle r="8.68" transform="matrix(-1 0 0 1 409.842 200.656)" fill="#004679" stroke="#004679"/><circle r="15.356" transform="matrix(-1 0 0 1 288.003 200.656)" fill="#055A98" stroke="#004679"/><circle r="8.68" transform="matrix(-1 0 0 1 288.004 200.656)" fill="#004679" stroke="#004679"/><path d="M267.141 176.872l-7.511-7.51v16.273l7.511-7.511v-1.252z" fill="#004679"/><path d="M431.956 186.469h6.259c2.67.668 6.815 4.312 8.345 6.259l-8.345.417c-1.53-1.252-4.924-3.922-6.259-4.59-1.335-.667-.556-1.669 0-2.086z" fill="url(#paint8_linear)"/><path d="M301.773 174.786h91.796c-17.108-10.431-44.646-15.021-64.257-15.021-8.55 0-28.029 1.681-35.469 3.437-1.815.428-1.966 2.069-.622 3.361l8.552 8.223z" fill="url(#paint9_linear)"/><path d="M341.412 178.124h-10.014l1.669 1.252h10.014l-1.669-1.252zm109.321 24.201h-15.856v.835h15.856zm-1.669-1.669h-15.856v.835h15.856z" fill="#004679"/><path opacity=".4" d="M372.556 193.206a4 4 0 00-2.522-.895h-46.702c-3.405 0-5.253 3.984-3.053 6.583l2.41 2.849a4 4 0 003.053 1.416h47.798c3.766 0 5.445-4.729 2.522-7.104l-3.506-2.849z" fill="#004679"/><circle cx="110" cy="241" r="14.5" stroke="#981B1E"/><path d="M105.707 235.293a.999.999 0 10-1.414 1.414l1.414-1.414zm8.586 11.414a.999.999 0 101.414-1.414l-1.414 1.414zm1.414-10a.999.999 0 10-1.414-1.414l1.414 1.414zm-11.414 8.586a.999.999 0 101.414 1.414l-1.414-1.414zm0-8.586l10 10 1.414-1.414-10-10-1.414 1.414zm10-1.414l-10 10 1.414 1.414 10-10-1.414-1.414z" fill="#981B1E"/><circle cx="348" cy="242" r="14.5" stroke="#4A9029"/><path d="M343.707 242.293a.999.999 0 10-1.414 1.414l1.414-1.414zm1.793 3.207l-.707.707.707.707.707-.707-.707-.707zm8.207-6.793a.999.999 0 10-1.414-1.414l1.414 1.414zm-11.414 5l2.5 2.5 1.414-1.414-2.5-2.5-1.414 1.414zm10-6.414l-7.5 7.5 1.414 1.414 7.5-7.5-1.414-1.414z" fill="#4A9029"/><path fill="#FDB81E" d="M102 158h19v30h-19z"/><path d="M111 120l-6-1v3l6-1v-1zm-21-1h-6v3h6v-3zm-11 0h-5v16h5v-16zm5 16H72.5v3.5l2 3.5h6l3.5-4.5V135zm21-15H90v1h15v-1z" fill="#FB8504"/><path d="M84 118H63v5h21v-5z" fill="#FB8504"/><path d="M202 170v-3.244c0-.768-.44-1.468-1.131-1.802l-27.666-13.342-6.038-2.541v-1.906l-3.068-3.486a1.996 1.996 0 00-1.501-.679H151l-3.183-1.631a2 2 0 01-1.089-1.78V139a2 2 0 00-2-2H130.15a2 2 0 00-2 2v1.812h-5.109v-.541a2 2 0 00-2-2H29.064a2 2 0 00-1.347.522l-1.389 1.266a2 2 0 00-.617 1.85l3.043 16.056H19v3.435a2 2 0 001.616 1.963l1.488.29c1.697.332 1.807 2.719.147 3.206V178l10.627 7.548c.339.241.743.37 1.158.37h4.007V189a2 2 0 002 2h143.378l16.928-13.892a1.854 1.854 0 00.077-2.799 1.855 1.855 0 01-.057-2.678L202 170z" fill="#FDB81E"/><path d="M165.593 163.897L183.5 191h-143c-2.4 0-7.667-4.667-7.5-5.5h5.5L45 163h118.924a2 2 0 011.669.897z" fill="#FDB81E"/><path d="M28.5 158H19v4c0 1.5 3.5 1.5 4 2.5.4.8-.333 2.167-1 2.5v11l23-14.5-16.5-5.5z" fill="#FDB81E"/><circle cx="70" cy="191" r="22.5" fill="#4B5158" stroke="#2B3138"/><circle cx="70" cy="191" r="24" stroke="#4B5158" stroke-width="2" stroke-dasharray="2 2"/><circle cx="70" cy="191" r="14" fill="#4B5158" opacity=".45"/><circle cx="69.82" cy="191.18" r="8.68" fill="#4B5158" stroke="#1F242A"/><circle cx="45.5" cy="163.5" r=".5" fill="#350004"/><circle cx="82.5" cy="138.5" r=".5" fill="#350004"/><circle cx="79.5" cy="138.5" r=".5" fill="#350004"/><circle cx="76.5" cy="138.5" r=".5" fill="#350004"/><circle cx="73.5" cy="138.5" r=".5" fill="#350004"/><circle cx="129.5" cy="140.5" r=".5" fill="#350004"/><circle cx="132.5" cy="140.5" r=".5" fill="#350004"/><circle cx="135.5" cy="140.5" r=".5" fill="#350004"/><circle cx="138.5" cy="140.5" r=".5" fill="#350004"/><circle cx="141.5" cy="140.5" r=".5" fill="#350004"/><circle cx="144.5" cy="140.5" r=".5" fill="#350004"/><path d="M165 163.5l35.5 12c-2-2.8.167-4.833 1.5-5.5l-37-6.5z" fill="#FB8504"/><path d="M165.5 163l1.5-13.5M45.427 163.54L29 158m16.427 5.54L23 177.5m80.5-14l47-20m-105 20L128 141m-99 17l94-17.5" stroke="#6B0F12" stroke-linecap="round"/><path d="M119 163h-19v1h19v-1zm0 3h-19v1h19v-1zm0 3h-19v1h19v-1zm0 3h-19v1h19v-1zm0 3h-19v1h19v-1zm0 3h-19v1h19v-1zm0 3h-19v1h19v-1zm0 3h-19v1h19v-1zm0 3h-19v1h19v-1zm0 3h-19v1h19v-1z" fill="#6B0F12"/><circle cx="148" cy="191" r="22.5" fill="#4B5158" stroke="#2B3138"/><circle cx="148" cy="191" r="24" stroke="#4B5158" stroke-width="2" stroke-dasharray="2 2"/><circle cx="148" cy="191" r="14" fill="#4B5158" opacity=".45"/><circle cx="147.82" cy="191.18" r="8.68" fill="#4B5158" stroke="#1F242A"/><defs><linearGradient id="paint0_linear" x1="29.5" y1="0" x2="29.5" y2="173.25" gradientUnits="userSpaceOnUse"><stop stop-color="#CCE6FF"/><stop offset="1" stop-color="#E6F2FF" stop-opacity="0"/></linearGradient><linearGradient id="paint1_linear" x1="5.5" y1="0" x2="5.5" y2="173.25" gradientUnits="userSpaceOnUse"><stop stop-color="#E6F2FF"/><stop offset="1" stop-color="#E6F2FF" stop-opacity="0"/></linearGradient><linearGradient id="paint2_linear" x1="33.5" y1="0" x2="33.5" y2="150.75" gradientUnits="userSpaceOnUse"><stop stop-color="#CCE6FF"/><stop offset="1" stop-color="#E6F2FF" stop-opacity="0"/></linearGradient><linearGradient id="paint3_linear" x1="6" y1="0" x2="6" y2="150.75" gradientUnits="userSpaceOnUse"><stop stop-color="#E6F2FF"/><stop offset="1" stop-color="#E6F2FF" stop-opacity="0"/></linearGradient><linearGradient id="paint4_linear" x1="23.5" y1="0" x2="23.5" y2="173.25" gradientUnits="userSpaceOnUse"><stop stop-color="#CCE6FF"/><stop offset="1" stop-color="#E6F2FF" stop-opacity="0"/></linearGradient><linearGradient id="paint5_linear" x1="4" y1="0" x2="4" y2="173.25" gradientUnits="userSpaceOnUse"><stop stop-color="#E6F2FF"/><stop offset="1" stop-color="#E6F2FF" stop-opacity="0"/></linearGradient><linearGradient id="paint6_linear" x1="33" y1="0" x2="33" y2="173.25" gradientUnits="userSpaceOnUse"><stop stop-color="#CCE6FF"/><stop offset="1" stop-color="#E6F2FF" stop-opacity="0"/></linearGradient><linearGradient id="paint7_linear" x1="5.5" y1="0" x2="5.5" y2="173.25" gradientUnits="userSpaceOnUse"><stop stop-color="#E6F2FF"/><stop offset="1" stop-color="#E6F2FF" stop-opacity="0"/></linearGradient><linearGradient id="paint8_linear" x1="438.681" y1="186.469" x2="438.681" y2="193.145" gradientUnits="userSpaceOnUse"><stop stop-color="#fff"/><stop offset="1" stop-color="#C4C4C4" stop-opacity="0"/></linearGradient><linearGradient id="paint9_linear" x1="305.5" y1="148" x2="403.5" y2="184" gradientUnits="userSpaceOnUse"><stop stop-color="#fff"/><stop offset="1" stop-color="#fff" stop-opacity="0"/></linearGradient></defs></svg>