<svg width="347" height="261" fill="none" xmlns="http://www.w3.org/2000/svg"><ellipse opacity=".2" cx="169.517" cy="130.5" rx="130.513" ry="130.5" fill="#37AAFF"/><path fill="#004679" d="M114.012 59h112.012v120H114.012z"/><path fill="#fff" d="M118.012 63h104.011v92H118.012z"/><path fill="url(#paint0_linear)" d="M116.012 130h105.011v25H116.012z"/><path opacity=".4" d="M181.019 93.5L144.015 130h78.008V67.5L188.519 101l-7.5-7.5z" fill="#CCE7FB"/><path d="M215.386 126.757h-82.943c-6.49 0-9.532 0-10.546-3.853-.811-3.082 1.825-6.15 3.245-7.3v-8.313c5.408-2.028 19.752-6.124 33.867-6.286 17.643-.203 29.811 6.286 40.965 10.341 18.084 4.405 17.035 9.733 17.035 12.167 0 1.946 1.013 2.636-1.623 3.244z" fill="#37AAFF"/><path d="M205.043 125.541h-64.894v1.216h67.328l-2.434-1.216z" fill="#004679"/><path d="M190.942 122.702a7.206 7.206 0 1014.413-.003 7.206 7.206 0 00-14.413.003z" fill="#055A98" stroke="#004679"/><circle r="3.961" transform="matrix(-1 0 0 1 198.149 122.702)" fill="#004679" stroke="#004679"/><path d="M131.726 122.702a7.205 7.205 0 007.206 7.205 7.205 7.205 0 100-14.411 7.206 7.206 0 00-7.206 7.206z" fill="#055A98" stroke="#004679"/><circle r="3.961" transform="matrix(-1 0 0 1 138.932 122.702)" fill="#004679" stroke="#004679"/><path d="M128.792 111.143l-3.65-3.65v7.909l3.65-3.65v-.609z" fill="#004679"/><path d="M208.897 115.807h3.042c1.298.325 3.312 2.096 4.056 3.042l-4.056.203c-.743-.609-2.393-1.906-3.042-2.231-.648-.324-.27-.811 0-1.014z" fill="url(#paint1_linear)"/><path d="M145.624 110.129h44.615c-8.314-5.069-21.699-7.299-31.23-7.299-3.636 0-11.337.625-15.629 1.353-1.838.312-2.076 1.793-.731 3.086l2.975 2.86z" fill="url(#paint2_linear)"/><path d="M164.89 111.752h-4.867l.812.608h4.866l-.811-.608zm53.132 11.761h-7.705v.406h7.705zm-.811-.811h-7.705v.406h7.705z" fill="#004679"/><path opacity=".4" d="M180.217 119.236a2.633 2.633 0 00-1.662-.59h-20.96c-2.245 0-3.462 2.626-2.012 4.339.5.592 1.236.933 2.012.933h20.96c2.482 0 3.589-3.117 1.662-4.682z" fill="url(#paint3_linear)"/><path opacity=".2" d="M138.514 179l-24.502-87.5 12.501 87.5h12.001zm53.506 0l33.503-81.5-21.502 81.5H192.02z" fill="#000"/><path fill="#004679" d="M0 93.783l109.669-22.785 24.41 117.492-109.668 22.785z"/><path fill="#fff" d="M4.73 96.886l101.835-21.158 18.715 90.077-101.835 21.157z"/><path fill="#004679" d="M231.629 80l106.369 35.098-37.61 113.956-106.368-35.099z"/><path fill="#fff" d="M234.175 85.052l98.772 32.592-28.834 87.365-98.772-32.591zM56.572 187.989l.78 3.533 4.835-1.066.249 1.13-4.835 1.066.853 3.87-1.366.301-2.128-9.649 6.373-1.405.246 1.116-5.007 1.104zm14.771 5.69l-3.525-3.535-1.702.375.907 4.113-1.366.301-2.128-9.648 3.447-.76c1.111-.245 2.009-.201 2.692.133.683.33 1.119.924 1.308 1.782.157.711.065 1.358-.276 1.944-.336.584-.865 1.02-1.586 1.309l3.802 3.639-1.573.347zm-1.735-6.915c-.235-1.063-1.077-1.435-2.526-1.115l-1.946.429.742 3.361 2.002-.441c.682-.151 1.17-.418 1.466-.803.3-.386.387-.863.262-1.431zm10.667-.162c.354 1.607.31 2.914-.133 3.922-.438 1.007-1.248 1.64-2.43 1.901-1.188.262-2.188.035-3-.681-.814-.716-1.4-1.891-1.761-3.527-.355-1.607-.314-2.898.12-3.874.435-.976 1.256-1.597 2.462-1.863 1.178-.26 2.173-.044 2.985.647.812.686 1.397 1.844 1.757 3.475zm-1.438.317c-.56-2.541-1.58-3.649-3.058-3.323-1.487.328-1.951 1.763-1.39 4.304.283 1.288.686 2.219 1.208 2.794.522.575 1.148.782 1.877.621.777-.172 1.269-.63 1.474-1.375.206-.746.169-1.753-.11-3.021zm9.235 3.071l-5.502-7.262c.258.804.43 1.401.516 1.792l1.382 6.265-1.216.268-2.128-9.648 1.587-.35 5.572 7.306a16.184 16.184 0 01-.56-1.931l-1.364-6.18 1.23-.271 2.129 9.648-1.646.363zm6.007-10.272l1.883 8.533-1.36.299-1.882-8.533-3.168.699-.246-1.116 7.696-1.697.246 1.116-3.169.699zm145.786 21.02l-1.193-4.847-1.651-.558-1.348 3.99-1.325-.447 3.161-9.361 3.344 1.129c1.078.364 1.824.865 2.237 1.505.414.634.481 1.368.2 2.201-.233.689-.647 1.196-1.241 1.521-.589.327-1.268.428-2.035.303l1.377 5.08-1.526-.516zm2.085-6.817c.349-1.032-.181-1.785-1.587-2.26l-1.887-.637-1.102 3.261 1.943.656c.662.224 1.219.247 1.67.069.456-.175.777-.539.963-1.089zm.933 7.836l3.161-9.361 6.378 2.153-.366 1.083-5.052-1.706-.989 2.929 4.636 1.565-.361 1.068-4.636-1.565-1.08 3.199 5.337 1.802-.366 1.082-6.662-2.249zm14.587 4.925l-.062-2.974-3.907-1.319-1.846 2.329-1.36-.459 6.7-8.166 1.506.508.315 10.535-1.346-.454zm-.077-9.341l-.175.242-.975 1.31-2.039 2.581 3.213 1.085-.029-3.875.005-1.343zm8.078 12.042l-1.192-4.848-1.652-.557-1.347 3.99-1.326-.448 3.161-9.361 3.345 1.129c1.078.364 1.823.866 2.236 1.505.415.635.481 1.368.2 2.201-.232.689-.646 1.197-1.24 1.522-.59.326-1.268.427-2.035.302l1.377 5.08-1.527-.515zm2.086-6.818c.348-1.032-.181-1.785-1.587-2.26l-1.888-.637-1.101 3.262 1.943.656c.662.223 1.218.246 1.67.069.456-.176.777-.539.963-1.09zM158.81 168.29c0 .898-.33 1.599-.989 2.102-.654.503-1.589.754-2.805.754-2.232 0-3.528-.874-3.889-2.622l1.355-.271c.136.63.419 1.089.849 1.377.43.284 1.004.425 1.721.425.777 0 1.365-.151 1.765-.454.406-.303.608-.732.608-1.289 0-.342-.08-.62-.241-.835a1.781 1.781 0 00-.623-.527 3.956 3.956 0 00-.879-.33 46.534 46.534 0 00-.981-.256c-.786-.205-1.348-.388-1.685-.55a2.825 2.825 0 01-.798-.549c-.2-.21-.352-.449-.454-.718a2.628 2.628 0 01-.154-.944c0-.845.295-1.495.886-1.949.596-.459 1.448-.688 2.556-.688 1.036 0 1.827.18 2.373.542.547.361.928.971 1.143 1.831l-1.377.242c-.117-.547-.352-.943-.703-1.187-.352-.249-.833-.373-1.443-.373-1.382 0-2.073.52-2.073 1.56 0 .293.064.532.191.717.132.181.307.332.527.454.225.118.483.215.776.293.298.079.616.162.953.249.678.171 1.167.315 1.464.433.298.112.562.241.791.388.235.146.435.32.601.52.166.2.295.434.388.703.098.268.147.586.147.952zm2.226-7.17h6.028v1.142h-2.314v7.595h2.314V171h-6.028v-1.143h2.315v-7.595h-2.315v-1.142zm15.769 4.841c0 1.616-.376 2.861-1.128 3.735-.747.869-1.818 1.304-3.215 1.304h-2.71v-9.88h2.278c1.606 0 2.803.402 3.589 1.208.791.801 1.186 2.012 1.186 3.633zm-1.406 0c0-1.289-.269-2.227-.806-2.813-.537-.59-1.389-.886-2.556-.886h-.886v7.595h1.187c1.035 0 1.804-.324 2.307-.974.503-.649.754-1.623.754-2.922zm3.362 5.039v-9.88h6.731v1.142h-5.332v3.091h4.892v1.128h-4.892v3.376h5.632V171h-7.031z"/><ellipse cx="137.514" cy="80.5" rx="8.501" ry="8.5" fill="#C8E5FB"/><ellipse cx="244.525" cy="108.5" rx="8.501" ry="8.5" fill="#C8E5FB"/><ellipse cx="21.502" cy="107.5" rx="8.501" ry="8.5" fill="#C8E5FB"/><path opacity=".4" d="M299.031 123l-70.507 41 11.001 4 69.007 23.5 24.502-74-27.502 14-6.501-8.5zM72.507 91.5l-31.503 76 10.001-2 71.508-15L106.511 76l-18.502 26-15.502-10.5z" fill="#CCE7FB"/><path d="M25.834 144.49c-.807-3.906 1.23-8.739 2.35-10.667-2.877.595-4.69-1.085-5.103-1.357l-.371-1.799 6.424-1.327c5.276-12.074 7.571-15.228 12.454-16.236l18.502-3.823 9.45 45.737-39.83 8.229-3.876-18.757z" fill="#37AAFF"/><path d="M105.496 128.033c-.807-3.906-4.593-7.535-6.386-8.862 2.878-.595 3.876-2.855 4.148-3.268l-.372-1.799-6.424 1.327c-9.63-8.995-12.987-10.98-17.87-9.972l-18.502 3.822 9.45 45.737 40.089-8.281-4.133-18.704z" fill="#37AAFF"/><path d="M63.684 124.078l-2.655-12.847-18.502 3.822c-5.757 1.189-8.595 10.706-9.68 15.396l30.837-6.371z" fill="url(#paint4_linear)"/><path d="M63.684 124.078l-2.655-12.847 18.245-3.769c5.757-1.189 12.135 6.424 14.99 10.299l-30.58 6.317z" fill="url(#paint5_linear)"/><path d="M29.625 145.984a1.444 1.444 0 011.122-1.706l69.64-14.386a1.443 1.443 0 011.705 1.121 4.33 4.33 0 01-3.363 5.116L34.74 149.347a4.329 4.329 0 01-5.116-3.363z" fill="#004679"/><path d="M29.625 145.984a1.444 1.444 0 011.122-1.706l69.64-14.386a1.443 1.443 0 011.705 1.121 4.33 4.33 0 01-3.363 5.116L34.74 149.347a4.329 4.329 0 01-5.116-3.363z" fill="url(#paint6_linear)"/><path fill-rule="evenodd" clip-rule="evenodd" d="M47.461 146.72l-6.82-4.486-9.894 2.044a1.444 1.444 0 00-1.122 1.706 4.329 4.329 0 005.116 3.363l12.72-2.627zm38.286-7.91l12.975-2.68a4.329 4.329 0 003.363-5.115 1.443 1.443 0 00-1.705-1.122l-10.148 2.097-4.485 6.82z" fill="url(#paint7_linear)"/><path d="M29.71 163.247l12.591-2.602.87 4.209a2 2 0 01-1.554 2.363l-8.675 1.792a2 2 0 01-2.363-1.554l-.87-4.208zm67.584-13.962l12.335-2.548.87 4.208a2 2 0 01-1.554 2.363l-8.418 1.739a2 2 0 01-2.363-1.554l-.87-4.208z" fill="#055A98"/><path fill="#014679" d="M43.474 150.758l49.339-10.193.212 1.029-49.339 10.192zm.318 1.542l49.34-10.193.212 1.029-49.34 10.192zm.318 1.542l49.34-10.193.212 1.029-49.339 10.192z"/><path d="M20.554 172.034l101.459-21.26 3.119 14.885L23.674 186.92l-3.12-14.886z" fill="url(#paint8_linear)"/><path d="M210.022 158l98.51 33.5-4.501 13.5-99.01-32.5 5.001-14.5z" fill="url(#paint9_linear)"/><path fill-rule="evenodd" clip-rule="evenodd" d="M231.345 138.239c1.288-3.775 7.615-9.153 9.559-10.246-2.166-.738-2.164-.834-2.159-1.049a.45.45 0 00-.046-.231l1.642-1.025 3.424.112c10.676-7.725 12.37-8.213 17.089-6.604l17.881 6.1 17.881 6.099c4.719 1.609 5.893 3.076 9.621 15.714l3.7 2.319.301 2.215a.84.84 0 00-.174.117v.001c-.209.173-.301.249-2.591-.532.871 2.052 2.148 9.497.861 13.271l-5.937 18.213-14.072-4.8a3.5 3.5 0 00-6.624-2.26l-18.046-6.156-16.119-5.498a4.5 4.5 0 10-8.333-2.843l-14.043-4.789 6.185-18.128z" fill="#37AAFF"/><path d="M275.635 136.142l3.068-8.991-19.404-6.619c-3.847-1.312-8.241 2.472-12.533 5.763l28.869 9.847z" fill="url(#paint10_linear)"/><path d="M275.635 136.142l3.068-8.991 17.037 5.812c4.733 1.614 6.432 7.476 7.818 12.704l-27.923-9.525z" fill="url(#paint11_linear)"/><path d="M225.161 156.366l12.169 4.151-1.388 4.067a2 2 0 01-2.538 1.247l-8.384-2.859a2 2 0 01-1.247-2.539l1.388-4.067zm65.315 22.28l11.921 4.066-1.387 4.067a2.001 2.001 0 01-2.539 1.248l-8.135-2.775a2 2 0 01-1.247-2.539l1.387-4.067z" fill="#055A98"/><rect width="12.001" height="7" rx="2" transform="rotate(18.835 -320.517 963.842) skewX(-.004)" fill="#055A98"/><rect width="12.001" height="7" rx="2" transform="rotate(18.835 -291.013 785.962) skewX(-.004)" fill="#055A98"/><path fill-rule="evenodd" clip-rule="evenodd" d="M230.52 142.941a2 2 0 00-2.539 1.247l-4.197 12.304 16.124 5.5a3.5 3.5 0 116.559 2.237l35.089 11.97a3.5 3.5 0 116.559 2.237l15.178 5.177 4.198-12.304a2 2 0 00-1.247-2.538l-75.724-25.83z" fill="#055A98"/><path d="M238.621 137.78a.5.5 0 01.634-.312l8.518 2.906a.5.5 0 11-.323.946l-8.518-2.905a.5.5 0 01-.311-.635zm-.646 1.893a.5.5 0 01.634-.312l8.518 2.906a.5.5 0 11-.322.946l-8.518-2.906a.5.5 0 01-.312-.634zm-.646 1.893a.5.5 0 01.635-.312l8.518 2.905a.5.5 0 01-.323.947l-8.518-2.906a.5.5 0 01-.312-.634zm57.138 15.264a.5.5 0 01.635-.312l8.518 2.906a.5.5 0 11-.323.946l-8.518-2.906a.5.5 0 01-.312-.634zm-.646 1.893a.5.5 0 01.635-.312l8.518 2.905a.501.501 0 01-.323.947l-8.518-2.906a.5.5 0 01-.312-.634zm-.646 1.893a.5.5 0 01.635-.312l8.518 2.905a.501.501 0 01-.323.947l-8.518-2.906a.5.5 0 01-.312-.634z" fill="#FDB81E"/><circle r="2.5" transform="rotate(18.835 -368.608 814.912) skewX(-.004)" fill="#055A98"/><circle r="2.5" transform="rotate(18.835 -390.61 947.565) skewX(-.004)" fill="#055A98"/><path d="M236.449 131.756l3.302 2.711 30.601 10.967 33.129 11.3 4.905-.44" stroke="#055A98"/><circle r="3" transform="rotate(18.835 -305.503 891.986) skewX(-.004)" fill="#37AAFF"/><circle r="2" transform="rotate(18.835 -305.503 891.986) skewX(-.004)" fill="#055A98"/><defs><linearGradient id="paint0_linear" x1="168.517" y1="130" x2="168.517" y2="155" gradientUnits="userSpaceOnUse"><stop stop-color="#C8E5FB"/><stop offset="1" stop-color="#C8E5FB" stop-opacity="0"/></linearGradient><linearGradient id="paint1_linear" x1="212.166" y1="115.807" x2="212.166" y2="119.052" gradientUnits="userSpaceOnUse"><stop stop-color="#fff"/><stop offset="1" stop-color="#C4C4C4" stop-opacity="0"/></linearGradient><linearGradient id="paint2_linear" x1="147.436" y1="97.112" x2="195.065" y2="114.61" gradientUnits="userSpaceOnUse"><stop stop-color="#fff"/><stop offset="1" stop-color="#fff" stop-opacity="0"/></linearGradient><linearGradient id="paint3_linear" x1="156.548" y1="113.428" x2="168.945" y2="123.919" gradientUnits="userSpaceOnUse"><stop stop-color="#004679"/><stop offset="1" stop-color="#004679" stop-opacity="0"/></linearGradient><linearGradient id="paint4_linear" x1="60.901" y1="111.257" x2="63.555" y2="124.105" gradientUnits="userSpaceOnUse"><stop stop-color="#fff"/><stop offset="1" stop-color="#fff" stop-opacity=".2"/></linearGradient><linearGradient id="paint5_linear" x1="60.901" y1="111.257" x2="63.555" y2="124.105" gradientUnits="userSpaceOnUse"><stop stop-color="#fff"/><stop offset="1" stop-color="#fff" stop-opacity=".2"/></linearGradient><linearGradient id="paint6_linear" x1="65.567" y1="137.085" x2="66.735" y2="142.738" gradientUnits="userSpaceOnUse"><stop stop-color="#004679"/><stop offset="1" stop-color="#004679" stop-opacity="0"/></linearGradient><linearGradient id="paint7_linear" x1="65.563" y1="137.086" x2="66.731" y2="142.739" gradientUnits="userSpaceOnUse"><stop stop-color="#fff"/><stop offset="1" stop-color="#fff" stop-opacity="0"/></linearGradient><linearGradient id="paint8_linear" x1="71.943" y1="161.266" x2="75.063" y2="176.151" gradientUnits="userSpaceOnUse"><stop stop-color="#C8E5FB"/><stop offset="1" stop-color="#C8E5FB" stop-opacity="0"/></linearGradient><linearGradient id="paint9_linear" x1="259.629" y1="174.887" x2="254.737" y2="189.288" gradientUnits="userSpaceOnUse"><stop stop-color="#C8E5FB"/><stop offset="1" stop-color="#C8E5FB" stop-opacity="0"/></linearGradient><linearGradient id="paint10_linear" x1="278.429" y1="127.409" x2="274.194" y2="139.825" gradientUnits="userSpaceOnUse"><stop stop-color="#fff"/><stop offset="1" stop-color="#fff" stop-opacity=".2"/></linearGradient><linearGradient id="paint11_linear" x1="278.429" y1="127.409" x2="274.194" y2="139.825" gradientUnits="userSpaceOnUse"><stop stop-color="#fff"/><stop offset="1" stop-color="#fff" stop-opacity=".2"/></linearGradient></defs></svg>