<svg width="419" height="260" fill="none" xmlns="http://www.w3.org/2000/svg"><path transform="matrix(-1 0 0 1 82 38.25)" fill="url(#paint0_linear)" d="M0 0h59v173.25H0z"/><path transform="matrix(-1 0 0 1 93 38.25)" fill="url(#paint1_linear)" d="M0 0h11v173.25H0z"/><path transform="matrix(-1 0 0 1 225 72.75)" fill="url(#paint2_linear)" d="M0 0h67v150.75H0z"/><path transform="matrix(-1 0 0 1 237 72.75)" fill="url(#paint3_linear)" d="M0 0h12v150.75H0z"/><path transform="matrix(-1 0 0 1 288 0)" fill="url(#paint4_linear)" d="M0 0h47v173.25H0z"/><path transform="matrix(-1 0 0 1 296 0)" fill="url(#paint5_linear)" d="M0 0h8v173.25H0z"/><path transform="matrix(-1 0 0 1 374 72.75)" fill="url(#paint6_linear)" d="M0 0h66v173.25H0z"/><path transform="matrix(-1 0 0 1 385 72.75)" fill="url(#paint7_linear)" d="M0 0h11v173.25H0z"/><path d="M361 86.25h-1v99h1v-99zm-8 0h-1v99h1v-99zm-8 0h-1v99h1v-99zm-8 0h-1v99h1v-99zm-8 0h-1v99h1v-99zm-8 0h-1v99h1v-99zM279 7.5h-.732v162.75H279V7.5zm-5.854 0h-.731v162.75h.731V7.5zm-5.853 0h-.732v162.75h.732V7.5zm-5.854 0h-.732v162.75h.732V7.5zm-5.854 0h-.731v162.75h.731V7.5zm-5.853 0H249v162.75h.732V7.5z" opacity=".4" fill="#C4C4C4"/><g opacity=".4" fill="#C4C4C4"><path d="M217 80.25h-.732v133.5H217V80.25zm-5.854 0h-.731v133.5h.731V80.25zm-5.853 0h-.732v133.5h.732V80.25zm-5.854 0h-.732v133.5h.732V80.25zm-5.854 0h-.731v133.5h.731V80.25zm-5.853 0H187v133.5h.732V80.25z"/><path d="M194 80.25h-.732v133.5H194V80.25zm-5.854 0h-.731v133.5h.731V80.25zm-5.853 0h-.732v133.5h.732V80.25zm-5.854 0h-.732v133.5h.732V80.25zm-5.854 0h-.731v133.5h.731V80.25zm-5.853 0H164v133.5h.732V80.25z"/></g><g opacity=".4" fill="#C4C4C4"><path d="M78 45.75h-.732v133.5H78V45.75zm-5.854 0h-.731v133.5h.731V45.75zm-5.853 0h-.732v133.5h.732V45.75zm-5.854 0h-.732v133.5h.732V45.75zm-5.854 0h-.731v133.5h.731V45.75zm-5.853 0H48v133.5h.732V45.75z"/><path d="M55 45.75h-.732v133.5H55V45.75zm-5.854 0h-.731v133.5h.731V45.75zm-5.853 0h-.732v133.5h.732V45.75zm-5.854 0h-.732v133.5h.732V45.75zm-5.854 0h-.731v133.5h.731V45.75zm-5.853 0H25v133.5h.732V45.75z"/></g><path d="M397.388 226.051h-27.539l-3.137 11.852h25.676a5 5 0 005-5v-6.852zm-75.992 0L293 222.5l-2.28 15.403h25.676a5 5 0 005-5v-6.852zM286 159h-22v68h22z" fill="#004679"/><circle r="15.686" transform="matrix(-1 0 0 1 270.851 159.471)" fill="#004679"/><path fill="#004679" d="M286 231H155v6h131z"/><rect width="14.641" height="126.188" rx="5" transform="matrix(-1 0 0 1 295.601 111.715)" fill="#004679"/><path d="M271 227v-19H16v9c0 5.523 4.477 10 10 10h245z" fill="#004679"/><path fill-rule="evenodd" clip-rule="evenodd" d="M412.377 211.41v-48.822a5.001 5.001 0 00-1.465-3.536l-54.88-54.88a3.998 3.998 0 00-2.829-1.172h-54.997a4 4 0 00-4 4v115.051a4 4 0 004 4h13.43c0-16.557 13.421-29.979 29.978-29.979 16.557 0 29.978 13.422 29.978 29.979h36.785a4 4 0 004-4V211.41z" fill="#FDB81E"/><path d="M404.384 180.386h7.993v9.412h-4.217a2.999 2.999 0 01-2.58-1.471l-2.917-4.921c-.79-1.334.171-3.02 1.721-3.02z" fill="url(#paint8_linear)"/><path d="M322.79 157.728h-15.337l1.547 3.486h15.5l-1.71-3.486zm60.801-18.042l-31.503-32.087a2 2 0 00-1.427-.599h-50.272a2 2 0 00-2 2v30.087a4 4 0 004 4h79.775c1.773 0 2.669-2.136 1.427-3.401z" fill="#004679"/><ellipse rx="15.338" ry="14.989" transform="matrix(-1 0 0 1 341.614 225.005)" fill="#004679"/><path d="M419 214.107a2 2 0 00-2-2h-49.242l2.44 13.944H414a5 5 0 005-5v-6.944z" fill="#004679"/><path d="M264 213v-21H0v11c0 5.523 4.477 10 10 10h254z" fill="#055A98"/><path d="M244.348 183.296H37.322c-16.197 0-23.79 0-26.32-9.617-2.026-7.694 4.555-15.354 8.098-18.223v-20.753c13.498-5.062 49.301-15.286 84.531-15.691 44.037-.507 74.408 15.691 102.248 25.815 45.138 10.994 42.518 24.296 42.518 30.37 0 4.859 2.531 6.58-4.049 8.099z" fill="#37AAFF"/><path d="M218.533 180.259H56.557v3.037h168.05l-6.074-3.037z" fill="#004679"/><circle r="18.735" transform="matrix(-1 0 0 1 201.323 173.172)" fill="#055A98" stroke="#004679"/><circle r="10.636" transform="matrix(-1 0 0 1 201.323 173.172)" fill="#004679" stroke="#004679"/><circle r="18.735" transform="matrix(-1 0 0 1 53.52 173.172)" fill="#055A98" stroke="#004679"/><circle r="10.636" transform="matrix(-1 0 0 1 53.52 173.172)" fill="#004679" stroke="#004679"/><path d="M28.21 144.32l-9.11-9.111v19.741l9.11-9.111v-1.519z" fill="#004679"/><path d="M228.15 155.963h7.593c3.239.809 8.267 5.23 10.123 7.592l-10.123.506c-1.856-1.518-5.973-4.758-7.593-5.568-1.619-.809-.675-2.024 0-2.53z" fill="url(#paint9_linear)"/><path d="M70.224 141.789h111.358c-20.753-12.654-54.16-18.222-77.951-18.222-10.632 0-35.203 2.144-43.682 4.331-1.806.465-1.933 2.153-.589 3.446l10.864 10.445z" fill="url(#paint10_linear)"/><path d="M118.31 145.839h-12.148l2.025 1.518h12.148l-2.025-1.518zm132.618 29.358h-19.235v1.012h19.235zm-2.024-2.024h-19.235v1.012h19.235z" fill="#004679"/><path opacity=".4" d="M155.857 163.944a4.002 4.002 0 00-2.522-.895H94.539c-3.405 0-5.253 3.984-3.053 6.583l4.367 5.161a4 4 0 003.053 1.416h60.78c3.766 0 5.445-4.73 2.522-7.104l-6.351-5.161z" fill="url(#paint11_linear)"/><circle r="31.7" transform="matrix(-1 0 0 1 341 226)" fill="#4B5158" stroke="#2B3138"/><circle r="33" transform="matrix(-1 0 0 1 341 226)" stroke="#4B5158" stroke-width="2" stroke-dasharray="2 2"/><circle r="19.6" transform="matrix(-1 0 0 1 341 226)" fill="#4B5158" opacity=".45"/><circle r="12.351" transform="matrix(-1 0 0 1 341.251 226.251)" fill="#4B5158" stroke="#1F242A"/><circle r="31.7" transform="matrix(-1 0 0 1 130 226)" fill="#4B5158" stroke="#2B3138"/><circle r="33" transform="matrix(-1 0 0 1 130 226)" stroke="#4B5158" stroke-width="2" stroke-dasharray="2 2"/><circle r="19.6" transform="matrix(-1 0 0 1 130 226)" fill="#4B5158" opacity=".45"/><circle r="12.351" transform="matrix(-1 0 0 1 130.251 226.251)" fill="#4B5158" stroke="#1F242A"/><defs><linearGradient id="paint0_linear" x1="29.5" y1="0" x2="29.5" y2="173.25" gradientUnits="userSpaceOnUse"><stop stop-color="#CCE6FF"/><stop offset="1" stop-color="#E6F2FF" stop-opacity="0"/></linearGradient><linearGradient id="paint1_linear" x1="5.5" y1="0" x2="5.5" y2="173.25" gradientUnits="userSpaceOnUse"><stop stop-color="#E6F2FF"/><stop offset="1" stop-color="#E6F2FF" stop-opacity="0"/></linearGradient><linearGradient id="paint2_linear" x1="33.5" y1="0" x2="33.5" y2="150.75" gradientUnits="userSpaceOnUse"><stop stop-color="#CCE6FF"/><stop offset="1" stop-color="#E6F2FF" stop-opacity="0"/></linearGradient><linearGradient id="paint3_linear" x1="6" y1="0" x2="6" y2="150.75" gradientUnits="userSpaceOnUse"><stop stop-color="#E6F2FF"/><stop offset="1" stop-color="#E6F2FF" stop-opacity="0"/></linearGradient><linearGradient id="paint4_linear" x1="23.5" y1="0" x2="23.5" y2="173.25" gradientUnits="userSpaceOnUse"><stop stop-color="#CCE6FF"/><stop offset="1" stop-color="#E6F2FF" stop-opacity="0"/></linearGradient><linearGradient id="paint5_linear" x1="4" y1="0" x2="4" y2="173.25" gradientUnits="userSpaceOnUse"><stop stop-color="#E6F2FF"/><stop offset="1" stop-color="#E6F2FF" stop-opacity="0"/></linearGradient><linearGradient id="paint6_linear" x1="33" y1="0" x2="33" y2="173.25" gradientUnits="userSpaceOnUse"><stop stop-color="#CCE6FF"/><stop offset="1" stop-color="#E6F2FF" stop-opacity="0"/></linearGradient><linearGradient id="paint7_linear" x1="5.5" y1="0" x2="5.5" y2="173.25" gradientUnits="userSpaceOnUse"><stop stop-color="#E6F2FF"/><stop offset="1" stop-color="#E6F2FF" stop-opacity="0"/></linearGradient><linearGradient id="paint8_linear" x1="406.625" y1="180.386" x2="406.625" y2="189.798" gradientUnits="userSpaceOnUse"><stop stop-color="#004679"/><stop offset="1" stop-color="#004679"/></linearGradient><linearGradient id="paint9_linear" x1="236.308" y1="155.963" x2="236.308" y2="164.061" gradientUnits="userSpaceOnUse"><stop stop-color="#fff"/><stop offset="1" stop-color="#C4C4C4" stop-opacity="0"/></linearGradient><linearGradient id="paint10_linear" x1="74.745" y1="109.295" x2="193.63" y2="152.967" gradientUnits="userSpaceOnUse"><stop stop-color="#fff"/><stop offset="1" stop-color="#fff" stop-opacity="0"/></linearGradient><linearGradient id="paint11_linear" x1="97.49" y1="150.024" x2="128.434" y2="176.209" gradientUnits="userSpaceOnUse"><stop stop-color="#004679"/><stop offset="1" stop-color="#004679" stop-opacity="0"/></linearGradient></defs></svg>