<svg width="464" height="271" fill="none" xmlns="http://www.w3.org/2000/svg"><path opacity=".3" fill="url(#paint0_linear)" d="M0 236h464v35H0z"/><path transform="matrix(-1 0 0 1 107 38.25)" fill="url(#paint1_linear)" d="M0 0h59v173.25H0z"/><path transform="matrix(-1 0 0 1 118 38.25)" fill="url(#paint2_linear)" d="M0 0h11v173.25H0z"/><path transform="matrix(-1 0 0 1 250 72.75)" fill="url(#paint3_linear)" d="M0 0h67v150.75H0z"/><path transform="matrix(-1 0 0 1 262 72.75)" fill="url(#paint4_linear)" d="M0 0h12v150.75H0z"/><path transform="matrix(-1 0 0 1 313 0)" fill="url(#paint5_linear)" d="M0 0h47v173.25H0z"/><path transform="matrix(-1 0 0 1 321 0)" fill="url(#paint6_linear)" d="M0 0h8v173.25H0z"/><path transform="matrix(-1 0 0 1 399 72.75)" fill="url(#paint7_linear)" d="M0 0h66v173.25H0z"/><path transform="matrix(-1 0 0 1 410 72.75)" fill="url(#paint8_linear)" d="M0 0h11v173.25H0z"/><path d="M386 86.25h-1v99h1v-99zm-8 0h-1v99h1v-99zm-8 0h-1v99h1v-99zm-8 0h-1v99h1v-99zm-8 0h-1v99h1v-99zm-8 0h-1v99h1v-99zM304 7.5h-.732v162.75H304V7.5zm-5.854 0h-.731v162.75h.731V7.5zm-5.853 0h-.732v162.75h.732V7.5zm-5.854 0h-.732v162.75h.732V7.5zm-5.854 0h-.731v162.75h.731V7.5zm-5.853 0H274v162.75h.732V7.5z" opacity=".4" fill="#C4C4C4"/><g opacity=".4" fill="#C4C4C4"><path d="M242 80.25h-.732v133.5H242V80.25zm-5.854 0h-.731v133.5h.731V80.25zm-5.853 0h-.732v133.5h.732V80.25zm-5.854 0h-.732v133.5h.732V80.25zm-5.854 0h-.731v133.5h.731V80.25zm-5.853 0H212v133.5h.732V80.25z"/><path d="M219 80.25h-.732v133.5H219V80.25zm-5.854 0h-.731v133.5h.731V80.25zm-5.853 0h-.732v133.5h.732V80.25zm-5.854 0h-.732v133.5h.732V80.25zm-5.854 0h-.731v133.5h.731V80.25zm-5.853 0H189v133.5h.732V80.25z"/></g><g opacity=".4" fill="#C4C4C4"><path d="M103 45.75h-.732v133.5H103V45.75zm-5.854 0h-.731v133.5h.731V45.75zm-5.853 0h-.732v133.5h.732V45.75zm-5.854 0h-.732v133.5h.732V45.75zm-5.854 0h-.731v133.5h.731V45.75zm-5.853 0H73v133.5h.732V45.75z"/><path d="M80 45.75h-.732v133.5H80V45.75zm-5.854 0h-.731v133.5h.731V45.75zm-5.853 0h-.732v133.5h.732V45.75zm-5.854 0h-.732v133.5h.732V45.75zm-5.854 0h-.731v133.5h.731V45.75zm-5.853 0H50v133.5h.732V45.75z"/></g><mask id="a" maskUnits="userSpaceOnUse" x="0" y="92" width="294" height="144"><path fill="#C4C4C4" d="M0 92h294v144H0z"/></mask><g mask="url(#a)"><path fill="#DFDFDF" d="M2.837 163.692H.573v61.881h2.264z"/><path fill="#37AAFF" d="M228.477 92H-133v144.138h361.477z"/><g opacity=".4"><path d="M113.016 109.357H96.007v107.915h17.009V109.357z" fill="url(#paint9_linear)"/><path d="M78.999 109.357h-17.01v107.915H79V109.357z" fill="url(#paint10_linear)"/><path d="M44.981 109.357H27.973v107.915H44.98V109.357z" fill="url(#paint11_linear)"/><path d="M10.964 109.357H-6.045v107.915h17.009V109.357z" fill="url(#paint12_linear)"/><path d="M-23.053 109.357h-17.009v107.915h17.009V109.357z" fill="url(#paint13_linear)"/><path d="M-57.07 109.357h-17.01v107.915h17.01V109.357z" fill="url(#paint14_linear)"/><path d="M-91.088 109.357h-17.009v107.915h17.01V109.357z" fill="url(#paint15_linear)"/></g><path fill="#055A98" d="M291 92H148v144h143z"/><path fill="#003052" d="M279 104H160v132h119z"/></g><path fill="#0B446E" d="M95 92h52v144H95zm197 0h52v144h-52z"/><path d="M302 111h2v113h-2V111zm10 0h2v113h-2V111zm10 0h2v113h-2V111zm10 0h2v113h-2V111z" fill="#003052"/><mask id="b" maskUnits="userSpaceOnUse" x="160" y="104" width="219" height="132"><path transform="matrix(-1 0 0 1 379 104)" fill="#003052" d="M0 0h219v132H0z"/></mask><g mask="url(#b)"><path d="M354.726 227.296H147.7c-16.198 0-23.79 0-26.321-9.617-2.025-7.694 4.555-15.354 8.099-18.223v-20.753c13.498-5.062 49.301-15.286 84.531-15.691 44.037-.507 74.408 15.691 102.247 25.815 45.138 10.994 42.519 24.296 42.519 30.37 0 4.859 2.531 6.58-4.049 8.099z" fill="#37AAFF"/><path d="M328.911 224.259H166.935v3.037h168.05l-6.074-3.037z" fill="#004679"/><circle r="18.735" transform="matrix(-1 0 0 1 311.701 217.172)" fill="#055A98" stroke="#004679"/><circle r="10.636" transform="matrix(-1 0 0 1 311.701 217.172)" fill="#004679" stroke="#004679"/><circle r="18.735" transform="matrix(-1 0 0 1 163.898 217.172)" fill="#055A98" stroke="#004679"/><circle r="10.636" transform="matrix(-1 0 0 1 163.898 217.172)" fill="#004679" stroke="#004679"/><path d="M338.528 199.962h7.593c3.239.81 8.267 5.231 10.123 7.593l-10.123.506c-1.856-1.518-5.973-4.758-7.593-5.568-1.62-.81-.675-2.024 0-2.531z" fill="url(#paint16_linear)"/><path d="M180.601 185.789H291.96c-20.753-12.654-54.161-18.222-77.951-18.222-10.633 0-35.203 2.144-43.683 4.331-1.805.465-1.932 2.153-.588 3.446l10.863 10.445z" fill="url(#paint17_linear)"/><path d="M228.688 189.839H216.54l2.025 1.518h12.148l-2.025-1.518zm132.618 29.358h-19.235v1.012h19.235zm-2.025-2.024h-19.235v1.012h19.235z" fill="#004679"/><path opacity=".4" d="M266.235 207.944a4.002 4.002 0 00-2.523-.895h-58.795c-3.405 0-5.253 3.984-3.053 6.583l4.366 5.161a4 4 0 003.054 1.416h60.78c3.766 0 5.445-4.73 2.522-7.104l-6.351-5.161z" fill="url(#paint18_linear)"/></g><path stroke="#FDB81E" d="M248.757 145.771l3.472 1.986-1.985 3.472-3.473-1.986z"/><path d="M239.45 149.511l-3.45-3.217 4.83-1.294-1.38 4.511zm56 18l-3.45-3.217 4.83-1.294-1.38 4.511zm-47.804-32.157l1 1 .708-.708-1-1-.708.708zm1-3l3 3 .708-.708-3-3-.708.708zm.5-3.5l6 6 .708-.708-6-6-.708.708zm48.5 21l1 1 .708-.708-1-1-.708.708zm1-3l3 3 .708-.708-3-3-.708.708zm.5-3.5l6 6 .708-.708-6-6-.708.708z" fill="#37AAFF"/><path stroke="#FDB81E" d="M271.668 163.682l3.472 1.986-1.985 3.472-3.473-1.986z"/><path d="M258 164.5l25.5-25.5" stroke="#FDB81E" stroke-dasharray="1 2"/><path stroke="#FDB81E" d="M269.838 139.306l2.679 1.532-1.532 2.679-2.679-1.532zm-38.203-18.148l-1.377 1.466-.039-2.354 2.346-.039-.918.915-.006.006-.006.006zm74.29 39.289l-1.378 1.466-.039-2.354 2.346-.039-.918.915-.006.006-.005.006z"/><path fill="#37AAFF" d="M146 96h3v10h-3z"/><path fill="#055A98" d="M145 99h5v1h-5zm0 3h5v1h-5z"/><path fill="#37AAFF" d="M290 96h3v10h-3z"/><path fill="#055A98" d="M289 99h5v1h-5zm0 3h5v1h-5z"/><path fill="#37AAFF" d="M146 216h3v10h-3z"/><path fill="#055A98" d="M145 218h5v1h-5zm0 4h5v1h-5z"/><path d="M106 111h2v113h-2V111zm10 0h2v113h-2V111zm10 0h2v113h-2V111zm10 0h2v113h-2V111z" fill="#003052"/><defs><linearGradient id="paint0_linear" x1="232" y1="236" x2="232" y2="271" gradientUnits="userSpaceOnUse"><stop stop-color="#00B2FF"/><stop offset="1" stop-color="#fff" stop-opacity="0"/></linearGradient><linearGradient id="paint1_linear" x1="29.5" y1="0" x2="29.5" y2="173.25" gradientUnits="userSpaceOnUse"><stop stop-color="#CCE6FF"/><stop offset="1" stop-color="#E6F2FF" stop-opacity="0"/></linearGradient><linearGradient id="paint2_linear" x1="5.5" y1="0" x2="5.5" y2="173.25" gradientUnits="userSpaceOnUse"><stop stop-color="#E6F2FF"/><stop offset="1" stop-color="#E6F2FF" stop-opacity="0"/></linearGradient><linearGradient id="paint3_linear" x1="33.5" y1="0" x2="33.5" y2="150.75" gradientUnits="userSpaceOnUse"><stop stop-color="#CCE6FF"/><stop offset="1" stop-color="#E6F2FF" stop-opacity="0"/></linearGradient><linearGradient id="paint4_linear" x1="6" y1="0" x2="6" y2="150.75" gradientUnits="userSpaceOnUse"><stop stop-color="#E6F2FF"/><stop offset="1" stop-color="#E6F2FF" stop-opacity="0"/></linearGradient><linearGradient id="paint5_linear" x1="23.5" y1="0" x2="23.5" y2="173.25" gradientUnits="userSpaceOnUse"><stop stop-color="#CCE6FF"/><stop offset="1" stop-color="#E6F2FF" stop-opacity="0"/></linearGradient><linearGradient id="paint6_linear" x1="4" y1="0" x2="4" y2="173.25" gradientUnits="userSpaceOnUse"><stop stop-color="#E6F2FF"/><stop offset="1" stop-color="#E6F2FF" stop-opacity="0"/></linearGradient><linearGradient id="paint7_linear" x1="33" y1="0" x2="33" y2="173.25" gradientUnits="userSpaceOnUse"><stop stop-color="#CCE6FF"/><stop offset="1" stop-color="#E6F2FF" stop-opacity="0"/></linearGradient><linearGradient id="paint8_linear" x1="5.5" y1="0" x2="5.5" y2="173.25" gradientUnits="userSpaceOnUse"><stop stop-color="#E6F2FF"/><stop offset="1" stop-color="#E6F2FF" stop-opacity="0"/></linearGradient><linearGradient id="paint9_linear" x1="-99.592" y1="109.357" x2="-99.592" y2="217.272" gradientUnits="userSpaceOnUse"><stop stop-color="#004A79"/><stop offset="1" stop-color="#37AAFF"/></linearGradient><linearGradient id="paint10_linear" x1="-99.592" y1="109.357" x2="-99.592" y2="217.272" gradientUnits="userSpaceOnUse"><stop stop-color="#004A79"/><stop offset="1" stop-color="#37AAFF"/></linearGradient><linearGradient id="paint11_linear" x1="-99.592" y1="109.357" x2="-99.592" y2="217.272" gradientUnits="userSpaceOnUse"><stop stop-color="#004A79"/><stop offset="1" stop-color="#37AAFF"/></linearGradient><linearGradient id="paint12_linear" x1="-99.592" y1="109.357" x2="-99.592" y2="217.272" gradientUnits="userSpaceOnUse"><stop stop-color="#004A79"/><stop offset="1" stop-color="#37AAFF"/></linearGradient><linearGradient id="paint13_linear" x1="-99.592" y1="109.357" x2="-99.592" y2="217.272" gradientUnits="userSpaceOnUse"><stop stop-color="#004A79"/><stop offset="1" stop-color="#37AAFF"/></linearGradient><linearGradient id="paint14_linear" x1="-99.592" y1="109.357" x2="-99.592" y2="217.272" gradientUnits="userSpaceOnUse"><stop stop-color="#004A79"/><stop offset="1" stop-color="#37AAFF"/></linearGradient><linearGradient id="paint15_linear" x1="-99.592" y1="109.357" x2="-99.592" y2="217.272" gradientUnits="userSpaceOnUse"><stop stop-color="#004A79"/><stop offset="1" stop-color="#37AAFF"/></linearGradient><linearGradient id="paint16_linear" x1="346.686" y1="199.962" x2="346.686" y2="208.061" gradientUnits="userSpaceOnUse"><stop stop-color="#fff"/><stop offset="1" stop-color="#C4C4C4" stop-opacity="0"/></linearGradient><linearGradient id="paint17_linear" x1="185.123" y1="153.295" x2="304.008" y2="196.967" gradientUnits="userSpaceOnUse"><stop stop-color="#fff"/><stop offset="1" stop-color="#fff" stop-opacity="0"/></linearGradient><linearGradient id="paint18_linear" x1="207.868" y1="194.024" x2="238.811" y2="220.209" gradientUnits="userSpaceOnUse"><stop stop-color="#004679"/><stop offset="1" stop-color="#004679" stop-opacity="0"/></linearGradient></defs></svg>