<svg width="288" height="167" fill="none" xmlns="http://www.w3.org/2000/svg"><path opacity=".3" transform="matrix(-1 0 0 1 288 144.613)" fill="url(#paint0_linear)" d="M0 0h286.775v21.447H0z"/><path fill="url(#paint1_linear)" d="M185.668 23.438h36.153V129.6h-36.153z"/><path fill="url(#paint2_linear)" d="M178.928 23.438h6.74V129.6h-6.74z"/><path fill="url(#paint3_linear)" d="M98.043 44.579h41.055v92.374H98.043z"/><path fill="url(#paint4_linear)" d="M90.689 44.579h7.353v92.374h-7.353z"/><path fill="url(#paint5_linear)" d="M59.438 0h28.8v106.162h-28.8z"/><path fill="url(#paint6_linear)" d="M54.536 0h4.902v106.162h-4.902z"/><path fill="url(#paint7_linear)" d="M6.74 44.579h40.443v106.162H6.74z"/><path fill="url(#paint8_linear)" d="M0 44.579h6.74v106.162H0z"/><path d="M14.706 52.851h.613v60.664h-.613V52.851zm4.902 0h.613v60.664h-.613V52.851zm4.902 0h.613v60.664h-.612V52.851zm4.903 0h.612v60.664h-.612V52.851zm4.902 0h.613v60.664h-.613V52.851zm4.902 0h.613v60.664h-.613V52.851zM64.953 4.596h.448v99.727h-.448V4.596zm3.587 0h.448v99.727h-.448V4.596zm3.587 0h.448v99.727h-.448V4.596zm3.587 0h.448v99.727h-.448V4.596zm3.586 0h.45v99.727h-.45V4.596zm3.588 0h.448v99.727h-.448V4.596z" opacity=".4" fill="#C4C4C4"/><g opacity=".4" fill="#C4C4C4"><path d="M102.945 49.174h.448v81.805h-.448V49.174zm3.587 0h.448v81.805h-.448V49.174zm3.587 0h.448v81.805h-.448V49.174zm3.587 0h.448v81.805h-.448V49.174zm3.587 0h.448v81.805h-.448V49.174zm3.586 0h.449v81.805h-.449V49.174z"/><path d="M117.038 49.174h.449v81.805h-.449V49.174zm3.587 0h.449v81.805h-.449V49.174zm3.587 0h.449v81.805h-.449V49.174zm3.587 0h.449v81.805h-.449V49.174zm3.587 0h.448v81.805h-.448V49.174zm3.587 0h.448v81.805h-.448V49.174z"/></g><g opacity=".4" fill="#C4C4C4"><path d="M188.119 28.034h.449v81.804h-.449V28.034zm3.587 0h.448v81.804h-.448V28.034zm3.587 0h.448v81.804h-.448V28.034zm3.587 0h.448v81.804h-.448V28.034zm3.587 0h.448v81.804h-.448V28.034zm3.587 0h.448v81.804h-.448V28.034z"/><path d="M202.213 28.034h.448v81.804h-.448V28.034zm3.587 0h.448v81.804h-.448V28.034zm3.587 0h.448v81.804h-.448V28.034zm3.587 0h.448v81.804h-.448V28.034zm3.586 0h.449v81.804h-.449V28.034zm3.587 0h.449v81.804h-.449V28.034z"/></g><mask id="a" maskUnits="userSpaceOnUse" x="71" y="56" width="211" height="89"><path transform="matrix(-1 0 0 1 281.873 56.374)" fill="#C4C4C4" d="M0 0h210.792v88.238H0z"/></mask><g mask="url(#a)"><path fill="#DFDFDF" d="M249.496 100.305h1.387v37.919h-1.387z"/><path fill="#37AAFF" d="M111.231 56.374h221.501v88.323H111.231z"/><g opacity=".4"><path d="M181.982 67.01h10.422v66.127h-10.422V67.01z" fill="url(#paint9_linear)"/><path d="M202.827 67.01h10.422v66.127h-10.422V67.01z" fill="url(#paint10_linear)"/><path d="M223.671 67.01h10.423v66.127h-10.423V67.01z" fill="url(#paint11_linear)"/><path d="M244.516 67.01h10.422v66.127h-10.422V67.01z" fill="url(#paint12_linear)"/><path d="M265.361 67.01h10.422v66.127h-10.422V67.01z" fill="url(#paint13_linear)"/><path d="M286.205 67.01h10.423v66.127h-10.423V67.01z" fill="url(#paint14_linear)"/><path d="M307.05 67.01h10.422v66.127H307.05V67.01z" fill="url(#paint15_linear)"/></g><path fill="#055A98" d="M72.92 56.374h87.626v88.238H72.92z"/><path fill="#003052" d="M80.273 63.728h72.919v80.885H80.273z"/></g><path fill="#0B446E" d="M193.021 56.374h-31.864v88.238h31.864zm-120.715 0H40.442v88.238h31.864z"/><path d="M164.221 68.017h1.226v69.243h-1.226V68.017zm6.128 0h1.225v69.243h-1.225V68.017zm6.128 0h1.225v69.243h-1.225V68.017zm6.127 0h1.226v69.243h-1.226V68.017z" fill="#003052"/><path fill="#37AAFF" d="M68.63 58.825h1.838v6.128H68.63z"/><path fill="#055A98" d="M68.017 60.664h3.064v.613h-3.064zm0 1.838h3.064v.613h-3.064z"/><path fill="#37AAFF" d="M156.868 58.825h1.838v6.128h-1.838z"/><path fill="#055A98" d="M156.255 60.664h3.064v.613h-3.064zm0 1.838h3.064v.613h-3.064z"/><path fill="#37AAFF" d="M68.63 132.357h1.838v6.128H68.63z"/><path fill="#055A98" d="M68.017 133.583h3.064v.613h-3.064zm0 2.451h3.064v.613h-3.064z"/><path d="M44.12 68.017h1.225v69.243h-1.226V68.017zm6.127 0h1.225v69.243h-1.225V68.017zm6.127 0H57.6v69.243h-1.226V68.017zm6.128 0h1.226v69.243h-1.226V68.017z" fill="#003052"/><mask id="b" maskUnits="userSpaceOnUse" x="39" y="63" width="115" height="82"><path transform="matrix(-1 0 0 1 153.191 63.727)" fill="#003052" d="M0 0h113.362v80.885H0z"/></mask><g mask="url(#b)"><path d="M196.53 139.279H69.672c-9.926 0-14.578 0-16.13-5.893-1.24-4.715 2.792-9.409 4.964-11.166v-12.717c8.27-3.102 30.21-9.367 51.798-9.615 26.984-.31 45.594 9.615 62.653 15.818 27.659 6.738 26.054 14.888 26.054 18.61 0 2.978 1.551 4.032-2.481 4.963z" fill="#37AAFF"/><path d="M180.711 137.418H81.458v1.861h102.975l-3.722-1.861z" fill="#004679"/><circle r="11.286" transform="matrix(-1 0 0 1 79.597 133.075)" fill="#055A98" stroke="#004679"/><circle r="6.324" transform="matrix(-1 0 0 1 79.597 133.075)" fill="#004679" stroke="#004679"/><path d="M64.088 115.396l-5.583-5.583v12.097l5.583-5.583v-.931z" fill="#004679"/><path d="M89.832 113.845h68.237c-12.717-7.754-33.188-11.166-47.766-11.166-6.067 0-19.541 1.14-25.562 2.379-1.826.375-2.02 1.949-.676 3.242l5.767 5.545z" fill="url(#paint16_linear)"/><path d="M119.298 116.327h-7.444l1.241.93h7.444l-1.241-.93z" fill="#004679"/><path opacity=".4" d="M142.741 127.775a4.032 4.032 0 00-2.531-.903h-32.138c-3.405 0-5.208 4.037-3.009 6.637a4.031 4.031 0 003.063 1.427h32.163c3.766 0 5.375-4.786 2.452-7.161z" fill="url(#paint17_linear)"/></g><defs><linearGradient id="paint0_linear" x1="143.387" y1="0" x2="143.387" y2="21.447" gradientUnits="userSpaceOnUse"><stop stop-color="#00B2FF"/><stop offset="1" stop-color="#fff" stop-opacity="0"/></linearGradient><linearGradient id="paint1_linear" x1="203.745" y1="23.438" x2="203.745" y2="129.6" gradientUnits="userSpaceOnUse"><stop stop-color="#CCE6FF"/><stop offset="1" stop-color="#E6F2FF" stop-opacity="0"/></linearGradient><linearGradient id="paint2_linear" x1="182.298" y1="23.438" x2="182.298" y2="129.6" gradientUnits="userSpaceOnUse"><stop stop-color="#E6F2FF"/><stop offset="1" stop-color="#E6F2FF" stop-opacity="0"/></linearGradient><linearGradient id="paint3_linear" x1="118.57" y1="44.579" x2="118.57" y2="136.953" gradientUnits="userSpaceOnUse"><stop stop-color="#CCE6FF"/><stop offset="1" stop-color="#E6F2FF" stop-opacity="0"/></linearGradient><linearGradient id="paint4_linear" x1="94.366" y1="44.579" x2="94.366" y2="136.953" gradientUnits="userSpaceOnUse"><stop stop-color="#E6F2FF"/><stop offset="1" stop-color="#E6F2FF" stop-opacity="0"/></linearGradient><linearGradient id="paint5_linear" x1="73.838" y1="0" x2="73.838" y2="106.162" gradientUnits="userSpaceOnUse"><stop stop-color="#CCE6FF"/><stop offset="1" stop-color="#E6F2FF" stop-opacity="0"/></linearGradient><linearGradient id="paint6_linear" x1="56.987" y1="0" x2="56.987" y2="106.162" gradientUnits="userSpaceOnUse"><stop stop-color="#E6F2FF"/><stop offset="1" stop-color="#E6F2FF" stop-opacity="0"/></linearGradient><linearGradient id="paint7_linear" x1="26.962" y1="44.579" x2="26.962" y2="150.74" gradientUnits="userSpaceOnUse"><stop stop-color="#CCE6FF"/><stop offset="1" stop-color="#E6F2FF" stop-opacity="0"/></linearGradient><linearGradient id="paint8_linear" x1="3.37" y1="44.579" x2="3.37" y2="150.74" gradientUnits="userSpaceOnUse"><stop stop-color="#E6F2FF"/><stop offset="1" stop-color="#E6F2FF" stop-opacity="0"/></linearGradient><linearGradient id="paint9_linear" x1="312.261" y1="67.01" x2="312.261" y2="133.137" gradientUnits="userSpaceOnUse"><stop stop-color="#004A79"/><stop offset="1" stop-color="#37AAFF"/></linearGradient><linearGradient id="paint10_linear" x1="312.261" y1="67.01" x2="312.261" y2="133.137" gradientUnits="userSpaceOnUse"><stop stop-color="#004A79"/><stop offset="1" stop-color="#37AAFF"/></linearGradient><linearGradient id="paint11_linear" x1="312.261" y1="67.01" x2="312.261" y2="133.137" gradientUnits="userSpaceOnUse"><stop stop-color="#004A79"/><stop offset="1" stop-color="#37AAFF"/></linearGradient><linearGradient id="paint12_linear" x1="312.261" y1="67.01" x2="312.261" y2="133.137" gradientUnits="userSpaceOnUse"><stop stop-color="#004A79"/><stop offset="1" stop-color="#37AAFF"/></linearGradient><linearGradient id="paint13_linear" x1="312.261" y1="67.01" x2="312.261" y2="133.137" gradientUnits="userSpaceOnUse"><stop stop-color="#004A79"/><stop offset="1" stop-color="#37AAFF"/></linearGradient><linearGradient id="paint14_linear" x1="312.261" y1="67.01" x2="312.261" y2="133.137" gradientUnits="userSpaceOnUse"><stop stop-color="#004A79"/><stop offset="1" stop-color="#37AAFF"/></linearGradient><linearGradient id="paint15_linear" x1="312.261" y1="67.01" x2="312.261" y2="133.137" gradientUnits="userSpaceOnUse"><stop stop-color="#004A79"/><stop offset="1" stop-color="#37AAFF"/></linearGradient><linearGradient id="paint16_linear" x1="92.603" y1="93.934" x2="165.451" y2="120.695" gradientUnits="userSpaceOnUse"><stop stop-color="#fff"/><stop offset="1" stop-color="#fff" stop-opacity="0"/></linearGradient><linearGradient id="paint17_linear" x1="106.54" y1="118.891" x2="125.502" y2="134.936" gradientUnits="userSpaceOnUse"><stop stop-color="#004679"/><stop offset="1" stop-color="#004679" stop-opacity="0"/></linearGradient></defs></svg>