<svg width="468" height="106" fill="none" xmlns="http://www.w3.org/2000/svg"><path fill="#37AAFF" d="M9.598 31.538h92.222V76.23H9.598zm-3.547-6.384h98.607v4.384a2 2 0 01-2 2H8.051a2 2 0 01-2-2v-4.384z"/><path opacity=".4" d="M101.5 52.5L10 32h91.5v20.5z" fill="url(#paint0_linear)"/><path d="M6.051 78.23a2 2 0 012-2h94.607a2 2 0 012 2v4.385H6.051v-4.384z" fill="#004679"/><rect x=".376" y="82.615" width="109.248" height="6.385" rx="2" fill="#004679"/><path d="M104.5 25.154H6L56.419 6 104.5 25.154z" fill="#37AAFF"/><rect opacity=".3" x="16.692" y="34.376" width="5.675" height="39.017" rx="2" fill="#004679"/><rect opacity=".3" x="29.461" y="34.376" width="5.675" height="39.017" rx="2" fill="#004679"/><rect opacity=".3" x="76.282" y="34.376" width="5.675" height="39.017" rx="2" fill="#004679"/><rect opacity=".33" x="89.051" y="34.376" width="5.675" height="39.017" rx="2" fill="#004679"/><path d="M60.422 58.89c0-.796-.223-1.426-.67-1.892-.436-.475-1.183-.911-2.24-1.31a27.696 27.696 0 01-2.735-1.178 9.214 9.214 0 01-1.979-1.352 5.663 5.663 0 01-1.28-1.805c-.3-.688-.451-1.508-.451-2.458 0-1.64.524-2.983 1.571-4.03 1.048-1.047 2.44-1.659 4.176-1.833v-3.113h2.327v3.157c1.717.242 3.06.96 4.03 2.153.97 1.183 1.455 2.72 1.455 4.611h-4.205c0-1.163-.242-2.031-.727-2.604-.475-.582-1.115-.872-1.92-.872-.796 0-1.411.227-1.848.683-.436.446-.654 1.067-.654 1.862 0 .738.213 1.33.64 1.775.426.447 1.217.902 2.37 1.368 1.165.465 2.12.907 2.867 1.324a7.98 7.98 0 011.891 1.396 5.307 5.307 0 011.179 1.775c.271.66.407 1.43.407 2.313 0 1.65-.514 2.988-1.542 4.016s-2.444 1.634-4.248 1.818v2.895h-2.313v-2.88c-1.989-.213-3.53-.917-4.627-2.11-1.086-1.202-1.63-2.798-1.63-4.786h4.205c0 1.154.272 2.042.815 2.662.553.611 1.343.917 2.371.917.854 0 1.528-.223 2.023-.67.494-.455.742-1.066.742-1.833z" fill="#fff"/><circle cx="225" cy="53" r="53" fill="#fff"/><circle cx="225" cy="53" r="51" stroke="url(#paint1_angular)" stroke-width="4"/><circle opacity=".4" cx="225" cy="53" r="44.5" stroke="url(#paint2_angular)" stroke-width="5" stroke-dasharray="1 4"/><path d="M225 35.549v16.45l-25.854 24.27" stroke="#000"/><path fill="#721C22" d="M224 35h2v17h-2z"/><circle cx="225" cy="52" r="2" fill="#000"/><path d="M463.839 68.268H347.061c-9.137 0-13.42 0-14.848-5.425-1.142-4.34 2.57-8.661 4.569-10.279V40.858c7.614-2.855 27.81-8.623 47.682-8.851 24.84-.286 41.971 8.85 57.675 14.561C467.6 52.77 466.123 60.273 466.123 63.7c0 2.741 1.427 3.712-2.284 4.569z" fill="#37AAFF"/><path d="M449.277 66.555H357.91v1.713h94.793l-3.426-1.713z" fill="#004679"/><circle r="10.35" transform="matrix(-1 0 0 1 439.569 62.557)" fill="#055A98" stroke="#004679"/><circle r="5.781" transform="matrix(-1 0 0 1 439.569 62.557)" fill="#004679" stroke="#004679"/><circle r="10.35" transform="matrix(-1 0 0 1 356.197 62.557)" fill="#055A98" stroke="#004679"/><circle r="5.781" transform="matrix(-1 0 0 1 356.197 62.557)" fill="#004679" stroke="#004679"/><path d="M341.921 46.283l-5.139-5.14V52.28l5.139-5.14v-.856z" fill="#004679"/><path d="M454.702 52.85h4.283c1.827.456 4.663 2.95 5.71 4.282l-5.71.286c-1.047-.857-3.369-2.684-4.283-3.14-.914-.458-.381-1.143 0-1.428z" fill="url(#paint3_linear)"/><path d="M365.619 44.855h62.815c-11.707-7.138-30.551-10.279-43.97-10.279-5.506 0-17.635 1.02-23.288 2.14-1.829.363-2.027 1.917-.683 3.21l5.126 4.929z" fill="url(#paint4_linear)"/><path d="M392.744 47.139h-6.853l1.142.857h6.853l-1.142-.857zM467.55 63.7H456.7v.57h10.85zm-1.142-1.143h-10.85v.571h10.85z" fill="#004679"/><path opacity=".4" d="M414.324 57.678a3.712 3.712 0 00-2.341-.831h-29.51c-3.16 0-4.874 3.697-2.833 6.11a3.712 3.712 0 002.833 1.313h29.51c3.495 0 5.053-4.389 2.341-6.592z" fill="url(#paint5_linear)"/><path d="M116.5 54.5H157m128 0h40.5" stroke="#CACCCC"/><defs><linearGradient id="paint0_linear" x1="15" y1="29" x2="100.5" y2="71" gradientUnits="userSpaceOnUse"><stop stop-color="#004679"/><stop offset="1" stop-color="#004679" stop-opacity="0"/></linearGradient><linearGradient id="paint3_linear" x1="459.303" y1="52.85" x2="459.303" y2="57.418" gradientUnits="userSpaceOnUse"><stop stop-color="#fff"/><stop offset="1" stop-color="#C4C4C4" stop-opacity="0"/></linearGradient><linearGradient id="paint4_linear" x1="368.17" y1="26.526" x2="435.23" y2="51.16" gradientUnits="userSpaceOnUse"><stop stop-color="#fff"/><stop offset="1" stop-color="#fff" stop-opacity="0"/></linearGradient><linearGradient id="paint5_linear" x1="381" y1="49.5" x2="398.454" y2="64.27" gradientUnits="userSpaceOnUse"><stop stop-color="#004679"/><stop offset="1" stop-color="#004679" stop-opacity="0"/></linearGradient><radialGradient id="paint1_angular" cx="0" cy="0" r="1" gradientUnits="userSpaceOnUse" gradientTransform="matrix(0 53 -53 0 225 53)"><stop offset=".51" stop-color="#004679" stop-opacity="0"/><stop offset=".512" stop-color="#37AAFF"/></radialGradient><radialGradient id="paint2_angular" cx="0" cy="0" r="1" gradientUnits="userSpaceOnUse" gradientTransform="matrix(0 47 -47 0 225 53)"><stop offset=".511" stop-color="#254B97" stop-opacity="0"/><stop offset=".512" stop-color="#68ABDA"/></radialGradient></defs></svg>