<svg width="428" height="290" fill="none" xmlns="http://www.w3.org/2000/svg"><g filter="url(#filter0_d)"><rect x="2" y="89" width="424" height="50" rx="4" fill="#fff"/></g><g filter="url(#filter1_d)"><rect x="2" y="149" width="424" height="50" rx="4" fill="#fff"/></g><g opacity=".8" filter="url(#filter2_d)"><rect x="26" y="207" width="376" height="40" rx="4" fill="#fff"/></g><g opacity=".4" filter="url(#filter3_d)"><rect x="44" y="253" width="340" height="34" rx="4" fill="#fff"/></g><g opacity=".8" filter="url(#filter4_d)"><rect x="44" y="41" width="340" height="40" rx="4" fill="#fff"/></g><g opacity=".4" filter="url(#filter5_d)"><rect x="59" y="1" width="310" height="34" rx="4" fill="#fff"/></g><path opacity=".5" d="M139.308 21.117c-.993 0-1.789-.327-2.388-.981-.596-.655-.894-1.506-.894-2.554 0-1.126.305-2.025.913-2.695.609-.67 1.438-1.006 2.486-1.006.967 0 1.745.325 2.334.976.592.652.888 1.503.888 2.554 0 1.143-.302 2.046-.908 2.71-.605.664-1.416.996-2.431.996zm.058-6.494c-.735 0-1.333.265-1.792.796-.459.53-.688 1.227-.688 2.09 0 .862.223 1.557.669 2.085.449.524 1.033.786 1.753.786.768 0 1.373-.25 1.816-.752.443-.501.664-1.203.664-2.105 0-.924-.215-1.639-.644-2.143-.43-.505-1.023-.757-1.778-.757zM150.216 16l-1.499 5h-.83l-1.031-3.58a2.335 2.335 0 01-.078-.463h-.019c-.01.117-.044.269-.103.454L145.538 21h-.801l-1.513-5h.839l1.036 3.76c.032.114.055.263.068.449h.039a2.11 2.11 0 01.088-.459l1.152-3.75h.733l1.035 3.77c.032.12.057.27.073.449h.039c.007-.127.034-.277.083-.45L149.425 16h.791zm5.078 5h-.801v-2.852c0-1.06-.387-1.591-1.162-1.591-.4 0-.732.151-.996.454-.26.3-.391.678-.391 1.137V21h-.8v-5h.8v.83h.02c.377-.631.924-.947 1.64-.947.547 0 .966.177 1.255.532.29.352.435.861.435 1.528V21zm5.532-2.3h-3.53c.013.557.163.986.449 1.29.287.302.68.453 1.182.453.563 0 1.08-.185 1.552-.556v.752c-.439.319-1.02.478-1.743.478-.706 0-1.261-.226-1.665-.678-.403-.456-.605-1.096-.605-1.92 0-.777.22-1.41.659-1.899a2.126 2.126 0 011.646-.737c.654 0 1.16.211 1.518.635.358.423.537 1.01.537 1.762v.42zm-.82-.678c-.003-.463-.116-.822-.337-1.08-.218-.257-.523-.385-.913-.385-.378 0-.698.135-.962.405s-.426.623-.488 1.06h2.7zm4.643-1.211c-.14-.108-.341-.162-.605-.162-.342 0-.628.162-.859.484-.228.322-.342.762-.342 1.318V21h-.801v-5h.801v1.03h.019c.114-.351.288-.625.523-.82.234-.199.496-.298.786-.298.208 0 .368.023.478.068v.83zm.567 4.008v-.859a2.37 2.37 0 001.44.483c.703 0 1.055-.234 1.055-.703a.585.585 0 00-.093-.337.838.838 0 00-.244-.249 1.705 1.705 0 00-.361-.19 13.725 13.725 0 00-.445-.18 6.561 6.561 0 01-.586-.264 1.934 1.934 0 01-.42-.303 1.202 1.202 0 01-.253-.386 1.378 1.378 0 01-.083-.503c0-.234.053-.441.161-.62a1.39 1.39 0 01.429-.454c.179-.124.383-.217.611-.278a2.74 2.74 0 01.713-.093c.433 0 .82.075 1.162.224v.811a2.266 2.266 0 00-1.27-.361c-.15 0-.285.018-.405.053a.99.99 0 00-.313.142.701.701 0 00-.2.225.594.594 0 00-.068.283c0 .13.023.239.068.327a.753.753 0 00.21.234c.091.069.202.13.332.186.13.055.279.115.445.18.221.085.42.173.595.264.176.088.326.189.45.303.123.11.218.24.283.386.068.146.102.32.102.522 0 .248-.055.462-.166.645a1.374 1.374 0 01-.434.454c-.183.12-.393.21-.63.268a3.114 3.114 0 01-.747.088c-.515 0-.961-.1-1.338-.298zm8.701.181h-.801v-2.88c0-1.043-.387-1.563-1.162-1.563-.391 0-.719.151-.986.454-.267.3-.401.685-.401 1.157V21h-.8v-7.402h.8v3.232h.02c.384-.631.931-.947 1.641-.947 1.126 0 1.689.678 1.689 2.036V21zm1.924-6.27a.508.508 0 01-.518-.517c0-.15.051-.273.152-.371a.499.499 0 01.366-.152c.146 0 .27.05.371.152a.487.487 0 01.156.37.492.492 0 01-.156.367.505.505 0 01-.371.151zm.39 6.27h-.8v-5h.8v5zm2.442-.723h-.02V23.3h-.8V16h.8v.879h.02c.394-.664.97-.996 1.728-.996.645 0 1.148.224 1.509.674.361.446.542 1.045.542 1.797 0 .836-.203 1.507-.61 2.011-.407.502-.964.752-1.67.752-.648 0-1.148-.28-1.499-.84zm-.02-2.016v.698c0 .413.134.765.401 1.055.27.286.612.43 1.025.43.485 0 .864-.186 1.138-.557.276-.371.415-.887.415-1.548 0-.557-.129-.993-.386-1.309-.257-.316-.605-.473-1.045-.473-.465 0-.84.162-1.123.488-.283.322-.425.727-.425 1.216zm7.93 2.739v-7.002h1.934c2.467 0 3.701 1.138 3.701 3.413 0 1.08-.344 1.95-1.03 2.608-.684.654-1.6.981-2.75.981h-1.855zm.82-6.26v5.518h1.045c.918 0 1.633-.246 2.144-.738.511-.491.766-1.188.766-2.09 0-1.793-.953-2.69-2.861-2.69h-1.094zm8.174 6.377c-.739 0-1.33-.233-1.772-.698-.44-.469-.659-1.089-.659-1.86 0-.84.229-1.496.688-1.968.459-.472 1.079-.708 1.86-.708.746 0 1.327.23 1.744.688.419.46.629 1.096.629 1.91 0 .797-.226 1.437-.678 1.918-.45.479-1.053.718-1.812.718zm.059-4.56c-.515 0-.921.175-1.221.527-.299.348-.449.83-.449 1.445 0 .593.151 1.06.454 1.402.303.341.708.512 1.216.512.517 0 .914-.167 1.191-.503.28-.335.42-.812.42-1.43 0-.625-.14-1.107-.42-1.446-.277-.338-.674-.507-1.191-.507zm7.119 4.213c-.384.232-.84.347-1.367.347-.713 0-1.289-.23-1.729-.693-.436-.466-.654-1.068-.654-1.807 0-.823.236-1.484.708-1.982.472-.502 1.102-.752 1.89-.752.439 0 .826.081 1.162.244v.82a2.037 2.037 0 00-1.192-.39c-.511 0-.931.184-1.26.551-.325.365-.488.845-.488 1.44 0 .587.153 1.049.459 1.388.309.338.723.507 1.24.507.437 0 .847-.145 1.231-.434v.761zm8.203-6.03h-2.021V21h-.821v-6.26H206.1v-.742h4.858v.742zm4.419 1.26l-2.3 5.8c-.41 1.036-.986 1.553-1.728 1.553a1.83 1.83 0 01-.523-.063v-.718c.173.059.331.088.474.088.403 0 .706-.24.908-.723l.4-.947-1.953-4.99h.889l1.352 3.848c.017.049.051.175.103.38h.029a6.19 6.19 0 01.098-.37L214.547 16h.83zm1.685 4.277h-.02V23.3h-.801V16h.801v.879h.02c.393-.664.97-.996 1.728-.996.645 0 1.148.224 1.509.674.361.446.542 1.045.542 1.797 0 .836-.204 1.507-.611 2.011-.406.502-.963.752-1.669.752-.648 0-1.148-.28-1.499-.84zm-.02-2.016v.698c0 .413.133.765.4 1.055.271.286.612.43 1.026.43.485 0 .864-.186 1.137-.557.277-.371.416-.887.416-1.548 0-.557-.129-.993-.386-1.309-.257-.316-.606-.473-1.045-.473-.466 0-.84.162-1.123.488-.283.322-.425.727-.425 1.216zm9.097.44h-3.531c.013.556.163.985.45 1.288.286.303.68.454 1.181.454.563 0 1.081-.185 1.553-.556v.752c-.439.319-1.021.478-1.743.478-.707 0-1.262-.226-1.665-.678-.404-.456-.606-1.096-.606-1.92 0-.777.22-1.41.66-1.899a2.124 2.124 0 011.645-.737c.654 0 1.16.211 1.519.635.358.423.537 1.01.537 1.762v.42zm-.821-.68c-.003-.462-.115-.822-.337-1.079-.218-.257-.522-.385-.913-.385-.377 0-.698.135-.962.405-.263.27-.426.623-.488 1.06h2.7zm2.315-1.044a.526.526 0 01-.386-.162.535.535 0 01-.156-.385.534.534 0 01.542-.537c.153 0 .283.052.39.156a.51.51 0 01.162.38c0 .15-.054.279-.162.386a.53.53 0 01-.39.162zm0 4.13a.526.526 0 01-.386-.16.535.535 0 01-.156-.386c0-.15.052-.279.156-.386a.518.518 0 01.386-.166c.153 0 .283.055.39.166a.525.525 0 01.162.386c0 .15-.054.278-.162.385a.53.53 0 01-.39.161zm4.624-.107v-7.002h2.549c.781 0 1.382.143 1.801.43.42.286.63.69.63 1.21 0 .378-.128.709-.385.992-.254.283-.58.48-.977.59v.02c.498.062.895.246 1.191.552.3.306.45.679.45 1.118 0 .641-.23 1.15-.689 1.529-.459.374-1.085.561-1.88.561h-2.69zm1.577-5.84v1.66h.693c.326 0 .581-.078.767-.234.189-.16.283-.378.283-.654 0-.515-.384-.772-1.152-.772h-.591zm0 2.832v1.846h.854c.365 0 .65-.085.855-.254.208-.17.312-.4.312-.693a.79.79 0 00-.307-.66c-.202-.16-.485-.239-.85-.239h-.864zM240.25 21h-1.577v-7.002h1.577V21zm5.767 0h-4.17v-7.002h1.577v5.723h2.593V21zm5.117 0h-4.17v-7.002h1.577v5.723h2.593V21zm6.67.122c-1.003 0-1.82-.325-2.451-.977-.632-.654-.948-1.505-.948-2.553 0-1.107.321-2.002.962-2.686.641-.683 1.491-1.025 2.549-1.025.999 0 1.807.327 2.422.981.618.655.928 1.517.928 2.588 0 1.1-.321 1.988-.962 2.661-.638.674-1.472 1.011-2.5 1.011zm.068-5.884c-.553 0-.993.209-1.318.625-.326.414-.489.962-.489 1.646 0 .693.163 1.242.489 1.645.325.404.752.606 1.279.606.544 0 .975-.196 1.294-.586.319-.394.478-.94.478-1.636 0-.726-.154-1.29-.463-1.694-.31-.404-.733-.606-1.27-.606zm8.608.044h-2.47v1.719h2.27v1.28h-2.27V21h-1.577v-7.002h4.047v1.284zm3.638 5.45v-1.563c.56.475 1.177.713 1.851.713.322 0 .573-.065.752-.196a.617.617 0 00.268-.517c0-.182-.075-.353-.224-.513-.15-.162-.508-.377-1.075-.644-1.067-.505-1.601-1.188-1.601-2.051 0-.628.231-1.131.693-1.509.466-.38 1.086-.571 1.861-.571.683 0 1.25.09 1.699.268v1.46a2.758 2.758 0 00-1.612-.488c-.302 0-.542.065-.717.195a.608.608 0 00-.264.513.75.75 0 00.205.532c.14.147.433.326.879.537.69.33 1.165.656 1.426.982.26.325.39.71.39 1.152 0 .645-.232 1.154-.698 1.529-.462.374-1.136.561-2.021.561-.726 0-1.33-.13-1.812-.39zM281.92 21h-1.719l-.498-1.558h-2.49L276.72 21h-1.709l2.549-7.002h1.87L281.92 21zm-2.578-2.769l-.752-2.353a3.038 3.038 0 01-.117-.63h-.039a2.716 2.716 0 01-.122.61l-.762 2.373h1.792zM286.964 21h-4.17v-7.002h1.577v5.723h2.593V21zm5.146 0h-4.199v-7.002h4.038v1.284h-2.461v1.558h2.29v1.28h-2.29v1.6h2.622V21zM160.113 272.117c-.993 0-1.788-.327-2.387-.981-.596-.655-.894-1.506-.894-2.554 0-1.126.304-2.025.913-2.695.609-.671 1.437-1.006 2.485-1.006.967 0 1.745.325 2.334.976.593.651.889 1.503.889 2.554 0 1.143-.303 2.046-.908 2.71-.606.664-1.416.996-2.432.996zm.059-6.494c-.736 0-1.333.265-1.792.796-.459.531-.689 1.227-.689 2.09 0 .862.223 1.557.669 2.085.45.524 1.034.786 1.753.786.769 0 1.374-.251 1.817-.752.442-.501.664-1.203.664-2.105 0-.924-.215-1.639-.645-2.143-.429-.505-1.022-.757-1.777-.757zM171.021 267l-1.499 5h-.83l-1.03-3.579a2.335 2.335 0 01-.078-.464h-.02a2.104 2.104 0 01-.102.454L166.344 272h-.801l-1.514-5h.84l1.035 3.76c.033.114.056.263.069.449h.039c.009-.143.039-.296.088-.459l1.152-3.75h.732l1.036 3.77c.032.12.056.27.073.449h.039a2.03 2.03 0 01.083-.449l1.015-3.77h.791zm5.079 5h-.801v-2.852c0-1.061-.388-1.591-1.162-1.591-.401 0-.733.151-.996.454-.261.299-.391.678-.391 1.137V272h-.801v-5h.801v.83h.02c.377-.631.924-.947 1.64-.947.547 0 .965.177 1.255.532.29.352.435.861.435 1.528V272zm5.532-2.3h-3.53c.013.557.162.987.449 1.289.286.303.68.454 1.181.454.564 0 1.081-.185 1.553-.556v.752c-.439.319-1.02.478-1.743.478-.706 0-1.261-.226-1.665-.679-.404-.455-.606-1.095-.606-1.918 0-.778.22-1.412.66-1.9a2.126 2.126 0 011.645-.737c.654 0 1.161.211 1.519.635.358.423.537 1.01.537 1.762v.42zm-.82-.679c-.004-.462-.116-.821-.337-1.079-.218-.257-.523-.385-.913-.385-.378 0-.699.135-.962.405-.264.27-.427.623-.489 1.059h2.701zm4.643-1.21c-.14-.108-.342-.162-.605-.162-.342 0-.629.162-.86.484-.228.322-.342.762-.342 1.318V272h-.8v-5h.8v1.03h.02c.114-.351.288-.625.522-.82.235-.199.497-.298.787-.298.208 0 .367.023.478.068v.831zm.566 4.008v-.859c.437.322.917.483 1.441.483.703 0 1.055-.234 1.055-.703a.586.586 0 00-.093-.337.86.86 0 00-.244-.249 1.727 1.727 0 00-.362-.19 12.184 12.184 0 00-.444-.181 6.73 6.73 0 01-.586-.263 1.99 1.99 0 01-.42-.303 1.21 1.21 0 01-.254-.386 1.399 1.399 0 01-.083-.503c0-.234.054-.441.161-.62.108-.182.251-.334.43-.454.179-.124.383-.217.61-.278.232-.062.469-.093.713-.093.433 0 .821.075 1.162.224v.811a2.261 2.261 0 00-1.269-.361c-.15 0-.285.018-.405.053a.99.99 0 00-.313.142.692.692 0 00-.2.225.58.58 0 00-.068.283.7.7 0 00.068.327.746.746 0 00.21.234c.091.069.202.13.332.186.13.055.278.115.444.181.222.084.42.172.596.263.176.088.325.189.449.303.124.111.218.239.283.386.069.146.103.32.103.522 0 .248-.055.462-.166.645a1.386 1.386 0 01-.435.454c-.182.12-.392.21-.63.268a3.082 3.082 0 01-.747.088c-.514 0-.96-.099-1.338-.298zm8.702.181h-.801v-2.881c0-1.042-.387-1.562-1.162-1.562-.391 0-.72.151-.987.454-.266.299-.4.685-.4 1.157V272h-.801v-7.402h.801v3.232h.02c.384-.631.931-.947 1.64-.947 1.127 0 1.69.679 1.69 2.036V272zm1.923-6.27a.506.506 0 01-.517-.517c0-.15.05-.274.151-.371a.5.5 0 01.366-.152c.147 0 .271.051.372.152a.486.486 0 01.156.371.492.492 0 01-.156.366.505.505 0 01-.372.151zm.391 6.27h-.801v-5h.801v5zm2.442-.723h-.02v3.023h-.801V267h.801v.879h.02c.393-.664.97-.996 1.728-.996.645 0 1.147.224 1.509.674.361.446.542 1.045.542 1.797 0 .836-.204 1.507-.611 2.011-.406.502-.963.752-1.669.752-.648 0-1.148-.28-1.499-.84zm-.02-2.016v.698c0 .413.133.765.4 1.055.271.286.612.429 1.026.429.485 0 .864-.185 1.137-.556.277-.371.416-.887.416-1.548 0-.557-.129-.993-.386-1.309-.257-.315-.606-.473-1.045-.473-.466 0-.84.162-1.123.488-.283.322-.425.727-.425 1.216zm7.93 2.739v-7.002h1.933c2.468 0 3.701 1.138 3.701 3.413 0 1.081-.343 1.95-1.03 2.608-.683.654-1.6.981-2.749.981h-1.855zm.82-6.26v5.518h1.045c.918 0 1.632-.246 2.143-.737.512-.492.767-1.189.767-2.09 0-1.794-.954-2.691-2.861-2.691h-1.094zm8.174 6.377c-.739 0-1.33-.233-1.773-.698-.439-.469-.659-1.089-.659-1.86 0-.84.23-1.496.689-1.968.459-.472 1.079-.708 1.86-.708.745 0 1.326.229 1.743.688.42.459.63 1.096.63 1.909 0 .798-.226 1.438-.679 1.919-.449.479-1.053.718-1.811.718zm.058-4.56c-.514 0-.921.175-1.22.527-.3.348-.45.83-.45 1.445 0 .593.152 1.06.455 1.402.302.341.708.512 1.215.512.518 0 .915-.167 1.192-.503.28-.335.42-.812.42-1.43 0-.625-.14-1.107-.42-1.446-.277-.338-.674-.507-1.192-.507zm7.12 4.214c-.385.231-.84.346-1.368.346-.713 0-1.289-.231-1.728-.693-.436-.466-.654-1.068-.654-1.807 0-.823.236-1.484.708-1.982.472-.502 1.101-.752 1.889-.752.44 0 .827.081 1.162.244v.82a2.037 2.037 0 00-1.191-.39c-.511 0-.931.184-1.26.551-.325.365-.488.845-.488 1.441 0 .586.153 1.048.459 1.387.309.338.722.507 1.24.507.436 0 .846-.144 1.231-.434v.762zm8.203-6.031h-2.022V272h-.82v-6.26h-2.017v-.742h4.859v.742zm4.419 1.26l-2.3 5.801c-.41 1.035-.987 1.553-1.729 1.553a1.84 1.84 0 01-.522-.064v-.718c.172.059.33.088.473.088.404 0 .707-.241.909-.722l.4-.948-1.953-4.99h.889l1.352 3.848c.016.048.051.175.103.381h.029c.016-.079.049-.202.098-.372l1.421-3.857h.83zm1.684 4.277h-.019v3.023h-.801V267h.801v.879h.019c.394-.664.97-.996 1.729-.996.644 0 1.147.224 1.508.674.362.446.542 1.045.542 1.797 0 .836-.203 1.507-.61 2.011-.407.502-.963.752-1.67.752-.648 0-1.147-.28-1.499-.84zm-.019-2.016v.698c0 .413.133.765.4 1.055.27.286.612.429 1.025.429.485 0 .865-.185 1.138-.556.277-.371.415-.887.415-1.548 0-.557-.128-.993-.386-1.309-.257-.315-.605-.473-1.044-.473-.466 0-.84.162-1.124.488-.283.322-.424.727-.424 1.216zm9.096.439h-3.53c.013.557.163.987.449 1.289.287.303.681.454 1.182.454.563 0 1.081-.185 1.553-.556v.752c-.44.319-1.021.478-1.744.478-.706 0-1.261-.226-1.665-.679-.403-.455-.605-1.095-.605-1.918 0-.778.22-1.412.659-1.9a2.128 2.128 0 011.646-.737c.654 0 1.16.211 1.518.635.358.423.537 1.01.537 1.762v.42zm-.82-.679c-.003-.462-.116-.821-.337-1.079-.218-.257-.522-.385-.913-.385-.378 0-.698.135-.962.405s-.426.623-.488 1.059h2.7zm2.314-1.044a.524.524 0 01-.385-.162.535.535 0 01-.157-.385.534.534 0 01.542-.537c.153 0 .284.052.391.156a.508.508 0 01.161.381.523.523 0 01-.161.385.53.53 0 01-.391.162zm0 4.13a.523.523 0 01-.385-.161.535.535 0 01-.157-.385c0-.15.053-.279.157-.386a.516.516 0 01.385-.166c.153 0 .284.055.391.166a.523.523 0 01.161.386.523.523 0 01-.161.385.53.53 0 01-.391.161zm4.624-.107v-7.002h2.549c.782 0 1.382.143 1.802.43.42.286.63.69.63 1.211 0 .377-.129.708-.386.991-.254.283-.579.48-.976.591v.019c.498.062.895.246 1.191.552.3.306.449.679.449 1.118 0 .641-.229 1.151-.688 1.528-.459.375-1.086.562-1.88.562h-2.691zm1.578-5.84v1.66h.693c.326 0 .581-.078.767-.234.188-.16.283-.378.283-.654 0-.515-.384-.772-1.153-.772h-.59zm0 2.832v1.846h.854c.365 0 .65-.085.855-.254.208-.169.312-.4.312-.693a.79.79 0 00-.307-.66c-.202-.159-.486-.239-.85-.239h-.864zm7.798 3.13c-1.003 0-1.82-.325-2.452-.976-.631-.655-.947-1.506-.947-2.554 0-1.107.321-2.002.962-2.686.641-.683 1.491-1.025 2.549-1.025.999 0 1.806.327 2.422.981.618.655.927 1.517.927 2.588 0 1.1-.32 1.988-.961 2.661-.639.674-1.472 1.011-2.5 1.011zm.068-5.884c-.554 0-.993.209-1.318.625-.326.414-.489.962-.489 1.646 0 .693.163 1.242.489 1.645.325.404.751.606 1.279.606.543 0 .975-.196 1.294-.586.319-.394.478-.939.478-1.636 0-.726-.154-1.291-.464-1.694-.309-.404-.732-.606-1.269-.606zm4.277 5.493v-1.562c.56.475 1.177.713 1.851.713.322 0 .573-.065.752-.195a.618.618 0 00.268-.518c0-.182-.075-.353-.224-.513-.15-.163-.508-.377-1.075-.644-1.067-.505-1.601-1.188-1.601-2.051 0-.628.231-1.131.693-1.509.466-.381 1.086-.571 1.861-.571.683 0 1.25.089 1.699.268v1.46a2.76 2.76 0 00-1.611-.488c-.303 0-.542.065-.718.195a.61.61 0 00-.264.513.75.75 0 00.205.532c.14.147.433.326.879.537.69.329 1.165.656 1.426.982.26.325.39.71.39 1.152 0 .645-.232 1.154-.698 1.529-.462.374-1.136.561-2.021.561-.726 0-1.33-.13-1.812-.391z" fill="#000"/><path opacity=".7" d="M145.305 65.14c-1.192 0-2.147-.392-2.866-1.177-.714-.785-1.072-1.807-1.072-3.065 0-1.351.365-2.43 1.096-3.234.73-.805 1.725-1.207 2.982-1.207 1.16 0 2.094.39 2.801 1.172.711.781 1.066 1.803 1.066 3.064 0 1.372-.363 2.455-1.089 3.252-.727.797-1.7 1.196-2.918 1.196zm.07-7.792c-.883 0-1.6.318-2.15.955-.551.637-.827 1.472-.827 2.508 0 1.035.268 1.869.803 2.502.539.628 1.24.943 2.104.943.922 0 1.648-.3 2.179-.903.532-.601.797-1.443.797-2.525 0-1.11-.258-1.967-.773-2.572-.516-.606-1.227-.908-2.133-.908zM158.395 59l-1.799 6h-.996l-1.237-4.295a2.748 2.748 0 01-.093-.557h-.024a2.652 2.652 0 01-.123.545L152.781 65h-.961l-1.816-6h1.008l1.242 4.512c.039.136.066.316.082.539h.047c.012-.172.047-.356.105-.551l1.383-4.5h.879l1.242 4.523c.039.145.069.325.088.54h.047c.008-.153.041-.333.1-.54L157.445 59h.95zm6.093 6h-.961v-3.422c0-1.273-.465-1.91-1.394-1.91-.481 0-.879.182-1.195.545-.313.36-.469.814-.469 1.365V65h-.961v-6h.961v.996h.023c.453-.758 1.11-1.137 1.969-1.137.656 0 1.158.213 1.506.639.347.422.521 1.033.521 1.834V65zm6.639-2.76h-4.236c.015.668.195 1.184.539 1.547.343.363.816.545 1.418.545.675 0 1.297-.223 1.863-.668v.902c-.527.383-1.225.575-2.092.575-.848 0-1.514-.272-1.998-.815-.484-.547-.726-1.314-.726-2.303 0-.933.263-1.693.791-2.279.531-.59 1.189-.885 1.974-.885.785 0 1.393.254 1.822.762.43.508.645 1.213.645 2.115v.504zm-.984-.814c-.004-.555-.139-.986-.405-1.295-.261-.309-.627-.463-1.095-.463-.454 0-.838.162-1.155.486-.316.324-.511.748-.586 1.272h3.241zm5.572-1.453c-.168-.13-.41-.194-.727-.194-.41 0-.754.194-1.031.58-.273.387-.41.914-.41 1.582V65h-.961v-6h.961v1.236h.023c.137-.421.346-.75.627-.984.282-.238.596-.358.944-.358.25 0 .441.028.574.083v.996zm.68 4.81v-1.031a2.84 2.84 0 001.728.58c.844 0 1.266-.281 1.266-.844a.698.698 0 00-.112-.404 1.009 1.009 0 00-.293-.299 2.037 2.037 0 00-.433-.228c-.164-.07-.342-.143-.533-.217a7.787 7.787 0 01-.704-.317 2.3 2.3 0 01-.503-.363 1.439 1.439 0 01-.305-.463 1.657 1.657 0 01-.1-.603c0-.282.065-.53.194-.744.129-.22.3-.4.515-.545a2.35 2.35 0 01.733-.334 3.29 3.29 0 01.855-.112c.52 0 .985.09 1.395.27v.973a2.721 2.721 0 00-1.524-.434c-.179 0-.342.022-.486.064-.145.04-.27.096-.375.17a.82.82 0 00-.24.27.701.701 0 00-.082.34.84.84 0 00.082.392c.058.106.142.2.252.281.109.083.242.157.398.223.156.067.334.139.533.217.266.102.504.207.715.316.211.106.391.227.539.364.149.133.262.287.34.463.082.175.123.384.123.627 0 .296-.066.554-.199.773-.129.219-.303.4-.522.545a2.39 2.39 0 01-.756.322 3.73 3.73 0 01-.896.106c-.617 0-1.152-.12-1.605-.358zm10.441.217h-.961v-3.457c0-1.25-.465-1.875-1.395-1.875-.468 0-.863.182-1.183.545-.32.36-.481.822-.481 1.389V65h-.961v-8.883h.961v3.88h.024c.461-.759 1.117-1.138 1.969-1.138 1.351 0 2.027.815 2.027 2.444V65zm2.309-7.523a.61.61 0 01-.622-.621c0-.18.061-.329.182-.446a.6.6 0 01.44-.181c.175 0 .324.06.445.181a.583.583 0 01.187.446.589.589 0 01-.187.439.606.606 0 01-.445.182zm.468 7.523h-.961v-6h.961v6zm2.93-.867h-.023v3.627h-.961V59h.961v1.055h.023c.473-.797 1.164-1.196 2.074-1.196.774 0 1.377.27 1.811.809.433.535.65 1.254.65 2.156 0 1.004-.244 1.809-.732 2.414-.489.602-1.157.903-2.004.903-.778 0-1.377-.336-1.799-1.008zm-.023-2.42v.838c0 .496.16.918.48 1.265.324.344.734.516 1.23.516.582 0 1.038-.223 1.366-.668.332-.445.498-1.064.498-1.857 0-.668-.155-1.192-.463-1.57-.309-.38-.727-.569-1.254-.569-.559 0-1.008.195-1.348.586-.34.387-.509.873-.509 1.459zM202.035 65v-8.402h2.32c2.961 0 4.442 1.365 4.442 4.095 0 1.297-.412 2.34-1.236 3.13-.821.784-1.92 1.177-3.299 1.177h-2.227zm.985-7.512v6.621h1.253c1.102 0 1.959-.294 2.573-.884.613-.59.92-1.426.92-2.508 0-2.152-1.145-3.229-3.434-3.229h-1.312zm9.808 7.653c-.887 0-1.596-.28-2.127-.838-.527-.563-.791-1.307-.791-2.233 0-1.008.276-1.795.826-2.361.551-.566 1.295-.85 2.233-.85.894 0 1.592.276 2.092.826.503.551.755 1.315.755 2.292 0 .957-.271 1.724-.814 2.302-.539.575-1.264.862-2.174.862zm.07-5.473c-.617 0-1.105.21-1.464.633-.36.418-.539.996-.539 1.734 0 .711.181 1.272.544 1.682.364.41.85.615 1.459.615.622 0 1.098-.201 1.43-.603.336-.403.504-.975.504-1.717 0-.75-.168-1.328-.504-1.735-.332-.406-.808-.609-1.43-.609zm8.543 5.057c-.461.277-1.007.416-1.64.416-.856 0-1.547-.278-2.074-.832-.524-.559-.786-1.282-.786-2.168 0-.989.284-1.782.85-2.38.566-.6 1.322-.902 2.268-.902.527 0 .992.098 1.394.293v.985a2.443 2.443 0 00-1.43-.469c-.613 0-1.117.22-1.511.662-.391.438-.586 1.014-.586 1.729 0 .703.183 1.257.551 1.664.371.406.867.609 1.488.609.523 0 1.015-.174 1.476-.521v.914zm9.844-7.237h-2.426V65h-.984v-7.512h-2.42v-.89h5.83v.89zM236.588 59l-2.76 6.96c-.492 1.243-1.183 1.864-2.074 1.864-.25 0-.459-.025-.627-.076v-.861c.207.07.396.105.568.105.485 0 .848-.289 1.09-.867l.481-1.137L230.922 59h1.066l1.623 4.617c.02.059.061.211.123.457h.036a6.35 6.35 0 01.117-.445L235.592 59h.996zm2.021 5.133h-.023v3.627h-.961V59h.961v1.055h.023c.473-.797 1.164-1.196 2.075-1.196.773 0 1.377.27 1.81.809.434.535.651 1.254.651 2.156 0 1.004-.245 1.809-.733 2.414-.488.602-1.156.903-2.004.903-.777 0-1.377-.336-1.799-1.008zm-.023-2.42v.838c0 .496.16.918.48 1.265.325.344.735.516 1.231.516.582 0 1.037-.223 1.365-.668.332-.445.498-1.064.498-1.857 0-.668-.154-1.192-.463-1.57-.308-.38-.726-.569-1.254-.569-.558 0-1.007.195-1.347.586-.34.387-.51.873-.51 1.459zm10.916.527h-4.236c.015.668.195 1.184.539 1.547.343.363.816.545 1.418.545.675 0 1.297-.223 1.863-.668v.902c-.527.383-1.225.575-2.092.575-.848 0-1.514-.272-1.998-.815-.484-.547-.726-1.314-.726-2.303 0-.933.263-1.693.791-2.279.531-.59 1.189-.885 1.974-.885.785 0 1.393.254 1.822.762.43.508.645 1.213.645 2.115v.504zm-.984-.814c-.004-.555-.139-.986-.405-1.295-.261-.309-.627-.463-1.095-.463-.454 0-.838.162-1.155.486-.316.324-.511.748-.586 1.272h3.241zm2.777-1.254a.632.632 0 01-.463-.194.641.641 0 01-.187-.462.641.641 0 01.65-.645.65.65 0 01.469.188.612.612 0 01.193.457.63.63 0 01-.193.462.638.638 0 01-.469.194zm0 4.957a.631.631 0 01-.463-.194.641.641 0 01-.187-.462.64.64 0 01.187-.463.622.622 0 01.463-.2.63.63 0 01.469.2.63.63 0 01.193.463.63.63 0 01-.193.463.638.638 0 01-.469.193zm9.053-3.463c0 1.125-.262 1.986-.786 2.584-.519.598-1.273.897-2.261.897a3.23 3.23 0 01-1.225-.229v-1.775a1.76 1.76 0 001.09.369c.863 0 1.295-.64 1.295-1.922v-4.992h1.887v5.068zm8.689-.305c0 2.524-1.176 3.786-3.527 3.786-2.281 0-3.422-1.233-3.422-3.698v-4.851h1.898v4.875c0 1.359.532 2.039 1.594 2.039 1.043 0 1.565-.657 1.565-1.969v-4.945h1.892v4.763zM278.43 65h-1.91l-3.463-5.28a7.636 7.636 0 01-.422-.697h-.024a14 14 0 01.047 1.36V65h-1.787v-8.402h2.039l3.334 5.115c.152.23.293.459.422.685h.023c-.031-.195-.046-.58-.046-1.154v-4.646h1.787V65zm8.906 0h-2.391l-2.449-3.65a3.525 3.525 0 01-.223-.463h-.029V65h-1.892v-8.402h1.892v3.972h.029c.047-.11.125-.265.235-.468l2.32-3.504h2.256l-2.93 4.008L287.336 65zM148.047 231.141c-1.192 0-2.147-.393-2.865-1.178-.715-.785-1.073-1.807-1.073-3.065 0-1.351.366-2.429 1.096-3.234.731-.805 1.725-1.207 2.983-1.207 1.16 0 2.093.391 2.8 1.172.711.781 1.067 1.803 1.067 3.064 0 1.371-.364 2.455-1.09 3.252-.727.797-1.699 1.196-2.918 1.196zm.07-7.793c-.883 0-1.599.318-2.15.955-.551.636-.826 1.472-.826 2.508 0 1.035.267 1.869.802 2.501.539.629 1.241.944 2.104.944.922 0 1.648-.301 2.18-.902.531-.602.796-1.444.796-2.526 0-1.109-.257-1.967-.773-2.572-.516-.606-1.227-.908-2.133-.908zm13.02 1.652l-1.799 6h-.996l-1.237-4.295a2.823 2.823 0 01-.093-.557h-.024a2.525 2.525 0 01-.123.545L155.523 231h-.961l-1.816-6h1.008l1.242 4.512c.039.136.066.316.082.539h.047c.012-.172.047-.356.105-.551l1.383-4.5h.879l1.242 4.523c.039.145.069.325.088.539h.047c.008-.152.041-.332.1-.539l1.219-4.523h.949zm6.093 6h-.96v-3.422c0-1.273-.465-1.91-1.395-1.91-.48 0-.879.182-1.195.545-.313.359-.469.814-.469 1.365V231h-.961v-6h.961v.996h.023c.454-.758 1.11-1.137 1.969-1.137.656 0 1.158.213 1.506.639.348.422.521 1.033.521 1.834V231zm6.639-2.76h-4.236c.015.668.195 1.184.539 1.547.344.363.816.545 1.418.545.676 0 1.297-.223 1.863-.668v.902c-.527.383-1.224.575-2.092.575-.847 0-1.513-.272-1.998-.815-.484-.547-.726-1.314-.726-2.303 0-.933.263-1.693.791-2.279.531-.59 1.189-.885 1.974-.885.786 0 1.393.254 1.823.762.429.508.644 1.213.644 2.115v.504zm-.984-.814c-.004-.555-.139-.987-.405-1.295-.261-.309-.626-.463-1.095-.463-.453 0-.838.162-1.155.486-.316.325-.511.748-.585 1.272h3.24zm5.572-1.453c-.168-.129-.41-.194-.727-.194-.41 0-.753.194-1.031.58-.273.387-.41.914-.41 1.582V231h-.961v-6h.961v1.236h.023c.137-.422.346-.75.627-.984.282-.238.596-.357.944-.357.25 0 .441.027.574.082v.996zm.68 4.81v-1.031a2.84 2.84 0 001.728.58c.844 0 1.266-.281 1.266-.844a.704.704 0 00-.111-.404 1.026 1.026 0 00-.293-.299 2.052 2.052 0 00-.434-.228 14.897 14.897 0 00-.533-.217 7.636 7.636 0 01-.703-.317c-.2-.109-.368-.23-.504-.363a1.44 1.44 0 01-.305-.463 1.678 1.678 0 01-.1-.603c0-.282.065-.53.194-.744.129-.219.301-.401.515-.545a2.35 2.35 0 01.733-.334c.277-.075.562-.112.855-.112.52 0 .985.09 1.395.27v.973c-.442-.29-.949-.434-1.524-.434-.179 0-.341.021-.486.064a1.195 1.195 0 00-.375.17.835.835 0 00-.24.27.7.7 0 00-.082.34.84.84 0 00.082.392.88.88 0 00.252.282c.109.082.242.156.398.222.156.067.334.139.533.217.266.102.504.207.715.316.211.106.391.227.539.364.149.133.262.287.34.463.082.175.123.384.123.627 0 .296-.066.554-.199.773-.129.219-.303.4-.521.545a2.411 2.411 0 01-.756.322c-.285.07-.584.106-.897.106-.617 0-1.152-.12-1.605-.358zm10.441.217h-.961v-3.457c0-1.25-.465-1.875-1.394-1.875-.469 0-.864.182-1.184.545-.32.359-.48.822-.48 1.389V231h-.961v-8.883h.961v3.879h.023c.461-.758 1.117-1.137 1.969-1.137 1.351 0 2.027.815 2.027 2.444V231zm2.309-7.523a.61.61 0 01-.621-.622c0-.179.06-.328.181-.445a.6.6 0 01.44-.181c.175 0 .324.06.445.181a.585.585 0 01.188.445.59.59 0 01-.188.44.607.607 0 01-.445.182zm.468 7.523h-.96v-6h.96v6zm2.93-.867h-.023v3.627h-.961V225h.961v1.055h.023c.473-.797 1.164-1.196 2.074-1.196.774 0 1.377.27 1.811.809.434.535.65 1.254.65 2.156 0 1.004-.244 1.809-.732 2.414-.488.602-1.156.903-2.004.903-.777 0-1.377-.336-1.799-1.008zm-.023-2.42v.838c0 .496.16.918.48 1.265.324.344.735.516 1.231.516.582 0 1.037-.223 1.365-.668.332-.445.498-1.064.498-1.857 0-.668-.154-1.192-.463-1.571-.309-.379-.727-.568-1.254-.568-.558 0-1.008.195-1.348.586-.339.387-.509.873-.509 1.459zm9.515 3.287v-8.402h2.321c2.961 0 4.441 1.365 4.441 4.095 0 1.297-.412 2.34-1.236 3.129-.821.785-1.92 1.178-3.299 1.178h-2.227zm.985-7.512v6.621h1.254c1.101 0 1.959-.295 2.572-.884.613-.59.92-1.426.92-2.508 0-2.153-1.145-3.229-3.434-3.229h-1.312zm9.808 7.653c-.886 0-1.595-.28-2.127-.838-.527-.563-.791-1.307-.791-2.233 0-1.008.276-1.795.827-2.361.55-.566 1.294-.85 2.232-.85.894 0 1.592.276 2.092.827.504.55.756 1.314.756 2.291 0 .957-.272 1.724-.815 2.302-.539.575-1.264.862-2.174.862zm.071-5.473c-.618 0-1.106.211-1.465.633-.36.418-.539.996-.539 1.734 0 .711.181 1.272.545 1.682.363.41.849.615 1.459.615.621 0 1.097-.201 1.429-.603.336-.403.504-.975.504-1.717 0-.75-.168-1.328-.504-1.735-.332-.406-.808-.609-1.429-.609zm8.543 5.057c-.461.277-1.008.416-1.641.416-.855 0-1.547-.278-2.074-.832-.524-.559-.785-1.282-.785-2.168 0-.989.283-1.782.849-2.379.567-.602 1.322-.903 2.268-.903.527 0 .992.098 1.394.293v.985a2.44 2.44 0 00-1.429-.469c-.614 0-1.118.221-1.512.662-.391.438-.586 1.014-.586 1.729 0 .703.184 1.257.551 1.664.371.406.867.609 1.488.609.523 0 1.016-.174 1.477-.521v.914zm9.843-7.237h-2.425V231h-.985v-7.512h-2.42v-.89h5.83v.89zM239.33 225l-2.76 6.961c-.492 1.242-1.183 1.863-2.074 1.863-.25 0-.459-.025-.627-.076v-.861c.207.07.397.105.569.105.484 0 .847-.289 1.089-.867l.481-1.137-2.344-5.988h1.066l1.624 4.617c.019.059.06.211.123.457h.035c.019-.094.058-.242.117-.445l1.705-4.629h.996zm2.022 5.133h-.024v3.627h-.961V225h.961v1.055h.024c.472-.797 1.164-1.196 2.074-1.196.773 0 1.377.27 1.81.809.434.535.651 1.254.651 2.156 0 1.004-.244 1.809-.733 2.414-.488.602-1.156.903-2.004.903-.777 0-1.377-.336-1.798-1.008zm-.024-2.42v.838c0 .496.16.918.481 1.265.324.344.734.516 1.23.516.582 0 1.037-.223 1.365-.668.332-.445.498-1.064.498-1.857 0-.668-.154-1.192-.463-1.571-.308-.379-.726-.568-1.253-.568-.559 0-1.008.195-1.348.586-.34.387-.51.873-.51 1.459zm10.916.527h-4.236c.015.668.195 1.184.539 1.547.344.363.816.545 1.418.545.676 0 1.297-.223 1.863-.668v.902c-.527.383-1.224.575-2.092.575-.847 0-1.513-.272-1.998-.815-.484-.547-.726-1.314-.726-2.303 0-.933.263-1.693.791-2.279.531-.59 1.189-.885 1.974-.885.785 0 1.393.254 1.823.762.429.508.644 1.213.644 2.115v.504zm-.984-.814c-.004-.555-.139-.987-.405-1.295-.261-.309-.626-.463-1.095-.463-.453 0-.838.162-1.155.486-.316.325-.511.748-.585 1.272h3.24zm2.777-1.254a.635.635 0 01-.463-.193.643.643 0 01-.187-.463.642.642 0 01.65-.645.65.65 0 01.469.188.611.611 0 01.193.457.632.632 0 01-.193.463.642.642 0 01-.469.193zm0 4.957a.635.635 0 01-.463-.193.643.643 0 01-.187-.463.64.64 0 01.187-.463.621.621 0 01.463-.199c.184 0 .34.066.469.199a.63.63 0 01.193.463.632.632 0 01-.193.463.642.642 0 01-.469.193zM264.59 231h-5.004v-8.402h1.893v6.867h3.111V231zm3.029 0h-1.892v-8.402h1.892V231zm6.955 0h-5.039v-8.402h4.846v1.541h-2.953v1.869h2.748v1.535h-2.748v1.922h3.146V231zm8.906 0h-1.91l-3.463-5.279a7.519 7.519 0 01-.421-.698h-.024c.031.297.047.75.047 1.36V231h-1.787v-8.402h2.039l3.334 5.115c.152.23.293.459.422.685h.023c-.031-.195-.047-.58-.047-1.154v-4.646h1.787V231z" fill="#000"/><g filter="url(#filter6_d)"><rect x="2" y="89" width="424" height="50" rx="4" fill="#fff"/></g><path d="M131.142 119.164c-1.39 0-2.505-.458-3.343-1.374-.834-.916-1.251-2.108-1.251-3.575 0-1.577.426-2.835 1.278-3.774.852-.938 2.012-1.408 3.48-1.408 1.353 0 2.442.456 3.267 1.367.83.912 1.244 2.104 1.244 3.576 0 1.599-.423 2.864-1.271 3.794-.848.929-1.983 1.394-3.404 1.394zm.082-9.092c-1.03 0-1.867.372-2.509 1.115-.643.742-.964 1.718-.964 2.925 0 1.208.312 2.181.937 2.919.628.734 1.446 1.101 2.454 1.101 1.075 0 1.923-.351 2.543-1.053.619-.702.929-1.684.929-2.946 0-1.294-.301-2.295-.902-3.001-.602-.707-1.431-1.06-2.488-1.06zM146.413 112l-2.099 7h-1.162l-1.442-5.011a3.225 3.225 0 01-.109-.649h-.028a3.023 3.023 0 01-.143.636L139.864 119h-1.121l-2.119-7h1.176l1.449 5.264c.046.159.077.369.096.629h.054c.014-.201.055-.415.123-.643l1.614-5.25h1.025l1.449 5.277c.046.169.08.379.103.629h.055c.009-.177.047-.387.116-.629l1.422-5.277h1.107zm7.109 7h-1.121v-3.992c0-1.486-.542-2.229-1.627-2.229a1.77 1.77 0 00-1.394.636c-.365.419-.547.95-.547 1.593V119h-1.121v-7h1.121v1.162h.027c.529-.884 1.295-1.326 2.297-1.326.766 0 1.351.248 1.757.745.406.492.608 1.205.608 2.14V119zm7.746-3.22h-4.943c.018.78.228 1.381.629 1.805.401.424.953.636 1.654.636.789 0 1.513-.26 2.174-.78v1.053c-.615.447-1.428.67-2.44.67-.989 0-1.766-.317-2.331-.95-.565-.638-.848-1.534-.848-2.687 0-1.089.308-1.975.923-2.659.62-.688 1.388-1.032 2.304-1.032.916 0 1.624.296 2.126.889.501.592.752 1.415.752 2.467v.588zm-1.149-.95c-.004-.647-.162-1.151-.472-1.511-.305-.36-.731-.54-1.278-.54a1.81 1.81 0 00-1.347.568c-.369.378-.597.872-.683 1.483h3.78zm6.501-1.695c-.196-.151-.478-.226-.848-.226-.478 0-.879.226-1.203.677-.319.451-.478 1.066-.478 1.846V119h-1.121v-7h1.121v1.442h.027c.16-.492.403-.875.732-1.148a1.66 1.66 0 011.1-.417c.292 0 .515.032.67.096v1.162zm.793 5.612v-1.203a3.32 3.32 0 002.017.677c.984 0 1.476-.328 1.476-.985a.814.814 0 00-.13-.471 1.177 1.177 0 00-.341-.349c-.142-.1-.31-.189-.506-.267a21.3 21.3 0 00-.622-.253 9.002 9.002 0 01-.821-.369 2.74 2.74 0 01-.588-.423 1.687 1.687 0 01-.355-.541 1.934 1.934 0 01-.116-.704c0-.328.075-.617.225-.868.151-.255.351-.467.602-.636.251-.173.535-.303.854-.389.324-.087.657-.13.998-.13.607 0 1.149.105 1.627.314v1.135c-.515-.337-1.107-.506-1.777-.506-.21 0-.399.025-.567.075a1.377 1.377 0 00-.438.199.964.964 0 00-.28.314.824.824 0 00-.096.397c0 .182.032.335.096.458.068.123.166.232.294.328a2.2 2.2 0 00.465.26c.182.077.389.161.622.252.31.119.588.242.834.37.246.123.455.264.629.423.173.155.305.335.396.541.096.205.144.448.144.731 0 .346-.078.647-.233.902-.15.256-.353.467-.608.636a2.789 2.789 0 01-.882.376 4.356 4.356 0 01-1.046.123c-.72 0-1.344-.139-1.873-.417zm12.182.253h-1.121v-4.033c0-1.459-.543-2.188-1.627-2.188-.547 0-1.007.212-1.381.636-.374.419-.561.959-.561 1.62V119h-1.121v-10.363h1.121v4.525h.028c.537-.884 1.303-1.326 2.296-1.326 1.577 0 2.366.95 2.366 2.851V119zm2.693-8.777a.716.716 0 01-.725-.725.69.69 0 01.212-.519.698.698 0 01.513-.212c.205 0 .378.07.52.212a.68.68 0 01.218.519.691.691 0 01-.218.513.71.71 0 01-.52.212zm.547 8.777h-1.121v-7h1.121v7zm3.418-1.012h-.027v4.232h-1.122V112h1.122v1.23h.027c.551-.929 1.358-1.394 2.42-1.394.902 0 1.606.314 2.112.943.506.625.759 1.463.759 2.516 0 1.171-.285 2.11-.855 2.816-.569.702-1.349 1.053-2.337 1.053-.907 0-1.607-.392-2.099-1.176zm-.027-2.823v.978c0 .578.186 1.071.56 1.476.378.401.857.602 1.436.602.679 0 1.21-.26 1.592-.78.388-.519.582-1.241.582-2.167 0-.779-.181-1.39-.541-1.832-.36-.442-.847-.663-1.462-.663-.652 0-1.176.228-1.573.684-.396.451-.594 1.018-.594 1.702zM197.327 119v-9.803h2.707c3.455 0 5.182 1.593 5.182 4.779 0 1.513-.481 2.729-1.443 3.65-.957.916-2.239 1.374-3.848 1.374h-2.598zm1.149-8.764v7.725h1.462c1.286 0 2.286-.344 3.001-1.032.716-.688 1.074-1.664 1.074-2.926 0-2.511-1.336-3.767-4.006-3.767h-1.531zm11.443 8.928c-1.035 0-1.862-.326-2.481-.977-.616-.657-.923-1.525-.923-2.605 0-1.176.321-2.094.964-2.755.642-.661 1.51-.991 2.604-.991 1.044 0 1.857.321 2.44.964.588.642.882 1.533.882 2.673 0 1.116-.316 2.012-.95 2.686-.629.67-1.474 1.005-2.536 1.005zm.082-6.385c-.72 0-1.29.246-1.709.739-.419.487-.629 1.162-.629 2.023 0 .829.212 1.483.636 1.962.424.478.991.718 1.702.718.725 0 1.281-.235 1.668-.704.392-.47.588-1.137.588-2.003 0-.875-.196-1.55-.588-2.024-.387-.474-.943-.711-1.668-.711zm9.967 5.9c-.538.323-1.176.485-1.914.485-.998 0-1.805-.324-2.42-.971-.611-.651-.916-1.494-.916-2.529 0-1.153.33-2.078.991-2.775.661-.702 1.543-1.053 2.645-1.053.616 0 1.158.114 1.627.342v1.148c-.519-.364-1.075-.547-1.668-.547-.715 0-1.303.258-1.763.773-.456.51-.684 1.182-.684 2.016 0 .821.214 1.468.643 1.942.433.474 1.012.711 1.736.711.611 0 1.185-.203 1.723-.609v1.067zm11.484-8.443h-2.83V119h-1.148v-8.764h-2.824v-1.039h6.802v1.039zm6.187 1.764l-3.22 8.121c-.574 1.449-1.381 2.174-2.42 2.174-.292 0-.535-.03-.731-.089v-1.005c.241.082.462.123.663.123.565 0 .989-.337 1.271-1.012l.561-1.326-2.735-6.986h1.244l1.894 5.387c.023.068.071.246.144.533h.041c.022-.109.068-.283.136-.52l1.99-5.4h1.162zm2.358 5.988h-.027v4.232h-1.121V112h1.121v1.23h.027c.552-.929 1.358-1.394 2.42-1.394.902 0 1.606.314 2.112.943.506.625.759 1.463.759 2.516 0 1.171-.285 2.11-.854 2.816-.57.702-1.349 1.053-2.338 1.053-.907 0-1.607-.392-2.099-1.176zm-.027-2.823v.978c0 .578.187 1.071.56 1.476.379.401.857.602 1.436.602.679 0 1.21-.26 1.593-.78.387-.519.581-1.241.581-2.167 0-.779-.18-1.39-.54-1.832-.36-.442-.848-.663-1.463-.663-.652 0-1.176.228-1.573.684-.396.451-.594 1.018-.594 1.702zm12.735.615h-4.942c.018.78.228 1.381.629 1.805.401.424.952.636 1.654.636.788 0 1.513-.26 2.174-.78v1.053c-.616.447-1.429.67-2.441.67-.989 0-1.766-.317-2.331-.95-.565-.638-.847-1.534-.847-2.687 0-1.089.307-1.975.922-2.659.62-.688 1.388-1.032 2.304-1.032.916 0 1.625.296 2.126.889.501.592.752 1.415.752 2.467v.588zm-1.148-.95c-.005-.647-.162-1.151-.472-1.511-.305-.36-.731-.54-1.278-.54-.529 0-.978.189-1.347.568-.369.378-.597.872-.684 1.483h3.781zm3.24-1.463a.736.736 0 01-.54-.225.75.75 0 01-.219-.54.75.75 0 01.759-.752c.214 0 .396.073.547.218.15.146.225.324.225.534a.74.74 0 01-.225.54.747.747 0 01-.547.225zm0 5.783a.736.736 0 01-.54-.225.75.75 0 01-.219-.54c0-.21.073-.39.219-.54a.725.725 0 01.54-.233c.214 0 .396.078.547.233.15.15.225.33.225.54a.74.74 0 01-.225.54.747.747 0 01-.547.225zm8.682-3.527V119h-2.208v-9.803h3.458c2.471 0 3.706 1.042 3.706 3.124 0 .985-.356 1.782-1.067 2.393-.706.606-1.652.909-2.837.909h-1.052zm0-4.73v3.055h.868c1.175 0 1.763-.515 1.763-1.545 0-1.007-.588-1.51-1.763-1.51h-.868zM277.656 119h-2.406l-.697-2.181h-3.487l-.69 2.181h-2.393l3.569-9.803h2.618l3.486 9.803zm-3.609-3.876l-1.053-3.295a4.33 4.33 0 01-.164-.882h-.055a3.663 3.663 0 01-.171.855l-1.066 3.322h2.509zM286.413 119h-2.536l-.991-2.522c-.324-.821-.764-1.231-1.32-1.231h-.478V119h-2.208v-9.803h3.5c2.379 0 3.568.889 3.568 2.666 0 .679-.196 1.254-.588 1.723-.387.469-.929.795-1.627.977v.028c.575.182 1.042.686 1.402 1.511l1.278 2.898zm-5.325-8.148v2.727h.957c.474 0 .854-.137 1.142-.41a1.37 1.37 0 00.437-1.032c0-.857-.513-1.285-1.538-1.285h-.998zm13.303.143h-2.796V119h-2.215v-8.005h-2.782v-1.798h7.793v1.798zm.922 7.629v-2.187c.784.665 1.648.998 2.591.998.451 0 .802-.092 1.053-.274a.864.864 0 00.376-.724c0-.256-.105-.495-.314-.718-.21-.228-.711-.529-1.504-.903-1.495-.706-2.243-1.663-2.243-2.871 0-.879.324-1.583.971-2.112.652-.533 1.52-.8 2.605-.8.957 0 1.75.126 2.379.376v2.044c-.657-.456-1.409-.683-2.256-.683-.424 0-.759.091-1.005.273a.853.853 0 00-.369.718c0 .291.095.54.287.745.196.205.606.456 1.23.752.966.46 1.632.918 1.996 1.374.365.456.547.993.547 1.613 0 .902-.326 1.616-.977 2.14-.647.524-1.591.786-2.83.786-1.017 0-1.862-.182-2.537-.547z" fill="#000"/><circle cx="401" cy="114" r="14.5" stroke="#721C22"/><path d="M402.214 116.096h-2.428l-.338-7.786h3.104l-.338 7.786zm-2.766 3.594v-2.278h3.04v2.278h-3.04z" fill="#721C22"/><circle cx="401" cy="174" r="14.5" stroke="#721C22"/><path d="M402.214 176.096h-2.428l-.338-7.786h3.104l-.338 7.786zm-2.766 3.594v-2.278h3.04v2.278h-3.04z" fill="#721C22"/><circle cx="382" cy="227" r="9.5" stroke="#721C22"/><path d="M382.809 228.397h-1.618l-.225-5.19h2.069l-.226 5.19zm-1.843 2.396v-1.518h2.026v1.518h-2.026z" fill="#721C22"/><circle cx="364" cy="61" r="9.5" stroke="#721C22"/><path d="M364.809 62.397h-1.618l-.225-5.19h2.069l-.226 5.19zm-1.843 2.396v-1.518h2.026v1.518h-2.026z" fill="#721C22"/><circle cx="367" cy="270" r="6.5" stroke="#721C22"/><path d="M367.567 270.978h-1.133l-.158-3.633h1.448l-.157 3.633zm-1.291 1.677v-1.063h1.419v1.063h-1.419z" fill="#721C22"/><circle cx="352" cy="18" r="6.5" stroke="#721C22"/><path d="M352.567 18.978h-1.133l-.158-3.633h1.448l-.157 3.633zm-1.291 1.677v-1.063h1.419v1.063h-1.419z" fill="#721C22"/><path d="M130.314 179.164c-1.39 0-2.504-.458-3.342-1.374-.834-.916-1.251-2.108-1.251-3.575 0-1.577.426-2.835 1.278-3.774.852-.938 2.012-1.408 3.48-1.408 1.353 0 2.442.456 3.267 1.367.83.912 1.244 2.104 1.244 3.576 0 1.599-.424 2.864-1.271 3.794-.848.929-1.983 1.394-3.405 1.394zm.082-9.092c-1.029 0-1.866.372-2.508 1.115-.643.742-.964 1.718-.964 2.925 0 1.208.312 2.181.936 2.919.629.734 1.447 1.101 2.454 1.101 1.076 0 1.924-.351 2.543-1.053.62-.702.93-1.684.93-2.946 0-1.294-.301-2.295-.902-3.001-.602-.707-1.431-1.06-2.489-1.06zm15.19 1.928l-2.099 7h-1.162l-1.442-5.011a3.294 3.294 0 01-.11-.649h-.027a3.088 3.088 0 01-.143.636L139.037 179h-1.121l-2.119-7h1.176l1.449 5.264c.045.159.077.369.096.629h.054c.014-.201.055-.415.123-.643l1.614-5.25h1.025l1.449 5.277c.046.169.08.379.103.629h.054c.01-.177.048-.387.117-.629l1.422-5.277h1.107zm7.109 7h-1.121v-3.992c0-1.486-.542-2.229-1.627-2.229a1.77 1.77 0 00-1.394.636c-.365.419-.547.95-.547 1.593V179h-1.121v-7h1.121v1.162h.027c.529-.884 1.294-1.326 2.297-1.326.766 0 1.351.248 1.757.745.406.492.608 1.205.608 2.14V179zm7.745-3.22h-4.942c.018.78.228 1.381.629 1.805.401.424.952.636 1.654.636.789 0 1.513-.26 2.174-.78v1.053c-.615.447-1.429.67-2.44.67-.989 0-1.766-.317-2.331-.95-.566-.638-.848-1.534-.848-2.687 0-1.089.308-1.975.923-2.659.62-.688 1.387-1.032 2.303-1.032.917 0 1.625.296 2.126.889.502.592.752 1.415.752 2.467v.588zm-1.148-.95c-.005-.647-.162-1.151-.472-1.511-.305-.36-.731-.54-1.278-.54-.529 0-.978.189-1.347.568-.369.378-.597.872-.683 1.483h3.78zm6.501-1.695c-.196-.151-.479-.226-.848-.226-.478 0-.879.226-1.203.677-.319.451-.478 1.066-.478 1.846V179h-1.121v-7h1.121v1.442h.027c.16-.492.403-.875.731-1.148a1.662 1.662 0 011.101-.417c.292 0 .515.032.67.096v1.162zm.793 5.612v-1.203a3.32 3.32 0 002.017.677c.984 0 1.476-.328 1.476-.985a.814.814 0 00-.13-.471 1.168 1.168 0 00-.342-.349 2.411 2.411 0 00-.505-.267 20.322 20.322 0 00-.623-.253 9.1 9.1 0 01-.82-.369 2.74 2.74 0 01-.588-.423 1.687 1.687 0 01-.355-.541 1.934 1.934 0 01-.116-.704c0-.328.075-.617.225-.868.151-.255.351-.467.602-.636.25-.173.535-.303.854-.389.324-.087.657-.13.998-.13.606 0 1.149.105 1.627.314v1.135c-.515-.337-1.107-.506-1.777-.506-.21 0-.399.025-.567.075a1.377 1.377 0 00-.438.199.964.964 0 00-.28.314.824.824 0 00-.096.397c0 .182.032.335.096.458.068.123.166.232.294.328a2.2 2.2 0 00.465.26c.182.077.389.161.622.252.31.119.587.242.834.37.246.123.455.264.629.423.173.155.305.335.396.541.096.205.144.448.144.731 0 .346-.078.647-.233.902-.15.256-.353.467-.608.636a2.789 2.789 0 01-.882.376 4.356 4.356 0 01-1.046.123c-.72 0-1.344-.139-1.873-.417zm12.182.253h-1.122v-4.033c0-1.459-.542-2.188-1.626-2.188-.547 0-1.008.212-1.381.636-.374.419-.561.959-.561 1.62V179h-1.121v-10.363h1.121v4.525h.027c.538-.884 1.304-1.326 2.297-1.326 1.577 0 2.366.95 2.366 2.851V179zm2.693-8.777a.714.714 0 01-.725-.725.69.69 0 01.212-.519.697.697 0 01.513-.212c.205 0 .378.07.519.212a.678.678 0 01.219.519.688.688 0 01-.219.513.706.706 0 01-.519.212zm.547 8.777h-1.121v-7h1.121v7zm3.418-1.012h-.028v4.232h-1.121V172h1.121v1.23h.028c.551-.929 1.358-1.394 2.42-1.394.902 0 1.606.314 2.112.943.506.625.759 1.463.759 2.516 0 1.171-.285 2.11-.855 2.816-.569.702-1.349 1.053-2.338 1.053-.906 0-1.606-.392-2.098-1.176zm-.028-2.823v.978c0 .578.187 1.071.561 1.476.378.401.857.602 1.436.602.679 0 1.209-.26 1.592-.78.388-.519.581-1.241.581-2.167 0-.779-.18-1.39-.54-1.832-.36-.442-.847-.663-1.463-.663-.651 0-1.175.228-1.572.684-.396.451-.595 1.018-.595 1.702zM196.5 179v-9.803h2.707c3.454 0 5.182 1.593 5.182 4.779 0 1.513-.481 2.729-1.443 3.65-.957.916-2.24 1.374-3.848 1.374H196.5zm1.148-8.764v7.725h1.463c1.285 0 2.286-.344 3.001-1.032.716-.688 1.074-1.664 1.074-2.926 0-2.511-1.336-3.767-4.006-3.767h-1.532zm11.444 8.928c-1.035 0-1.862-.326-2.482-.977-.615-.657-.922-1.525-.922-2.605 0-1.176.321-2.094.963-2.755.643-.661 1.511-.991 2.605-.991 1.043 0 1.857.321 2.44.964.588.642.882 1.533.882 2.673 0 1.116-.317 2.012-.95 2.686-.629.67-1.474 1.005-2.536 1.005zm.082-6.385c-.72 0-1.29.246-1.709.739-.419.487-.629 1.162-.629 2.023 0 .829.212 1.483.636 1.962.424.478.991.718 1.702.718.724 0 1.28-.235 1.668-.704.392-.47.588-1.137.588-2.003 0-.875-.196-1.55-.588-2.024-.388-.474-.944-.711-1.668-.711zm9.967 5.9c-.538.323-1.176.485-1.914.485-.998 0-1.805-.324-2.42-.971-.611-.651-.916-1.494-.916-2.529 0-1.153.33-2.078.991-2.775.661-.702 1.542-1.053 2.645-1.053.616 0 1.158.114 1.627.342v1.148c-.519-.364-1.075-.547-1.668-.547-.715 0-1.303.258-1.763.773-.456.51-.684 1.182-.684 2.016 0 .821.214 1.468.643 1.942.433.474 1.011.711 1.736.711.611 0 1.185-.203 1.723-.609v1.067zm11.484-8.443h-2.83V179h-1.149v-8.764h-2.823v-1.039h6.802v1.039zm6.187 1.764l-3.22 8.121c-.574 1.449-1.381 2.174-2.42 2.174-.292 0-.536-.03-.732-.089v-1.005c.242.082.463.123.664.123.565 0 .988-.337 1.271-1.012l.561-1.326-2.735-6.986h1.244l1.894 5.387c.023.068.071.246.143.533h.041c.023-.109.069-.283.137-.52l1.989-5.4h1.163zm2.358 5.988h-.027v4.232h-1.122V172h1.122v1.23h.027c.551-.929 1.358-1.394 2.42-1.394.902 0 1.606.314 2.112.943.506.625.759 1.463.759 2.516 0 1.171-.285 2.11-.855 2.816-.569.702-1.349 1.053-2.337 1.053-.907 0-1.607-.392-2.099-1.176zm-.027-2.823v.978c0 .578.186 1.071.56 1.476.378.401.857.602 1.436.602.679 0 1.21-.26 1.592-.78.388-.519.581-1.241.581-2.167 0-.779-.18-1.39-.54-1.832-.36-.442-.847-.663-1.462-.663-.652 0-1.176.228-1.573.684-.396.451-.594 1.018-.594 1.702zm12.735.615h-4.942c.018.78.227 1.381.628 1.805.401.424.953.636 1.655.636.788 0 1.513-.26 2.174-.78v1.053c-.616.447-1.429.67-2.441.67-.989 0-1.766-.317-2.331-.95-.565-.638-.848-1.534-.848-2.687 0-1.089.308-1.975.923-2.659.62-.688 1.388-1.032 2.304-1.032.916 0 1.625.296 2.126.889.501.592.752 1.415.752 2.467v.588zm-1.149-.95c-.004-.647-.161-1.151-.471-1.511-.306-.36-.732-.54-1.279-.54-.528 0-.977.189-1.346.568-.369.378-.597.872-.684 1.483h3.78zm3.241-1.463a.736.736 0 01-.54-.225.75.75 0 01-.219-.54.75.75 0 01.759-.752c.214 0 .396.073.547.218.15.146.225.324.225.534a.74.74 0 01-.225.54.747.747 0 01-.547.225zm0 5.783a.736.736 0 01-.54-.225.75.75 0 01-.219-.54c0-.21.073-.39.219-.54a.725.725 0 01.54-.233c.214 0 .396.078.547.233.15.15.225.33.225.54a.74.74 0 01-.225.54.747.747 0 01-.547.225zm6.077-.526v-2.187c.784.665 1.647.998 2.591.998.451 0 .802-.092 1.052-.274a.864.864 0 00.376-.724c0-.256-.104-.495-.314-.718-.21-.228-.711-.529-1.504-.903-1.495-.706-2.242-1.663-2.242-2.871 0-.879.323-1.583.971-2.112.651-.533 1.519-.8 2.604-.8.957 0 1.75.126 2.379.376v2.044c-.656-.456-1.408-.683-2.256-.683-.424 0-.759.091-1.005.273a.853.853 0 00-.369.718c0 .291.096.54.287.745.196.205.606.456 1.231.752.966.46 1.631.918 1.996 1.374.364.456.547.993.547 1.613 0 .902-.326 1.616-.978 2.14-.647.524-1.59.786-2.83.786-1.016 0-1.862-.182-2.536-.547zm14.93.027c-.716.347-1.65.52-2.803.52-1.504 0-2.687-.442-3.548-1.326-.861-.884-1.292-2.062-1.292-3.534 0-1.568.483-2.84 1.449-3.815.971-.975 2.229-1.463 3.774-1.463.957 0 1.763.121 2.42.363v2.125c-.657-.391-1.404-.587-2.243-.587-.92 0-1.663.289-2.228.868-.565.579-.848 1.362-.848 2.351 0 .948.267 1.705.8 2.27.533.56 1.251.841 2.153.841.862 0 1.65-.21 2.366-.629v2.016zm9.242.349h-2.536l-.992-2.522c-.323-.821-.763-1.231-1.319-1.231h-.478V179h-2.208v-9.803h3.5c2.378 0 3.568.889 3.568 2.666 0 .679-.196 1.254-.588 1.723-.387.469-.93.795-1.627.977v.028c.574.182 1.041.686 1.401 1.511l1.279 2.898zm-5.325-8.148v2.727h.957c.474 0 .854-.137 1.141-.41.292-.278.438-.622.438-1.032 0-.857-.513-1.285-1.538-1.285h-.998zM294.22 179h-2.407l-.697-2.181h-3.486l-.691 2.181h-2.392l3.568-9.803h2.618L294.22 179zm-3.61-3.876l-1.052-3.295a4.198 4.198 0 01-.164-.882h-.055c-.023.287-.08.572-.171.855l-1.066 3.322h2.508zm7.041.499V179h-2.208v-9.803h3.459c2.47 0 3.705 1.042 3.705 3.124 0 .985-.355 1.782-1.066 2.393-.706.606-1.652.909-2.837.909h-1.053zm0-4.73v3.055h.869c1.175 0 1.763-.515 1.763-1.545 0-1.007-.588-1.51-1.763-1.51h-.869z" fill="#000"/><defs><filter id="filter0_d" x="0" y="88" width="428" height="54" filterUnits="userSpaceOnUse" color-interpolation-filters="sRGB"><feFlood flood-opacity="0" result="BackgroundImageFix"/><feColorMatrix in="SourceAlpha" values="0 0 0 0 0 0 0 0 0 0 0 0 0 0 0 0 0 0 127 0"/><feOffset dy="1"/><feGaussianBlur stdDeviation="1"/><feColorMatrix values="0 0 0 0 0 0 0 0 0 0 0 0 0 0 0 0 0 0 0.25 0"/><feBlend in2="BackgroundImageFix" result="effect1_dropShadow"/><feBlend in="SourceGraphic" in2="effect1_dropShadow" result="shape"/></filter><filter id="filter1_d" x="0" y="148" width="428" height="54" filterUnits="userSpaceOnUse" color-interpolation-filters="sRGB"><feFlood flood-opacity="0" result="BackgroundImageFix"/><feColorMatrix in="SourceAlpha" values="0 0 0 0 0 0 0 0 0 0 0 0 0 0 0 0 0 0 127 0"/><feOffset dy="1"/><feGaussianBlur stdDeviation="1"/><feColorMatrix values="0 0 0 0 0 0 0 0 0 0 0 0 0 0 0 0 0 0 0.25 0"/><feBlend in2="BackgroundImageFix" result="effect1_dropShadow"/><feBlend in="SourceGraphic" in2="effect1_dropShadow" result="shape"/></filter><filter id="filter2_d" x="24" y="206" width="380" height="44" filterUnits="userSpaceOnUse" color-interpolation-filters="sRGB"><feFlood flood-opacity="0" result="BackgroundImageFix"/><feColorMatrix in="SourceAlpha" values="0 0 0 0 0 0 0 0 0 0 0 0 0 0 0 0 0 0 127 0"/><feOffset dy="1"/><feGaussianBlur stdDeviation="1"/><feColorMatrix values="0 0 0 0 0 0 0 0 0 0 0 0 0 0 0 0 0 0 0.25 0"/><feBlend in2="BackgroundImageFix" result="effect1_dropShadow"/><feBlend in="SourceGraphic" in2="effect1_dropShadow" result="shape"/></filter><filter id="filter3_d" x="42" y="252" width="344" height="38" filterUnits="userSpaceOnUse" color-interpolation-filters="sRGB"><feFlood flood-opacity="0" result="BackgroundImageFix"/><feColorMatrix in="SourceAlpha" values="0 0 0 0 0 0 0 0 0 0 0 0 0 0 0 0 0 0 127 0"/><feOffset dy="1"/><feGaussianBlur stdDeviation="1"/><feColorMatrix values="0 0 0 0 0 0 0 0 0 0 0 0 0 0 0 0 0 0 0.25 0"/><feBlend in2="BackgroundImageFix" result="effect1_dropShadow"/><feBlend in="SourceGraphic" in2="effect1_dropShadow" result="shape"/></filter><filter id="filter4_d" x="42" y="40" width="344" height="44" filterUnits="userSpaceOnUse" color-interpolation-filters="sRGB"><feFlood flood-opacity="0" result="BackgroundImageFix"/><feColorMatrix in="SourceAlpha" values="0 0 0 0 0 0 0 0 0 0 0 0 0 0 0 0 0 0 127 0"/><feOffset dy="1"/><feGaussianBlur stdDeviation="1"/><feColorMatrix values="0 0 0 0 0 0 0 0 0 0 0 0 0 0 0 0 0 0 0.25 0"/><feBlend in2="BackgroundImageFix" result="effect1_dropShadow"/><feBlend in="SourceGraphic" in2="effect1_dropShadow" result="shape"/></filter><filter id="filter5_d" x="57" y="0" width="314" height="38" filterUnits="userSpaceOnUse" color-interpolation-filters="sRGB"><feFlood flood-opacity="0" result="BackgroundImageFix"/><feColorMatrix in="SourceAlpha" values="0 0 0 0 0 0 0 0 0 0 0 0 0 0 0 0 0 0 127 0"/><feOffset dy="1"/><feGaussianBlur stdDeviation="1"/><feColorMatrix values="0 0 0 0 0 0 0 0 0 0 0 0 0 0 0 0 0 0 0.25 0"/><feBlend in2="BackgroundImageFix" result="effect1_dropShadow"/><feBlend in="SourceGraphic" in2="effect1_dropShadow" result="shape"/></filter><filter id="filter6_d" x="0" y="88" width="428" height="54" filterUnits="userSpaceOnUse" color-interpolation-filters="sRGB"><feFlood flood-opacity="0" result="BackgroundImageFix"/><feColorMatrix in="SourceAlpha" values="0 0 0 0 0 0 0 0 0 0 0 0 0 0 0 0 0 0 127 0"/><feOffset dy="1"/><feGaussianBlur stdDeviation="1"/><feColorMatrix values="0 0 0 0 0 0 0 0 0 0 0 0 0 0 0 0 0 0 0.25 0"/><feBlend in2="BackgroundImageFix" result="effect1_dropShadow"/><feBlend in="SourceGraphic" in2="effect1_dropShadow" result="shape"/></filter></defs></svg>