<svg width="66" height="66" fill="none" xmlns="http://www.w3.org/2000/svg"><circle cx="25" cy="25" r="21" stroke="#56CCF2" stroke-width="4"/><path d="M16.972 16.971l15.974 15.973m0-15.973L16.972 32.944" stroke="#2158F5" stroke-width="4"/><path fill-rule="evenodd" clip-rule="evenodd" d="M44.776 42.07h2.147L66 61.183 61.188 66 42.071 46.92v-2.144l-1.055-1.047a24.726 24.726 0 01-16.157 5.99A24.852 24.852 0 011.891 34.37 24.862 24.862 0 0115.347 1.89 24.852 24.852 0 0124.86 0a24.852 24.852 0 0122.967 15.345 24.861 24.861 0 011.892 9.514 24.734 24.734 0 01-5.996 16.164l1.054 1.047zM24.96 44.923c11.027 0 19.967-8.939 19.967-19.966 0-11.027-8.94-19.966-19.967-19.966-11.028 0-19.967 8.94-19.967 19.966 0 11.027 8.94 19.966 19.967 19.966z" fill="#2158F5"/></svg>