<svg width="18" height="18" fill="none" xmlns="http://www.w3.org/2000/svg"><path d="M18 18l-4.806-2.408a6.107 6.107 0 01-3.067-.079 6.535 6.535 0 01-1.538-.668 5.775 5.775 0 01-1.3-1.063 6.588 6.588 0 01-.984-1.407c-.252 0-.5-.012-.747-.035a5.396 5.396 0 01-.738-.123L.004 14.63l1.96-3.929A6.166 6.166 0 01.848 3.068c.27-.457.594-.88.967-1.257.37-.376.79-.7 1.247-.962A6.57 6.57 0 014.547.22 5.731 5.731 0 016.191 0c.57 0 1.138.08 1.687.24.539.156 1.056.38 1.538.666.483.29.92.647 1.3 1.063.388.424.719.897.984 1.407a6.519 6.519 0 011.67.21 6.14 6.14 0 011.502.616c.462.264.89.583 1.275.95.384.367.718.783.993 1.238.282.465.494.968.632 1.494.143.549.22 1.112.228 1.68a6.09 6.09 0 01-.507 2.46 6.223 6.223 0 01-1.45 2.056L18 18zm-5.624-4.5v-1.125H11.25V13.5h1.126zm-7.592-2.443c.176.04.352.08.527.114.18.036.362.06.545.07a6.335 6.335 0 01-.228-1.678 6.203 6.203 0 012.9-5.247 5.934 5.934 0 011.96-.8 5.167 5.167 0 00-3.016-2.223 5.34 5.34 0 00-1.282-.167 5.006 5.006 0 00-3.575 1.485 5.214 5.214 0 00-1.082 1.608 5.011 5.011 0 00-.405 1.969A4.95 4.95 0 001.54 8.2c.282.635.69 1.207 1.199 1.68l.615.57c-.135.282-.273.557-.414.827-.14.27-.28.548-.421.835l2.162-1.082.102.027zm5.905-3.182a1.108 1.108 0 01.088-.44 1.127 1.127 0 01.598-.598.953.953 0 01.44-.088c.15-.001.3.029.44.088a1.127 1.127 0 01.597.598.953.953 0 01.088.44.866.866 0 01-.122.457 2.329 2.329 0 01-.304.395 5.33 5.33 0 01-.414.387 2.4 2.4 0 00-.405.44c-.123.174-.229.36-.316.553-.098.227-.14.474-.123.72v.422h1.125v-.267c0-.144.011-.289.035-.43a.727.727 0 01.215-.38c.176-.177.349-.343.519-.501.169-.156.325-.326.466-.507a2.22 2.22 0 00.325-.572 2.11 2.11 0 00.123-.709c.002-.3-.057-.596-.175-.87a2.397 2.397 0 00-.484-.72 2.103 2.103 0 00-.709-.484 2.397 2.397 0 00-.878-.176c-.3-.002-.596.058-.87.176-.268.116-.512.28-.721.483-.208.2-.373.442-.483.71a2.382 2.382 0 00-.175.878l1.12-.005z" fill="#2158F5"/></svg>