<svg width="24" height="24" fill="none" xmlns="http://www.w3.org/2000/svg"><path d="M24 23.996l-6.409-3.21a8.143 8.143 0 01-4.089-.105 8.718 8.718 0 01-2.05-.89 7.7 7.7 0 01-1.733-1.419 8.784 8.784 0 01-1.312-1.875c-.336 0-.668-.015-.996-.047a7.18 7.18 0 01-.985-.163l-6.42 3.216 2.612-5.237A8.219 8.219 0 011.131 4.09c.36-.61.792-1.172 1.289-1.675A7.786 7.786 0 014.083 1.13a8.76 8.76 0 011.98-.837A7.643 7.643 0 018.254 0c.761 0 1.519.107 2.25.32a8.717 8.717 0 012.05.887 7.698 7.698 0 011.735 1.417A8.78 8.78 0 0115.6 4.5c.751-.003 1.5.092 2.226.281a8.19 8.19 0 012.004.82 8.82 8.82 0 011.7 1.266c.511.49.956 1.045 1.323 1.652.376.62.66 1.29.843 1.991.19.732.292 1.483.304 2.239a8.12 8.12 0 01-.675 3.28 8.298 8.298 0 01-1.934 2.74L24 23.997zm-7.499-6v-1.499h-1.5v1.5h1.5zM6.38 14.74c.234.055.469.106.703.152.24.048.482.08.726.094a8.443 8.443 0 01-.304-2.237 8.27 8.27 0 013.866-6.995c.8-.509 1.686-.87 2.613-1.066a6.888 6.888 0 00-4.02-2.964 7.121 7.121 0 00-1.71-.223A6.675 6.675 0 003.486 3.48a6.95 6.95 0 00-1.442 2.144 6.68 6.68 0 00-.54 2.625 6.598 6.598 0 00.551 2.683c.376.846.92 1.608 1.598 2.238l.82.762a38 38 0 01-.551 1.101c-.187.36-.375.73-.562 1.113l2.883-1.441.136.035zm7.873-4.242a1.453 1.453 0 01.118-.586c.074-.175.182-.334.316-.469.139-.137.302-.248.48-.328a1.27 1.27 0 01.587-.118c.201-.002.401.038.586.118a1.509 1.509 0 01.797.796c.085.184.126.385.118.587.003.215-.053.426-.164.61a3.134 3.134 0 01-.405.526 7.13 7.13 0 01-.551.516 3.2 3.2 0 00-.54.586 4.45 4.45 0 00-.422.738c-.13.303-.186.632-.164.96v.563h1.5v-.357c0-.193.015-.385.047-.574a.97.97 0 01.287-.507c.234-.234.464-.456.691-.667a5.76 5.76 0 00.622-.675c.181-.232.327-.489.433-.762.108-.304.164-.624.164-.946a2.876 2.876 0 00-.234-1.16 3.194 3.194 0 00-.644-.96 2.802 2.802 0 00-.946-.645 3.2 3.2 0 00-1.171-.234 2.877 2.877 0 00-1.16.234 3.193 3.193 0 00-.96.644c-.279.268-.498.59-.645.946a3.2 3.2 0 00-.234 1.17l1.494-.006z" fill="#fff"/></svg>