<svg xmlns="http://www.w3.org/2000/svg" width="29.087" height="29.087" class="fh-0 mt-5"><path d="M23.633 9.09v12.725H5.454V9.09h4.161l1.818-1.818h6.221l1.818 1.818zM21.815 20v-9.09H18.7l-1.813-1.82H12.2l-1.818 1.818h-3.11V20zm-7.272-9.09a3.488 3.488 0 011.406.284 3.872 3.872 0 011.165.781 3.4 3.4 0 01.781 1.15 3.875 3.875 0 01.284 1.42 3.488 3.488 0 01-.279 1.405 3.872 3.872 0 01-.781 1.165 3.4 3.4 0 01-1.15.781 3.875 3.875 0 01-1.42.284 3.488 3.488 0 01-1.406-.284A3.527 3.527 0 0112 17.114a4.05 4.05 0 01-.781-1.15 3.232 3.232 0 01-.284-1.42 3.554 3.554 0 01.284-1.406 3.6 3.6 0 01.767-1.15 3.8 3.8 0 011.15-.781 3.409 3.409 0 011.407-.299zm0 5.454a1.762 1.762 0 00.71-.142 1.822 1.822 0 00.568-.383 1.981 1.981 0 00.4-.582 1.54 1.54 0 00.142-.71 1.762 1.762 0 00-.142-.71 1.822 1.822 0 00-.383-.568 1.981 1.981 0 00-.582-.4 1.54 1.54 0 00-.71-.142 1.762 1.762 0 00-.71.142 1.822 1.822 0 00-.568.383 1.981 1.981 0 00-.4.582 1.54 1.54 0 00-.142.71 1.762 1.762 0 00.142.71 1.822 1.822 0 00.383.568 1.981 1.981 0 00.582.4 1.54 1.54 0 00.71.139zM1.818 1.818v3.636H0V0h5.454v1.818zM23.633 0h5.454v5.454h-1.818V1.818h-3.636zM1.818 23.633v3.636h3.636v1.818H0v-5.454zm25.451 3.636v-3.636h1.818v5.454h-5.454v-1.818z" opacity=".5"/></svg>