<svg width="24" height="16" fill="none" xmlns="http://www.w3.org/2000/svg"><rect width="24" height="16" rx="1" fill="#fff"/><path d="M9.885 11.39c1.37.14 2.753.14 4.122 0a.176.176 0 01.188.132.175.175 0 010 .083c-.45 1.986-1.26 3.325-2.187 3.395h-.062v-.004h-.07c-.927-.062-1.732-1.405-2.183-3.391a.175.175 0 01.192-.214zm8.389-1.211a.175.175 0 01.25.214 7.044 7.044 0 01-4.184 4.183.175.175 0 01-.219-.25 9.396 9.396 0 001.028-2.984.175.175 0 01.136-.14 9.494 9.494 0 002.989-1.023zm-12.55 0a9.439 9.439 0 002.989 1.024.175.175 0 01.135.14 9.366 9.366 0 001.029 2.983.175.175 0 01-.22.25 7.045 7.045 0 01-4.183-4.183.175.175 0 01.25-.219v.005zm6.222-4.804c.775 0 1.554.044 2.324.149a.175.175 0 01.153.153c.201 1.54.201 3.106 0 4.646a.18.18 0 01-.153.153 17.575 17.575 0 01-4.647 0 .175.175 0 01-.158-.149 18.794 18.794 0 010-4.65.175.175 0 01.153-.153 19.68 19.68 0 012.328-.149zm-3.457.416a.177.177 0 01.062.148 20.28 20.28 0 000 4.122.175.175 0 01-.215.188c-4.376-.98-4.52-3.439 0-4.498a.175.175 0 01.153.044v-.004zm7.142-.044l.035.004c4.516 1.059 4.376 3.518-.005 4.498a.176.176 0 01-.203-.107.176.176 0 01-.01-.081c.14-1.37.14-2.752 0-4.122a.175.175 0 01.218-.188l-.035-.004zm-1.3-4.323a7.046 7.046 0 014.188 4.183.176.176 0 01-.145.241.175.175 0 01-.104-.022 9.44 9.44 0 00-2.99-1.028.175.175 0 01-.135-.14 9.538 9.538 0 00-1.028-2.989.175.175 0 01.219-.245h-.005zm-4.664 0a.175.175 0 01.214.245 9.435 9.435 0 00-1.033 2.988.175.175 0 01-.135.14 9.495 9.495 0 00-2.99 1.024l-.034.018a.175.175 0 01-.215-.232 7.044 7.044 0 014.188-4.183h.005zM12.012 1c.923.061 1.733 1.409 2.184 3.39a.175.175 0 01-.189.22 20.28 20.28 0 00-4.122 0 .175.175 0 01-.188-.22c.447-1.977 1.252-3.32 2.18-3.386h.13L12.013 1z" fill="#2158F5"/></svg>