<svg width="100" height="60" fill="none" xmlns="http://www.w3.org/2000/svg"><rect width="100" height="60" rx="4" fill="#F5EEE5"/><g clip-path="url(#clip0)"><path d="M48 9H7v41h41V9z" fill="#F5EEE5"/><path d="M32.83 38.48c0 1.64 1.927 2.131 2.914 2.378 3.117.82 9.348 2.418 9.348 2.418a4.984 4.984 0 012.915 2.706V50H7v-4.018a4.867 4.867 0 012.914-2.706s6.232-1.598 9.348-2.418c.985-.247 2.915-.738 2.915-2.379V34.01H32.83v4.47z" fill="#E6C19C"/><path d="M27.581 13.51h.082c1.6-.091 3.2.19 4.674.82a7.08 7.08 0 013.485 4.961c.984 5.617-.86 14.514-2.583 17.384a7.352 7.352 0 01-5.535 3.855h-.247a7.35 7.35 0 01-5.535-3.855c-1.72-2.87-3.566-11.767-2.581-17.384a7.08 7.08 0 013.485-4.96 10.364 10.364 0 014.673-.82h.082z" fill="#D4B08C"/><path d="M27.336 15.56c7.83 0 8.487 5.658 8.527 6.191.452 4.88-1.23 11.521-2.788 13.82a7.51 7.51 0 01-5.535 3.403h-.205a7.708 7.708 0 01-5.576-3.444c-1.557-2.297-3.238-8.941-2.785-13.86.038-.493.53-6.11 8.362-6.11z" fill="#F2CEA5"/></g><path fill="#D4B08C" d="M55 14h33v4H55zm0 16h33v4H55zm0 16h33v4H55zm0-24h17v4H55zm0 16h17v4H55z"/><defs><clipPath id="clip0"><path fill="#fff" transform="translate(7 9)" d="M0 0h41v41H0z"/></clipPath></defs></svg>