<svg width="512" height="318" fill="none" xmlns="http://www.w3.org/2000/svg"><path d="M481.873 4.998C495.727 4.998 507 16.263 507 30.112v257.776c0 13.848-11.272 25.114-25.127 25.114H30.127C16.273 313.002 5 301.737 5 287.888V30.112C5 16.264 16.271 4.998 30.127 4.998h451.746zm0-4.998H30.127C13.488 0 0 13.482 0 30.112v257.776C0 304.519 13.488 318 30.127 318h451.746c16.64 0 30.127-13.481 30.127-30.112V30.112C512 13.482 498.512 0 481.873 0z" fill="#00B5E5"/><path d="M59.058 238v-45.056H46V179h42v13.944H74.942V238H59.058zM95 239v-60h16.882c6.612 0 11.219.308 13.824.924 2.604.613 4.852 1.645 6.74 3.093 2.133 1.638 3.773 3.729 4.919 6.269 1.147 2.542 1.721 5.343 1.721 8.402 0 4.646-1.126 8.423-3.38 11.332-2.254 2.91-5.54 4.843-9.859 5.801L142 238.999h-18.258l-13.602-23.484v23.484H95V239zm15.141-31.638h2.995c3.482 0 6.025-.601 7.631-1.804 1.605-1.201 2.409-3.087 2.409-5.657 0-3.006-.748-5.142-2.246-6.413-1.497-1.27-4.015-1.906-7.551-1.906h-3.238v15.78zM146 239l20.722-60h20.516L208 239h-16.291l-3.036-10.738h-23.265L162.29 239H146zm22.937-22.418h16.29l-6.114-19.795c-.191-.6-.45-1.571-.779-2.91-.328-1.337-.752-3.058-1.271-5.163a342.82 342.82 0 01-1.046 4.222 131.239 131.239 0 01-1.047 3.851l-6.033 19.795zM212 239v-59h15.604l22.413 30.347c.433.618 1.143 1.86 2.128 3.727.985 1.867 2.075 4.092 3.264 6.671a122.33 122.33 0 01-.709-6.53 66.042 66.042 0 01-.224-5.077V180H270v59h-15.524l-22.413-30.466c-.46-.618-1.184-1.86-2.168-3.728-.987-1.867-2.061-4.064-3.224-6.589.325 2.472.561 4.66.71 6.569.148 1.908.223 3.6.223 5.077V239H212zm73.327-20.639c2.416 2.716 4.795 4.743 7.143 6.088 2.347 1.344 4.688 2.015 7.023 2.015 2.17 0 3.954-.577 5.351-1.734 1.398-1.155 2.096-2.621 2.096-4.394 0-1.961-.604-3.473-1.81-4.534-1.209-1.062-3.943-2.156-8.203-3.286-5.832-1.557-9.959-3.589-12.373-6.088-2.416-2.499-3.622-5.925-3.622-10.281 0-5.643 1.906-10.243 5.72-13.805 3.811-3.561 8.756-5.342 14.835-5.342 3.282 0 6.396.437 9.34 1.31s5.732 2.197 8.364 3.97l-5.088 11.57c-1.844-1.557-3.738-2.735-5.677-3.528-1.941-.791-3.861-1.188-5.759-1.188-1.953 0-3.541.464-4.762 1.391-1.221.926-1.832 2.115-1.832 3.566 0 1.478.536 2.662 1.608 3.548 1.073.886 3.142 1.734 6.207 2.541l.732.2c6.62 1.775 10.976 3.723 13.065 5.846 1.41 1.452 2.483 3.192 3.215 5.22.732 2.03 1.1 4.281 1.1 6.752 0 6.265-2.075 11.296-6.229 15.1-4.151 3.801-9.686 5.702-16.604 5.702-4.151 0-7.93-.699-11.336-2.096-3.407-1.397-6.681-3.587-9.831-6.57l7.327-11.973zM329 239v-60h36v13.156h-20.388v10.41h19.225v12.869h-19.225V239H329zm45 0v-60h36v13.156h-20.387v10.41h19.224v12.869h-19.224v10.123H410v13.441h-36V239zm46 0v-60h17.241c6.753 0 11.458.308 14.118.924 2.66.613 4.955 1.645 6.885 3.093 2.178 1.638 3.85 3.729 5.023 6.269 1.171 2.542 1.758 5.343 1.758 8.402 0 4.646-1.152 8.423-3.453 11.332-2.302 2.91-5.656 4.843-10.067 5.801L468 238.999h-18.645l-13.892-23.484v23.484H420V239zm15.463-31.638h3.06c3.555 0 6.153-.601 7.791-1.804 1.64-1.201 2.46-3.087 2.46-5.657 0-3.006-.764-5.142-2.294-6.413-1.528-1.27-4.1-1.906-7.71-1.906h-3.307v15.78z" fill="#00AFD8"/><path d="M230.353 82.001l10.72 40.409c.506 1.82.972 3.716 1.399 5.69.428 1.974.874 4.238 1.341 6.792a546.674 546.674 0 011.485-7.461c.408-1.954.806-3.629 1.195-5.021l10.022-40.409H280L255.875 167h-21.559l-10.548-36.288c-.39-1.278-1.03-3.774-1.923-7.489a270.726 270.726 0 00-.932-3.89c-.195.813-.466 1.955-.816 3.426-.893 3.754-1.573 6.406-2.039 7.953L207.685 167h-21.619L162 82.001h23.483l9.79 40.641c.466 2.091.923 4.181 1.369 6.271.446 2.09.864 4.238 1.253 6.444.35-1.626.727-3.329 1.137-5.11.407-1.78 1.019-4.315 1.835-7.606L211.59 82h18.763v.001zM290 167V82h24v85h-24zm42-.001V82h24.064c9.424 0 15.994.435 19.707 1.306 3.712.87 6.914 2.332 9.609 4.383 3.039 2.322 5.376 5.284 7.011 8.883 1.636 3.6 2.452 7.568 2.452 11.902 0 6.581-1.606 11.931-4.818 16.054-3.212 4.122-7.896 6.86-14.051 8.215L399 166.999h-26.027l-19.39-33.268V167H332v-.001zm21.583-44.822h4.27c4.964 0 8.589-.851 10.879-2.554 2.289-1.703 3.433-4.374 3.433-8.012 0-4.257-1.067-7.287-3.203-9.087-2.135-1.799-5.722-2.7-10.764-2.7h-4.615v22.353zM410 167V82h52v18.638h-29.449v14.747h27.768v18.231h-27.768v14.341H462V167h-52z" fill="#006E90"/><path d="M152 81H46v16h106V81z" fill="url(#paint0_linear)"/><path d="M152 114H46v16h106v-16z" fill="url(#paint1_linear)"/><path d="M152 150H46v16h106v-16z" fill="url(#paint2_linear)"/><defs><linearGradient id="paint0_linear" x1="46" y1="89" x2="152" y2="89" gradientUnits="userSpaceOnUse"><stop stop-color="#41E700" stop-opacity="0"/><stop offset=".736" stop-color="#3ACD00"/><stop offset=".781" stop-color="#36BE00"/><stop offset=".926" stop-color="#299100"/><stop offset="1" stop-color="#248000"/></linearGradient><linearGradient id="paint1_linear" x1="46" y1="122" x2="152" y2="122" gradientUnits="userSpaceOnUse"><stop stop-color="#41E700" stop-opacity="0"/><stop offset=".736" stop-color="#3ACD00"/><stop offset=".781" stop-color="#36BE00"/><stop offset=".926" stop-color="#299100"/><stop offset="1" stop-color="#248000"/></linearGradient><linearGradient id="paint2_linear" x1="46" y1="158" x2="152" y2="158" gradientUnits="userSpaceOnUse"><stop stop-color="#41E700" stop-opacity="0"/><stop offset=".736" stop-color="#3ACD00"/><stop offset=".781" stop-color="#36BE00"/><stop offset=".926" stop-color="#299100"/><stop offset="1" stop-color="#248000"/></linearGradient></defs></svg>