<svg width="19" height="19" fill="none" xmlns="http://www.w3.org/2000/svg"><path fill-rule="evenodd" clip-rule="evenodd" d="M11.085 5.938a.635.635 0 11-.122 1.264.635.635 0 01.122-1.264zm2.649 0a.635.635 0 11-.123 1.264.635.635 0 01.123-1.264zm-5.297 0a.636.636 0 110 1.27.636.636 0 010-1.27z" fill="#fff"/><path d="M3.753 19a1.259 1.259 0 01-1.265-1.265v-1.039A3.13 3.13 0 010 13.656V7.125a.635.635 0 011.265 0v6.531a1.858 1.858 0 001.858 1.853c.63 0 .63.528.63 1.146v1.098l2.44-2.09a.594.594 0 01.41-.154h5.432a.635.635 0 110 1.27H6.84l-2.262 1.918a1.289 1.289 0 01-.826.303z" fill="#fff"/><path d="M15.135 15.699a1.252 1.252 0 01-.825-.303l-2.435-2.072h-5.54a3.17 3.17 0 01-3.17-3.165V3.165A3.17 3.17 0 016.335 0h9.5A3.165 3.165 0 0119 3.165v6.994a3.154 3.154 0 01-2.6 3.111v1.188a1.259 1.259 0 01-1.265 1.264V15.7zm-8.8-14.434a1.905 1.905 0 00-1.9 1.9v6.994a1.894 1.894 0 001.9 1.9h5.79c.15 0 .294.053.41.149l2.6 2.226v-1.745a.635.635 0 01.7-.63 1.905 1.905 0 001.9-1.9V3.165a1.905 1.905 0 00-1.9-1.9h-9.5z" fill="#fff"/></svg>