<svg width="21" height="19" fill="none" xmlns="http://www.w3.org/2000/svg"><path d="M17.622 6.178c-1.814 0-3.194 1.558-3.194 3.346 0 1.782 1.375 3.394 3.24 3.394H20.5v2.008c0 .9-.707 1.574-1.463 1.574H1.324c-.429 0-.824-.377-.824-.899V3.4c0-.522.395-.899.824-.899h17.713c.794 0 1.463.666 1.463 1.574v2.104h-2.878z" stroke="#0D66CC"/><path d="M16.5 9.5a1 1 0 011-1h1v2h-1a1 1 0 01-1-1z" stroke="#7CB9FF"/><path fill-rule="evenodd" clip-rule="evenodd" d="M17.88 1c-.227-.592-.753-1-1.376-1H3.01c-.52 0-.95.438-1.003 1H17.88zM2.006 18c.227.592.753 1 1.375 1h13.496c.52 0 .95-.438 1.003-1H2.006z" fill="#7CB9FF"/><path fill="#0D66CC" d="M20 8h1v3h-1z"/></svg>