<svg width="18" height="15" fill="none" xmlns="http://www.w3.org/2000/svg"><rect x=".5" y=".5" width="17" height="14" rx=".5" stroke="#0D66CC"/><path fill-rule="evenodd" clip-rule="evenodd" d="M13.5 5h-7a.5.5 0 010-1h7a.5.5 0 010 1zM6 7.5a.5.5 0 01.5-.5h7a.5.5 0 010 1h-7a.5.5 0 01-.5-.5z" fill="#7CB9FF"/><path d="M5 4.5a.5.5 0 11-1 0 .5.5 0 011 0zm0 3a.5.5 0 11-1 0 .5.5 0 011 0z" fill="#7CB9FF"/><path fill-rule="evenodd" clip-rule="evenodd" d="M13.5 11h-7a.5.5 0 010-1h7a.5.5 0 010 1z" fill="#7CB9FF"/><path d="M5 10.5a.5.5 0 11-1 0 .5.5 0 011 0z" fill="#7CB9FF"/></svg>