<svg width="19" height="16" fill="none" xmlns="http://www.w3.org/2000/svg"><path d="M16.5 3a.5.5 0 01.5-.5h1.5v3H17a.5.5 0 01-.5-.5V3zm0 7a.5.5 0 01.5-.5h1.5v3H17a.5.5 0 01-.5-.5v-2z" stroke="#7CB9FF"/><rect x=".5" y=".5" width="18" height="14" rx=".5" stroke="#0D66CC"/><circle cx="4.5" cy="7.5" r="2" stroke="#7CB9FF"/><rect x="2" y="2" width="1" height="1" rx=".5" fill="#7CB9FF"/><rect x="2" y="12" width="1" height="1" rx=".5" fill="#7CB9FF"/><path d="M9.5 7a.5.5 0 010 1h-3a.5.5 0 010-1h3z" fill="#7CB9FF"/><rect x="2" y="14" width="3" height="2" rx="1" fill="#0D66CC"/><rect x="14" y="14" width="3" height="2" rx="1" fill="#0D66CC"/></svg>