<svg width="20" height="20" fill="none" xmlns="http://www.w3.org/2000/svg"><rect x=".5" y=".5" width="19" height="19" rx="9.5" stroke="#0D66CC"/><path d="M9.487 12.182a3.181 3.181 0 01-.168-1.016c0-.29.061-.55.182-.78.127-.235.282-.454.467-.657.185-.203.386-.397.605-.583.218-.19.42-.38.605-.569a3.32 3.32 0 00.459-.603c.126-.212.19-.445.19-.698a1.202 1.202 0 00-.503-.996 1.613 1.613 0 00-.54-.25 2.336 2.336 0 00-.648-.088c-.822 0-1.533.3-2.136.9V5.65C8.743 5.217 9.514 5 10.31 5c.37 0 .717.045 1.043.136.325.09.61.225.853.406.247.176.442.397.583.664.14.266.211.576.211.928 0 .334-.063.632-.19.894a3.2 3.2 0 01-.48.725c-.19.217-.397.42-.62.61-.224.19-.433.38-.627.57-.19.184-.347.379-.474.582-.126.203-.19.427-.19.67 0 .208.027.398.081.57.053.167.107.31.16.427H9.487zM10.143 15a.839.839 0 01-.569-.217.685.685 0 01-.24-.528c0-.213.08-.389.24-.529a.807.807 0 01.569-.223c.218 0 .408.074.568.223.16.14.24.316.24.529 0 .207-.08.384-.24.528a.839.839 0 01-.568.217z" fill="#7CB9FF"/></svg>