<svg width="17" height="20" fill="none" xmlns="http://www.w3.org/2000/svg"><path d="M2 10a.5.5 0 01.5-.5h10a.5.5 0 010 1h-10A.5.5 0 012 10zm-2 0a.5.5 0 111 0 .5.5 0 01-1 0z" fill="#7CB9FF"/><path fill-rule="evenodd" clip-rule="evenodd" d="M7.646 4.646a.5.5 0 01.708 0L13.707 10l-5.353 5.354a.5.5 0 01-.708-.708L12.293 10 7.646 5.354a.5.5 0 010-.708z" fill="#7CB9FF"/><path fill-rule="evenodd" clip-rule="evenodd" d="M11 1h5v18H3a1 1 0 001 1h12a1 1 0 001-1V1a1 1 0 00-1-1H4a1 1 0 00-1 1h8z" fill="#0D66CC"/></svg>