<svg width="24" height="24" fill="none" xmlns="http://www.w3.org/2000/svg"><circle cx="12" cy="12" r="7.5" stroke="#0D66CC"/><path d="M12 23c6.075 0 11-4.925 11-11a10.96 10.96 0 00-2.8-7.333M12 1C5.925 1 1 5.925 1 12c0 2.79 1.038 5.337 2.75 7.276" stroke="#7CB9FF" stroke-linecap="round"/><path d="M8 5.5v1.665a1 1 0 00.821.984l2.801.51a1 1 0 01.528 1.69l-1.357 1.358a1 1 0 01-.707.293H9a1 1 0 00-1 1v3.197a1 1 0 01-.168.555L7 18m8 1l.777-3.498a1 1 0 011.219-.753l.285.071a1 1 0 001.1-.455L19.5 12.5" stroke="#0D66CC"/></svg>