<svg width="14" height="18" fill="none" xmlns="http://www.w3.org/2000/svg"><path d="M3 7.5a.5.5 0 101 0 .5.5 0 00-1 0zm1 3a.5.5 0 11-1 0 .5.5 0 011 0zm0 3a.5.5 0 11-1 0 .5.5 0 011 0zm1-6a.5.5 0 01.5-.5h5a.5.5 0 010 1h-5a.5.5 0 01-.5-.5zm0 3a.5.5 0 01.5-.5h5a.5.5 0 010 1h-5a.5.5 0 01-.5-.5zm0 3a.5.5 0 01.5-.5h5a.5.5 0 010 1h-5a.5.5 0 01-.5-.5z" fill="#7CB9FF"/><path fill-rule="evenodd" clip-rule="evenodd" d="M3 3V1H2v2a1 1 0 001 1h8a1 1 0 001-1V1h-1v2H3z" fill="#0D66CC"/><path d="M4 1.5a.5.5 0 01.5-.5h5a.5.5 0 010 1h-5a.5.5 0 01-.5-.5z" fill="#0D66CC"/><path d="M6 1a1 1 0 112 0 1 1 0 01-2 0z" fill="#0D66CC"/><path fill-rule="evenodd" clip-rule="evenodd" d="M11 2h2v15H1V2h2V1H1a1 1 0 00-1 1v15a1 1 0 001 1h12a1 1 0 001-1V2a1 1 0 00-1-1h-2v1z" fill="#0D66CC"/></svg>