<svg width="20" height="20" fill="none" xmlns="http://www.w3.org/2000/svg"><path fill-rule="evenodd" clip-rule="evenodd" d="M11 9a.5.5 0 10-1 0 .5.5 0 001 0zm-.5 1a.5.5 0 01.5.5v6.793l2.646-2.647a.5.5 0 01.708.708l-3.5 3.5-.354.353-.354-.353-3.5-3.5a.5.5 0 01.708-.708L10 17.293V10.5a.5.5 0 01.5-.5z" fill="#7CB9FF"/><path fill-rule="evenodd" clip-rule="evenodd" d="M5.429 11H7.5a.5.5 0 010 1H4.429C2.009 12 0 10.086 0 7.667c0-2.42 2.01-4.334 4.429-4.334.438 0 .862.063 1.264.18C6.664 1.432 8.816 0 11.286 0c3.065 0 5.641 2.206 6.077 5.122C18.868 5.522 20 6.865 20 8.5c0 1.96-1.626 3.5-3.571 3.5H13.5a.5.5 0 010-1h2.929c.354 0 .692-.07 1-.196C18.352 10.424 19 9.536 19 8.5c0-1.037-.65-1.927-1.575-2.305A2.627 2.627 0 0016.43 6c0-.342-.036-.676-.103-.999C15.85 2.718 13.774 1 11.286 1 9.217 1 7.434 2.188 6.617 3.9a4.87 4.87 0 00-.34.959 3.46 3.46 0 00-1.848-.526C2.535 4.333 1 5.826 1 7.667c0 1.502 1.023 2.773 2.429 3.189a3.52 3.52 0 001 .144h1z" fill="#0D66CC"/></svg>