<svg width="21" height="13" fill="none" xmlns="http://www.w3.org/2000/svg"><path d="M3.5 4a.5.5 0 01.5-.5h2.465A3.502 3.502 0 013.5 6.465V4zm17 0a.5.5 0 00-.5-.5h-2.465A3.502 3.502 0 0020.5 6.465V4zm-17 8a.5.5 0 00.5.5h2.465A3.502 3.502 0 003.5 9.535V12zm17 0a.5.5 0 01-.5.5h-2.465A3.502 3.502 0 0120.5 9.535V12z" stroke="#7CB9FF"/><rect x="3.5" y="3.5" width="17" height="9" rx=".5" stroke="#0D66CC"/><circle cx="12" cy="8" r="1.5" stroke="#7CB9FF"/><path d="M1 1h15a1 1 0 00-1-1H1a1 1 0 00-1 1v8a1 1 0 001 1V1z" fill="#0D66CC"/><path d="M1 9h.5a.5.5 0 010 1H1V9zm15-8v.5a.5.5 0 01-1 0V1h1z" fill="#0D66CC"/></svg>