<svg width="23" height="15" fill="none" xmlns="http://www.w3.org/2000/svg"><path d="M3.571 4.152v.5h.255l.15-.207-.405-.293zm15.858 0l-.405.293.15.207h.255v-.5zm-14.643 9.06c0 .04-.004.097-.013.157a.75.75 0 01-.039.153c-.016.043-.025.044-.01.029a.205.205 0 01.132-.051v1c.492 0 .723-.391.81-.613.094-.241.12-.505.12-.675h-1zm.071.288h-3v1h3v-1zm-3 0a.52.52 0 01-.26-.075.2.2 0 01-.067-.069.286.286 0 01-.03-.144h-1c0 .497.239.844.545 1.047.28.186.597.241.812.241v-1zm-.357-.288V7.303h-1v5.91h1zm0-5.909c0-.273.107-.558.277-.771.172-.217.363-.305.509-.305v-1c-.54 0-.993.307-1.291.68C.693 6.287.5 6.789.5 7.304h1zm.786-1.076c.143 0 .353-.035.544-.162a.855.855 0 00.384-.732h-1s.001-.02.017-.05a.151.151 0 01.047-.051c.01-.007.013-.007.008-.006-.005.002-.007.001 0 .001v1zm.928-.894a.808.808 0 00-.22-.575.966.966 0 00-.49-.257c-.283-.065-.676-.062-1.075-.062v1c.217 0 .394 0 .543.006.152.006.248.017.309.03.064.016.036.022-.006-.022-.057-.059-.06-.121-.06-.12h1zM1.43 4.44c.062 0 .142.038.187.11a.164.164 0 01.027.128c-.007.026-.019.027-.003.017.017-.011.079-.042.217-.042v-1c-.586 0-1.05.288-1.179.762a.84.84 0 00.094.67c.14.22.38.355.657.355v-1zm.428.213h1.714v-1H1.857v1zm2.12-.207c.441-.61.957-1.37 1.478-1.992.259-.31.502-.563.719-.736.232-.185.36-.217.397-.217v-1c-.39 0-.745.215-1.021.435a6.35 6.35 0 00-.862.877c-.55.658-1.106 1.474-1.521 2.046l.81.587zM6.57 1.5h6v-1h-6v1zm10.643 11.712c0 .17.026.434.12.675.087.222.318.613.809.613v-1a.205.205 0 01.132.051c.016.015.007.014-.01-.029a.748.748 0 01-.038-.153 1.069 1.069 0 01-.013-.157h-1zm.929 1.288h3v-1h-3v1zm3 0c.215 0 .532-.055.811-.24.307-.204.546-.551.546-1.048h-1c0 .08-.017.122-.03.144a.2.2 0 01-.067.07.52.52 0 01-.26.074v1zm1.357-1.288V7.303h-1v5.91h1zm0-5.909c0-.515-.194-1.017-.495-1.395-.298-.374-.75-.68-1.29-.68v1c.145 0 .335.087.508.304.17.213.277.498.277.771h1zm-1.786-2.076c.007 0 .005 0 0 0-.005-.002-.001-.002.008.005a.139.139 0 01.047.051c.016.03.017.05.017.05h-1c0 .34.167.589.384.732a1 1 0 00.544.162v-1zm.072.106c0-.001-.004.061-.06.12-.043.044-.07.038-.007.023a1.72 1.72 0 01.31-.03c.148-.007.325-.007.542-.007v-1c-.4 0-.792-.003-1.076.062a.966.966 0 00-.488.257.809.809 0 00-.221.575h1zm.785.106a.767.767 0 00.657-.355.84.84 0 00.094-.67c-.13-.474-.593-.762-1.18-.762v1c.14 0 .2.031.218.042.016.01.004.009-.003-.017a.164.164 0 01.027-.129.234.234 0 01.187-.109v1zm-.428-1.787h-1.714v1h1.714v-1zm-1.31.206a24.995 24.995 0 00-1.697-2.064 11.38 11.38 0 00-.85-.846 3.145 3.145 0 00-.375-.285C16.815.603 16.636.5 16.429.5v1c-.1 0-.132-.041-.05.01.06.037.143.1.251.194.214.186.48.453.77.767.577.627 1.207 1.4 1.624 1.974l.81-.587zM16.43.5h-6v1h6v-1z" fill="#0D66CC"/><path d="M11.143 9.693l.353-.354-.147-.146h-.206v.5zm.857.854l-.353.354.353.351.353-.351-.353-.354zm.857-.854v-.5h-.206l-.147.146.353.354zM5.093 5.498c4.314.429 10.956.345 13.406-.003l-.14-.99c-2.35.334-8.909.421-13.167-.003l-.099.996zM3.358 8.055l3 .427.141-.99-3-.427-.14.99zm17.143-.99l-3 .427.14.99 3-.427-.14-.99zM7.286 10.193h3.857v-1H7.286v1zm3.504-.145l.857.853.706-.709-.857-.853-.706.709zm1.563.853l.857-.853-.706-.709-.857.853.706.709zm.504-.708h3.857v-1h-3.857v1z" fill="#7CB9FF"/><path d="M2.967 13.179c6.451.428 11.187.428 18.064 0l-.062-.998c-6.837.425-11.53.425-17.936 0l-.066.998z" fill="#0D66CC"/></svg>