<svg width="42" height="42" fill="none" xmlns="http://www.w3.org/2000/svg"><path d="M14.656 31.172c4.109.42 8.257.42 12.366 0a.525.525 0 01.565.643C26.235 37.774 23.806 41.79 21.023 42h-.184v-.013h-.21c-2.783-.184-5.198-4.213-6.55-10.172a.525.525 0 01.577-.643zm25.166-3.636a.524.524 0 01.748.643 21.13 21.13 0 01-12.55 12.548.526.526 0 01-.656-.748 28.186 28.186 0 003.085-8.951.525.525 0 01.407-.42 28.485 28.485 0 008.966-3.072zm-37.65 0a28.32 28.32 0 008.966 3.072.525.525 0 01.407.42c.525 3.136 1.549 6.168 3.085 8.95a.524.524 0 01-.657.749 21.135 21.135 0 01-12.55-12.548.525.525 0 01.749-.656v.013zm18.667-14.411c2.324 0 4.66.131 6.971.446a.526.526 0 01.46.46 53.92 53.92 0 010 13.938.538.538 0 01-.46.46c-4.634.617-9.32.617-13.942 0a.525.525 0 01-.472-.446 56.385 56.385 0 010-13.952.525.525 0 01.46-.46 59.046 59.046 0 016.983-.446zm-10.37 1.247a.534.534 0 01.183.446 60.82 60.82 0 000 12.364.524.524 0 01-.643.564c-13.128-2.94-13.561-10.316 0-13.492a.526.526 0 01.46.131v-.013zm21.424-.131l.105.013c13.547 3.176 13.127 10.552-.013 13.492a.527.527 0 01-.644-.564 60.82 60.82 0 000-12.364.525.525 0 01.657-.564l-.105-.013zm-3.9-12.968a21.136 21.136 0 0112.564 12.548.525.525 0 01-.748.656 28.32 28.32 0 00-8.966-3.085.525.525 0 01-.407-.42 28.61 28.61 0 00-3.085-8.964.524.524 0 01.656-.735h-.013zM14 1.273a.525.525 0 01.643.735 28.309 28.309 0 00-3.098 8.965.524.524 0 01-.407.42 28.484 28.484 0 00-8.966 3.07l-.105.053a.524.524 0 01-.644-.695A21.13 21.13 0 0113.986 1.273H14zM21.036 0c2.77.184 5.199 4.226 6.55 10.172a.526.526 0 01-.564.656 60.957 60.957 0 00-12.366 0 .524.524 0 01-.564-.656C15.43 4.239 17.846.21 20.629.013h.394L21.036 0z" fill="#2158F5"/></svg>