<svg width="60" height="40" fill="none" xmlns="http://www.w3.org/2000/svg"><path d="M10.784 14.885l.095.264.275.056.493.1.278.057.19-.21 1.489-1.634.064.026-.106 2.209-.014.304.263.153c.128.074.249.154.362.24l.242.186.275-.13 2.002-.941.046.046-.937 2.008-.128.275.184.24c.086.114.167.234.241.363l.153.263.304-.015 2.208-.106.027.065-1.634 1.488-.218.198.068.287c.04.165.072.303.09.444l.042.3.284.103 2.078.75v.067l-2.078.75-.277.1-.046.292a7.46 7.46 0 01-.082.405l-.029.129-.063.29.224.194 1.637 1.419-.02.047-2.16-.158-.312-.023-.157.27a5.495 5.495 0 01-.331.493l-.183.247.138.275.975 1.936-.032.032-1.942-.97-.274-.138-.247.182a5.4 5.4 0 01-.493.332l-.27.157.023.311.159 2.161-.048.02-1.419-1.637-.195-.225-.291.064c-.21.047-.4.089-.593.117l-.306.043-.098.294-.686 2.058h-.048L9.29 29.75l-.098-.294-.306-.043a7.833 7.833 0 01-.593-.117l-.29-.064-.196.225-1.42 1.637-.046-.02.158-2.16.022-.312-.27-.157a5.49 5.49 0 01-.492-.332l-.248-.183-.274.139-1.937.974-.031-.032.97-1.941.138-.275-.183-.246a5.505 5.505 0 01-.331-.493l-.158-.27-.31.023-2.162.158-.02-.047 1.638-1.42.229-.198-.07-.295a7.158 7.158 0 01-.116-.59l-.046-.302-.29-.097L.5 22.332v-.049l2.058-.686.288-.096.048-.299a5.62 5.62 0 01.099-.52l.072-.29-.22-.2-1.635-1.488.027-.065 2.208.107.304.014.153-.263a3.36 3.36 0 01.241-.363l.185-.241-.13-.275-.941-2.003.046-.046 2.009.938.274.128.24-.184a3.41 3.41 0 01.363-.241l.263-.153-.014-.304-.106-2.209.064-.026 1.488 1.634.199.218.287-.068h0l.003-.001.01-.002.036-.009.124-.027a4.16 4.16 0 01.27-.052l.3-.041.103-.285.75-2.077h.068l.75 2.077zM10 20.27a2.038 2.038 0 100 4.077 2.038 2.038 0 000-4.077z" fill="#319302" fill-opacity=".25" stroke="#319302"/><path d="M36.337 5.57l.286-.068h.002l.005-.002.02-.005.076-.017.253-.057c.204-.044.433-.09.58-.11l.3-.041.104-.285L39.582.5h.836l1.62 4.485.095.264.275.056.985.2.278.057.191-.21 3.21-3.526.78.319-.228 4.77-.015.304.264.152c.274.159.533.332.777.518l.242.185.275-.13 4.325-2.033.585.592-2.022 4.332-.129.274.184.24c.187.245.36.504.519.778l.152.264.305-.015 4.77-.229.318.78-3.526 3.211-.218.199.068.287c.078.326.149.626.191.936l.041.3.285.103 4.485 1.619v.836l-4.485 1.62-.278.1-.046.29c-.046.285-.108.567-.172.851l-.054.246-.063.29.224.194 3.545 3.072-.312.763-4.684-.343-.311-.022-.157.27c-.203.346-.437.684-.694 1.03l-.182.248.138.275 2.113 4.198-.578.57-4.203-2.102-.275-.137-.246.182c-.348.257-.685.491-1.032.694l-.27.157.023.31.343 4.685-.763.312-3.072-3.545-.196-.225-.29.065c-.419.093-.816.18-1.225.239l-.305.044-.098.293-1.486 4.458h-.818l-1.486-4.458-.098-.293-.305-.044a16.183 16.183 0 01-1.224-.24l-.291-.064-.196.225-3.072 3.545-.763-.312.343-4.684.022-.311-.27-.157a11.495 11.495 0 01-1.03-.694l-.248-.182-.275.138-4.198 2.113-.57-.578 2.102-4.203.137-.275-.182-.246a11.655 11.655 0 01-.694-1.032l-.157-.27-.311.023-4.684.343-.312-.763 3.545-3.072.229-.2-.07-.294a14.93 14.93 0 01-.239-1.22l-.046-.303-.29-.097-4.458-1.486v-.818l4.458-1.486.288-.096.048-.3c.061-.384.12-.734.206-1.08l.073-.29-.221-.201-3.526-3.21.319-.78 4.77.228.304.015.152-.264a7.29 7.29 0 01.519-.777l.184-.242-.13-.275-2.033-4.325.592-.585 4.332 2.022.274.129.24-.185c.245-.186.504-.359.778-.518l.264-.152-.015-.305-.229-4.77.78-.318 3.211 3.526.199.218zM40 16.423a3.577 3.577 0 100 7.154 3.577 3.577 0 000-7.154z" stroke="#008A48"/></svg>