<svg width="52" height="41" fill="none" xmlns="http://www.w3.org/2000/svg"><path d="M45 12a2 2 0 11-4 0 2 2 0 014 0zm-7 0a2 2 0 11-4 0 2 2 0 014 0zm-7 0a2 2 0 11-4 0 2 2 0 014 0z" fill="#BC7100"/><mask id="a" fill="#fff"><path fill-rule="evenodd" clip-rule="evenodd" d="M4 12a4 4 0 00-4 4v16a4 4 0 004 4h2v5l5-5h17a4 4 0 004-4V16a4 4 0 00-4-4H4z"/></mask><path fill-rule="evenodd" clip-rule="evenodd" d="M4 12a4 4 0 00-4 4v16a4 4 0 004 4h2v5l5-5h17a4 4 0 004-4V16a4 4 0 00-4-4H4z" fill="#FFEFDC"/><path d="M6 36h1v-1H6v1zm0 5H5v2.414l1.707-1.707L6 41zm5-5v-1h-.414l-.293.293L11 36zM1 16a3 3 0 013-3v-2a5 5 0 00-5 5h2zm0 16V16h-2v16h2zm3 3a3 3 0 01-3-3h-2a5 5 0 005 5v-2zm2 0H4v2h2v-2zm-1 1v5h2v-5H5zm1.707 5.707l5-5-1.414-1.414-5 5 1.414 1.414zM28 35H11v2h17v-2zm3-3a3 3 0 01-3 3v2a5 5 0 005-5h-2zm0-16v16h2V16h-2zm-3-3a3 3 0 013 3h2a5 5 0 00-5-5v2zM4 13h24v-2H4v2z" fill="#BC7100" mask="url(#a)"/><mask id="c" maskUnits="userSpaceOnUse" x="20" y="0" width="32" height="29"><mask id="b" fill="#fff"><path fill-rule="evenodd" clip-rule="evenodd" d="M48 0a4 4 0 014 4v16a4 4 0 01-4 4h-2v5l-5-5H24a4 4 0 01-4-4V4a4 4 0 014-4h24z"/></mask><path d="M46 24h-1v-1h1v1zm0 5h1v2.414l-1.707-1.707L46 29zm-5-5v-1h.414l.293.293L41 24zM51 4a3 3 0 00-3-3v-2a5 5 0 015 5h-2zm0 16V4h2v16h-2zm-3 3a3 3 0 003-3h2a5 5 0 01-5 5v-2zm-2 0h2v2h-2v-2zm1 1v5h-2v-5h2zm-1.707 5.707l-5-5 1.414-1.414 5 5-1.414 1.414zM24 23h17v2H24v-2zm-3-3a3 3 0 003 3v2a5 5 0 01-5-5h2zm0-16v16h-2V4h2zm3-3a3 3 0 00-3 3h-2a5 5 0 015-5v2zm24 0H24v-2h24v2z" fill="#BC7100" mask="url(#b)"/></mask><g mask="url(#c)"><mask id="e" maskUnits="userSpaceOnUse" x="20" y="0" width="32" height="29"><mask id="d" fill="#fff"><path fill-rule="evenodd" clip-rule="evenodd" d="M48 0a4 4 0 014 4v16a4 4 0 01-4 4h-2v5l-5-5H24a4 4 0 01-4-4V4a4 4 0 014-4h24z"/></mask><path d="M46 24h-.5v-.5h.5v.5zm0 5h.5v1.207l-.854-.853L46 29zm-5-5v-.5h.207l.147.146L41 24zM52.5 4v.533h-1V4h1zm0 2.667v1.066h-1V6.667h1zm0 3.2v1.066h-1V9.867h1zm0 3.2v1.066h-1v-1.066h1zm0 3.2v1.066h-1v-1.066h1zm0 3.2V20h-1v-.533h1zm0 .533c0 .199-.013.395-.038.587l-.992-.13c.02-.149.03-.302.03-.457h1zm-.93 2.74c-.24.311-.519.59-.83.83l-.61-.793c.243-.186.46-.404.647-.646l.793.609zm-2.983 1.722A4.536 4.536 0 0148 24.5v-1c.155 0 .308-.01.458-.03l.13.992zM48 24.5h-.333v-1H48v1zm-1.667 0H46v-1h.333v1zm.167-.5v.417h-1V24h1zm0 2.083v.834h-1v-.834h1zm0 2.5V29h-1v-.417h1zm-.854.77l-.416-.416.707-.707.417.416-.708.708zm-2.083-2.083l-.833-.833.707-.707.833.833-.707.707zm-2.5-2.5l-.417-.416.708-.708.416.417-.707.707zM41 24.5h-.472v-1H41v1zm-2.361 0h-.945v-1h.945v1zm-2.833 0h-.945v-1h.945v1zm-2.834 0h-.944v-1h.944v1zm-2.833 0h-.945v-1h.945v1zm-2.833 0h-.945v-1h.945v1zm-2.834 0H24v-1h.472v1zm-.472 0c-.199 0-.395-.013-.587-.038l.13-.992c.149.02.302.03.457.03v1zm-2.74-.93a4.527 4.527 0 01-.83-.83l.793-.61c.186.243.404.46.646.647l-.609.793zm-1.722-2.983A4.536 4.536 0 0119.5 20h1c0 .155.01.308.03.458l-.992.13zM19.5 20v-.533h1V20h-1zm0-2.667v-1.066h1v1.066h-1zm0-3.2v-1.066h1v1.066h-1zm0-3.2V9.867h1v1.066h-1zm0-3.2V6.667h1v1.066h-1zm0-3.2V4h1v.533h-1zm0-.533c0-.199.013-.395.038-.587l.992.13A3.44 3.44 0 0020.5 4h-1zm.93-2.74c.24-.311.519-.59.83-.83l.61.793c-.243.186-.46.404-.647.647l-.793-.61zm2.983-1.722C23.605-.487 23.8-.5 24-.5v1c-.155 0-.308.01-.458.03l-.13-.992zM24-.5h.5v1H24v-1zm2.5 0h1v1h-1v-1zm3 0h1v1h-1v-1zm3 0h1v1h-1v-1zm3 0h1v1h-1v-1zm3 0h1v1h-1v-1zm3 0h1v1h-1v-1zm3 0h1v1h-1v-1zm3 0h.5v1h-.5v-1zm.5 0c.199 0 .395.013.587.038l-.13.992A3.417 3.417 0 0048 .5v-1zm2.74.93c.311.24.59.519.83.83l-.793.61a3.523 3.523 0 00-.647-.647l.61-.793zm1.722 2.983c.025.192.038.388.038.587h-1c0-.155-.01-.308-.03-.458l.992-.13zM46 24h-1v-1h1v1zm0 5h1v2.414l-1.707-1.707L46 29zm-5-5v-1h.414l.293.293L41 24zM53 4v.533h-2V4h2zm0 2.667v1.066h-2V6.667h2zm0 3.2v1.066h-2V9.867h2zm0 3.2v1.066h-2v-1.066h2zm0 3.2v1.066h-2v-1.066h2zm0 3.2V20h-2v-.533h2zM53 20c0 .22-.014.438-.042.652l-1.983-.259c.016-.128.025-.26.025-.393h2zm-1.033 3.044a5.024 5.024 0 01-.922.922l-1.22-1.585c.209-.16.396-.347.556-.555l1.586 1.218zm-3.315 1.914A5.036 5.036 0 0148 25v-2c.134 0 .265-.009.393-.025l.259 1.983zM48 25h-.333v-2H48v2zm-1.667 0H46v-2h.333v2zM47 24v.417h-2V24h2zm0 2.083v.834h-2v-.834h2zm0 2.5V29h-2v-.417h2zm-1.707 1.124l-.417-.417 1.414-1.414.417.417-1.414 1.414zm-2.083-2.083l-.834-.834 1.414-1.414.834.834-1.414 1.414zm-2.5-2.5l-.417-.417 1.414-1.414.417.417-1.414 1.414zM41 25h-.472v-2H41v2zm-2.361 0h-.945v-2h.945v2zm-2.833 0h-.945v-2h.945v2zm-2.834 0h-.944v-2h.944v2zm-2.833 0h-.945v-2h.945v2zm-2.833 0h-.945v-2h.945v2zm-2.834 0H24v-2h.472v2zM24 25c-.22 0-.438-.014-.652-.042l.259-1.983c.128.016.26.025.393.025v2zm-3.044-1.034a5.024 5.024 0 01-.922-.922l1.585-1.218c.16.208.347.395.555.555l-1.218 1.585zm-1.914-3.314A5.036 5.036 0 0119 20h2c0 .134.009.265.025.393l-1.983.259zM19 20v-.533h2V20h-2zm0-2.667v-1.066h2v1.066h-2zm0-3.2v-1.066h2v1.066h-2zm0-3.2V9.867h2v1.066h-2zm0-3.2V6.667h2v1.066h-2zm0-3.2V4h2v.533h-2zM19 4c0-.22.014-.438.042-.652l1.983.259C21.01 3.735 21 3.867 21 4h-2zM20.034.956c.265-.346.576-.657.922-.923l1.218 1.586c-.208.16-.395.347-.555.555L20.034.956zm3.314-1.914C23.562-.986 23.78-1 24-1v2c-.134 0-.265.009-.393.025l-.259-1.983zM24-1h.5v2H24v-2zm2.5 0h1v2h-1v-2zm3 0h1v2h-1v-2zm3 0h1v2h-1v-2zm3 0h1v2h-1v-2zm3 0h1v2h-1v-2zm3 0h1v2h-1v-2zm3 0h1v2h-1v-2zm3 0h.5v2h-.5v-2zm.5 0c.22 0 .438.014.652.042l-.259 1.983A3.037 3.037 0 0048 1v-2zM51.044.033c.347.266.657.577.923.923L50.38 2.174a3.024 3.024 0 00-.555-.555L51.044.033zm1.914 3.315c.028.214.042.432.042.652h-2c0-.134-.009-.265-.025-.393l1.983-.259z" fill="#BC7100" mask="url(#d)"/></mask><g mask="url(#e)"><path fill="#BC7100" d="M19 12h13v13H19z"/></g><path d="M18 0h36v12H18V0zm14 12h24v18H32V12z" fill="#BC7100"/></g><path d="M7.373 25.105V28H5.48v-8.402h2.965c2.117 0 3.176.892 3.176 2.677 0 .844-.305 1.528-.914 2.051-.605.52-1.416.78-2.432.78h-.902zm0-4.054v2.619h.744c1.008 0 1.512-.442 1.512-1.324 0-.864-.504-1.295-1.512-1.295h-.744zm11.842-1.453l-2.631 5.76c-.492 1.078-.957 1.812-1.394 2.203-.438.39-.993.585-1.665.585-.445 0-.808-.064-1.09-.193v-1.728c.32.207.653.31.997.31.472 0 .888-.383 1.248-1.148l-2.76-5.79h2.156l1.395 3.364c.082.203.146.432.193.686h.012c.043-.211.11-.432.199-.663l1.348-3.386h1.992zm6.762 8.103c-.614.297-1.415.445-2.403.445-1.289 0-2.303-.378-3.04-1.136-.74-.758-1.108-1.768-1.108-3.03 0-1.343.414-2.433 1.242-3.27.832-.835 1.91-1.253 3.234-1.253.82 0 1.512.104 2.075.31v1.823c-.563-.336-1.204-.504-1.922-.504-.79 0-1.426.248-1.91.744-.485.496-.727 1.168-.727 2.016 0 .812.229 1.46.686 1.945.457.48 1.072.72 1.845.72.738 0 1.414-.179 2.028-.538V27.7z" fill="#BC7100"/></svg>