<svg width="40" height="30" fill="none" xmlns="http://www.w3.org/2000/svg"><g clip-path="url(#clip0)" fill-rule="evenodd" clip-rule="evenodd"><path d="M0 0h57v2.309H0V0zm0 4.617h57v2.309H0V4.617zM0 9.23h57v2.314H0V9.229zm0 4.617h57v2.308H0v-2.308zm0 4.617h57v2.308H0v-2.308zm0 4.611h57v2.309H0v-2.309zm0 4.617h57V30H0v-2.309z" fill="#BD3D44"/><path d="M0 2.309h57v2.308H0V2.31zm0 4.617h57v2.303H0V6.926zm0 4.611h57v2.309H0v-2.309zm0 4.617h57v2.309H0v-2.309zm0 4.617h57v2.31H0v-2.31zm0 4.612h57v2.308H0v-2.308z" fill="#fff"/><path d="M0 0h22.799v16.154H0V0z" fill="#192F5D"/><path d="M1.899.691l.21.64h.668l-.539.392.205.644L1.9 1.97l-.54.392.206-.638-.545-.393h.68L1.9.692zm3.802 0l.205.64h.674l-.545.392.205.644-.539-.398-.545.392.205-.638-.539-.393h.668l.211-.639zm3.797 0l.211.64h.662l-.539.392.205.644-.545-.398-.539.392.205-.638-.545-.393h.674l.211-.639zm3.803 0l.205.64h.674l-.545.392.21.644-.544-.398-.545.392.21-.638-.544-.393h.668l.21-.639zm3.797 0l.21.64h.669l-.54.392.206.644-.545-.398-.54.392.206-.638-.54-.393h.669l.205-.639zm3.803 0l.204.64h.674l-.545.392.211.644-.544-.398-.546.392.212-.638-.546-.393h.674l.206-.639zM3.803 2.31l.205.638h.674l-.545.393.199.639-.527-.393-.545.393.193-.64-.527-.392h.668l.205-.638zm3.797 0l.21.638h.669l-.545.393.21.639-.544-.393-.545.393.21-.64-.544-.392h.674L7.6 2.31zm3.802 0l.206.638h.673l-.545.393.205.639-.539-.393-.544.393.205-.64-.54-.392h.668l.211-.638zm3.797 0l.211.638h.668l-.545.393.211.639-.545-.393-.539.393.205-.64-.545-.392H15l.2-.638zm3.803 0l.205.638h.674l-.545.393.205.639-.539-.393-.545.393.205-.64-.539-.392h.668l.211-.638zM1.898 3.919l.211.651h.668l-.539.393.205.639-.544-.399-.54.399.206-.645-.545-.393h.68l.199-.644zm3.803 0l.205.645h.674l-.545.393.205.639-.539-.399-.545.399.205-.645-.539-.392h.668l.211-.64zm3.797 0l.211.645h.662l-.539.393.205.639-.545-.399-.539.399.205-.645-.545-.392h.674l.211-.64zm3.803 0l.205.645h.674l-.545.393.21.639-.544-.399-.545.399.21-.645-.544-.392h.668l.21-.64zm3.797 0l.21.645h.669l-.54.393.206.639-.545-.399-.54.399.206-.645-.54-.392h.669l.205-.64zm3.803 0l.204.645h.674l-.545.393.211.639-.544-.399-.546.399.212-.645-.546-.392h.674l.206-.64zM3.803 5.538l.205.639h.674l-.545.392.205.645-.54-.399-.544.393.205-.639-.54-.392h.669l.21-.639zm3.797 0l.21.639h.669l-.545.392.21.645-.544-.399-.545.393.21-.639-.544-.392h.674l.205-.639zm3.802 0l.206.639h.673l-.545.392.205.645-.539-.399-.544.393.205-.639-.54-.392h.668l.211-.639zm3.797 0l.211.639h.668l-.539.392.205.645-.545-.399-.539.393.205-.639-.545-.392H15l.2-.639zm3.803 0l.205.639h.674l-.545.392.205.645-.539-.399-.545.393.205-.639-.539-.392h.668l.211-.639zM1.898 7.154l.211.639h.668l-.539.393.205.644-.544-.398-.54.392.206-.638-.545-.393h.68l.199-.639zm3.803 0l.205.639h.674l-.545.393.205.638-.539-.392-.545.392.205-.638-.539-.393h.668l.211-.639zm3.797 0l.211.639h.662l-.539.393.205.644-.545-.398-.539.392.205-.638-.545-.393h.674l.211-.639zm3.803 0l.205.639h.674l-.545.393.21.644-.544-.398-.545.392.21-.638-.544-.393h.668l.21-.639zm3.797 0l.21.639h.669l-.54.393.206.644-.545-.398-.54.392.206-.638-.54-.393h.669l.205-.639zm3.803 0l.204.639h.674l-.545.393.211.644-.544-.398-.546.392.212-.638-.546-.393h.674l.206-.639zM3.803 8.771l.205.64h.674l-.545.392.205.638-.54-.398-.544.398.205-.644-.54-.393h.669l.21-.633zm3.797 0l.21.64h.669l-.545.392.21.638-.544-.398-.545.398.21-.644-.544-.393h.674l.205-.633zm3.802 0l.206.64h.673l-.545.392.205.638-.539-.398-.544.398.205-.644-.54-.393h.668l.211-.633zm3.797 0l.211.64h.668l-.539.392.205.638-.545-.398-.539.398.205-.644-.545-.393H15l.2-.633zm3.803 0l.205.64h.674l-.545.392.205.638-.539-.398-.545.398.205-.644-.539-.393h.668l.211-.633zM1.898 10.383l.211.644h.668l-.539.393.205.633-.544-.393-.54.393.206-.639-.545-.393h.68l.199-.638zm3.803 0l.205.644h.674l-.545.393.211.633-.545-.393-.545.393.211-.639-.545-.393h.668l.211-.638zm3.797 0l.211.644h.662l-.539.393.205.633-.545-.393-.539.393.205-.639-.545-.393h.674l.211-.638zm3.803 0l.205.644h.674l-.545.393.21.633-.544-.393-.545.393.21-.639-.544-.393h.668l.21-.638zm3.797 0l.21.644h.669l-.54.393.206.633-.545-.393-.54.393.206-.639-.54-.393h.669l.205-.638zm3.803 0l.204.644h.674l-.545.393.211.633-.544-.393-.546.393.212-.639-.546-.393h.674l.206-.638zM3.803 12l.205.639h.674l-.545.392.205.645-.54-.399-.544.393.205-.639-.54-.392h.669l.21-.639zM7.6 12l.21.639h.669l-.545.392.21.645-.544-.399-.545.393.21-.639-.544-.392h.674L7.6 12zm3.802 0l.206.639h.673l-.545.392.205.645-.539-.399-.544.393.205-.639-.54-.392h.668l.211-.639zm3.797 0l.211.639h.668l-.539.392.205.645-.545-.399-.539.393.205-.639-.545-.392H15l.2-.639zm3.803 0l.205.639h.674l-.545.392.205.645-.539-.399-.545.393.205-.639-.539-.392h.668l.211-.639zM1.898 13.617l.211.639h.668l-.539.392.205.64-.544-.393-.54.392.206-.644-.545-.393h.68l.199-.633zm3.803 0l.205.639h.674l-.545.392.211.64-.545-.393-.545.392.211-.644-.545-.393h.668l.211-.633zm3.797 0l.211.639h.662l-.527.392.205.64-.545-.393-.54.392.206-.644-.545-.393H9.3l.2-.633zm3.803 0l.205.639h.674l-.545.392.21.64-.544-.393-.545.392.21-.644-.544-.393h.668l.21-.633zm3.797 0l.21.639h.669l-.54.392.206.64-.545-.393-.54.392.206-.644-.54-.393h.669l.205-.633zm3.803 0l.204.639h.674l-.545.392.211.64-.544-.393-.546.392.212-.644-.546-.393h.674l.206-.633z" fill="#fff"/></g><defs><clipPath id="clip0"><rect width="40" height="30" rx="4" fill="#fff"/></clipPath></defs></svg>