<svg width="44" height="38" fill="none" xmlns="http://www.w3.org/2000/svg"><rect opacity=".1" x="5" y="7" width="33" height="21" rx="1" fill="#12C89F"/><path fill-rule="evenodd" clip-rule="evenodd" d="M2.978 24.805a2.57 2.57 0 01.764-.408l1.293-.432V8.21c0-.569.46-1.03 1.028-1.03h30.852a1.03 1.03 0 011.028 1.03v18.54c0 .57-.46 1.03-1.028 1.03H17.07l-.686 2.06h20.53A3.088 3.088 0 0040 26.75V4.09A3.088 3.088 0 0036.915 1H6.063a3.088 3.088 0 00-3.085 3.09v20.715zm4.795 4.415L2.15 34.85a.516.516 0 000 .729l1.268 1.27c.2.201.526.201.727 0l5.622-5.631 1.927 3.473a.514.514 0 00.937-.087l3.795-11.402a.515.515 0 00-.65-.651l-11.385 3.8a.515.515 0 00-.087.939l3.468 1.93z" fill="url(#paint0_linear)"/><defs><linearGradient id="paint0_linear" x1="21" y1="1" x2="21" y2="37" gradientUnits="userSpaceOnUse"><stop stop-color="#079930"/><stop offset="1" stop-color="#13CEAC"/></linearGradient></defs></svg>