<svg width="26" height="14" fill="none" xmlns="http://www.w3.org/2000/svg"><path fill-rule="evenodd" clip-rule="evenodd" d="M3.872 3.372c.369-.487.77-1.018 1.176-1.473.266-.3.517-.546.74-.715.239-.178.378-.216.433-.216h10.083a2.258 2.258 0 01.288.205c.22.18.495.439.793.743.06.06.12.123.18.187.32-.144.652-.266.995-.364-.157-.17-.314-.337-.469-.495a11.191 11.191 0 00-.874-.817 3.19 3.19 0 00-.382-.274A.963.963 0 0016.36 0H6.221c-.385 0-.742.2-1.027.415-.3.225-.6.526-.884.846-.434.487-.87 1.064-1.243 1.556l-.176.233H1.373c-.58 0-1.054.267-1.189.732a.79.79 0 00.098.663.772.772 0 00.65.335h.114a1.962 1.962 0 00-.535.445C.201 5.59 0 6.079 0 6.584v5.718c0 .491.251.827.56 1.02.281.175.599.226.813.226h3.085c.477 0 .713-.36.807-.586.098-.235.125-.494.125-.66h-.982a.949.949 0 01-.046.279h-2.99a.603.603 0 01-.288-.078.211.211 0 01-.073-.07.247.247 0 01-.03-.13v-5.72c0-.257.108-.53.283-.737.177-.21.38-.303.55-.303.14 0 .347-.033.537-.152a.821.821 0 00.394-.714.769.769 0 00-.347-.66h.981l.148-.19.345-.455zm-2.759.707l.006-.007-.006.007z" fill="#2158F5"/><path fill-rule="evenodd" clip-rule="evenodd" d="M14.936 4.093c-3.013.072-6.848.02-9.69-.22l-.083.964c2.649.223 6.15.287 9.08.238.204-.346.435-.674.693-.982zm-1.643 3.872h-.317l-.703.592-.702-.592H7.413v.968h3.796l1.064.897.987-.83a7.113 7.113 0 01.033-1.034zm-9.915-.897l3.092.373.12-.961-3.093-.372-.12.96zm10.471 4.503c-3.381.161-6.54-.144-10.313-.916l-.2.948c4.024.822 7.378 1.126 11.01.91a7.203 7.203 0 01-.497-.942z" fill="#2158F5"/><circle cx="20" cy="8" r="5.5" stroke="#2158F5"/><path d="M20.79 9.504c0-.214-.06-.383-.18-.508-.118-.128-.318-.245-.602-.351a7.456 7.456 0 01-.735-.317 2.473 2.473 0 01-.53-.363 1.517 1.517 0 01-.345-.485 1.642 1.642 0 01-.12-.66c0-.44.14-.8.421-1.082.281-.281.655-.445 1.121-.492V4.41h.625v.848c.461.065.822.258 1.082.578.26.318.391.73.391 1.238h-1.129c0-.312-.065-.545-.195-.699a.631.631 0 00-.516-.234c-.213 0-.379.06-.496.183-.117.12-.176.287-.176.5a.66.66 0 00.172.477c.115.12.327.242.637.367.312.125.569.243.77.355.2.11.37.235.507.375.138.138.244.297.317.477.072.177.109.384.109.621 0 .443-.138.802-.414 1.078-.276.276-.656.439-1.14.489v.777h-.622v-.774c-.534-.057-.948-.246-1.242-.566-.292-.323-.438-.751-.438-1.285h1.13c0 .31.072.548.218.715.149.164.36.246.637.246.229 0 .41-.06.543-.18a.637.637 0 00.2-.492z" fill="#2158F5"/></svg>