<svg width="38" height="38" fill="none" xmlns="http://www.w3.org/2000/svg"><path d="M17.651 25.251c-.082.09-.158.185-.228.285-.072.106-.13.22-.171.342a1.216 1.216 0 00-.114.342 2.41 2.41 0 000 .38c-.006.25.046.496.152.722a1.71 1.71 0 001.026 1.026 1.786 1.786 0 001.444 0 1.71 1.71 0 001.026-1.026 1.9 1.9 0 00.114-.722 1.9 1.9 0 00-3.249-1.349zM19 0a19 19 0 100 38 19 19 0 000-38zm0 34.2a15.2 15.2 0 110-30.4 15.2 15.2 0 010 30.4zm0-24.7a5.7 5.7 0 00-4.94 2.85 1.9 1.9 0 103.287 1.9A1.9 1.9 0 0119 13.3a1.9 1.9 0 010 3.8 1.9 1.9 0 00-1.9 1.9v1.9a1.9 1.9 0 003.8 0v-.342A5.7 5.7 0 0019 9.5z" fill="#2158F5"/></svg>