<svg width="35" height="40" fill="none" xmlns="http://www.w3.org/2000/svg"><path d="M17.143 39c-.14 0-.277-.021-.41-.063-1.229-.381-8.645-4.166-12.388-9.311C.721 24.647.797 14.169 1.172 6.719a.694.694 0 01.799-.653c.083 0 8.645 1.194 14.679-4.86a.695.695 0 01.986 0c6.034 6.068 14.582 4.86 14.679 4.86a.694.694 0 01.798.653c.375 7.45.452 17.928-3.173 22.914-3.77 5.131-11.159 8.923-12.388 9.305-.132.04-.27.062-.41.062zM2.56 7.496c-.333 7.18-.313 16.825 2.937 21.29 3.534 4.86 10.673 8.492 11.68 8.804 1.006-.312 8.144-3.958 11.679-8.804 3.215-4.444 3.236-14.089 2.902-21.29-2.284.174-9.166.209-14.582-4.86C11.692 7.719 4.804 7.69 2.561 7.496z" fill="#fff" stroke="#2158F5" stroke-width="2"/><path d="M15.428 24.571a.696.696 0 01-.5-.215l-3.639-3.722a.695.695 0 01.993-.972l3.125 3.2 6.596-7.214a.695.695 0 111.028.938l-7.09 7.756a.73.73 0 01-.5.229h-.013z" fill="#fff" stroke="#2158F5" stroke-width="2"/></svg>