<svg width="43" height="46" fill="none" xmlns="http://www.w3.org/2000/svg"><path fill-rule="evenodd" clip-rule="evenodd" d="M11.554 23.5a1.5 1.5 0 012.121-.003l5.658 5.64a1.5 1.5 0 01-2.118 2.125l-5.658-5.64a1.5 1.5 0 01-.003-2.122zM34.186.941a1.5 1.5 0 012.121-.003l5.658 5.64a1.5 1.5 0 01-2.118 2.124l-5.658-5.64a1.5 1.5 0 01-.003-2.121z" fill="#0D66CC"/><path fill-rule="evenodd" clip-rule="evenodd" d="M31.088 5.198c.077.05.15.109.218.176l5.408 5.391c.035.034.067.07.096.107.403.496.393 1.204-.045 1.64L23 26.217c-.405.404-.925.333-1.38-.013a2.102 2.102 0 01-.21-.184l-5.408-5.391a1.369 1.369 0 01-.096-.106c-.403-.496-.393-1.204.045-1.64l13.604-13.56c.405-.405 1.045-.443 1.533-.126zm7.802 9.431c1.758-1.752 1.502-4.434-.051-5.982l-5.408-5.39c-1.553-1.548-4.243-1.804-6.001-.051l-13.604 13.56c-1.758 1.753-1.502 4.434.051 5.982l5.408 5.39c.533.532 1.353 1.118 2.439 1.298a3.878 3.878 0 003.4-1.1L38.89 14.63z" fill="#7CB9FF"/><path d="M19.406 10.46c0-.935.76-1.692 1.697-1.692.938 0 1.698.757 1.698 1.692 0 .934-.76 1.692-1.698 1.692a1.695 1.695 0 01-1.697-1.692zm10.582 10.63l1.746-1.45L42.67 30.538c.442.44.442 1.154 0 1.595-.442.44-1.159.44-1.6 0L29.99 21.088z" fill="#7CB9FF"/><path fill-rule="evenodd" clip-rule="evenodd" d="M7.921 34.72a3.39 3.39 0 00-3.395 3.384v1.128H3.395A3.39 3.39 0 000 42.616V46h38.474v-3.384a3.39 3.39 0 00-3.395-3.384h-1.132v-1.128a3.39 3.39 0 00-3.394-3.384H7.92zm23.763 3.384v3.384h3.395a1.13 1.13 0 011.132 1.128v1.128H2.263v-1.128a1.13 1.13 0 011.132-1.128h3.394v-3.384a1.13 1.13 0 011.132-1.128h22.632a1.13 1.13 0 011.131 1.128z" fill="#7CB9FF"/><path d="M4.526 40.36a1.13 1.13 0 011.132-1.128h18.105a1.13 1.13 0 011.132 1.128 1.13 1.13 0 01-1.132 1.128H5.658a1.13 1.13 0 01-1.132-1.128zm24.895 0a1.13 1.13 0 011.132-1.128h4.526a1.13 1.13 0 011.132 1.128 1.13 1.13 0 01-1.132 1.128h-4.526a1.13 1.13 0 01-1.132-1.128z" fill="#7CB9FF"/></svg>