<svg width="61" height="43" fill="none" xmlns="http://www.w3.org/2000/svg"><path d="M13.364 38.866c0 .696-.228 2.089-1.137 2.089H4.273c-.758 0-2.273-.418-2.273-2.089V23.198c0-2.09 1.59-4.178 3.41-4.178.378 0 1.135-.21 1.135-1.045 0-1.044-1.136-1.044-3.409-1.044C2 16.93 2 14.84 4.273 14.84h4.545c2.273-3.133 5.682-8.356 7.955-8.356h15.909m13.636 32.381c0 .696.227 2.089 1.137 2.089h7.954c.758 0 2.273-.418 2.273-2.089V23.198c0-2.09-1.591-4.178-3.41-4.178-.378 0-1.136-.21-1.136-1.045 0-1.044 1.137-1.044 3.41-1.044 1.136 0 1.136-2.09-1.137-2.09h-4.545c-2.273-3.133-6.819-8.356-7.955-8.356H27" stroke="#7CB9FF" stroke-width="3"/><path d="M12.985 17.091c11.364 1.132 28.864.905 35.228 0M8.44 23.88l7.955 1.132m37.5-1.132l-7.955 1.132m-27.273 4.525h10.227l2.273 2.262 2.273-2.262h10.227" stroke="#0D66CC" stroke-width="3"/><path d="M7.303 37.455c17.045 1.132 29.545 1.132 47.727 0" stroke="#7CB9FF" stroke-width="3"/><circle cx="47.5" cy="13.5" r="13.5" fill="#fff"/><path d="M42 14.8l3.143 3.2L53 10" stroke="#0D66CC" stroke-width="4"/></svg>