<svg width="48" height="40" fill="none" xmlns="http://www.w3.org/2000/svg"><mask id="a" fill="#fff"><path d="M37.662 6.14a1 1 0 011-1H48v9.546h-9.338a1 1 0 01-1-1V6.14z"/></mask><path d="M37.662 6.14a1 1 0 011-1H48v9.546h-9.338a1 1 0 01-1-1V6.14z" stroke="#7CB9FF" stroke-width="6" mask="url(#a)"/><mask id="b" fill="#fff"><path d="M37.662 23.763a1 1 0 011-1H48v9.546h-9.338a1 1 0 01-1-1v-7.546z"/></mask><path d="M37.662 23.763a1 1 0 011-1H48v9.546h-9.338a1 1 0 01-1-1v-7.546z" stroke="#7CB9FF" stroke-width="6" mask="url(#b)"/><rect x="1.5" y="1.5" width="45" height="34.449" rx="2.5" stroke="#7CB9FF" stroke-width="3"/><path d="M15.684 18.647c0 2.354-1.921 4.28-4.316 4.28-2.394 0-4.315-1.926-4.315-4.28 0-2.353 1.921-4.28 4.315-4.28 2.395 0 4.316 1.927 4.316 4.28z" stroke="#0D66CC" stroke-width="4"/><path d="M5.053 6.087a1.26 1.26 0 011.263-1.256 1.26 1.26 0 011.263 1.256 1.26 1.26 0 01-1.263 1.256 1.26 1.26 0 01-1.263-1.256zm0 25.121a1.26 1.26 0 011.263-1.256 1.26 1.26 0 011.263 1.256 1.26 1.26 0 01-1.263 1.256 1.26 1.26 0 01-1.263-1.256zM24 17.391a1.26 1.26 0 011.263 1.256A1.26 1.26 0 0124 19.903h-7.579a1.26 1.26 0 01-1.263-1.256 1.26 1.26 0 011.263-1.256H24z" fill="#0D66CC"/><rect x="5.053" y="34.976" width="7.579" height="5.024" rx="1" fill="#7CB9FF"/><rect x="35.369" y="34.976" width="7.579" height="5.024" rx="1" fill="#7CB9FF"/></svg>