<svg width="56" height="49" fill="none" xmlns="http://www.w3.org/2000/svg"><path d="M15 27.5V20h25v8l-11.735-4.5L15 27.5z" stroke="#7CB9FF" stroke-width="3"/><path d="M48 43.097c-.223.502-.483.982-.779 1.434a7.247 7.247 0 01-1.02 1.25c-.37.362-.786.66-1.234.883A3.256 3.256 0 0143.49 47a5.927 5.927 0 01-1.907-.274 5.167 5.167 0 01-1.423-.727c-.41-.305-.787-.61-1.128-.915a22.18 22.18 0 01-.994-.945 2.945 2.945 0 00-1.047-.702 5.625 5.625 0 00-1.235-.305 2.68 2.68 0 00-1.235.273 4.93 4.93 0 00-1.02.703c-.323.284-.645.59-.966.915a7.096 7.096 0 01-1.129.916c-.45.29-.93.519-1.427.685a6.48 6.48 0 01-1.96.306 6.022 6.022 0 01-1.932-.274 6.276 6.276 0 01-2.551-1.616 9.194 9.194 0 00-.994-.915 8.048 8.048 0 00-1.02-.703 2.809 2.809 0 00-1.232-.305 2.797 2.797 0 00-1.238.274c-.367.188-.71.433-1.02.727-.322.305-.654.61-.993.915-.34.305-.716.62-1.129.945a3.85 3.85 0 01-1.45.702 11.73 11.73 0 01-1.907.305 3.598 3.598 0 01-1.493-.305 3.767 3.767 0 01-1.207-.884 10.633 10.633 0 01-.994-1.25 9.13 9.13 0 01-.807-1.453L8 43" stroke="#0D66CC" stroke-width="3"/><path d="M54 42.998h-4.116l4.114-12.34-6.933-2.27V15.666H42.95l-3.466-6.832H33.2V2H22.798v6.841h-6.283l-3.466 6.833H8.933v12.723L2 30.667 6.116 43H2" stroke="#7CB9FF" stroke-width="3"/></svg>