<svg width="105" height="30" fill="none" xmlns="http://www.w3.org/2000/svg"><g clip-path="url(#clip0_2_150)"><path opacity=".25" fill-rule="evenodd" clip-rule="evenodd" d="M37.843 23.944l-.708-.509c-3.421-2.458-7.323-1.904-11.5-1.286l-.087.013c-4.07.603-8.405 1.245-12.212-1.491l-.257-.185L15.75 3.58l.708.509c3.42 2.458 7.323 1.904 11.5 1.286l.086-.013c4.07-.603 8.406-1.245 12.213 1.491l.257.185-2.672 16.907zm-.393-.917L39.942 7.26c-3.628-2.607-7.764-1.994-11.9-1.382-3.953.585-7.905 1.17-11.414-1.054a10.056 10.056 0 01-.485-.328L13.65 20.263c3.628 2.607 7.764 1.994 11.9 1.382 3.953-.586 7.905-1.17 11.414 1.054.163.103.325.213.485.328z" fill="#000"/><g filter="url(#filter0_d_2_150)"><path d="M37.45 23.027c-7.255-5.214-16.544 2.45-23.8-2.764l2.492-15.767c7.255 5.214 16.545-2.45 23.8 2.764L37.45 23.027z" fill="#FFD600"/></g><path d="M35.67 5.514c-6.397-1.047-13.62 3.12-19.525-1.054l-.605 3.83-.02.126-.625 3.957c7.249 5.252 16.56-2.5 23.81 2.752l.62-3.931.022-.139.603-3.817c-1.362-.964-2.801-1.482-4.278-1.724z" fill="#005BBC"/><path opacity=".45" d="M37.45 23.027c-7.255-5.214-16.544 2.45-23.8-2.764l2.492-15.767c7.255 5.214 16.545-2.45 23.8 2.764L37.45 23.027z" fill="url(#paint0_linear_2_150)"/><path opacity=".5" transform="matrix(.98163 .1908 -.19765 .98027 5.924 -1.013)" fill="url(#paint1_linear_2_150)" d="M0 0h.999v32H0z"/><path d="M48.817 9.093H47.39l.115-.692 1.155.004c.182 0 .354-.028.518-.083a1.04 1.04 0 00.415-.265.854.854 0 00.21-.472c.024-.182.004-.327-.057-.435a.508.508 0 00-.276-.235 1.228 1.228 0 00-.442-.079l-.951-.004-.837 4.749h-.943l.97-5.505 1.784.004c.238.005.463.035.676.09.212.054.398.137.556.25.161.114.284.262.368.446.087.182.122.405.104.67a1.23 1.23 0 01-.26.706 1.51 1.51 0 01-.588.431c-.235.099-.483.16-.744.186l-.346.234zm-.464 2.488H46.63l.553-.753 1.197.004c.192 0 .37-.033.533-.098a.993.993 0 00.407-.295.977.977 0 00.207-.492.949.949 0 00-.03-.442.533.533 0 00-.234-.291.885.885 0 00-.438-.117l-1.105-.004.13-.692 1.328.004.161.26c.24.024.447.092.618.205.174.11.303.258.387.442.087.184.123.396.108.635-.028.379-.142.689-.341.93-.2.242-.455.421-.764.537-.31.114-.64.17-.994.167zm4.125-5.505h.802l.817 4.238 2.31-4.238h.875l-3.04 5.505h-.667l-1.097-5.505zm-.4 0h.799l-.51 3.709-.319 1.796h-.94l.97-5.505zm4.762 0h.806l-.97 5.505h-.94l.333-1.875.771-3.63zm4.628 4.752l-.135.753h-2.881l.13-.753h2.886zM59.69 6.076l-.97 5.505h-.944l.97-5.505h.944zm1.83 2.299l-.13.74h-2.51l.135-.74h2.505zm.76-2.299l-.134.756h-2.862l.138-.756h2.858zm3.308 3.716l.921-.01a2.162 2.162 0 01-.425 1.016c-.22.282-.497.5-.83.65a2.5 2.5 0 01-1.097.208c-.365-.007-.672-.087-.92-.238a1.643 1.643 0 01-.584-.597 2.412 2.412 0 01-.28-.832 3.33 3.33 0 010-.93l.065-.457c.052-.338.145-.665.28-.98.136-.315.313-.596.53-.843.22-.247.48-.44.783-.578a2.281 2.281 0 011.024-.2c.392.007.72.092.986.253.269.159.475.38.618.661.143.283.221.61.234.983l-.932-.003a1.7 1.7 0 00-.092-.579.801.801 0 00-.296-.4c-.138-.099-.327-.152-.568-.16a1.284 1.284 0 00-.675.148c-.19.106-.35.25-.48.431a2.321 2.321 0 00-.303.605c-.074.22-.128.437-.16.654l-.07.469a4.202 4.202 0 00-.038.586c0 .209.025.407.076.593a.996.996 0 00.28.465c.136.121.327.186.572.193.256.01.475-.029.656-.117a1.15 1.15 0 00.453-.386c.12-.168.211-.37.272-.605zm4.574-3.716l-.967 5.505h-.936l.97-5.505h.933zm1.7 0l-.134.756H67.41l.134-.756h4.317zm3.426 4.752l-.134.753h-2.882l.13-.753h2.886zm-1.776-4.752l-.971 5.505h-.944l.97-5.505h.945zm1.83 2.299l-.13.74h-2.51l.135-.74h2.505zm.76-2.299l-.135.756h-2.862l.138-.756h2.859zm5.241 3.716l.92-.01a2.16 2.16 0 01-.425 1.016c-.22.282-.496.5-.829.65a2.5 2.5 0 01-1.097.208c-.366-.007-.673-.087-.921-.238a1.642 1.642 0 01-.583-.597 2.412 2.412 0 01-.28-.832 3.33 3.33 0 010-.93l.065-.457c.05-.338.144-.665.28-.98.135-.315.312-.596.53-.843A2.281 2.281 0 0180.81 6c.39.008.72.093.986.254.268.159.474.38.617.661.144.283.222.61.234.983l-.932-.003c0-.217-.03-.41-.092-.579a.801.801 0 00-.296-.4c-.138-.099-.327-.152-.567-.16a1.284 1.284 0 00-.676.148c-.189.106-.349.25-.48.431a2.321 2.321 0 00-.302.605c-.075.22-.128.437-.162.654l-.069.469a4.218 4.218 0 00-.038.586c0 .209.026.407.077.593a.997.997 0 00.28.465c.135.121.326.186.572.193.255.01.474-.029.656-.117a1.15 1.15 0 00.453-.386c.12-.168.21-.37.272-.605zM47.275 21.078l2.839-5.071h1.535l-3.804 6.443a5.353 5.353 0 01-.411.627 2.851 2.851 0 01-.488.49 1.852 1.852 0 01-.598.32c-.219.075-.47.113-.75.113-.1 0-.2-.004-.302-.01a8.215 8.215 0 01-.296-.028l.12-1.075a3.043 3.043 0 00.429.038 1.07 1.07 0 00.849-.383c.102-.123.195-.261.28-.416l.597-1.048zm-.603-5.071l1.195 4.412.131 1.356-1.003.043-1.72-5.811h1.397zm7.318 0l-1.387 7.863H51.26l1.386-7.863h1.343zm4.697 0l-3.936 4.482h-1.93l.028-1.177h1.277l2.84-3.305h1.72zm-2.752 7.863l-1.907-3.65.997-.989 2.44 4.64h-1.53zm5.855-2.927l-2.095-.005.192-1.075 1.946.005c.303 0 .581-.05.833-.15.256-.105.466-.26.63-.465a1.5 1.5 0 00.313-.783c.04-.267.02-.5-.06-.703a.972.972 0 00-.395-.48 1.342 1.342 0 00-.69-.195l-1.672-.005-1.195 6.783h-1.349l1.387-7.863 2.867.005c.493.011.933.116 1.32.314.388.194.684.471.889.831.208.36.29.794.246 1.302-.047.565-.222 1.033-.526 1.404-.3.367-.681.64-1.145.816a4.174 4.174 0 01-1.497.264zm6.796-3.818l-3.48 6.745h-1.459l4.298-7.863h.937l-.296 1.118zm.756 6.745l-1.129-6.891.083-.972h.871l1.54 7.863h-1.365zm.39-2.916l-.192 1.075h-4.22l.191-1.075h4.22zm3.59.626l4.374-5.573h1.381L77.69 23.87h-1.343l.987-5.579-4.368 5.58h-1.382l1.387-7.864h1.337l-.986 5.573zm11.888-2.29l-.191 1.075h-4.122l.192-1.074h4.122zm-3.2-3.283l-1.387 7.863h-1.349l1.387-7.863h1.349zm4.801 0l-1.386 7.863h-1.332l1.38-7.863h1.338zm7.099 3.705l-.055.427a5.854 5.854 0 01-.406 1.442c-.194.46-.45.874-.767 1.242-.314.363-.69.65-1.13.858-.438.21-.937.308-1.496.297-.533-.01-.983-.127-1.348-.35a2.425 2.425 0 01-.86-.886 3.631 3.631 0 01-.412-1.221 4.889 4.889 0 01-.016-1.366l.06-.427c.073-.493.208-.97.406-1.431.197-.461.455-.873.773-1.237a3.442 3.442 0 011.134-.864c.439-.209.936-.308 1.491-.297.537.01.987.128 1.348.35.366.22.65.514.855.881.209.367.346.774.412 1.22.065.447.07.9.01 1.362zm-1.404.443l.06-.449c.034-.27.048-.558.044-.864a3.09 3.09 0 00-.131-.875 1.438 1.438 0 00-.428-.68c-.197-.177-.478-.272-.844-.286a1.8 1.8 0 00-.986.221 2.16 2.16 0 00-.702.643 3.61 3.61 0 00-.455.89 5.26 5.26 0 00-.23.957l-.06.448a5.862 5.862 0 00-.05.864c.008.31.053.603.137.88.084.278.227.508.428.692.2.18.48.275.838.286.384.014.715-.06.993-.221.277-.162.511-.378.701-.649.19-.27.34-.567.45-.89a4.97 4.97 0 00.235-.967zm3.739 1.425l4.374-5.573H102l-1.387 7.863H99.27l.987-5.579-4.369 5.58h-1.38l1.386-7.864h1.337l-.986 5.573zm3.798-7.582l.954-.011a1.597 1.597 0 01-.291.837c-.168.23-.387.405-.657.524a2.048 2.048 0 01-.888.167c-.468-.007-.854-.145-1.157-.415-.303-.27-.455-.641-.455-1.113l.96.005c-.012.224.034.407.136.551.103.14.276.213.521.216.249.004.446-.065.592-.205.146-.144.241-.33.285-.556z" opacity=".6" fill="#fff"/></g><defs><linearGradient id="paint0_linear_2_150" x1="14.963" y1="11.957" x2="42.98" y2="16.384" gradientUnits="userSpaceOnUse"><stop stop-color="#fff" stop-opacity=".667"/><stop offset=".241" stop-color="#D7D7D7" stop-opacity=".219"/><stop offset=".459" stop-color="#4D4D4D" stop-opacity="0"/><stop offset=".719" stop-color="#fff" stop-opacity=".51"/><stop offset=".874" stop-color="#F2F2F2" stop-opacity=".4"/><stop offset="1" stop-color="#fff" stop-opacity=".624"/></linearGradient><linearGradient id="paint1_linear_2_150" x1=".5" y1="0" x2=".5" y2="32" gradientUnits="userSpaceOnUse"><stop stop-color="#fff" stop-opacity="0"/><stop offset=".495" stop-color="#fff"/><stop offset="1" stop-color="#fff" stop-opacity="0"/></linearGradient><clipPath id="clip0_2_150"><path fill="#fff" d="M0 0h105v30H0z"/></clipPath><filter id="filter0_d_2_150" x="8.651" y=".496" width="36.29" height="28.531" filterUnits="userSpaceOnUse" color-interpolation-filters="sRGB"><feFlood flood-opacity="0" result="BackgroundImageFix"/><feColorMatrix in="SourceAlpha" values="0 0 0 0 0 0 0 0 0 0 0 0 0 0 0 0 0 0 127 0" result="hardAlpha"/><feOffset dy="1"/><feGaussianBlur stdDeviation="2.5"/><feColorMatrix values="0 0 0 0 0 0 0 0 0 0 0 0 0 0 0 0 0 0 0.2 0"/><feBlend in2="BackgroundImageFix" result="effect1_dropShadow_2_150"/><feBlend in="SourceGraphic" in2="effect1_dropShadow_2_150" result="shape"/></filter></defs></svg>