<svg width="105" height="30" fill="none" xmlns="http://www.w3.org/2000/svg"><g clip-path="url(#clip0_2_160)"><path opacity=".25" fill-rule="evenodd" clip-rule="evenodd" d="M37.843 23.944l-.708-.509c-3.421-2.458-7.323-1.904-11.5-1.286l-.087.013c-4.07.603-8.405 1.245-12.212-1.491l-.257-.185L15.75 3.58l.708.509c3.42 2.458 7.323 1.904 11.5 1.286l.086-.013c4.07-.603 8.406-1.245 12.213 1.491l.257.185-2.672 16.907zm-.393-.917L39.942 7.26c-3.628-2.607-7.764-1.994-11.9-1.382-3.953.585-7.905 1.17-11.414-1.054a10.056 10.056 0 01-.485-.328L13.65 20.263c3.628 2.607 7.764 1.994 11.9 1.382 3.953-.586 7.905-1.17 11.414 1.054.163.103.325.213.485.328z" fill="#000"/><g filter="url(#filter0_d_2_160)"><path d="M37.45 23.027c-7.255-5.214-16.544 2.45-23.8-2.764l2.492-15.767c7.255 5.214 16.545-2.45 23.8 2.764L37.45 23.027z" fill="#FFD600"/></g><path d="M35.67 5.514c-6.397-1.047-13.62 3.12-19.525-1.054l-.605 3.83-.02.126-.625 3.957c7.249 5.252 16.56-2.5 23.81 2.752l.62-3.931.022-.139.603-3.817c-1.362-.964-2.801-1.482-4.278-1.724z" fill="#005BBC"/><path opacity=".45" d="M37.45 23.027c-7.255-5.214-16.544 2.45-23.8-2.764l2.492-15.767c7.255 5.214 16.545-2.45 23.8 2.764L37.45 23.027z" fill="url(#paint0_linear_2_160)"/><path opacity=".5" transform="matrix(.98163 .1908 -.19765 .98027 5.924 -1.013)" fill="url(#paint1_linear_2_160)" d="M0 0h.999v32H0z"/><path d="M48.812 9.534l-1.487-.004.136-.752 1.383.004c.215 0 .412-.035.591-.106a1.09 1.09 0 00.448-.325c.12-.143.194-.326.222-.548a.922.922 0 00-.043-.491.683.683 0 00-.28-.337.964.964 0 00-.49-.136l-1.188-.004-.85 4.748h-.957l.985-5.503 2.037.003c.35.008.663.08.938.22.275.136.485.33.63.582.149.252.207.555.176.91-.034.396-.158.724-.374.983a1.899 1.899 0 01-.814.571c-.33.124-.684.185-1.063.185zm4.828-2.672l-2.472 4.721h-1.036l3.053-5.503h.666l-.21.782zm.538 4.721l-.802-4.823.059-.68h.619l1.094 5.503h-.97zm.277-2.041l-.137.752H51.32l.136-.752h2.999zm3.738-.594l-.822-.003.098-.54.607.003c.195 0 .376-.03.545-.09a1 1 0 00.425-.28.898.898 0 00.21-.496c.023-.179-.004-.326-.082-.442a.683.683 0 00-.327-.26 1.251 1.251 0 00-.463-.091 1.313 1.313 0 00-.499.086c-.155.061-.29.152-.4.273a.88.88 0 00-.215.438l-.95.004c.023-.26.099-.486.226-.68.13-.197.294-.36.494-.488.2-.129.42-.224.658-.287a2.678 2.678 0 011.433.007c.224.06.42.154.592.28.172.123.303.28.394.472.09.192.125.421.105.688a1.19 1.19 0 01-.222.632 1.56 1.56 0 01-.491.438 2.41 2.41 0 01-.642.253 2.85 2.85 0 01-.674.083zm-.76-.332l.71.004c.222.005.44.034.653.087.213.05.401.13.565.241.166.109.293.251.382.428.09.173.127.386.109.638a1.479 1.479 0 01-.238.745c-.14.21-.32.382-.541.518-.218.133-.46.232-.724.295a3.114 3.114 0 01-.79.087 2.48 2.48 0 01-.71-.114 1.785 1.785 0 01-.58-.306 1.35 1.35 0 01-.385-.499 1.528 1.528 0 01-.125-.688l.946.004a.778.778 0 00.105.454.794.794 0 00.32.287c.137.068.294.106.471.113.197.003.39-.028.576-.09.19-.066.352-.166.487-.3a.857.857 0 00.245-.506.901.901 0 00-.023-.381.54.54 0 00-.164-.265.753.753 0 00-.288-.159 1.484 1.484 0 00-.385-.06l-.713-.004.098-.53zm7.944.056l-.039.3a4.046 4.046 0 01-.288 1.008 3.25 3.25 0 01-.545.87c-.223.254-.49.455-.802.6a2.366 2.366 0 01-1.063.209c-.38-.008-.699-.09-.958-.246a1.71 1.71 0 01-.611-.62 2.516 2.516 0 01-.293-.854 3.371 3.371 0 01-.011-.957l.043-.298a3.99 3.99 0 01.288-1.002c.14-.322.323-.61.549-.865.226-.257.494-.459.806-.605a2.356 2.356 0 011.059-.208c.382.007.7.09.958.246.26.153.462.359.607.616.148.257.246.542.292.854.047.312.05.63.008.952zm-.997.31l.043-.313c.023-.19.034-.39.031-.605a2.13 2.13 0 00-.093-.612 1.005 1.005 0 00-.304-.477c-.14-.123-.34-.19-.6-.2a1.294 1.294 0 00-.7.155 1.5 1.5 0 00-.499.45 2.512 2.512 0 00-.323.623c-.078.227-.133.45-.164.67l-.043.313a4.051 4.051 0 00-.035.605c.006.217.038.422.098.616.06.194.16.355.304.484.142.126.34.193.595.2.273.01.508-.041.705-.155.197-.113.364-.264.499-.453.135-.19.241-.397.319-.624a3.45 3.45 0 00.167-.677zm2.816-2.902h.814l.829 4.237 2.344-4.237h.888l-3.084 5.503h-.678L67.196 6.08zm-.405 0h.81l-.518 3.708-.323 1.795h-.955l.986-5.503zm4.832 0h.818l-.985 5.503h-.954l.338-1.875.783-3.628zm5.331 2.868l-.822-.003.098-.54.607.003c.195 0 .376-.03.545-.09a1 1 0 00.425-.28.898.898 0 00.21-.496c.023-.179-.004-.326-.082-.442a.683.683 0 00-.327-.26 1.251 1.251 0 00-.463-.091 1.312 1.312 0 00-.499.086 1.05 1.05 0 00-.4.273.88.88 0 00-.215.438l-.95.004c.023-.26.099-.486.226-.68.13-.197.294-.36.494-.488.2-.129.42-.224.658-.287a2.678 2.678 0 011.433.007c.224.06.42.154.592.28.172.123.303.28.393.472.091.192.126.421.106.688a1.19 1.19 0 01-.222.632 1.56 1.56 0 01-.491.438 2.41 2.41 0 01-.642.253 2.85 2.85 0 01-.674.083zm-.76-.332l.71.004c.222.005.44.034.653.087.213.05.401.13.565.241.166.109.293.251.382.428.09.173.127.386.109.638a1.479 1.479 0 01-.238.745c-.14.21-.32.382-.541.518-.218.133-.46.232-.724.295a3.114 3.114 0 01-.79.087 2.48 2.48 0 01-.71-.114 1.785 1.785 0 01-.58-.306 1.35 1.35 0 01-.385-.499 1.528 1.528 0 01-.125-.688l.946.004a.778.778 0 00.106.454.785.785 0 00.319.287c.137.068.294.106.471.113.197.003.39-.028.576-.09.19-.066.352-.166.487-.3a.857.857 0 00.245-.506.901.901 0 00-.023-.381.54.54 0 00-.164-.265.753.753 0 00-.288-.159 1.484 1.484 0 00-.385-.06l-.713-.004.098-.53zM47.309 21.079l2.881-5.07h1.558l-3.86 6.441a5.42 5.42 0 01-.418.627 2.872 2.872 0 01-.495.491 1.9 1.9 0 01-.607.319 2.364 2.364 0 01-.762.113 5.327 5.327 0 01-.606-.038l.122-1.074c.067.01.138.02.212.027a2.3 2.3 0 00.222.01c.193 0 .358-.034.495-.102a1.15 1.15 0 00.367-.28c.104-.123.199-.262.284-.417l.607-1.047zm-.612-5.07l1.212 4.411.134 1.355-1.018.044-1.747-5.81h1.419zm7.426-.001l-1.407 7.862h-1.363l1.407-7.862h1.363zm4.767 0l-3.994 4.482h-1.958l.028-1.177h1.296l2.882-3.305h1.746zm-2.792 7.862l-1.936-3.65 1.012-.988 2.476 4.638h-1.552zm5.941-2.926l-2.125-.006.194-1.074 1.975.005c.308 0 .59-.05.846-.151.26-.104.473-.26.64-.464.17-.206.276-.467.317-.783.04-.267.02-.5-.062-.702a.976.976 0 00-.4-.48c-.185-.12-.42-.184-.701-.195l-1.697-.006-1.212 6.782h-1.369l1.408-7.862 2.909.006c.5.01.947.115 1.34.313.394.194.694.471.902.831.211.36.294.794.25 1.302-.048.565-.226 1.033-.534 1.404a2.713 2.713 0 01-1.163.815 4.295 4.295 0 01-1.518.265zm6.898-3.818l-3.533 6.744h-1.48l4.362-7.862h.951l-.3 1.118zm.767 6.744l-1.146-6.89.084-.972h.884l1.563 7.862h-1.385zm.395-2.916l-.195 1.075h-4.283l.195-1.075h4.283zm4.751-4.946l-1.408 7.862H72.08l1.407-7.862h1.363zm-2.398-1.23c0-.184.065-.337.195-.46a.705.705 0 01.478-.189.687.687 0 01.479.168.58.58 0 01.206.448.597.597 0 01-.2.459.696.696 0 01-.474.183.699.699 0 01-.478-.167.575.575 0 01-.206-.443zm2.504.005a.587.587 0 01.189-.46.691.691 0 01.478-.188.686.686 0 01.478.167.563.563 0 01.206.454.564.564 0 01-.194.453.717.717 0 01-.479.184.692.692 0 01-.473-.162.58.58 0 01-.206-.448zm6.18 4.508l-.195 1.075h-4.183l.195-1.075h4.183zm-3.249-3.283L76.48 23.87h-1.37l1.408-7.862h1.368zm4.873 0l-1.407 7.862H80l1.402-7.862h1.357zm7.204 3.705l-.056.426a5.783 5.783 0 01-.411 1.442 4.62 4.62 0 01-.78 1.242c-.318.363-.7.65-1.145.858-.445.21-.951.308-1.519.297-.541-.01-.997-.127-1.368-.35a2.443 2.443 0 01-.874-.886 3.597 3.597 0 01-.417-1.22 4.817 4.817 0 01-.017-1.367l.062-.426a5.71 5.71 0 01.411-1.431c.2-.46.462-.873.785-1.237a3.49 3.49 0 011.151-.864c.445-.208.95-.307 1.513-.297.545.011 1.002.128 1.369.351.37.22.66.513.867.88.212.368.351.774.418 1.22.066.447.07.9.01 1.362zm-1.424.442l.061-.448c.033-.27.048-.558.044-.864a3.046 3.046 0 00-.133-.875 1.436 1.436 0 00-.434-.68c-.2-.176-.486-.272-.857-.286a1.849 1.849 0 00-1 .221 2.18 2.18 0 00-.713.643c-.193.27-.347.567-.462.89-.11.325-.189.643-.233.957l-.062.448a5.788 5.788 0 00-.05.864c.008.31.054.603.14.88.085.277.23.508.433.691.204.18.488.276.852.286.389.015.725-.06 1.006-.221.282-.162.52-.378.712-.648.193-.27.345-.567.457-.891a4.93 4.93 0 00.239-.967zm4.878-4.147l-1.407 7.862h-1.363l1.407-7.862h1.363zm.974 3.537l-.134 1.037H92.24l.128-1.037h2.025zm5.863.168l-.061.426a5.639 5.639 0 01-.406 1.442c-.197.46-.456.875-.78 1.242-.318.363-.7.65-1.145.858-.445.21-.951.308-1.519.297-.545-.01-1.003-.127-1.374-.35a2.456 2.456 0 01-.867-.886 3.593 3.593 0 01-.418-1.22 4.81 4.81 0 01-.016-1.367l.06-.426c.075-.493.212-.97.412-1.431.2-.46.462-.873.785-1.237a3.49 3.49 0 011.151-.864c.445-.208.95-.307 1.513-.297.546.011 1.002.128 1.369.351.37.22.66.513.868.88.211.368.35.774.417 1.22.067.447.07.9.011 1.362zm-1.424.442l.061-.448c.034-.27.048-.558.045-.864a3.046 3.046 0 00-.134-.875 1.435 1.435 0 00-.434-.68c-.2-.176-.484-.272-.85-.286-.387-.014-.722.06-1.008.221a2.187 2.187 0 00-.712.643 3.59 3.59 0 00-.462.89c-.11.325-.189.643-.233.957l-.061.448a5.775 5.775 0 00-.05.864c.003.31.048.603.133.88s.23.508.434.691c.204.18.49.276.857.286.39.015.725-.06 1.007-.221a2.18 2.18 0 00.706-.648 3.44 3.44 0 00.456-.891c.115-.324.197-.646.245-.967z" opacity=".6" fill="#fff"/></g><defs><linearGradient id="paint0_linear_2_160" x1="14.963" y1="11.957" x2="42.98" y2="16.384" gradientUnits="userSpaceOnUse"><stop stop-color="#fff" stop-opacity=".667"/><stop offset=".241" stop-color="#D7D7D7" stop-opacity=".219"/><stop offset=".459" stop-color="#4D4D4D" stop-opacity="0"/><stop offset=".719" stop-color="#fff" stop-opacity=".51"/><stop offset=".874" stop-color="#F2F2F2" stop-opacity=".4"/><stop offset="1" stop-color="#fff" stop-opacity=".624"/></linearGradient><linearGradient id="paint1_linear_2_160" x1=".5" y1="0" x2=".5" y2="32" gradientUnits="userSpaceOnUse"><stop stop-color="#fff" stop-opacity="0"/><stop offset=".495" stop-color="#fff"/><stop offset="1" stop-color="#fff" stop-opacity="0"/></linearGradient><clipPath id="clip0_2_160"><path fill="#fff" d="M0 0h105v30H0z"/></clipPath><filter id="filter0_d_2_160" x="8.651" y=".496" width="36.29" height="28.531" filterUnits="userSpaceOnUse" color-interpolation-filters="sRGB"><feFlood flood-opacity="0" result="BackgroundImageFix"/><feColorMatrix in="SourceAlpha" values="0 0 0 0 0 0 0 0 0 0 0 0 0 0 0 0 0 0 127 0" result="hardAlpha"/><feOffset dy="1"/><feGaussianBlur stdDeviation="2.5"/><feColorMatrix values="0 0 0 0 0 0 0 0 0 0 0 0 0 0 0 0 0 0 0.2 0"/><feBlend in2="BackgroundImageFix" result="effect1_dropShadow_2_160"/><feBlend in="SourceGraphic" in2="effect1_dropShadow_2_160" result="shape"/></filter></defs></svg>