<svg width="105" height="30" fill="none" xmlns="http://www.w3.org/2000/svg"><g clip-path="url(#clip0_2_149)"><path opacity=".25" fill-rule="evenodd" clip-rule="evenodd" d="M37.843 23.944l-.708-.509c-3.421-2.458-7.323-1.904-11.5-1.286l-.087.013c-4.07.603-8.405 1.245-12.212-1.491l-.257-.185L15.75 3.58l.708.509c3.42 2.458 7.323 1.904 11.5 1.286l.086-.013c4.07-.603 8.406-1.245 12.213 1.491l.257.185-2.672 16.907zm-.393-.917L39.942 7.26c-3.628-2.607-7.764-1.994-11.9-1.382-3.953.585-7.905 1.17-11.414-1.054a10.056 10.056 0 01-.485-.328L13.65 20.263c3.628 2.607 7.764 1.994 11.9 1.382 3.953-.586 7.905-1.17 11.414 1.054.163.103.325.213.485.328z" fill="#000"/><g filter="url(#filter0_d_2_149)"><path d="M37.45 23.027c-7.255-5.214-16.544 2.45-23.8-2.764l2.492-15.767c7.255 5.214 16.545-2.45 23.8 2.764L37.45 23.027z" fill="#FFD600"/></g><path d="M35.67 5.514c-6.397-1.047-13.62 3.12-19.525-1.054l-.605 3.83-.02.126-.625 3.957c7.249 5.252 16.56-2.5 23.81 2.752l.62-3.931.022-.139.603-3.817c-1.362-.964-2.801-1.482-4.278-1.724z" fill="#005BBC"/><path opacity=".45" d="M37.45 23.027c-7.255-5.214-16.544 2.45-23.8-2.764l2.492-15.767c7.255 5.214 16.545-2.45 23.8 2.764L37.45 23.027z" fill="url(#paint0_linear_2_149)"/><path opacity=".5" transform="matrix(.98163 .1908 -.19765 .98027 5.924 -1.013)" fill="url(#paint1_linear_2_149)" d="M0 0h.999v32H0z"/><path d="M48.807 9.534L47.32 9.53l.137-.752 1.383.004c.215 0 .412-.035.592-.106a1.09 1.09 0 00.448-.325 1.04 1.04 0 00.221-.548.922.922 0 00-.042-.491.683.683 0 00-.28-.337.964.964 0 00-.492-.136l-1.188-.004-.849 4.748h-.958l.986-5.503 2.037.003c.35.008.663.08.938.22.276.136.486.33.631.582.148.252.207.555.176.91-.034.396-.159.724-.374.983a1.9 1.9 0 01-.814.571c-.33.124-.684.185-1.064.185zm4.83-2.672l-2.473 4.721h-1.036L53.18 6.08h.666l-.21.782zm.538 4.721l-.803-4.823.059-.68h.619l1.095 5.503h-.97zm.276-2.041l-.136.752h-3l.137-.752h3zm3.739-.594l-.821-.003.097-.54.608.003c.194 0 .376-.03.545-.09a1 1 0 00.425-.28.898.898 0 00.21-.496c.023-.179-.004-.326-.082-.442a.684.684 0 00-.327-.26 1.252 1.252 0 00-.464-.091 1.313 1.313 0 00-.498.086 1.06 1.06 0 00-.401.273.88.88 0 00-.215.438l-.95.004c.023-.26.099-.486.226-.68.13-.197.295-.36.495-.488.2-.129.419-.224.658-.287a2.68 2.68 0 011.433.007c.224.06.42.154.592.28.172.123.303.28.394.472.09.192.125.421.105.688a1.189 1.189 0 01-.222.632 1.56 1.56 0 01-.491.438 2.412 2.412 0 01-.643.253 2.851 2.851 0 01-.674.083zm-.76-.332l.71.004c.223.005.441.034.654.087.213.05.401.13.565.241.166.109.293.251.382.428.09.173.127.386.109.638a1.479 1.479 0 01-.238.745c-.14.21-.32.382-.541.518-.218.133-.46.232-.725.295a3.115 3.115 0 01-.79.087 2.48 2.48 0 01-.71-.114 1.784 1.784 0 01-.58-.306 1.35 1.35 0 01-.385-.499 1.527 1.527 0 01-.125-.688l.947.004a.779.779 0 00.105.454.788.788 0 00.32.287c.137.068.294.106.47.113.198.003.39-.028.577-.09.19-.066.352-.166.487-.3a.857.857 0 00.245-.506.901.901 0 00-.023-.381.54.54 0 00-.164-.265.753.753 0 00-.288-.159 1.484 1.484 0 00-.386-.06l-.712-.004.097-.53zm6.038-1.754l-2.473 4.721h-1.036l3.053-5.503h.666l-.21.782zm.538 4.721l-.803-4.823.059-.68h.62l1.094 5.503h-.97zm.276-2.041l-.136.752h-3l.137-.752h3zm2.711-3.462h.814l.83 4.237 2.345-4.237h.888l-3.085 5.503h-.678L66.993 6.08zm-.405 0h.81l-.518 3.708-.323 1.795h-.954l.985-5.503zm4.834 0h.818l-.986 5.503H70.3l.339-1.875.783-3.628zm5.332 2.868l-.822-.003.098-.54.607.003c.195 0 .377-.03.546-.09a1 1 0 00.424-.28.898.898 0 00.21-.496c.024-.179-.003-.326-.081-.442a.683.683 0 00-.328-.26 1.252 1.252 0 00-.463-.091 1.313 1.313 0 00-.499.086 1.06 1.06 0 00-.4.273.879.879 0 00-.215.438l-.95.004c.023-.26.098-.486.225-.68.13-.197.295-.36.495-.488.2-.129.42-.224.658-.287a2.68 2.68 0 011.434.007c.223.06.42.154.592.28.171.123.302.28.393.472.091.192.126.421.105.688a1.19 1.19 0 01-.222.632c-.127.176-.29.322-.49.438a2.412 2.412 0 01-.643.253 2.851 2.851 0 01-.674.083zm-.76-.332l.71.004c.223.005.44.034.654.087.213.05.401.13.565.241.166.109.293.251.381.428.091.173.127.386.11.638a1.479 1.479 0 01-.238.745c-.14.21-.32.382-.542.518-.218.133-.46.232-.724.295a3.116 3.116 0 01-.79.087 2.48 2.48 0 01-.71-.114 1.785 1.785 0 01-.58-.306 1.35 1.35 0 01-.386-.499 1.528 1.528 0 01-.124-.688l.946.004a.778.778 0 00.105.454.794.794 0 00.32.287c.137.068.294.106.471.113.197.003.39-.028.576-.09.19-.066.352-.166.487-.3a.858.858 0 00.246-.506.902.902 0 00-.024-.381.54.54 0 00-.163-.265.754.754 0 00-.288-.159 1.484 1.484 0 00-.386-.06l-.713-.004.097-.53zM48.31 21.079l2.881-5.07h1.558l-3.861 6.441c-.13.227-.27.436-.417.627a2.87 2.87 0 01-.496.491 1.9 1.9 0 01-.606.319 2.366 2.366 0 01-.763.113 5.327 5.327 0 01-.606-.038l.122-1.074c.067.01.138.02.212.027a2.3 2.3 0 00.222.01c.193 0 .358-.034.496-.102a1.18 1.18 0 00.367-.28c.104-.123.198-.262.284-.417l.606-1.047zm-.613-5.07l1.213 4.411.134 1.355-1.019.044-1.747-5.81h1.42zm7.429-.001l-1.408 7.862h-1.364l1.408-7.862h1.364zm4.768 0L55.9 20.49h-1.96l.028-1.177h1.297l2.882-3.305h1.747zm-2.793 7.862l-1.937-3.65 1.013-.988 2.476 4.638h-1.552zm5.943-2.926l-2.126-.006.195-1.074 1.975.005c.308 0 .59-.05.846-.151.26-.104.473-.26.64-.464.17-.206.276-.467.317-.783.04-.267.02-.5-.061-.702a.975.975 0 00-.401-.48c-.186-.12-.42-.184-.701-.195l-1.697-.006-1.213 6.782h-1.37l1.409-7.862 2.91.006c.5.01.948.115 1.34.313.394.194.695.471.902.831.212.36.295.794.25 1.302-.048.565-.226 1.033-.534 1.404a2.714 2.714 0 01-1.162.815 4.297 4.297 0 01-1.52.265zm6.899-3.818L66.41 23.87h-1.48l4.362-7.862h.952l-.3 1.118zm.768 6.744l-1.146-6.89.083-.972h.885l1.564 7.862H70.71zm.395-2.916l-.195 1.075h-4.284l.195-1.075h4.284zm4.752-4.946L74.45 23.87h-1.363l1.408-7.862h1.363zm6.288 3.283l-.195 1.075h-4.184l.194-1.075h4.185zm-3.25-3.283l-1.408 7.862H76.12l1.407-7.862h1.37zm4.874 0l-1.407 7.862H81.01l1.402-7.862h1.358zm4.58 1.118l-3.533 6.744h-1.48l4.362-7.862h.951l-.3 1.118zm.768 6.744l-1.146-6.89.083-.972h.885l1.563 7.862h-1.385zm.395-2.916l-.195 1.075h-4.284l.194-1.075h4.285zm3.644.626l4.44-5.572H99l-1.408 7.862H96.23l1.002-5.578-4.435 5.578h-1.402l1.407-7.862h1.358l-1.002 5.573zM97.013 14l.969-.011a1.584 1.584 0 01-.295.837c-.17.23-.393.405-.668.524-.27.118-.571.174-.901.167-.475-.007-.867-.146-1.174-.416-.308-.27-.462-.64-.462-1.112l.974.005c-.012.223.035.407.139.551.103.14.28.212.528.216.252.004.453-.065.601-.205a1.03 1.03 0 00.29-.556z" opacity=".6" fill="#fff"/></g><defs><linearGradient id="paint0_linear_2_149" x1="14.963" y1="11.957" x2="42.98" y2="16.384" gradientUnits="userSpaceOnUse"><stop stop-color="#fff" stop-opacity=".667"/><stop offset=".241" stop-color="#D7D7D7" stop-opacity=".219"/><stop offset=".459" stop-color="#4D4D4D" stop-opacity="0"/><stop offset=".719" stop-color="#fff" stop-opacity=".51"/><stop offset=".874" stop-color="#F2F2F2" stop-opacity=".4"/><stop offset="1" stop-color="#fff" stop-opacity=".624"/></linearGradient><linearGradient id="paint1_linear_2_149" x1=".5" y1="0" x2=".5" y2="32" gradientUnits="userSpaceOnUse"><stop stop-color="#fff" stop-opacity="0"/><stop offset=".495" stop-color="#fff"/><stop offset="1" stop-color="#fff" stop-opacity="0"/></linearGradient><clipPath id="clip0_2_149"><path fill="#fff" d="M0 0h105v30H0z"/></clipPath><filter id="filter0_d_2_149" x="8.651" y=".496" width="36.29" height="28.531" filterUnits="userSpaceOnUse" color-interpolation-filters="sRGB"><feFlood flood-opacity="0" result="BackgroundImageFix"/><feColorMatrix in="SourceAlpha" values="0 0 0 0 0 0 0 0 0 0 0 0 0 0 0 0 0 0 127 0" result="hardAlpha"/><feOffset dy="1"/><feGaussianBlur stdDeviation="2.5"/><feColorMatrix values="0 0 0 0 0 0 0 0 0 0 0 0 0 0 0 0 0 0 0.2 0"/><feBlend in2="BackgroundImageFix" result="effect1_dropShadow_2_149"/><feBlend in="SourceGraphic" in2="effect1_dropShadow_2_149" result="shape"/></filter></defs></svg>