<svg width="105" height="30" fill="none" xmlns="http://www.w3.org/2000/svg"><g clip-path="url(#clip0_2_169)"><path opacity=".25" fill-rule="evenodd" clip-rule="evenodd" d="M37.843 23.944l-.708-.509c-3.421-2.458-7.323-1.904-11.5-1.286l-.087.013c-4.07.603-8.405 1.245-12.212-1.491l-.257-.185L15.75 3.58l.708.509c3.42 2.458 7.323 1.904 11.5 1.286l.086-.013c4.07-.603 8.406-1.245 12.213 1.491l.257.185-2.672 16.907zm-.393-.917L39.942 7.26c-3.628-2.607-7.764-1.994-11.9-1.382-3.953.585-7.905 1.17-11.414-1.054a10.056 10.056 0 01-.485-.328L13.65 20.263c3.628 2.607 7.764 1.994 11.9 1.382 3.953-.586 7.905-1.17 11.414 1.054.163.103.325.213.485.328z" fill="#000"/><g filter="url(#filter0_d_2_169)"><path d="M37.45 23.027c-7.255-5.214-16.544 2.45-23.8-2.764l2.492-15.767c7.255 5.214 16.545-2.45 23.8 2.764L37.45 23.027z" fill="#FFD600"/></g><path d="M35.67 5.514c-6.397-1.047-13.62 3.12-19.525-1.054l-.605 3.83-.02.126-.625 3.957c7.249 5.252 16.56-2.5 23.81 2.752l.62-3.931.022-.139.603-3.817c-1.362-.964-2.801-1.482-4.278-1.724z" fill="#005BBC"/><path opacity=".45" d="M37.45 23.027c-7.255-5.214-16.544 2.45-23.8-2.764l2.492-15.767c7.255 5.214 16.545-2.45 23.8 2.764L37.45 23.027z" fill="url(#paint0_linear_2_169)"/><path opacity=".5" transform="matrix(.98163 .1908 -.19765 .98027 5.924 -1.013)" fill="url(#paint1_linear_2_169)" d="M0 0h.999v32H0z"/><path d="M49.233 10.14a.602.602 0 00-.043-.375.678.678 0 00-.225-.257 1.43 1.43 0 00-.327-.178 12.982 12.982 0 00-.362-.136 5.268 5.268 0 01-.583-.242 2.595 2.595 0 01-.521-.333 1.39 1.39 0 01-.358-.454 1.21 1.21 0 01-.105-.617c.02-.265.097-.494.23-.689a1.7 1.7 0 01.513-.488 2.34 2.34 0 01.68-.283c.247-.063.492-.092.735-.087.345.007.653.079.922.215.27.136.481.33.634.58.153.249.223.545.21.888h-.949a.954.954 0 00-.074-.492.68.68 0 00-.295-.321 1.013 1.013 0 00-.502-.121 1.431 1.431 0 00-.517.08 1.054 1.054 0 00-.424.26.819.819 0 00-.214.458.495.495 0 00.054.34c.06.097.142.177.245.243.104.065.215.12.335.166.12.046.23.086.334.121.21.071.411.156.603.254.195.096.367.21.517.344.15.134.266.293.347.477.08.182.111.395.093.64-.023.27-.101.503-.233.7a1.61 1.61 0 01-.506.476c-.205.124-.43.215-.677.273a2.983 2.983 0 01-.747.08 2.495 2.495 0 01-.758-.122 1.894 1.894 0 01-.622-.34 1.566 1.566 0 01-.416-.55 1.628 1.628 0 01-.129-.733l.95.004a1.11 1.11 0 00.046.43.76.76 0 00.202.311.9.9 0 00.33.19c.133.042.28.064.444.064.176.005.347-.02.514-.072.168-.053.31-.136.427-.25a.776.776 0 00.222-.454zm4.784-4.064l-.98 5.51h-.95l.985-5.51h.945zm1.723 0l-.136.757h-4.376l.136-.757h4.376zm2.353.784l-2.47 4.725H54.59l3.049-5.509h.665l-.21.783zm.537 4.725l-.801-4.828.058-.68h.618l1.093 5.508h-.968zm.276-2.043l-.136.753h-2.995l.136-.753h2.995zm6.67-3.466l-.984 5.51h-.925L61.889 7.6l-.708 3.984h-.956l.983-5.509h.926l1.782 3.992.711-3.992h.95zm1.789 5.509h-1.233l.144-.753 1.117.008c.38 0 .705-.085.972-.254.27-.168.484-.394.642-.677.16-.282.268-.594.323-.934l.038-.303c.03-.215.035-.428.02-.64a1.645 1.645 0 00-.14-.586 1.008 1.008 0 00-.362-.431c-.16-.111-.374-.17-.641-.178l-1.288-.004.136-.757 1.179.004c.378.008.705.083.98.227.277.141.503.333.677.575.173.24.293.515.357.825.068.31.08.636.04.976l-.04.295a3.4 3.4 0 01-.322 1.037 2.909 2.909 0 01-.623.829 2.79 2.79 0 01-.883.549 3 3 0 01-1.093.192zm.284-5.509l-.984 5.51h-.956l.984-5.51h.956zm6.694 4.23l1.762-4.23h.583l-.237 1.143-1.863 4.366h-.61l.365-1.279zm-.14-4.23l.21 4.284-.117 1.225h-.634l-.389-5.509h.93zm3.057 4.185l1.54-4.185h.965l-2.155 5.51h-.645l.295-1.325zm-.354-4.185l.4 4.329-.026 1.18h-.592l-.45-4.45.1-1.059h.568zm4.621 0l-.984 5.51h-.953l.984-5.51h.953zm3.317 0l-.98 5.51h-.949l.984-5.51h.945zm1.724 0l-.137.757h-4.375l.136-.757h4.376zm3.943 2.301l-.136.753H87.45l.137-.753h2.924zm-2.271-2.3l-.984 5.508h-.957l.984-5.509h.957zm3.407 0l-.984 5.508h-.945l.98-5.509h.95zM50.46 16.015h1.36l-.922 5.25a3.23 3.23 0 01-.589 1.47 2.97 2.97 0 01-1.166.95c-.47.22-.999.325-1.584.314-.552-.01-1.03-.128-1.433-.351a2.174 2.174 0 01-.906-.946c-.197-.407-.261-.883-.195-1.427l.923-5.26h1.355l-.916 5.265c-.037.303-.02.577.05.822.07.241.203.436.4.584.196.148.463.225.8.232.36.011.67-.05.933-.184.267-.137.482-.331.645-.583.163-.253.27-.545.322-.876l.922-5.26zm4.183 0l-1.405 7.87H51.87l1.405-7.87h1.367zm4.762 0l-3.873 3.811-2.183 1.94.005-1.448 1.556-1.573 2.745-2.73h1.75zm-2.867 7.87l-1.956-3.783 1.05-.876 2.434 4.66h-1.528zm3.717-7.87l2.706.006c.493.01.934.1 1.323.27.392.17.694.424.905.762.215.339.3.768.256 1.287-.033.418-.145.775-.334 1.07-.185.292-.43.539-.733.74-.3.202-.64.37-1.022.503l-.45.195h-2.573l.183-1.076 1.8.006c.297 0 .571-.053.823-.157.252-.108.461-.263.628-.465.166-.205.27-.456.31-.751.038-.274.016-.507-.066-.698a.88.88 0 00-.4-.438 1.466 1.466 0 00-.689-.167l-1.494-.006-1.212 6.79H58.85l1.406-7.87zm3.112 7.87l-1.217-3.534 1.361-.006 1.306 3.465v.076h-1.45zm6.706-6.751l-3.528 6.752h-1.478l4.356-7.87h.95l-.3 1.118zm.767 6.752l-1.145-6.898.084-.973h.883l1.561 7.87H70.84zm.394-2.92l-.194 1.076h-4.278l.194-1.075h4.278zm4.746-4.951l-1.406 7.87h-1.361l1.405-7.87h1.362zm7.906 0l-1.405 7.87h-1.323l-2.54-5.691-1.01 5.692H76.24l1.406-7.87h1.322l2.545 5.702 1.017-5.703h1.355zm5.534 6.795l-.194 1.076h-4.173l.189-1.076h4.178zm-2.572-6.794l-1.406 7.87h-1.367l1.406-7.87h1.367zm2.65 3.286l-.189 1.06h-3.634l.195-1.06h3.628zm1.1-3.287l-.194 1.081h-4.145l.2-1.08h4.14z" opacity=".6" fill="#fff"/></g><defs><linearGradient id="paint0_linear_2_169" x1="14.963" y1="11.957" x2="42.98" y2="16.384" gradientUnits="userSpaceOnUse"><stop stop-color="#fff" stop-opacity=".667"/><stop offset=".241" stop-color="#D7D7D7" stop-opacity=".219"/><stop offset=".459" stop-color="#4D4D4D" stop-opacity="0"/><stop offset=".719" stop-color="#fff" stop-opacity=".51"/><stop offset=".874" stop-color="#F2F2F2" stop-opacity=".4"/><stop offset="1" stop-color="#fff" stop-opacity=".624"/></linearGradient><linearGradient id="paint1_linear_2_169" x1=".5" y1="0" x2=".5" y2="32" gradientUnits="userSpaceOnUse"><stop stop-color="#fff" stop-opacity="0"/><stop offset=".495" stop-color="#fff"/><stop offset="1" stop-color="#fff" stop-opacity="0"/></linearGradient><clipPath id="clip0_2_169"><path fill="#fff" d="M0 0h105v30H0z"/></clipPath><filter id="filter0_d_2_169" x="8.651" y=".496" width="36.29" height="28.531" filterUnits="userSpaceOnUse" color-interpolation-filters="sRGB"><feFlood flood-opacity="0" result="BackgroundImageFix"/><feColorMatrix in="SourceAlpha" values="0 0 0 0 0 0 0 0 0 0 0 0 0 0 0 0 0 0 127 0" result="hardAlpha"/><feOffset dy="1"/><feGaussianBlur stdDeviation="2.5"/><feColorMatrix values="0 0 0 0 0 0 0 0 0 0 0 0 0 0 0 0 0 0 0.2 0"/><feBlend in2="BackgroundImageFix" result="effect1_dropShadow_2_169"/><feBlend in="SourceGraphic" in2="effect1_dropShadow_2_169" result="shape"/></filter></defs></svg>