<svg width="780" height="450" fill="none" xmlns="http://www.w3.org/2000/svg"><path d="M440.143 23.157l-1.504-3.689-3.51 1.318 1.253 3.689 3.761-1.318zM540.985 8.868l3.505-6.643 13.767 5.905-3.254 6.888-14.018-6.15zm64.484-6.643l-3.198 2.297 15.189 19.396 3.197-1.53-15.188-20.163zm104.726 0l-7.638 2.253 6.321 22.778 8.164-1.752-6.847-23.28z" fill="#EFAA4F"/><path d="M743.434 11.125l-1.32-3.689 3.431-1.317 1.584 3.952-3.695 1.054zm-74.1 15.018l-1.319-3.279 3.43-1.17 1.584 3.512-3.695.937z" fill="#3B99A1"/><path d="M769.971 76.791l-6.367-2.81-2.547 6.644 6.367 2.811 2.547-6.645z" fill="#DC3C26"/><path d="M776.012 117.774l-5.86-3.899-3.813 5.979 5.861 3.898 3.812-5.978z" fill="#519AA0"/><path d="M737.217 156.304h-2.903l6.598 23.362 3.431-1.256-7.126-22.106z" fill="#DC3C26"/><path d="M761.057 13.895l2.579-2.214 11.349 10.333-2.321 2.46-11.607-10.579z" fill="#D3523F"/><path d="M748.243 44.302l-2.664-2.028-15.722 18.25 2.665 1.775 15.721-17.997z" fill="#F4AA53"/><path d="M71.872 413.633l-3.791-6.464-20.724 11.376 3.539 6.98 20.976-11.892z" fill="#F4A74D"/><path d="M11.7 419.407H7.986l-1.857 7.663 3.98 1.236 1.591-8.899z" fill="#529699"/><path d="M36.878 382.138l4.908-7.244-7.907-3.88-4.907 6.467 7.906 4.657z" fill="#479298"/><path d="M13.159 302.596H8.914l1.592 16.131h3.98l-1.327-16.131z" fill="#3E9BA3"/><path d="M20.058 236.578v-7.963l24.514 1.991v7.466l-24.514-1.494z" fill="#DE422C"/><path d="M6.129.5L2.206 0 0 11.488l4.167.75L6.13.498zm16.714 76.708l1.597-3.228L46.8 84.41l-2.13 3.476-21.827-10.678zm24.514 84.146l-3.814-2.269L35.1 173.2l3.54 2.016 8.717-13.862z" fill="#3F99A4"/><path d="M81.168 72.868L74.1 76.122l9.088 21.776 7.069-3.003-9.089-22.027zm16.89-50.236l2.001-3.164 10.256 4.137-1.751 3.65-10.506-4.623zM65.915 11.125L46.8 24.559l4.333 6.59 19.624-13.687-4.843-6.337zM9.471 42.224l-3.197-3.287-2.931 2.276 2.93 3.286 3.198-2.275z" fill="#E54A2E"/><path d="M136.789 6.119l-3.075 2.244 9.482 12.218 3.332-1.995-9.739-12.467z" fill="#E6A956"/><path d="M171.043 60.445l-1.672-3.708-4.457 1.06 1.95 4.502 4.179-1.854z" fill="#3C9DA4"/><path d="M186.643 12.237h-4.011l-1.003 7.544 4.011.244 1.003-7.788z" fill="#3F9EA4"/><path d="M347.657 17.466l.267-8.01 25.362 2.003-.534 8.01-25.095-2.003z" fill="#3D9CA2"/><path d="M208.929 36.685l17.072-16.104 4.656 5.033-16.813 16.104-4.915-5.033zm97.088-4.423l-2.931-2.898 2.931-2.108 3.198 2.898-3.198 2.108z" fill="#E8A84E"/><path d="M496.971 2.43l-3.28-.761L483.6 23.507l4.289 1.524 9.082-22.6z" fill="#EFAA4F"/><path d="M272.9 87.33l-3.8-6.221 7.328-3.235 3.257 6.221-6.785 3.235z" fill="#3D9BA3"/><path d="M774.714 216.934l-6.971 1.517 3.357 15.171 7.229-1.77-3.615-14.918zm-18.671 69.698l.515-3.505L780 284.129v4.004l-23.957-1.501z" fill="#DDA64B"/><path d="M693.643 293.794l-3.094-6.773-14.178 6.773 2.578 6.02 14.694-6.02z" fill="#DC3C26"/><path d="M626.454 310.939l-5.797 1.775 3.529 15.469 7.057-2.282-4.789-14.962zm96.161 35.971l-3.363-1.484-11.123 21.014 3.363 1.236 11.123-20.766z" fill="#DDA64B"/><path d="M763.295 377.132l-2.795 2.01 11.182 21.352 3.304-1.758-11.691-21.604z" fill="#4299A3"/><path d="M745.457 429.077v-4.108l24.514 2.567v4.108l-24.514-2.567z" fill="#D7472D"/><path d="M679.714 417.582l-4.146-1.513-6.997 14.115 4.665 2.016 6.478-14.618z" fill="#E0A257"/><path d="M607.286 361.203l-14.263-6.321-3.566 6.321 14.263 7.586 3.566-7.586z" fill="#419AA2"/><path d="M544.769 382.139l-2.112-1.59 2.112-3.973 2.345 2.649-2.345 2.914z" fill="#DF3C19"/><path d="M487.927 413.086l-1.299-2.766-7.685 2.494 1.353 3.893 7.631-3.621zm-67.267-1.022l-.639-3.587-23.401 5.127.692 4.713 23.348-6.253z" fill="#E5A251"/><path d="M307.008 412.175h-3.922l2.451 8.344 3.678-1.564-2.207-6.78z" fill="#419AA2"/><path d="M151.543 433.717l-4.324-7.079-7.376 4.804 3.561 6.321 8.139-4.046z" fill="#3E9BA0"/><path d="M226.2 410.71l2.839-4.097 21.675 13.059-1.806 3.072L226.2 410.71z" fill="#3A9BA4"/><path d="M126.472 323.901l-7.243-5.174-5.572 5.174 5.572 5.951 7.243-5.951z" fill="#E24027"/><path d="M146.528 374.788l2.08-3.774 13.52 7.045v3.523l-15.6-6.794z" fill="#F1AB49"/><path d="M79.672 268.665v-3.689l8.357-1.317v5.006h-8.357z" fill="#DF452D"/></svg>