<svg width="289" height="341" fill="none" xmlns="http://www.w3.org/2000/svg"><path d="M39.794 8.93l-1.1-2.696-2.566.963.916 2.697 2.75-.963z" fill="#EFAA4F"/><path d="M207.358 11.114l-.965-2.398 2.508-.856 1.158 2.569-2.701.685z" fill="#3B99A1"/><path d="M280.934 48.143l-4.655-2.055-1.862 4.858L279.072 53l1.862-4.858z" fill="#DC3C26"/><path d="M285.351 78.106l-4.285-2.85-2.787 4.37 4.285 2.85 2.787-4.37z" fill="#519AA0"/><path d="M54.923 303.725L52.15 299 37 307.317l2.587 5.103 15.336-8.695z" fill="#F4A74D"/><path d="M6.554 298.633H3.84l-1.358 5.603 2.91.904 1.163-6.507z" fill="#529699"/><path d="M5.78 287.133l3.589-5.296L3.588 279 0 283.729l5.78 3.404z" fill="#479298"/><path d="M7.62 213.231H4.518l1.164 11.794h2.91l-.97-11.794z" fill="#3E9BA3"/><path d="M12.664 164.965v-5.822l17.923 1.456v5.458l-17.923-1.092z" fill="#DE422C"/><path d="M1 38.36L2.168 36l16.347 7.625-1.557 2.542L1 38.36zm16.961 77.298L15.173 114 9 124.319l2.589 1.475 6.372-10.136z" fill="#3F99A4"/><path d="M69.691 8.547l1.463-2.313 7.498 3.024-1.28 2.67-7.681-3.381zM46.19 2.133l-13.974 9.822 3.167 4.819L49.731 6.766l-3.54-4.633zM4.925 22.87l-2.338-2.403-2.143 1.664 2.143 2.403 2.338-1.664z" fill="#E54A2E"/><path d="M123.051 36.192l-1.222-2.711-3.259.774 1.426 3.293 3.055-1.356z" fill="#3C9DA4"/><path d="M134.457.947h-2.933l-.733 5.515 2.933.178.733-5.693z" fill="#3F9EA4"/><path d="M150.75 18.821l12.482-11.774 3.404 3.68L154.343 22.5l-3.593-3.68zm70.982-3.234l-2.143-2.119 2.143-1.54 2.338 2.118-2.338 1.541z" fill="#E8A84E"/><path d="M281.778 16.913L279 12.365 284.358 10l2.381 4.548-4.961 2.365z" fill="#3D9BA3"/><path d="M284.402 150.603l-5.097 1.109 2.454 11.091 5.286-1.294-2.643-10.906zm-13.651 50.957l.377-2.563 17.139.733v2.928l-17.516-1.098z" fill="#DDA64B"/><path d="M276.054 267.726l-2.044 1.469 8.175 15.611 2.416-1.286-8.547-15.794z" fill="#4299A3"/><path d="M263.012 305.703V302.7l17.923 1.877v3.003l-17.923-1.877z" fill="#D7472D"/><path d="M273.988 313.26l-.949-2.022-5.618 1.824.988 2.846 5.579-2.648zm-49.179-.747l-.467-2.622-17.109 3.748.506 3.446 17.07-4.572z" fill="#E5A251"/><path d="M230.868 306H228l1.792 6.1 2.689-1.144-1.613-4.956z" fill="#419AA2"/><path d="M109.554 311.176L106.393 306 101 309.512l2.603 4.621 5.951-2.957z" fill="#3E9BA0"/><path d="M170 308.995l2.075-2.995 15.848 9.547-1.321 2.247L170 308.995z" fill="#3A9BA4"/><path d="M23.369 196.783L18.073 193 14 196.783l4.073 4.35 5.296-4.35z" fill="#E24027"/><path d="M16 310.76l1.52-2.76 9.885 5.151v2.576L16 310.76z" fill="#F1AB49"/><path d="M1 182.66v-2.697L7.11 179v3.66H1z" fill="#DF452D"/></svg>