<svg width="46" height="25" fill="none" xmlns="http://www.w3.org/2000/svg"><path d="M6.924 5.77c.648-.842 1.337-1.723 2.065-2.525.486-.52.891-.921 1.296-1.202.405-.32.648-.36.77-.36H28.75l.04.04c.122.08.244.16.446.32.405.32.85.762 1.377 1.282l.324.321c.567-.24 1.134-.44 1.74-.641-.282-.28-.526-.561-.809-.841A22.516 22.516 0 0030.33.76a9.995 9.995 0 00-.688-.48 1.515 1.515 0 00-.85-.281H10.974c-.689 0-1.296.36-1.823.721-.526.4-1.052.882-1.538 1.443-.77.84-1.539 1.802-2.187 2.644l-.324.4H2.43c-1.013 0-1.863.441-2.106 1.243-.04.2-.081.4-.04.6.04.2.12.401.202.561.243.361.688.561 1.134.561h.202c-.364.2-.688.481-.931.762C.364 9.575 0 10.377 0 11.258v9.776c0 .842.445 1.403.972 1.723.486.28 1.053.4 1.417.4h5.426c.85 0 1.255-.6 1.417-1 .162-.401.203-.842.203-1.123H7.694c0 .08 0 .16-.04.24 0 .08-.041.161-.041.241H2.349c-.122 0-.365-.04-.527-.12l-.121-.12c-.04-.08-.04-.16-.04-.24v-9.777c0-.44.202-.921.485-1.242.324-.36.689-.52.972-.52.243 0 .607-.04.931-.24.203-.121.405-.321.527-.522.121-.2.202-.44.162-.68a1.36 1.36 0 00-.405-.962.71.71 0 00-.203-.16h1.944l.243-.321c.202-.32.405-.561.607-.842z" fill="#fff"/><path d="M26.362 7.013c-5.305.12-12.027.04-17.007-.36l-.162 1.642c4.656.4 10.811.48 15.954.4a8.084 8.084 0 011.215-1.682zm-2.916 6.61h-.567l-1.215 1.002-1.214-1.002h-7.29v1.643h6.682l1.863 1.523 1.741-1.403c-.08-.6-.04-1.161 0-1.762zM6.034 12.101l5.426.641.203-1.643-5.426-.64-.203 1.642zm18.384 7.693c-5.953.28-11.5-.24-18.1-1.563l-.365 1.603c7.046 1.402 12.958 1.923 19.315 1.562-.283-.52-.567-1.041-.85-1.602zM35.554 25c-5.75 0-10.448-4.568-10.448-10.217 0-5.65 4.698-10.177 10.448-10.177S46 9.174 46 14.783s-4.657 10.216-10.447 10.216zm0-18.43c-4.657 0-8.423 3.685-8.423 8.213 0 4.527 3.806 8.213 8.423 8.213 4.656 0 8.422-3.686 8.422-8.213.04-4.528-3.766-8.214-8.422-8.214z" fill="#fff"/><path d="M36.082 9.377v1.515h-.79V9.377h.79zm-.096 8.384v1.381h-.79v-1.381h.79zm.556-1.684c0-.195-.035-.361-.106-.498a.966.966 0 00-.334-.364 2.903 2.903 0 00-.617-.308 8.648 8.648 0 01-1.16-.545 2.278 2.278 0 01-.773-.723c-.186-.291-.279-.66-.279-1.104 0-.425.1-.793.299-1.104a1.96 1.96 0 01.825-.719c.354-.17.766-.256 1.235-.256.357 0 .681.054.971.164a2.035 2.035 0 011.23 1.227c.111.298.167.638.167 1.021h-1.452c0-.205-.022-.386-.066-.544a1.104 1.104 0 00-.193-.395.753.753 0 00-.293-.236.87.87 0 00-.38-.082.941.941 0 00-.506.123.724.724 0 00-.288.334 1.213 1.213 0 00-.086.472c0 .174.03.327.09.457.065.13.175.25.33.36.155.105.368.215.638.328.438.17.823.356 1.153.554.331.199.59.442.775.73.185.287.278.653.278 1.098 0 .441-.101.818-.304 1.13a1.947 1.947 0 01-.85.708 3.12 3.12 0 01-1.265.241c-.31 0-.62-.041-.926-.123a2.48 2.48 0 01-.835-.41 1.99 1.99 0 01-.597-.75c-.149-.315-.223-.702-.223-1.16h1.458c0 .25.032.458.096.626.064.164.148.296.253.395a.97.97 0 00.364.205c.135.041.272.062.41.062.216 0 .393-.04.531-.118a.771.771 0 00.32-.324.994.994 0 00.11-.472z" fill="#fff"/></svg>