<svg width="87" height="24" fill="none" xmlns="http://www.w3.org/2000/svg"><path d="M25.05 17.669l1.93-2.677c.84.716 1.632 1.246 2.349 1.59.742.318 1.508.504 2.3.504.791 0 1.41-.133 1.854-.398.446-.265.668-.61.668-1.06 0-.424-.148-.742-.445-.954-.297-.239-.792-.397-1.484-.53l-3.066-.583c-1.138-.212-2.003-.69-2.621-1.405-.619-.715-.915-1.617-.915-2.73 0-1.43.519-2.57 1.533-3.419 1.014-.848 2.423-1.245 4.204-1.245a8.87 8.87 0 013.14.583c1.063.397 1.978.9 2.72 1.564l-1.83 2.73c-.741-.61-1.459-1.06-2.151-1.352a5.477 5.477 0 00-2.151-.424c-.693 0-1.237.106-1.657.344-.396.239-.618.557-.618.954 0 .371.123.663.395.875.272.212.693.371 1.262.45l2.893.504c1.335.239 2.374.716 3.066 1.431.692.716 1.039 1.67 1.039 2.836 0 1.51-.544 2.704-1.657 3.605-1.088.874-2.597 1.325-4.476 1.325a8.816 8.816 0 01-3.338-.663 9.916 9.916 0 01-2.943-1.855zm23.716.795c-.668.61-1.36 1.034-2.052 1.299-.693.265-1.484.397-2.374.397a5.806 5.806 0 01-2.25-.45 5.35 5.35 0 01-1.83-1.246c-.52-.53-.916-1.166-1.212-1.882a5.958 5.958 0 01-.446-2.306c0-.821.149-1.59.42-2.305.298-.716.669-1.352 1.163-1.882a5.297 5.297 0 011.756-1.246 5.356 5.356 0 012.176-.45c.767 0 1.484.159 2.127.477a5.161 5.161 0 011.681 1.298c.47.53.841 1.193 1.113 1.962.272.768.396 1.59.396 2.464v.849H41.89c.223.53.545.954.99 1.298.445.345.989.504 1.607.504.445 0 .84-.08 1.187-.212.37-.16.668-.371.915-.636l2.176 2.067zm-4.723-7.209c-.544 0-.99.159-1.385.477-.396.318-.668.769-.816 1.325h4.426c-.173-.53-.445-.98-.84-1.299a2.185 2.185 0 00-1.385-.503zM54.304 4.23v15.744h-3.24V4.973l3.24-.743zm11.77 14.234c-.668.61-1.36 1.034-2.053 1.299-.692.265-1.483.397-2.374.397a5.806 5.806 0 01-2.25-.45 5.35 5.35 0 01-1.83-1.246c-.52-.53-.915-1.166-1.212-1.882a5.96 5.96 0 01-.445-2.306c0-.821.149-1.59.42-2.305.297-.716.668-1.352 1.163-1.882a5.298 5.298 0 011.755-1.246 5.357 5.357 0 012.177-.45c.766 0 1.483.159 2.126.477a5.162 5.162 0 011.682 1.298c.47.557.84 1.193 1.113 1.962.272.768.395 1.59.395 2.464v.849H59.2c.223.53.544.954.99 1.298.444.345.988.504 1.607.504.445 0 .84-.08 1.187-.212.37-.16.667-.371.915-.636l2.176 2.067zm-4.699-7.209c-.544 0-.989.159-1.385.477-.395.318-.667.769-.816 1.325h4.427c-.173-.53-.445-.98-.841-1.299-.42-.317-.866-.503-1.385-.503zM73.57 17.19c.444 0 .84-.106 1.21-.291a3.856 3.856 0 001.089-.928l1.929 2.147a5.684 5.684 0 01-1.954 1.537 5.52 5.52 0 01-2.423.557 5.474 5.474 0 01-2.201-.45 5.397 5.397 0 01-1.78-1.247 6.112 6.112 0 01-1.188-1.855c-.296-.715-.42-1.484-.42-2.306 0-.821.149-1.59.42-2.332.297-.715.693-1.351 1.188-1.855.494-.53 1.088-.928 1.78-1.246.692-.318 1.434-.45 2.2-.45.866 0 1.682.185 2.474.556a5.64 5.64 0 012.003 1.538l-1.979 2.2c-.37-.451-.741-.77-1.137-.981a2.656 2.656 0 00-1.286-.318c-.693 0-1.286.291-1.756.848-.47.556-.717 1.245-.717 2.067 0 .822.247 1.484.717 2.04.52.478 1.113.77 1.83.77zm7.218-.688v-4.983H78.66V8.63h2.127V5.715l3.24-.742V8.63h2.967v2.889h-2.968v4.294c0 .503.1.848.322 1.06.198.212.569.318 1.088.318a6.1 6.1 0 00.717-.053c.223-.027.47-.106.742-.186v2.81a5.17 5.17 0 01-1.113.238c-.445.053-.84.106-1.138.106-1.26 0-2.225-.291-2.868-.9-.668-.61-.99-1.512-.99-2.704z" fill="#333"/><path d="M17.443 13.083c0 4.925-5.905 7.713-7.501 8.366-1.537-.623-7.02-3.234-7.472-7.773l-.03-.86v-7.09c2.5-.356 5.031-1.216 7.502-2.61a22.447 22.447 0 004.097 1.809l.18.06 1.537-1.959-.211-.06c-1.687-.444-3.344-1.186-5.031-2.165L9.91.445l-.63.356c-2.742 1.632-5.483 2.552-8.194 2.76L0 3.648v9.464c0 7.327 9.098 10.62 9.49 10.739l.39.149.392-.148c.392-.119 9.49-3.382 9.49-10.74V9.257l-2.38 3.085v.742h.06z" fill="#2158F5"/><path d="M20.067 0L9.884 13.113l-3.042-2.76-2.652 2.848 6.237 5.637L23.23 2.314 20.067 0z" fill="#333"/></svg>