<svg width="24" height="19" fill="none" xmlns="http://www.w3.org/2000/svg"><path d="M1.89 9.413c.293.29.3.768.014 1.066-.26.271-.41.63-.424.982 0 1.326 2.378 2.739 5.994 3.394l-.76-1.548a.762.762 0 01.243-.96l.087-.051a.733.733 0 01.942.248l.051.089 1.389 2.825.016.032.076.158a.765.765 0 01-.07.79l-.069.08-2.22 2.261a.731.731 0 01-1.048 0 .764.764 0 01-.071-.981l.071-.085 1.312-1.336C3.031 15.63 0 13.812 0 11.433a3.06 3.06 0 01.843-2.006.731.731 0 011.047-.014zm20.929.014c.516.539.816 1.254.844 2.034 0 2.85-4.482 4.918-10.325 5.234a.745.745 0 01-.778-.712.749.749 0 01.7-.793c5.12-.277 8.922-2.032 8.922-3.702a1.538 1.538 0 00-.424-1.009.763.763 0 01.014-1.066.731.731 0 011.047.014zM3.184 0c1.891 0 2.89.944 2.89 2.167 0 .815-.452 1.416-1.177 1.716v.022c.861.365 1.334 1.02 1.334 1.899 0 1.32-1.082 2.306-3.047 2.306-1.545 0-2.396-.61-2.88-1.298l1.178-.933c.43.6.956.901 1.65.901.861 0 1.313-.45 1.313-1.083 0-.655-.484-1.105-1.261-1.105h-.998V3.347h.998c.714 0 1.135-.408 1.135-.998 0-.59-.41-1.019-1.188-1.019-.683 0-1.145.322-1.513.805L.494 1.19C1.06.493 1.828 0 3.184 0zm7.776 0c.914 0 1.523.215 1.986.461l-.578 1.266a2.676 2.676 0 00-1.377-.375c-1.376 0-1.944.9-2.007 2.392h.021c.431-.493 1.135-.783 1.913-.783 1.513 0 2.459 1.073 2.459 2.51 0 1.524-1.062 2.64-2.974 2.64-2.459 0-3.153-1.867-3.153-3.788C7.25 2.167 8.102 0 10.96 0zm6.105 0c2.553 0 3.058 1.974 3.058 4.066 0 2.07-.505 4.044-3.037 4.044-2.554 0-3.058-1.974-3.058-4.066 0-2.07.504-4.044 3.037-4.044zm-6.662 4.238c-.704 0-1.261.429-1.261 1.19 0 .612.368 1.341 1.271 1.341.757 0 1.209-.525 1.209-1.255 0-.719-.42-1.276-1.22-1.276zm6.672-2.886c-1.145 0-1.26 1.394-1.26 2.703v.171c.011 1.257.165 2.533 1.26 2.533 1.146 0 1.261-1.395 1.261-2.704 0-1.309-.115-2.703-1.26-2.703zM22.413 0C23.35 0 24 .687 24 1.577c0 .89-.651 1.577-1.587 1.577-.935 0-1.586-.687-1.586-1.577 0-.89.651-1.577 1.586-1.577zm0 .772c-.43 0-.714.354-.714.805 0 .45.284.805.714.805.431 0 .715-.354.715-.805 0-.45-.284-.805-.715-.805z" fill="#FFF"/></svg>