<svg width="42" height="42" fill="none" xmlns="http://www.w3.org/2000/svg"><circle cx="21" cy="21" r="21" fill="#fff"/><mask id="a" fill="#fff"><path fill-rule="evenodd" clip-rule="evenodd" d="M13 26a1 1 0 00-1 1v1h-2a1 1 0 00-1 1v3h20v-3a1 1 0 00-1-1h-2v-1a1 1 0 00-1-1H13z"/></mask><path fill-rule="evenodd" clip-rule="evenodd" d="M13 26a1 1 0 00-1 1v1h-2a1 1 0 00-1 1v3h20v-3a1 1 0 00-1-1h-2v-1a1 1 0 00-1-1H13z" fill="url(#paint0_linear)"/><path d="M12 28v1h1v-1h-1zm-3 4H8v1h1v-1zm20 0v1h1v-1h-1zm-3-4h-1v1h1v-1zm-13-1v-2a2 2 0 00-2 2h2zm0 1v-1h-2v1h2zm-3 1h2v-2h-2v2zm0 0v-2a2 2 0 00-2 2h2zm0 3v-3H8v3h2zm19-1H9v2h20v-2zm-1-2v3h2v-3h-2zm0 0h2a2 2 0 00-2-2v2zm-2 0h2v-2h-2v2zm-1-2v1h2v-1h-2zm0 0h2a2 2 0 00-2-2v2zm-12 0h12v-2H13v2z" fill="#FFB800" mask="url(#a)"/><mask id="b" fill="#fff"><path d="M32.67 24.864l-1.243 1.243a.462.462 0 01-.67 0l-6.834-6.835-3.489 3.49a.462.462 0 01-.669 0l-4.11-4.111a.462.462 0 010-.67l8.89-8.889a.462.462 0 01.668 0l4.11 4.11a.462.462 0 010 .67l-3.488 3.489 6.834 6.834a.462.462 0 010 .67z"/></mask><path d="M32.67 24.864l-1.243 1.243a.462.462 0 01-.67 0l-6.834-6.835-3.489 3.49a.462.462 0 01-.669 0l-4.11-4.111a.462.462 0 010-.67l8.89-8.889a.462.462 0 01.668 0l4.11 4.11a.462.462 0 010 .67l-3.488 3.489 6.834 6.834a.462.462 0 010 .67z" fill="url(#paint1_linear)"/><path d="M32.67 24.864l-.708-.707.707.707zm-1.243 1.243l.707.707-.707-.707zm-.67 0l-.707.707.707-.707zm-6.834-6.835l-.707-.707.707-.707.707.707-.707.707zm-3.489 3.49l-.707-.708.707.707zm-.669 0l.707-.708-.707.707zm-4.11-4.111l-.707.707.707-.707zm0-.67l-.707-.706.707.707zm8.89-8.889l.706.707-.707-.707zm.668 0l-.707.707.707-.707zm4.11 4.11l.708-.707-.707.708zm0 .67l.708.707-.707-.707zm-3.488 3.489l-.707.707-.707-.707.707-.707.707.707zm6.834 6.834l.707-.707-.707.707zm.707 1.376l-1.242 1.243-1.415-1.414 1.243-1.243 1.414 1.414zm-1.242 1.243a1.462 1.462 0 01-2.084 0l1.415-1.414a.53.53 0 00-.373-.15.529.529 0 00-.372.15l1.414 1.414zm-2.084 0l-6.834-6.835 1.414-1.414 6.835 6.835-1.415 1.414zm-5.42-6.835l-3.489 3.49-1.414-1.415 3.489-3.489 1.414 1.414zm-3.489 3.49a1.462 1.462 0 01-2.083 0l1.414-1.415a.529.529 0 00-.372-.15.529.529 0 00-.373.15l1.414 1.414zm-2.083 0l-4.11-4.11 1.414-1.415 4.11 4.11-1.414 1.414zm-4.11-4.11a1.462 1.462 0 010-2.084l1.414 1.414a.529.529 0 00.15-.373.529.529 0 00-.15-.372l-1.414 1.414zm0-2.084l8.89-8.89L25.25 9.8l-8.89 8.89-1.413-1.414zm8.89-8.89a1.462 1.462 0 012.082 0L24.506 9.8a.53.53 0 00.373.15.529.529 0 00.372-.15l-1.414-1.414zm2.082 0l4.11 4.11-1.413 1.415-4.11-4.11 1.413-1.415zm4.11 4.11a1.462 1.462 0 010 2.084l-1.413-1.414a.529.529 0 00-.15.372.53.53 0 00.15.373l1.414-1.415zm0 2.084l-3.488 3.489-1.414-1.415 3.489-3.488 1.414 1.414zm-3.488 2.075l6.834 6.834-1.414 1.414-6.834-6.834 1.414-1.415zm6.834 6.834a1.462 1.462 0 010 2.083l-1.414-1.414a.529.529 0 00-.15.373c0 .154.064.286.15.372l1.414-1.414z" fill="#FFB800" mask="url(#b)"/><path d="M24.292 8.58l.045-.046.342-.342.267-.266 5.488 5.488-.654.653-5.488-5.488z" fill="#C4C4C4"/><path d="M24.292 8.58l.045-.046.342-.342.267-.266 5.488 5.488-.654.653-5.488-5.488z" fill="url(#paint2_linear)"/><path d="M24.292 8.58l.045-.046.342-.342.267-.266 5.488 5.488-.654.653-5.488-5.488z" stroke="#000"/><path d="M24.292 8.58l.045-.046.342-.342.267-.266 5.488 5.488-.654.653-5.488-5.488z" stroke="#FFB800"/><path d="M14.488 18.383l.045-.045.342-.342.267-.266 5.488 5.488-.654.653-5.488-5.488z" fill="#C4C4C4"/><path d="M14.488 18.383l.045-.045.342-.342.267-.266 5.488 5.488-.654.653-5.488-5.488z" fill="url(#paint3_linear)"/><path d="M14.488 18.383l.045-.045.342-.342.267-.266 5.488 5.488-.654.653-5.488-5.488z" stroke="#000"/><path d="M14.488 18.383l.045-.045.342-.342.267-.266 5.488 5.488-.654.653-5.488-5.488z" stroke="#FFB800"/><path fill="#fff" d="M13 27h12v2H13z"/><path fill="#FFB800" d="M12 28h13v1H12zm7-14.586L20.414 12l.918.918-1.414 1.414z"/><defs><linearGradient id="paint0_linear" x1="19.688" y1="28.875" x2="19.688" y2="32.156" gradientUnits="userSpaceOnUse"><stop stop-color="#FCD04E"/><stop offset="1" stop-color="#FFE146"/></linearGradient><linearGradient id="paint1_linear" x1="24.162" y1="8.949" x2="24.162" y2="26.25" gradientUnits="userSpaceOnUse"><stop stop-color="#FCD04E"/><stop offset="1" stop-color="#FFE146"/></linearGradient><linearGradient id="paint2_linear" x1="24.266" y1="7.899" x2="30.461" y2="14.094" gradientUnits="userSpaceOnUse"><stop stop-color="#FCD04E"/><stop offset="1" stop-color="#FFE146"/></linearGradient><linearGradient id="paint3_linear" x1="14.462" y1="17.703" x2="20.657" y2="23.898" gradientUnits="userSpaceOnUse"><stop stop-color="#FCD04E"/><stop offset="1" stop-color="#FFE146"/></linearGradient></defs></svg>