<svg width="42" height="42" fill="none" xmlns="http://www.w3.org/2000/svg"><circle cx="21" cy="21" r="21" fill="#fff"/><path fill-rule="evenodd" clip-rule="evenodd" d="M14.516 18.092c0 4.4 2.742 8.136 6.554 9.483-1.33 1.218-3.069 1.956-4.972 1.956a7.232 7.232 0 01-2.788-.556c-.73-.215-1.507-.21-2.239-.104-.966.14-1.966-1.017-1.83-1.984a5.577 5.577 0 00-.112-2.201 8.26 8.26 0 01-.598-3.1c0-4.182 3.076-7.609 6.98-7.923a10.258 10.258 0 00-.995 4.43z" fill="#FFB800"/><path d="M21.07 27.575l.167-.472.785.277-.614.563-.338-.368zm-7.76 1.4l.141-.48.026.008.026.01-.193.462zm-2.239-.104L11 28.376l.072.495zm-1.83-1.984l.495.07-.495-.07zm-.112-2.201l.463-.187.011.027.008.028-.482.132zm6.383-11.023l-.04-.498.865-.07-.374.784-.451-.216zm5.392 14.383c-4.015-1.418-6.888-5.345-6.888-9.954h1c0 4.19 2.61 7.736 6.22 9.011l-.332.943zm-4.806.985c1.77 0 3.391-.686 4.634-1.825l.676.737c-1.416 1.298-3.274 2.088-5.31 2.088v-1zm-2.595-.518a6.73 6.73 0 002.595.518v1a7.73 7.73 0 01-2.98-.595l.385-.923zm-.333.941c-.64-.187-1.339-.188-2.027-.088l-.144-.99c.775-.113 1.63-.122 2.452.119l-.281.96zm-2.027-.088c-.704.102-1.35-.27-1.771-.737-.423-.47-.72-1.142-.626-1.812l.99.14c-.042.297.093.686.378 1.003.287.318.624.454.885.416l.144.99zm-2.397-2.549a5.079 5.079 0 00-.1-2l.965-.263c.154.564.265 1.411.125 2.403l-.99-.14zm.285-5.232c0 1.036.2 2.02.561 2.914l-.927.374a8.764 8.764 0 01-.634-3.288h1zm6.52-7.423c-3.627.291-6.52 3.484-6.52 7.423h-1c0-4.423 3.258-8.084 7.44-8.42l.08.997zm-1.535 3.93c0-1.666.375-3.243 1.044-4.644l.903.43a9.759 9.759 0 00-.947 4.214h-1z" fill="#F5A200"/><mask id="a" fill="#fff"><path fill-rule="evenodd" clip-rule="evenodd" d="M32.132 21.567a9.138 9.138 0 00.68-3.475c0-4.918-3.854-8.904-8.61-8.904-4.755 0-8.61 3.986-8.61 8.904 0 4.918 3.855 8.905 8.61 8.905a8.34 8.34 0 003.172-.624c.97-.28 2.012-.227 2.96-.047.96.182 1.926-.963 1.734-1.922-.238-1.19-.11-2.206.064-2.837z"/></mask><path fill-rule="evenodd" clip-rule="evenodd" d="M32.132 21.567a9.138 9.138 0 00.68-3.475c0-4.918-3.854-8.904-8.61-8.904-4.755 0-8.61 3.986-8.61 8.904 0 4.918 3.855 8.905 8.61 8.905a8.34 8.34 0 003.172-.624c.97-.28 2.012-.227 2.96-.047.96.182 1.926-.963 1.734-1.922-.238-1.19-.11-2.206.064-2.837z" fill="#C4C4C4"/><path fill-rule="evenodd" clip-rule="evenodd" d="M32.132 21.567a9.138 9.138 0 00.68-3.475c0-4.918-3.854-8.904-8.61-8.904-4.755 0-8.61 3.986-8.61 8.904 0 4.918 3.855 8.905 8.61 8.905a8.34 8.34 0 003.172-.624c.97-.28 2.012-.227 2.96-.047.96.182 1.926-.963 1.734-1.922-.238-1.19-.11-2.206.064-2.837z" fill="url(#paint0_linear)"/><path d="M32.132 21.567l-.963-.268.016-.057.022-.055.925.38zm-4.758 4.806l-.38-.925.05-.02.052-.015.278.96zm2.96-.047l.185-.983-.186.983zm1.734-1.922l.98-.196-.98.196zm1.745-6.312c0 1.365-.269 2.668-.755 3.854l-1.85-.759a8.14 8.14 0 00.605-3.095h2zm-9.61-9.904c5.338 0 9.61 4.466 9.61 9.904h-2c0-4.397-3.44-7.904-7.61-7.904v-2zm-9.61 9.904c0-5.438 4.27-9.904 9.61-9.904v2c-4.172 0-7.61 3.507-7.61 7.904h-2zm9.61 9.905c-5.34 0-9.61-4.467-9.61-9.905h2c0 4.398 3.438 7.905 7.61 7.905v2zm3.55-.698a9.35 9.35 0 01-3.55.698v-2c.986 0 1.928-.195 2.792-.549l.758 1.85zm-.657-1.886c1.178-.34 2.394-.265 3.423-.07l-.372 1.965c-.865-.164-1.733-.194-2.495.026l-.556-1.921zm3.423-.07c.022.004.173.004.363-.212.19-.214.225-.433.206-.53l1.96-.393c.173.861-.178 1.693-.665 2.246-.485.55-1.298 1.032-2.236.854l.372-1.965zm.569-.742c-.273-1.36-.131-2.537.08-3.302l1.928.535c-.138.498-.251 1.356-.047 2.374l-1.961.393z" fill="#FFB800" mask="url(#a)"/><g filter="url(#filter0_dd)" fill="#fff"><path d="M22.05 18.092c0 .615-.482 1.113-1.076 1.113-.595 0-1.077-.498-1.077-1.113 0-.614.482-1.113 1.077-1.113.594 0 1.076.498 1.076 1.113zm3.229 0c0 .615-.482 1.113-1.077 1.113-.594 0-1.076-.498-1.076-1.113 0-.614.482-1.113 1.076-1.113.595 0 1.077.498 1.077 1.113zm3.228 0c0 .615-.482 1.113-1.076 1.113-.594 0-1.076-.498-1.076-1.113 0-.614.482-1.113 1.076-1.113.595 0 1.076.498 1.076 1.113z"/></g><defs><linearGradient id="paint0_linear" x1="24.202" y1="9.188" x2="24.202" y2="26.997" gradientUnits="userSpaceOnUse"><stop stop-color="#FCD04E"/><stop offset="1" stop-color="#FFE146"/></linearGradient><filter id="filter0_dd" x="18.897" y="16.979" width="10.61" height="4.226" filterUnits="userSpaceOnUse" color-interpolation-filters="sRGB"><feFlood flood-opacity="0" result="BackgroundImageFix"/><feColorMatrix in="SourceAlpha" values="0 0 0 0 0 0 0 0 0 0 0 0 0 0 0 0 0 0 127 0"/><feOffset dy="1"/><feGaussianBlur stdDeviation=".5"/><feColorMatrix values="0 0 0 0 0.909804 0 0 0 0 0.780392 0 0 0 0 0.223529 0 0 0 0.25 0"/><feBlend in2="BackgroundImageFix" result="effect1_dropShadow"/><feColorMatrix in="SourceAlpha" values="0 0 0 0 0 0 0 0 0 0 0 0 0 0 0 0 0 0 127 0"/><feOffset dy="1"/><feGaussianBlur stdDeviation=".5"/><feColorMatrix values="0 0 0 0 1 0 0 0 0 0.6 0 0 0 0 0 0 0 0 0.45 0"/><feBlend in2="effect1_dropShadow" result="effect2_dropShadow"/><feBlend in="SourceGraphic" in2="effect2_dropShadow" result="shape"/></filter></defs></svg>