<svg xmlns="http://www.w3.org/2000/svg" viewBox="8657.484 10890 56.855 35.7"><defs><clipPath id="clip-path"><path id="Path_8989" data-name="Path 8989" d="M13.9 24.792a1.5 1.5 0 011.492-1.492h28.855a1.5 1.5 0 011.492 1.492v16.915a1.5 1.5 0 01-1.492 1.493H15.392a1.5 1.5 0 01-1.492-1.493V24.792z" transform="translate(-13.9 -23.3)"/></clipPath><clipPath id="clip-path-2"><path id="Path_8990" data-name="Path 8990" d="M65.225 67.942h-1.592c-.149 0-.274 0-.348.075-.1.05-.124.149-.124.274a.27.27 0 00.2.274 1.26 1.26 0 00.323.05h.473a1.48 1.48 0 01.995.3.343.343 0 01.075.1zm0 2.413a1.346 1.346 0 01-1.194.473h-1.692v-.8h1.691a.45.45 0 00.348-.1.332.332 0 00.1-.249.38.38 0 00-.1-.249.478.478 0 00-.3-.075c-.821-.025-1.841.025-1.841-1.144a1.1 1.1 0 011.244-1.094h1.741V66.4h-1.614a1.853 1.853 0 00-1.094.3v-.3h-2.389a1.731 1.731 0 00-1.045.3v-.3H54.8v.3a2.262 2.262 0 00-1.169-.3H50.8v.3a2.106 2.106 0 00-1.244-.3h-3.137l-.721.821-.672-.771H40.3v5.1h4.627l.746-.8.7.8h2.857v-1.195h.27a3.022 3.022 0 001.219-.174v1.368h2.363v-1.318h.124c.149 0 .149 0 .149.149v1.169H60.5a2.181 2.181 0 001.194-.323v.323h2.264a3.527 3.527 0 001.293-.224v-.97zm-3.507-1.468a1 1 0 01.274.771c0 .8-.5 1.144-1.368 1.144h-1.718v-.771H60.6a.45.45 0 00.348-.1.332.332 0 00.1-.249.38.38 0 00-.1-.249.513.513 0 00-.323-.075c-.821-.025-1.841.025-1.841-1.144a1.088 1.088 0 011.244-1.094h1.741v.771h-1.594c-.174 0-.274 0-.348.075-.1.05-.124.149-.124.274a.27.27 0 00.2.274 1.3 1.3 0 00.348.05h.473a1.559 1.559 0 01.993.323zm-7.885-.224a.8.8 0 01-.423.075h-1.07v-.821h1.07a.761.761 0 01.423.075.316.316 0 01.174.323.334.334 0 01-.175.349zm.547.448a.973.973 0 01.423.3 1.039 1.039 0 01.149.672v.717h-.871v-.448c0-.224.025-.547-.149-.721a.877.877 0 00-.647-.174h-.945V70.8h-.871v-3.629h2.015a2.137 2.137 0 011.045.174.875.875 0 01.448.821.97.97 0 01-.598.945zm1.094-1.94h2.91v.771h-2.04v.672h1.99v.746h-1.99v.721h2.04v.771h-2.91zm-5.9 1.691h-1.14v-.92h1.144c.323 0 .522.124.522.448.026.298-.2.473-.522.473zM47.563 70.5l-1.343-1.488 1.343-1.443zm-3.458-.448h-2.138v-.721h1.915v-.746h-1.915v-.672h2.189l.945 1.07zm6.94-1.691c0 1.02-.746 1.219-1.517 1.219h-1.094v1.22h-1.691l-1.07-1.219-1.119 1.219H41.1v-3.629h3.5l1.07 1.194 1.119-1.194h2.786c.7 0 1.471.199 1.471 1.194z" transform="translate(-40.3 -66.4)"/></clipPath><clipPath id="clip-path-3"><path id="Path_8991" data-name="Path 8991" d="M18.211 44.086l-.6-1.468-.6 1.468zm13.184-.572a.8.8 0 01-.423.075H29.9v-.821h1.07a.761.761 0 01.423.075.316.316 0 01.174.323.372.372 0 01-.172.348zm7.587.572l-.6-1.468-.6 1.468zm-14.13 1.592h-.9v-2.861l-1.269 2.861h-.771l-1.269-2.861v2.861h-1.761l-.348-.821h-1.816l-.348.821h-.945l1.567-3.657h1.293l1.492 3.458v-3.458H21.2l1.144 2.487 1.045-2.487h1.443v3.657zm3.557 0H25.5v-3.657h2.91v.771h-2.04v.647h1.99v.746h-1.99v.721h2.04zm4.129-2.686a1.024 1.024 0 01-.622.97.973.973 0 01.423.3 1.039 1.039 0 01.149.672v.721h-.871v-.475c0-.224.025-.547-.149-.721-.124-.124-.323-.149-.647-.149h-.945v1.318h-.871v-3.607h2.015a2.3 2.3 0 011.07.174.836.836 0 01.449.796zm.5 2.686h.9v-3.657h-.9zm11.243 0h-1.245l-1.667-2.736v2.736h-1.791l-.348-.821h-1.791l-.323.821H36.1a1.943 1.943 0 01-1.269-3.209 1.719 1.719 0 011.318-.423h.846v.771h-.821a.82.82 0 00-.672.224 1.2 1.2 0 00-.249.821 1.256 1.256 0 00.249.871.793.793 0 00.6.2h.4l1.244-2.885h1.318l1.46 3.452v-3.479h1.343l1.542 2.537v-2.537h.9v3.657zM15.4 46.4h1.492l.348-.821h.746l.323.821h2.96v-.622l.274.622h1.517l.249-.622v.622h7.313v-1.344h.149c.1 0 .124.025.124.174v1.17h3.781v-.323a2.8 2.8 0 001.393.323h1.592l.348-.821h.746l.323.821h3.06v-.771l.473.771h2.463v-5.1h-2.436v.6l-.348-.6H39.8v.6l-.323-.6h-3.356a2.979 2.979 0 00-1.468.3v-.3H32.34v.3a1.442 1.442 0 00-.995-.3h-8.483l-.572 1.318-.572-1.318h-2.686v.6l-.3-.6h-2.287L15.4 43.713z" transform="translate(-15.4 -41.3)"/></clipPath><style>.cls-3{fill:#246ea9}.cls-5{fill:#fffffe}</style></defs><g id="Group_3476" data-name="Group 3476" transform="translate(8657.484 10890)"><g id="Rectangle_1926" data-name="Rectangle 1926" fill="#fff" stroke="#e5e5e5" stroke-width=".5"><rect width="56.856" height="35.7" rx="3" stroke="none"/><rect x=".25" y=".25" width="56.356" height="35.2" rx="2.75" fill="none"/></g><g id="_1495540601_american_express" data-name="1495540601_american_express" transform="translate(12.931 7.999)"><g id="Group_3232" data-name="Group 3232"><g id="Group_3231" data-name="Group 3231"><g id="Group_3230" data-name="Group 3230" clip-path="url(#clip-path)"><path id="Path_8988" data-name="Path 8988" class="cls-3" d="M13.9 24.792a1.5 1.5 0 011.492-1.492h28.855a1.5 1.5 0 011.492 1.492v16.915a1.5 1.5 0 01-1.492 1.493H15.392a1.5 1.5 0 01-1.492-1.493V24.792z" transform="translate(-13.9 -23.3)"/></g></g></g><g id="Group_3234" data-name="Group 3234" transform="translate(6.567 10.721)"><g id="Group_3233" data-name="Group 3233" clip-path="url(#clip-path-2)"><path id="Rectangle_1927" data-name="Rectangle 1927" class="cls-5" transform="translate(-1.244 -1.194)" d="M0 0h27.412v7.587H0z"/></g></g><g id="Group_3237" data-name="Group 3237" transform="translate(.373 4.477)"><g id="Group_3236" data-name="Group 3236"><g id="Group_3235" data-name="Group 3235" clip-path="url(#clip-path-3)"><path id="Rectangle_1928" data-name="Rectangle 1928" class="cls-5" transform="translate(-1.244 -1.244)" d="M0 0h32.138v7.587H0z"/></g></g><path id="Rectangle_1929" data-name="Rectangle 1929" class="cls-3" transform="translate(17.636 .721)" d="M0 0h.895v3.657H0z"/></g></g></g></svg>