<svg width="148" height="32" fill="none" xmlns="http://www.w3.org/2000/svg"><path d="M101.738 10.078h-.928l-.44 2.51H98.7l1.23-7.11 2.511.005c.804 0 1.422.189 1.855.567.436.374.632.887.586 1.538-.036.514-.184.94-.444 1.279-.261.335-.625.6-1.094.796l.957 2.842v.083h-1.782l-.781-2.51zm-.704-1.323l.977.01c.267 0 .498-.066.693-.196.199-.13.341-.308.425-.532.085-.228.109-.448.073-.66-.065-.36-.296-.551-.693-.57l-1.133-.005-.342 1.953zm6.597 3.93a2.488 2.488 0 01-1.265-.332 2.137 2.137 0 01-.835-.918 2.487 2.487 0 01-.224-1.299l.015-.136c.087-.87.389-1.556.903-2.06.517-.509 1.151-.753 1.899-.733.453.006.84.122 1.162.346a1.9 1.9 0 01.708.923c.15.39.199.83.147 1.319l-.093.669h-3.144c.006.276.084.5.234.673.15.173.368.264.654.274.466.013.884-.166 1.255-.537l.674.893a2.007 2.007 0 01-.835.67 2.926 2.926 0 01-1.167.248h-.088zm.391-4.214a.832.832 0 00-.596.215c-.166.15-.311.4-.435.752h1.607l.029-.141c.02-.114.023-.222.01-.323-.055-.325-.26-.493-.615-.503zm2.588 1.465c.061-.53.206-1.01.434-1.44.231-.43.519-.754.864-.972a2.065 2.065 0 011.172-.322c.531.013.931.203 1.201.571l.171-.473 1.485.004-.864 5.079c-.098.716-.412 1.28-.943 1.694-.53.413-1.191.61-1.982.59a2.833 2.833 0 01-1.021-.21 2.203 2.203 0 01-.845-.605l.762-.947c.283.358.651.542 1.104.552.713.013 1.165-.366 1.357-1.138l.039-.161c-.364.358-.766.534-1.206.527a1.64 1.64 0 01-.893-.254 1.701 1.701 0 01-.606-.727 2.839 2.839 0 01-.249-1.055 4.6 4.6 0 01.02-.713zm1.587.523c0 .3.053.532.161.698a.545.545 0 00.468.259c.303.013.578-.104.826-.352l.415-2.241c-.131-.228-.349-.345-.655-.352-.312-.006-.574.127-.786.4-.211.271-.345.627-.4 1.07a5.44 5.44 0 00-.029.518zm5.468 2.129h-1.611l.918-5.284h1.611l-.918 5.284zm-.551-6.617a.745.745 0 01.249-.595.91.91 0 01.634-.24c.251 0 .459.072.625.215a.73.73 0 01.264.562.757.757 0 01-.249.6.912.912 0 01-.635.235.962.962 0 01-.625-.21.733.733 0 01-.263-.567zm4.55 5.103c.043-.215-.123-.376-.498-.483l-.346-.088c-.567-.15-.982-.36-1.246-.63a1.25 1.25 0 01-.371-.962c.017-.508.241-.92.674-1.235.436-.32.967-.476 1.592-.47.622.007 1.125.165 1.509.474.387.31.584.726.591 1.25l-1.602-.004c.013-.417-.171-.625-.552-.625a.78.78 0 00-.454.146.551.551 0 00-.249.38c-.055.265.178.445.698.543.453.107.803.233 1.05.376.248.14.436.314.567.522.13.209.19.46.18.752a1.41 1.41 0 01-.312.855c-.199.25-.487.45-.864.6-.375.15-.782.22-1.221.21a2.502 2.502 0 01-1.065-.239 1.921 1.921 0 01-.766-.635 1.668 1.668 0 01-.283-.928l1.494.01c.006.47.241.7.703.694a.938.938 0 00.508-.132.59.59 0 00.263-.381zm5.054-5.083l-.229 1.313h.844l-.2 1.143h-.845l-.41 2.427c-.023.166-.013.291.029.376.046.084.157.13.333.136.068.004.208-.004.419-.024l-.117 1.191c-.27.088-.558.129-.864.122-.498-.006-.871-.152-1.118-.439-.248-.286-.348-.675-.303-1.167l.43-2.622h-.655l.196-1.143h.654l.23-1.313h1.606zm2.993 6.694a2.481 2.481 0 01-1.264-.332 2.124 2.124 0 01-.835-.918 2.477 2.477 0 01-.225-1.299l.015-.136c.088-.87.389-1.556.903-2.06.518-.509 1.151-.753 1.899-.733.453.006.84.122 1.162.346a1.9 1.9 0 01.708.923c.15.39.199.83.147 1.319l-.093.669h-3.144c.006.276.084.5.234.673.15.173.368.264.654.274.466.013.884-.166 1.255-.537l.674.893a2.007 2.007 0 01-.835.67 2.926 2.926 0 01-1.167.248h-.088zm.391-4.214a.832.832 0 00-.596.215c-.166.15-.311.4-.434.752h1.606l.029-.141c.02-.114.023-.222.01-.323-.055-.325-.26-.493-.615-.503zm6.128.323a4.62 4.62 0 00-.498-.05c-.482-.012-.85.154-1.104.499l-.596 3.345h-1.606l.918-5.284 1.499-.004-.122.693c.345-.534.752-.8 1.221-.8.133 0 .299.022.498.068l-.21 1.533zm2.446 3.891a2.485 2.485 0 01-1.265-.332 2.137 2.137 0 01-.835-.918 2.487 2.487 0 01-.224-1.299l.014-.136c.088-.87.389-1.556.904-2.06.517-.509 1.15-.753 1.899-.733.453.006.84.122 1.162.346a1.9 1.9 0 01.708.923c.15.39.199.83.147 1.319l-.093.669h-3.145c.007.276.085.5.235.673.15.173.368.264.654.274.466.013.884-.166 1.255-.537l.674.893a2.007 2.007 0 01-.835.67 2.926 2.926 0 01-1.167.248h-.088zm.391-4.214a.832.832 0 00-.596.215c-.166.15-.311.4-.435.752h1.607l.029-.141c.02-.114.023-.222.01-.323-.055-.325-.261-.493-.615-.503zm2.578 1.465c.101-.833.355-1.5.761-2.002.407-.501.938-.743 1.592-.727.45.013.822.202 1.118.566l.513-2.685h1.611l-1.298 7.5h-1.431l.068-.572c-.394.463-.831.687-1.313.674-.508-.006-.907-.194-1.196-.561-.287-.371-.44-.868-.459-1.49-.007-.205 0-.405.019-.6l.015-.103zm1.601.108c-.026.208-.037.39-.034.547 0 .54.182.815.547.825.316.01.597-.142.845-.454l.361-2.027c-.107-.3-.322-.454-.644-.464-.3-.006-.542.124-.728.391-.182.264-.298.658-.347 1.182z" fill="#2158F5"/><mask id="a" maskUnits="userSpaceOnUse" x="15" y="0" width="70" height="32"><path d="M15.261 31.288h69.562V.003H15.261v31.285z" fill="#fff"/></mask><g mask="url(#a)" fill-rule="evenodd" clip-rule="evenodd"><path d="M83.967 15.643C79.743 24.273 61.063 31.3 42.384 31.3c-18.697 0-30.489-7.027-26.265-15.657C20.325 7.046 39.022.003 57.702.003c18.697 0 30.486 7.043 26.265 15.64z" fill="#032B76"/><path d="M57.282.337c18.167 0 29.6 6.826 25.468 15.172-4.115 8.364-22.298 15.19-40.428 15.19-18.166 0-29.6-6.826-25.485-15.19 2.67-5.38 11.13-10.103 21.657-12.811.747-.202 1.513-.366 2.279-.55A77.624 77.624 0 0157.283.337z" fill="#0A0A08"/><path d="M57.01.791c17.937 0 29.25 6.588 25.198 14.63-4.052 8.073-21.973 14.647-39.894 14.647-17.938 0-29.25-6.574-25.198-14.647C21.15 7.38 39.088.791 57.009.791z" fill="#969998"/></g><path fill-rule="evenodd" clip-rule="evenodd" d="M54.15 2.165c16.205 0 26.405 5.893 22.72 13.098-3.672 7.22-19.892 13.113-36.066 13.113-16.205 0-26.405-5.893-22.735-13.113C20.452 10.618 28 6.54 37.39 4.203c.667-.174 1.35-.316 2.033-.474A71.435 71.435 0 0154.15 2.165z" fill="#0A0A08"/><path fill-rule="evenodd" clip-rule="evenodd" d="M74.21 9.353c.777 1.284.921 2.73.305 4.245-.576 1.148-1.238 2.071-2.223 2.98-5.113 4.697-16.618 8.201-28.108 8.201-13.547 0-22.09-4.868-19.004-10.837 2.12-4.109 9.307-7.844 17.913-9.69a49.557 49.557 0 013.085-.542 53.661 53.661 0 00-5.953.914c-9.541 2.094-17.632 5.474-19.987 10.155-3.414 6.807 6.049 12.357 21.078 12.357 12.314 0 24.647-3.72 30.57-8.822a13.153 13.153 0 002.067-2.243 8.48 8.48 0 00.662-1.059c1.06-2.046.857-3.984-.405-5.66z" fill="#2158F5"/><path fill-rule="evenodd" clip-rule="evenodd" d="M10.049 14.191c-.287.449-.576.78-.857.985l-.01.009c-.325.253-.75.382-1.264.382-.334 0-.563-.066-.627-.178-.006-.017-.157-.43.308-1.918.307-.943.665-1.617 1.064-2.003.495-.493 1.027-.722 1.673-.722.203 0 .371.03.474.087.077.043.138.077.162.355l.094 1.087h5.15c-.323.426-.6.885-.822 1.366h-4.993l-.352.55zm12.486.316c-.193.608-.44 1.05-.716 1.277-.283.225-.52.325-.77.325a.49.49 0 01-.104-.009c-.012-.067-.028-.306.144-.85.164-.556.405-.977.697-1.219.267-.212.514-.307.801-.307.035 0 .06.002.077.004.01.076.018.3-.13.779zm12.3-.012c-.159.537-.371.938-.6 1.128-.185.155-.342.23-.479.23h-.038a2.34 2.34 0 01.123-.596c.212-.688.452-.983.616-1.11.188-.153.35-.232.519-.256-.01.114-.043.303-.138.591l-.004.013zm36.19-5.345l1.366-4.354-7.02 2.895-.18.075-.433 1.384h-1.392l-.057.18a4.28 4.28 0 00-1.77-.388c-.474 0-.924.07-1.337.208h-5.499l-1.04 3.305a5.5 5.5 0 00-.012-.414c-.05-.717-.303-1.353-.714-1.788-.511-.581-1.232-.956-2.143-1.114-.676-.134-1.592-.197-2.883-.197-.756 0-1.47.051-2.181.157-.806.123-1.397.286-1.859.51-.686.296-1.254.655-1.688 1.068-.383.348-.733.79-1.07 1.35a4.756 4.756 0 00-.314-1.006c-.445-.948-1.448-2.079-3.696-2.079-.556 0-1.08.07-1.601.213l.002-.005h-6.006l-.865 2.746a4.32 4.32 0 00-.392-.821c-.905-1.415-2.576-2.133-4.966-2.133-1.961 0-3.706.523-5.187 1.553a8.89 8.89 0 00-.777.61v-.018c0-2.026-.553-3.46-1.691-4.382-.991-.84-2.453-1.25-4.468-1.25-2.404 0-4.52.644-6.29 1.916C3.101 8.646 1.85 10.462 1.14 12.77c-.573 1.8-.637 3.347-.19 4.597.478 1.304 1.27 2.234 2.353 2.762.974.484 2.3.73 3.942.73 1.367 0 2.562-.192 3.553-.568 1-.361 1.947-.925 2.815-1.677.396-.354.832-.823 1.23-1.324.212.98.73 1.673 1.13 2.085.978.973 2.433 1.467 4.324 1.467 1.987 0 3.753-.527 5.248-1.568a8.546 8.546 0 001.033-.844l-1.783 5.661h6.283l1.138-3.594c.548.23 1.18.345 1.876.345 1.463 0 2.832-.487 4.069-1.447a6.98 6.98 0 00.988-.945c.112.453.334.865.661 1.226.691.785 1.775 1.166 3.314 1.166 1.015 0 1.967-.15 2.829-.45.141-.049.286-.106.431-.168l.138.41h10.835l1.223-3.889c.51-1.61.976-2.253 1.208-2.492.224-.199.374-.226.503-.226.014 0 .153.004.492.153l.845.371.402-.48 1.181.002-.519 1.648c-.405 1.228-.541 2.103-.43 2.755.118.797.55 1.457 1.217 1.857.57.347 1.394.51 2.593.51.875 0 1.851-.105 2.903-.309l.51-.1.272-.053 1.052-5.13-1.882.55.539-1.727h2.064l1.546-4.924h-2.05z" fill="#fff"/><path fill-rule="evenodd" clip-rule="evenodd" d="M10.575 13.956l-.258.404c-.309.482-.624.843-.94 1.073-.381.298-.872.45-1.459.45-.472 0-.776-.115-.905-.343-.043-.074-.23-.525.282-2.162.325-.996.71-1.714 1.148-2.137.548-.546 1.167-.811 1.893-.811.263 0 .475.042.627.126.182.102.293.233.325.605l.07.798h5.534a7.119 7.119 0 00-1.291 1.997h-5.026zm12.264.642c-.215.679-.49 1.16-.817 1.428-.341.272-.65.399-.973.399-.287 0-.345-.1-.385-.167-.015-.025-.14-.27.122-1.104.183-.62.451-1.08.795-1.364.327-.26.647-.382 1.006-.382.265 0 .31.078.36.163.006.009.137.229-.108 1.027zm10.698.565c.188-.606.438-1.044.727-1.267.276-.224.537-.329.821-.329.146 0 .156.018.19.079.028.049.065.326-.136.937-.178.605-.42 1.049-.699 1.281-.245.206-.469.305-.684.305-.26 0-.303-.072-.331-.119-.001-.002-.1-.202.112-.887zm7.069-.155c.127-.45.214-.89.258-1.31l1.667.169c-.607.205-1.1.457-1.498.767a4.362 4.362 0 00-.427.374zm30.69-1.25l1.348-4.293h-2.05l1.293-4.119L65.45 8l-.458 1.464H63.6l-.098.312c-.655-.35-1.298-.519-1.963-.519-.458 0-.89.07-1.283.207h-5.319L51.785 19.48l-.03-.177c-.07-.423-.077-.634-.07-.735.007-.106.045-.332.186-.805l1.262-4.015a4.34 4.34 0 00.202-1.687c-.045-.648-.27-1.216-.63-1.596-.463-.528-1.125-.87-1.963-1.016-.661-.13-1.56-.192-2.83-.192-.74 0-1.438.05-2.135.153-.776.12-1.34.273-1.77.484-.655.281-1.195.622-1.603 1.01-.434.394-.828.922-1.205 1.614l-.304.559c0-.701-.128-1.349-.386-1.932-.405-.861-1.324-1.888-3.405-1.888-.726 0-1.411.128-2.087.39l.057-.183h-5.342L28.56 13.19a3.992 3.992 0 00-.59-1.953c-.84-1.314-2.42-1.98-4.694-1.98-1.895 0-3.578.503-5.005 1.496a8.336 8.336 0 00-1.277 1.094v-.762c0-1.925-.515-3.278-1.572-4.135-.936-.794-2.333-1.18-4.269-1.18-2.336 0-4.39.624-6.105 1.855-1.702 1.234-2.915 2.995-3.603 5.235-.553 1.737-.619 3.217-.196 4.4.45 1.224 1.187 2.093 2.194 2.584.93.462 2.21.697 3.803.697 1.327 0 2.484-.184 3.438-.546a8.664 8.664 0 002.721-1.62c.558-.5 1.174-1.213 1.658-1.914a3.958 3.958 0 001.139 2.694c.914.909 2.292 1.37 4.095 1.37 1.92 0 3.625-.508 5.067-1.511a7.691 7.691 0 001.99-1.991l-2.126 6.751h5.617l1.177-3.715c.07.036.143.07.215.1.532.243 1.156.366 1.855.366 1.39 0 2.694-.464 3.873-1.38a6.904 6.904 0 001.424-1.524c-.042.864.32 1.47.657 1.842.63.715 1.636 1.062 3.078 1.062.98 0 1.896-.145 2.725-.432a6.51 6.51 0 00.724-.306l.178.53h10.373l1.153-3.667c.507-1.602.983-2.314 1.29-2.624.242-.219.465-.316.724-.316.063 0 .25.017.621.18l.625.275.344-.412 1.762.004-.647 2.056c-.39 1.184-.524 2.014-.42 2.61.102.705.481 1.287 1.067 1.638.52.317 1.291.464 2.429.464.854 0 1.81-.102 2.842-.302l.574-.112.904-4.41-1.397.408c-.2.058-.381.105-.54.139l.777-2.491h2.064z" fill="#0A0A08"/><path fill-rule="evenodd" clip-rule="evenodd" d="M14.996 14.829c-.432.987-1.377 2.181-2.178 2.897a7.763 7.763 0 01-2.434 1.45c-.88.334-1.937.494-3.139.494-1.473 0-2.61-.208-3.41-.606-.817-.398-1.394-1.099-1.762-2.102-.353-.987-.288-2.277.208-3.838.641-2.085 1.746-3.679 3.283-4.792 1.553-1.115 3.41-1.689 5.589-1.689 1.697 0 2.93.319 3.699.972 1.04.843 1.265 2.23 1.265 3.471h-3.955c-.048-.557-.257-1.003-.769-1.29-.289-.16-.64-.239-1.057-.239-.945 0-1.794.35-2.514 1.067-.544.526-.993 1.354-1.362 2.484-.432 1.386-.512 2.342-.208 2.867.289.51.85.78 1.666.78.8 0 1.473-.223 2.002-.636.416-.303.8-.764 1.137-1.29h3.939zm8.68.031c-.272.86-.64 1.466-1.106 1.847-.48.383-.976.59-1.521.59-.528 0-.912-.207-1.136-.59-.24-.397-.225-.986.032-1.8.24-.811.608-1.4 1.088-1.799.48-.382.993-.572 1.554-.572.512 0 .88.19 1.105.572.24.383.224.973-.016 1.752zm3.554-3.153c-.672-1.051-1.985-1.576-3.954-1.576-1.715 0-3.22.446-4.5 1.337-1.298.908-2.163 2.055-2.595 3.44-.48 1.497-.256 2.708.641 3.631.736.732 1.889 1.115 3.475 1.115 1.76 0 3.282-.462 4.563-1.354 1.281-.892 2.13-2.038 2.578-3.44.4-1.242.321-2.293-.208-3.153zm8.751 3.122c-.24.812-.575 1.369-.976 1.703-.4.335-.816.51-1.249.51-.496 0-.865-.175-1.073-.526-.224-.35-.208-.891.016-1.609.24-.779.577-1.352 1.01-1.686.431-.351.88-.526 1.376-.526.432 0 .753.16.946.51.206.35.192.89-.05 1.624zm3.733-3.313c-.434-.923-1.298-1.385-2.61-1.385-.657 0-1.298.127-1.938.398-.465.19-1.026.573-1.698 1.146l.416-1.337h-3.507l-3.955 12.565h3.78l1.377-4.348c.255.366.608.637 1.024.812.417.19.913.287 1.49.287 1.184 0 2.306-.399 3.33-1.194 1.041-.813 1.794-1.96 2.274-3.473.433-1.385.433-2.531.017-3.471zm8.23 4.157c-.144.43-.321.796-.561 1.067-.24.27-.56.493-.977.684a2.984 2.984 0 01-1.265.287c-.4 0-.673-.095-.816-.27-.16-.176-.193-.399-.097-.67.065-.239.24-.445.514-.637.255-.19.799-.366 1.616-.557a28.141 28.141 0 001.76-.462l-.174.558zm4.515-3.552c-.031-.461-.176-.828-.417-1.082-.335-.383-.832-.622-1.472-.733-.64-.127-1.538-.175-2.658-.175-.705 0-1.361.048-2.002.143-.625.095-1.154.223-1.537.414-.56.24-1.024.526-1.377.86-.368.335-.704.796-1.025 1.386l3.473.35c.274-.398.546-.669.835-.812.368-.176.848-.271 1.473-.271.48 0 .784.08.928.255.13.175.13.478 0 .908a32.7 32.7 0 01-1.457.414c-.464.095-1.425.287-2.914.557-1.25.207-2.162.54-2.738.988a3.358 3.358 0 00-1.185 1.703c-.24.75-.128 1.37.32 1.863.449.51 1.249.765 2.418.765.88 0 1.696-.128 2.433-.383.545-.19 1.138-.509 1.762-.939a4.972 4.972 0 00-.048.573c0 .128.031.301.112.541h3.506c-.063-.382-.095-.7-.08-.938.017-.24.097-.574.225-1.004l1.266-4.029c.143-.43.191-.876.16-1.354zm3.123-1.783h3.507l-.464 1.48c.544-.636 1.04-1.082 1.473-1.32.432-.256.912-.367 1.441-.367.561 0 1.105.159 1.665.477l-1.938 2.485c-.4-.176-.72-.255-.975-.255-.497 0-.93.19-1.33.558-.544.541-1.057 1.53-1.52 2.993l-.963 3.057h-3.763l2.867-9.108zM70.49 6.866l-1.088 3.472h2.05l-.801 2.548h-2.065l-1.01 3.233c-.128.381-.16.636-.128.764.064.191.24.303.56.303.273 0 .688-.08 1.234-.24l-.497 2.421c-.976.19-1.874.287-2.673.287-.945 0-1.603-.111-1.97-.335-.37-.222-.593-.573-.657-1.019-.081-.461.048-1.194.384-2.214l1.008-3.2h-1.392l.8-2.548h1.393l.529-1.688 4.324-1.784z" fill="#fff"/><path d="M96.279 24.697l1.23-7.11 2.26.006c.893.003 1.558.172 1.998.507.439.336.639.806.6 1.412-.048.748-.459 1.279-1.23 1.591.277.098.491.275.644.532.157.254.223.56.201.918-.046.687-.318 1.216-.816 1.587-.495.372-1.173.557-2.036.557h-2.85zm2.197-3.022l-.298 1.704 1.001.005c.313 0 .573-.077.781-.23a.918.918 0 00.371-.62c.091-.544-.117-.828-.625-.855l-1.23-.004zm.19-1.123l.786.004c.726-.016 1.133-.294 1.221-.835.078-.533-.198-.802-.83-.805l-.889-.005-.288 1.64zm7.661.351a4.579 4.579 0 00-.498-.049c-.481-.013-.849.153-1.103.498l-.596 3.345h-1.606l.918-5.283 1.499-.005-.122.693c.345-.534.752-.8 1.22-.8.134 0 .3.022.498.068l-.21 1.533zm2.823-1.587c.472.007.88.126 1.225.357.345.228.598.547.757.957.163.41.221.866.176 1.367l-.01.107c-.091.81-.392 1.465-.903 1.963s-1.143.74-1.895.728c-.469-.007-.874-.122-1.216-.347a2.039 2.039 0 01-.761-.952 2.89 2.89 0 01-.176-1.358c.081-.866.378-1.556.889-2.07.514-.514 1.152-.765 1.914-.752zm-1.197 2.822l-.014.288c-.046.726.176 1.096.664 1.109.631.02.998-.493 1.098-1.538l.02-.445c.006-.293-.049-.525-.166-.698a.588.588 0 00-.508-.273c-.296-.01-.54.112-.732.366-.189.25-.31.648-.362 1.191zm6.065.611l-.586.508-.249 1.44h-1.607l1.304-7.505h1.607l-.743 4.004.196-.234 1.46-1.548h2.036l-2.246 2.246 1.362 3.037h-1.763l-.771-1.948zm5.43 2.046a2.485 2.485 0 01-1.265-.332 2.13 2.13 0 01-.835-.918 2.477 2.477 0 01-.225-1.3l.015-.136c.088-.869.389-1.556.903-2.06.518-.508 1.151-.752 1.9-.733.452.007.84.122 1.162.347.322.221.558.529.708.923.15.39.198.83.146 1.318l-.092.669h-3.145c.006.277.085.501.234.674.15.172.368.264.655.273.465.013.883-.166 1.255-.537l.673.894a2.001 2.001 0 01-.835.669 2.92 2.92 0 01-1.167.249h-.087zm.39-4.214a.834.834 0 00-.596.215c-.166.15-.31.4-.434.752h1.606l.03-.142a1.1 1.1 0 00.009-.322c-.055-.326-.26-.493-.615-.503zm6.128.322a4.579 4.579 0 00-.498-.049c-.482-.013-.85.153-1.103.498l-.596 3.345h-1.607l.918-5.283 1.499-.005-.122.693c.345-.534.752-.8 1.221-.8.133 0 .299.022.498.068l-.21 1.533z" fill="#2158F5"/><path d="M92.81 2.87l-5.022 25.833" stroke="url(#paint0_linear)" stroke-width="2" stroke-linecap="round"/><defs><linearGradient id="paint0_linear" x1="90.299" y1="2.87" x2="90.299" y2="28.703" gradientUnits="userSpaceOnUse"><stop stop-color="#2158F5" stop-opacity="0"/><stop offset=".302" stop-color="#2158F5"/><stop offset=".779" stop-color="#2158F5"/><stop offset="1" stop-color="#2158F5" stop-opacity="0"/></linearGradient></defs></svg>