<svg width="199" height="34" fill="none" xmlns="http://www.w3.org/2000/svg"><mask id="a" maskUnits="userSpaceOnUse" x="0" y="0" width="199" height="34"><path d="M0 34h199V0H0v34z" fill="#fff"/></mask><g mask="url(#a)"><path fill-rule="evenodd" clip-rule="evenodd" d="M89.036 16.997c-4.525 9.38-24.54 17.016-44.553 17.016-20.032 0-32.666-7.636-28.141-17.016C20.848 7.654 40.88 0 60.894 0c20.032 0 32.664 7.654 28.14 16.997z" fill="#032B76"/><path fill-rule="evenodd" clip-rule="evenodd" d="M60.445.362c19.464 0 31.714 7.419 27.287 16.49-4.409 9.09-23.89 16.508-43.316 16.508-19.463 0-31.714-7.419-27.305-16.508 2.861-5.848 11.925-10.98 23.204-13.924.8-.22 1.621-.398 2.442-.598C48.367 1.08 54.416.362 60.445.362z" fill="#0A0A08"/><path fill-rule="evenodd" clip-rule="evenodd" d="M60.153.856c19.218 0 31.34 7.16 26.999 15.9-4.341 8.774-23.543 15.918-42.744 15.918-19.219 0-31.34-7.144-26.998-15.918 4.324-8.74 23.542-15.9 42.743-15.9z" fill="#969998"/><path fill-rule="evenodd" clip-rule="evenodd" d="M57.089 2.35c17.363 0 28.291 6.403 24.342 14.234-3.933 7.846-21.312 14.251-38.641 14.251-17.363 0-28.292-6.405-24.359-14.251 2.553-5.048 10.639-9.479 20.7-12.02.714-.19 1.447-.343 2.178-.515a75.498 75.498 0 0115.78-1.7z" fill="#0A0A08"/><path fill-rule="evenodd" clip-rule="evenodd" d="M78.582 10.16c.833 1.397.987 2.968.328 4.615-.618 1.247-1.327 2.25-2.383 3.238-5.478 5.105-17.805 8.913-30.116 8.913-14.515 0-23.668-5.29-20.36-11.777 2.271-4.466 9.97-8.525 19.192-10.531a52.414 52.414 0 013.305-.59c-2.169.22-4.291.54-6.379.994-10.222 2.275-18.891 5.948-21.414 11.037-3.657 7.396 6.48 13.428 22.584 13.428 13.194 0 26.407-4.043 32.754-9.587a14.219 14.219 0 002.214-2.438 9.17 9.17 0 00.709-1.15c1.136-2.225.919-4.33-.434-6.151z" fill="#279ED4"/><path fill-rule="evenodd" clip-rule="evenodd" d="M9.838 15.419c-.308.488-.617.848-.918 1.07l-.012.01c-.347.276-.803.416-1.353.416-.358 0-.603-.072-.672-.195-.007-.018-.168-.466.33-2.084.329-1.025.713-1.757 1.14-2.176.53-.536 1.1-.785 1.792-.785.218 0 .398.034.508.095.083.047.148.084.173.385l.101 1.181h5.519a8.049 8.049 0 00-.881 1.485h-5.35l-.377.598zm13.377.343c-.206.661-.47 1.142-.767 1.388-.303.245-.557.354-.825.354a.515.515 0 01-.111-.01c-.012-.073-.03-.332.154-.925.176-.603.435-1.06.747-1.324.286-.23.551-.333.859-.333a.63.63 0 01.083.004c.01.082.018.326-.14.846zm13.179-.013c-.17.584-.397 1.02-.641 1.226-.2.17-.368.251-.514.251h-.04c.002-.103.025-.307.13-.648.228-.748.485-1.07.66-1.207.202-.166.375-.252.556-.278a2.97 2.97 0 01-.147.643l-.004.013zm38.777-5.81l1.463-4.73-7.522 3.146-.192.081-.464 1.504h-1.492l-.06.197a4.53 4.53 0 00-1.898-.422c-.507 0-.989.076-1.432.225h-5.891l-1.115 3.592a6.039 6.039 0 00-.013-.45c-.053-.779-.324-1.47-.764-1.943-.548-.632-1.32-1.039-2.297-1.21-.723-.146-1.705-.214-3.089-.214-.809 0-1.574.055-2.337.17-.863.134-1.496.31-1.991.554-.735.322-1.344.712-1.81 1.161-.41.378-.784.858-1.144 1.468a5.221 5.221 0 00-.337-1.094c-.477-1.03-1.552-2.26-3.96-2.26-.596 0-1.158.076-1.716.232l.002-.006h-6.435l-.926 2.985a4.71 4.71 0 00-.42-.893c-.97-1.537-2.76-2.317-5.322-2.317-2.1 0-3.97.568-5.557 1.688-.292.207-.572.43-.833.661v-.019c0-2.202-.592-3.76-1.811-4.761-1.062-.915-2.628-1.36-4.787-1.36-2.576 0-4.844.701-6.74 2.083-1.886 1.385-3.228 3.36-3.987 5.867-.615 1.958-.684 3.639-.205 4.996.513 1.418 1.361 2.428 2.521 3.002 1.043.526 2.464.793 4.224.793 1.464 0 2.745-.207 3.806-.617 1.072-.392 2.086-1.005 3.016-1.822.425-.385.891-.895 1.319-1.44a4.7 4.7 0 001.21 2.267c1.048 1.058 2.607 1.594 4.633 1.594 2.129 0 4.02-.573 5.623-1.704.398-.28.77-.589 1.106-.918l-1.91 6.154h6.732l1.22-3.907c.587.25 1.263.375 2.01.375 1.567 0 3.034-.529 4.359-1.572.378-.3.734-.645 1.059-1.027.12.492.358.94.708 1.332.74.853 1.902 1.267 3.55 1.267 1.089 0 2.108-.164 3.032-.488a7.05 7.05 0 00.461-.184l.148.447h11.609l1.31-4.227c.547-1.75 1.047-2.449 1.295-2.708.24-.217.4-.247.538-.247.016 0 .165.005.528.167l.906.403.43-.522 1.265.003-.555 1.79c-.434 1.335-.58 2.286-.46 2.995.125.866.588 1.583 1.303 2.018.61.378 1.493.553 2.778.553.937 0 1.983-.112 3.11-.334l.547-.108.291-.058 1.127-5.576-2.017.597.578-1.876h2.211l1.657-5.352h-2.196z" fill="#fff"/><path fill-rule="evenodd" clip-rule="evenodd" d="M10.402 15.164l-.277.44c-.33.523-.668.915-1.006 1.165-.409.324-.935.489-1.564.489-.505 0-.832-.125-.97-.373-.046-.08-.245-.57.303-2.35.347-1.082.76-1.863 1.23-2.322.587-.593 1.25-.882 2.028-.882.282 0 .508.047.672.138.194.11.314.253.348.657l.074.867h5.93a7.752 7.752 0 00-1.383 2.17h-5.385zm13.14.698c-.23.737-.525 1.26-.876 1.552-.365.295-.696.433-1.042.433-.307 0-.37-.109-.412-.182-.017-.027-.151-.293.13-1.2.197-.673.484-1.172.852-1.482.35-.283.693-.415 1.078-.415.283 0 .333.085.386.177.006.01.147.25-.117 1.117zm11.462.614c.201-.66.47-1.135.779-1.377.295-.244.575-.357.88-.357.156 0 .166.019.202.085.032.053.071.354-.144 1.018-.191.658-.45 1.14-.75 1.393-.262.223-.502.331-.732.331-.278 0-.325-.078-.355-.13-.002-.002-.108-.22.12-.963zm7.574-.169c.136-.49.229-.966.276-1.423l1.786.183c-.65.222-1.178.497-1.605.833a4.807 4.807 0 00-.457.407zM75.46 14.95l1.445-4.666h-2.196l1.384-4.477-6.895 2.885-.491 1.592h-1.492l-.105.338c-.702-.379-1.392-.563-2.103-.563a4.11 4.11 0 00-1.376.225h-5.698l-3.378 10.885-.031-.192c-.076-.46-.083-.689-.077-.799.008-.115.05-.36.2-.875L56 14.94c.19-.575.26-1.175.217-1.834-.048-.704-.289-1.321-.676-1.735-.495-.573-1.204-.945-2.102-1.103-.708-.143-1.672-.209-3.032-.209-.793 0-1.541.054-2.288.166-.83.13-1.435.297-1.896.526-.702.306-1.28.676-1.717 1.097-.466.429-.888 1.003-1.291 1.755l-.326.607c0-.762-.138-1.465-.414-2.099-.434-.936-1.418-2.052-3.648-2.052a6.02 6.02 0 00-2.236.423l.06-.198h-5.722l-1.257 4.049a4.385 4.385 0 00-.631-2.122c-.9-1.428-2.593-2.152-5.03-2.152-2.03 0-3.834.547-5.362 1.626-.51.362-.967.759-1.368 1.189v-.828c0-2.092-.552-3.563-1.685-4.495-1.003-.863-2.499-1.282-4.574-1.282-2.503 0-4.704.678-6.54 2.017C2.655 9.625 1.356 11.54.62 13.974.027 15.86-.043 17.47.41 18.756c.481 1.33 1.272 2.274 2.35 2.808.997.502 2.368.757 4.075.757 1.422 0 2.662-.2 3.683-.593 1.037-.38 2.017-.972 2.916-1.762.598-.542 1.258-1.317 1.777-2.079a4.33 4.33 0 001.22 2.928c.979.988 2.455 1.489 4.387 1.489 2.058 0 3.884-.553 5.429-1.642a8.301 8.301 0 002.132-2.165L26.1 25.835h6.019l1.26-4.037c.076.039.154.075.231.109.57.263 1.239.397 1.988.397 1.49 0 2.886-.505 4.15-1.5a7.461 7.461 0 001.525-1.656 2.744 2.744 0 00.704 2.002c.674.776 1.753 1.154 3.298 1.154 1.05 0 2.032-.158 2.92-.47a7.11 7.11 0 00.775-.332l.19.576h11.114l1.236-3.985c.544-1.742 1.054-2.515 1.381-2.853.26-.237.5-.343.777-.343.067 0 .269.019.665.196l.67.299.369-.448 1.888.004-.694 2.235c-.418 1.287-.561 2.189-.45 2.837.11.766.516 1.398 1.143 1.78.557.344 1.384.504 2.603.504.915 0 1.94-.11 3.045-.329l.615-.121.969-4.793-1.497.443a8.462 8.462 0 01-.58.152l.834-2.707h2.211z" fill="#0A0A08"/><path fill-rule="evenodd" clip-rule="evenodd" d="M15.139 16.112c-.463 1.073-1.476 2.37-2.333 3.15a8.294 8.294 0 01-2.609 1.575c-.943.363-2.075.536-3.362.536-1.58 0-2.797-.225-3.655-.658-.875-.432-1.493-1.194-1.887-2.284-.378-1.073-.31-2.475.223-4.171.686-2.266 1.87-3.998 3.517-5.209 1.664-1.211 3.655-1.835 5.988-1.835 1.818 0 3.14.346 3.963 1.056 1.115.917 1.356 2.423 1.356 3.773h-4.238c-.051-.606-.275-1.09-.823-1.402-.31-.173-.687-.26-1.133-.26-1.013 0-1.922.38-2.694 1.16-.583.571-1.064 1.471-1.459 2.7-.463 1.505-.548 2.544-.223 3.115.31.555.91.848 1.785.848.858 0 1.578-.242 2.145-.692.446-.33.857-.83 1.218-1.402h4.22zm9.299.035c-.291.934-.686 1.592-1.184 2.007-.515.416-1.046.64-1.63.64-.566 0-.978-.224-1.218-.64-.257-.432-.24-1.073.035-1.956.257-.882.651-1.523 1.166-1.955.515-.416 1.064-.623 1.665-.623.548 0 .943.207 1.184.623.257.415.24 1.056-.018 1.904zm3.809-3.427c-.72-1.143-2.127-1.714-4.237-1.714-1.837 0-3.45.486-4.821 1.454-1.39.986-2.318 2.233-2.78 3.738-.515 1.627-.275 2.943.686 3.947.789.796 2.024 1.211 3.723 1.211 1.886 0 3.517-.502 4.89-1.471 1.372-.97 2.282-2.216 2.762-3.738.429-1.35.343-2.493-.223-3.427zm9.376 3.392c-.257.883-.617 1.488-1.046 1.852-.429.363-.875.554-1.338.554-.532 0-.927-.19-1.15-.572-.24-.38-.222-.969.017-1.748.258-.847.618-1.47 1.082-1.834.462-.38.942-.57 1.474-.57.464 0 .807.172 1.014.553.221.38.205.969-.053 1.765zm3.999-3.6c-.465-1.003-1.39-1.506-2.797-1.506-.704 0-1.39.139-2.076.433-.498.208-1.099.623-1.819 1.246l.446-1.454h-3.758L27.38 24.887h4.05l1.476-4.725a2.51 2.51 0 001.098.883c.446.206.977.311 1.595.311 1.27 0 2.471-.433 3.569-1.298 1.115-.883 1.921-2.129 2.436-3.773.464-1.506.464-2.752.018-3.774zm8.818 4.518c-.154.467-.344.865-.601 1.16-.257.293-.6.535-1.046.743a3.16 3.16 0 01-1.356.312c-.428 0-.72-.104-.874-.295-.172-.19-.207-.432-.104-.726.07-.26.257-.485.55-.693.274-.207.856-.398 1.732-.606a29.8 29.8 0 001.887-.502l-.187.607zm4.838-3.86c-.034-.502-.188-.9-.447-1.176-.36-.417-.892-.676-1.578-.797-.685-.138-1.647-.19-2.847-.19-.756 0-1.458.052-2.145.155-.67.103-1.236.243-1.647.45-.6.26-1.097.571-1.475.935-.395.363-.755.865-1.098 1.506l3.72.38c.294-.432.585-.726.895-.883.395-.19.91-.294 1.578-.294.514 0 .84.087.994.277.14.19.14.52 0 .987-.564.173-1.08.329-1.56.45-.498.103-1.528.312-3.123.605-1.338.225-2.316.588-2.933 1.074a3.65 3.65 0 00-1.27 1.852c-.257.813-.136 1.487.343 2.024.481.554 1.338.831 2.591.831.942 0 1.817-.139 2.606-.416.585-.207 1.22-.553 1.888-1.02a5.48 5.48 0 00-.05.622c0 .14.033.328.119.588h3.757c-.068-.415-.103-.76-.086-1.02.018-.26.104-.623.24-1.09l1.358-4.379a3.85 3.85 0 00.17-1.471zm3.345-1.939h3.758l-.498 1.61c.584-.693 1.116-1.177 1.58-1.436.462-.277.976-.399 1.543-.399.601 0 1.184.174 1.784.52l-2.076 2.7c-.428-.192-.771-.277-1.046-.277-.531 0-.996.207-1.425.606-.582.588-1.132 1.662-1.629 3.253l-1.03 3.322h-4.033l3.072-9.899zm15.974-3.773l-1.166 3.773h2.195l-.857 2.77h-2.213l-1.082 3.513c-.137.415-.171.692-.137.83.068.208.257.33.6.33.292 0 .737-.087 1.322-.26l-.532 2.63c-1.046.207-2.008.312-2.864.312-1.012 0-1.717-.12-2.112-.364-.395-.241-.634-.623-.703-1.107-.087-.501.052-1.298.412-2.406l1.08-3.478h-1.492l.858-2.77h1.492l.567-1.834 4.632-1.939z" fill="#fff"/><path d="M103.438 14.396c-.708-.014-1.333-.18-1.875-.498-.537-.322-.964-.783-1.281-1.384-.313-.605-.493-1.299-.542-2.08-.054-.8.032-1.655.256-2.563.225-.909.586-1.707 1.084-2.395.498-.689 1.082-1.204 1.751-1.546a4.558 4.558 0 012.182-.49c.718.014 1.345.185 1.883.512.537.322.959.789 1.267 1.4.307.605.483 1.293.527 2.064a8.62 8.62 0 01-.278 2.652c-.235.908-.599 1.694-1.092 2.358-.493.664-1.071 1.162-1.736 1.494a4.506 4.506 0 01-2.146.476zm3.04-5.771l.059-.696c.048-.869-.069-1.528-.352-1.977-.278-.45-.703-.684-1.274-.703-.894-.03-1.604.366-2.132 1.186-.522.82-.818 1.968-.886 3.442-.049.865.066 1.531.344 2 .279.464.711.705 1.297.725.766.034 1.401-.264 1.904-.893.503-.635.833-1.531.989-2.688l.051-.396zm6.46-2.454c.312.01.637.088.974.235L114.579 3h2.065l-.666 3.413a2.19 2.19 0 01.937-.22c.737 0 1.306.29 1.707.872.4.576.605 1.372.615 2.388 0 .312-.015.605-.044.879l-.066.454c-.2 1.171-.596 2.075-1.187 2.71-.586.634-1.301.94-2.146.915a2.919 2.919 0 01-1.018-.234l-.615 3.12h-2.065l.615-3.113a2.208 2.208 0 01-.916.198c-.664 0-1.196-.23-1.596-.689-.401-.463-.637-1.125-.711-1.984l-.014-.315c-.01-.293 0-.577.029-.85l.059-.41c.2-1.28.593-2.266 1.179-2.96.586-.693 1.318-1.027 2.197-1.003zm4.175 4.131a7.58 7.58 0 00.066-.93c0-.952-.293-1.443-.879-1.472a3.134 3.134 0 00-.462.037l-.908 4.738.41.044c.879.015 1.448-.637 1.707-1.955l.051-.308.015-.154zm-5.596 1.114c0 .893.369 1.315 1.106 1.267l.227-.022.908-4.74a1.704 1.704 0 00-.381-.05c-.957-.015-1.552.825-1.787 2.52-.053.556-.078.898-.073 1.024zm14.275-5.091h2.131l-1.369 7.925h-2.073l.828-4.746-3.318 4.746h-2.139l1.377-7.925h2.073l-.828 4.739 3.318-4.739zm3.772 0h2.065l-1.076 6.218h2.556l1.077-6.218h2.072l-1.076 6.233h1.157l-.85 4.043h-1.926l.41-2.351h-5.786l1.377-7.925zm13.513 0h2.131l-1.369 7.925h-2.073l.828-4.746-3.318 4.746h-2.139l1.377-7.925h2.073l-.828 4.739 3.318-4.739zm6.98 7.925c-.063-.2-.09-.44-.08-.718-.596.596-1.27.884-2.022.864-.693-.01-1.269-.234-1.728-.673-.455-.445-.667-.992-.638-1.641.035-.864.396-1.526 1.084-1.985.694-.464 1.621-.696 2.784-.696l.966.015.103-.476a1.69 1.69 0 00.022-.461c-.025-.23-.112-.408-.264-.535-.146-.132-.342-.2-.586-.205a1.25 1.25 0 00-.82.241c-.225.166-.369.408-.432.726l-2.073.007c.034-.757.381-1.37 1.04-1.838.664-.474 1.482-.706 2.454-.696.898.02 1.601.288 2.109.805.508.513.72 1.175.637 1.985l-.608 3.794-.036.469c-.01.347.031.64.124.879l-.007.139h-2.029zm-1.589-1.457c.595.019 1.115-.24 1.56-.777l.256-1.37-.718-.007c-.761.02-1.311.252-1.648.696a1.218 1.218 0 00-.227.593c-.039.264.015.474.162.63.151.152.356.23.615.235zm12.956-6.468l-1.369 7.925h-2.073l1.084-6.21h-1.795l-.659 3.039c-.268 1.113-.649 1.919-1.142 2.417-.489.493-1.109.744-1.861.754h-.864l.227-1.714.374-.03c.722-.116 1.211-.858 1.465-2.226l.102-.578.703-3.377h5.808zm3.457 2.322l1.172.007c.982.005 1.758.257 2.329.755.576.498.838 1.164.784 2-.054.864-.417 1.554-1.091 2.072-.674.513-1.543.769-2.608.769h-3.633l1.377-7.925h2.081l-.411 2.322zm-.293 1.7l-.38 2.211 1.325.007c.42-.01.769-.114 1.048-.314.283-.2.456-.479.52-.835.058-.342-.003-.599-.184-.77-.175-.175-.427-.273-.754-.293l-1.575-.007zm11.997 3.903h-2.08l.535-3.047h-2.534l-.535 3.047h-2.065l1.377-7.925h2.065l-.556 3.179h2.541l.549-3.179h2.08l-1.377 7.925zm4.834-5.603l1.172.007c.982.005 1.758.257 2.329.755.577.498.838 1.164.784 2-.054.864-.417 1.554-1.091 2.072-.674.513-1.543.769-2.608.769h-3.632l1.377-7.925h2.08l-.411 2.322zm-.293 1.7l-.38 2.211 1.325.007c.42-.01.769-.114 1.048-.314.283-.2.456-.479.52-.835.058-.342-.003-.599-.183-.77-.176-.175-.428-.273-.755-.293l-1.575-.007zm7.361 3.903h-2.065l1.377-7.925h2.065l-1.377 7.925zm7.808-7.925h2.131l-1.369 7.925h-2.073l.828-4.746-3.318 4.746h-2.139l1.377-7.925h2.073l-.828 4.739 3.318-4.739zm1.75-3.23c-.029.679-.285 1.218-.769 1.619-.483.4-1.086.59-1.809.571-.674-.01-1.225-.207-1.655-.593-.425-.39-.642-.923-.652-1.597l1.45.015c-.019.635.262.957.843.967.317.01.571-.074.761-.25.191-.18.313-.42.367-.717l1.464-.015zm-90.586 16.271h-4.614l-.359 2.065 1.399.008c1.167.004 2.083.307 2.747.908.664.6.959 1.399.886 2.395-.078 1.06-.522 1.909-1.333 2.549-.81.64-1.843.959-3.098.959h-3.955l1.853-10.664h6.782l-.308 1.78zm-5.28 3.838l-.572 3.28 1.568.008c.566 0 1.052-.159 1.457-.476.41-.322.657-.754.74-1.296.064-.445-.027-.801-.271-1.07-.244-.273-.613-.42-1.106-.44l-1.816-.006zm13.344 1.106c-.102.83-.319 1.567-.651 2.212-.332.644-.745 1.123-1.238 1.435a2.867 2.867 0 01-1.641.447c-.766-.02-1.372-.305-1.816-.857l-.725 3.75h-2.066l1.897-10.972 1.905-.007-.14.798c.572-.644 1.245-.957 2.022-.937.776.02 1.379.302 1.809.85.43.541.659 1.279.688 2.211.01.303-.005.66-.044 1.07zm-2.05-.154l.044-.703c.009-.474-.079-.85-.264-1.128-.181-.279-.447-.423-.798-.432-.601-.02-1.097.234-1.487.761l-.593 3.267c.18.493.568.75 1.164.769.498.015.913-.178 1.245-.579.332-.4.562-1.052.689-1.955zm7.236-3.977c.698.01 1.299.19 1.802.542.508.346.879.827 1.113 1.443.239.61.325 1.289.256 2.036-.112 1.26-.551 2.28-1.318 3.061-.762.777-1.704 1.155-2.827 1.136-.689-.01-1.284-.186-1.787-.528-.503-.346-.874-.825-1.114-1.435-.239-.61-.324-1.285-.256-2.022.127-1.308.571-2.348 1.333-3.12.762-.772 1.694-1.143 2.798-1.113zm-2.087 4.988c.009.468.119.84.329 1.113.21.268.506.407.886.417.635.02 1.133-.27 1.495-.871.361-.606.529-1.4.505-2.38-.02-.47-.134-.843-.344-1.121-.205-.284-.501-.43-.887-.44-.615-.02-1.108.271-1.479.872-.366.595-.535 1.399-.505 2.41zm9.448.161h-.879l-.505 2.922h-2.073l1.377-7.925h2.072l-.527 2.981h.652l2.197-2.98 2.747.006-3.267 3.882 2.014 4.036h-2.644l-1.164-2.922zm8.335 3.068c-.694-.004-1.309-.173-1.846-.505a3.123 3.123 0 01-1.194-1.377c-.263-.586-.366-1.23-.307-1.933l.022-.293c.073-.772.297-1.48.673-2.124.376-.645.86-1.14 1.451-1.487a3.568 3.568 0 011.963-.498c1.02.02 1.791.395 2.314 1.128.527.727.727 1.65.601 2.768l-.118.901h-4.856c-.019.513.105.923.374 1.23.268.308.635.467 1.099.477.752.02 1.411-.271 1.977-.872l.945 1.172c-.298.45-.728.8-1.289 1.055a4.254 4.254 0 01-1.809.358zm.659-6.51a1.48 1.48 0 00-1.018.358c-.293.25-.557.681-.791 1.297h2.842l.044-.19a1.97 1.97 0 00.007-.557c-.049-.284-.169-.503-.359-.66-.19-.16-.432-.244-.725-.249zm11.125 2.424c-.102.83-.319 1.567-.651 2.212-.332.644-.745 1.123-1.238 1.435a2.867 2.867 0 01-1.641.447c-.766-.02-1.372-.305-1.816-.857l-.725 3.75h-2.066l1.897-10.972 1.905-.007-.14.798c.572-.644 1.245-.957 2.022-.937.776.02 1.379.302 1.809.85.43.541.659 1.279.688 2.211.01.303-.004.66-.044 1.07zm-2.05-.154l.044-.703c.009-.474-.079-.85-.264-1.128-.181-.279-.447-.423-.798-.432-.601-.02-1.097.234-1.487.761l-.593 3.267c.18.493.568.75 1.164.769.498.015.913-.178 1.245-.579.332-.4.562-1.052.689-1.955z" fill="#fff"/></g></svg>