<svg xmlns="http://www.w3.org/2000/svg" width="59.048" height="21.998"><defs><clipPath id="a"><path data-name="Rectangle 3606" d="M0 0h48.935v21.999H0z"/></clipPath><clipPath id="b"><path data-name="Rectangle 3603" d="M0 0h48.968v22.021H0z"/></clipPath><clipPath id="c"><path data-name="Rectangle 3608" d="M0 0h47.493v21.758H0z"/></clipPath><clipPath id="d"><path data-name="Rectangle 3613" d="M0 0h46.993v20.81H0z"/></clipPath></defs><g data-name="Group 11782"><g data-name="Group 11781" transform="translate(10.114 .001)" clip-path="url(#a)"><g data-name="Group 11780"><g data-name="Group 11776" clip-path="url(#b)" transform="translate(-.021)"><g data-name="Group 11775"><g data-name="Group 11774" clip-path="url(#b)"><path data-name="Path 23487" d="M48.151 10.968c-2.953 6.053-16.013 10.981-29.071 10.981S-2.236 17.021.717 10.968C3.658 4.938 16.729-.001 29.789-.001s21.314 4.943 18.362 10.969z" fill="#032b76" fill-rule="evenodd"/></g></g></g><g data-name="Group 11779" clip-path="url(#b)" transform="translate(-.021)"><g data-name="Group 11778"><g data-name="Group 11777" clip-path="url(#b)"><path data-name="Path 23488" d="M48.151 10.968c-2.953 6.053-16.013 10.981-29.071 10.981S-2.236 17.021.717 10.968C3.658 4.938 16.729-.001 29.789-.001s21.314 4.943 18.362 10.969z" fill="#032b76" fill-rule="evenodd"/></g></g></g></g></g></g><g data-name="Group 11791"><g data-name="Group 11790" transform="translate(10.114 .001)" clip-path="url(#a)"><g data-name="Group 11789"><g data-name="Group 11785" clip-path="url(#c)" transform="translate(.48)"><g data-name="Group 11784"><g data-name="Group 11783" clip-path="url(#c)"><path data-name="Path 23489" d="M28.995.236c12.7 0 20.694 4.788 17.805 10.641S31.211 21.531 18.536 21.531c-12.7 0-20.694-4.788-17.818-10.654C2.585 7.103 8.5 3.791 15.859 1.891c.522-.142 1.058-.257 1.594-.386A54.1 54.1 0 0128.995.235" fill="#0a0b09" fill-rule="evenodd"/></g></g></g><g data-name="Group 11788" clip-path="url(#c)" transform="translate(.48)"><g data-name="Group 11787"><g data-name="Group 11786" clip-path="url(#c)"><path data-name="Path 23490" d="M28.995.236c12.7 0 20.694 4.788 17.805 10.641S31.211 21.531 18.536 21.531c-12.7 0-20.694-4.788-17.818-10.654C2.585 7.103 8.5 3.791 15.859 1.891c.522-.142 1.058-.257 1.594-.386A54.1 54.1 0 0128.995.235" fill="#0a0b09" fill-rule="evenodd"/></g></g></g></g></g></g><g data-name="Group 11800"><g data-name="Group 11799" transform="translate(10.114 .001)" clip-path="url(#a)"><g data-name="Group 11798"><g data-name="Group 11794" clip-path="url(#d)" transform="translate(.717 .474)"><g data-name="Group 11793"><g data-name="Group 11792" clip-path="url(#d)"><path data-name="Path 23491" d="M28.567.08c12.541 0 20.45 4.621 17.617 10.261-2.833 5.662-15.362 10.273-27.891 10.273S-2.157 16.003.676 10.341C3.497 4.701 16.037.08 28.567.08" fill="#969998" fill-rule="evenodd"/></g></g></g><g data-name="Group 11797" clip-path="url(#d)" transform="translate(.717 .474)"><g data-name="Group 11796"><g data-name="Group 11795" clip-path="url(#d)"><path data-name="Path 23492" d="M28.567.08c12.541 0 20.45 4.621 17.617 10.261-2.833 5.662-15.362 10.273-27.891 10.273S-2.157 16.003.676 10.341C3.497 4.701 16.037.08 28.567.08" fill="#969998" fill-rule="evenodd"/></g></g></g></g></g></g><path data-name="Path 23493" d="M37.399 1.519c11.33 0 18.461 4.133 15.884 9.186s-13.907 9.2-25.214 9.2c-11.329 0-18.461-4.133-15.895-9.2 1.666-3.258 6.942-6.117 13.507-7.757.466-.122.944-.222 1.422-.333a49.8 49.8 0 0110.3-1.1" fill="#0a0b09" fill-rule="evenodd"/><path data-name="Path 23494" d="M51.423 6.56a3.2 3.2 0 01.214 2.978 6.928 6.928 0 01-1.555 2.09c-3.575 3.295-11.618 5.752-19.651 5.752-9.471 0-15.444-3.415-13.286-7.6 1.483-2.882 6.507-5.5 12.524-6.8a34.646 34.646 0 012.157-.381 37.381 37.381 0 00-4.162.641c-6.671 1.468-12.327 3.839-13.973 7.123-2.387 4.774 4.229 8.666 14.736 8.666 8.609 0 17.231-2.609 21.373-6.187a9.207 9.207 0 001.445-1.573 5.917 5.917 0 00.463-.742 3.527 3.527 0 00-.283-3.969" fill="#2158F5" fill-rule="evenodd"/><path data-name="Path 23495" d="M49.198 6.418l.955-3.054-4.908 2.031-.125.052-.3.971h-.973l-.04.127a2.984 2.984 0 00-1.238-.272 2.948 2.948 0 00-.934.145h-3.849l-.728 2.318c0-.095 0-.192-.008-.29a2.029 2.029 0 00-.5-1.255 2.5 2.5 0 00-1.5-.781 10.811 10.811 0 00-2.015-.138 10.307 10.307 0 00-1.525.109 4.557 4.557 0 00-1.3.358 4 4 0 00-1.18.749 4.1 4.1 0 00-.747.947 3.342 3.342 0 00-.22-.706 2.6 2.6 0 00-2.584-1.458 4.159 4.159 0 00-1.119.149h-4.2l-.6 1.927a3.022 3.022 0 00-.275-.576 3.811 3.811 0 00-3.472-1.5 6.2 6.2 0 00-3.626 1.089 6.314 6.314 0 00-.543.427v-.012a3.7 3.7 0 00-1.182-3.073 4.685 4.685 0 00-3.124-.877 7.355 7.355 0 00-4.4 1.344 7.111 7.111 0 00-2.6 3.787 5.069 5.069 0 00-.134 3.224 3.313 3.313 0 001.645 1.937 6.259 6.259 0 002.756.511 7 7 0 002.484-.4 6.252 6.252 0 001.968-1.176 7.757 7.757 0 00.86-.929 3.024 3.024 0 00.789 1.463 4.121 4.121 0 003.023 1.029 6.278 6.278 0 003.67-1.1 5.936 5.936 0 00.722-.592l-1.246 3.971h4.392l.8-2.521a3.374 3.374 0 001.312.242 4.548 4.548 0 002.844-1.015 4.889 4.889 0 00.691-.663 1.979 1.979 0 00.462.86 2.91 2.91 0 002.317.818 6.024 6.024 0 001.978-.315c.1-.035.2-.075.3-.119l.1.288h7.575l.855-2.728a4.526 4.526 0 01.844-1.748.492.492 0 01.351-.159 1 1 0 01.345.107l.591.26.281-.338h.826l-.363 1.156a4.244 4.244 0 00-.3 1.932 1.79 1.79 0 00.851 1.3 3.489 3.489 0 001.813.357 10.715 10.715 0 002.03-.216l.357-.07.19-.037.735-3.6-1.316.385.377-1.211h1.443l1.081-3.454h-1.433zm-25.3 3.749a1.689 1.689 0 01-.418.791.558.558 0 01-.335.162h-.026a1.639 1.639 0 01.086-.418 1.525 1.525 0 01.431-.779.732.732 0 01.363-.179 1.907 1.907 0 01-.1.415zm-8.6.009a1.923 1.923 0 01-.5.9.851.851 0 01-.538.228.33.33 0 01-.073-.006 1.43 1.43 0 01.1-.6 1.747 1.747 0 01.487-.855.86.86 0 01.56-.215.421.421 0 01.054 0 1.389 1.389 0 01-.092.547zm-8.729-.222a2.554 2.554 0 01-.6.691l-.008.006a1.394 1.394 0 01-.883.268c-.233 0-.393-.047-.438-.125 0-.012-.11-.3.215-1.345a3.482 3.482 0 01.744-1.4 1.575 1.575 0 011.17-.507.729.729 0 01.331.061c.054.03.1.054.113.249l.066.762h3.6a5.2 5.2 0 00-.575.958H6.813z" fill="#fffffe" fill-rule="evenodd"/><path data-name="Path 23496" d="M49.387 9.65l.942-3.011h-1.433l.9-2.889-4.5 1.862-.32 1.027h-.974l-.069.218a2.866 2.866 0 00-1.372-.364 2.709 2.709 0 00-.9.145h-3.718l-2.2 7.025-.021-.124a2.517 2.517 0 01-.05-.515 3.012 3.012 0 01.131-.565l.882-2.816a3.049 3.049 0 00.141-1.183 1.8 1.8 0 00-.441-1.12 2.281 2.281 0 00-1.372-.712 10.626 10.626 0 00-1.978-.135 10.048 10.048 0 00-1.493.107 4.321 4.321 0 00-1.238.339 3.79 3.79 0 00-1.12.708 4.225 4.225 0 00-.842 1.132l-.213.392a3.322 3.322 0 00-.27-1.355 2.383 2.383 0 00-2.381-1.324 3.964 3.964 0 00-1.459.273l.04-.128h-3.734l-.82 2.613a2.807 2.807 0 00-.412-1.369 3.605 3.605 0 00-3.282-1.389 5.985 5.985 0 00-3.5 1.049 5.837 5.837 0 00-.893.767v-.534a3.5 3.5 0 00-1.1-2.9 4.486 4.486 0 00-2.984-.828 7.139 7.139 0 00-4.268 1.3A6.9 6.9 0 00.547 9.018a4.864 4.864 0 00-.137 3.086 3.1 3.1 0 001.533 1.812 6.052 6.052 0 002.659.489 6.792 6.792 0 002.4-.383 6.052 6.052 0 001.9-1.137 7.965 7.965 0 001.159-1.342 2.78 2.78 0 00.8 1.89 3.907 3.907 0 002.863.961 6.06 6.06 0 003.542-1.06 5.385 5.385 0 001.391-1.4l-1.486 4.735h3.927l.823-2.606c.049.025.1.049.151.07a3.1 3.1 0 001.3.257 4.331 4.331 0 002.708-.968 4.835 4.835 0 00.995-1.068 1.76 1.76 0 00.46 1.292 2.709 2.709 0 002.152.745 5.8 5.8 0 001.9-.3 4.62 4.62 0 00.506-.215l.125.372h7.252l.806-2.572a4.681 4.681 0 01.9-1.841.727.727 0 01.506-.222 1.173 1.173 0 01.434.126l.437.193.24-.289h1.232l-.452 1.442a4.059 4.059 0 00-.294 1.831 1.574 1.574 0 00.746 1.149 3.3 3.3 0 001.7.325 10.5 10.5 0 001.987-.212l.4-.078.632-3.093-.977.286a6.92 6.92 0 01-.378.1l.544-1.747h1.443zm-21.457.877a5.474 5.474 0 00.18-.919l1.165.118a3.517 3.517 0 00-1.047.538 3.11 3.11 0 00-.298.268zm-4.942.109a1.794 1.794 0 01.508-.889.886.886 0 01.574-.23c.1 0 .109.012.132.055a1.146 1.146 0 01-.094.657 1.864 1.864 0 01-.489.9.758.758 0 01-.478.214c-.182 0-.212-.051-.232-.084 0-.003-.069-.143.079-.627zm-7.48-.4a2.1 2.1 0 01-.571 1 1.077 1.077 0 01-.68.279c-.2 0-.241-.07-.269-.117-.011-.017-.1-.189.085-.774a1.924 1.924 0 01.556-.957 1.087 1.087 0 01.7-.268c.185 0 .217.055.252.114.008.012.099.166-.072.726zm-8.574-.45l-.181.284a2.769 2.769 0 01-.657.752 1.61 1.61 0 01-1.02.316c-.33 0-.543-.081-.633-.241-.03-.052-.16-.368.2-1.516a3.694 3.694 0 01.8-1.5 1.8 1.8 0 011.324-.569.918.918 0 01.439.089c.127.071.2.163.227.424l.048.56h3.869a5 5 0 00-.9 1.4z" fill="#0a0b09" fill-rule="evenodd"/><path data-name="Path 23497" d="M10.025 10.401a6.782 6.782 0 01-1.522 2.032 5.422 5.422 0 01-1.7 1.017 6.2 6.2 0 01-2.194.346 5.452 5.452 0 01-2.385-.424 2.49 2.49 0 01-1.231-1.474 4.284 4.284 0 01.145-2.692 6.284 6.284 0 012.3-3.361 6.506 6.506 0 013.907-1.184 3.958 3.958 0 012.586.682 3.016 3.016 0 01.884 2.435H8.05a1.053 1.053 0 00-.537-.9 1.508 1.508 0 00-.739-.168 2.418 2.418 0 00-1.758.748A4.226 4.226 0 004.064 9.2a2.819 2.819 0 00-.145 2.011 1.227 1.227 0 001.164.547 2.212 2.212 0 001.4-.447 3.362 3.362 0 00.795-.9h2.754" fill="#fffffe" fill-rule="evenodd"/><path data-name="Path 23498" d="M18.578 8.212a3.033 3.033 0 00-2.764-1.106 5.365 5.365 0 00-3.146.938 4.561 4.561 0 00-1.814 2.412 2.373 2.373 0 00.448 2.547 3.318 3.318 0 002.429.782 5.44 5.44 0 003.191-.949 4.568 4.568 0 001.8-2.412 2.571 2.571 0 00-.144-2.212zm-2.485 2.212a2.657 2.657 0 01-.773 1.3 1.676 1.676 0 01-1.064.414.856.856 0 01-.794-.414 1.573 1.573 0 01.022-1.262 2.507 2.507 0 01.761-1.262 1.7 1.7 0 011.087-.4.825.825 0 01.772.4 1.534 1.534 0 01-.011 1.223z" fill="#fffffe" fill-rule="evenodd"/><path data-name="Path 23499" d="M27.306 8.077a1.807 1.807 0 00-1.825-.971 3.412 3.412 0 00-1.355.28 4.79 4.79 0 00-1.187.8l.291-.938h-2.452l-2.765 8.813h2.643l.963-3.05a1.631 1.631 0 00.716.57 2.482 2.482 0 001.041.2 3.729 3.729 0 002.329-.838 4.822 4.822 0 001.589-2.435 3.417 3.417 0 00.012-2.431zm-2.609 2.324a2.4 2.4 0 01-.683 1.195 1.353 1.353 0 01-.873.358.808.808 0 01-.75-.369 1.389 1.389 0 01.011-1.128 2.321 2.321 0 01.706-1.183 1.483 1.483 0 01.962-.369.691.691 0 01.661.357 1.432 1.432 0 01-.035 1.139z" fill="#fffffe" fill-rule="evenodd"/><path data-name="Path 23500" d="M36.217 8.502a1.2 1.2 0 00-.292-.759 1.7 1.7 0 00-1.029-.514 10.231 10.231 0 00-1.858-.123 9.425 9.425 0 00-1.4.1 3.774 3.774 0 00-1.075.291 3.213 3.213 0 00-.963.6 3.646 3.646 0 00-.717.972l2.428.246a1.652 1.652 0 01.583-.57 2.385 2.385 0 011.03-.19c.336 0 .549.056.649.179a.75.75 0 010 .637c-.369.112-.705.212-1.018.291s-1 .2-2.037.39a4.313 4.313 0 00-1.914.693 2.355 2.355 0 00-.829 1.2 1.255 1.255 0 00.224 1.307 2.172 2.172 0 001.691.536 5.179 5.179 0 001.7-.268 5.341 5.341 0 001.232-.659 3.493 3.493 0 00-.033.4 1.237 1.237 0 00.078.379h2.451a3.1 3.1 0 01-.056-.658 3.655 3.655 0 01.157-.7l.886-2.826a2.457 2.457 0 00.112-.954zm-3.156 2.491a2.165 2.165 0 01-.393.748 2.015 2.015 0 01-.683.48 2.081 2.081 0 01-.885.2.709.709 0 01-.57-.19.433.433 0 01-.068-.469.834.834 0 01.359-.447 3.55 3.55 0 011.13-.391c.426-.1.828-.2 1.231-.324z" fill="#fffffe" fill-rule="evenodd"/><path data-name="Path 23501" d="M38.4 7.252h2.452l-.325 1.038a4.08 4.08 0 011.03-.926 1.929 1.929 0 011.007-.257 2.313 2.313 0 011.164.335l-1.354 1.743a1.746 1.746 0 00-.682-.178 1.336 1.336 0 00-.93.391 5.293 5.293 0 00-1.063 2.1l-.672 2.144h-2.632l2-6.389" fill="#fffffe" fill-rule="evenodd"/><path data-name="Path 23502" d="M48.823 4.816l-.761 2.435h1.433l-.56 1.787h-1.444l-.706 2.267a1.144 1.144 0 00-.09.536c.045.134.168.213.391.213a3.416 3.416 0 00.863-.168l-.347 1.7a9.858 9.858 0 01-1.869.2 2.85 2.85 0 01-1.378-.235.958.958 0 01-.459-.714 3.631 3.631 0 01.269-1.552l.7-2.245h-.973l.56-1.787h.974l.369-1.184 3.023-1.251" fill="#fffffe" fill-rule="evenodd"/></svg>