<svg xmlns="http://www.w3.org/2000/svg" width="100.057" height="62.178"><defs><clipPath id="a"><circle data-name="Ellipse 62" cx="28.5" cy="28.5" r="28.5" transform="translate(170 360)" fill="none"/></clipPath></defs><g transform="translate(-129 -357)"><circle data-name="Ellipse 59" cx="30.152" cy="30.152" r="30.152" transform="translate(168.753 358.874)" fill="#191a1a" opacity=".4"/><rect data-name="Rectangle 3591" width="80" height="52" rx="6" transform="translate(129 357)" fill="#7f84bf"/><path data-name="Rectangle 3592" fill="#394958" d="M129 364h80v11h-80z"/><rect data-name="Rectangle 3593" width="61" height="11" rx="2" transform="translate(137 387)" fill="#fff"/><g data-name="Group 11765"><g data-name="Ellipse 57-2"><circle data-name="Ellipse 60" cx="29.5" cy="29.5" r="29.5" transform="translate(169 359)" fill="#7f84bf"/><circle data-name="Ellipse 61" cx="29" cy="29" r="29" transform="translate(169.5 359.5)" fill="none" stroke="#fff"/></g></g><g data-name="Group 11767"><g data-name="Group 11766"><g data-name="Mask Group 10" clip-path="url(#a)"><path data-name="Rectangle 3595" fill="#394958" d="M166.993 358.551h62.169v8.548h-62.169z"/><path data-name="Path 23482" d="M109.612 385.777h97.916a1.555 1.555 0 011.555 1.554v15.542a1.555 1.555 0 01-1.555 1.555h-97.916a1.555 1.555 0 01-1.554-1.555v-15.542a1.554 1.554 0 011.554-1.554z" fill="#fff"/></g></g></g><path data-name="Path 23481" d="M187.688 389.979V400h-2.154v-7.588a2.585 2.585 0 01-.42.3 4.322 4.322 0 01-.516.253 4.553 4.553 0 01-.567.191 4.262 4.262 0 01-.581.113v-1.821a9.134 9.134 0 002.933-1.47zm5.3 8.23h4.156V400h-6.524v-.738a3.449 3.449 0 01.253-1.35 4.469 4.469 0 01.636-1.073 5.533 5.533 0 01.837-.839q.455-.366.865-.66.431-.307.755-.588a4.3 4.3 0 00.547-.557 2.12 2.12 0 00.332-.561 1.664 1.664 0 00.109-.6 1.215 1.215 0 00-.355-.95 1.578 1.578 0 00-1.087-.321 3.652 3.652 0 00-2.42 1v-1.9a5.2 5.2 0 012.885-.827 4.26 4.26 0 011.336.195 2.833 2.833 0 011 .557 2.368 2.368 0 01.625.878 2.954 2.954 0 01.215 1.152 3.252 3.252 0 01-.208 1.2 3.688 3.688 0 01-.554.957 5.067 5.067 0 01-.8.79q-.452.358-.937.694c-.219.155-.429.308-.632.461a5.927 5.927 0 00-.537.451 2.471 2.471 0 00-.369.434.749.749 0 00-.131.4zm5.92 1.47V397.8a3.793 3.793 0 002.3.718 2.066 2.066 0 001.289-.355 1.178 1.178 0 00.461-.991 1.127 1.127 0 00-.571-1.012 2.957 2.957 0 00-1.574-.36h-.913v-1.652h.841q1.914 0 1.914-1.271 0-1.2-1.47-1.2a3.346 3.346 0 00-1.914.636v-1.76a5.294 5.294 0 012.406-.52 3.627 3.627 0 012.341.677 2.151 2.151 0 01.837 1.757 2.284 2.284 0 01-1.948 2.406v.034a2.652 2.652 0 011.641.755 2.13 2.13 0 01.6 1.535 2.628 2.628 0 01-1 2.174 4.344 4.344 0 01-2.775.8 5.369 5.369 0 01-2.468-.492z" fill="#030504"/></g></svg>