<svg xmlns="http://www.w3.org/2000/svg" width="102.057" height="61.178"><defs><clipPath id="a"><circle data-name="Ellipse 62" cx="28.5" cy="28.5" r="28.5" transform="translate(170 360)" fill="none"/></clipPath></defs><g data-name="Amex_CCV" transform="translate(-593 -1093)"><rect data-name="Rectangle 3591" width="80" height="52" rx="6" transform="translate(593 1093)" fill="#47b3d7"/><rect data-name="Rectangle 3593" width="17" height="7.743" rx="2" transform="translate(601 1123)" fill="#fff" opacity=".3"/><rect data-name="Rectangle 3596" width="18" height="7.743" rx="2" transform="translate(620 1123)" fill="#fff" opacity=".3"/><rect data-name="Rectangle 3597" width="25" height="7.743" rx="2" transform="translate(640 1123)" fill="#fff" opacity=".3"/><path data-name="Path 23483" d="M606.62 1112.919l-.339-1.419h-2.3l-.371 1.419h-2.51l2.656-7.719h2.886l2.5 7.721zm-1.464-6.042h-.056a3.751 3.751 0 01-.075.425q-.065.3-.652 2.541h1.477l-.538-2.1a6.641 6.641 0 01-.156-.866zm11.964 6.042v-4.233q0-.6.038-1.314l.016-.355h-.065q-.172.91-.264 1.26l-1.136 4.642h-2.186l-1.19-4.588q-.048-.172-.253-1.314h-.065q.075 1.809.075 2.261v3.64h-2.04v-7.718h3.484l1.061 4.194a5.177 5.177 0 01.1.525q.062.4.078.611h.027q.059-.49.188-1.158l.996-4.172h3.43v7.721zm3.812 0v-7.719h4.808v1.82h-2.482v1.125h2.332v1.82h-2.332v1.135h2.66v1.82zm10.333 0l-.959-2.119a1.478 1.478 0 01-.121-.39q-.03-.191-.046-.315h-.022q-.032.129-.075.339a2.337 2.337 0 01-.124.409l-.894 2.073h-2.767l2.315-3.85-2.105-3.866h2.811l.748 2.041a4.97 4.97 0 01.188.754h.022a3.06 3.06 0 01.2-.765l.872-2.03h2.592l-2.17 3.828 2.27 3.891z" fill="#47b3d7" stroke="#fff" stroke-width=".5"/></g><g data-name="Group 11771" transform="translate(-669 -451)"><circle data-name="Ellipse 63" cx="30.152" cy="30.152" r="30.152" transform="translate(710.753 451.874)" fill="#191a1a" opacity=".4"/><g data-name="Group 11769"><g data-name="Ellipse 57-2" transform="translate(542 93)"><circle data-name="Ellipse 60" cx="29.5" cy="29.5" r="29.5" transform="translate(169 359)" fill="#47b3d7"/><circle data-name="Ellipse 61" cx="29" cy="29" r="29" transform="translate(169.5 359.5)" fill="none" stroke="#fff"/></g></g><g data-name="Group 11770"><g data-name="Group 11766" clip-path="url(#a)" transform="translate(542 93)"><g data-name="Mask Group 10"><path data-name="Path 23482" d="M108.612 387.125h97.916c.859 0 1.555.459 1.555 1.025v10.252c0 .567-.7 1.026-1.555 1.026h-97.916c-.858 0-1.554-.459-1.554-1.026v-10.254c0-.564.696-1.023 1.554-1.023z" fill="#fff" opacity=".2"/></g></g></g></g><path data-name="Path 23484" d="M58.875 16.41V25h-1.846v-6.5a2.21 2.21 0 01-.36.255 3.72 3.72 0 01-.442.217 3.95 3.95 0 01-.486.164 3.552 3.552 0 01-.5.1V17.67a7.7 7.7 0 001.359-.539 7.736 7.736 0 001.156-.721zm4.541 7.055h3.563V25h-5.59v-.633a2.945 2.945 0 01.216-1.157 3.84 3.84 0 01.545-.92 4.727 4.727 0 01.718-.721q.39-.313.741-.565.369-.264.647-.5a3.689 3.689 0 00.469-.478 1.816 1.816 0 00.284-.48 1.429 1.429 0 00.094-.519 1.042 1.042 0 00-.3-.814 1.355 1.355 0 00-.932-.275 3.129 3.129 0 00-2.074.861v-1.633a4.453 4.453 0 012.473-.709 3.652 3.652 0 011.146.167 2.423 2.423 0 01.858.478 2.037 2.037 0 01.536.753 2.541 2.541 0 01.185.987 2.784 2.784 0 01-.179 1.031 3.169 3.169 0 01-.475.82 4.305 4.305 0 01-.683.677q-.387.308-.8.595-.281.2-.542.4a5.138 5.138 0 00-.46.387 2.1 2.1 0 00-.316.372.642.642 0 00-.124.341zm5.074 1.26v-1.612a3.252 3.252 0 001.969.615 1.772 1.772 0 001.1-.3 1.012 1.012 0 00.4-.85.966.966 0 00-.489-.867 2.535 2.535 0 00-1.345-.3h-.779v-1.427h.721q1.641 0 1.641-1.09 0-1.025-1.26-1.025a2.872 2.872 0 00-1.641.545V16.9a4.531 4.531 0 012.063-.445 3.113 3.113 0 012.007.58 1.846 1.846 0 01.718 1.506 1.958 1.958 0 01-1.67 2.063v.029a2.27 2.27 0 011.406.647 1.826 1.826 0 01.515 1.32 2.254 2.254 0 01-.861 1.863 3.724 3.724 0 01-2.379.686 4.6 4.6 0 01-2.116-.424zM80.285 16.6v5.3h1.008v1.383h-1.008V25H78.6v-1.723h-3.664V21.83q.486-.545 1.008-1.192t1.007-1.338q.486-.686.905-1.38a13.832 13.832 0 00.712-1.32zm-3.691 5.3h2v-2.941q-.205.381-.445.771t-.5.768q-.264.378-.533.732t-.522.665z" fill="#fff"/></svg>