<svg xmlns="http://www.w3.org/2000/svg" width="37.406" height="22.248"><g fill="#d7182a"><path data-name="Path 23503" d="M0 22.239h4.084L15.466 0h-4.088z"/><path data-name="Path 23504" d="M30.968 22.244h4.044L23.828 0h-4.565v22.244h4.066v-4.57h5.3zm-3.974-7.824h-3.656V7.241z"/><path data-name="Path 23505" d="M15.749 7.25l-3.647 7.184h3.647z"/><path data-name="Path 23506" d="M8.142 22.248h7.629v-4.495h-5.355z"/></g><path d="M36.213 19.082a1.183 1.183 0 11-1.174 1.183 1.166 1.166 0 011.174-1.183zm0 .185a1 1 0 10.949 1.007.976.976 0 00-.949-1.007zm-.212 1.682h-.208v-1.325a2.349 2.349 0 01.371-.031.7.7 0 01.411.1.318.318 0 01.119.274.331.331 0 01-.26.322c.115 0 .194.128.221.322a1.131 1.131 0 00.084.327h-.22a.967.967 0 01-.088-.336.247.247 0 00-.283-.234h-.146zm0-.733h.155c.172 0 .318-.062.318-.225s-.084-.23-.318-.23a1.115 1.115 0 00-.154 0z" fill="#d7182a"/></svg>