<svg xmlns="http://www.w3.org/2000/svg" width="126" height="54.312"><g data-name="Path 23476"><path data-name="Path 1" d="M20.932 6.237h84.13c11.561 0 20.938 8.8 20.938 19.657s-9.377 19.657-20.938 19.657h-84.13C9.372 45.552 0 36.752 0 25.894S9.372 6.237 20.932 6.237z" fill="none"/><path data-name="Path 2" d="M20.932 7.518A20.226 20.226 0 007 12.929a17.541 17.541 0 000 25.932 20.226 20.226 0 0013.927 5.411h84.13a20.226 20.226 0 0013.927-5.411 17.541 17.541 0 000-25.932 20.226 20.226 0 00-13.927-5.412H20.932m0-1.281h84.13c11.56 0 20.932 8.8 20.932 19.658s-9.372 19.658-20.932 19.658h-84.13C9.372 45.553 0 36.752 0 25.895S9.372 6.237 20.932 6.237z" fill="#d9d9d9"/></g><path data-name="Path 23454" d="M96.204 24.497a3.364 3.364 0 113.365-3.364 3.364 3.364 0 01-3.365 3.364m0-9.943a6.579 6.579 0 106.578 6.578 6.579 6.579 0 00-6.578-6.578" opacity=".5"/><path data-name="Path 23455" d="M66.115 24.497a3.364 3.364 0 113.365-3.364 3.364 3.364 0 01-3.365 3.364m0-9.943a6.579 6.579 0 106.579 6.579 6.579 6.579 0 00-6.579-6.579" opacity=".5"/><path data-name="Path 23456" d="M89.286 24.687a7.421 7.421 0 01-1.281.246c-1.135 0-1.361-.4-1.361-1.456V17.39h2.69v-2.538h-2.69v-3.586h-3.025l-.64 3.586h-2.275a4.326 4.326 0 00-3.856 2.7l-1.036-2.7h-2.178V27.46h3.705v-5.481c0-2.76 1.645-4.536 3.573-4.594h2.022v6.275c0 2.945 1.513 4.045 3.97 4.045a9.14 9.14 0 002.836-.453z" opacity=".5"/><path data-name="Path 23457" d="M107.28 18.827v8.638h-3.61V14.839h2.193l.738 1.929" opacity=".5"/><path data-name="Path 23458" d="M106.583 16.785a5.839 5.839 0 014.348-2.231c3.006 0 4.234 2.4 4.234 4.61v8.3h-3.705v-8.183a1.716 1.716 0 00-1.871-1.665 3.082 3.082 0 00-2.287 1.228" opacity=".5"/><path data-name="Path 23459" d="M45.191 10.282h4.139l5.671 10.793V10.282h3.422v17.182h-3.742l-6.068-11.889v11.889h-3.422z" opacity=".5"/><path data-name="Path 23460" d="M115.165 14.856v.246h.341v1.191h.283v-1.191h.359v-.246z" opacity=".5"/><path data-name="Path 23461" d="M117.225 14.856l-.246.945-.265-.945h-.379v1.437h.246v-1.137l.3 1.135h.19l.3-1.135v1.135h.227v-1.435z" opacity=".5"/><path data-name="Path 23472" d="M19.7 12.324a13.476 13.476 0 1013.472 13.48A13.478 13.478 0 0019.7 12.324m0 33.168a19.7 19.7 0 1119.7-19.7 19.7 19.7 0 01-19.7 19.7" fill="#d9d9d9"/><path data-name="Rectangle 3581" fill="#7a7a7a" d="M41.055 3.062h1.532v1.532h-1.532z"/><path data-name="Rectangle 3582" fill="#7a7a7a" d="M41.055 0h1.532v1.532h-1.532z"/><path data-name="Rectangle 3583" fill="#fff" d="M36.754 4.594h1.437v1.493h-1.437z"/><path data-name="Rectangle 3584" d="M33.908 7.542h1.456v1.437h-1.456z"/><path data-name="Rectangle 3585" d="M38.168 6.087h1.607v1.437h-1.607z"/><path data-name="Rectangle 3586" d="M32.474 6.162h1.437v1.379h-1.437z"/><path data-name="Rectangle 3587" d="M36.754 7.542h1.437v1.437h-1.437z"/><path data-name="Rectangle 3588" d="M39.546 1.55h1.513v1.532h-1.513z"/><path data-name="Rectangle 3589" d="M36.753 3.062h2.797v1.532h-2.797z"/><path data-name="Rectangle 3590" d="M35.359 4.594h1.399v2.949h-1.399z"/><path data-name="Path 23473" d="M35.445 8.978v1.437H33.99V8.978h-2.4v1.04h-1.282v1.281h1.437v1.437h-1.446v-1.438h-1.537v2.249h-1.426v1.437h-.964v1.437h-1.06a81.3 81.3 0 00-5.047 9.47c-3.233-4.5-5.747-6.275-7.713-6.915-1.059-.321-2.344.831-.587 2.665a32.824 32.824 0 016.578 11.137c.662 1.55 3.586 1.793 4.178.207a47.346 47.346 0 015.218-10.207v-1.606h1.151v-1.434h1.208v-1.683h1.437v-1.608H30.29v-1.474h1.456v1.474h1.418v-1.459h1.126V13.23h1.281v-1.21h1.228V8.978z"/><path data-name="Path 23474" d="M49.296 37.733a.909.909 0 00-.355-.768 4.649 4.649 0 00-1.281-.57 9.046 9.046 0 01-1.459-.588 2.383 2.383 0 01-1.465-2.132 2.077 2.077 0 01.393-1.243 2.561 2.561 0 011.128-.854 4.247 4.247 0 011.651-.307 3.866 3.866 0 011.642.334 2.615 2.615 0 011.128.94 2.465 2.465 0 01.4 1.382h-1.776a1.16 1.16 0 00-.373-.918 1.537 1.537 0 00-1.045-.328 1.634 1.634 0 00-1.011.274.867.867 0 00-.36.724.83.83 0 00.423.7 4.773 4.773 0 001.244.531 5.379 5.379 0 012.2 1.128 2.246 2.246 0 01.692 1.678 2.069 2.069 0 01-.845 1.752 3.7 3.7 0 01-2.275.64 4.392 4.392 0 01-1.807-.364 2.86 2.86 0 01-1.244-1 2.548 2.548 0 01-.428-1.465h1.781q0 1.424 1.7 1.424a1.655 1.655 0 00.986-.256.836.836 0 00.356-.714zm8.152-1.471h-3.4v2.305h3.991v1.428h-5.763v-8.6h5.754v1.436h-3.984v2.049h3.4zm8.383.862a3.043 3.043 0 01-1.025 2.186 3.6 3.6 0 01-2.433.8 3.237 3.237 0 01-2.6-1.113 4.565 4.565 0 01-.948-3.057v-.526a5.155 5.155 0 01.438-2.187 3.276 3.276 0 011.25-1.45 3.5 3.5 0 011.888-.5 3.507 3.507 0 012.4.8 3.27 3.27 0 011.052 2.239H64.07a1.793 1.793 0 00-.464-1.208 1.718 1.718 0 00-1.214-.375 1.506 1.506 0 00-1.327.64 3.559 3.559 0 00-.452 1.97v.649a3.808 3.808 0 00.423 2.037 1.478 1.478 0 001.332.64 1.75 1.75 0 001.226-.375 1.694 1.694 0 00.464-1.16zm7.674-5.736v5.664a2.9 2.9 0 01-.886 2.233 3.406 3.406 0 01-2.413.821 3.443 3.443 0 01-2.392-.8 2.85 2.85 0 01-.9-2.191v-5.729h1.773v5.678a1.639 1.639 0 00.4 1.232 1.554 1.554 0 001.119.384q1.495 0 1.518-1.571v-5.724zm4.638 5.452h-1.41v3.148h-1.775v-8.6h3.2a3.613 3.613 0 012.351.679 2.345 2.345 0 01.827 1.921 2.646 2.646 0 01-.384 1.468 2.6 2.6 0 01-1.153.936l1.861 3.514v.083h-1.908zm-1.409-1.436h1.429a1.464 1.464 0 001.034-.339 1.214 1.214 0 00.366-.936 1.3 1.3 0 00-.346-.957 1.436 1.436 0 00-1.06-.348h-1.426zm11.123.857h-3.406v2.305h3.993v1.424h-5.763v-8.6h5.754v1.436h-3.984v2.049h3.4zm1.63 3.727v-8.6h2.646a4.019 4.019 0 012.029.512 3.563 3.563 0 011.4 1.453 4.482 4.482 0 01.5 2.141v.4a4.5 4.5 0 01-.493 2.132 3.532 3.532 0 01-1.391 1.447 4.05 4.05 0 01-2.026.52zm1.773-7.165v5.741h.859a1.921 1.921 0 001.589-.679 3.073 3.073 0 00.561-1.944v-.455a3.118 3.118 0 00-.55-1.991 1.921 1.921 0 00-1.589-.676z" opacity=".2"/><path data-name="Path 23475" d="M47.683 51.069a2.177 2.177 0 01-.384 1.342 1.219 1.219 0 01-1.025.5 1.13 1.13 0 01-.888-.384v1.708h-.966v-5.014h.9l.033.355a1.139 1.139 0 01.918-.423 1.228 1.228 0 011.043.5 2.233 2.233 0 01.371 1.368zm-.968-.07a1.427 1.427 0 00-.179-.781.584.584 0 00-.521-.275.64.64 0 00-.626.348v1.484a.64.64 0 00.634.359q.692 0 .692-1.133zm1.418 0a2.15 2.15 0 01.207-.962 1.52 1.52 0 01.6-.651 1.746 1.746 0 01.907-.232 1.651 1.651 0 011.2.45 1.8 1.8 0 01.512 1.219l.006.248a1.9 1.9 0 01-.466 1.338 1.619 1.619 0 01-1.25.5 1.627 1.627 0 01-1.251-.5 1.928 1.928 0 01-.467-1.368zm.968.069a1.355 1.355 0 00.195.79.64.64 0 00.556.274.64.64 0 00.549-.27 1.483 1.483 0 00.2-.864 1.342 1.342 0 00-.2-.785.64.64 0 00-.556-.278.633.633 0 00-.549.277 1.507 1.507 0 00-.195.859zm6.217.461l.476-2.305h.935l-.925 3.625h-.811l-.686-2.282-.686 2.282h-.811l-.922-3.627h.935l.473 2.305.663-2.305h.7zm3.559 1.384a1.78 1.78 0 01-1.3-.489 1.739 1.739 0 01-.5-1.3v-.09a2.19 2.19 0 01.211-.977 1.55 1.55 0 01.6-.663 1.679 1.679 0 01.882-.233 1.505 1.505 0 011.171.469 1.905 1.905 0 01.428 1.331v.4h-2.306a.9.9 0 00.283.57.856.856 0 00.6.214 1.045 1.045 0 00.875-.406l.476.533a1.454 1.454 0 01-.589.48 1.935 1.935 0 01-.83.172zm-.11-2.979a.606.606 0 00-.467.195 1.01 1.01 0 00-.229.558h1.347v-.077a.721.721 0 00-.174-.5.624.624 0 00-.478-.175zm4.189.195a2.63 2.63 0 00-.348-.027.71.71 0 00-.721.371v2.372h-.97V49.22h.914l.027.433a.9.9 0 01.808-.5 1.014 1.014 0 01.3.044zm2.135 2.784a1.78 1.78 0 01-1.3-.489 1.739 1.739 0 01-.5-1.3v-.09a2.19 2.19 0 01.211-.977 1.55 1.55 0 01.6-.663 1.679 1.679 0 01.882-.233 1.505 1.505 0 011.171.469 1.905 1.905 0 01.428 1.331v.4h-2.306a.9.9 0 00.283.57.856.856 0 00.6.214 1.045 1.045 0 00.875-.406l.476.533a1.454 1.454 0 01-.589.48 1.935 1.935 0 01-.831.172zm-.11-2.979a.606.606 0 00-.467.195 1.01 1.01 0 00-.229.558h1.347v-.077a.721.721 0 00-.174-.5.624.624 0 00-.479-.175zm2 1.072a2.185 2.185 0 01.384-1.35 1.235 1.235 0 011.04-.5 1.11 1.11 0 01.875.4v-1.855h.971v5.147h-.875l-.047-.384a1.14 1.14 0 01-.931.452 1.231 1.231 0 01-1.025-.5 2.255 2.255 0 01-.4-1.4zm.968.072a1.432 1.432 0 00.178.782.579.579 0 00.512.271.648.648 0 00.634-.384v-1.433a.64.64 0 00-.626-.384q-.7.012-.7 1.15zm8.025-.012a2.195 2.195 0 01-.371 1.359 1.232 1.232 0 01-1.039.488 1.132 1.132 0 01-.941-.452l-.044.384h-.871v-5.144h.968v1.847a1.1 1.1 0 01.88-.392 1.242 1.242 0 011.04.488 2.2 2.2 0 01.377 1.372zm-.968-.07a1.442 1.442 0 00-.174-.8.589.589 0 00-.52-.256.64.64 0 00-.64.384v1.43a.648.648 0 00.64.384.6.6 0 00.616-.462 2.386 2.386 0 00.076-.675zm2.919.479l.67-2.255h1.039l-1.457 4.189-.081.191a1.105 1.105 0 01-1.072.711 1.524 1.524 0 01-.429-.064v-.734h.147a.8.8 0 00.411-.083.551.551 0 00.213-.278l.114-.3-1.271-3.636h1.042zm6.806.17a.79.79 0 00-.284-.64 3.009 3.009 0 00-1.043-.45 3.653 3.653 0 01-1.105-.464 1.1 1.1 0 01-.5-.931 1.091 1.091 0 01.461-.909 1.892 1.892 0 011.178-.35 1.953 1.953 0 01.87.188 1.423 1.423 0 01.594.522 1.373 1.373 0 01.211.747h-.415a1.024 1.024 0 00-.342-.806 1.331 1.331 0 00-.918-.3 1.446 1.446 0 00-.9.256.78.78 0 00-.332.653.739.739 0 00.3.607 2.766 2.766 0 00.955.415 4.489 4.489 0 011 .373 1.419 1.419 0 01.512.461 1.152 1.152 0 01.17.634 1.1 1.1 0 01-.461.925 1.962 1.962 0 01-1.214.348 2.381 2.381 0 01-.946-.184 1.446 1.446 0 01-.653-.512 1.332 1.332 0 01-.223-.761h.412a.974.974 0 00.384.814 1.632 1.632 0 001.025.3 1.52 1.52 0 00.914-.256.785.785 0 00.345-.672zm2.359.624l1.061-3.049h.433l-1.551 4.244-.082.188a.973.973 0 01-.922.66 1.124 1.124 0 01-.309-.047v-.332l.207.02a.743.743 0 00.478-.146 1.106 1.106 0 00.31-.5l.175-.483-1.368-3.595h.433zm2.477-3.049l.013.589a1.342 1.342 0 01.5-.493 1.378 1.378 0 01.67-.164 1.017 1.017 0 011.089.7 1.361 1.361 0 01.52-.521 1.438 1.438 0 01.717-.183q1.167 0 1.19 1.273v2.419h-.4v-2.39a1.081 1.081 0 00-.21-.721.853.853 0 00-.672-.234 1.068 1.068 0 00-.73.279.989.989 0 00-.332.665v2.4h-.4v-2.411a.994.994 0 00-.219-.7.874.874 0 00-.665-.229 1.012 1.012 0 00-.651.216 1.268 1.268 0 00-.4.64v2.486h-.4v-3.62zm8.006 3.625a1.9 1.9 0 01-.077-.512 1.4 1.4 0 01-.538.424 1.647 1.647 0 01-.692.149 1.216 1.216 0 01-.847-.292.95.95 0 01-.323-.738.971.971 0 01.441-.838 2.117 2.117 0 011.228-.309h.727v-.412a.794.794 0 00-.241-.616.99.99 0 00-.7-.223 1.094 1.094 0 00-.69.223.64.64 0 00-.275.512h-.4a.932.932 0 01.4-.749 1.549 1.549 0 01.989-.316 1.409 1.409 0 01.957.3 1.089 1.089 0 01.36.846v1.716a2.128 2.128 0 00.11.788v.04zm-1.26-.288a1.346 1.346 0 00.719-.195 1.144 1.144 0 00.461-.52v-.8h-.717a1.793 1.793 0 00-.939.219.658.658 0 00-.338.585.648.648 0 00.227.512.852.852 0 00.585.2zm3.029-3.337l.013.62a1.439 1.439 0 01.512-.512 1.324 1.324 0 01.674-.175 1.087 1.087 0 01.868.328 1.48 1.48 0 01.288.985v2.379h-.4v-2.382a1.108 1.108 0 00-.206-.724.807.807 0 00-.648-.238 1.014 1.014 0 00-.658.233 1.364 1.364 0 00-.424.629v2.483h-.4v-3.625zm4.009-.929v.928h.751v.328h-.751v2.419a.757.757 0 00.109.45.423.423 0 00.364.147 2.5 2.5 0 00.325-.033l.017.325a1.312 1.312 0 01-.429.056.715.715 0 01-.6-.239 1.128 1.128 0 01-.186-.705v-2.419h-.667v-.328h.667v-.928zm2.985 4.62a1.574 1.574 0 01-.836-.228 1.553 1.553 0 01-.581-.64 1.98 1.98 0 01-.207-.913v-.145a2.133 2.133 0 01.2-.941 1.612 1.612 0 01.565-.658 1.394 1.394 0 01.784-.239 1.309 1.309 0 011.048.451 1.827 1.827 0 01.384 1.232v.224h-2.583v.077a1.517 1.517 0 00.353 1.025 1.125 1.125 0 00.89.411 1.306 1.306 0 00.567-.118 1.26 1.26 0 00.447-.375l.256.191a1.463 1.463 0 01-1.287.651zm-.077-3.418a1 1 0 00-.768.332 1.537 1.537 0 00-.377.9h2.177v-.044a1.331 1.331 0 00-.3-.852.925.925 0 00-.729-.335zm3.555 3.073a1.059 1.059 0 00.7-.236.831.831 0 00.306-.612h.384a1.135 1.135 0 01-.207.6 1.3 1.3 0 01-.512.428 1.537 1.537 0 01-.679.154 1.4 1.4 0 01-1.131-.5 2 2 0 01-.418-1.333v-.12a2.266 2.266 0 01.188-.948 1.446 1.446 0 01.538-.64 1.484 1.484 0 01.82-.224 1.4 1.4 0 01.984.355 1.3 1.3 0 01.414.935h-.384a.986.986 0 00-.306-.686.993.993 0 00-.706-.256 1 1 0 00-.843.392 1.774 1.774 0 00-.3 1.1v.118a1.734 1.734 0 00.3 1.082 1.007 1.007 0 00.85.394z" opacity=".2"/></svg>