<svg width="70" height="33" fill="none" xmlns="http://www.w3.org/2000/svg"><path opacity=".5" fill-rule="evenodd" clip-rule="evenodd" d="M10.145 25s.564-.127 1.427-.435c2.711-.97 8.365-3.737 8.66-10.01.295-6.308-5.729-9.134-8.604-10.12C10.734 4.13 10.145 4 10.145 4h49.158C65.211 4 70 8.701 70 14.5S65.21 25 59.303 25H10.145zm2.621-.435h46.537c5.663 0 10.253-4.506 10.253-10.065 0-5.559-4.59-10.065-10.253-10.065H12.868c.824.338 1.766.788 2.703 1.374 2.639 1.647 5.307 4.411 5.103 8.765-.203 4.326-2.848 7.048-5.39 8.67-.88.56-1.753.994-2.518 1.32z" fill="#CBCBCB"/><path d="M11.5 6.631a7.815 7.815 0 00-5.562 2.307A7.815 7.815 0 003.63 14.5c0 2.097.817 4.073 2.307 5.562A7.815 7.815 0 0011.5 22.37a7.815 7.815 0 005.562-2.307A7.907 7.907 0 0019.37 14.5a7.815 7.815 0 00-2.307-5.562A7.86 7.86 0 0011.5 6.63zM11.5 26C5.165 26 0 20.835 0 14.5 0 8.154 5.165 3 11.5 3S23 8.154 23 14.5C23 20.835 17.835 26 11.5 26z" fill="#D6D6D6"/><path d="M25.362 0h-1.014v1h1.014V0z" fill="#A1A1A1"/><path d="M20.29 4h-1.015v1h1.015V4zm3.043-1h-1.015v1h1.015V3zm-4.058 0h-1.014v1h1.014V3zm3.045 1h-1.015v1h1.014V4zm2.028-3h-1.015v1h1.015V1zm-3.043 1H20.29v2h1.015V2zm-.806 3v.745h-.862V5h-1.421v.539h-.761v.666h.85v.744h-.85v-.744h-.906V7.37h-.85v.744h-.572v.745h-.626c-.705.91-2.45 3.752-2.988 4.907-1.913-2.331-3.402-3.252-4.565-3.585-.627-.167-1.388.431-.347 1.381 2.406 2.322 3.166 4.232 3.894 5.77.392.803 2.126.93 2.473.108.738-1.734 1.813-3.693 3.088-5.29v-.833h.683v-.744h.716v-.872h.85V8.87h-.861v-.764h.861v.764h.84v-.754h.671v-.91h.761v-.628h.727V5H20.5z" fill="#707070"/><path d="M29.523 20.385a.565.565 0 00-.223-.479c-.145-.112-.41-.225-.793-.34-.383-.114-.688-.241-.914-.381-.433-.27-.65-.622-.65-1.055 0-.38.155-.692.467-.938.313-.246.72-.37 1.218-.37.33 0 .626.061.885.182.259.12.462.293.61.518.148.222.223.469.223.74h-.823c0-.245-.079-.437-.235-.575-.155-.14-.377-.21-.667-.21-.27 0-.48.056-.63.17a.57.57 0 00-.222.48c0 .172.08.317.242.433.16.114.426.227.796.337a3.6 3.6 0 01.892.372c.224.138.388.297.493.479.105.179.157.389.157.63 0 .393-.153.706-.457.939-.303.23-.715.346-1.235.346a2.37 2.37 0 01-.95-.188 1.615 1.615 0 01-.673-.524 1.3 1.3 0 01-.238-.776h.826c0 .267.09.474.268.62.178.147.434.22.767.22.288 0 .503-.056.647-.17a.56.56 0 00.219-.46zm5.333-.89h-1.953v1.45h2.283v.653h-3.11v-4.71h3.087v.66h-2.26v1.3h1.953v.647zm5.634.57c-.049.502-.236.895-.562 1.177-.327.28-.761.42-1.303.42-.379 0-.713-.088-1.003-.264a1.771 1.771 0 01-.666-.76 2.717 2.717 0 01-.245-1.143v-.44c0-.444.08-.836.239-1.174.158-.339.386-.6.682-.783a1.93 1.93 0 011.032-.275c.525 0 .947.141 1.267.424.32.282.506.681.558 1.197h-.823c-.039-.339-.139-.583-.3-.732-.159-.15-.393-.226-.702-.226-.36 0-.636.13-.83.392-.191.258-.289.639-.293 1.142v.417c0 .509.091.897.274 1.165.185.267.455.4.81.4.324 0 .568-.071.731-.216.163-.144.267-.385.31-.721h.823zm5.222-3.178v3.148c0 .5-.163.898-.487 1.191-.322.291-.752.437-1.29.437-.544 0-.976-.144-1.296-.43-.32-.29-.48-.69-.48-1.2v-3.146h.822v3.152c0 .315.081.555.242.721.161.166.399.25.712.25.636 0 .954-.333.954-.997v-3.126h.822zm3.635 2.896h-.921v1.815H47.6v-4.71h1.672c.548 0 .971.121 1.27.365.298.244.447.596.447 1.058 0 .315-.077.58-.232.793a1.456 1.456 0 01-.64.488l1.068 1.964v.042H50.3l-.953-1.815zm-.921-.657h.849c.278 0 .496-.069.653-.207.157-.14.235-.33.235-.572 0-.253-.073-.448-.219-.586-.144-.138-.359-.21-.646-.213h-.872v1.578zm7.129.369h-1.953v1.45h2.283v.653h-3.109v-4.71h3.086v.66h-2.26v1.3h1.953v.647zm2.005 2.103v-4.71h1.405a2.2 2.2 0 011.116.278c.327.185.58.448.758.79.179.34.268.73.268 1.17v.236c0 .447-.09.84-.271 1.178-.179.339-.434.6-.767.783a2.317 2.317 0 01-1.14.275H57.56zm.827-4.05v3.397h.539c.433 0 .765-.134.995-.402.233-.27.352-.655.357-1.158v-.262c0-.511-.113-.902-.337-1.171-.224-.27-.55-.405-.976-.405h-.578z" fill="#A0A0A0"/><path d="M13.35 31.848c-.423 0-.732-.153-.926-.46h-.017l.007.206c.007.12.01.252.01.395V33h-.25v-3.855h.212l.048.378h.016c.189-.286.49-.43.905-.43.371 0 .654.119.848.355.196.234.293.576.293 1.025 0 .436-.103.775-.308 1.016-.204.239-.484.359-.838.359zm-.005-.215c.282 0 .5-.101.653-.303.155-.202.233-.484.233-.847 0-.78-.292-1.17-.876-1.17-.32 0-.555.086-.706.257-.15.17-.225.446-.225.83v.078c0 .415.072.711.215.889.145.177.38.266.706.266zm4.19-1.165c0 .433-.11.772-.327 1.016-.217.242-.517.364-.9.364-.241 0-.454-.056-.638-.169a1.088 1.088 0 01-.422-.483 1.704 1.704 0 01-.147-.728c0-.433.109-.77.326-1.01.218-.243.516-.364.896-.364.378 0 .674.123.888.368.216.244.324.58.324 1.006zm-2.171 0c0 .365.083.65.248.855.167.203.402.305.706.305.303 0 .538-.102.703-.305.167-.205.25-.49.25-.855 0-.366-.084-.65-.252-.852-.167-.202-.403-.302-.706-.302-.304 0-.538.1-.704.302-.163.2-.245.484-.245.852zm5.131 1.331l-.602-1.775a9.341 9.341 0 01-.15-.53h-.015l-.053.18-.114.355-.612 1.77H18.7l-.787-2.654h.268l.44 1.538c.103.381.17.66.203.84h.015c.1-.38.172-.634.218-.76l.566-1.618h.228l.539 1.614c.121.382.196.635.223.76h.015c.013-.107.08-.39.202-.85l.42-1.524h.253l-.746 2.654h-.263zm2.661.049c-.4 0-.712-.12-.936-.357-.223-.237-.334-.57-.334-.998 0-.423.108-.762.324-1.016.216-.256.507-.383.873-.383.324 0 .58.109.766.327.188.218.281.514.281.889v.195h-1.98c.003.364.09.643.262.835.174.192.422.288.744.288.157 0 .295-.01.413-.032.12-.021.27-.067.452-.137v.22a2.011 2.011 0 01-.43.132 2.392 2.392 0 01-.435.037zm-.073-2.54c-.265 0-.477.085-.638.255-.16.167-.254.41-.28.727h1.7c0-.308-.07-.548-.208-.72a.693.693 0 00-.574-.261zm2.889-.214c.116 0 .241.011.374.034l-.048.232a1.514 1.514 0 00-.356-.042.7.7 0 00-.577.288c-.15.192-.225.435-.225.728v1.465h-.25v-2.654h.212l.025.479h.018c.113-.196.233-.332.361-.41a.864.864 0 01.466-.12zm2.047 2.754c-.4 0-.712-.12-.936-.357-.223-.237-.334-.57-.334-.998 0-.423.108-.762.324-1.016.215-.256.506-.383.872-.383.324 0 .58.109.767.327.187.218.28.514.28.889v.195h-1.98c.003.364.09.643.263.835.174.192.422.288.744.288.157 0 .294-.01.412-.032.12-.021.27-.067.453-.137v.22a2.013 2.013 0 01-.43.132 2.393 2.393 0 01-.435.037zm-.074-2.54c-.265 0-.477.085-.637.255-.16.167-.254.41-.281.727h1.7c0-.308-.07-.548-.207-.72a.693.693 0 00-.575-.261zm2.814-.214c.198 0 .37.035.516.105.145.07.274.19.39.359h.014a12.44 12.44 0 01-.015-.603V28h.248v3.799h-.164l-.064-.405h-.02c-.209.302-.51.454-.9.454-.38 0-.67-.114-.87-.342-.201-.228-.302-.56-.302-.996 0-.46.1-.81.299-1.053.199-.242.488-.363.868-.363zm0 .22c-.3 0-.527.101-.678.305-.15.203-.226.498-.226.886 0 .752.303 1.128.909 1.128.31 0 .538-.087.683-.261.145-.175.217-.462.217-.862v-.042c0-.41-.071-.704-.215-.884-.142-.18-.372-.27-.69-.27zm4.586-.22c.385 0 .674.117.868.351.196.233.294.574.294 1.023 0 .441-.103.782-.31 1.02-.203.24-.49.36-.862.36a1.17 1.17 0 01-.529-.117.914.914 0 01-.371-.333h-.023l-.071.4h-.157V28h.25v.955c0 .143-.003.275-.01.395l-.007.208h.017a.992.992 0 01.377-.352c.149-.075.327-.112.534-.112zm-.005.22c-.324 0-.556.089-.696.268-.14.18-.21.474-.21.886v.042c0 .4.073.687.218.862.147.174.374.26.683.26.3 0 .526-.1.678-.302.152-.203.228-.492.228-.867 0-.766-.3-1.15-.9-1.15zm1.47-.169h.258l.582 1.49c.177.457.29.765.337.925h.015c.07-.21.186-.524.346-.94l.582-1.475h.258l-1.232 3.083c-.1.251-.183.42-.25.508a.662.662 0 01-.238.198.734.734 0 01-.327.066c-.096 0-.203-.017-.32-.051v-.21c.097.026.202.039.315.039a.44.44 0 00.228-.059.542.542 0 00.177-.183c.054-.081.116-.212.185-.39l.136-.347-1.052-2.654zm6.32 1.705c0 .313-.118.558-.354.734-.237.176-.557.264-.962.264-.438 0-.776-.055-1.012-.164v-.4c.152.062.317.11.496.146a2.7 2.7 0 00.531.054c.287 0 .503-.052.648-.156a.514.514 0 00.218-.44.535.535 0 00-.079-.303.69.69 0 00-.258-.22 3.62 3.62 0 00-.549-.226c-.344-.12-.59-.26-.739-.423-.146-.163-.22-.375-.22-.637 0-.275.107-.494.322-.657.214-.162.497-.244.85-.244.367 0 .706.065 1.014.195l-.134.362a2.364 2.364 0 00-.89-.186c-.228 0-.406.047-.534.142a.46.46 0 00-.193.393c0 .124.024.225.071.305.047.078.127.15.238.217a3.1 3.1 0 00.516.218c.388.133.655.276.8.43.146.152.22.351.22.595zm.253-1.727h.45l.607 1.526c.134.348.216.6.248.754h.02c.022-.083.068-.224.137-.424.07-.202.3-.82.688-1.856h.45l-1.191 3.047c-.118.301-.256.514-.415.64a.891.891 0 01-.58.19c-.127 0-.254-.014-.379-.041v-.325c.093.02.197.03.311.03.289 0 .495-.157.618-.47l.154-.38-1.118-2.691zm6.585 2.676v-1.74c0-.214-.047-.374-.142-.48-.094-.107-.24-.16-.44-.16-.261 0-.454.072-.58.217-.124.145-.186.368-.186.669v1.494h-.42v-1.74c0-.214-.047-.374-.142-.48-.094-.107-.242-.16-.443-.16-.263 0-.456.076-.58.229-.12.151-.181.4-.181.747v1.404h-.42v-2.676h.341l.069.366h.02c.08-.13.19-.232.334-.305.145-.073.307-.11.486-.11.433 0 .716.152.85.454h.02a.871.871 0 01.36-.332c.156-.081.335-.122.535-.122.314 0 .549.078.704.235.157.154.235.402.235.744V31.8h-.42zm2.993 0l-.084-.381h-.02a1.168 1.168 0 01-.415.342 1.308 1.308 0 01-.513.088c-.275 0-.491-.069-.648-.205-.155-.137-.233-.332-.233-.584 0-.54.448-.824 1.344-.85l.47-.014v-.166c0-.21-.047-.365-.141-.464-.093-.101-.242-.151-.448-.151-.231 0-.493.068-.784.205l-.13-.31a2.021 2.021 0 01.94-.23c.33 0 .574.07.733.212.16.142.24.37.24.682v1.826h-.311zm-.949-.286c.262 0 .467-.069.615-.207.15-.139.225-.332.225-.581v-.242l-.42.017c-.334.011-.575.062-.723.151-.147.088-.22.226-.22.413 0 .146.045.258.136.334.093.077.222.115.387.115zm4.025.286v-1.731c0-.218-.051-.381-.154-.488-.103-.108-.264-.161-.483-.161-.29 0-.503.075-.638.226-.135.152-.202.402-.202.75v1.404h-.42v-2.676h.341l.069.366h.02a.84.84 0 01.362-.305c.155-.073.328-.11.518-.11.334 0 .586.078.754.235.169.154.253.402.253.744V31.8h-.42zm2.181-.286a1.532 1.532 0 00.38-.049v.31a.763.763 0 01-.203.052 1.461 1.461 0 01-.238.022c-.536 0-.804-.273-.804-.818v-1.592h-.397v-.195l.397-.169.177-.571h.243v.62h.804v.315h-.804v1.575c0 .16.04.284.119.37a.42.42 0 00.326.13zm2.108.335c-.41 0-.734-.12-.972-.362-.236-.24-.354-.575-.354-1.003 0-.431.11-.774.329-1.028.22-.254.517-.38.888-.38.347 0 .622.11.825.331.202.22.303.51.303.872v.256h-1.91c.008.314.09.553.245.716.157.162.377.244.66.244.3 0 .594-.06.886-.181v.361c-.148.062-.29.106-.422.132a2.337 2.337 0 01-.478.042zm-.114-2.434c-.223 0-.4.07-.534.21-.132.14-.21.333-.233.58h1.45c0-.255-.06-.45-.177-.585-.118-.137-.287-.205-.506-.205zm2.96 2.434c-.402 0-.713-.12-.934-.357-.22-.239-.329-.577-.329-1.013 0-.448.112-.793.334-1.038.224-.244.543-.366.956-.366a1.934 1.934 0 01.714.139l-.13.345a1.936 1.936 0 00-.303-.088 1.358 1.358 0 00-.29-.037c-.564 0-.846.347-.846 1.04 0 .329.069.581.205.757.139.176.343.264.613.264.23 0 .468-.048.71-.144v.358c-.185.093-.419.14-.7.14zM51.715 13.526a1.648 1.648 0 01-1.639-1.65c0-.919.737-1.651 1.639-1.651s1.638.742 1.638 1.65c.01.909-.727 1.65-1.638 1.65zm0-4.878c-1.767 0-3.203 1.447-3.203 3.227 0 1.78 1.436 3.227 3.203 3.227s3.203-1.447 3.203-3.227a3.211 3.211 0 00-3.203-3.227zm-14.767 4.878a1.648 1.648 0 01-1.638-1.65c0-.919.736-1.651 1.638-1.651.902 0 1.639.742 1.639 1.65 0 .909-.737 1.65-1.639 1.65zm0-4.878c-1.767 0-3.203 1.447-3.203 3.227 0 1.78 1.436 3.227 3.203 3.227s3.203-1.447 3.203-3.227c-.009-1.79-1.436-3.227-3.203-3.227zm11.344 4.97c-.202.056-.514.12-.624.12-.55 0-.66-.194-.66-.713v-2.986h1.302V8.796h-1.303V7.035H45.54l-.312 1.761h-1.101c-.835 0-1.468.52-1.872 1.326l-.505-1.326h-1.055v6.185h1.799v-2.689c0-1.354.798-2.225 1.734-2.253h.982v3.078c0 1.447.734 1.984 1.927 1.984.614 0 1.092-.13 1.376-.222l-.22-1.261zm8.906-2.852v4.12h-1.737V8.864h1.055l.355.92m.002-.058c.541-.612 1.278-1.078 2.145-1.078 1.483 0 2.09 1.16 2.09 2.23v4.009H59.28v-3.955c0-.52-.448-.804-.924-.804-.513 0-.84.292-1.129.594M26.58 6.604h2.037l2.792 5.203V6.604h1.685v8.282H31.25l-2.987-5.73v5.73h-1.685V6.604z" fill="#707070"/></svg>