<svg xmlns="http://www.w3.org/2000/svg" width="58.042" height="15.531"><path data-name="Path 23477" d="M0 11.615l5.323 3.917.467-2.479a40.256 40.256 0 006.017 0 5.082 5.082 0 001.734-.6C16.236 10.984 16.557 7 16.557 7h-3.016s-.25 2.625-1.219 2.875a51.468 51.468 0 01-5.891.172l.375-2.234z" fill="#0bc35b"/><path data-name="Path 23478" d="M24.557 3.917L19.234 0l-.467 2.479a40.256 40.256 0 00-6.017 0 5.082 5.082 0 00-1.734.6C8.321 4.548 8 8.532 8 8.532h3.016s.25-2.625 1.219-2.875a51.468 51.468 0 015.891-.172l-.375 2.234z" fill="#07a5f0"/><path data-name="Path 23479" d="M32.37 7.344h-1.773l-.133-3.227a2.94 2.94 0 01.054-.473l.023-.137h-.015a2.842 2.842 0 01-.092.279q-.076.209-.15.369l-1.492 3.189h-1.938l-.152-5.6h1.777l-.16 3.313q-.016.242-.082.641h.023q.027-.105.105-.322t.137-.342l1.528-3.29h1.832l.031 3.336q0 .109-.014.316t-.025.293h.016l.2-.633 1.159-3.312h1.741zm3.73 0h-1.691l1.184-5.6h1.687zm6.457-4.152a1.509 1.509 0 01-.439 1.09 2.082 2.082 0 01-1.17.582v.016a1.244 1.244 0 01.777 1l.309 1.464h-1.793l-.207-1.246a1.074 1.074 0 00-.229-.537.619.619 0 00-.486-.186h-.016l-.413 1.969h-1.688l1.184-5.6h2.2a2.421 2.421 0 011.449.379 1.247 1.247 0 01.519 1.069zm-1.8.313a.6.6 0 00-.154-.437.624.624 0 00-.463-.156h-.3l-.289 1.281h.375a.884.884 0 00.605-.2.626.626 0 00.222-.489zm6.3-.441h-1.8l-.168.816h1.681l-.277 1.32h-1.689l-.176.824h1.926l-.284 1.32h-3.611l1.184-5.6h3.488z"/><path data-name="Path 23480" d="M29.143 10.496h-.9l-.23 1.086a2.028 2.028 0 00-.055.4q0 .238.277.238a1.591 1.591 0 00.535-.106l-.236 1.152a2.688 2.688 0 01-.521.123 3.978 3.978 0 01-.608.055q-1.152 0-1.152-1.092a2.453 2.453 0 01.053-.418q.053-.277.3-1.437h-.607l.277-1.153h.57l.191-.922 1.733-.398-.275 1.32h.926zm3.461.273h-.007a.939.939 0 00-.426-.1.928.928 0 00-.658.234 1.557 1.557 0 00-.381.8l-.344 1.641h-1.664l.546-2.551a14.332 14.332 0 00.247-1.449h1.637q-.043.379-.1.77h.016a1.984 1.984 0 01.5-.656.977.977 0 01.619-.214 1.481 1.481 0 01.352.051zm4.383 2.575h-1.648q0-.125.059-.711h-.016a1.67 1.67 0 01-1.336.811 1.093 1.093 0 01-.912-.41 1.825 1.825 0 01-.322-1.152 2.811 2.811 0 01.205-1.047 2.38 2.38 0 01.566-.859 2.517 2.517 0 01.887-.538 3.534 3.534 0 011.213-.194 8.679 8.679 0 011.977.242l-.52 2.449a6.3 6.3 0 00-.107.7 6.942 6.942 0 00-.046.709zm-1.16-3.016a1.006 1.006 0 00-.238-.023.94.94 0 00-.562.18 1.249 1.249 0 00-.4.539 1.809 1.809 0 00-.157.72.549.549 0 00.1.357.312.312 0 00.25.123.623.623 0 00.5-.318 2.552 2.552 0 00.35-.914zm6.656-.1a3.253 3.253 0 01-.09.68l-.511 2.436h-1.664l.473-2.215a1.82 1.82 0 00.066-.4.233.233 0 00-.266-.262.663.663 0 00-.457.279 1.369 1.369 0 00-.32.631l-.406 1.967h-1.68l.566-2.656q.137-.644.235-1.344h1.641a4.507 4.507 0 01-.078.688h.016a2.458 2.458 0 01.736-.574 1.74 1.74 0 01.783-.211.86.86 0 01.956.984zm3.68.3a3.62 3.62 0 00-.5-.162 2.152 2.152 0 00-.533-.076q-.359 0-.359.223a.2.2 0 00.09.178 1.677 1.677 0 00.238.119 3.039 3.039 0 01.662.338.933.933 0 01.291.355 1.236 1.236 0 01.094.514 1.192 1.192 0 01-.246.744 1.585 1.585 0 01-.715.5 3.184 3.184 0 01-1.135.183 5.03 5.03 0 01-.764-.057 4.2 4.2 0 01-.627-.143l.211-1.146a3.042 3.042 0 001.234.316q.488 0 .488-.254a.216.216 0 00-.107-.186 1.124 1.124 0 00-.271-.127 1.8 1.8 0 01-.824-.473 1.085 1.085 0 01-.238-.727 1.2 1.2 0 01.248-.746 1.491 1.491 0 01.684-.492 2.918 2.918 0 011.032-.165 5.043 5.043 0 01.668.053 5.258 5.258 0 01.594.107zm4.328-1.864a1.568 1.568 0 00-.5-.121.589.589 0 00-.625.527l-.058.274h.938l-.242 1.152h-.941l-.9 4.176h-1.648l.883-4.176h-.684l.242-1.152h.68l.1-.426a1.907 1.907 0 012.1-1.59 3.172 3.172 0 01.914.121zm3.793 1.78a1.092 1.092 0 01-.631 1.023 4.6 4.6 0 01-1.943.377v.031a.4.4 0 00.191.354.913.913 0 00.512.127 2.966 2.966 0 00.686-.1 3.015 3.015 0 00.658-.23l-.23 1.09a3.348 3.348 0 01-.74.236 4.2 4.2 0 01-.87.092 1.867 1.867 0 01-1.32-.445 1.58 1.58 0 01-.48-1.219 2.625 2.625 0 01.33-1.3 2.294 2.294 0 01.91-.914 2.722 2.722 0 011.338-.32 1.94 1.94 0 011.175.309 1.037 1.037 0 01.414.889zm-1.535-.01a.254.254 0 00-.053-.156.218.218 0 00-.186-.07.6.6 0 00-.451.2 1.077 1.077 0 00-.256.563 1.5 1.5 0 00.693-.133.429.429 0 00.253-.404zm4.957.336h-.008a.939.939 0 00-.426-.1.928.928 0 00-.658.234 1.557 1.557 0 00-.381.8l-.343 1.64h-1.665l.545-2.551a14.332 14.332 0 00.248-1.449h1.637q-.043.379-.1.77h.015a1.984 1.984 0 01.5-.656.977.977 0 01.62-.214 1.481 1.481 0 01.352.051z" opacity=".5"/></svg>