<svg width="18" height="18" fill="none" xmlns="http://www.w3.org/2000/svg"><path fill-rule="evenodd" clip-rule="evenodd" d="M6.79 2.25c.387 0 .752.122 1.028.343a26.376 26.376 0 013.79 3.791c.461.57.463 1.483.007 2.036l-.167.198 4.038 4.039c.173.172.28.464.262.708l-.13 1.648a.67.67 0 01-.604.603l-1.646.13a.976.976 0 01-.71-.262L8.62 11.445l-.197.167a1.55 1.55 0 01-.912.337l-.096.003a1.64 1.64 0 01-1.027-.342 26.44 26.44 0 01-3.792-3.792c-.46-.571-.461-1.483-.005-2.036A25.003 25.003 0 015.783 2.59a1.57 1.57 0 011.006-.34zm4.171 6.922a25.014 25.014 0 01-1.786 1.787l4.004 4.005c.022.02.093.048.132.048l1.578-.125.126-1.579a.285.285 0 00-.05-.131l-4.004-4.005zM7.193 3.787a.61.61 0 00-.777-.042 16.996 16.996 0 00-2.67 2.67.591.591 0 00.045.777l.678.679a.554.554 0 00.785 0l2.618-2.62a.556.556 0 000-.784l-.68-.68zm4.486 7.435l-1.206-1.207c-.15.154-.302.306-.456.456l.572.572-.348.349.454.455.35-.35.825.826-.349.349.455.455.349-.349.638.638.455-.455-1.284-1.284.35-.349-.456-.454-.349.348z" fill="#2158F5"/></svg>