<svg width="41" height="43" fill="none" xmlns="http://www.w3.org/2000/svg"><path d="M19.712 24.642l.182.181c.98.979 2.642.878 3.423-.306.385-.584.798-1.153 1.096-1.45l9.598-9.579h.001v-.001h0l.001-.001h0l.001-.001h0l.001-.001h0l.001-.001h0l.001-.001h0l.001-.001h.001v-.001h.001v-.001h0l.001-.001h0l.001-.001h0l.001-.001h0l.001-.001h0l.001-.001h0l.001-.001h0l.001-.001h0l.001-.001h.001v-.001h.001v-.001h.001v-.001h.001v-.001h0l.001-.001h0l.001-.001h0l.001-.001h0l.001-.001h0l.001-.001h0l.001-.001h0l.001-.001h0l.001-.001h0l.001-.001h0l.001-.001h0l.001-.001h0l.001-.001h0l.001-.001h0l.001-.001h.001v-.001h.001v-.001h.001v-.001h.001v-.001h.001v-.001h.001v-.001h.001v-.001h.001v-.001h.001v-.001h.001v-.001h.001v-.001h.001v-.001h.001v-.001h.001v-.001h.001v-.001h.001v-.001h.001v-.001h0l.001-.001h0l.001-.001h0l.001-.001h0l.001-.001h0l.001-.001h0l.001-.001h0l.001-.001h0l.001-.001h0l.001-.001h.001v-.001h.001v-.001h.001v-.001h.001v-.001h.001v-.001h.001v-.001h.001v-.001h.001v-.001h.001v-.001h0l.001-.001h0l.001-.001h0l.001-.001h.001v-.001h.001v-.001h.001v-.001h.001v-.001h.001v-.001h.001v-.001h.001v-.001h0l.001-.001h0l.001-.001h.001v-.001h.001v-.001h.001v-.001h.001v-.001h.001V13.4h.001v0h0l.001-.001h.001v-.001h.001v-.001h.001v-.001h.001v-.001h.001v-.001h0l.001-.001h.001v-.001h.001v-.001h.001v-.001h.001v-.001h.001v-.001h0l.001-.001h.001v-.001h.001v-.001h.001v-.001h.001v-.001h.001v-.001h.001v-.001h.001v-.001h.001v-.001h.001v-.001h.001v-.001h.001v-.001h.001v-.001h.001v-.001h.001v-.001h.001v-.001h.001v-.001h.001v-.001h.001v-.001h.001v-.001h.001v-.001h.001v-.001h.001v-.001h.001v-.001h.001v-.001h.001v-.001h.001v-.001h.001v-.001h.001v-.001h.001v-.001c.41-.41.89-.774 1.334-1.072 1.167-.78 1.376-2.491.336-3.529l-.09-.09-.007-.006-5.156-5.146a2.225 2.225 0 00-.007-.007l-.182-.181c-.98-.979-2.642-.877-3.422.306-.386.584-.798 1.153-1.097 1.451l-9.598 9.578h0v.001h0-.001 0v.001h0-.001 0v.001h0-.001 0v.001h0-.001 0v.001h0-.001 0v.001h-.001 0v.001h-.001 0v.001h-.001 0v.001h0-.001 0v.001h0-.001 0v.001h0-.001 0v.001h0-.001 0v.001h0-.001 0v.001h0-.001 0v.001h-.001 0v.001h-.001 0v.001h-.001 0v.001h-.001 0v.001h-.001 0v.001h0-.001 0v.001h0-.001 0v.001h0-.001 0v.001h0-.001 0v.001h0-.001 0v.001h0-.001 0v.001h0-.001 0v.001h0-.001 0v.001h0-.001 0v.001h-.001 0v.001h-.001 0v.001h-.001 0v.001h-.001 0v.001h-.001 0v.001h-.001 0v.001h-.001 0v.001h-.001 0v.001h-.001 0v.001h-.001 0v.001h-.001 0v.001h-.001 0v.001h-.001 0v.001h-.001 0v.001h-.001 0v.001h-.001 0v.001h-.001 0v.001h-.001 0v.001h-.001 0v.001h-.001 0v.001h-.001 0v.001h-.001 0v.001H16.2h0v.001h0v.001h-.001 0v.001h-.001 0v.001h-.001 0v.001h-.001 0v.001h-.001 0v.001h-.001 0v.001h-.001 0v.001h0-.001 0v.001h0-.001 0v.001h0-.001 0v.001h-.001 0v.001h-.001 0v.001h-.001 0v.001h-.001 0v.001h-.001 0v.001h-.001 0v.001h-.001 0v.001h-.001 0v.001h-.001 0v.001h-.001 0v.001h-.001 0v.001h0-.001 0v.001h-.001 0v.001h-.001 0v.001h-.001 0v.001h-.001 0v.001h-.001 0v.001h-.001 0v.001h-.001 0v.001h-.001 0v.001h-.001 0v.001h-.001 0v.001h-.001 0v.001h-.001 0v.001h-.001 0v.001h-.001 0v.001h-.001 0l-.001.001h0v.001h-.001 0v.001h-.001 0v.001h-.001 0v.001h-.001 0v.001h-.001 0v.001h-.001 0v.001h-.001 0v.001h-.001 0v.001h-.001 0v.001h-.001 0v.001h-.001 0l-.001.001h0v.001h-.001 0v.001h-.001 0v.001h-.001 0v.001h-.001 0l-.001.001h0v.001h-.001 0v.001h-.001 0v.001h-.001 0v.001h-.001 0l-.001.001h0v.001h-.001 0v.001h-.001 0v.001h-.001 0v.001h-.001 0l-.001.001h0v.001h-.001 0v.001h-.001 0v.001h-.001 0l-.001.001h0v.001h-.001 0v.001h-.001 0v.001h-.001 0l-.001.001h0l-.001.001h0v.001h-.001 0v.001h-.001 0l-.001.001h0l-.001.001s0 0 0 0a8.99 8.99 0 01-1.334 1.072 2.303 2.303 0 00-.335 3.53l.09.09.006.006 5.157 5.146a.42.42 0 00.006.006z" stroke="#fff" stroke-width="2"/><path d="M12.03 22.534l5.394 5.384M33.608 1l5.395 5.384" stroke="#fff" stroke-width="2" stroke-linecap="round"/><path d="M18.503 9.075c0-.892.725-1.615 1.619-1.615.893 0 1.618.723 1.618 1.615s-.725 1.615-1.618 1.615a1.617 1.617 0 01-1.619-1.615zm10.091 10.147l1.664-1.385 10.426 10.404a1.076 1.076 0 010 1.523 1.08 1.08 0 01-1.526 0L28.594 19.222z" fill="#fff"/><path fill-rule="evenodd" clip-rule="evenodd" d="M7.553 32.233a3.234 3.234 0 00-3.237 3.23v1.077h-1.08A3.233 3.233 0 000 39.77V43h36.684v-3.23a3.233 3.233 0 00-3.237-3.23h-1.079v-1.077a3.233 3.233 0 00-3.236-3.23H7.552zm22.657 3.23v3.23h3.237c.596 0 1.08.482 1.08 1.077v1.077H2.156V39.77c0-.595.484-1.077 1.08-1.077h3.237v-3.23c0-.595.483-1.077 1.079-1.077h21.579c.595 0 1.078.482 1.078 1.077z" fill="#fff"/><path d="M4.316 37.617c0-.595.483-1.077 1.079-1.077h17.263a1.078 1.078 0 110 2.153H5.395a1.078 1.078 0 01-1.08-1.076zm23.737 0c0-.595.483-1.077 1.079-1.077h4.315a1.078 1.078 0 110 2.153h-4.315a1.078 1.078 0 01-1.08-1.076z" fill="#fff"/></svg>