<svg width="52" height="28" fill="none" xmlns="http://www.w3.org/2000/svg"><path fill-rule="evenodd" clip-rule="evenodd" d="M44.422 6.6c-.721-.953-1.508-1.993-2.3-2.884-.522-.586-1.013-1.069-1.45-1.398-.466-.35-.74-.424-.847-.424H20.094a4.436 4.436 0 00-.563.4c-.432.353-.97.86-1.552 1.455l-.354.366a14.441 14.441 0 00-1.947-.712c.307-.334.616-.66.918-.968.604-.618 1.198-1.183 1.71-1.6A6.27 6.27 0 0119.053.3c.196-.115.54-.299.93-.299h19.842c.755 0 1.452.392 2.01.812.587.44 1.175 1.03 1.731 1.656.848.953 1.703 2.082 2.431 3.045l.345.456h2.972c1.135 0 2.062.522 2.326 1.433.122.422.075.9-.192 1.297a1.51 1.51 0 01-1.271.656h-.224c.405.226.76.531 1.047.87.606.714 1 1.671 1 2.659v11.191c0 .96-.492 1.619-1.095 1.994a3.115 3.115 0 01-1.591.445h-6.039c-.933 0-1.395-.706-1.579-1.147a3.525 3.525 0 01-.244-1.292h1.921a1.776 1.776 0 00.09.545h5.851c.157 0 .397-.047.565-.152a.415.415 0 00.143-.136.482.482 0 00.057-.257V12.884c0-.504-.21-1.04-.553-1.444-.347-.41-.745-.593-1.075-.593-.274 0-.68-.065-1.052-.296a1.607 1.607 0 01-.771-1.397 1.504 1.504 0 01.68-1.292h-1.921l-.289-.374c-.217-.282-.443-.58-.676-.888zm5.4 1.382s-.003-.006-.012-.014c.006.01.01.014.011.014z" fill="#fff"/><path fill-rule="evenodd" clip-rule="evenodd" d="M22.771 8.01c5.896.141 13.4.037 18.962-.431l.164 1.887c-5.184.437-12.038.562-17.77.466a14.23 14.23 0 00-1.356-1.921zm3.215 7.578h.62l1.375 1.158 1.375-1.158h8.136v1.894h-7.427l-2.084 1.755-1.931-1.627a14.36 14.36 0 00-.064-2.022zm19.404-1.755l-6.052.728-.233-1.88 6.052-.728.233 1.88zm-20.492 8.812c6.617.315 12.799-.284 20.182-1.793l.39 1.855c-7.874 1.61-14.436 2.203-21.544 1.782.367-.587.693-1.204.972-1.844z" fill="#fff"/><circle r="10.323" transform="matrix(-1 0 0 1 11.323 16.355)" stroke="#fff" stroke-width="2"/><path d="M5.871 17.194l2.516 2.516 7.13-7.13" stroke="#fff" stroke-width="2"/></svg>