<svg width="46" height="28" fill="none" xmlns="http://www.w3.org/2000/svg"><path d="M6.741 23.357a3 3 0 003 3h3.156a7.003 7.003 0 00-6.156-6.156v3.156zm37.366 0a3 3 0 01-3 3H37.95a7.003 7.003 0 016.156-6.156v3.156zM6.741 10.034a3 3 0 013-3h3.156a7.003 7.003 0 01-6.156 6.156v-3.156zm37.366 0a3 3 0 00-3-3H37.95a7.003 7.003 0 006.156 6.156v-3.156z" stroke="#fff" stroke-width="2"/><rect x="6.741" y="7.034" width="37.366" height="19.323" rx="3" stroke="#fff" stroke-width="2"/><circle cx="25.424" cy="16.695" r="3.921" stroke="#fff" stroke-width="2"/><path d="M2.167 2.167H34.68C34.68.97 33.71 0 32.512 0H2.167C.97 0 0 .97 0 2.167v17.34c0 1.197.97 2.168 2.167 2.168V2.167z" fill="#fff"/><path d="M2.167 19.507h1.084a1.084 1.084 0 010 2.168H2.167v-2.168zM34.68 2.167v1.084a1.084 1.084 0 01-2.168 0V2.167h2.168z" fill="#fff"/></svg>