<svg width="15" height="14" fill="none" xmlns="http://www.w3.org/2000/svg"><path d="M12.898 5.1a.292.292 0 00-.412-.028L8.425 8.629a.292.292 0 00-.094.159l-.325 1.539a.292.292 0 00.292.351h.016l1.595-.09a.292.292 0 00.175-.072l4.055-3.556a.292.292 0 00.028-.412L12.897 5.1zm-3.13 4.911l-1.113.065.226-1.073 3.77-3.3.884 1.01-3.767 3.298z" fill="#2158F5"/><path d="M8 0l3 3.5V4h-1L7.5 1V0H8z" fill="#7CB9FF"/><path d="M7.5 0v1H1v12h9v-2h1v2a1 1 0 01-1 1H1a1 1 0 01-1-1V1a1 1 0 011-1h6.5zM11 6V4h-1v2h1z" fill="#7CB9FF"/><path fill-rule="evenodd" clip-rule="evenodd" d="M7 3V.5h1V3a.5.5 0 00.5.5h2v1h-2A1.5 1.5 0 017 3z" fill="#7CB9FF"/></svg>