<svg width="12" height="13" fill="none" xmlns="http://www.w3.org/2000/svg"><path d="M.646 11.646l-.146.147V1A.5.5 0 011 .5h10a.5.5 0 01.5.5v10.793l-.146-.147-.354-.353-.354.353-.646.647-.646-.647L9 11.293l-.354.353-.646.647-.646-.647L7 11.293l-.354.353-.646.647-.646-.647L5 11.293l-.354.353-.646.647-.646-.647-.408-.407-.346.461-.44.587-.848-.677-.35-.28-.316.316z" stroke="#7CB9FF"/><path d="M6.307 1.63v1.165H5.86V1.63h.448zm-.013 7.2v1.085h-.448V8.83h.448zm1.16-1.407a1.11 1.11 0 00-.136-.562c-.088-.161-.237-.306-.448-.435a4.241 4.241 0 00-.853-.387 5.257 5.257 0 01-.958-.409 1.747 1.747 0 01-.62-.57c-.143-.232-.215-.522-.215-.871 0-.343.075-.64.224-.892.153-.252.368-.445.646-.58.279-.138.605-.207.98-.207.29 0 .55.043.778.128.231.085.426.212.585.382.16.167.284.374.369.62.085.243.127.524.127.843H7.41c0-.216-.03-.416-.088-.597a1.324 1.324 0 00-.255-.475 1.13 1.13 0 00-.421-.316 1.344 1.344 0 00-.572-.115c-.302 0-.55.055-.747.163a1.038 1.038 0 00-.435.435c-.094.182-.14.381-.14.598 0 .214.039.401.118.562.08.161.223.308.43.44.209.129.508.259.897.39.37.121.686.257.95.41.266.152.471.342.615.57.143.226.215.515.215.867 0 .354-.08.657-.242.91-.16.248-.386.439-.676.57-.29.132-.629.198-1.016.198a2.87 2.87 0 01-.738-.096 1.927 1.927 0 01-.659-.326 1.587 1.587 0 01-.47-.593C4.059 7.828 4 7.522 4 7.16h.523c0 .284.045.52.136.707.091.188.21.337.356.448.15.112.314.19.492.238.179.047.358.07.536.07.3 0 .553-.053.76-.158.212-.109.373-.254.484-.435.111-.185.167-.387.167-.607z" fill="#2158F5"/></svg>