<svg width="18" height="12" fill="none" xmlns="http://www.w3.org/2000/svg"><path d="M4.297 10.394c0 .202-.066.606-.33.606H1.659C1.44 11 1 10.879 1 10.394V5.848c0-.606.462-1.212.989-1.212.11 0 .33-.06.33-.303 0-.303-.33-.303-.99-.303-.329 0-.329-.606.33-.606h1.319C3.638 2.515 4.626 1 5.286 1H9.9m3.956 9.394c0 .202.066.606.33.606h2.307c.22 0 .66-.121.66-.606V5.848c0-.606-.462-1.212-.99-1.212-.11 0-.329-.06-.329-.303 0-.303.33-.303.99-.303.329 0 .329-.606-.33-.606h-1.32C14.517 2.515 13.199 1 12.869 1H8.253" stroke="#7CB9FF"/><path d="M4.186 4.077c3.297.328 8.373.263 10.22 0M2.867 6.047l2.308.328m10.879-.329l-2.308.329M5.834 7.687h2.967l.66.657.659-.657h2.967" stroke="#2158F5"/><path d="M2.54 9.985c4.944.328 8.57.328 13.845 0" stroke="#7CB9FF"/></svg>