<svg width="22" height="18" fill="none" xmlns="http://www.w3.org/2000/svg"><rect x="2.25" y=".25" width="13.5" height=".5" rx=".25" fill="#767676" stroke="#2158F5" stroke-width=".5"/><path d="M1 5h9.5a.5.5 0 010 1H1V5zm11 .5a.5.5 0 01.5-.5h1a.5.5 0 010 1h-1a.5.5 0 01-.5-.5zm3 0a.5.5 0 111 0 .5.5 0 01-1 0z" fill="#56CCF2"/><path fill-rule="evenodd" clip-rule="evenodd" d="M1 3h16v4c.34 0 .675.028 1 .083V3a1 1 0 00-1-1H1a1 1 0 00-1 1v10a1 1 0 001 1h10.083A6.036 6.036 0 0111 13H1V3z" fill="#2158F5"/><circle cx="17" cy="13" r="4.5" stroke="#2158F5"/><path d="M15 12.5h4v1h-4v-1z" fill="#2158F5"/><path d="M17.5 11v4h-1v-4h1z" fill="#2158F5"/></svg>