<svg width="23" height="21" fill="none" xmlns="http://www.w3.org/2000/svg"><circle cx="10" cy="7" r="1.5" stroke="#56CCF2"/><path fill-rule="evenodd" clip-rule="evenodd" d="M11.522 10.641A8.244 8.244 0 0010 10.5c-2.664 0-5.022 1.268-6.407 3.21l.814.58C5.6 12.616 7.655 11.5 10 11.5c.307 0 .609.02.904.056.182-.322.39-.628.618-.915z" fill="#56CCF2"/><path fill-rule="evenodd" clip-rule="evenodd" d="M11.2 18.92A9 9 0 1110 1c4.369 0 8.01 3.113 8.828 7.241.373.1.733.231 1.079.39C19.239 3.754 15.058 0 10 0 4.477 0 0 4.477 0 10s4.477 10 10 10c.657 0 1.299-.063 1.92-.184a7.037 7.037 0 01-.72-.895z" fill="#2158F5"/><circle cx="17" cy="15" r="5.5" stroke="#2158F5"/><path d="M18.796 15.222l-.04.29.232.177.401.306-.307.516-.494-.194-.26-.102-.224.17c-.122.091-.26.17-.41.232l-.263.11-.04.28-.071.493h-.64l-.07-.489-.042-.283-.265-.108a1.779 1.779 0 01-.407-.232l-.223-.169-.26.102-.495.194-.307-.516.4-.306.232-.176-.039-.288a1.745 1.745 0 01-.017-.229c0-.07.006-.144.017-.222l.04-.29-.232-.177-.401-.306.307-.516.494.194.26.102.224-.17c.122-.091.26-.17.41-.232l.263-.11.04-.28.071-.493h.64l.07.489.042.283.265.108c.149.06.283.137.407.232l.223.168.26-.101.384-.15.111-.044.024.04.283.476-.4.306-.232.176.039.288a1.596 1.596 0 010 .451zM17 13.642c-.748 0-1.381.597-1.381 1.358 0 .76.633 1.357 1.381 1.357s1.381-.596 1.381-1.357c0-.76-.633-1.357-1.381-1.357z" stroke="#56CCF2"/></svg>