<svg width="19" height="19" fill="none" xmlns="http://www.w3.org/2000/svg"><path fill-rule="evenodd" clip-rule="evenodd" d="M3.5 14.13c-.828 0-1.5.653-1.5 1.46v.488h-.5c-.828 0-1.5.654-1.5 1.46V19h17v-1.461c0-.807-.672-1.462-1.5-1.462H15v-.487c0-.807-.672-1.46-1.5-1.46h-10zM14 15.59v1.462h1.5c.276 0 .5.218.5.487v.487H1v-.487c0-.27.224-.487.5-.487H3V15.59c0-.269.224-.487.5-.487h10c.276 0 .5.218.5.487z" fill="#56CCF2"/><path d="M2 16.565c0-.27.224-.488.5-.488h8c.276 0 .5.219.5.488a.494.494 0 01-.5.487h-8a.494.494 0 01-.5-.487zm11 0c0-.27.224-.488.5-.488h2c.276 0 .5.219.5.488a.494.494 0 01-.5.487h-2a.494.494 0 01-.5-.487z" fill="#56CCF2"/><path d="M4.828 11.02l1.415 1.415" stroke="#2158F5" stroke-linecap="round"/><rect x="4.828" y="8.899" width="10" height="5" rx=".5" transform="rotate(-45 4.828 8.9)" stroke="#2158F5"/><rect x="11.192" y="8.899" width="1" height="8" rx=".5" transform="rotate(-45 11.192 8.9)" fill="#2158F5"/><rect x="6.95" y="4.657" width="1" height="2" rx=".5" transform="rotate(-45 6.95 4.657)" fill="#2158F5"/><path d="M14.02 1.828l1.415 1.415" stroke="#2158F5" stroke-linecap="round"/></svg>