<svg width="26" height="21" fill="none" xmlns="http://www.w3.org/2000/svg"><path d="M12.927 19c0 .812-.686 1.5-1.57 1.5-.885 0-1.572-.688-1.572-1.5s.687-1.5 1.571-1.5c.885 0 1.571.688 1.571 1.5zm5.143 0c0 .812.687 1.5 1.571 1.5.885 0 1.571-.688 1.571-1.5s-.686-1.5-1.57-1.5c-.885 0-1.572.688-1.572 1.5z" stroke="#2158F5"/><path d="M1 1h3.737a1 1 0 01.99.857L7.45 13.794a1 1 0 00.99.857h14.073a1 1 0 00.985-.83l1.299-7.524a1 1 0 00-.985-1.17H20.33M6.523 5h4.143" stroke="#2158F5" stroke-linecap="round"/><rect x="15" y="1.966" width="1" height="7.725" rx=".5" fill="#56CCF2"/><path d="M13 7.76l2.5 2.413L18 7.76" stroke="#56CCF2" stroke-linecap="round"/></svg>