<svg width="26" height="22" fill="none" xmlns="http://www.w3.org/2000/svg"><path d="M7 7.5H5a.5.5 0 00-.5.5v2a.5.5 0 00.5.5h2a.5.5 0 00.5-.5V8a.5.5 0 00-.5-.5zm0 6H5a.5.5 0 00-.5.5v2a.5.5 0 00.5.5h2a.5.5 0 00.5-.5v-2a.5.5 0 00-.5-.5zm7-6h-2a.5.5 0 00-.5.5v2a.5.5 0 00.5.5h2a.5.5 0 00.5-.5V8a.5.5 0 00-.5-.5zm0 6h-2a.5.5 0 00-.5.5v2a.5.5 0 00.5.5h2a.5.5 0 00.5-.5v-2a.5.5 0 00-.5-.5zm7-6h-2a.5.5 0 00-.5.5v2a.5.5 0 00.5.5h2a.5.5 0 00.5-.5V8a.5.5 0 00-.5-.5z" stroke="#56CCF2"/><path fill-rule="evenodd" clip-rule="evenodd" d="M3 2H2a2 2 0 00-2 2v16a2 2 0 002 2h22a2 2 0 002-2V4a2 2 0 00-2-2h-1v1h1a1 1 0 011 1v16a1 1 0 01-1 1H2a1 1 0 01-1-1V4a1 1 0 011-1h1V2zm5 1V2h10v1H8z" fill="#2158F5"/><path d="M5 .5a.5.5 0 011 0v4a.5.5 0 01-1 0v-4zm15 0a.5.5 0 011 0v4a.5.5 0 01-1 0v-4z" fill="#2158F5"/><path d="M3.5 2h-1a.5.5 0 000 1h1a.5.5 0 000-1zm5 0h-1a.5.5 0 000 1h1a.5.5 0 000-1zm10 0h-1a.5.5 0 000 1h1a.5.5 0 000-1zm5 0h-1a.5.5 0 000 1h1a.5.5 0 000-1z" fill="#0D66CC"/></svg>