<svg width="28" height="16" fill="none" xmlns="http://www.w3.org/2000/svg"><path fill-rule="evenodd" clip-rule="evenodd" d="M4.372 3.872c.369-.487.77-1.018 1.176-1.473.266-.3.517-.546.74-.715.239-.178.378-.216.433-.216h10.083a2.257 2.257 0 01.288.205c.22.18.495.439.793.743.06.06.12.123.18.187.32-.144.652-.266.995-.364-.157-.17-.314-.337-.469-.495a11.19 11.19 0 00-.874-.817 3.19 3.19 0 00-.382-.274A.963.963 0 0016.86.5H6.721c-.385 0-.742.2-1.027.415-.3.225-.6.526-.884.846-.434.487-.87 1.064-1.243 1.556l-.176.233H1.873c-.58 0-1.054.267-1.189.732a.79.79 0 00.098.663.772.772 0 00.65.335h.114a1.962 1.962 0 00-.535.445C.701 6.09.5 6.579.5 7.084v5.718c0 .491.251.827.56 1.02.281.175.599.226.813.226h3.085c.477 0 .713-.36.807-.586.098-.235.125-.494.125-.66h-.982a.949.949 0 01-.046.279h-2.99a.603.603 0 01-.288-.078.211.211 0 01-.073-.07.247.247 0 01-.03-.13v-5.72c0-.257.108-.53.283-.737.177-.21.38-.303.55-.303.14 0 .347-.033.537-.152a.821.821 0 00.394-.714.769.769 0 00-.347-.66h.981l.148-.19.345-.455zm-2.759.707l.006-.007-.006.007z" fill="#56CCF2"/><path fill-rule="evenodd" clip-rule="evenodd" d="M15.436 4.593c-3.013.072-6.848.02-9.69-.22l-.083.964c2.649.223 6.15.287 9.08.238.204-.346.435-.674.693-.982zm-1.643 3.872h-.317l-.703.592-.702-.592H7.913v.968h3.796l1.064.897.987-.831a7.113 7.113 0 01.033-1.034zm-9.915-.897l3.092.373.12-.961-3.093-.372-.12.96z" fill="#2158F5"/><path fill-rule="evenodd" clip-rule="evenodd" d="M14.349 12.071c-3.381.161-6.54-.144-10.313-.916l-.2.948c4.024.822 7.378 1.126 11.01.91a7.203 7.203 0 01-.497-.942z" fill="#56CCF2"/><path d="M27.5 15.5l-2.945-2.903" stroke="#2158F5" stroke-linecap="round"/><path d="M26.018 8.726c0 2.924-2.407 5.306-5.39 5.306-2.985 0-5.392-2.382-5.392-5.306s2.407-5.307 5.391-5.307 5.391 2.383 5.391 5.307z" stroke="#2158F5"/><path d="M17.682 8.242c0-1.336 1.099-2.42 2.454-2.42" stroke="#2158F5" stroke-linecap="square"/></svg>