<svg width="22" height="19" fill="none" xmlns="http://www.w3.org/2000/svg"><path d="M21 1v10a1 1 0 001-1V1a1 1 0 00-1-1H5a1 1 0 00-1 1h17z" fill="#2158F5"/><path d="M4 1h1v1.5a.5.5 0 01-1 0V1zm17 9v1h-1.5a.5.5 0 010-1H21z" fill="#2158F5"/><path d="M6 15.5h-.167l-.133.1L2.5 18v-2.5H1a.5.5 0 01-.5-.5V5a.5.5 0 01.5-.5h16a.5.5 0 01.5.5v10a.5.5 0 01-.5.5H6z" stroke="#2158F5"/><path d="M6.5 10a.5.5 0 11-1 0 .5.5 0 011 0zm3 0a.5.5 0 11-1 0 .5.5 0 011 0zm3 0a.5.5 0 11-1 0 .5.5 0 011 0z" stroke="#56CCF2"/></svg>