<svg width="20" height="19" fill="none" xmlns="http://www.w3.org/2000/svg"><path d="M9.468 8.071c-.805 0-1.463.643-1.463 1.429s.658 1.429 1.463 1.429c.806 0 1.464-.643 1.464-1.429s-.658-1.429-1.464-1.429zM13.311 9.5c0 .164-.014.329-.037.486l1.084.828a.248.248 0 01.058.322l-1.024 1.728c-.066.107-.198.15-.315.107l-1.274-.5a3.95 3.95 0 01-.863.493l-.19 1.322a.264.264 0 01-.257.214h-2.05a.265.265 0 01-.255-.207l-.19-1.322a3.783 3.783 0 01-.864-.492l-1.274.5a.262.262 0 01-.315-.108l-1.024-1.728a.248.248 0 01.058-.322l1.083-.828a3.722 3.722 0 01-.036-.493c0-.164.014-.329.036-.486L4.58 8.186a.248.248 0 01-.058-.322l1.024-1.728c.066-.107.198-.15.315-.107l1.274.5c.263-.2.556-.365.863-.493l.19-1.322a.264.264 0 01.257-.214h2.05c.124 0 .233.093.255.207l.19 1.322c.315.128.6.292.864.492l.637-.25.637-.25a.262.262 0 01.315.108l.289.487.735 1.241a.248.248 0 01-.058.322l-1.084.828c.023.164.037.329.037.493z" stroke="#56CCF2"/><path d="M19.5 9.5h-2.124a.5.5 0 00-.414.777l1.062 1.599a.497.497 0 00.83 0l1.062-1.599A.5.5 0 0019.5 9.5z" fill="#2158F5"/><path fill-rule="evenodd" clip-rule="evenodd" d="M9.468 1C4.79 1 .997 4.806.997 9.5S4.79 18 9.468 18a8.41 8.41 0 004.685-1.416.497.497 0 01.69.14.5.5 0 01-.138.692A9.403 9.403 0 019.468 19C4.24 19 0 14.747 0 9.5S4.24 0 9.468 0c5.23 0 9.469 4.253 9.469 9.5a.5.5 0 11-.997 0c0-4.694-3.793-8.5-8.472-8.5z" fill="#2158F5"/></svg>