<svg width="20" height="20" fill="none" xmlns="http://www.w3.org/2000/svg"><circle cx="10" cy="10" r="9.5" stroke="#2158F5"/><path d="M9.5 11.746v3.127l-4.302-4.46h0l-.005-.004a2.383 2.383 0 01-.33-.42 3.49 3.49 0 01-.261-.51 2.592 2.592 0 01-.155-.536 3.687 3.687 0 01-.058-.575c0-.267.033-.52.097-.76a2.875 2.875 0 01.712-1.27c.165-.17.35-.32.558-.447a2.6 2.6 0 01.652-.286 2.767 2.767 0 011.471-.009c.218.066.413.156.588.266.182.116.364.261.545.438.2.196.41.406.63.631l.368.375.357-.385c.196-.212.39-.41.581-.592a3.81 3.81 0 01.56-.445l-.273-.419.273.42a2.258 2.258 0 011.297-.384 2.744 2.744 0 011.975.815c.255.261.458.565.61.916.145.336.221.714.221 1.141 0 .366-.045.664-.124.904a2.708 2.708 0 01-.348.702l.411.285-.41-.285a4.899 4.899 0 01-.553.658c-.189.19-.387.393-.594.609H9.5v.5z" stroke="#56CCF2"/><mask id="a" fill="#fff"><path d="M11.597 14.762v.793h4.583v-.793h-4.583zm-.764-1.984v.793h5.347v-.793h-5.347z"/></mask><path d="M11.597 15.556h-4v4h4v-4zm0-.794v-4h-4v4h4zm4.583 0h4v-4h-4v4zm0 .793v4h4v-4h-4zm-5.347-1.984h-4v4h4v-4zm0-.793v-4h-4v4h4zm5.347 0h4v-4h-4v4zm0 .793v4h4v-4h-4zm-.583 1.985v-.794h-8v.793h8zm-4 3.206h4.583v-8h-4.583v8zm.584-4v.793h8v-.793h-8zm4-3.207h-4.584v8h4.583v-8zm-1.348 2.016v-.793h-8v.793h8zm-4 3.207h5.347v-8h-5.347v8zm1.348-4v.793h8v-.793h-8zm4-3.207h-5.348v8h5.347v-8z" fill="#56CCF2" mask="url(#a)"/></svg>