<svg width="23" height="15" fill="none" xmlns="http://www.w3.org/2000/svg"><path d="M5.286 13.212c0 .263-.086.788-.429.788h-3C1.571 14 1 13.842 1 13.212V7.303c0-.788.6-1.576 1.286-1.576.143 0 .428-.079.428-.394 0-.394-.428-.394-1.285-.394-.429 0-.429-.787.428-.787h1.714C4.43 2.97 5.714 1 6.571 1h6m5.143 12.212c0 .263.086.788.429.788h3c.286 0 .857-.158.857-.788V7.303c0-.788-.6-1.576-1.286-1.576-.143 0-.428-.079-.428-.394 0-.394.428-.394 1.285-.394.429 0 .429-.787-.428-.787h-1.714C18.57 2.97 16.857 1 16.429 1h-6" stroke="#2158F5"/><path d="M5.143 5c4.286.427 10.886.341 13.286 0m-15 2.56l3 .427M20.57 7.56l-3 .427M7.286 9.693h3.857l.857.854.857-.854h3.857" stroke="#56CCF2"/><path d="M3 12.68c6.429.427 11.143.427 18 0" stroke="#2158F5"/></svg>