<svg width="19" height="21" fill="none" xmlns="http://www.w3.org/2000/svg"><mask id="a" maskUnits="userSpaceOnUse" x="4.453" y="-.43" width="14.142" height="14.142" fill="#000"><path fill="#fff" d="M4.453-.43h14.142v14.142H4.453z"/><path d="M7.07 9.258c-.22-.22-.23-.566-.022-.774l6.01-6.01c.208-.208.555-.198.775.022l2.39 2.39c.22.22.23.566.022.773l-6.011 6.011c-.207.208-.554.198-.774-.022l-2.39-2.39z"/><path d="M12.33 3.999c-.22-.22-.23-.567-.023-.774.176-.176.39-.477.568-.747.19-.29.611-.329.87-.07l2.522 2.522a.607.607 0 01-.085.926 4.575 4.575 0 00-.748.615c-.208.208-.494.137-.714-.083l-2.39-2.39zm-1.367 6.146c.22.22.23.566.022.774-.175.175-.389.476-.567.747-.19.29-.612.328-.87.07L7.025 9.212a.607.607 0 01.085-.925 4.63 4.63 0 00.749-.616c.207-.207.493-.137.713.083l2.39 2.39z"/></mask><path d="M16.182 5.856l-.557-.831.557.83zm-3.307-3.378l-.835-.55.835.55zm-1.89 8.441l.708.707-.708-.707zM8.573 7.755l-.707.708.707-.708zm-.713-.083l-.708-.707.708.707zm-.834 1.541l.707-.707-.707.707zm.085-.925l.557.83-.557-.83zm2.436 3.447l-.707.707.707-.707zm.87-.07l.836.55-.835-.55zm.546-1.52l.707-.707-.707.707zm-3.208-.954l6.01-6.01-1.413-1.415L6.34 7.777l1.414 1.414zm5.37-5.988l2.39 2.39 1.415-1.415-2.39-2.39-1.414 1.415zm2.413 1.75l-6.011 6.01 1.414 1.415 6.011-6.012-1.414-1.414zm-5.37 5.988l-2.39-2.39-1.415 1.414 2.39 2.39 1.414-1.414zm-.641.022a.453.453 0 01.64-.022l-1.414 1.414c.57.57 1.552.659 2.188.022l-1.414-1.414zm5.988-5.37a.453.453 0 01.023-.64l1.414 1.413c.636-.636.548-1.617-.023-2.188l-1.414 1.415zm-1.75-2.413a.453.453 0 01-.64.023l1.415-1.414c-.571-.571-1.552-.66-2.188-.023l1.414 1.414zM6.342 7.777c-.637.636-.549 1.617.022 2.188l1.415-1.414a.453.453 0 01-.023.64L6.34 7.777zm6.697-4.661l2.522 2.521 1.414-1.414-2.521-2.522-1.415 1.415zm2.389 2.565l-2.39-2.39-1.414 1.415 2.39 2.39 1.414-1.415zm-2.412-1.75c.255-.255.518-.634.695-.904l-1.67-1.099c-.18.272-.344.494-.44.59l1.415 1.414zm2.61 1.094c-.256.171-.56.4-.838.679L16.2 7.118c.157-.158.35-.306.537-.432l-1.113-1.661zm-.838.679h-.001v.001h-.001v.001h-.001v.001h-.001v.001h-.001v.001h-.001v.001h-.001v.001h-.001v.001h-.001v.001h-.001v.001h-.001v.001h-.001v.001h-.001v.001h-.001v.001h-.001v.001h-.001v.001h-.001v.001h-.001v.001h-.001v.001h-.001v.001h-.001v.001h-.001v.001h-.001v.001h-.001v.001h-.001v.001h-.001v.001h-.001v.001h-.001v.001h-.001v.001h-.001v.001h-.001v.001h-.001v.001h-.001v.001h-.001v.001h-.001v.001h-.001v.001h-.001v.001h-.001v.001h-.001v.001h-.001v.001h-.001v.001h-.001v.001h-.001v.001h-.001v.001h-.001v.001h-.001v.001h-.001v.001h-.001v.001h-.001v.001h-.001v.001h-.001v.001h-.001v.001h-.001v.001h-.001v.001h-.001v.001h-.001v.001h-.001v.001h-.001v.001h-.001v.001h-.001v.001l1.413 1.414h.001v-.001h.001v-.001h.001v-.001h.001v-.001h.001v-.001h.001v-.001h.001V7.17h.002v-.001h.001v-.001h.001v-.001h.001v-.001h.001v-.001h.001v-.001h.001v-.001h.001v-.001h.001V7.16h.001v-.001h.001v-.001h.001v-.001h.001v-.001h.001v-.001h.001v-.001h.001v-.001h.001v-.001h.001v-.001h.001V7.15h.002v-.001h.001v-.001h.001v-.001h.001v-.001h.001v-.001h.001v-.001h.001v-.001h.001v-.001h.001V7.14h.002v-.001h.001v-.001h.001v-.001h.001v-.001h.001v-.001h.001v-.001h.001v-.001h.001v-.001h.001V7.13h.002v-.001h.001v-.001h.001v-.001h.001v-.001h.001v-.001h.001v-.001h.001v-.001h.001v-.001h.001V7.12h.002v-.001h.001v-.001l-1.413-1.414zm-.775 1.391c.215.215.526.423.917.483.432.067.877-.065 1.211-.4l-1.414-1.414a.602.602 0 01.507-.163.45.45 0 01.152.05c.027.016.04.028.042.03l-1.415 1.414zm1.548-1.458a.394.394 0 01.065-.612l1.113 1.661a1.606 1.606 0 00.236-2.463L15.56 5.637zm-1.107-3.936c-.68-.68-1.854-.623-2.413.227l1.67 1.1a.437.437 0 01-.672.088L14.453 1.7zm-1.416 1.59a.453.453 0 01-.022.64L11.6 2.518c-.636.637-.548 1.618.023 2.189l1.414-1.415zm-2.783 7.737L7.733 8.506 6.318 9.92l2.522 2.522 1.414-1.414zM7.866 8.463l2.39 2.39 1.414-1.415-2.39-2.39-1.414 1.415zm2.412 1.749c-.255.255-.518.635-.695.904l1.67 1.1a4.52 4.52 0 01.44-.59l-1.415-1.414zm-2.61-1.093c.256-.172.56-.4.838-.68L7.092 7.027a3.64 3.64 0 01-.538.431L7.668 9.12zm.838-.68l.031-.03.03-.03-1.415-1.414-.029.03-.03.03L8.505 8.44zm.774-1.39a1.669 1.669 0 00-.917-.484 1.395 1.395 0 00-1.21.4L8.566 8.38a.602.602 0 01-.507.163.45.45 0 01-.152-.05.198.198 0 01-.042-.03L9.28 7.048zM7.733 8.505a.394.394 0 01-.065.613L6.554 7.457a1.607 1.607 0 00-.236 2.463l1.415-1.414zm1.107 3.936c.68.68 1.854.624 2.413-.226l-1.67-1.1a.437.437 0 01.671-.088L8.84 12.442zm1.416-1.59a.453.453 0 01.022-.64l1.415 1.414c.636-.636.548-1.617-.023-2.188l-1.414 1.414z" fill="#7CB9FF" mask="url(#a)"/><path d="M5.575 11l2.5 2.5m7.5-12.5l2.5 2.5" stroke="#0D66CC" stroke-linecap="round"/><path d="M8.575 4.75a.75.75 0 111.5 0 .75.75 0 01-1.5 0zm4.675 4.712l.772-.643 4.832 4.831a.5.5 0 01-.708.707l-4.895-4.895z" fill="#7CB9FF"/><path fill-rule="evenodd" clip-rule="evenodd" d="M3.5 15.504a1.5 1.5 0 00-1.5 1.5v.5h-.5a1.5 1.5 0 00-1.5 1.5v1.5h17v-1.5a1.5 1.5 0 00-1.5-1.5H15v-.5a1.5 1.5 0 00-1.5-1.5h-10zm10.5 1.5v1.5h1.5a.5.5 0 01.5.5v.5H1v-.5a.5.5 0 01.5-.5H3v-1.5a.5.5 0 01.5-.5h10a.5.5 0 01.5.5z" fill="#7CB9FF"/><path d="M2 18.004a.5.5 0 01.5-.5h8a.5.5 0 110 1h-8a.5.5 0 01-.5-.5zm11 0a.5.5 0 01.5-.5h2a.5.5 0 110 1h-2a.5.5 0 01-.5-.5z" fill="#7CB9FF"/></svg>