<svg width="22" height="19" fill="none" xmlns="http://www.w3.org/2000/svg"><path d="M21 1v10a1 1 0 001-1V1a1 1 0 00-1-1H5a1 1 0 00-1 1h17z" fill="#7CB9FF"/><path d="M4 1h1v1.5a.5.5 0 01-1 0V1zm17 9v1h-1.5a.5.5 0 010-1H21z" fill="#7CB9FF"/><path d="M6 15.5h-.167l-.133.1L2.5 18v-2.5H1a.5.5 0 01-.5-.5V5a.5.5 0 01.5-.5h16a.5.5 0 01.5.5v10a.5.5 0 01-.5.5H6z" stroke="#7CB9FF"/><mask id="a" fill="#fff"><path d="M7 10a1 1 0 11-2 0 1 1 0 012 0zm3 0a1 1 0 11-2 0 1 1 0 012 0zm3 0a1 1 0 11-2 0 1 1 0 012 0z"/></mask><path d="M6 10v2a2 2 0 002-2H6zm0 0H4a2 2 0 002 2v-2zm0 0V8a2 2 0 00-2 2h2zm0 0h2a2 2 0 00-2-2v2zm3 0v2a2 2 0 002-2H9zm0 0H7a2 2 0 002 2v-2zm0 0V8a2 2 0 00-2 2h2zm0 0h2a2 2 0 00-2-2v2zm3 0v2a2 2 0 002-2h-2zm0 0h-2a2 2 0 002 2v-2zm0 0V8a2 2 0 00-2 2h2zm0 0h2a2 2 0 00-2-2v2z" fill="#0D66CC" mask="url(#a)"/></svg>