<svg width="104" height="48" fill="none" xmlns="http://www.w3.org/2000/svg"><path d="M.037 30.772V14.938c0-1.195.893-2.191 1.984-2.49l11.508-2.091c.694-.498 1.389-1.096 2.083-1.594C21.465 4.283 26.921 0 44.182 0c17.558 0 30.95 9.959 34.125 12.448 18.55 1.096 24.999 10.556 25.296 10.954.298.399.397.897.397 1.395V38.04a2.46 2.46 0 01-2.48 2.49h-7.142C92.888 44.813 88.822 48 84.06 48s-8.83-3.087-10.317-7.469H32.476C30.988 44.813 26.921 48 22.16 48c-4.761 0-8.928-3.187-10.317-7.569-5.158-.796-8.73-2.49-10.515-5.078-1.389-1.892-1.389-3.785-1.29-4.581zm46.724-18.324h22.816c-5.257-3.087-13.293-6.772-22.816-7.37v7.37zm-4.96-7.469c-8.432.2-13.392 1.594-17.063 3.585l3.968 3.784h13.095V4.98zm57.338 20.714c-1.587-1.793-7.638-7.668-21.824-8.266H46.662v18.125h26.586c.694-5.477 5.257-9.76 10.813-9.76 5.555 0 10.217 4.283 10.813 9.76h4.166v-9.86h.1zM84.16 43.02c3.374 0 6.052-2.789 6.052-6.075 0-3.386-2.678-6.075-6.051-6.075s-6.051 2.789-6.051 6.075c0 3.386 2.678 6.075 6.05 6.075zm-61.9 0c3.372 0 6.05-2.789 6.05-6.075 0-3.386-2.678-6.075-6.05-6.075-3.373 0-6.052 2.789-6.052 6.075v.498c.1.299.1.498.1.797.694 2.788 3.075 4.78 5.951 4.78zm-10.814-7.668c.794-5.378 5.357-9.56 10.813-9.56 5.556 0 10.218 4.282 10.813 9.759h8.73V17.427H27.714c-.595 0-1.19-.199-1.686-.697l-5.555-5.278-.1-.1c-.595.499-1.19.897-1.785 1.395-.893.697-1.786 1.394-2.678 1.992-.298.199-.596.398-.992.398L4.898 16.93v14.439c0 .897 1.19 2.988 6.547 3.984z" fill="#7CB9FF"/><path d="M58.963 24.299h-7.54a2.46 2.46 0 01-2.48-2.49 2.46 2.46 0 012.48-2.49h7.54a2.46 2.46 0 012.48 2.49 2.46 2.46 0 01-2.48 2.49zM8.37 19.42h7.54a2.46 2.46 0 012.48 2.489 2.46 2.46 0 01-2.48 2.49H8.37a2.46 2.46 0 01-2.48-2.49 2.46 2.46 0 012.48-2.49z" fill="#0D66CC"/></svg>