<svg width="106" height="59" fill="none" xmlns="http://www.w3.org/2000/svg"><path d="M15.956 13.615c1.493-1.985 3.08-4.065 4.759-5.956 1.12-1.23 2.053-2.175 2.986-2.837.933-.756 1.493-.85 1.773-.85H66.25l.093.094c.28.189.56.378 1.026.756.933.757 1.96 1.797 3.173 3.026l.746.756c1.307-.567 2.613-1.04 4.013-1.513-.654-.662-1.213-1.323-1.867-1.985-1.213-1.23-2.519-2.459-3.545-3.31-.467-.378-1.027-.756-1.587-1.134C67.93.378 67.183 0 66.343 0H25.288c-1.586 0-2.986.851-4.199 1.702a23.902 23.902 0 00-3.546 3.404c-1.773 1.985-3.545 4.255-5.038 6.24l-.747.946H5.6c-2.333 0-4.293 1.04-4.853 2.93-.093.473-.186.946-.093 1.419.093.473.28.946.467 1.324.56.85 1.586 1.323 2.612 1.323H4.2a8.098 8.098 0 00-2.146 1.797C.84 22.598 0 24.489 0 26.569v23.07c0 1.986 1.026 3.31 2.24 4.066 1.12.662 2.426.945 3.265.945H18.01c1.96 0 2.893-1.418 3.266-2.363.373-.946.466-1.986.466-2.648H17.73c0 .19 0 .378-.093.568 0 .189-.094.378-.094.567H5.412c-.28 0-.84-.095-1.213-.284l-.28-.283c-.093-.19-.093-.379-.093-.568V26.57c0-1.04.466-2.175 1.12-2.931.746-.851 1.586-1.23 2.239-1.23.56 0 1.4-.094 2.146-.567a3.792 3.792 0 001.213-1.229c.28-.473.467-1.04.373-1.607a3.25 3.25 0 00-.933-2.27c-.186-.189-.28-.283-.466-.378h4.479l.56-.756c.466-.757.932-1.324 1.4-1.986z" fill="#7CB9FF"/><path d="M60.745 16.546c-12.223.284-27.713.095-39.19-.85l-.373 3.876c10.73.945 24.914 1.134 36.764.945a19.086 19.086 0 012.8-3.97zm-6.718 15.601h-1.306l-2.8 2.364-2.799-2.364H30.326v3.877h15.396l4.293 3.593 4.012-3.31c-.187-1.418-.093-2.742 0-4.16zm-40.124-3.593l12.504 1.513.467-3.877-12.504-1.512-.467 3.876zm42.363 18.154c-13.716.662-26.5-.567-41.71-3.688l-.84 3.782c16.237 3.31 29.86 4.539 44.51 3.688-.653-1.23-1.306-2.458-1.96-3.782zm23.048-17.302v6.051h5.971V23.355h-5.972v6.051zm0 14.845v3.12h5.971v-6.24h-5.972v3.12z" fill="#0D66CC"/><path d="M81.926 59c-13.25 0-24.074-10.779-24.074-24.11 0-13.332 10.824-24.016 24.074-24.016 13.25 0 24.074 10.778 24.074 24.015C106 48.127 95.27 59 81.926 59zm0-43.493c-10.73 0-19.408 8.698-19.408 19.383 0 10.684 8.77 19.383 19.408 19.383 10.73 0 19.409-8.7 19.409-19.384.093-10.684-8.678-19.382-19.409-19.382z" fill="#7CB9FF"/></svg>