<svg width="18" height="15" fill="none" xmlns="http://www.w3.org/2000/svg"><path fill-rule="evenodd" clip-rule="evenodd" d="M17 3H1v11h16V3zM1 2a1 1 0 00-1 1v11a1 1 0 001 1h16a1 1 0 001-1V3a1 1 0 00-1-1H1zM5 .5a.5.5 0 01.5-.5h7a.5.5 0 010 1h-7A.5.5 0 015 .5z" fill="#7CB9FF"/><path d="M10 6a1 1 0 11-2 0 1 1 0 012 0zm-5 4.5v.5h3v1H4v-1.5C4 8.83 7.33 8 9 8s5 .83 5 2.5v.5h-1v-.5c0-.052-.018-.169-.225-.36-.215-.2-.56-.404-1.02-.588C10.835 9.184 9.711 9 9 9c-.711 0-1.835.184-2.755.552-.46.184-.805.389-1.02.587-.207.192-.225.31-.225.361z" fill="#0D66CC"/><path d="M7 11.5a.5.5 0 01.5-.5h1a.5.5 0 010 1h-1a.5.5 0 01-.5-.5zm6-1a.5.5 0 011 0v1a.5.5 0 01-1 0v-1zm-3 1a.5.5 0 111 0 .5.5 0 01-1 0z" fill="#0D66CC"/></svg>