<svg width="79" height="59" fill="none" xmlns="http://www.w3.org/2000/svg"><path d="M77.732 8.04c0-2.138-.457-3.97-1.22-5.039-.764-1.068-1.986-1.832-3.36-1.832-1.527 0-2.595.611-3.359 1.832-.763 1.222-1.221 2.901-1.221 5.039 0 2.137.458 3.817 1.221 5.038.764 1.221 1.985 1.832 3.36 1.832 1.526 0 2.595-.61 3.51-1.832.917-1.221 1.07-2.9 1.07-5.038zm-1.984 0c0 1.985-.306 3.206-.764 4.122-.458.916-1.068 1.221-1.984 1.221-.916 0-1.527-.458-1.985-1.221-.458-.763-.764-2.138-.764-4.122 0-1.985.306-3.36.764-4.123.458-.763 1.069-1.22 1.984-1.22.917 0 1.68.457 2.138 1.373.458.916.61 2.29.61 3.97zm-11.451 0c0-2.138-.458-3.97-1.222-5.039-.763-1.068-1.984-1.832-3.358-1.832-1.527 0-2.596.611-3.36 1.832-.763 1.222-1.22 2.901-1.22 5.039 0 2.137.457 3.817 1.22 5.038.764 1.221 1.986 1.832 3.36 1.832 1.526 0 2.595-.61 3.511-1.832.916-1.221 1.069-2.9 1.069-5.038zm-1.985 0c0 1.985-.305 3.206-.763 4.122-.458.916-1.069 1.221-1.985 1.221-.916 0-1.527-.458-1.985-1.221-.458-.763-.763-2.138-.763-4.122 0-1.985.305-3.36.763-4.123.458-.763 1.069-1.22 1.985-1.22.916 0 1.68.457 2.137 1.373.458.916.611 2.29.611 3.97zm-11.298 0c0-2.138-.458-3.97-1.222-5.039-.763-1.221-1.985-1.832-3.359-1.832-1.526 0-2.595.611-3.358 1.832-.764 1.222-1.222 2.901-1.222 5.039 0 2.137.458 3.817 1.222 5.038.763 1.221 1.984 1.832 3.358 1.832 1.527 0 2.596-.61 3.512-1.832.61-1.221 1.069-2.9 1.069-5.038zm-1.985 0c0 1.985-.305 3.206-.763 4.122-.458.916-1.07 1.221-1.985 1.221-.916 0-1.527-.458-1.985-1.221-.458-.763-.763-2.138-.763-4.122 0-1.985.305-3.36.763-4.123.458-.763 1.069-1.22 1.985-1.22.916 0 1.68.457 2.137 1.373.306.916.611 2.29.611 3.97zm-11.449 0c0-2.138-.458-3.97-1.221-5.039-.764-1.221-1.985-1.832-3.36-1.832-1.526 0-2.595.611-3.358 1.832-.763 1.222-1.221 2.901-1.221 5.039 0 2.137.457 3.817 1.22 5.038.764 1.221 1.986 1.832 3.36 1.832 1.527 0 2.595-.61 3.511-1.832.61-1.221 1.07-2.9 1.07-5.038zm-1.985 0c0 1.985-.305 3.206-.763 4.122-.458.763-1.069 1.221-1.985 1.221-.916 0-1.527-.458-1.985-1.221-.458-.763-.763-2.138-.763-4.122 0-1.985.305-3.36.763-4.123.458-.763 1.07-1.22 1.985-1.22.916 0 1.68.457 2.137 1.373.459.916.611 2.29.611 3.97zm-11.452 0c0-2.138-.458-3.97-1.222-5.039-.763-1.221-1.985-1.832-3.359-1.832-1.526 0-2.595.611-3.359 1.832-.763 1.222-1.22 2.901-1.22 5.039 0 2.137.457 3.817 1.22 5.038.764 1.221 1.985 1.832 3.36 1.832 1.526 0 2.595-.61 3.51-1.832.917-1.221 1.07-2.9 1.07-5.038zm-1.985 0c0 1.985-.305 3.206-.764 4.122-.457.763-1.068 1.221-1.984 1.221-.916 0-1.527-.458-1.985-1.221-.458-.763-.764-2.138-.764-4.122 0-1.985.306-3.36.764-4.123.458-.763 1.069-1.22 1.985-1.22.916 0 1.68.457 2.137 1.373.458.916.61 2.29.61 3.97zm-11.295 0c0-2.138-.458-3.97-1.221-5.039C8.878 1.933 7.657 1.17 6.283 1.17c-1.527 0-2.596.611-3.359 1.832-.763 1.222-1.221 2.901-1.221 5.039 0 2.137.458 3.817 1.221 5.038.763 1.221 1.985 1.832 3.359 1.832 1.527 0 2.595-.61 3.511-1.832.916-1.221 1.07-2.9 1.07-5.038zm-1.985 0c0 1.985-.305 3.206-.763 4.122-.458.763-1.069 1.221-1.985 1.221-.916 0-1.526-.458-1.984-1.221-.458-.763-.764-2.138-.764-4.122 0-1.985.305-3.36.764-4.123.458-.763 1.068-1.22 1.984-1.22.916 0 1.68.457 2.138 1.373.305.916.61 2.29.61 3.97z" fill="#0D66CC" stroke="#0D66CC" stroke-width="1.854" stroke-miterlimit="10"/><path d="M35.901 45.14c-9.275 0-16.794-7.52-16.794-16.794 0-9.276 7.519-16.795 16.794-16.795s16.794 7.52 16.794 16.795c0 9.275-7.519 16.794-16.794 16.794z" fill="#F1F1F8" stroke="#7CB9FF" stroke-width="5.563" stroke-miterlimit="10" stroke-linecap="round" stroke-linejoin="round"/><path fill-rule="evenodd" clip-rule="evenodd" d="M38.34 24.223v4.58h-4.58v-9.16h4.58v4.58zm0 11.451v2.29h-4.58v-4.58h4.58v2.29z" fill="#0D66CC"/><path d="M21.546 37.048L9.485 49.109c-1.374 1.374-1.069 3.665.61 5.344 1.68 1.68 3.97 1.832 5.344.61l11.909-11.908" stroke="#7CB9FF" stroke-width="5.563" stroke-miterlimit="10" stroke-linecap="round" stroke-linejoin="round"/></svg>