<svg width="73" height="70" fill="none" xmlns="http://www.w3.org/2000/svg"><path d="M36.69 22.917c-1.189-3.265-2.674-11.079-2.674-11.178-.199-1.187-1.19-1.978-2.378-2.077-1.09 0-2.18.791-2.477 1.88-.297 1.186-.99 4.253-1.287 5.242-.198.791-.595 1.583-.99 2.275l-1.685-3.858c0-.099-.099-.099-.099-.197C20.246 6.299 12.717.66 12.321.463c-.99-.692-2.377-.593-3.17.198-.792.791-.99 2.077-.396 3.066.594 1.583.594 9.793-3.269 14.54-5.646 6.925-6.934 14.244-3.863 21.96 3.467 8.407 11.49 10.386 11.788 10.386.198 0 .396.099.594.099.892 0 1.684-.396 2.08-1.187a2.376 2.376 0 00-.198-2.869c-3.863-4.55-1.684-8.21-.495-9.496 1.09-1.187 1.981-2.967 2.576-4.45 1.882 3.066.99 7.616.99 7.616-.198 1.187.397 2.373 1.486 2.77 1.09.494 2.378 0 2.972-.99l4.458-6.924c.693-1.187.396-2.67-.793-3.462-1.189-.791-2.674-.396-3.467.791l-.297.495c-.793-2.572-2.279-5.144-5.35-6.825-.693-.297-1.386-.396-2.08-.1a2.45 2.45 0 00-1.386 1.584c-.397 1.187-1.684 4.648-2.972 6.231a11.983 11.983 0 00-2.873 8.507c-.99-.99-1.882-2.374-2.576-3.957-2.377-5.935-1.386-11.375 3.071-16.914 2.873-3.561 4.26-8.606 4.656-12.86 2.18 2.276 4.755 5.342 6.736 8.903l3.27 7.518c.296.692.99 1.286 1.782 1.483.793.198 1.585 0 2.18-.593.099-.099 1.783-1.583 3.17-4.056.297 1.088.594 2.177.891 2.968.495 1.286 1.882 1.88 3.17 1.484 1.486-.792 2.18-2.177 1.684-3.462z" fill="#7CB9FF"/><path d="M54.818 18.663c-1.09-.89-2.675-.692-3.467.396L18.463 61.592c-.793 1.088-.694 2.67.396 3.462.495.396.99.495 1.486.495.693 0 1.486-.297 1.981-.99l32.987-42.335c.793-1.088.595-2.67-.495-3.56zm11.59 17.607l-4.26-4.946-.297-.296s-.099 0-.099-.1c-.1-.098-.198-.098-.297-.197 0 0-.1 0-.1-.099 0 0-.098 0-.098-.099h-.298c-.099 0-.297-.099-.396-.099h-.495c-.1 0-.198 0-.297.1h-.1c-.098 0-.197.098-.297.098h-.099c-.099.099-.297.198-.396.297l-.099.099-.198.198-4.458 4.945c-.891.99-.792 2.572.198 3.462.991.89 2.576.791 3.468-.198l.099-.198v6.826a2.45 2.45 0 002.476 2.472 2.45 2.45 0 002.477-2.472v-6.628c.495.495 1.188.792 1.783.792.594 0 1.189-.198 1.585-.594.99-.791 1.09-2.374.198-3.363z" fill="#0D66CC"/><path d="M42.436 56.152c3.17-2.077 6.736-2.275 9.906-.297.099 0 .099.1.198.1s.198.098.297.197c2.576 1.583 6.24 3.56 9.807 3.56.694 0 1.387-.098 1.981-.197 4.755-1.187 7.232-5.242 8.123-6.924.595-1.187.1-2.77-1.09-3.363-1.188-.594-2.674-.099-3.368 1.088-.495 1.088-2.08 3.66-4.854 4.352-1.684.396-4.457-.494-8.023-2.77-.198-.098-.397-.197-.496-.296-4.755-2.968-10.401-2.77-15.255.396-1.09.79-1.486 2.275-.693 3.462.792 1.187 2.377 1.483 3.467.692z" fill="#7CB9FF"/><path d="M71.659 59.515c-1.19-.594-2.675-.1-3.369 1.088-.495 1.088-2.08 3.66-4.854 4.352-1.684.396-4.457-.494-8.023-2.77-.198-.098-.397-.197-.496-.296-4.755-2.968-10.401-2.77-15.255.395-1.09.792-1.486 2.276-.693 3.462.792 1.187 2.278 1.484 3.467.693 3.17-2.077 6.736-2.275 9.906-.297.099 0 .099.099.198.099s.198.099.297.198c2.576 1.583 6.24 3.56 9.807 3.56.694 0 1.387-.098 1.981-.197 4.755-1.187 7.232-5.243 8.123-6.924.595-1.286.1-2.77-1.09-3.363z" fill="#7CB9FF"/></svg>