<svg width="67" height="76" fill="none" xmlns="http://www.w3.org/2000/svg"><path fill-rule="evenodd" clip-rule="evenodd" d="M29.252 1.2c-7.238.947-13.75 4.16-18.931 9.342-4.553 4.553-7.598 10.146-8.888 16.324-.651 3.12-.698 4.224-.65 15.442L.828 52.82l.336.833c.682 1.688 2.086 3.09 3.763 3.757.69.275 1.17.34 2.823.383l1.992.053.447.839c.635 1.192 1.744 2.247 3.03 2.882 1.048.519 1.129.535 2.684.535 1.34 0 1.739-.055 2.435-.337a6.908 6.908 0 003.762-3.762l.336-.832V36.434l-.336-.832a6.908 6.908 0 00-3.762-3.762c-.696-.281-1.095-.336-2.435-.336-1.556 0-1.636.016-2.684.534-1.285.635-2.395 1.69-3.028 2.88l-.446.836-1.993.067c-1.096.037-2.15.119-2.343.182l-.35.115.097-2.568c.258-6.844 2.053-12.087 5.837-17.056C16.32 9.504 24.56 5.433 33.385 5.433c12.792 0 23.858 8.492 27.262 20.922.508 1.856.866 4.519.967 7.195l.097 2.568-.35-.115c-.192-.063-1.246-.145-2.343-.182l-1.993-.067-.445-.836c-.634-1.19-1.744-2.245-3.028-2.88-1.049-.518-1.13-.534-2.684-.534-1.34 0-1.74.055-2.436.336a6.91 6.91 0 00-3.762 3.762l-.336.832v20.738l.336.832a6.91 6.91 0 003.762 3.763c.7.282 1.094.336 2.462.336 1.847 0 1.81-.039 1.098 1.188-.742 1.28-1.99 2.273-3.55 2.823-.843.298-1.235.329-4.854.381l-3.936.058-.46-.864c-.648-1.215-1.75-2.267-3.042-2.907-1.05-.518-1.13-.534-2.685-.534-1.34 0-1.739.055-2.435.336a6.9 6.9 0 00-3.76 3.762c-.482 1.198-.482 3.512 0 4.71a6.9 6.9 0 003.76 3.762c.696.281 1.095.336 2.435.336 1.555 0 1.636-.016 2.684-.534 1.29-.637 2.395-1.691 3.036-2.894l.453-.85h4.06c4.699 0 5.41-.104 7.452-1.089 2.355-1.136 3.938-2.72 5.074-5.074.822-1.704 1.09-2.961 1.09-5.129v-1.736l1.848-.054c1.498-.043 2.007-.116 2.682-.384 1.675-.665 3.08-2.068 3.762-3.756l.336-.833.045-10.513c.048-11.218.002-12.321-.65-15.442-1.29-6.178-4.335-11.771-8.887-16.324-5.251-5.251-11.767-8.436-19.144-9.357-2.02-.253-6.07-.245-8.054.015zM17.134 36.204c.194.137.488.428.653.649.294.395.299.53.299 9.95s-.005 9.556-.3 9.95c-.536.72-.988.96-1.803.96-.816 0-1.267-.24-1.804-.96-.293-.392-.3-.573-.344-9.271-.025-4.88-.003-9.222.049-9.65.199-1.651 1.959-2.533 3.25-1.628zm34.805 0c.194.137.488.428.652.649.295.395.3.53.3 9.95s-.005 9.556-.3 9.95c-.537.72-.988.96-1.804.96-.815 0-1.266-.24-1.803-.96-.294-.392-.3-.573-.344-9.271-.025-4.88-.003-9.222.048-9.65.2-1.651 1.96-2.533 3.25-1.628zM9.457 46.823v6.69l-1.46-.07c-1.565-.076-1.903-.215-2.52-1.04-.284-.38-.3-.62-.345-4.921-.057-5.457-.016-5.9.605-6.58.539-.587 1.046-.734 2.596-.755l1.124-.015v6.69zm51.155-6.304c.21.156.516.464.68.684.29.387.3.575.3 5.6 0 5.025-.01 5.213-.3 5.6-.615.825-.954.964-2.52 1.04l-1.459.07v-13.42l1.46.07c1.147.056 1.54.132 1.84.356zM33.98 66.67c.45 0 1.292.876 1.429 1.486.36 1.604-.957 2.93-2.554 2.569-1.522-.343-2.074-2.388-.948-3.513.416-.416 1.213-.714 1.6-.6.106.032.319.058.473.058z" fill="#7CB9FF" stroke="#7CB9FF"/><path d="M18.355 21.563c3.155-4.713 8.527-7.816 14.625-7.816 6.097 0 11.47 3.103 14.624 7.816" stroke="#0D66CC" stroke-width="5" stroke-linecap="round"/></svg>