<svg width="76" height="76" fill="none" xmlns="http://www.w3.org/2000/svg"><path d="M38.1 41.4l-4.5-4.5c-.9-.9-2.2-1.4-3.5-1.4-1.6 0-3.1.7-4.1 1.9l-9.7 10.4c-2.1 2.2-2.4 5.7-.2 7.9l3.3 3.3c1 1 2.3 1.5 3.7 1.5 1.5 0 3-.6 4.2-1.7l10.4-9.7c1.2-1.1 1.9-2.6 1.9-4.1-.1-1.3-.6-2.6-1.5-3.6zM24.3 55.7c-.9.8-1.8.6-2.1.3L19 52.8c-.3-.3-.5-1.2.3-2.1l.6-.7 5.1 5.1-.7.6zm3.8-3.5l-5.3-5.3 2.2-2.4 5.5 5.5-2.4 2.2zm7.2-7.3c0 .4-.2.8-.6 1.2l-1.2 1.1-5.7-5.7 1.1-1.2c.4-.4.8-.6 1.1-.6.2 0 .3.1.4.2l4.5 4.5c.3.1.4.3.4.5zM33 34.5c.9 0 1.8-.4 2.5-1 .7-.7 1-1.5 1-2.5 0-.9-.4-1.8-1-2.5-1.3-1.3-3.7-1.3-5 0-.7.7-1 1.5-1 2.5 0 .9.4 1.8 1 2.5.7.6 1.6 1 2.5 1zm-.6-4.1c.3-.3.9-.3 1.2 0 .3.3.3.9 0 1.2-.3.3-.9.3-1.2 0-.3-.3-.3-.9 0-1.2z" fill="#0D66CC"/><path d="M75.4 3.6c-.2-.7-.6-1.4-1.1-1.9-.5-.5-1.2-.9-1.9-1.1-.7-.2-1.5-.2-2.2 0l-5.7 1.7c-.4.1-.7.3-1 .6l-3.4 3.4c-.2.2-.3.3-.4.5l-2.2 3.9-2.1.6c-.4.1-.7.3-1 .6l-5.9 5.9c-.3.3-.6.8-.7 1.3l-.2 1.1h-.4c-.6 0-1.2.2-1.7.7l-3.4 3.4-1.4-1.3c-2-2-4.8-3.1-7.6-3.1-2.8.1-5.5 1.3-7.4 3.4L3.5 47.5c-2 2.2-3.1 5-3 8 .1 2.9 1.3 5.7 3.3 7.8l8.9 8.9c2.1 2.1 4.9 3.3 7.8 3.4h.2c2.9 0 5.6-1.1 7.7-3l24.2-22.2c2.1-1.9 3.3-4.6 3.4-7.4.1-2.8-1-5.6-3-7.6l-1.2-1.2 3.4-3.4c.2-.2.4-.5.5-.7l.8-1.8 2-.9c.8-.4 1.4-1.2 1.4-2.1V25l1-.2c.4-.1.8-.3 1.2-.6l3.4-3.4c.4-.4.6-.9.7-1.5v-.6l.9-.1c.5-.1.9-.3 1.3-.7l4.8-4.8c.3-.3.5-.7.6-1.1l1.6-5.8c.1-1.1.2-1.9 0-2.6zM49.5 46.8L25.3 69c-1.3 1.2-2.9 1.8-4.6 1.7-1.7 0-3.3-.7-4.5-1.9l-8.9-8.9a6.42 6.42 0 01-1.9-4.6c0-1.7.6-3.4 1.8-4.6l22.2-24.2c1-1.1 2.5-1.8 4-1.8h.1c1.5 0 2.9.6 4 1.7l12.3 12.3c1.1 1.1 1.7 2.6 1.7 4.1-.3 1.5-.9 2.9-2 4zm19.8-37l-3.8 3.8-1.9.4c-1.1.2-1.9 1.1-2 2.2l-.1 1.6-2.3 2.2-2.2.5c-1.1.2-1.9 1.2-1.9 2.3v.7l-1.4.7c-.5.2-.9.7-1.2 1.2l-.9 2.2-3.1 3.1-3-3 2.7-2.7h1.4c1.2 0 2.2-.8 2.3-2l.4-2.3 4.9-4.9 2.5-.7c.6-.2 1.1-.6 1.4-1.1l2.5-4.4 2.7-2.8 4.2-1.2-1.2 4.2z" fill="#7CB9FF"/></svg>