<svg width="23" height="21" fill="none" xmlns="http://www.w3.org/2000/svg"><circle cx="10" cy="7" r="1.5" stroke="#0D66CC"/><path fill-rule="evenodd" clip-rule="evenodd" d="M11.523 10.641A8.245 8.245 0 0010 10.5c-2.663 0-5.022 1.268-6.407 3.21l.814.58C5.602 12.616 7.655 11.5 10 11.5c.307 0 .609.02.904.056a7.06 7.06 0 01.619-.915z" fill="#0D66CC"/><path fill-rule="evenodd" clip-rule="evenodd" d="M11.2 18.92A9 9 0 1110 1c4.369 0 8.01 3.113 8.828 7.241.373.1.733.231 1.079.39C19.239 3.754 15.058 0 10 0 4.477 0 0 4.477 0 10s4.477 10 10 10c.657 0 1.299-.063 1.92-.184a7.037 7.037 0 01-.72-.895z" fill="#7CB9FF"/><path d="M18.205 16.545a.865.865 0 00-.28-.652c-.182-.177-.493-.337-.931-.48-.61-.183-1.056-.42-1.337-.712-.277-.295-.416-.668-.416-1.12 0-.46.136-.838.408-1.133.275-.294.651-.47 1.13-.526V11h.64v.926c.481.065.855.263 1.121.594.27.331.404.785.404 1.36h-.79c0-.396-.096-.71-.288-.943-.192-.233-.451-.35-.778-.35-.34 0-.601.087-.782.261-.18.172-.27.412-.27.72 0 .287.094.516.283.687.192.168.506.322.94.463.44.137.78.29 1.023.459.247.165.427.36.542.58.117.223.176.482.176.78 0 .474-.146.856-.438 1.145-.29.29-.696.46-1.22.514V19h-.636v-.804c-.533-.048-.951-.233-1.255-.556-.3-.326-.451-.766-.451-1.322h.795c0 .39.104.69.313.9.21.212.506.317.89.317.375 0 .67-.089.885-.265.215-.177.322-.419.322-.725z" fill="#0D66CC"/><circle cx="17" cy="15" r="5.5" stroke="#7CB9FF"/></svg>