<svg width="97" height="69" fill="none" xmlns="http://www.w3.org/2000/svg"><path clip-rule="evenodd" d="M82.12 29.512v19.32c0 1.68-1.345 3.192-3.193 3.192H28.36c-1.68 0-3.192-1.344-3.192-3.192v-30.24c0-1.68 1.344-3.192 3.192-3.192h40.32l13.44 14.112z" stroke="#7CB9FF" stroke-width="5.04" stroke-miterlimit="10" stroke-linecap="round" stroke-linejoin="round"/><path d="M3.328 35.56v30.576m0-25.2h21.84M3.328 59.752h21.84l12.936-7.728m-23.856-9.408v17.136" stroke="#7CB9FF" stroke-width="5.04" stroke-miterlimit="10" stroke-linecap="round" stroke-linejoin="round"/><path d="M66.16 23.464l5.04 5.544-2.52 6.72 2.52 3.696m-10.417 4.704l1.512-7.056 6.384-1.344M76.744 11.2V3.472m5.376 12.264l6.383-6.216m-1.008 10.92h6.888" stroke="#0D66CC" stroke-width="5.04" stroke-miterlimit="10" stroke-linecap="round" stroke-linejoin="round"/></svg>