<svg width="72" height="67" fill="none" xmlns="http://www.w3.org/2000/svg"><path d="M35.95 9.853c-14.218 0-25.795 11.528-25.795 25.618 0 7.586 3.352 14.68 9.242 19.607 1.015.887 2.64.788 3.554-.296.914-1.083.71-2.561-.305-3.448-4.773-3.941-7.413-9.557-7.413-15.765 0-11.33 9.343-20.592 20.818-20.592 11.475 0 20.818 9.261 20.818 20.592 0 6.109-2.742 11.922-7.515 15.962-1.015.887-1.117 2.463-.203 3.449a2.532 2.532 0 001.93.886c.609 0 1.117-.197 1.624-.59 5.89-5.026 9.242-12.219 9.242-19.707-.204-14.188-11.78-25.716-25.998-25.716z" fill="#7CB9FF"/><path d="M35.949 38.426c.812 0 1.625-.295 2.132-.788h2.133c1.422 0 2.539-1.084 2.539-2.463 0-1.38-1.117-2.463-2.539-2.463h-2.133c-.609-.493-1.32-.789-2.132-.789a3.351 3.351 0 00-3.351 3.35c0 1.675 1.523 3.153 3.35 3.153zm0-12.02c1.422 0 2.539-1.084 2.539-2.463v-3.941c0-1.38-1.117-2.464-2.54-2.464-1.42 0-2.538 1.084-2.538 2.464v3.94c0 1.38 1.117 2.464 2.539 2.464zm-7.819 3.251c.61 0 1.32-.197 1.727-.69a2.446 2.446 0 000-3.546l-2.844-2.76c-1.015-.985-2.539-.985-3.554 0a2.446 2.446 0 000 3.548l2.843 2.759c.508.492 1.219.69 1.828.69zm-9.85 5.321c0 1.38 1.116 2.463 2.538 2.463h3.96c1.422 0 2.54-1.084 2.54-2.463 0-1.38-1.118-2.463-2.54-2.463h-3.96c-1.422 0-2.539 1.084-2.539 2.463zm11.576 6.01c-1.016-.985-2.54-.985-3.555 0l-2.741 2.858a2.446 2.446 0 000 3.547c.507.492 1.117.69 1.726.69.61 0 1.32-.198 1.726-.69l2.844-2.76c1.015-1.083 1.015-2.66 0-3.645zm18.482 2.857l-2.843-2.758c-1.016-.986-2.54-.986-3.555 0a2.446 2.446 0 000 3.547l2.844 2.758c.508.493 1.117.69 1.726.69.61 0 1.32-.197 1.727-.69 1.117-1.083 1.117-2.66.101-3.547zm-3.757-8.867c0 1.38 1.117 2.463 2.539 2.463h3.96c1.422 0 2.54-1.084 2.54-2.463 0-1.38-1.118-2.463-2.54-2.463h-3.96c-1.422 0-2.539 1.084-2.539 2.463zm.204-12.415L41.94 25.52a2.538 2.538 0 00.102 3.547c.508.493 1.117.69 1.726.69.711 0 1.32-.296 1.828-.788l2.844-2.956a2.538 2.538 0 00-.102-3.547c-1.015-.986-2.64-.887-3.554.098zm-3.352 27.786H30.67c-1.422 0-2.54 1.084-2.54 2.463 0 1.38 1.118 2.463 2.54 2.463h10.866c1.421 0 2.539-1.084 2.539-2.463a2.635 2.635 0 00-2.64-2.463z" fill="#0D66CC"/><path d="M35.95 0C16.146 0 0 15.962 0 35.668c0 13.005 7.109 24.83 18.482 31.036a2.77 2.77 0 001.219.296h32.801a2.77 2.77 0 001.219-.296C64.993 60.497 72 48.575 72 35.668 71.898 15.962 55.752 0 35.95 0zm15.84 62.074H20.31c-9.546-5.42-15.335-15.47-15.335-26.406 0-16.947 13.913-30.742 30.973-30.742s30.973 13.795 30.973 30.742c0 10.936-5.788 20.986-15.13 26.406z" fill="#7CB9FF"/></svg>