<svg width="21" height="20" fill="none" xmlns="http://www.w3.org/2000/svg"><path d="M10 8.571c-.808 0-1.469.643-1.469 1.429s.661 1.429 1.469 1.429 1.469-.643 1.469-1.429S10.808 8.571 10 8.571zM13.855 10c0 .164-.014.329-.036.486l1.087.828a.248.248 0 01.058.322l-1.028 1.728c-.066.107-.198.15-.316.107l-1.277-.5a3.97 3.97 0 01-.867.493l-.19 1.322a.265.265 0 01-.258.214H8.972a.265.265 0 01-.257-.207l-.191-1.322a3.8 3.8 0 01-.867-.492l-1.277.5a.264.264 0 01-.316-.108l-1.028-1.728a.248.248 0 01.058-.322l1.087-.828A3.71 3.71 0 016.145 10c0-.164.014-.329.036-.486l-1.087-.828a.248.248 0 01-.058-.322l1.028-1.728c.066-.107.198-.15.316-.107l1.277.5c.265-.2.558-.365.867-.493l.19-1.322A.264.264 0 018.973 5h2.056c.125 0 .235.093.257.207l.191 1.322a3.8 3.8 0 01.867.492l.639-.25.639-.25c.117-.042.25 0 .315.108l.29.487.738 1.241a.248.248 0 01-.058.322l-1.087.828c.022.164.036.329.036.493z" stroke="#0D66CC"/><path d="M20.066 10h-2.132a.5.5 0 00-.416.777l1.066 1.599a.5.5 0 00.832 0l1.066-1.599a.5.5 0 00-.416-.777z" fill="#7CB9FF"/><path fill-rule="evenodd" clip-rule="evenodd" d="M10 1.5a8.5 8.5 0 104.7 15.584.5.5 0 11.554.832A9.5 9.5 0 1119.5 10a.5.5 0 01-1 0A8.5 8.5 0 0010 1.5z" fill="#7CB9FF"/></svg>