<svg width="88" height="71" fill="none" xmlns="http://www.w3.org/2000/svg"><path d="M72.441 11.372H13.873c-1.486 0-2.576 1.088-2.576 2.57 0 1.484 1.09 2.572 2.576 2.572h58.568c1.387 0 2.577-1.187 2.577-2.571 0-1.483-1.09-2.571-2.577-2.571zM40.036 25.315H13.873c-1.486 0-2.576 1.088-2.576 2.571s1.09 2.571 2.576 2.571h26.163c.693 0 1.486-.297 1.982-.89.495-.494.693-1.088.594-1.681 0-1.483-1.09-2.571-2.576-2.571zm0 13.349H13.873c-1.486 0-2.576 1.088-2.576 2.572 0 1.483 1.09 2.57 2.576 2.57h26.163c.792 0 1.486-.296 1.982-.79.495-.495.693-1.088.594-1.78 0-1.484-1.09-2.572-2.576-2.572z" fill="#0D66CC"/><path d="M81.955 0H6.045C2.675 0 0 2.67 0 6.032v46.279c0 3.362 2.676 6.032 6.045 6.032h43.406l-1.487 9.79c-.1.79.198 1.68.892 2.274.694.494 1.585.593 2.477.296l11.496-4.845 12.09 4.944c.297.198.694.198.892.198.297 0 1.09-.099 1.486-.494.694-.495 1.09-1.286.892-2.275l-1.585-9.79h5.351c3.37 0 6.045-2.67 6.045-6.032V6.032C88 2.67 85.324 0 81.955 0zM63.82 60.815c-.297-.198-.595-.198-.892-.198-.496 0-.892.198-.991.198l-8.523 3.56 1.09-7.615.496-2.867.198-1.187c.496.297.991.495 1.487.692.792.297 1.585.594 2.477.791l1.487.297c.594.099 1.189.099 1.783.099h.397c.594 0 1.09 0 1.784-.099 2.18-.297 4.26-.989 6.144-2.175l.297 1.78c.1.395.1.79.198 1.186.1.791.298 1.78.496 2.67l.99 6.428-8.918-3.56zm7.135-15.03C69.072 48.255 66 49.74 62.73 49.74c-3.171 0-6.144-1.385-8.225-3.857a10.429 10.429 0 01-2.478-6.724c0-5.834 4.757-10.581 10.604-10.581 5.847 0 10.603 4.747 10.603 10.58.1 2.967-1.189 5.242-2.279 6.626zm12.19 6.526c0 .593-.595 1.186-1.19 1.186H75.91l-.793-5.142c1.982-2.67 3.072-5.933 3.072-9.196 0-8.504-6.937-15.426-15.46-15.426-8.522 0-15.459 6.922-15.459 15.426 0 3.659 1.289 7.02 3.667 9.888l-.694 4.45H6.045c-.595 0-1.19-.593-1.19-1.186V6.032c0-.494.298-.89.695-1.088.099 0 .297-.099.495-.099h75.91c.595 0 1.19.594 1.19 1.187v46.279z" fill="#7CB9FF"/></svg>