<svg width="79" height="65" fill="none" xmlns="http://www.w3.org/2000/svg"><path d="M46.424 65c-17.932 0-32.576-14.555-32.576-32.5S28.492 0 46.424 0C64.356 0 79 14.555 79 32.5S64.356 65 46.424 65zm0-60.015c-15.242 0-27.595 12.362-27.595 27.515s12.353 27.515 27.595 27.515c15.242 0 27.595-12.362 27.595-27.515S61.666 4.985 46.424 4.985z" fill="#7CB9FF"/><path d="M46.423 52.638C35.266 52.638 26.2 43.666 26.2 32.5c0-11.166 9.066-20.138 20.223-20.138 11.158 0 20.224 9.072 20.224 20.138 0 11.166-9.066 20.138-20.224 20.138zm0-35.291c-8.368 0-15.242 6.779-15.242 15.153s6.874 15.153 15.242 15.153c8.369 0 15.242-6.779 15.242-15.153s-6.873-15.154-15.242-15.154z" fill="#0D66CC"/><path d="M46.424 23.129a2.467 2.467 0 01-2.49-2.492v-5.882a2.467 2.467 0 012.49-2.493 2.467 2.467 0 012.49 2.493v5.882a2.467 2.467 0 01-2.49 2.492zm-11.357 8.175c-.299 0-.498 0-.797-.1l-5.48-1.795c-1.294-.398-1.992-1.894-1.593-3.19.398-1.296 1.893-1.994 3.188-1.595l5.479 1.795c1.295.398 1.992 1.894 1.594 3.19a2.538 2.538 0 01-2.391 1.695zm.997 17.845c-.498 0-.996-.2-1.495-.499-1.095-.797-1.394-2.392-.597-3.489l3.387-4.686c.797-1.096 2.39-1.395 3.487-.598 1.096.798 1.394 2.393.597 3.49l-3.387 4.685c-.498.798-1.195 1.097-1.992 1.097zm20.721 0a2.598 2.598 0 01-2.092-1.097l-3.387-4.685c-.797-1.097-.498-2.692.598-3.49 1.095-.797 2.69-.498 3.486.598l3.387 4.686c.797 1.097.498 2.692-.597 3.49-.399.398-.897.498-1.395.498zm.795-17.845c-1.095 0-1.991-.698-2.39-1.695-.398-1.296.299-2.692 1.594-3.19l5.48-1.795c1.294-.399 2.689.3 3.187 1.595.399 1.296-.299 2.692-1.594 3.19l-5.48 1.795c-.198.1-.497.1-.796.1z" fill="#0D66CC"/><path d="M45.228 4.985h-28.89a2.467 2.467 0 01-2.49-2.493A2.467 2.467 0 0116.338 0h28.89a2.467 2.467 0 012.491 2.492 2.467 2.467 0 01-2.49 2.493zm0 60.015H2.79A2.467 2.467 0 01.3 62.508a2.467 2.467 0 012.49-2.493h42.44a2.467 2.467 0 012.49 2.493A2.467 2.467 0 0145.229 65zm-20.223-8.873H10.46a2.467 2.467 0 01-2.49-2.492 2.467 2.467 0 012.49-2.492h14.545a2.467 2.467 0 012.49 2.492 2.467 2.467 0 01-2.49 2.492zm-1.793-40.276H2.49A2.467 2.467 0 010 13.36a2.467 2.467 0 012.49-2.492h20.722a2.467 2.467 0 012.49 2.492 2.467 2.467 0 01-2.49 2.492zm23.211 24.625c-4.384 0-8.07-3.59-8.07-7.976s3.587-7.975 8.07-7.975c4.383 0 8.07 3.589 8.07 7.975-.1 4.387-3.687 7.976-8.07 7.976zm0-10.967c-1.694 0-2.989 1.296-2.989 2.991s1.395 2.99 2.989 2.99c1.693 0 2.988-1.395 2.988-2.99 0-1.695-1.295-2.99-2.988-2.99z" fill="#7CB9FF"/></svg>