<svg width="81" height="65" fill="none" xmlns="http://www.w3.org/2000/svg"><path d="M10.7 45.988H9.585L9.059 49H7.055l1.476-8.531 3.012.006c.965 0 1.707.226 2.227.68.523.448.757 1.064.703 1.845-.043.617-.221 1.129-.534 1.535-.312.403-.75.72-1.312.955l1.148 3.41v.1h-2.138l-.938-3.012zM9.854 44.4l1.172.012c.32 0 .598-.078.832-.234.239-.156.409-.37.51-.639.102-.273.131-.537.088-.791-.078-.433-.355-.662-.832-.685l-1.36-.006-.41 2.343zm7.917 4.717a2.98 2.98 0 01-1.517-.398 2.556 2.556 0 01-1.002-1.102 2.974 2.974 0 01-.27-1.558l.018-.164c.105-1.043.467-1.868 1.084-2.473.621-.61 1.38-.902 2.28-.879.542.008 1.007.147 1.394.416.387.266.67.635.85 1.107.18.47.238.996.175 1.582l-.111.803h-3.774c.008.332.102.602.282.809.18.207.441.316.785.328.558.015 1.06-.2 1.506-.645l.808 1.073c-.238.34-.572.607-1.002.802a3.51 3.51 0 01-1.4.3h-.105zm.47-5.056a.999.999 0 00-.716.257c-.199.18-.373.48-.521.903h1.928l.035-.17c.023-.137.027-.266.012-.387-.067-.39-.313-.592-.739-.604zm3.105 1.757a4.854 4.854 0 01.521-1.728c.277-.516.623-.905 1.037-1.166a2.477 2.477 0 011.407-.387c.636.016 1.117.244 1.441.686l.205-.569 1.781.006-1.037 6.094c-.117.86-.494 1.537-1.13 2.033-.637.496-1.43.733-2.38.709a3.404 3.404 0 01-1.224-.252 2.637 2.637 0 01-1.014-.726l.914-1.137c.34.43.781.65 1.324.662.856.016 1.399-.44 1.63-1.365l.046-.194c-.437.43-.92.641-1.447.633a1.969 1.969 0 01-1.072-.304 2.043 2.043 0 01-.727-.873 3.383 3.383 0 01-.299-1.266 5.498 5.498 0 01.024-.856zm1.904.627c0 .36.064.639.193.838.13.2.317.303.563.31.363.016.693-.124.99-.421l.498-2.69c-.156-.273-.418-.414-.785-.422-.375-.007-.69.153-.943.481-.254.324-.414.752-.48 1.283a6.716 6.716 0 00-.036.621zM29.813 49h-1.934l1.101-6.34h1.934L29.812 49zm-.663-7.94a.898.898 0 01.3-.714c.21-.192.464-.287.76-.287.302 0 .552.086.75.257a.875.875 0 01.317.674.904.904 0 01-.299.72 1.09 1.09 0 01-.761.282c-.293 0-.543-.084-.75-.252a.88.88 0 01-.317-.68zm5.461 6.124c.051-.258-.148-.452-.597-.58l-.416-.106c-.68-.18-1.178-.432-1.495-.756a1.496 1.496 0 01-.445-1.154c.02-.61.29-1.104.809-1.483.523-.382 1.16-.57 1.91-.562.746.008 1.35.197 1.81.568.465.371.702.871.71 1.5l-1.922-.005c.015-.5-.206-.75-.663-.75a.934.934 0 00-.544.175.662.662 0 00-.3.457c-.066.317.214.534.839.65.543.13.962.28 1.26.452.296.168.523.377.68.627.155.25.228.55.216.902a1.694 1.694 0 01-.375 1.026c-.238.3-.584.54-1.037.72-.45.18-.938.264-1.465.252a2.998 2.998 0 01-1.277-.287 2.308 2.308 0 01-.92-.762 2.013 2.013 0 01-.34-1.113l1.793.012c.008.562.289.84.843.832.239 0 .442-.053.61-.158a.707.707 0 00.316-.457zm6.065-6.1L40.4 42.66h1.014l-.24 1.371H40.16l-.492 2.912c-.027.2-.016.35.035.452.055.101.188.156.399.164.082.004.25-.006.504-.03l-.141 1.43c-.324.105-.67.154-1.037.146-.598-.007-1.045-.183-1.342-.527-.297-.344-.418-.81-.363-1.4l.515-3.147h-.785l.234-1.37h.786l.275-1.577h1.928zm3.592 8.033a2.98 2.98 0 01-1.518-.398 2.557 2.557 0 01-1.002-1.102 2.975 2.975 0 01-.27-1.558l.018-.164c.106-1.043.467-1.868 1.084-2.473.621-.61 1.38-.902 2.28-.879.542.008 1.007.147 1.394.416.387.266.67.635.85 1.107.18.47.238.996.175 1.582l-.111.803h-3.773c.007.332.101.602.28.809.18.207.442.316.786.328.559.015 1.06-.2 1.506-.645l.808 1.073c-.238.34-.572.607-1.002.802a3.51 3.51 0 01-1.4.3h-.105zm.468-5.056a.999.999 0 00-.714.257c-.2.18-.374.48-.522.903h1.928l.035-.17c.023-.137.027-.266.012-.387-.067-.39-.313-.592-.739-.604zm7.354.386a5.498 5.498 0 00-.598-.058c-.578-.016-1.02.183-1.324.597L49.453 49h-1.928l1.102-6.34 1.799-.006-.147.832c.414-.64.903-.96 1.465-.96.16 0 .36.027.598.081l-.252 1.84zm2.935 4.67a2.98 2.98 0 01-1.517-.398 2.556 2.556 0 01-1.002-1.102 2.975 2.975 0 01-.27-1.558l.018-.164c.105-1.043.467-1.868 1.084-2.473.621-.61 1.38-.902 2.28-.879.542.008 1.007.147 1.394.416.386.266.67.635.85 1.107.179.47.238.996.175 1.582l-.111.803h-3.774c.008.332.102.602.282.809.18.207.441.316.785.328.558.015 1.06-.2 1.506-.645l.808 1.073c-.238.34-.572.607-1.002.802a3.51 3.51 0 01-1.4.3h-.106zm.47-5.056a.999.999 0 00-.716.257c-.199.18-.373.48-.521.903h1.927l.036-.17c.023-.137.027-.266.011-.387-.066-.39-.312-.592-.738-.604zm3.093 1.757c.121-1 .426-1.8.914-2.402.488-.601 1.125-.893 1.91-.873.54.016.986.242 1.342.68L63.369 40h1.934l-1.559 9h-1.717l.082-.685c-.472.554-.998.824-1.576.808-.61-.008-1.088-.232-1.435-.674-.344-.445-.528-1.04-.551-1.787a5.52 5.52 0 01.023-.72l.018-.124zm1.922.13a4.58 4.58 0 00-.041.655c0 .649.218.979.656.99.379.012.717-.17 1.014-.544l.433-2.432c-.129-.36-.387-.545-.773-.556-.36-.008-.65.148-.873.468-.219.317-.358.79-.416 1.418zM18.705 64l1.477-8.531 2.713.006c1.07.004 1.869.207 2.396.609.527.402.768.967.72 1.693-.058.899-.55 1.535-1.476 1.911.332.117.59.33.774.638.187.305.267.672.24 1.102-.055.824-.381 1.459-.979 1.904-.593.445-1.408.668-2.443.668h-3.422zm2.637-3.627l-.358 2.045 1.201.006c.376 0 .688-.092.938-.276.25-.187.398-.435.445-.744.11-.652-.14-.994-.75-1.025l-1.476-.006zm.228-1.348l.944.006c.87-.019 1.359-.353 1.465-1.002.093-.64-.239-.963-.997-.967l-1.066-.005-.346 1.968zm9.194.422a5.375 5.375 0 00-.598-.058c-.578-.016-1.02.183-1.324.597L28.127 64h-1.928l1.102-6.34 1.799-.006-.147.832c.414-.64.902-.961 1.465-.961.16 0 .36.028.598.082l-.252 1.84zm3.386-1.904c.567.008 1.057.15 1.471.428.414.273.717.656.908 1.148.196.492.266 1.039.211 1.641l-.012.129c-.109.972-.47 1.757-1.084 2.355-.613.598-1.37.889-2.273.873-.562-.008-1.049-.146-1.459-.416a2.441 2.441 0 01-.914-1.142c-.195-.489-.266-1.032-.21-1.629.097-1.039.452-1.868 1.066-2.485.617-.617 1.382-.918 2.296-.902zm-1.435 3.387l-.018.345c-.054.871.211 1.315.797 1.33.758.024 1.197-.591 1.319-1.845l.023-.533c.008-.352-.059-.631-.2-.838a.703.703 0 00-.609-.328c-.355-.012-.648.134-.879.439-.226.301-.37.777-.433 1.43zm7.277.732l-.703.609L38.99 64h-1.928l1.565-9.006h1.928l-.89 4.805.233-.281 1.752-1.858h2.444l-2.696 2.695L43.033 64h-2.115l-.926-2.338zm6.516 2.455a2.988 2.988 0 01-1.518-.398 2.557 2.557 0 01-1.002-1.102 2.97 2.97 0 01-.27-1.558l.018-.164c.106-1.043.467-1.868 1.084-2.473.621-.61 1.381-.902 2.28-.879.543.008 1.007.146 1.394.416.387.266.67.635.85 1.107.18.469.238.996.175 1.582l-.11.803h-3.774c.008.332.101.602.281.809.18.207.441.316.785.328.559.016 1.06-.199 1.506-.645l.809 1.073a2.407 2.407 0 01-1.002.802 3.504 3.504 0 01-1.4.299h-.106zm.469-5.056a1 1 0 00-.715.257c-.2.18-.373.481-.522.903h1.928l.035-.17c.024-.137.027-.266.012-.387-.067-.391-.313-.592-.738-.603zm7.353.386a5.375 5.375 0 00-.598-.058c-.578-.016-1.02.183-1.324.597L51.693 64h-1.927l1.101-6.34 1.799-.006-.146.832c.414-.64.902-.961 1.464-.961.16 0 .36.028.598.082l-.252 1.84z" fill="#fff"/><path fill-rule="evenodd" clip-rule="evenodd" d="M80.064 14.998C76.005 23.273 58.053 30.01 40.102 30.01c-17.97 0-29.301-6.738-25.243-15.013C18.902 6.754 36.87 0 54.823 0 72.79 0 84.12 6.754 80.064 14.998z" fill="#032B76"/><path fill-rule="evenodd" clip-rule="evenodd" d="M54.42.32c17.458 0 28.446 6.546 24.475 14.549-3.955 8.02-21.43 14.567-38.853 14.567-17.458 0-28.447-6.547-24.493-14.567 2.567-5.16 10.697-9.688 20.814-12.285.718-.194 1.454-.351 2.19-.528A74.76 74.76 0 0154.42.32z" fill="#0A0A08"/><path fill-rule="evenodd" clip-rule="evenodd" d="M54.157.755c17.238 0 28.111 6.318 24.217 14.03-3.894 7.741-21.117 14.045-38.34 14.045-17.238 0-28.11-6.304-24.216-14.045C19.696 7.073 36.934.755 54.157.755z" fill="#969998"/><path fill-rule="evenodd" clip-rule="evenodd" d="M51.41 2.073c15.573 0 25.376 5.65 21.833 12.56-3.528 6.923-19.116 12.575-34.66 12.575-15.573 0-25.376-5.652-21.849-12.575 2.29-4.454 9.543-8.364 18.567-10.606.64-.167 1.298-.303 1.954-.455a68.792 68.792 0 0114.154-1.5z" fill="#0A0A08"/><path fill-rule="evenodd" clip-rule="evenodd" d="M70.687 8.965c.748 1.232.886 2.618.294 4.072-.554 1.1-1.19 1.986-2.137 2.857-4.914 4.504-15.97 7.864-27.013 7.864-13.02 0-21.23-4.668-18.263-10.392 2.038-3.94 8.944-7.522 17.215-9.292a47.644 47.644 0 012.965-.52c-1.946.194-3.85.476-5.721.877-9.17 2.008-16.946 5.249-19.209 9.738-3.28 6.527 5.813 11.849 20.257 11.849 11.835 0 23.686-3.568 29.38-8.46a12.62 12.62 0 001.985-2.15c.244-.335.458-.673.636-1.015 1.019-1.963.825-3.821-.389-5.428z" fill="#279ED4"/><path fill-rule="evenodd" clip-rule="evenodd" d="M9.026 13.605c-.276.43-.553.748-.823.945l-.01.008c-.313.243-.721.367-1.215.367-.32 0-.54-.064-.602-.172-.006-.016-.151-.411.295-1.839.296-.904.64-1.55 1.023-1.92.477-.473.987-.693 1.608-.693.195 0 .357.03.456.084.074.042.132.074.155.34l.09 1.043h4.95c-.31.408-.576.848-.79 1.31H9.364l-.338.527zm12 .303c-.185.583-.423 1.007-.689 1.224-.271.216-.5.312-.74.312a.466.466 0 01-.1-.008c-.01-.065-.026-.293.14-.816.157-.532.389-.936.669-1.168.256-.204.494-.295.77-.295.034 0 .058.002.074.004.01.073.017.288-.124.747zm11.82-.012c-.152.515-.356.9-.575 1.082-.179.15-.33.222-.461.222l-.036-.001c.002-.09.023-.27.117-.572.205-.66.435-.943.593-1.065.18-.146.335-.222.498-.244-.01.109-.041.29-.132.566l-.004.012zm34.782-5.125l1.313-4.175-6.748 2.776-.172.072-.416 1.327h-1.338l-.055.174a4.12 4.12 0 00-1.702-.373c-.454 0-.887.067-1.284.199h-5.285l-1 3.17a5.258 5.258 0 00-.01-.397c-.048-.688-.292-1.298-.686-1.715-.492-.558-1.185-.917-2.06-1.069-.65-.128-1.53-.188-2.77-.188-.727 0-1.413.049-2.097.15-.774.118-1.342.274-1.786.489-.66.284-1.206.629-1.623 1.025-.368.332-.704.757-1.027 1.294a4.55 4.55 0 00-.303-.965c-.428-.91-1.391-1.993-3.552-1.993-.534 0-1.038.067-1.538.204l.001-.005h-5.772l-.83 2.633a4.121 4.121 0 00-.378-.787c-.87-1.357-2.475-2.045-4.772-2.045-1.885 0-3.562.5-4.985 1.49a8.664 8.664 0 00-.747.583v-.017c0-1.943-.532-3.317-1.625-4.201-.953-.807-2.357-1.2-4.294-1.2-2.31 0-4.344.619-6.045 1.838C2.35 8.287 1.147 10.029.465 12.242c-.55 1.728-.613 3.21-.183 4.408.46 1.251 1.22 2.143 2.261 2.65.936.463 2.21.698 3.789.698 1.313 0 2.462-.183 3.414-.544a8.61 8.61 0 002.705-1.607c.38-.34.8-.79 1.183-1.27.204.94.7 1.604 1.085 1.999.94.933 2.339 1.407 4.156 1.407 1.91 0 3.607-.506 5.044-1.504.356-.247.69-.52.992-.81l-1.713 5.43h6.038l1.094-3.447c.527.22 1.133.331 1.803.331 1.406 0 2.721-.467 3.91-1.388.34-.264.659-.569.95-.906a2.7 2.7 0 00.635 1.176c.664.752 1.706 1.118 3.185 1.118.975 0 1.89-.145 2.718-.43a7.25 7.25 0 00.415-.163l.132.394h10.413l1.176-3.73c.49-1.543.938-2.16 1.16-2.39.216-.19.36-.216.483-.216.014 0 .148.004.474.146l.812.356.386-.46 1.135.002-.498 1.58c-.39 1.177-.521 2.017-.413 2.642.112.764.527 1.397 1.169 1.78.547.334 1.34.489 2.491.489.841 0 1.78-.1 2.79-.295l.491-.096.261-.05 1.011-4.92-1.809.526.518-1.655h1.984l1.486-4.722h-1.97z" fill="#fff"/><path fill-rule="evenodd" clip-rule="evenodd" d="M9.532 13.38l-.248.387c-.297.463-.6.808-.903 1.03-.367.285-.839.43-1.403.43-.453 0-.746-.11-.87-.329-.04-.07-.22-.503.272-2.073.311-.954.682-1.644 1.102-2.049.527-.523 1.123-.778 1.82-.778.253 0 .456.041.603.122.174.097.281.223.312.58l.066.764h5.32a6.822 6.822 0 00-1.241 1.916h-4.83zm11.786.616c-.206.65-.471 1.111-.785 1.369-.328.26-.625.382-.936.382-.275 0-.331-.096-.369-.16-.015-.024-.136-.258.117-1.059.176-.594.434-1.034.764-1.308.314-.25.622-.366.967-.366.254 0 .298.075.346.156.006.009.132.22-.104.986zm10.281.541c.18-.581.422-1.001.699-1.215.265-.214.516-.315.789-.315.14 0 .15.017.182.075.028.047.063.313-.13.899-.171.58-.403 1.005-.672 1.229-.235.197-.45.292-.657.292-.25 0-.291-.069-.319-.114 0-.002-.096-.194.108-.85zm6.793-.148c.123-.432.206-.853.248-1.256l1.602.161c-.582.197-1.056.439-1.44.736a4.293 4.293 0 00-.41.359zm29.495-1.2l1.296-4.116h-1.97l1.242-3.95L62.27 7.67l-.44 1.404h-1.34l-.094.299c-.63-.335-1.248-.497-1.886-.497-.441 0-.855.066-1.234.198h-5.111l-3.03 9.605-.028-.17c-.068-.406-.075-.607-.069-.704.007-.102.045-.32.18-.773l1.212-3.85c.17-.507.233-1.036.195-1.618-.043-.62-.26-1.165-.606-1.53-.445-.507-1.08-.834-1.886-.974-.635-.126-1.5-.184-2.72-.184-.711 0-1.382.047-2.052.146-.745.115-1.287.262-1.7.464-.63.27-1.149.597-1.54.968-.419.379-.797.885-1.159 1.549l-.292.536a4.53 4.53 0 00-.372-1.853c-.388-.826-1.272-1.81-3.272-1.81-.697 0-1.356.122-2.005.373l.054-.175h-5.133l-1.127 3.573a3.823 3.823 0 00-.567-1.872c-.807-1.26-2.325-1.9-4.511-1.9-1.82 0-3.439.483-4.81 1.435a8.02 8.02 0 00-1.227 1.05v-.731c0-1.846-.495-3.144-1.511-3.966-.9-.761-2.242-1.131-4.103-1.131-2.245 0-4.219.598-5.867 1.779C2.584 8.493 1.42 10.182.758 12.33c-.532 1.665-.595 3.085-.189 4.22.432 1.172 1.141 2.006 2.108 2.477.895.443 2.124.668 3.655.668 1.276 0 2.388-.176 3.304-.523a8.328 8.328 0 002.616-1.555c.536-.478 1.128-1.162 1.593-1.834a3.792 3.792 0 001.094 2.583c.879.872 2.203 1.314 3.936 1.314 1.846 0 3.484-.488 4.87-1.45a7.385 7.385 0 001.911-1.909l-2.042 6.475h5.398l1.131-3.563c.068.035.137.067.207.096.51.233 1.11.351 1.783.351 1.336 0 2.588-.445 3.722-1.324.514-.4.973-.89 1.368-1.46-.04.828.308 1.409.632 1.765.604.686 1.572 1.019 2.958 1.019a8.02 8.02 0 002.619-.414 6.44 6.44 0 00.695-.294l.171.509h9.969l1.108-3.517c.488-1.537.945-2.219 1.24-2.517.232-.21.447-.303.695-.303.061 0 .242.017.598.173l.6.264.331-.395 1.693.004-.621 1.972c-.376 1.135-.504 1.93-.404 2.503.098.675.462 1.233 1.025 1.57.5.304 1.241.445 2.335.445.82 0 1.74-.098 2.73-.29l.553-.107.869-4.23-1.343.392c-.192.056-.367.1-.52.133l.747-2.388h1.984z" fill="#0A0A08"/><path fill-rule="evenodd" clip-rule="evenodd" d="M13.78 14.216c-.415.947-1.323 2.092-2.092 2.78a7.464 7.464 0 01-2.34 1.39c-.846.32-1.861.473-3.016.473-1.416 0-2.508-.199-3.278-.58-.785-.383-1.339-1.055-1.692-2.017-.34-.946-.278-2.183.2-3.68.615-2 1.677-3.528 3.154-4.596 1.493-1.069 3.278-1.619 5.371-1.619 1.631 0 2.816.306 3.555.932 1 .809 1.216 2.138 1.216 3.329h-3.8c-.047-.535-.248-.962-.74-1.237-.277-.153-.616-.23-1.016-.23-.908 0-1.724.336-2.416 1.024-.523.504-.954 1.298-1.309 2.382-.415 1.328-.491 2.245-.2 2.749.278.49.817.748 1.601.748.77 0 1.416-.214 1.924-.61.4-.291.77-.733 1.093-1.238h3.786zm8.342.031c-.261.825-.615 1.405-1.062 1.771-.462.367-.938.566-1.462.566-.508 0-.877-.199-1.092-.566-.232-.38-.216-.946.03-1.726.231-.778.585-1.343 1.046-1.725.462-.367.955-.55 1.494-.55.492 0 .846.183 1.062.55.23.367.215.932-.016 1.68zm3.416-3.024c-.646-1.008-1.908-1.512-3.8-1.512-1.648 0-3.095.429-4.325 1.283-1.247.87-2.078 1.97-2.493 3.298-.462 1.436-.247 2.597.616 3.483.707.702 1.815 1.069 3.34 1.069 1.69 0 3.154-.444 4.385-1.299 1.23-.855 2.047-1.954 2.477-3.298.385-1.191.308-2.199-.2-3.024zm8.41 2.994c-.23.778-.553 1.313-.938 1.633-.384.321-.784.49-1.2.49-.477 0-.831-.169-1.031-.505-.216-.336-.2-.855.015-1.543.231-.747.554-1.297.97-1.617.415-.337.846-.504 1.323-.504.416 0 .724.152.909.488.199.336.184.855-.048 1.558zm3.587-3.177c-.416-.885-1.247-1.329-2.508-1.329-.632 0-1.247.122-1.862.383-.447.183-.986.549-1.632 1.099l.4-1.283h-3.37L24.76 21.96h3.633l1.324-4.17c.245.351.584.61.984.779.4.182.877.275 1.431.275 1.139 0 2.217-.383 3.201-1.146 1-.779 1.724-1.878 2.185-3.33.416-1.328.416-2.427.017-3.328zm7.91 3.986c-.139.412-.309.763-.54 1.023-.23.26-.538.473-.938.657-.4.183-.8.275-1.216.275-.384 0-.646-.092-.784-.26-.154-.168-.186-.382-.093-.641.062-.23.23-.428.493-.611.246-.184.769-.352 1.554-.535a27.087 27.087 0 001.692-.443l-.168.535zm4.34-3.405c-.031-.443-.17-.795-.402-1.038-.322-.368-.8-.597-1.415-.703-.615-.122-1.478-.169-2.554-.169-.678 0-1.308.047-1.924.138-.6.091-1.109.214-1.477.397-.539.23-.984.504-1.323.825-.354.32-.677.763-.985 1.329l3.337.335c.264-.381.525-.641.802-.779.355-.168.816-.26 1.416-.26.461 0 .754.077.892.245.124.168.124.459 0 .87-.507.153-.97.29-1.4.398-.446.091-1.37.275-2.8.534-1.201.198-2.078.518-2.632.947a3.22 3.22 0 00-1.139 1.634c-.23.718-.122 1.313.308 1.786.431.49 1.2.734 2.324.734a7.15 7.15 0 002.337-.367c.525-.183 1.095-.489 1.694-.9a4.717 4.717 0 00-.046.549c0 .122.03.289.108.518h3.37c-.061-.366-.093-.67-.078-.9.017-.229.094-.55.216-.962l1.217-3.864c.138-.412.184-.84.153-1.297zm3-1.711h3.37l-.446 1.42c.524-.61 1-1.038 1.417-1.267.415-.245.876-.352 1.384-.352.54 0 1.062.153 1.6.459l-1.862 2.382c-.384-.169-.692-.244-.938-.244-.477 0-.893.182-1.278.534-.522.52-1.016 1.467-1.46 2.87l-.925 2.933H50.03l2.755-8.735zm14.328-3.329L66.067 9.91h1.97l-.77 2.443h-1.985l-.97 3.1c-.123.367-.154.611-.123.733.061.184.23.29.538.29.262 0 .661-.076 1.186-.229l-.477 2.322c-.939.182-1.801.274-2.57.274-.907 0-1.54-.106-1.893-.321-.355-.213-.57-.549-.631-.977-.078-.442.046-1.145.37-2.122l.968-3.07h-1.338l.769-2.443h1.339l.508-1.619 4.155-1.71z" fill="#fff"/></svg>