<svg width="71" height="40" fill="none" xmlns="http://www.w3.org/2000/svg"><mask id="a" maskUnits="userSpaceOnUse" x="16" y="12" width="55" height="28"><path fill-rule="evenodd" clip-rule="evenodd" d="M67.76 23.679c-.103 2.158-1.914 3.859-4.084 3.837l-45.634-.458a1.156 1.156 0 00-.43.078c-1.044.407-.955 1.902.127 2.164l42.656 10.31a4.053 4.053 0 004.87-2.938l5.295-20.905a3.044 3.044 0 00-2.24-3.715l-.56 11.627z" fill="#fff"/></mask><g mask="url(#a)"><path d="M63.676 27.516l-.02.998.02-.998zm4.085-3.837l-1.002-.038 1.002.038zm-49.72 3.379l.02-.998-.02.998zm-.43.078l.358.929-.357-.929zm.128 2.164l.246-.97-.246.97zm42.656 10.31l-.246.97.246-.97zm4.87-2.938l-.972-.234.972.234zm5.295-20.905l.972.235-.972-.235zm-2.24-3.715l.245-.97-1.188-.286-.059 1.218 1.001.038zm-4.664 16.462c2.713.027 4.976-2.1 5.106-4.797l-2.003-.076a3.037 3.037 0 01-3.063 2.878l-.04 1.995zm-45.634-.459l45.634.459.04-1.995-45.634-.459-.04 1.995zm-.053.01a.143.143 0 01.053-.01l.04-1.995a2.168 2.168 0 00-.808.148l.715 1.857zm.016.266c-.053-.013-.07-.032-.077-.042a.154.154 0 01-.029-.085.156.156 0 01.018-.088c.007-.01.021-.031.072-.051l-.715-1.857c-1.958.763-1.793 3.57.24 4.061l.49-1.938zM60.64 38.64L17.985 28.33l-.491 1.938L60.149 40.58l.491-1.94zm3.653-2.203a3.04 3.04 0 01-3.653 2.203l-.49 1.939a5.067 5.067 0 006.087-3.673l-1.944-.47zm5.295-20.906l-5.295 20.905 1.944.47 5.295-20.905-1.944-.47zm-1.514-2.51a2.058 2.058 0 011.514 2.51l1.944.47a4.031 4.031 0 00-2.967-4.92l-.491 1.94zm.688 10.695l.559-11.627-2.003-.076-.559 11.627 2.003.076z" fill="#fff"/></g><mask id="b" maskUnits="userSpaceOnUse" x="8" y="0" width="61" height="29"><path fill-rule="evenodd" clip-rule="evenodd" d="M19.143 0a4 4 0 00-3.288 1.721L8.712 12.027a4 4 0 000 4.557l7.143 10.305a4 4 0 003.288 1.721h45.466a4 4 0 004-4V4a4 4 0 00-4-4H19.143zm-.607 16.466c1.369 0 2.479-1.084 2.479-2.422 0-1.337-1.11-2.421-2.48-2.421-1.368 0-2.478 1.084-2.478 2.421 0 1.338 1.11 2.422 2.479 2.422z" fill="#fff"/></mask><g mask="url(#b)" fill="#fff"><path d="M15.855 1.721l1.644 1.14-1.644-1.14zM8.713 12.027l1.643 1.139-1.643-1.14zm0 4.557l-1.644 1.14 1.644-1.14zm7.142 10.305l-1.643 1.14 1.643-1.14zM17.5 2.861A2 2 0 0119.143 2v-4A6 6 0 0014.212.582l3.287 2.279zm-7.143 10.305L17.5 2.86 14.212.582 7.069 10.887l3.287 2.279zm0 2.279a2 2 0 010-2.28L7.07 10.888a6 6 0 000 6.836l3.287-2.278zM17.5 25.75l-7.143-10.305-3.287 2.278 7.143 10.306 3.287-2.28zm1.644.86a2 2 0 01-1.644-.86l-3.287 2.279a6 6 0 004.931 2.581v-4zm45.466 0H19.143v4h45.466v-4zm2-2a2 2 0 01-2 2v4a6 6 0 006-6h-4zm0-20.61v20.61h4V4h-4zm-2-2a2 2 0 012 2h4a6 6 0 00-6-6v4zM19.143 2h45.466v-4H19.143v4zm-.128 12.044c0 .19-.17.422-.48.422v4c2.43 0 4.48-1.936 4.48-4.422h-4zm-.48-.421c.31 0 .48.233.48.421h4c0-2.485-2.05-4.421-4.48-4.421v4zm-.478.421c0-.188.17-.421.479-.421v-4c-2.43 0-4.479 1.936-4.479 4.421h4zm.479.422c-.31 0-.479-.233-.479-.421h-4c0 2.485 2.05 4.421 4.479 4.421v-4zm18.925.224c-1.195 0-2.16-.373-2.894-1.118-.727-.746-1.09-1.749-1.09-3.01 0-1.375.387-2.467 1.16-3.274.782-.807 1.82-1.21 3.117-1.21 1.242 0 2.211.365 2.907 1.095.703.73 1.054 1.756 1.054 3.079 0 1.36-.386 2.44-1.16 3.24-.773.798-1.804 1.198-3.094 1.198zm.223-6.583c-1.14 0-1.71.78-1.71 2.34 0 1.476.542 2.214 1.628 2.214 1.11 0 1.664-.768 1.664-2.306 0-1.499-.527-2.248-1.582-2.248zm12.047-1.799L38.786 22.841h-2.86L46.848 6.308h2.883zm-1.805 16.764c-1.195 0-2.16-.373-2.894-1.118-.727-.746-1.09-1.749-1.09-3.01 0-1.375.387-2.467 1.16-3.274.781-.807 1.82-1.21 3.117-1.21 1.25 0 2.223.36 2.918 1.083.696.723 1.043 1.745 1.043 3.067 0 1.36-.386 2.444-1.16 3.251-.773.808-1.805 1.211-3.094 1.211zm.188-6.583c-1.133 0-1.7.78-1.7 2.34 0 1.476.551 2.214 1.653 2.214 1.11 0 1.664-.769 1.664-2.306 0-.715-.148-1.268-.445-1.66a1.4 1.4 0 00-1.172-.588z"/></g><path d="M17.544 14.045c0 10.654-10.907 14.044-14.873 8.717-3.986-5.354 1.653-8.717 6.445-11.623" stroke="#fff" stroke-dasharray="2 2"/></svg>