<svg width="66" height="56" fill="none" xmlns="http://www.w3.org/2000/svg"><path d="M24.855 50H5.364C2.89 50 1 48.127 1 45.676V5.325C1 2.874 2.89 1 5.364 1h55.272C63.11 1 65 2.873 65 5.324v40.352C65 48.127 63.11 50 60.636 50h-5.09" stroke="#fff" stroke-width="2"/><path d="M57 11H9v2h48v-2zm-29 7H9v2h19v-2zm12.5 22a3.5 3.5 0 100-7 3.5 3.5 0 000 7z" fill="#fff"/><path fill-rule="evenodd" clip-rule="evenodd" d="M48.132 43.31l5.758 7.593c.288.422 0 .844-.72.703L47.988 50.2c-.288-.141-.576 0-.576.281l-1.44 5.203a.453.453 0 01-.863 0l-3.887-9h-1.727l-3.886 9a.453.453 0 01-.864 0l-1.44-5.203c0-.14-.287-.281-.575-.281l-5.182 1.406c-.432.141-.72-.422-.432-.703l5.758-7.593c-1.44-1.687-2.447-3.937-2.447-6.468 0-5.483 4.462-9.842 10.076-9.842 5.614 0 10.076 4.359 10.076 9.842 0 2.531-.864 4.781-2.447 6.468zM40.5 44a7.5 7.5 0 100-15 7.5 7.5 0 000 15z" fill="#fff"/></svg>