<svg width="69" height="41" fill="none" xmlns="http://www.w3.org/2000/svg"><path fill-rule="evenodd" clip-rule="evenodd" d="M27.389 11H13.792a.26.26 0 00-.13.035c-.457.265-.27.965.26.965h13.06c.126-.338.262-.671.407-1z" fill="#fff"/><path d="M9.028 15.522l6.27 2.292c.098.035.202.157.202.336 0 .238-.165.35-.275.35h-4.49C9.543 18.5 8.5 17.425 8.5 16c0-.404.327-.552.528-.478z" stroke="#fff"/><path d="M.382 34.773c-.389-.649-.383-1.359-.382-1.59v-16.31a4.28 4.28 0 011.252-3.026L2.71 12.39a2.676 2.676 0 01-.736-.673c-.338-.453-.547-1.036-.547-1.731V7.133h6.488c.52-.633 1.387-1.836 2.214-3.491.682-1.365 1.58-2.3 2.599-2.883C13.737.18 14.777 0 15.679 0h24.23c.7 0 1.442.36 2.091.903l-.64.765c-.553-.463-1.075-.67-1.45-.67H15.678c-.77 0-1.631.154-2.458.627-.83.474-1.598 1.254-2.202 2.463-.863 1.728-1.772 2.994-2.335 3.678l-.3.364h-5.96v1.856c0 .71.305 1.196.713 1.49l.1.067 1.066.664-2.344 2.346a3.282 3.282 0 00-.96 2.32V33.19c-.002.219.005.679.24 1.07.274.457.791.743 1.614.743h7.127a2.02 2.02 0 001.141-.367c.408-.293.713-.779.713-1.49h.996c0 1.036-.463 1.821-1.127 2.3A3.014 3.014 0 019.978 36H2.85c-1.06 0-1.963-.383-2.47-1.227z" fill="#fff"/><rect x="13" y="30" width="19" height="1" rx=".5" fill="#fff"/><path d="M13 25c0 1 .533 2 2.667 2H29" stroke="#fff"/><circle cx="48" cy="20" r="18" fill="#fff"/><path d="M68 20c0 11.046-8.954 20-20 20" stroke="#fff" stroke-dasharray="1 2"/><path d="M50.458 20.083l5.183 4.957a1.226 1.226 0 010 1.734l-.867.867a1.226 1.226 0 01-1.735 0l-5.352-5.183m-.63 1.096a.75.75 0 00-.22.53v.879a.75.75 0 01-1.28.53l-6.126-6.126a.75.75 0 01.53-1.28h.878a.75.75 0 00.53-.22l4.498-4.498a.75.75 0 00.22-.53v-.878a.75.75 0 011.28-.53l6.126 6.126a.75.75 0 01-.53 1.28h-.879a.75.75 0 00-.53.22l-4.498 4.497zm-2.625 2.934l-5.997-5.997a.84.84 0 00-1.189 1.19l5.998 5.996a.84.84 0 101.188-1.189zm4.06-16.053l5.997 5.998a.84.84 0 101.189-1.19L49.68 9.247a.84.84 0 00-1.189 1.19z" stroke="#549D36"/></svg>