<svg width="57" height="62" fill="none" xmlns="http://www.w3.org/2000/svg"><path fill-rule="evenodd" clip-rule="evenodd" d="M31.919 47.897C42.642 46.772 51 37.702 51 26.68c0-11.781-9.55-21.332-21.333-21.332-11.782 0-21.334 9.55-21.334 21.333A21.27 21.27 0 0014.81 41.99c-.653.26-1.338.526-2.034.788A23.254 23.254 0 016.333 26.68c0-12.887 10.447-23.333 23.334-23.333C42.553 3.348 53 13.794 53 26.68c0 11.354-8.109 20.813-18.851 22.903.04-.134.073-.265.101-.392l-2.331-1.295z" fill="#fff"/><mask id="a" fill="#fff"><path fill-rule="evenodd" clip-rule="evenodd" d="M47.887 44.776A25.666 25.666 0 0055.25 26.75C55.25 12.528 43.721 1 29.5 1 15.28 1 3.75 12.528 3.75 26.75a25.65 25.65 0 006.317 16.894c-.353.1-.708.198-1.065.294A26.642 26.642 0 012.75 26.75C2.75 11.976 14.726 0 29.5 0c14.773 0 26.75 11.976 26.75 26.75 0 7.82-3.356 14.855-8.706 19.746.53-.674.86-1.243.94-1.656l-.597-.064z"/></mask><path d="M47.887 44.776l-.357-.35-.722.736 1.025.11.054-.496zm-37.82-1.132l.135.482.76-.214-.518-.596-.377.328zm-1.065.294l-.382.322.205.244.308-.083-.13-.483zm38.543 2.558l-.393-.309.73.678-.337-.369zm.938-1.656l.491.095.103-.533-.54-.059-.054.497zm-.65.433l.15.016.107-.994-.15-.016-.107.994zm.448.048l.148.016.108-.994-.149-.016-.107.994zm-.289-.576a1.505 1.505 0 01-.118.336l.907.422c.088-.19.157-.381.193-.568l-.982-.19zm-.567 1.078a9.52 9.52 0 01-.273.364l.785.619a9.87 9.87 0 00.303-.403l-.815-.58zm.457 1.042c.232-.212.46-.428.685-.648l-.7-.714c-.216.212-.436.42-.66.624l.675.738zm1.985-2.013c.418-.469.82-.953 1.204-1.45l-.791-.612c-.37.48-.758.946-1.16 1.398l.747.664zm2.305-2.981c.349-.522.68-1.056.993-1.603l-.868-.497c-.301.527-.62 1.042-.956 1.544l.831.556zm1.872-3.271a27.1 27.1 0 00.762-1.725l-.928-.372c-.226.564-.47 1.118-.734 1.661l.9.436zm1.402-3.499c.191-.596.363-1.201.514-1.815l-.971-.239c-.145.591-.31 1.174-.495 1.748l.952.306zm.9-3.66c.108-.616.194-1.239.259-1.868l-.995-.102a26.32 26.32 0 01-.248 1.8l.985.17zm.387-3.748c.01-.314.016-.628.016-.943h-1c0 .304-.005.607-.015.909l1 .034zm.016-.943c0-.326-.006-.651-.017-.974l-1 .035c.012.311.017.624.017.939h1zm-.154-2.914a27.152 27.152 0 00-.274-1.927l-.985.177c.11.612.198 1.23.265 1.856l.994-.106zm-.686-3.827a27.015 27.015 0 00-.548-1.868l-.948.316c.196.59.372 1.19.527 1.799l.969-.247zm-1.228-3.69a27.196 27.196 0 00-.809-1.77l-.894.449c.28.557.54 1.125.78 1.704l.923-.383zm-1.743-3.476a27.244 27.244 0 00-1.053-1.636l-.821.571c.356.512.695 1.038 1.015 1.576l.86-.511zm-2.22-3.192a27.434 27.434 0 00-1.274-1.47l-.732.682c.425.457.835.93 1.228 1.416l.778-.628zm-2.65-2.845a27.413 27.413 0 00-1.47-1.275l-.627.779c.486.392.959.802 1.416 1.227l.681-.731zm-3.026-2.442a27.278 27.278 0 00-1.635-1.053l-.511.86a26.3 26.3 0 011.575 1.014l.571-.82zM41.7 2.377a27.1 27.1 0 00-1.77-.81l-.383.925c.58.24 1.148.5 1.705.78l.448-.895zM38.108.887A27.039 27.039 0 0036.24.34l-.246.97c.608.154 1.208.33 1.798.527l.316-.95zM34.34-.07a27.231 27.231 0 00-1.927-.275l-.106.994c.626.067 1.245.155 1.856.265l.177-.984zm-3.866-.412A27.728 27.728 0 0029.5-.5v1c.314 0 .627.006.939.016l.035-.999zM29.5-.5c-.326 0-.651.006-.974.017l.035 1C28.872.505 29.185.5 29.5.5v-1zm-2.914.154c-.649.069-1.292.16-1.927.275l.177.984a26.31 26.31 0 011.856-.265l-.106-.994zM22.76.34c-.632.161-1.255.344-1.868.548l.316.949a26.04 26.04 0 011.799-.528L22.759.34zm-3.69 1.228c-.601.25-1.191.52-1.77.81l.449.893c.557-.28 1.125-.54 1.704-.78l-.383-.923zM15.593 3.31c-.559.332-1.104.684-1.636 1.053l.571.821a26.27 26.27 0 011.576-1.014l-.511-.86zM12.4 5.531c-.505.408-.995.833-1.47 1.275l.682.731c.457-.425.93-.835 1.416-1.227l-.628-.78zm-2.845 2.65c-.442.475-.867.965-1.275 1.47l.779.628c.392-.487.802-.96 1.227-1.416l-.731-.682zm-2.442 3.026c-.37.532-.72 1.077-1.053 1.636l.86.51a26.71 26.71 0 011.014-1.575l-.82-.57zM5.127 14.55a27.75 27.75 0 00-.81 1.77l.925.383c.24-.58.5-1.147.78-1.704l-.895-.449zm-1.49 3.592a27.054 27.054 0 00-.547 1.868l.97.247c.154-.609.33-1.209.527-1.8l-.95-.315zM2.68 21.91a27.225 27.225 0 00-.275 1.926l.994.106a26.23 26.23 0 01.265-1.856l-.984-.176zm-.412 3.866c-.011.323-.017.648-.017.974h1c0-.315.006-.628.016-.94l-.999-.034zm-.017.974c0 .318.005.635.016.95l1-.034c-.01-.304-.016-.61-.016-.916h-1zm.147 2.847c.066.634.154 1.262.262 1.883l.985-.172a26.233 26.233 0 01-.252-1.814l-.995.103zm.656 3.744c.153.618.328 1.227.523 1.828l.95-.309a26.047 26.047 0 01-.503-1.76l-.97.24zm1.173 3.615c.238.59.497 1.169.774 1.737l.899-.439a26.103 26.103 0 01-.746-1.673l-.927.375zm1.668 3.415c.318.55.654 1.088 1.009 1.612l.828-.56a26.228 26.228 0 01-.971-1.552l-.866.5zm2.127 3.15c.195.25.395.496.599.739l.765-.643a26.277 26.277 0 01-.576-.712l-.788.616zm1.112.9l.268-.073-.264-.965-.265.072.261.966zm.802-.22l.267-.075-.27-.963-.265.074.268.963zm.509-.885a25.323 25.323 0 01-.58-.692l-.778.63c.197.242.398.482.604.718l.754-.656zM8.777 41.18c-.344-.494-.671-1-.98-1.518l-.86.512c.322.539.662 1.065 1.02 1.578l.82-.572zm-1.85-3.102a25.109 25.109 0 01-.753-1.642l-.923.384c.241.58.503 1.15.783 1.707l.894-.45zm-1.386-3.334c-.19-.57-.36-1.147-.509-1.734l-.969.248c.156.61.332 1.21.53 1.802l.948-.316zm-.892-3.5a25.228 25.228 0 01-.256-1.788l-.994.106c.067.627.156 1.247.266 1.86l.984-.177zm-.383-3.59c-.01-.3-.016-.602-.016-.904h-1c0 .314.006.627.017.939l.999-.035zm-.016-.904c0-.333.006-.664.02-.994l-1-.038c-.013.342-.02.686-.02 1.032h1zm.173-2.97c.077-.662.18-1.315.308-1.959l-.981-.194c-.133.67-.24 1.349-.32 2.036l.993.116zm.769-3.887c.18-.64.384-1.268.612-1.885l-.938-.346c-.237.642-.45 1.295-.637 1.96l.963.27zm1.372-3.717c.278-.602.578-1.19.901-1.766l-.872-.489c-.335.598-.648 1.21-.937 1.836l.908.42zm1.939-3.455a25.33 25.33 0 011.166-1.604l-.784-.62c-.426.54-.83 1.096-1.213 1.668l.83.556zm2.455-3.11c.449-.486.917-.954 1.402-1.403l-.679-.734c-.504.466-.99.953-1.457 1.457l.734.68zm2.91-2.691a25.33 25.33 0 011.603-1.167l-.556-.831a26.33 26.33 0 00-1.667 1.213l.62.785zm3.292-2.205a25.176 25.176 0 011.766-.901l-.42-.908c-.625.289-1.237.602-1.835.937l.49.872zm3.598-1.66a25.038 25.038 0 011.885-.613l-.271-.963c-.665.187-1.318.4-1.96.637l.346.938zM24.57 1.98c.644-.128 1.297-.23 1.958-.308L26.413.68c-.687.08-1.366.187-2.036.32l.194.98zm3.935-.462c.33-.013.661-.019.994-.019v-1c-.346 0-.69.007-1.032.02l.038 1zM29.5 1.5c.332 0 .663.006.993.02l.038-1C30.19.507 29.845.5 29.5.5v1zm2.97.173c.66.077 1.314.18 1.958.308L34.622 1c-.67-.133-1.349-.24-2.036-.32l-.116.993zm3.886.769c.64.18 1.268.384 1.885.612l.347-.938a26.043 26.043 0 00-1.96-.637l-.272.963zm3.717 1.372c.602.278 1.19.578 1.766.901l.49-.872a26.186 26.186 0 00-1.837-.937l-.419.908zm3.455 1.939c.55.368 1.085.757 1.604 1.167l.62-.785a26.334 26.334 0 00-1.667-1.213l-.557.83zm3.111 2.455c.485.449.953.917 1.402 1.402l.734-.679c-.466-.504-.952-.99-1.457-1.457l-.679.734zm2.69 2.91c.41.518.8 1.053 1.168 1.603l.83-.556a26.306 26.306 0 00-1.212-1.667l-.785.62zm2.205 3.292c.323.575.624 1.164.902 1.766l.907-.42a26.169 26.169 0 00-.937-1.835l-.872.49zm1.661 3.598c.228.617.432 1.246.612 1.885l.963-.271a26.03 26.03 0 00-.637-1.96l-.938.346zm1.074 3.813c.127.644.23 1.297.308 1.958l.993-.116a26.15 26.15 0 00-.32-2.036l-.981.194zm.461 3.935c.013.33.02.661.02.994h1c0-.346-.007-.69-.02-1.032l-1 .038zm.02.994c0 .328-.007.654-.02.98l1 .037c.013-.337.02-.677.02-1.017h-1zm-.17 2.932a25.195 25.195 0 01-.3 1.934l.982.192c.13-.662.234-1.333.312-2.011l-.993-.115zm-.749 3.84a25.02 25.02 0 01-.597 1.863l.94.342a26.01 26.01 0 00.62-1.938l-.963-.268zm-1.338 3.675a25.152 25.152 0 01-.88 1.75l.876.483a25.94 25.94 0 00.914-1.818l-.91-.415zm-1.892 3.425c-.36.546-.74 1.077-1.14 1.592l.79.613a26.32 26.32 0 001.185-1.655l-.835-.55zm-2.399 3.092c-.22.241-.443.479-.672.712l.714.7c.238-.242.47-.49.699-.74l-.74-.672zm-.315 1.062l-.714-.7-1.444 1.472 2.05.222.108-.994zm-37.82-1.132l.27.963 1.52-.428-1.036-1.191-.754.656zm-1.065.294l-.765.643.41.49.617-.168-.261-.965zm38.543 2.558l-.786-.618 1.46 1.356-.675-.738zm.938-1.656l.982.19.206-1.067-1.08-.117-.108.994zm-.703.93l.149.016.215-1.988-.15-.016-.214 1.988zm.447.048l.149.017.215-1.989-.15-.016-.214 1.988zM47.5 44.65a1.038 1.038 0 01-.08.22l1.813.844c.1-.215.185-.446.231-.684l-1.964-.38zm-.483.883a8.97 8.97 0 01-.26.345l1.572 1.237c.113-.143.219-.284.317-.422l-1.629-1.16zm1.201 1.701c.236-.216.469-.436.698-.66l-1.4-1.428c-.212.208-.428.412-.647.612l1.35 1.476zm2.022-2.05c.425-.477.834-.97 1.226-1.477l-1.583-1.223c-.363.47-.743.928-1.137 1.372l1.494 1.329zm2.347-3.035c.355-.532.692-1.076 1.01-1.633l-1.735-.993a25.773 25.773 0 01-.938 1.514l1.663 1.112zm1.907-3.331c.278-.575.536-1.161.775-1.757l-1.857-.744a25.585 25.585 0 01-.719 1.63l1.8.87zm1.427-3.564c.195-.607.37-1.223.524-1.848l-1.942-.478a25.86 25.86 0 01-.486 1.714l1.904.612zm.918-3.727c.108-.628.196-1.262.262-1.902l-1.99-.205a25.701 25.701 0 01-.243 1.765l1.97.342zm.393-3.818c.01-.318.016-.638.016-.96h-2c0 .3-.005.597-.015.893l1.999.067zm.016-.96c0-.331-.006-.662-.017-.991l-1.999.07c.01.306.016.613.016.922h2zm-.157-2.966a27.758 27.758 0 00-.28-1.962l-1.968.353c.108.6.194 1.207.26 1.82l1.989-.21zm-.698-3.897a27.651 27.651 0 00-.558-1.903l-1.898.632c.193.579.365 1.167.517 1.764l1.939-.493zm-1.25-3.759a27.624 27.624 0 00-.825-1.802l-1.788.897c.274.546.53 1.104.765 1.671l1.847-.766zm-1.776-3.54a27.783 27.783 0 00-1.073-1.665l-1.642 1.142c.35.502.682 1.018.996 1.545l1.719-1.022zm-2.26-3.25a27.898 27.898 0 00-1.299-1.497l-1.463 1.364c.418.448.82.911 1.205 1.389l1.556-1.256zm-2.7-2.897a27.57 27.57 0 00-1.495-1.298L45.657 6.7c.477.385.94.787 1.389 1.204l1.363-1.463zm-3.08-2.486a27.755 27.755 0 00-1.666-1.073l-1.022 1.72c.528.313 1.043.645 1.546.995l1.142-1.642zM41.924 1.93c-.589-.295-1.19-.57-1.802-.824l-.766 1.847a26.04 26.04 0 011.672.765l.896-1.788zM38.266.413a27.527 27.527 0 00-1.902-.557l-.494 1.938a25.56 25.56 0 011.765.517l.63-1.898zm-3.838-.976a27.733 27.733 0 00-1.962-.28l-.212 1.989c.614.065 1.221.152 1.821.26l.353-1.97zm-3.937-.42C30.162-.994 29.831-1 29.5-1v2c.308 0 .615.005.921.016l.07-1.999zM29.5-1c-.332 0-.663.006-.992.017l.07 2c.306-.012.613-.017.922-.017v-2zm-2.967.157a27.73 27.73 0 00-1.962.28l.353 1.968c.6-.107 1.207-.194 1.82-.26l-.21-1.988zm-3.897.699a27.56 27.56 0 00-1.903.557l.632 1.898a25.372 25.372 0 011.764-.517l-.493-1.938zm-3.759 1.25a27.63 27.63 0 00-1.802.824l.897 1.788c.546-.274 1.104-.53 1.671-.764l-.766-1.848zm-3.54 1.775c-.569.338-1.124.696-1.665 1.073l1.142 1.642a25.76 25.76 0 011.545-.996l-1.022-1.719zm-3.25 2.261A28 28 0 0010.59 6.44l1.364 1.463c.448-.417.911-.82 1.389-1.204l-1.256-1.557zM9.19 7.84c-.45.483-.883.982-1.298 1.497l1.557 1.256c.385-.478.787-.941 1.204-1.39L9.19 7.84zm-2.486 3.082a27.784 27.784 0 00-1.073 1.665l1.72 1.022c.313-.527.645-1.043.995-1.545l-1.642-1.142zM4.68 14.325a27.63 27.63 0 00-.824 1.802l1.848.766c.235-.567.49-1.125.764-1.671l-1.788-.897zm-1.517 3.658a27.557 27.557 0 00-.557 1.903l1.938.493c.152-.597.324-1.185.517-1.764l-1.898-.632zm-.976 3.838c-.116.647-.21 1.301-.28 1.962l1.989.212a25.22 25.22 0 01.26-1.82l-1.97-.354zm-.42 3.937c-.011.33-.017.66-.017.992h2c0-.309.005-.616.016-.922l-1.999-.07zm-.017.992c0 .324.006.646.017.968l1.998-.069c-.01-.299-.015-.598-.015-.9h-2zm.15 2.899c.067.646.156 1.285.267 1.918l1.97-.345a25.73 25.73 0 01-.248-1.78l-1.99.207zm.667 3.812c.157.63.335 1.25.533 1.862l1.902-.617a25.548 25.548 0 01-.494-1.727l-1.94.482zm1.195 3.683c.243.6.506 1.19.789 1.769l1.797-.878a25.574 25.574 0 01-.731-1.641l-1.855.75zm1.699 3.478c.324.56.666 1.107 1.027 1.641l1.658-1.12a25.765 25.765 0 01-.954-1.523l-1.731 1.002zm2.166 3.207c.199.254.402.505.61.752l1.531-1.286a29.17 29.17 0 01-.565-.698l-1.576 1.232zm1.637 1.074l.269-.073-.528-1.929-.264.072.523 1.93zm.805-.221l.269-.075-.542-1.925-.263.073.536 1.927zm.752-1.694a24.763 24.763 0 01-.57-.679l-1.554 1.259c.2.248.406.492.615.733l1.51-1.313zm-1.634-2.094c-.337-.484-.658-.98-.96-1.488l-1.72 1.024c.328.55.674 1.085 1.039 1.608l1.64-1.144zm-1.813-3.04a24.638 24.638 0 01-.738-1.61l-1.847.768c.246.59.512 1.171.799 1.74l1.786-.899zm-1.358-3.269a24.529 24.529 0 01-.5-1.698l-1.937.494c.158.621.338 1.234.54 1.837l1.897-.633zm-.875-3.428a24.726 24.726 0 01-.25-1.754l-1.99.212c.069.639.16 1.27.272 1.895l1.968-.354zm-.375-3.52c-.01-.295-.016-.59-.016-.887h-2c0 .32.006.639.017.956l1.999-.07zm-.016-.887c0-.326.006-.651.019-.974l-1.999-.077c-.013.348-.02.699-.02 1.05h2zm.17-2.912a24.28 24.28 0 01.301-1.92L3.26 21.53a26.699 26.699 0 00-.326 2.075l1.986.233zm.753-3.81a24.55 24.55 0 01.6-1.847l-1.876-.692c-.242.654-.458 1.32-.649 1.997l1.925.542zm1.345-3.642c.272-.59.567-1.167.883-1.73l-1.744-.98a27.18 27.18 0 00-.955 1.871l1.816.839zm1.9-3.387c.361-.54.743-1.064 1.144-1.572l-1.57-1.239c-.433.55-.846 1.116-1.236 1.698L8.918 13zm2.407-3.05c.44-.475.899-.934 1.375-1.374l-1.358-1.468a26.9 26.9 0 00-1.485 1.485l1.468 1.358zm2.852-2.637a24.812 24.812 0 011.572-1.144l-1.113-1.662c-.582.39-1.149.803-1.698 1.236l1.24 1.57zm3.228-2.16a24.464 24.464 0 011.73-.884l-.838-1.816c-.637.294-1.261.613-1.87.955l.978 1.744zm3.526-1.629a24.557 24.557 0 011.847-.6L22.236.998c-.677.19-1.343.407-1.997.649l.692 1.876zm3.737-1.052a24.694 24.694 0 011.92-.302L26.355.183c-.7.082-1.392.191-2.075.326l.388 1.962zm3.858-.452c.323-.013.648-.019.974-.019V0c-.352 0-.703.007-1.051.02l.077 1.999zM29.5 2c.326 0 .65.006.973.019L30.551.02A28.3 28.3 0 0029.5 0v2zm2.912.17c.648.075 1.288.176 1.919.301L34.719.51a26.698 26.698 0 00-2.075-.326l-.232 1.986zm3.809.753a24.55 24.55 0 011.847.6l.693-1.876a26.552 26.552 0 00-1.998-.649l-.542 1.925zm3.643 1.345c.59.272 1.167.567 1.73.883l.979-1.744a26.68 26.68 0 00-1.871-.955l-.838 1.816zm3.386 1.9c.54.361 1.064.743 1.572 1.144l1.24-1.57a26.848 26.848 0 00-1.7-1.236L43.25 6.168zm3.05 2.407c.475.44.934.899 1.374 1.375l1.468-1.358c-.475-.514-.97-1.01-1.485-1.485L46.3 8.575zm2.637 2.852c.402.508.783 1.033 1.144 1.572l1.662-1.113a26.746 26.746 0 00-1.236-1.698l-1.57 1.24zm2.161 3.228c.316.564.611 1.141.884 1.73l1.815-.838a26.607 26.607 0 00-.955-1.87l-1.744.978zm1.628 3.526c.223.605.424 1.221.6 1.847l1.925-.542a26.5 26.5 0 00-.649-1.997l-1.876.692zm1.052 3.737c.125.632.226 1.272.302 1.92l1.986-.233c-.082-.7-.19-1.392-.326-2.075l-1.962.388zm.453 3.858c.012.323.018.648.018.974h2c0-.352-.007-.703-.02-1.051l-1.998.077zm.018.974c0 .321-.006.642-.018.96l1.998.076c.014-.344.02-.69.02-1.036h-2zm-.165 2.874a24.7 24.7 0 01-.294 1.896l1.963.384c.132-.675.238-1.359.318-2.05l-1.987-.23zm-.735 3.763c-.172.62-.367 1.229-.585 1.827l1.88.684c.235-.647.447-1.306.632-1.975l-1.927-.536zm-1.31 3.603a24.638 24.638 0 01-.863 1.715l1.75.967c.334-.604.645-1.222.932-1.853l-1.82-.829zm-1.856 3.357a24.826 24.826 0 01-1.117 1.56l1.58 1.226a26.86 26.86 0 001.207-1.686l-1.67-1.1zm-2.351 3.03c-.215.237-.435.47-.659.699l1.428 1.4c.242-.247.48-.498.712-.754l-1.481-1.345z" fill="#fff" mask="url(#a)"/><path d="M1 45.692c2.625 0 3.5-.525 5.25-.875 3.14-.628 8.395-2.712 11.337-3.977a2.026 2.026 0 011.785.086l14.878 8.266c-.583 2.625-3.5 6.825-10.5 2.625" stroke="#fff" stroke-width="2"/><path d="M1 60.567l13.384-4.182a2 2 0 011.229.011l11.845 3.948a2 2 0 001.327-.021l22.965-8.506c5.25-1.75 2.688-8.771-2.625-7-5.25 1.75-12.25 4.375-15.75 5.25" stroke="#fff" stroke-width="2"/><path d="M32.291 30.61c0-.654-.183-1.172-.55-1.555-.359-.39-.973-.75-1.842-1.077a22.75 22.75 0 01-2.25-.969 7.577 7.577 0 01-1.626-1.112 4.657 4.657 0 01-1.053-1.483c-.247-.567-.37-1.24-.37-2.022 0-1.348.43-2.453 1.291-3.314.862-.861 2.006-1.364 3.434-1.507v-2.56h1.914v2.596c1.411.199 2.516.79 3.314 1.77.797.973 1.196 2.237 1.196 3.792H32.29c0-.957-.199-1.67-.598-2.141-.39-.479-.917-.718-1.579-.718-.654 0-1.16.188-1.519.562-.359.367-.538.878-.538 1.532 0 .606.175 1.092.526 1.46.35.366 1 .74 1.95 1.124.957.383 1.743.745 2.357 1.088a6.563 6.563 0 011.555 1.149c.422.422.745.909.969 1.46.223.542.335 1.176.335 1.901 0 1.356-.423 2.457-1.268 3.302-.846.845-2.01 1.344-3.494 1.495v2.381h-1.902v-2.369c-1.634-.175-2.902-.753-3.804-1.734-.893-.99-1.34-2.301-1.34-3.936h3.46c0 .949.223 1.679.67 2.19.454.502 1.104.753 1.95.753.701 0 1.256-.184 1.662-.55.407-.375.61-.878.61-1.508z" fill="#fff"/></svg>