<svg width="66" height="56" fill="none" xmlns="http://www.w3.org/2000/svg"><path d="M15.386 31.296V20.727h35.227V32l-16.909-6.34-18.318 5.636z" fill="#fff"/><path d="M57.025 50.519a10.008 10.008 0 01-.937 1.479 7.874 7.874 0 01-1.226 1.29 5.986 5.986 0 01-1.486.911 4.462 4.462 0 01-1.775.345 8.224 8.224 0 01-2.293-.282 6.652 6.652 0 01-1.712-.75c-.494-.315-.946-.63-1.357-.944-.41-.315-.809-.64-1.195-.975a3.627 3.627 0 00-1.26-.725 7.696 7.696 0 00-1.485-.314 3.674 3.674 0 00-1.486.282 6.045 6.045 0 00-1.226.725c-.388.293-.776.608-1.162.944-.42.358-.874.674-1.357.945a8.324 8.324 0 01-1.717.707 8.98 8.98 0 01-2.357.315 8.36 8.36 0 01-2.325-.283 8.144 8.144 0 01-1.744-.722 7.257 7.257 0 01-1.324-.944 10.61 10.61 0 00-1.195-.945 9.86 9.86 0 00-1.227-.725 3.834 3.834 0 00-2.97-.032 5.361 5.361 0 00-1.227.75c-.388.314-.787.63-1.195.944-.41.315-.862.64-1.358.975-.527.35-1.12.596-1.744.724a16.1 16.1 0 01-2.294.315 4.949 4.949 0 01-1.796-.315 4.564 4.564 0 01-1.452-.912c-.431-.399-.831-.83-1.195-1.29a9.134 9.134 0 01-.97-1.498l-.064-.095" stroke="#fff" stroke-width="2" stroke-dasharray="1 1"/><path d="M64 49.31h-4.908l4.905-14.54-8.266-2.674V17.103h-4.907L46.69 9.05h-7.492V1H26.799v8.061h-7.491l-4.133 8.052h-4.908v14.993L2 34.78l4.908 14.533H2" stroke="#fff" stroke-width="2"/></svg>