<svg width="74" height="59" fill="none" xmlns="http://www.w3.org/2000/svg"><path d="M64.038 17.404a2.846 2.846 0 11-5.692 0 2.846 2.846 0 015.692 0zm-9.961 0a2.846 2.846 0 11-5.693 0 2.846 2.846 0 015.693 0zm-9.962 0a2.846 2.846 0 11-5.692 0 2.846 2.846 0 015.692 0z" fill="#fff"/><path fill-rule="evenodd" clip-rule="evenodd" d="M4 17.404a4 4 0 00-4 4v26.154a4 4 0 004 4h4.538v7.115l7.116-7.115h25.884a4 4 0 004-4V21.404a4 4 0 00-4-4H4z" fill="#fff"/><path fill-rule="evenodd" clip-rule="evenodd" d="M4 17.404a4 4 0 00-4 4v26.154a4 4 0 004 4h4.538v7.115l7.116-7.115h25.884a4 4 0 004-4V21.404a4 4 0 00-4-4H4z" fill="url(#paint0_linear)"/><mask id="b" maskUnits="userSpaceOnUse" x="28" y="0" width="46" height="42"><mask id="a" fill="#fff"><path fill-rule="evenodd" clip-rule="evenodd" d="M70 .327a4 4 0 014 4V30.48a4 4 0 01-4 4h-4.538v7.115l-7.116-7.115H32.462a4 4 0 01-4-4V4.327a4 4 0 014-4H70z"/></mask><path d="M65.462 34.48h-2v-2h2v2zm0 7.116h2v4.829l-3.415-3.415 1.415-1.414zm-7.116-7.115v-2h.829l.585.585-1.414 1.415zM72 4.327a2 2 0 00-2-2v-4a6 6 0 016 6h-4zm0 26.154V4.327h4V30.48h-4zm-2 2a2 2 0 002-2h4a6 6 0 01-6 6v-4zm-4.538 0H70v4h-4.538v-4zm2 2v7.115h-4v-7.115h4zm-3.415 8.53l-7.115-7.116 2.828-2.829 7.116 7.116-2.829 2.828zM32.462 32.48h25.884v4H32.462v-4zm-2-2a2 2 0 002 2v4a6 6 0 01-6-6h4zm0-26.154V30.48h-4V4.327h4zm2-2a2 2 0 00-2 2h-4a6 6 0 016-6v4zm37.538 0H32.462v-4H70v4z" fill="#fff" mask="url(#a)"/></mask><g mask="url(#b)"><mask id="d" maskUnits="userSpaceOnUse" x="28" y="0" width="46" height="42"><mask id="c" fill="#fff"><path fill-rule="evenodd" clip-rule="evenodd" d="M70 .327a4 4 0 014 4V30.48a4 4 0 01-4 4h-4.538v7.115l-7.116-7.115H32.462a4 4 0 01-4-4V4.327a4 4 0 014-4H70z"/></mask><path d="M65.462 34.48h-1v-1h1v1zm0 7.116h1v2.414l-1.708-1.707.707-.707zm-7.116-7.115v-1h.414l.293.293-.707.707zM75 4.327v.484h-2v-.484h2zm0 2.422v.968h-2V6.75h2zm0 2.906v.968h-2v-.968h2zm0 2.905v.97h-2v-.97h2zm0 2.906v.97h-2v-.97h2zm0 2.906v.97h-2v-.97h2zm0 2.907v.968h-2v-.968h2zm0 2.905v.97h-2v-.97h2zm0 2.906v.97h-2v-.97h2zm0 2.906v.485h-2v-.485h2zm0 .485c0 .22-.014.438-.042.651l-1.983-.258A3.04 3.04 0 0073 30.48h2zm-1.034 3.044a5.025 5.025 0 01-.921.922l-1.22-1.586c.209-.16.396-.346.556-.554l1.585 1.218zm-3.314 1.913a5.036 5.036 0 01-.652.043v-2c.134 0 .265-.009.393-.026l.259 1.983zm-.652.043h-.378v-2H70v2zm-1.891 0h-.756v-2h.756v2zm-2.27 0h-.377v-2h.378v2zm.623-1v.593h-2v-.593h2zm0 2.965v1.185h-2v-1.185h2zm0 3.557v.593h-2v-.593h2zm-1.708 1.3l-.395-.395 1.414-1.414.396.395-1.415 1.414zm-1.976-1.976l-.79-.79 1.413-1.415.791.79-1.414 1.415zm-2.372-2.372l-.79-.79 1.414-1.415.79.79-1.414 1.415zm-2.372-2.372l-.395-.395 1.414-1.414.396.395-1.415 1.414zm.312-.102h-.48v-2h.48v2zm-2.397 0h-.958v-2h.958v2zm-2.876 0h-.958v-2h.958v2zm-2.876 0h-.958v-2h.958v2zm-2.876 0h-.959v-2h.96v2zm-2.876 0h-.959v-2h.96v2zm-2.876 0h-.959v-2h.96v2zm-2.876 0h-.959v-2h.959v2zm-2.876 0h-.959v-2h.959v2zm-2.876 0h-.48v-2h.48v2zm-.48 0c-.22 0-.438-.015-.651-.043l.258-1.983c.129.017.26.026.394.026v2zm-3.044-1.034a5.025 5.025 0 01-.922-.922l1.586-1.218c.16.208.346.394.555.554l-1.219 1.586zm-1.913-3.315a5.05 5.05 0 01-.043-.651h2c0 .133.01.265.026.393l-1.983.259zm-.043-.651v-.485h2v.485h-2zm0-2.422v-.969h2v.97h-2zm0-2.906v-.968h2v.968h-2zm0-2.906v-.968h2v.968h-2zm0-2.906v-.969h2v.97h-2zm0-2.906v-.968h2v.968h-2zm0-2.906v-.969h2v.97h-2zm0-2.906v-.968h2v.968h-2zm0-2.906V6.75h2v.968h-2zm0-2.906v-.484h2v.484h-2zm0-.484c0-.22.015-.438.043-.652l1.983.259c-.017.128-.025.26-.025.393h-2zm1.034-3.045a5.03 5.03 0 01.922-.922l1.219 1.586a3.02 3.02 0 00-.555.555l-1.586-1.219zM31.81-.63c.213-.028.431-.042.652-.042v2a3.04 3.04 0 00-.394.025L31.81-.63zm.652-.042h.48v2h-.48v-2zm2.406 0h.962v2h-.962v-2zm2.887 0h.963v2h-.963v-2zm2.888 0h.962v2h-.962v-2zm2.888 0h.962v2h-.962v-2zm2.887 0h.963v2h-.963v-2zm2.888 0h.962v2h-.962v-2zm2.887 0h.963v2h-.963v-2zm2.888 0h.962v2h-.962v-2zm2.887 0h.963v2h-.963v-2zm2.888 0h.962v2h-.962v-2zm2.888 0h.962v2h-.962v-2zm2.887 0h.963v2h-.963v-2zm2.888 0H70v2h-.481v-2zm.481 0c.22 0 .438.014.652.042l-.259 1.983A3.038 3.038 0 0070 1.327v-2zM73.044.36c.347.266.657.576.922.922l-1.585 1.22a3.024 3.024 0 00-.555-.556L73.045.36zm1.914 3.315c.028.214.042.431.042.652h-2c0-.134-.009-.265-.025-.393l1.983-.259zm-9.496 30.806h-2v-2h2v2zm0 7.115h2v4.829l-3.415-3.415 1.415-1.414zm-7.116-7.115v-2h.829l.585.585-1.414 1.415zM76 4.327v.484h-4v-.484h4zm0 2.422v.968h-4V6.75h4zm0 2.906v.968h-4v-.968h4zm0 2.905v.97h-4v-.97h4zm0 2.906v.97h-4v-.97h4zm0 2.906v.97h-4v-.97h4zm0 2.907v.968h-4v-.968h4zm0 2.905v.97h-4v-.97h4zm0 2.906v.97h-4v-.97h4zm0 2.906v.485h-4v-.485h4zm0 .485c0 .263-.017.524-.05.78l-3.967-.517a2.05 2.05 0 00.017-.263h4zm-1.24 3.654c-.32.415-.691.786-1.106 1.105l-2.438-3.172c.14-.106.265-.231.372-.37l3.171 2.437zm-3.98 2.295a6.03 6.03 0 01-.781.05v-4c.09 0 .178-.005.264-.016l.517 3.966zm-.781.05h-.378v-4H70v4zm-1.891 0h-.756v-4h.756v4zm-2.27 0h-.377v-4h.378v4zm1.623-2v.594h-4v-.593h4zm0 2.966v1.185h-4v-1.185h4zm0 3.557v.593h-4v-.593h4zm-3.415 2.007l-.395-.395 2.829-2.828.395.395-2.829 2.828zm-1.976-1.976l-.79-.79 2.828-2.83.79.791-2.828 2.829zm-2.372-2.372l-.79-.79 2.828-2.829.79.79-2.828 2.83zm-2.372-2.372l-.395-.395 2.828-2.829.396.396-2.829 2.828zm1.02.19h-.48v-4h.48v4zm-2.398 0h-.958v-4h.958v4zm-2.876 0h-.958v-4h.958v4zm-2.876 0h-.958v-4h.958v4zm-2.876 0h-.959v-4h.96v4zm-2.876 0h-.959v-4h.96v4zm-2.876 0h-.959v-4h.96v4zm-2.876 0h-.959v-4h.959v4zm-2.876 0h-.959v-4h.959v4zm-2.876 0h-.48v-4h.48v4zm-.48 0a5.93 5.93 0 01-.78-.05l.517-3.966c.085.01.173.017.264.017v4zm-3.653-1.24a6.023 6.023 0 01-1.106-1.105l3.172-2.438c.107.14.232.265.371.372l-2.437 3.171zm-2.296-3.978a6.05 6.05 0 01-.05-.781h4c0 .09.005.178.017.263l-3.967.518zm-.05-.781v-.485h4v.485h-4zm0-2.422v-.969h4v.97h-4zm0-2.906v-.968h4v.968h-4zm0-2.906v-.968h4v.968h-4zm0-2.906v-.969h4v.97h-4zm0-2.906v-.968h4v.968h-4zm0-2.906v-.969h4v.97h-4zm0-2.906v-.968h4v.968h-4zm0-2.906V6.75h4v.968h-4zm0-2.906v-.484h4v.484h-4zm0-.484c0-.264.017-.525.05-.781l3.966.517a2.045 2.045 0 00-.017.264h-4zm1.24-3.654c.319-.415.69-.787 1.106-1.106l2.437 3.172c-.14.107-.264.232-.371.371L27.702.673zm3.978-2.295a5.96 5.96 0 01.782-.051v4c-.09 0-.179.006-.264.017l-.518-3.966zm.782-.051h.48v4h-.48v-4zm2.406 0h.962v4h-.962v-4zm2.887 0h.963v4h-.963v-4zm2.888 0h.962v4h-.962v-4zm2.888 0h.962v4h-.962v-4zm2.887 0h.963v4h-.963v-4zm2.888 0h.962v4h-.962v-4zm2.887 0h.963v4h-.963v-4zm2.888 0h.962v4h-.962v-4zm2.887 0h.963v4h-.963v-4zm2.888 0h.962v4h-.962v-4zm2.888 0h.962v4h-.962v-4zm2.887 0h.963v4h-.963v-4zm2.888 0H70v4h-.481v-4zm.481 0c.264 0 .525.017.781.05l-.517 3.967A2.038 2.038 0 0070 2.327v-4zm3.654 1.24c.415.32.787.691 1.105 1.106l-3.17 2.437a2.025 2.025 0 00-.371-.37l2.437-3.173zm2.295 3.979c.034.256.051.517.051.78h-4c0-.09-.006-.177-.017-.263l3.966-.517z" fill="#fff" mask="url(#c)"/></mask><g mask="url(#d)"><path fill="#6385CE" d="M27.039 17.404h18.5v18.5h-18.5z"/></g><path d="M25.615.327h51.231v17.077h-51.23V.327z" fill="#fff"/><path d="M45.538 17.404h34.154v25.615H45.538V17.404z" fill="#fff"/></g><defs><linearGradient id="paint0_linear" x1="22.769" y1="17.404" x2="22.769" y2="58.673" gradientUnits="userSpaceOnUse"><stop stop-color="#DBE9FF"/><stop offset="1" stop-color="#fff" stop-opacity="0"/></linearGradient></defs></svg>