<svg width="72" height="36" fill="none" xmlns="http://www.w3.org/2000/svg"><rect x="1" y="1" width="70" height="34" rx="1" stroke="#fff" stroke-width="2"/><rect x="4.5" y="5.5" width="27" height="17" rx="1.5" stroke="#fff"/><rect x="36.5" y="6.5" width="31" height="9" rx="1.5" stroke="#fff"/><rect x="36.5" y="18.5" width="31" height="9" rx="1.5" stroke="#fff"/><path stroke="#fff" d="M36.5 30.5h31v1h-31zm-32-4h27v5h-27z"/><path fill="#fff" d="M1 1h70v2H1z"/><path d="M4 1.5a.5.5 0 11-1 0 .5.5 0 011 0zm2 0a.5.5 0 11-1 0 .5.5 0 011 0zm2 0a.5.5 0 11-1 0 .5.5 0 011 0z" fill="#489CE5"/><path d="M13 15.5l2.5 2.5L24 9.5" stroke="#E5F9FF"/></svg>