<svg xmlns="http://www.w3.org/2000/svg" width="105" height="28.572"><g class="a"><path d="M43.155 28.573c-11.25-3.542-14.345-12.59-14.137-19.762.179-5.565 4.375-8.869 14.137-8.81 9.762-.06 13.958 3.244 14.137 8.81.208 7.143-2.887 16.22-14.137 19.762zm0-1.458a17.977 17.977 0 0010.179-7.768 19.294 19.294 0 002.56-10.476 6.868 6.868 0 00-.863-3.333c-2.143-3.69-8.125-4.137-11.875-4.107-3.75-.03-9.732.417-11.875 4.107a6.869 6.869 0 00-.863 3.333 19.231 19.231 0 002.56 10.476 18.2 18.2 0 0010.177 7.767z" fill-rule="evenodd"/><path d="M4.2 13.275v-.536a1.233 1.233 0 00-.179-.685.551.551 0 00-.506-.268.63.63 0 00-.6.3 1.828 1.828 0 00-.238.744l-2.26-.478a2.48 2.48 0 011.161-1.7 3.768 3.768 0 012.054-.536 3.983 3.983 0 012.173.536 2.12 2.12 0 011.012 1.9v4.503a5.642 5.642 0 00.06.893 1.919 1.919 0 00.179.417H4.375c-.03-.089-.03-.208-.06-.357 0-.149-.03-.268-.03-.387a2.747 2.747 0 01-.863.685 2.222 2.222 0 01-1.1.238 2.2 2.2 0 01-1.7-.655A2.255 2.255 0 010 16.132a2.408 2.408 0 011.429-2.237 5.76 5.76 0 012.771-.62zm0 3.065v-1.815a2.249 2.249 0 00-1.161.327 1.375 1.375 0 00-.417 1.131c0 .565.238.863.744.863a.721.721 0 00.387-.119 1.04 1.04 0 00.446-.387zm3.988-5.982h2.589v5.685q0 .714.625.714a.84.84 0 00.446-.119 1.328 1.328 0 00.387-.417v-5.863h2.589v8.065H12.2v-1.071a2.764 2.764 0 01-2.321 1.28 1.6 1.6 0 01-1.25-.476 1.889 1.889 0 01-.446-1.31v-6.488zm8.1 1.815h-1.08v-1.815h1.072V7.471h2.589v2.887H20.3v1.815h-1.431v3.422a1.857 1.857 0 00.089.714c.119.179.357.268.744.268a2.062 2.062 0 00.6-.089v1.9a5.725 5.725 0 01-.863.149c-.327.03-.655.06-.982.06a2.39 2.39 0 01-1.637-.476 2 2 0 01-.565-1.548v-4.4zm4.4 2.173a4.7 4.7 0 01.893-3.006 3.3 3.3 0 012.738-1.19 3.241 3.241 0 012.708 1.19 4.537 4.537 0 01.923 3.006 4.76 4.76 0 01-.893 3.065 3.261 3.261 0 01-2.738 1.19 3.261 3.261 0 01-2.738-1.19 4.76 4.76 0 01-.893-3.065zm2.679 0a6.566 6.566 0 00.208 2.054.734.734 0 001.425-.005 6.566 6.566 0 00.208-2.054 7.3 7.3 0 00-.179-1.994.711.711 0 00-.744-.536.75.75 0 00-.744.565 8.661 8.661 0 00-.179 1.964zM61.7 10.001v1.131a2.818 2.818 0 012.44-1.31 2.077 2.077 0 011.19.357 1.147 1.147 0 01.506.952 2.818 2.818 0 012.44-1.31 2 2 0 011.369.446 1.629 1.629 0 01.506 1.339v6.815H67.44v-5.95c0-.506-.208-.744-.655-.744a.84.84 0 00-.446.119 1.222 1.222 0 00-.417.446v6.161h-2.708v-5.952c0-.506-.208-.744-.655-.744a.717.717 0 00-.446.119 1.535 1.535 0 00-.417.446v6.161h-2.708v-8.482zm13.69 3.065v-.565a1.414 1.414 0 00-.179-.714.625.625 0 00-.536-.3.737.737 0 00-.625.327 1.6 1.6 0 00-.268.774l-2.351-.476a2.543 2.543 0 011.22-1.786 4.1 4.1 0 012.143-.565 3.984 3.984 0 012.262.565 2.2 2.2 0 011.044 1.996v4.7a3.379 3.379 0 00.089.923 1.422 1.422 0 00.179.417h-2.8c-.03-.089-.03-.208-.06-.357 0-.149-.03-.268-.03-.417a3.372 3.372 0 01-.893.714 2.437 2.437 0 01-1.131.268 2.307 2.307 0 01-1.756-.685 2.733 2.733 0 01-.655-1.9 2.48 2.48 0 011.488-2.321 6.342 6.342 0 012.857-.6zm0 3.185v-1.9a2.767 2.767 0 00-1.22.327 1.351 1.351 0 00-.446 1.19c0 .6.268.893.774.893a.814.814 0 00.417-.119 1.29 1.29 0 00.476-.387zm7.91-.056c0-.357-.357-.685-1.042-.952a13.008 13.008 0 01-1.994-.863 2.24 2.24 0 01-1.064-1.968 2.336 2.336 0 01.714-1.637 3.341 3.341 0 012.56-.982 3.746 3.746 0 011.926.502 3.01 3.01 0 011.28 1.756l-1.9.506a3.253 3.253 0 00-.476-.714 1.063 1.063 0 00-.8-.357q-.8 0-.8.536c0 .357.357.655 1.042.952a20.364 20.364 0 011.994.863 2.179 2.179 0 011.071 1.9 2.609 2.609 0 01-.923 2.113 3.745 3.745 0 01-2.44.774 3.792 3.792 0 01-2.292-.655 3.351 3.351 0 01-1.25-1.726l2.083-.655a3.917 3.917 0 00.565.863 1.211 1.211 0 00.893.357.977.977 0 00.625-.179.494.494 0 00.228-.434zm3.571-4.286v4.583a2.1 2.1 0 00.565 1.637 2.6 2.6 0 001.726.506c.327 0 .685-.03 1.012-.06a6.97 6.97 0 00.893-.149v-1.967a2.266 2.266 0 01-.625.089c-.417 0-.655-.089-.774-.3a1.938 1.938 0 01-.089-.744v-3.6h1.488v-1.9h-1.484V6.995h-2.708v3.006h-1.1v1.9zm11.849 2.886h-4.553a3.108 3.108 0 00.208 1.28 1.042 1.042 0 001.012.714 1.165 1.165 0 00.863-.327 1.711 1.711 0 00.506-.833l1.815.685a3.113 3.113 0 01-1.22 1.637 3.582 3.582 0 01-2.143.655 3.4 3.4 0 01-2.857-1.339 4.907 4.907 0 01-.923-3.1 4.907 4.907 0 01.923-3.1 3.4 3.4 0 012.827-1.31 3.088 3.088 0 012.738 1.4 5.355 5.355 0 01.774 3.038v.6zm-4.52-1.61h2.02a2.306 2.306 0 00-.268-1.339.884.884 0 00-.774-.357.836.836 0 00-.774.506 3.689 3.689 0 00-.208 1.19zM102.414 10v1.28a1.888 1.888 0 01.982-1.1A3.729 3.729 0 01105 9.822v2.738a3.862 3.862 0 00-.565-.179 2.669 2.669 0 00-.536-.06 2.539 2.539 0 00-.952.149 1.484 1.484 0 00-.565.506v5.446H99.7v-8.421zm-65.807 1.935v3.839a1.232 1.232 0 00.238.8.769.769 0 00.625.268.7.7 0 00.685-.506 6.026 6.026 0 00.179-1.756v-.625a8.111 8.111 0 00-.119-1.845.724.724 0 00-.714-.625.886.886 0 00-.446.149.914.914 0 00-.446.3zm-2.649 6.462V6.727h2.649v3.929a2.15 2.15 0 01.774-.476 2.742 2.742 0 01.893-.208 2.323 2.323 0 012.083 1.19 5.463 5.463 0 01.744 3.035 5.8 5.8 0 01-.685 2.857 2.552 2.552 0 01-2.351 1.458 2.475 2.475 0 01-1.28-.327 2.906 2.906 0 01-.952-.952l-.506 1.19h-1.369zm10.655-8.214v8.244h-2.649v-8.248zm-2.649-1.1V6.727h2.649v2.351zm10.655-2.351v11.665h-2.5v-.8a3.764 3.764 0 01-1.012.714 2.619 2.619 0 01-1.042.179 2.128 2.128 0 01-1.935-1.161 5.328 5.328 0 01-.625-2.738 6.844 6.844 0 01.565-3.1 2.268 2.268 0 012.143-1.339 2.336 2.336 0 011.726.714V6.697h2.679zm-2.649 9.583v-4.291a.979.979 0 00-.833-.387c-.357 0-.6.208-.685.655a7.321 7.321 0 00-.179 1.875c0 .863 0 1.4.03 1.637q.134 1.161.714 1.161a1.137 1.137 0 00.953-.655z"/></g></svg>