<svg width="162" height="45" fill="none" xmlns="http://www.w3.org/2000/svg"><path fill-rule="evenodd" clip-rule="evenodd" d="M66.582 44.083c-17.358-5.464-22.133-19.424-21.812-30.49C45.046 5.006 51.52-.09 66.582.001c15.06-.092 21.535 5.005 21.81 13.592.322 11.02-4.453 25.026-21.81 30.49z" fill="url(#paint0_radial)"/><path fill-rule="evenodd" clip-rule="evenodd" d="M45.092 19.195c3.72 1.929 11.985 3.306 21.535 3.306 9.552 0 17.817-1.331 21.536-3.306-1.331 9.78-7.025 20.342-21.581 24.888-14.51-4.546-20.25-15.107-21.49-24.888z" fill="url(#paint1_linear)"/><path fill-rule="evenodd" clip-rule="evenodd" d="M66.582 41.833c6.52-2.158 12.122-5.97 15.704-11.985 2.893-4.867 4.132-10.561 3.949-16.163-.046-1.79-.413-3.582-1.332-5.143-3.306-5.694-12.536-6.383-18.321-6.337-5.786-.046-15.016.643-18.322 6.337-.918 1.561-1.285 3.352-1.331 5.143-.184 5.602 1.056 11.342 3.949 16.163 3.627 5.97 9.183 9.827 15.704 11.985z" fill="url(#paint2_linear)"/><path fill-rule="evenodd" clip-rule="evenodd" d="M66.582 41.833c6.52-2.158 12.122-5.97 15.704-11.985.092-.138.183-.321.275-.459.092-.138.138-.276.23-.413l.046-.046c.092-.138.138-.276.23-.413v-.046c.091-.138.137-.276.229-.46v-.046l.092-.137v-.046l.046-.092.092-.184v-.092l.091-.183.092-.184.046-.092v-.046l.046-.137.046-.138v-.046l.046-.138.046-.137.046-.092v-.046c.046-.138.138-.276.183-.413l.046-.138c.046-.092.092-.184.092-.322l.046-.137.046-.138.046-.138a.664.664 0 00.092-.321l.046-.138c.459-1.378.78-2.801 1.056-4.27-4.317 1.423-11.296 2.341-19.24 2.341-7.898 0-14.923-.918-19.24-2.342.092.643.23 1.286.368 1.929.091.321.183.689.275 1.01v.046c.092.322.184.643.276 1.01.091.322.23.643.321.965v.046l.092.23.046.137v.046l.046.092.046.137v.046l.045.092v.046l.092.184.046.137v.046l.092.184.046.092.046.138v.046l.092.23v.045c.092.23.23.46.321.689l.092.23c.138.32.322.642.505.918.092.138.184.321.276.459.092.138.183.321.275.46 3.95 5.969 9.505 9.826 16.026 11.984z" fill="url(#paint3_linear)"/><path d="M6.474 20.48v-.826c0-.413-.091-.78-.275-1.056-.184-.275-.413-.413-.78-.413-.414 0-.735.138-.919.459a2.82 2.82 0 00-.367 1.148l-3.49-.735c.23-1.148.826-2.02 1.79-2.617.873-.551 1.93-.827 3.169-.827 1.378 0 2.48.276 3.352.827 1.056.689 1.561 1.653 1.561 2.939v6.933a8.7 8.7 0 00.092 1.378c.092.275.184.505.276.643H6.75c-.046-.138-.046-.322-.092-.551 0-.23-.046-.413-.046-.597-.367.459-.826.78-1.331 1.056s-1.057.367-1.7.367c-1.101 0-1.974-.321-2.617-1.01-.643-.55-.964-1.515-.964-2.71 0-1.514.735-2.662 2.204-3.443 1.194-.643 2.617-.964 4.27-.964zm0 4.73v-2.8c-.872.091-1.469.229-1.79.504-.414.322-.643.919-.643 1.745 0 .873.367 1.332 1.148 1.332.183 0 .367-.046.597-.184.23-.091.459-.275.688-.597zm6.154-9.23h3.994v8.771c0 .735.322 1.102.965 1.102.23 0 .459-.046.689-.184a2.03 2.03 0 00.596-.642V15.98h3.995v12.444h-4.04v-1.653c-.919 1.285-2.113 1.974-3.582 1.974-.827 0-1.47-.23-1.929-.735-.459-.505-.688-1.194-.688-2.066V15.98zm12.49 2.802h-1.654V15.98h1.653v-4.454h3.995v4.454h2.204v2.8h-2.204v5.281c0 .551.046.919.138 1.102.184.276.551.414 1.148.414.321 0 .597-.046.918-.138v2.939a8.822 8.822 0 01-1.331.23c-.505.045-1.01.091-1.516.091-1.102 0-1.974-.23-2.525-.735-.551-.505-.873-1.285-.873-2.387v-6.796h.046zm6.795 3.352c0-1.929.46-3.49 1.378-4.638 1.01-1.24 2.388-1.837 4.224-1.837 1.791 0 3.215.597 4.179 1.837.964 1.148 1.423 2.71 1.423 4.638 0 2.02-.459 3.581-1.377 4.73-.965 1.24-2.388 1.836-4.225 1.836-1.836 0-3.26-.597-4.224-1.837-.918-1.148-1.378-2.709-1.378-4.73zm4.133 0c0 1.515.092 2.571.321 3.168.23.597.597.873 1.102.873.505 0 .873-.276 1.102-.873.23-.597.322-1.653.322-3.168 0-1.515-.092-2.526-.276-3.077-.183-.55-.55-.826-1.148-.826-.55 0-.918.275-1.148.872-.137.551-.275 1.561-.275 3.03zm59.143-6.704v1.745c.964-1.378 2.204-2.02 3.765-2.02.689 0 1.286.183 1.837.55.505.368.78.873.78 1.47.965-1.378 2.205-2.02 3.766-2.02.872 0 1.607.229 2.112.688.551.46.781 1.148.781 2.066v10.516h-4.179V19.24c0-.78-.321-1.148-1.01-1.148-.23 0-.459.046-.689.184-.23.137-.413.321-.643.688v9.506h-4.178v-9.184c0-.78-.322-1.148-1.01-1.148-.276 0-.506.046-.69.184a2.369 2.369 0 00-.642.688v9.506H91.01V15.43h4.179zm21.122 4.73v-.873c0-.413-.092-.78-.275-1.102-.184-.276-.459-.46-.827-.46-.413 0-.735.184-.964.506-.23.321-.367.734-.413 1.194l-3.628-.735c.23-1.194.827-2.112 1.883-2.755.918-.551 2.02-.873 3.306-.873 1.423 0 2.571.276 3.49.873 1.102.689 1.607 1.745 1.607 3.076v7.256c0 .642.046 1.147.138 1.423.091.321.183.505.275.643h-4.316c-.046-.138-.046-.322-.092-.551 0-.23-.046-.413-.046-.643a5.18 5.18 0 01-1.378 1.102 3.758 3.758 0 01-1.744.413c-1.148 0-2.067-.367-2.71-1.056-.643-.689-1.01-1.699-1.01-2.939 0-1.607.781-2.8 2.296-3.581 1.194-.597 2.663-.919 4.408-.919zm0 4.913v-2.94c-.918.093-1.561.276-1.882.506-.46.321-.689.918-.689 1.837 0 .918.413 1.377 1.194 1.377.183 0 .413-.046.643-.184.229-.091.459-.275.734-.596zm12.215-.092c0-.551-.552-1.056-1.608-1.47-1.699-.642-2.755-1.102-3.076-1.331-1.102-.735-1.653-1.745-1.653-3.03 0-.92.367-1.746 1.102-2.526.964-1.01 2.25-1.516 3.949-1.516 1.148 0 2.112.276 2.985.78.964.644 1.607 1.516 1.974 2.71l-2.939.78c-.275-.504-.505-.872-.734-1.101-.368-.368-.735-.551-1.24-.551-.827 0-1.24.275-1.24.826 0 .551.551 1.01 1.607 1.47 1.699.688 2.709 1.102 3.077 1.331 1.102.735 1.653 1.7 1.653 2.939 0 1.377-.46 2.48-1.424 3.26-.964.78-2.204 1.194-3.765 1.194-1.424 0-2.572-.321-3.536-1.01-.918-.643-1.561-1.561-1.928-2.663l3.214-1.01c.321.596.597 1.056.872 1.331.368.367.827.551 1.378.551.413 0 .735-.092.964-.276a.761.761 0 00.368-.688zm5.51-6.613v7.072c0 1.148.275 1.974.872 2.525.597.506 1.47.781 2.663.781.506 0 1.057-.046 1.562-.092.505-.046.964-.137 1.377-.23v-3.03a3.491 3.491 0 01-.964.138c-.643 0-1.01-.138-1.194-.46-.092-.183-.138-.55-.138-1.147v-5.556h2.296v-2.94h-2.296v-4.637h-4.178v4.638h-1.699v2.939h1.699zm18.275 4.455h-7.025c0 .826.092 1.469.321 1.974.322.735.827 1.102 1.561 1.102.505 0 .965-.138 1.332-.505a2.64 2.64 0 00.781-1.286l2.801 1.056c-.322 1.01-.919 1.837-1.883 2.526-.964.689-2.066 1.01-3.306 1.01-1.883 0-3.352-.689-4.408-2.066-.965-1.24-1.424-2.847-1.424-4.776 0-1.928.459-3.535 1.424-4.775 1.056-1.332 2.479-2.02 4.362-2.02s3.26.734 4.224 2.158c.827 1.24 1.194 2.8 1.194 4.683v.919h.046zm-6.979-2.48h3.122c0-1.01-.138-1.745-.413-2.066-.276-.368-.643-.551-1.194-.551-.551 0-.918.275-1.194.78a5.682 5.682 0 00-.321 1.837zm12.673-4.913v1.974c.276-.78.781-1.331 1.515-1.699a5.756 5.756 0 012.48-.55v4.224a5.97 5.97 0 00-.872-.276 4.132 4.132 0 00-.827-.092c-.643 0-1.148.092-1.469.23-.322.138-.597.413-.873.78v8.404h-4.132V15.43h4.178z" fill="url(#paint4_linear)"/><path d="M56.48 18.414v5.924c0 .55.137.964.367 1.24.23.275.55.413.964.413.505 0 .873-.276 1.056-.78.184-.552.276-1.424.276-2.71v-.964c0-1.47-.046-2.388-.184-2.847-.184-.643-.55-.964-1.102-.964-.23 0-.46.091-.689.23a1.41 1.41 0 00-.688.458zm-4.087 9.965v-18h4.087v6.06a3.316 3.316 0 011.193-.734c.505-.184.965-.321 1.378-.321 1.377 0 2.434.597 3.214 1.837.78 1.193 1.148 2.755 1.148 4.683 0 1.7-.367 3.169-1.056 4.408-.826 1.516-2.066 2.25-3.627 2.25-.781 0-1.424-.183-1.975-.505-.551-.321-1.056-.826-1.47-1.47l-.78 1.838h-2.112v-.046zm16.439-12.674v12.72h-4.087v-12.72h4.087zm-4.087-1.699V10.38h4.087v3.627h-4.087zm16.439-3.627v18h-3.858v-1.24c-.642.55-1.147.964-1.56 1.102-.414.184-.965.275-1.608.275-1.286 0-2.296-.596-2.985-1.79-.642-1.102-.964-2.48-.964-4.225 0-2.02.276-3.627.873-4.775.688-1.378 1.836-2.067 3.306-2.067 1.056 0 1.928.368 2.663 1.102v-6.428h4.133v.046zm-4.087 14.785v-6.612c-.276-.367-.689-.597-1.286-.597-.55 0-.918.322-1.056 1.01-.184.643-.275 1.608-.275 2.893 0 1.332 0 2.158.045 2.526.138 1.194.506 1.79 1.102 1.79.643-.045 1.103-.367 1.47-1.01z" fill="url(#paint5_linear)"/><path fill-rule="evenodd" clip-rule="evenodd" d="M52.393 21.353c1.285.23 2.663.414 4.087.597v2.388c0 .551.137.964.367 1.24.23.275.55.413.964.413.505 0 .873-.275 1.056-.78.184-.551.276-1.424.276-2.71v-.275c1.377.092 2.8.184 4.224.23a8.93 8.93 0 01-1.01 3.902c-.826 1.516-2.066 2.25-3.627 2.25-.781 0-1.424-.183-1.975-.505-.551-.321-1.056-.826-1.47-1.47l-.78 1.838h-2.112v-7.118zm12.352 1.102h1.653c.827 0 1.653 0 2.434-.045v5.969h-4.087v-5.924zm5.464-.045a62.6 62.6 0 004.27-.276c0 1.148 0 1.883.046 2.204.138 1.194.506 1.79 1.102 1.79.643 0 1.148-.32 1.516-.963v-3.307c1.47-.183 2.847-.367 4.087-.642v7.163h-3.858v-1.24c-.642.551-1.147.964-1.56 1.102-.414.184-.965.276-1.608.276-1.286 0-2.296-.597-2.985-1.791-.642-1.102-.964-2.48-.964-4.225l-.046-.091z" fill="url(#paint6_linear)"/><defs><linearGradient id="paint1_linear" x1="89.196" y1="37.334" x2="39.514" y2="14.167" gradientUnits="userSpaceOnUse"><stop stop-color="#1E3464"/><stop offset=".6" stop-color="#29ABE2"/><stop offset="1" stop-color="#C6E8F9"/></linearGradient><linearGradient id="paint2_linear" x1="76.014" y1="33.206" x2="59.499" y2="4.602" gradientUnits="userSpaceOnUse"><stop stop-color="#A6A8AC"/><stop offset=".8" stop-color="#fff"/><stop offset="1" stop-color="#fff"/></linearGradient><linearGradient id="paint3_linear" x1="76.568" y1="39.203" x2="60.004" y2="10.514" gradientUnits="userSpaceOnUse"><stop stop-color="#A6A8AC"/><stop offset=".7" stop-color="#fff"/><stop offset="1" stop-color="#fff"/></linearGradient><linearGradient id="paint4_linear" x1="81.01" y1="28.712" x2="81.01" y2="10.774" gradientUnits="userSpaceOnUse"><stop stop-color="#2E94D2"/><stop offset=".105" stop-color="#2E90CF"/><stop offset=".685" stop-color="#2D7DC1"/><stop offset="1" stop-color="#2C76BC"/></linearGradient><linearGradient id="paint5_linear" x1="66.789" y1="28.552" x2="66.789" y2="10.383" gradientUnits="userSpaceOnUse"><stop stop-color="#4F121B"/><stop offset=".022" stop-color="#56151D"/><stop offset=".11" stop-color="#721C22"/><stop offset=".205" stop-color="#8B2124"/><stop offset=".308" stop-color="#A22226"/><stop offset=".422" stop-color="#B42226"/><stop offset=".553" stop-color="#C12227"/><stop offset=".714" stop-color="#C92127"/><stop offset="1" stop-color="#CB2027"/></linearGradient><linearGradient id="paint6_linear" x1="66.789" y1="20.366" x2="66.789" y2="29.409" gradientUnits="userSpaceOnUse"><stop stop-color="#4F121B"/><stop offset=".022" stop-color="#56151D"/><stop offset=".11" stop-color="#721C22"/><stop offset=".205" stop-color="#8B2124"/><stop offset=".308" stop-color="#A22226"/><stop offset=".422" stop-color="#B42226"/><stop offset=".553" stop-color="#C12227"/><stop offset=".714" stop-color="#C92127"/><stop offset="1" stop-color="#CB2027"/></linearGradient><radialGradient id="paint0_radial" cx="0" cy="0" r="1" gradientUnits="userSpaceOnUse" gradientTransform="translate(54.815 21.158) scale(31.3311)"><stop stop-color="#8ED7F7"/><stop offset=".53" stop-color="#29ABE2"/><stop offset=".89" stop-color="#1E3464"/><stop offset="1" stop-color="#1E3464"/></radialGradient></defs></svg>