<svg width="30" height="24" fill="none" xmlns="http://www.w3.org/2000/svg"><path d="M30 0H0v24h30V0z" fill="#2158F5"/><path fill-rule="evenodd" clip-rule="evenodd" d="M15 22C7.043 19.531 4.854 13.176 5.007 8.165 5.127 4.265 8.1 1.97 15 2c6.9-.033 9.872 2.265 9.992 6.165C25.148 13.176 22.957 19.53 15 22z" fill="url(#paint0_radial)"/><path fill-rule="evenodd" clip-rule="evenodd" d="M5.134 10.7c1.708.88 5.484 1.491 9.866 1.491 4.381 0 8.155-.613 9.866-1.492C24.279 15.143 21.66 19.933 15 22c-6.661-2.067-9.28-6.857-9.866-11.3z" fill="url(#paint1_linear)"/><path fill-rule="evenodd" clip-rule="evenodd" d="M15 20.977c2.993-.985 5.552-2.717 7.195-5.442 1.326-2.198 1.895-4.794 1.815-7.34-.026-.819-.196-1.627-.613-2.34-1.51-2.586-5.743-2.894-8.393-2.883h-.008c-2.65-.013-6.884.297-8.393 2.883-.419.715-.587 1.521-.615 2.34-.078 2.546.488 5.142 1.816 7.34 1.644 2.725 4.203 4.457 7.196 5.442z" fill="url(#paint2_linear)"/><path fill-rule="evenodd" clip-rule="evenodd" d="M15 20.977c2.993-.986 5.552-2.717 7.195-5.442l.12-.204.003-.005.109-.193.013-.023c.033-.065.07-.127.103-.192l.008-.015.101-.2.006-.01.032-.067.008-.018.017-.036.038-.077.009-.017.006-.014.04-.086.004-.008.004-.008.036-.082.02-.04.003-.012.03-.068.025-.06.004-.011.028-.065.03-.069.003-.006.021-.05.009-.023.078-.194.027-.068.05-.138.026-.07v-.003l.023-.066.023-.07c.017-.045.032-.093.048-.139l.024-.07c.208-.63.366-1.276.48-1.932-1.968.644-5.182 1.065-8.808 1.065-3.628 0-6.84-.42-8.808-1.065.049.292.11.58.177.867v.004c.038.152.076.302.118.452l.006.019c.04.15.084.3.133.448v.002c.046.148.097.296.15.442l.006.018.033.096.004.01.021.059.007.019.019.05v.002l.027.068.004.01.02.05.008.024.035.087.03.071.004.01.038.092.019.044.027.063.009.018.004.007.042.093.006.017c.049.104.097.21.148.314l.004.009.05.102c.07.144.146.285.221.425l.116.206.002.004c.04.07.08.138.122.205 1.65 2.727 4.21 4.458 7.202 5.444z" fill="url(#paint3_linear)"/><path d="M10.368 10.35v2.687c0 .245.057.43.168.556.114.127.261.19.446.19.24 0 .398-.121.476-.363.078-.242.116-.648.116-1.223v-.436c0-.658-.027-1.091-.082-1.298-.078-.298-.242-.448-.499-.448a.67.67 0 00-.324.098 1.302 1.302 0 00-.301.238zm-1.88 4.537V6.71h1.88v2.744c.13-.13.31-.24.539-.331.23-.092.435-.138.62-.138.634 0 1.124.275 1.474.827.347.55.522 1.259.522 2.123 0 .773-.16 1.438-.476 1.998-.385.684-.939 1.024-1.658 1.024-.348 0-.65-.078-.905-.23a2.107 2.107 0 01-.674-.666l-.347.827h-.974v-.002zm7.54-5.765v5.763H14.15V9.122h1.877zm-1.878-.759V6.711h1.877v1.652H14.15zm7.538-1.652v8.176h-1.774v-.563c-.286.26-.526.431-.72.51-.193.082-.437.121-.732.121-.587 0-1.044-.27-1.368-.814-.295-.49-.44-1.13-.44-1.92 0-.926.135-1.65.406-2.168.325-.621.832-.93 1.52-.93.48 0 .89.167 1.229.505V6.71h1.88zm-1.879 6.705V10.42c-.124-.175-.32-.265-.591-.265-.249 0-.413.15-.495.448-.08.298-.122.735-.122 1.31 0 .596.008.976.023 1.136.055.536.221.804.499.804.305 0 .532-.146.686-.437z" fill="url(#paint4_linear)"/><path fill-rule="evenodd" clip-rule="evenodd" d="M8.489 11.697c.585.1 1.214.188 1.879.26v1.08c0 .246.057.431.168.556.114.127.261.19.446.19.24 0 .398-.121.476-.363.078-.242.116-.648.116-1.223v-.129a43.09 43.09 0 001.942.102c-.027.673-.185 1.26-.469 1.76-.385.684-.939 1.024-1.658 1.024-.348 0-.65-.077-.905-.23a2.107 2.107 0 01-.674-.666l-.347.827h-.974v-3.188zm5.66.488a44.685 44.685 0 001.878-.009v2.709H14.15v-2.7zm2.505-.025a42.479 42.479 0 001.95-.121c0 .525.008.86.022 1.01.055.536.221.805.499.805.3 0 .53-.146.684-.438v-1.5c.67-.08 1.299-.175 1.88-.288v3.257h-1.775v-.563c-.286.26-.526.432-.72.51-.193.082-.437.122-.732.122-.587 0-1.044-.271-1.368-.815-.295-.49-.44-1.13-.44-1.919v-.06z" fill="url(#paint5_linear)"/><defs><linearGradient id="paint1_linear" x1="25.358" y1="18.94" x2="2.67" y2="8.253" gradientUnits="userSpaceOnUse"><stop stop-color="#1E3464"/><stop offset=".6" stop-color="#29ABE2"/><stop offset="1" stop-color="#C6E8F9"/></linearGradient><linearGradient id="paint2_linear" x1="19.317" y1="17.067" x2="11.861" y2="4.023" gradientUnits="userSpaceOnUse"><stop stop-color="#A6A8AC"/><stop offset=".8" stop-color="#fff"/><stop offset="1" stop-color="#fff"/></linearGradient><linearGradient id="paint3_linear" x1="19.571" y1="19.788" x2="12.093" y2="6.705" gradientUnits="userSpaceOnUse"><stop stop-color="#A6A8AC"/><stop offset=".7" stop-color="#fff"/><stop offset="1" stop-color="#fff"/></linearGradient><linearGradient id="paint4_linear" x1="15.089" y1="14.955" x2="15.089" y2="6.711" gradientUnits="userSpaceOnUse"><stop stop-color="#4F121B"/><stop offset=".022" stop-color="#56151D"/><stop offset=".11" stop-color="#721C22"/><stop offset=".205" stop-color="#8B2124"/><stop offset=".308" stop-color="#A22226"/><stop offset=".422" stop-color="#B42226"/><stop offset=".553" stop-color="#C12227"/><stop offset=".714" stop-color="#C92127"/><stop offset="1" stop-color="#CB2027"/></linearGradient><linearGradient id="paint5_linear" x1="15.089" y1="11.241" x2="15.089" y2="15.344" gradientUnits="userSpaceOnUse"><stop stop-color="#4F121B"/><stop offset=".022" stop-color="#56151D"/><stop offset=".11" stop-color="#721C22"/><stop offset=".205" stop-color="#8B2124"/><stop offset=".308" stop-color="#A22226"/><stop offset=".422" stop-color="#B42226"/><stop offset=".553" stop-color="#C12227"/><stop offset=".714" stop-color="#C92127"/><stop offset="1" stop-color="#CB2027"/></linearGradient><radialGradient id="paint0_radial" cx="0" cy="0" r="1" gradientUnits="userSpaceOnUse" gradientTransform="matrix(14.3599 0 0 14.2163 9.6 11.6)"><stop stop-color="#8ED7F7"/><stop offset=".53" stop-color="#29ABE2"/><stop offset=".89" stop-color="#1E3464"/><stop offset="1" stop-color="#1E3464"/></radialGradient></defs></svg>