<svg width="286" height="47" fill="none" xmlns="http://www.w3.org/2000/svg"><path d="M257.341 7.902V39.12h7.26V20.408l14.616 18.712H286V7.902h-7.26v18.043L264.601 7.902h-7.26zm-4.107 0h-7.738v31.123h7.738V7.902zm-36.015 0h-8.311l12.61 31.218h8.788l12.801-31.218h-8.024l-8.98 23.103-8.884-23.103z" fill="#078E3E"/><path d="M99.813 8.093h-6.878V39.12h23.787v-6.014H99.813V8.093zm26.653 18.139h11.463v-5.537h-11.463v-6.779h17.291V8.093h-24.265V39.12h24.456v-5.823h-17.482v-7.065zm32.671-18.139L146.432 39.12h7.164l2.962-7.733h13.087l2.962 7.733h7.451L167.544 8.093h-8.407zm-.669 17.948l4.586-12.03 4.49 12.03h-9.076zm44.421.573l.478-.191c1.719-.764 3.152-1.91 4.108-3.437 1.05-1.527 1.528-3.246 1.528-5.155 0-1.91-.478-3.533-1.433-4.965a8.923 8.923 0 00-3.821-3.437c-1.624-.859-3.535-1.24-5.636-1.24h-15.858v31.027h6.878V27.568h6.783l6.018 11.648h7.642l-6.687-12.602zm-2.197-5.728c-.764.763-1.911 1.145-3.248 1.145h-8.215v-8.21h8.215c1.337 0 2.388.382 3.248 1.146.86.763 1.337 1.718 1.337 2.96 0 1.24-.477 2.195-1.337 2.959zM82.37 32.577c-1.322.662-2.926 1.04-4.342 1.04-1.32 0-2.642-.283-3.869-.756-1.132-.473-2.17-1.23-3.02-2.175a10.023 10.023 0 01-2.076-3.12 11.526 11.526 0 01-.755-4.066c0-1.513.283-2.742.755-4.066.472-1.135 1.132-2.27 1.982-3.12.85-.851 1.793-1.608 3.02-2.175 1.227-.473 2.454-.756 3.775-.756 1.415 0 2.925.378 4.246 1.04l4.247-4.444c-.471-.284-.943-.662-1.604-.851-2.17-1.04-4.436-1.608-6.89-1.608-2.17 0-4.246.378-6.134 1.23-1.981.85-3.586 1.89-5.001 3.403-1.416 1.419-2.548 3.12-3.398 5.012-.85 1.89-1.227 4.066-1.227 6.335 0 2.27.378 4.255 1.227 6.335.755 1.891 1.982 3.688 3.398 5.012a15.635 15.635 0 005.001 3.404c1.982.85 3.964 1.23 6.323 1.23 2.265 0 4.625-.474 6.795-1.514 2.171-1.04 3.964-2.364 5.474-4.16l-3.964-4.16a20.244 20.244 0 01-3.963 2.93z" fill="#202020"/><path d="M23.566 47C36.58 47 47.03 36.43 47.03 23.5S36.476 0 23.566 0C10.656 0 0 10.467 0 23.5S10.553 47 23.566 47z" fill="#078E3E"/><path d="M28.241 31.832a9.802 9.802 0 01-4.366 1.007c-1.427 0-2.686-.252-3.862-.756-1.176-.503-2.183-1.174-3.023-2.013-.84-.84-1.595-1.93-2.015-3.021a10.196 10.196 0 01-.755-3.86c0-1.427.251-2.685.755-3.86.42-1.175 1.092-2.182 2.015-3.105a7.379 7.379 0 013.023-2.014c1.175-.503 2.519-.755 3.778-.755 1.512 0 2.855.336 4.198.923l4.283-4.28c-.504-.25-1.008-.587-1.596-.754-2.267-1.007-4.534-1.51-6.969-1.51-2.183 0-4.282.419-6.213 1.174a14.522 14.522 0 00-5.038 3.273c-1.427 1.342-2.519 3.02-3.358 4.95-.84 1.846-1.26 3.944-1.26 6.042 0 2.181.42 4.195 1.176 6.041a14.052 14.052 0 003.358 4.867c1.428 1.343 3.107 2.434 5.038 3.273a17.156 17.156 0 006.297 1.174c2.351 0 4.618-.503 6.802-1.51 2.182-1.007 4.03-2.35 5.457-4.028l-4.03-4.027a12.926 12.926 0 01-3.695 2.769z" fill="#fff"/><path fill-rule="evenodd" clip-rule="evenodd" d="M34.798 12.65a5.391 5.391 0 010 7.624l-8.726 8.72-7.033-7.028 3.816-3.812 3.217 3.215 8.726-8.719z" fill="#96FFAD"/></svg>