<svg width="274" height="45" fill="none" xmlns="http://www.w3.org/2000/svg"><path d="M246.544 7.567v29.89h6.955V19.54l14.003 17.916H274V7.567h-6.956v17.276L253.499 7.567h-6.955zm-3.936 0h-7.413v29.798h7.413V7.567zm-34.503 0h-7.962l12.08 29.89h8.42l12.264-29.89h-7.688l-8.603 22.12-8.511-22.12zM95.626 7.75h-6.59v29.707h22.789v-5.759h-16.2V7.75zm25.534 17.367h10.982v-5.301H121.16v-6.49h16.565V7.75h-23.246v29.707h23.429v-5.576H121.16v-6.764zm31.3-17.367l-12.172 29.707h6.864l2.837-7.404h12.538l2.838 7.404h7.138L160.514 7.75h-8.054zm-.641 17.184l4.393-11.517 4.302 11.517h-8.695zm42.558.548l.457-.183c1.648-.731 3.021-1.828 3.936-3.29 1.007-1.463 1.464-3.108 1.464-4.936 0-1.829-.457-3.382-1.373-4.754a8.545 8.545 0 00-3.66-3.29c-1.556-.823-3.387-1.188-5.4-1.188h-15.193v29.707h6.59V26.396h6.498l5.766 11.152h7.321l-6.406-12.066zm-2.105-5.484c-.732.73-1.831 1.096-3.112 1.096h-7.871v-7.86h7.871c1.281 0 2.288.365 3.112 1.097.824.73 1.281 1.645 1.281 2.833 0 1.188-.457 2.102-1.281 2.834zM78.914 31.192c-1.266.634-2.803.996-4.16.996-1.265 0-2.53-.271-3.706-.724a8.165 8.165 0 01-2.894-2.082 9.595 9.595 0 01-1.989-2.988 11.03 11.03 0 01-.723-3.893c0-1.448.271-2.625.723-3.893.452-1.086 1.085-2.172 1.899-2.987.814-.815 1.718-1.54 2.893-2.082 1.176-.453 2.351-.725 3.617-.725 1.356 0 2.803.362 4.069.996l4.068-4.255c-.452-.272-.904-.634-1.537-.815-2.08-.996-4.25-1.539-6.6-1.539-2.08 0-4.069.362-5.877 1.177-1.899.815-3.436 1.81-4.792 3.26-1.356 1.357-2.441 2.987-3.255 4.798-.814 1.81-1.175 3.892-1.175 6.065 0 2.173.361 4.074 1.175 6.066.723 1.81 1.899 3.53 3.255 4.798a14.979 14.979 0 004.792 3.26c1.899.814 3.797 1.176 6.058 1.176 2.17 0 4.43-.452 6.51-1.448s3.797-2.264 5.244-3.984l-3.798-3.983a19.396 19.396 0 01-3.797 2.806z" fill="#fff"/><path fill-rule="evenodd" clip-rule="evenodd" d="M45.057 22.5c0 12.38-10.013 22.5-22.48 22.5C10.111 45 0 34.978 0 22.5S10.209 0 22.577 0c12.369 0 22.48 10.12 22.48 22.5zm-22.184 8.941a9.397 9.397 0 004.183-.964 12.385 12.385 0 003.54-2.651l3.86 3.856c-1.367 1.607-3.136 2.892-5.228 3.856a15.396 15.396 0 01-6.516 1.446c-2.171 0-4.182-.401-6.032-1.124-1.85-.804-3.46-1.848-4.827-3.134a13.453 13.453 0 01-3.218-4.66 15.131 15.131 0 01-1.126-5.784c0-2.008.402-4.017 1.207-5.784.804-1.848 1.85-3.455 3.218-4.74a13.915 13.915 0 014.826-3.134A16.336 16.336 0 0122.712 7.5c2.333 0 4.505.482 6.677 1.446.405.115.767.313 1.119.505.137.076.273.15.41.218l-4.103 4.097c-1.287-.562-2.574-.883-4.022-.883-1.207 0-2.494.24-3.62.723a7.07 7.07 0 00-2.896 1.928c-.885.883-1.528 1.847-1.93 2.972-.483 1.125-.724 2.33-.724 3.696 0 1.285.241 2.49.724 3.695.402 1.045 1.126 2.09 1.93 2.893.805.803 1.77 1.446 2.896 1.928s2.333.723 3.7.723z" fill="#fff"/><path fill-rule="evenodd" clip-rule="evenodd" d="M33.338 12.112a5.163 5.163 0 011.514 3.65 5.156 5.156 0 01-1.514 3.65l-8.36 8.348-6.738-6.729 3.656-3.65 3.082 3.079 8.36-8.348z" fill="#96FFAD"/><path fill-rule="evenodd" clip-rule="evenodd" d="M33.328 12.125a5.166 5.166 0 01.006 7.306L24.978 27.8l-6.738-6.73 3.656-3.649 3.082 3.079 8.351-8.374z" fill="#078E3E"/></svg>