<svg width="274" height="46" fill="none" xmlns="http://www.w3.org/2000/svg"><path d="M246.544 7.575v29.928h6.955V19.565l14.003 17.938H274V7.575h-6.956v17.298L253.499 7.575h-6.955zm-3.936 0h-7.413v29.836h7.413V7.575zm-34.503 0h-7.963l12.081 29.928h8.42l12.264-29.928h-7.688l-8.603 22.148-8.511-22.148z" fill="#078E3E"/><path d="M95.626 7.758h-6.59v29.744h22.789v-5.765h-16.2V7.758zm25.534 17.389h10.982V19.84H121.16v-6.5h16.565V7.758h-23.246v29.744h23.429V31.92H121.16v-6.773zm31.3-17.389l-12.172 29.744h6.864l2.837-7.413h12.538l2.837 7.413h7.139L160.514 7.758h-8.054zm-.641 17.206l4.393-11.532 4.302 11.532h-8.695zm42.558.549l.457-.183c1.648-.732 3.02-1.83 3.936-3.295 1.006-1.464 1.464-3.111 1.464-4.942 0-1.83-.458-3.386-1.373-4.759A8.55 8.55 0 00195.2 9.04c-1.556-.823-3.386-1.19-5.399-1.19h-15.193v29.745h6.59V26.428h6.498l5.765 11.166h7.322l-6.406-12.08zm-2.105-5.491c-.733.732-1.831 1.098-3.112 1.098h-7.871v-7.87h7.871c1.281 0 2.288.365 3.112 1.098.823.732 1.281 1.647 1.281 2.837 0 1.19-.458 2.105-1.281 2.837zM78.914 31.23c-1.266.635-2.803.997-4.16.997-1.265 0-2.531-.271-3.706-.725-1.085-.453-2.08-1.178-2.894-2.085a9.607 9.607 0 01-1.989-2.99 11.055 11.055 0 01-.723-3.899c0-1.45.271-2.628.723-3.897.452-1.088 1.085-2.176 1.899-2.992.814-.816 1.718-1.54 2.893-2.085 1.176-.453 2.351-.725 3.617-.725 1.356 0 2.803.363 4.069.997l4.068-4.26c-.452-.272-.904-.635-1.537-.816-2.08-.997-4.25-1.54-6.6-1.54-2.08 0-4.069.362-5.877 1.177-1.899.816-3.436 1.813-4.792 3.264-1.356 1.36-2.441 2.991-3.255 4.804-.814 1.813-1.175 3.898-1.175 6.073 0 2.176.361 4.08 1.175 6.074.723 1.813 1.899 3.535 3.255 4.804a14.978 14.978 0 004.792 3.263c1.899.816 3.797 1.178 6.058 1.178 2.17 0 4.43-.453 6.51-1.45 2.079-.997 3.797-2.266 5.243-3.988l-3.797-3.989a19.397 19.397 0 01-3.797 2.81z" fill="#fff"/><path d="M22.577 45.056c12.467 0 22.48-10.132 22.48-22.528C45.056 10.133 34.945 0 22.576 0 10.21 0 0 10.034 0 22.528c0 12.494 10.11 22.529 22.577 22.529z" fill="#078E3E"/><path d="M27.056 30.516a9.387 9.387 0 01-4.182.965c-1.368 0-2.575-.242-3.7-.724-1.127-.483-2.092-1.126-2.896-1.93-.805-.805-1.529-1.85-1.931-2.897a9.78 9.78 0 01-.724-3.7c0-1.367.241-2.574.724-3.7.402-1.126 1.046-2.092 1.93-2.976a7.07 7.07 0 012.896-1.931c1.127-.483 2.414-.724 3.62-.724 1.448 0 2.735.322 4.022.885l4.103-4.103c-.483-.24-.966-.563-1.529-.724-2.172-.965-4.343-1.447-6.676-1.447-2.092 0-4.103.402-5.953 1.126a13.911 13.911 0 00-4.826 3.137c-1.368 1.287-2.414 2.896-3.218 4.746-.804 1.77-1.207 3.78-1.207 5.792 0 2.091.403 4.022 1.127 5.791a13.471 13.471 0 003.217 4.666c1.368 1.287 2.976 2.333 4.827 3.137a16.426 16.426 0 006.033 1.126c2.252 0 4.424-.482 6.515-1.448 2.092-.965 3.862-2.252 5.23-3.86l-3.862-3.862a12.386 12.386 0 01-3.54 2.655z" fill="#fff"/><path fill-rule="evenodd" clip-rule="evenodd" d="M33.338 12.127a5.166 5.166 0 010 7.31l-8.36 8.358-6.738-6.737 3.656-3.655 3.082 3.082 8.36-8.358z" fill="#96FFAD"/></svg>