<svg width="30" height="30" fill="none" xmlns="http://www.w3.org/2000/svg"><circle cx="15" cy="15" r="15" fill="#3A844A"/><path fill-rule="evenodd" clip-rule="evenodd" d="M18.89 21.774a7.754 7.754 0 01-3.41.765c-1.08 0-2.085-.188-3.012-.565a8.04 8.04 0 01-2.383-1.598 7.66 7.66 0 01-1.59-2.364 7.947 7.947 0 01-.562-2.995c0-1.088.187-2.086.563-2.996a7.128 7.128 0 011.556-2.397 6.918 6.918 0 012.35-1.598 7.356 7.356 0 012.946-.599c1.157 0 2.255.243 3.296.729l3.32-3.338c-.387-.223-.793-.43-1.22-.62C19.002 3.4 17.203 3 15.348 3c-1.721 0-3.343.31-4.866.932-1.5.621-2.803 1.465-3.907 2.53C5.472 7.527 4.6 8.803 3.96 10.29 3.32 11.755 3 13.33 3 15.017c0 1.686.309 3.262.927 4.726a11.751 11.751 0 002.615 3.795c1.104 1.065 2.406 1.909 3.907 2.53 1.523.621 3.156.932 4.9.932 1.81 0 3.564-.388 5.263-1.165 1.722-.777 3.134-1.82 4.238-3.129l-3.145-3.129c-.817.954-1.755 1.686-2.814 2.197z" fill="url(#paint0_angular)"/><path fill-rule="evenodd" clip-rule="evenodd" d="M18.89 21.774a7.754 7.754 0 01-3.41.765c-1.08 0-2.085-.188-3.012-.565a8.04 8.04 0 01-2.383-1.598 7.66 7.66 0 01-1.59-2.364 7.947 7.947 0 01-.562-2.995c0-1.088.187-2.086.563-2.996a7.128 7.128 0 011.556-2.397 6.918 6.918 0 012.35-1.598 7.356 7.356 0 012.946-.599c1.157 0 2.255.243 3.296.729l3.32-3.338c-.387-.223-.793-.43-1.22-.62C19.002 3.4 17.203 3 15.348 3c-1.721 0-3.343.31-4.866.932-1.5.621-2.803 1.465-3.907 2.53C5.472 7.527 4.6 8.803 3.96 10.29 3.32 11.755 3 13.33 3 15.017c0 1.686.309 3.262.927 4.726a11.751 11.751 0 002.615 3.795c1.104 1.065 2.406 1.909 3.907 2.53 1.523.621 3.156.932 4.9.932 1.81 0 3.564-.388 5.263-1.165 1.722-.777 3.134-1.82 4.238-3.129l-3.145-3.129c-.817.954-1.755 1.686-2.814 2.197z" fill="url(#paint1_angular)"/><path fill-rule="evenodd" clip-rule="evenodd" d="M23.655 5.957a4.729 4.729 0 010 6.688l-7.65 7.649-6.165-6.165 3.345-3.344 2.82 2.82 7.65-7.648z" fill="#96FFAD"/><mask id="a" style="mask-type:alpha" maskUnits="userSpaceOnUse" x="9" y="5" width="17" height="16"><path fill-rule="evenodd" clip-rule="evenodd" d="M23.646 5.97a4.736 4.736 0 01.005 6.694l-7.646 7.667-6.165-6.165 3.345-3.344 2.82 2.821 7.642-7.672z" fill="#fff"/></mask><g mask="url(#a)"><path opacity=".2" d="M11.751 17.66l4.257-4.066L13.5 10.5h-.75L9 14.25l2.751 3.41z" fill="url(#paint2_linear)"/></g><defs><radialGradient id="paint0_angular" cx="0" cy="0" r="1" gradientUnits="userSpaceOnUse" gradientTransform="matrix(9.15722 -9.73148 10.07741 9.48273 13.991 15)"><stop offset=".243" stop-color="#2158F5"/><stop offset="1" stop-color="#01A553"/></radialGradient><radialGradient id="paint1_angular" cx="0" cy="0" r="1" gradientUnits="userSpaceOnUse" gradientTransform="matrix(9.15722 -9.73148 10.07741 9.48273 13.991 15)"><stop offset=".243" stop-color="#fff"/><stop offset="1" stop-color="#fff"/></radialGradient><linearGradient id="paint2_linear" x1="14.589" y1="15.058" x2="11.988" y2="11.984" gradientUnits="userSpaceOnUse"><stop/><stop offset="1" stop-opacity="0"/></linearGradient></defs></svg>