<svg width="89" height="24" fill="none" xmlns="http://www.w3.org/2000/svg"><circle cx="12" cy="12" r="12" fill="#3A844A"/><path fill-rule="evenodd" clip-rule="evenodd" d="M15.112 17.42a6.202 6.202 0 01-2.728.612c-.865 0-1.668-.15-2.41-.453a6.432 6.432 0 01-1.906-1.278 6.128 6.128 0 01-1.272-1.89 6.358 6.358 0 01-.45-2.397c0-.87.15-1.67.45-2.397.3-.746.715-1.385 1.245-1.917a5.534 5.534 0 011.88-1.279 5.893 5.893 0 012.358-.479 6.15 6.15 0 012.636.583l2.656-2.67c-.31-.179-.635-.344-.976-.496A10.256 10.256 0 0012.28 2.4a10.21 10.21 0 00-3.894.746A9.902 9.902 0 005.26 5.17a9.328 9.328 0 00-2.092 3.062 9.344 9.344 0 00-.768 3.782c0 1.349.247 2.61.741 3.781a9.4 9.4 0 002.093 3.036 9.9 9.9 0 003.125 2.024c1.218.497 2.525.745 3.92.745 1.447 0 2.851-.31 4.21-.932 1.378-.621 2.508-1.455 3.39-2.503l-2.515-2.503a6.88 6.88 0 01-2.252 1.757z" fill="url(#a)"/><path fill-rule="evenodd" clip-rule="evenodd" d="M15.112 17.42a6.202 6.202 0 01-2.728.612c-.865 0-1.668-.15-2.41-.453a6.432 6.432 0 01-1.906-1.278 6.128 6.128 0 01-1.272-1.89 6.358 6.358 0 01-.45-2.397c0-.87.15-1.67.45-2.397.3-.746.715-1.385 1.245-1.917a5.534 5.534 0 011.88-1.279 5.893 5.893 0 012.358-.479 6.15 6.15 0 012.636.583l2.656-2.67c-.31-.179-.635-.344-.976-.496A10.256 10.256 0 0012.28 2.4a10.21 10.21 0 00-3.894.746A9.902 9.902 0 005.26 5.17a9.328 9.328 0 00-2.092 3.062 9.344 9.344 0 00-.768 3.782c0 1.349.247 2.61.741 3.781a9.4 9.4 0 002.093 3.036 9.9 9.9 0 003.125 2.024c1.218.497 2.525.745 3.92.745 1.447 0 2.851-.31 4.21-.932 1.378-.621 2.508-1.455 3.39-2.503l-2.515-2.503a6.88 6.88 0 01-2.252 1.757z" fill="url(#b)"/><path fill-rule="evenodd" clip-rule="evenodd" d="M18.924 4.766a3.783 3.783 0 010 5.35l-6.12 6.119-4.931-4.932 2.675-2.675 2.257 2.256 6.12-6.118z" fill="#96FFAD"/><mask id="a" style="mask-type:alpha" maskUnits="userSpaceOnUse" x="7" y="4" width="14" height="13"><path fill-rule="evenodd" clip-rule="evenodd" d="M18.918 4.775a3.789 3.789 0 01.003 5.355l-6.116 6.134-4.932-4.932 2.675-2.675 2.257 2.256 6.113-6.138z" fill="#fff"/></mask><g mask="url(#a)"><path opacity=".2" d="M9.402 14.128l3.405-3.252L10.8 8.4h-.6l-3 3 2.2 2.728z" fill="url(#d)"/></g><path d="M40.046 16.59c-.738.383-1.657.574-2.755.574-1.422 0-2.561-.449-3.418-1.347-.857-.897-1.285-2.075-1.285-3.534 0-1.567.48-2.834 1.442-3.8.966-.967 2.185-1.45 3.657-1.45.948 0 1.735.135 2.359.404V9.05a4.209 4.209 0 00-2.188-.588c-1.061 0-1.923.34-2.584 1.018-.656.68-.984 1.586-.984 2.721 0 1.08.308 1.942.923 2.584.615.638 1.424.957 2.427.957.925 0 1.727-.219 2.406-.656v1.504zm3.274.41h-1.593V6.637h1.593V17zm7.998-3.07h-4.771c.018.648.216 1.147.595 1.498.382.35.906.526 1.572.526a3.46 3.46 0 002.058-.67v1.278c-.639.401-1.482.602-2.53.602-1.03 0-1.839-.317-2.427-.95-.583-.638-.875-1.534-.875-2.687 0-1.089.322-1.975.964-2.659.647-.688 1.45-1.032 2.406-1.032.958 0 1.698.308 2.222.923s.786 1.47.786 2.563v.609zm-1.53-1.12c-.005-.57-.14-1.012-.404-1.327-.264-.319-.63-.478-1.094-.478a1.55 1.55 0 00-1.162.499c-.315.333-.508.768-.581 1.306h3.24zM58.201 17h-1.538v-1.094h-.027c-.483.839-1.192 1.258-2.126 1.258-.688 0-1.228-.187-1.62-.56-.388-.374-.581-.869-.581-1.484 0-1.321.76-2.092 2.283-2.31l2.078-.294c0-.998-.474-1.497-1.422-1.497-.834 0-1.586.287-2.256.86v-1.387c.738-.437 1.59-.656 2.557-.656 1.768 0 2.652.87 2.652 2.611V17zm-1.531-3.438l-1.47.205c-.456.059-.8.17-1.032.335-.228.16-.342.442-.342.847 0 .296.105.54.315.732.214.187.499.28.854.28.483 0 .882-.169 1.196-.506.32-.342.479-.77.479-1.285v-.608zm7.533-2.051c-.191-.15-.467-.226-.827-.226-.47 0-.861.212-1.176.636-.314.424-.471 1-.471 1.73V17h-1.586v-7h1.586v1.442h.027c.155-.492.392-.875.71-1.148a1.618 1.618 0 011.08-.417c.288 0 .507.043.657.13v1.504zm8.983-4.314L69.665 17h-1.818l-3.46-9.803h1.778l2.42 7.438c.077.237.137.513.178.827h.027c.032-.26.098-.54.198-.84l2.475-7.425h1.722zm1.92 1.333a.966.966 0 01-.67-.253.837.837 0 01-.273-.642c0-.26.091-.476.273-.65a.951.951 0 01.67-.26.97.97 0 01.684.26.85.85 0 01.28.65.847.847 0 01-.28.636.969.969 0 01-.684.26zm.787 8.47h-1.586v-7h1.586v7zm8.312 0H82.62v-3.944c0-1.308-.462-1.962-1.388-1.962a1.51 1.51 0 00-1.196.547c-.314.36-.472.815-.472 1.367V17h-1.592v-7h1.593v1.162h.027c.524-.884 1.28-1.326 2.27-1.326.76 0 1.342.248 1.743.745.4.492.601 1.206.601 2.14V17z" fill="#3A844A"/><defs><radialGradient id="a" cx="0" cy="0" r="1" gradientUnits="userSpaceOnUse" gradientTransform="rotate(-46.741 19.481 -6.95) scale(10.69 11.07)"><stop offset=".243" stop-color="#2158F5"/><stop offset="1" stop-color="#01A553"/></radialGradient><radialGradient id="b" cx="0" cy="0" r="1" gradientUnits="userSpaceOnUse" gradientTransform="rotate(-46.741 19.481 -6.95) scale(10.69 11.07)"><stop offset=".243" stop-color="#fff"/><stop offset="1" stop-color="#fff"/></radialGradient><linearGradient id="d" x1="11.672" y1="12.047" x2="9.591" y2="9.588" gradientUnits="userSpaceOnUse"><stop/><stop offset="1" stop-opacity="0"/></linearGradient></defs></svg>