<svg width="91" height="19" fill="none" xmlns="http://www.w3.org/2000/svg"><path d="M61.369 0l2.902 18.953h-4.42L56.957 0h4.413z" fill="#00A651"/><path d="M75.65 0l-3.22 18.953h-4.364L71.287 0h4.364z" fill="url(#paint0_linear)"/><path d="M83.401 0l2.896 18.953h-4.412L78.982 0h4.42z" fill="#00A651"/><path d="M64.575 0h4.392L66.07 18.953h-1.544l-1.344-8.428L64.575 0z" fill="url(#paint1_linear)"/><path d="M86.615 0H91l-2.895 18.953H86.56l-1.274-8.428L86.616 0z" fill="url(#paint2_linear)"/><path d="M86.615 0H91l-2.895 18.953H86.56l-1.274-8.428L86.616 0z" fill="url(#paint3_linear)"/><path d="M78.713 18.953H74.32L77.224 0h1.537l1.295 8.414-1.343 10.539z" fill="url(#paint4_linear)"/><path d="M55.336 5.096c.124-2.32-.95-4.417-3.387-4.98a4.633 4.633 0 00-.86-.116l1.386 4.207c.137.468.137.964 0 1.432a3.712 3.712 0 01-1.22 2.402l.811 2.443a7.279 7.279 0 002.192-2.18 7.116 7.116 0 001.07-2.875l.008-.333zM7.28 2.524a3.541 3.541 0 00-1.902.904 3.422 3.422 0 00-1.028 1.81l-1.455 8.238c-.087.404-.065.822.063 1.215l1.385 4.255a4.525 4.525 0 01-3.677-2.113 4.361 4.361 0 01-.541-3.35l1.461-8.21A6.884 6.884 0 013.28 1.978 7.098 7.098 0 016.455 0l.825 2.524zm4.384 2.905h-2.77a2.38 2.38 0 00-.056-1.222L7.453 0c.29.012.577.05.859.115a4.54 4.54 0 011.605.711c.482.339.891.767 1.203 1.261a4.317 4.317 0 01.55 3.342h-.006zm-4.266 8.34h2.77a6.791 6.791 0 01-1.692 3.248 7.003 7.003 0 01-3.156 1.936l-.845-2.504a3.493 3.493 0 001.905-.899 3.374 3.374 0 001.018-1.816v.034zm8.533 5.177h-5.223L14.116 0h2.77l-2.922 16.231h1.053l.914 2.715zm3.463 0h-2.486l-.894-2.715h3.823l-.443 2.715zm6.317 0h-5.264L23.862 0h3.844l.893 2.714h-2.451l-.97 5.429h1.053l.9 2.714h-2.445l-.97 5.429h1.053l.942 2.66zm3.394 0h-2.494l-.9-2.715h3.824l-.43 2.715zm1.372-8.089h-2.41l-.894-2.714h3.823l-.52 2.714zm1.489-8.143h-2.438L28.628 0h3.823l-.485 2.714zm5.811 12.153h-3.145l-1.62 4.072h-2.84L37.244 1.22l.249 6.467-1.808 4.526h1.967l.125 2.653zm3.983 4.072h-2.826L38.186 0h2.826l.748 18.939zm12.142 0h-3.103l-2.667-8.082H47.1L45.638 19h-2.77l3.394-19h3.823l.894 2.714H48.54l-.97 5.429h2.77l3.56 10.796z" fill="#828282"/><defs><linearGradient id="paint0_linear" x1="68.066" y1="9.48" x2="75.651" y2="9.48" gradientUnits="userSpaceOnUse"><stop stop-color="#00A651"/><stop offset=".14" stop-color="#00A651"/><stop offset="1" stop-color="#00A651"/></linearGradient><linearGradient id="paint1_linear" x1="62.449" y1="10.124" x2="70.888" y2="8.135" gradientUnits="userSpaceOnUse"><stop stop-color="#005B30"/><stop offset=".04" stop-color="#006936"/><stop offset=".14" stop-color="#007F40"/><stop offset=".25" stop-color="#009148"/><stop offset=".38" stop-color="#009D4D"/><stop offset=".56" stop-color="#00A450"/><stop offset="1" stop-color="#00A651"/></linearGradient><linearGradient id="paint2_linear" x1="782.265" y1="285.614" x2="855.404" y2="290.707" gradientUnits="userSpaceOnUse"><stop stop-color="#005B30"/><stop offset=".04" stop-color="#006936"/><stop offset=".14" stop-color="#007F40"/><stop offset=".25" stop-color="#009148"/><stop offset=".38" stop-color="#009D4D"/><stop offset=".56" stop-color="#00A450"/><stop offset="1" stop-color="#00A651"/></linearGradient><linearGradient id="paint3_linear" x1="84.56" y1="10.124" x2="92.909" y2="8.18" gradientUnits="userSpaceOnUse"><stop stop-color="#005B30"/><stop offset=".04" stop-color="#006936"/><stop offset=".14" stop-color="#007F40"/><stop offset=".25" stop-color="#009148"/><stop offset=".38" stop-color="#009D4D"/><stop offset=".56" stop-color="#00A450"/><stop offset="1" stop-color="#00A651"/></linearGradient><linearGradient id="paint4_linear" x1="83" y1="3.5" x2="71.083" y2="19.063" gradientUnits="userSpaceOnUse"><stop stop-color="#005B30"/><stop offset=".04" stop-color="#006936"/><stop offset=".14" stop-color="#007F40"/><stop offset=".25" stop-color="#009148"/><stop offset=".38" stop-color="#009D4D"/><stop offset=".56" stop-color="#00A450"/><stop offset="1" stop-color="#00A651"/></linearGradient></defs></svg>