<svg width="194" height="48" fill="none" xmlns="http://www.w3.org/2000/svg"><g clip-path="url(#clip0)"><path d="M67.923 35.431c-.16.113-.346.183-.54.202l-.913.157c-.338.061-.752.114-1.24.158a49.72 49.72 0 01-1.802.124h-2.614c-1.06.005-2.118-.09-3.16-.282a6.288 6.288 0 01-2.523-.954 5.26 5.26 0 01-1.713-2.248 8.735 8.735 0 01-.632-3.584V17.026a8.734 8.734 0 01.632-3.54 5.273 5.273 0 011.713-2.248 6.296 6.296 0 012.535-1.056 16.947 16.947 0 013.177-.236h2.615c.603-.007 1.206.035 1.802.125.496.044.909.097 1.24.157l.912.158c.195.019.38.089.54.202a.674.674 0 01.159.517v2.248a.707.707 0 01-.688.686H60.34a2.914 2.914 0 00-2.13.619 3.365 3.365 0 00-.607 2.348v3.72h9.374a.71.71 0 01.688.685v2.483a.707.707 0 01-.688.686h-9.376v4.494c-.097.831.12 1.668.607 2.348.6.48 1.366.702 2.13.62h7.06a.71.71 0 01.688.685v2.248a.674.674 0 01-.163.456zm18.559-.265a.707.707 0 01-.688.686h-2.95a.711.711 0 01-.688-.686v-.556c-.76.463-1.57.84-2.415 1.123a7.907 7.907 0 01-2.457.393c-.72 0-1.438-.078-2.14-.235a4.715 4.715 0 01-3.302-2.652 6.57 6.57 0 01-.541-2.9v-.114a6.603 6.603 0 01.463-2.585 4.497 4.497 0 011.486-1.866 7.095 7.095 0 012.626-1.123 17.005 17.005 0 013.853-.382h2.197v-1.54a2.714 2.714 0 00-.743-2.248 3.85 3.85 0 00-2.254-.556c-1.104 0-2.175.03-3.211.09-1.037.061-1.86.128-2.468.202h-.169a.869.869 0 01-.452-.101c-.113-.067-.169-.225-.169-.484v-2.224a.696.696 0 01.654-.72 33.229 33.229 0 012.501-.37 28.48 28.48 0 013.269-.169 8.647 8.647 0 015.634 1.618 6.091 6.091 0 011.95 4.967l.014 12.432zm-4.564-7.867h-2.203a8.091 8.091 0 00-1.927.185 2.974 2.974 0 00-1.173.606 1.797 1.797 0 00-.585.91 4.687 4.687 0 00-.158 1.28v.056a2.007 2.007 0 00.585 1.71c.58.332 1.249.48 1.916.425a6.45 6.45 0 001.858-.281c.586-.17 1.153-.4 1.691-.686l-.004-4.205zm21.815 3.461a5.358 5.358 0 01-.416 2.113 4.502 4.502 0 01-1.262 1.71 6.158 6.158 0 01-2.13 1.122 9.714 9.714 0 01-2.972.415H95.69a11.462 11.462 0 01-1.611-.124l-1.672-.235a11.554 11.554 0 01-1.59-.326.777.777 0 01-.653-.799v-2.039a.555.555 0 01.585-.55h.136l1.464.135 1.672.124 1.556.091h1.126a5.48 5.48 0 001.284-.124c.271-.057.525-.176.743-.348.165-.14.286-.323.35-.529a2.43 2.43 0 00.09-.652c0-.323-.125-.633-.35-.865a5.848 5.848 0 00-1.125-.9l-4.733-2.887a6.75 6.75 0 01-2.096-2.01 4.823 4.823 0 01-.929-2.721c0-3.439 2.19-5.158 6.569-5.158h1.882c.53-.003 1.059.05 1.578.158l1.386.224 1.317.258a.766.766 0 01.621.798v2.024c0 .443-.186.66-.558.652h-.186l-.981-.077a18.21 18.21 0 00-1.453-.136l-1.653-.109h-1.578a3.82 3.82 0 00-1.814.326 1.182 1.182 0 00-.574 1.123.925.925 0 00.36.72c.322.258.665.487 1.026.685l4.508 2.754a9.39 9.39 0 011.725 1.297c.401.35.753.75 1.048 1.192.251.419.423.88.507 1.36.056.43.078.864.067 1.298l-.002.01zm19.708-13.765a.491.491 0 010 .202l-5.803 20.14a16.537 16.537 0 01-.902 2.427 5.097 5.097 0 01-1.261 1.686 4.815 4.815 0 01-1.95.98c-.963.228-1.951.334-2.941.314h-.929c-.345 0-.688-.034-1.026-.102l-.946-.135a4.77 4.77 0 01-.754-.169 2.165 2.165 0 01-.507-.185.414.414 0 01-.225-.393v-2.255a.56.56 0 01.202-.45.735.735 0 01.484-.17h.945l1.126.067 1.06.067h.901a3.001 3.001 0 001.724-.426 3.146 3.146 0 001.004-1.776l.282-1.034h-.518a3.897 3.897 0 01-.801-.09 2.255 2.255 0 01-.812-.36 2.903 2.903 0 01-.766-.843 5.897 5.897 0 01-.643-1.574l-4.508-15.8a.774.774 0 010-.236c0-.37.218-.556.654-.556h3.494a.542.542 0 01.416.185c.109.123.189.269.236.426l3.493 14.037c.036.211.104.416.203.606a.317.317 0 00.282.158h.316l3.729-14.827a.947.947 0 01.236-.415.61.61 0 01.452-.168h3.437a.613.613 0 01.452.168.557.557 0 01.164.5zm22.349 18.653a.66.66 0 01-.485.202h-3.38a.712.712 0 01-.687-.686V24.612h-9.826v10.552a.708.708 0 01-.687.686h-3.386a.71.71 0 01-.688-.686V10.88a.61.61 0 01.203-.462.699.699 0 01.485-.185h3.38a.7.7 0 01.485.185.606.606 0 01.202.462v9.518h9.826V10.88a.61.61 0 01.203-.462.699.699 0 01.485-.185h3.38a.7.7 0 01.485.185.604.604 0 01.202.462v24.278a.651.651 0 01-.202.495l.005-.004zm19.15-.482a.71.71 0 01-.687.686h-2.942a.708.708 0 01-.687-.686v-.556c-.761.463-1.571.84-2.416 1.123a7.902 7.902 0 01-2.456.393c-.72 0-1.438-.078-2.141-.235a4.718 4.718 0 01-3.302-2.652 6.574 6.574 0 01-.54-2.866v-.146a6.607 6.607 0 01.462-2.585 4.497 4.497 0 011.487-1.867 7.102 7.102 0 012.625-1.123 17.019 17.019 0 013.854-.382h2.174v-1.54a2.709 2.709 0 00-.743-2.248 3.85 3.85 0 00-2.254-.555c-1.104 0-2.174.03-3.211.09s-1.842.123-2.415.186h-.17a.867.867 0 01-.451-.102c-.113-.067-.169-.225-.169-.484v-2.196a.697.697 0 01.654-.72 33.054 33.054 0 012.512-.37 28.507 28.507 0 013.269-.169 8.65 8.65 0 015.634 1.618 6.097 6.097 0 011.949 4.967l-.036 12.419zm-4.563-7.867h-2.185a8.087 8.087 0 00-1.927.185 2.972 2.972 0 00-1.126.556 1.794 1.794 0 00-.597.91 4.695 4.695 0 00-.169 1.28v.114a2.006 2.006 0 00.585 1.709 3.3 3.3 0 001.916.426 6.448 6.448 0 001.858-.282c.586-.17 1.153-.4 1.691-.686l-.046-4.212zm24.473 8.349a.66.66 0 01-.485.202h-3.177a.666.666 0 01-.485-.202.662.662 0 01-.202-.484v-.786c-.794.54-1.654.976-2.559 1.298-.929.29-1.9.426-2.873.404a7.915 7.915 0 01-2.401-.349 4.507 4.507 0 01-1.848-1.123 5.223 5.223 0 01-1.353-2.539 16.014 16.014 0 01-.383-3.742V17.093a.714.714 0 01.203-.506.64.64 0 01.485-.224h3.177a.646.646 0 01.485.224.723.723 0 01.203.506V28.33c-.014.7.039 1.4.157 2.09.08.466.305.895.643 1.226.257.211.551.372.868.472.418.117.851.17 1.284.158a4.101 4.101 0 001.026-.136 8.64 8.64 0 001.059-.348c.336-.13.663-.28.981-.45l.846-.45V17.125a.718.718 0 01.202-.506.64.64 0 01.485-.224h3.177a.64.64 0 01.485.224.714.714 0 01.203.506v18.038a.658.658 0 01-.203.484zm8.959-.022a.58.58 0 01-.463.224h-3.211a.646.646 0 01-.485-.224.715.715 0 01-.202-.495V10.295a.712.712 0 01.687-.686h3.211a.605.605 0 01.463.202.693.693 0 01.185.484v24.834a.745.745 0 01-.185.495v.002z" fill="#4C94D0"/><path d="M27.831 5.921h-1.486a.892.892 0 01-.283 0 23.18 23.18 0 00-7.887-.888h1.5c2.66-.16 5.329.141 7.887.888a.892.892 0 00.282 0" fill="#00405D"/><path d="M7.143 18.881H5.656L37.657 3.586h1.5L7.143 18.881z" fill="#004463"/><path d="M6.827 18.959H5.34a.721.721 0 00.298-.078h1.521a.723.723 0 01-.315.078" fill="#004462"/><path d="M2.445 29.108h-1.5A.982.982 0 010 28.153h1.522a.977.977 0 00.929.944m-.929-.946H0v-.606h1.5v.606" fill="#00405D"/><path d="M1.5 5.688H0v21.87h1.5V5.688z" fill="#003F5D"/><path d="M1.5 5.686H0c0-.21.058-.416.17-.595h1.502a1.12 1.12 0 00-.169.595" fill="#00405D"/><path d="M1.669 5.09h-1.5c.065-.1.15-.187.247-.257h1.5a.944.944 0 00-.247.258z" fill="#004260"/><path d="M1.916 4.833h-1.5l.102-.066A41.598 41.598 0 0117.656 0h1.5a41.39 41.39 0 00-17.14 4.776l-.102.056" fill="#004462"/><path d="M19.156 0c4.932-.02 9.816.974 14.345 2.923a.185.185 0 010 .315l-5.33 2.605a.836.836 0 01-.36.078.892.892 0 01-.282 0 23.18 23.18 0 00-7.883-.886h-.485A33.876 33.876 0 006.593 8.047a.97.97 0 00-.558.899v9.136a.83.83 0 00.788.877.723.723 0 00.316-.078L39.157 3.584a.125.125 0 01.156.155.124.124 0 01-.054.07L2.923 28.95a.836.836 0 01-.485.158.982.982 0 01-.93-.944V5.686a1.02 1.02 0 01.52-.91A41.267 41.267 0 0119.155 0z" fill="#0C648C"/><path d="M6.48 37.088H4.981a.96.96 0 01-.721-.337 21.211 21.211 0 01-2.416-3.271 1.178 1.178 0 010-1.225H3.38a1.178 1.178 0 000 1.224 21.21 21.21 0 002.378 3.272.957.957 0 00.721.337z" fill="#90330C"/><path d="M3.382 32.249H1.86a.99.99 0 01.258-.27L41.93 3.708h1.5L3.625 31.983a1 1 0 00-.236.27" fill="#94340E"/><path d="M43.427 3.708c.258 0 .371.202.225.338L7.145 36.828a.96.96 0 01-1.386-.08 21.21 21.21 0 01-2.38-3.27 1.12 1.12 0 01.283-1.496L43.427 3.708z" fill="#E25526"/><path d="M33.896 25.468h-1.5l3.877-4.339h1.5l-3.877 4.339z" fill="#004362"/><path d="M33.443 26.265h-1.486a.83.83 0 01.157-.416h1.5a.83.83 0 00-.158.438" fill="#00405D"/><path d="M33.601 25.85h-1.487c.085-.127.18-.248.283-.36h1.5a2.994 2.994 0 00-.283.36m-1.972 7.45h-1.5c.306-.308.581-.643.824-1.001h1.5a6.991 6.991 0 01-.824 1z" fill="#004260"/><path d="M32.464 32.299h-1.487c.801-1.214.901-2.585.981-6.046h1.5c-.078 3.451-.186 4.82-.981 6.046" fill="#00405D"/><path d="M20.087 42.503H18.58a.723.723 0 00.394-.124 62.498 62.498 0 002.254-1.54h1.5c-.823.584-1.6 1.123-2.254 1.54a.722.722 0 01-.394.124" fill="#004462"/><path d="M22.74 40.84h-1.5a59.111 59.111 0 003.572-2.731 36.61 36.61 0 005.307-4.765h1.5a40.88 40.88 0 01-5.308 4.765 59.112 59.112 0 01-3.571 2.732z" fill="#004260"/><path d="M9.332 38.746h-1.5L46.617 3.98h1.487L9.332 38.746z" fill="#004462"/><path d="M48.113 3.979c.203 0 .294.124.186.224L18.029 40.02a.941.941 0 00.186 1.371l1.533 1a.7.7 0 00.372.114.723.723 0 00.394-.124 63.237 63.237 0 005.836-4.263c5.116-4.248 5.319-4.776 5.33-4.818 1.566-1.63 1.713-2.652 1.802-7.043 0-.213.091-.404.438-.799l3.877-4.327c.169 0 .247 0 .247.124 0 3.62-.225 4.923-.225 7.867 0 7.868-12.699 16.183-16.553 18.556a2.145 2.145 0 01-1.125.326 2.111 2.111 0 01-1.126-.304 65.957 65.957 0 01-9.68-6.969 1.36 1.36 0 010-1.988L48.113 3.979z" fill="#0C648C"/><path d="M20.103 47.998h-1.486a2.111 2.111 0 01-1.126-.304 65.95 65.95 0 01-9.601-6.968 1.37 1.37 0 01-.225-1.753h1.464a1.369 1.369 0 00.225 1.753 65.965 65.965 0 009.679 6.968c.34.205.73.31 1.126.304" fill="#00405D"/><path d="M9.13 38.98h-1.5c.073-.094.16-.177.258-.246H9.33a1.23 1.23 0 00-.203.235" fill="#004260"/></g><defs><clipPath id="clip0"><path fill="#fff" d="M0 0h194v48H0z"/></clipPath></defs></svg>