<svg width="16" height="16" fill="none" xmlns="http://www.w3.org/2000/svg"><path fill="#fff" d="M2 2h12v12H2z"/><path fill-rule="evenodd" clip-rule="evenodd" d="M13.471 6.877l-.036.287H9.8l.066-.383c.048-.276.067-.65-.118-.868-.136-.162-.385-.243-.74-.243-1.645 0-2.373 2.059-2.529 3.148-.1.697-.025 1.213.216 1.49.168.193.426.287.79.287 1.008 0 1.468-.846 1.652-1.351l.079-.215h3.75l-.137.427c-.419 1.3-1.85 4.326-6.105 4.326-1.421 0-2.503-.416-3.215-1.238-.76-.876-1.042-2.176-.816-3.76.53-3.71 3.281-6.302 6.69-6.302 1.489 0 2.644.417 3.34 1.206.666.753.918 1.826.75 3.189zM13.281 0H2.719A2.726 2.726 0 000 2.718v10.564A2.726 2.726 0 002.718 16h10.564A2.726 2.726 0 0016 13.282V2.718A2.726 2.726 0 0013.282 0z" fill="#2468F5"/></svg>