<svg width="51" height="31" fill="none" xmlns="http://www.w3.org/2000/svg"><g clip-path="url(#clip0_1_12)" fill="#C90107"><path d="M.27 30.26h5.51L21.12.27h-5.5L.27 30.26zm41.75 0h5.45L32.39.27h-6.16v29.99h5.48V24.1h7.16l3.15 6.16zm-5.37-10.55h-4.93v-9.67l4.93 9.67zm-15.14-9.66l-4.92 9.69h4.92v-9.69zM11.25 30.27h10.28v-6.06h-7.21l-3.07 6.06zM49.09 26c.87 0 1.56.71 1.56 1.59 0 .9-.69 1.6-1.57 1.6-.87 0-1.58-.7-1.58-1.6.01-.89.71-1.59 1.59-1.59zm0 .24c-.7 0-1.28.6-1.28 1.35 0 .76.57 1.35 1.28 1.35.71.01 1.28-.6 1.28-1.34 0-.75-.57-1.36-1.28-1.36zm-.31 2.28h-.28v-1.78c.15-.02.29-.04.5-.04.27 0 .45.06.55.14.1.08.16.2.16.37 0 .23-.16.38-.35.43v.01c.16.03.26.17.3.43.04.27.09.38.11.44h-.3c-.04-.06-.08-.22-.12-.45-.04-.23-.15-.31-.38-.31h-.2v.76h.01zm0-.99h.21c.23 0 .43-.08.43-.3 0-.16-.11-.31-.43-.31-.09 0-.16.01-.21.01v.6z"/></g><defs><clipPath id="clip0_1_12"><path fill="#fff" transform="translate(.27 .27)" d="M0 0h50.38v30H0z"/></clipPath></defs></svg>