<svg xmlns="http://www.w3.org/2000/svg" viewBox="2355 9329 160 120" width="640"><path data-name="Rectangle 2403" fill="#f2f2f2" d="M2355 9329h160v120h-160z"/><g data-name="Symbol 20 – 1"><g data-name="Group 3514" opacity=".3"><path data-name="Path 9113" d="M2445.291 9404.962h-30.69c-.226 0-.226 0-.226-.226v-29.183c0-.161.032-.226.226-.226h1.031a.237.237 0 01.193.064l3.159 3.16a.032.032 0 00.032.032c-.032.064-.064.032-.129.032h-1.063c-.129 0-.161.032-.129.161v22.671c0 .226 0 .226.226.226h23.985a.537.537 0 01.355.129l3 3c.032.032.1.064.129.129-.099-.004-.099-.004-.099.031z"/><path data-name="Path 9114" d="M2439.584 9399.254a10.657 10.657 0 01-2.192.645 9.9 9.9 0 01-10.8-13.479c.064-.129.1-.129.161-.032l2.418 2.418a.2.2 0 01.064.226 6.515 6.515 0 001.386 5.288 6.254 6.254 0 003.643 2.225 6.153 6.153 0 002.547.064c.064 0 .129-.032.193.032.87.871 1.741 1.709 2.579 2.612z"/><path data-name="Path 9116" d="M2454.285 9404.962c.032.1.064.1.129.161 1.161 1.161 2.321 2.322 3.514 3.483.1.1.1.129 0 .226-.709.677-1.386 1.387-2.1 2.1-.1.1-.161.1-.258 0q-10.344-10.307-20.628-20.642l-21.857-21.865c-.1-.1-.129-.161 0-.29.679-.676 1.386-1.353 2.063-2.062.1-.1.161-.1.258 0l9.123 9.126a.414.414 0 00.322.129h.613a.293.293 0 00.226-.1c.741-1 1.515-2.032 2.257-3.031.1-.1.161-.161.29-.161h14.442a.282.282 0 01.29.161c.741 1 1.483 2 2.257 3 .1.1.161.161.29.161h11.122c.161 0 .193.032.193.193v29.217c0 .161-.064.193-.193.193-.774-.036-1.547.001-2.353.001zm-.709-14.8v-11.32c0-.161-.032-.193-.193-.193h-9.51a.35.35 0 01-.29-.129c-.741-1-1.515-2.032-2.289-3.031a.293.293 0 00-.226-.1h-11.251a.2.2 0 00-.193.1l-2.031 2.709c-.064.1-.064.129 0 .193 1.032 1 2.031 2.032 3.03 3.031a.152.152 0 00.193.032 9.7 9.7 0 016.705-.9 9.821 9.821 0 017.673 10.348 9.775 9.775 0 01-1.1 3.805c-.064.1-.032.161.032.258 2.192 2.193 4.417 4.386 6.609 6.611a.317.317 0 00.258.1h2.257c.161 0 .193-.032.193-.193.133-3.777.133-7.549.133-11.322zm-11.512-.163a6.361 6.361 0 00-.548-2.418 6.6 6.6 0 00-3.288-3.386 6.448 6.448 0 00-4.836-.29c-.1.032-.161.064-.032.161l8.188 8.191c.1.1.129.064.161-.032a7.66 7.66 0 00.355-2.226z"/></g></g></svg>