<svg version="1.1" id="Layer_1" xmlns="http://www.w3.org/2000/svg" x="0" y="0" viewBox="0 0 195.5 64.7" xml:space="preserve"><style>.st0{fill:#c4c0b2}.st1{fill:#00a651}</style><path class="st0" d="M32.3 0h163.2v64.7H32.3z"/><path class="st1" d="M131.8 19.2l4.2 27.9h-6.4l-4.2-27.9h6.4z"/><linearGradient id="SVGID_1_" gradientUnits="userSpaceOnUse" x1="141.431" y1="795.204" x2="152.381" y2="795.204" gradientTransform="translate(0 -762)"><stop offset="0" stop-color="#00a651"/><stop offset=".14" stop-color="#00a651"/><stop offset="1" stop-color="#00a651"/></linearGradient><path d="M152.4 19.2l-4.7 27.9h-6.3l4.7-27.9h6.3z" fill="url(#SVGID_1_)"/><path class="st1" d="M163.6 19.2l4.2 28h-6.4l-4.2-28z"/><linearGradient id="SVGID_2_" gradientUnits="userSpaceOnUse" x1="133.317" y1="796.163" x2="145.526" y2="793.343" gradientTransform="translate(0 -762)"><stop offset="0" stop-color="#005b30"/><stop offset=".04" stop-color="#006936"/><stop offset=".14" stop-color="#007f40"/><stop offset=".25" stop-color="#009148"/><stop offset=".38" stop-color="#009d4d"/><stop offset=".56" stop-color="#00a450"/><stop offset="1" stop-color="#00a651"/></linearGradient><path fill="url(#SVGID_2_)" d="M136.4 19.2h6.3l-4.1 28h-2.3l-1.9-12.5z"/><linearGradient id="SVGID_3_" gradientUnits="userSpaceOnUse" x1="165.127" y1="796.164" x2="177.337" y2="793.345" gradientTransform="translate(0 -762)"><stop offset="0" stop-color="#005b30"/><stop offset=".04" stop-color="#006936"/><stop offset=".14" stop-color="#007f40"/><stop offset=".25" stop-color="#009148"/><stop offset=".38" stop-color="#009d4d"/><stop offset=".56" stop-color="#00a450"/><stop offset="1" stop-color="#00a651"/></linearGradient><path fill="url(#SVGID_3_)" d="M168.2 19.2h6.3l-4.1 28h-2.3l-1.8-12.5z"/><linearGradient id="SVGID_4_" gradientUnits="userSpaceOnUse" x1="-136.023" y1="-339.918" x2="-123.814" y2="-342.738" gradientTransform="rotate(180 11.926 -153.836)"><stop offset="0" stop-color="#005b30"/><stop offset=".04" stop-color="#006936"/><stop offset=".14" stop-color="#007f40"/><stop offset=".25" stop-color="#009148"/><stop offset=".38" stop-color="#009d4d"/><stop offset=".56" stop-color="#00a450"/><stop offset="1" stop-color="#00a651"/></linearGradient><path fill="url(#SVGID_4_)" d="M156.8 47.2h-6.3l4.2-28h2.2l1.8 12.4z"/><path transform="rotate(-45.001 32.286 32.286)" class="st0" d="M9.5 9.5h45.7v45.7H9.5z"/><path d="M123.1 26.7c.2-3.4-1.4-6.5-4.9-7.3-.4-.1-.8-.2-1.2-.2l2 6.2c.2.7.2 1.4 0 2.1-.1 1.4-.8 2.6-1.8 3.5l1.2 3.6c2.6-1.7 4.3-4.4 4.7-7.5v-.4zM53.7 23c-2.1.3-3.8 1.9-4.2 4l-2.1 12.1c-.1.6-.1 1.2.1 1.8l2 6.3c-.4 0-.9-.1-1.3-.2-3.5-.8-5.7-4.4-4.8-7.9L45.5 27c.7-3.7 3.4-6.7 7-7.8l1.2 3.8zm6.3 4.2h-4c.1-.6.1-1.2-.1-1.8l-2-6.2c.4 0 .8.1 1.2.2 3.6.8 5.7 4.3 4.9 7.8zm-6.2 12.3h4c-.7 3.6-3.4 6.6-7 7.6l-1.2-3.7c2.1-.2 3.8-1.8 4.2-3.9zm12.4 7.7h-7.5l4.9-27.9h4l-4.2 23.9h1.5l1.3 4zm5 0h-3.6l-1.3-4h5.5l-.6 4zm9.1 0h-7.6l4.9-27.9h5.5l1.3 4h-3.5l-1.4 8H81l1.3 4h-3.5l-1.4 8h1.5l1.4 3.9zm4.9 0h-3.6l-1.3-4h5.5l-.6 4zm2-12h-3.5l-1.3-4h5.5l-.7 4zm2.1-12h-3.5l-1.3-4H90l-.7 4zm8.4 17.9h-4.5l-2.3 6h-4.1L96.9 21l.4 9.5-2.6 6.7h2.8l.2 3.9zm5.8 6h-4.1l-1.1-27.9h4.1l1.1 27.9zm17.5 0h-4.5l-3.8-11.9h-1.5l-2.1 12h-4l4.9-28h5.5l1.3 4h-3.5l-1.4 8h4l5.1 15.9z" fill="#fff"/></svg>