<svg width="30" height="30" fill="none" xmlns="http://www.w3.org/2000/svg"><rect width="30" height="30" rx="15" fill="#2158F5"/><rect x="13.5" y="21.5" width="3" height="2" rx="1" stroke="#fff"/><path fill-rule="evenodd" clip-rule="evenodd" d="M20 13v-1a5 5 0 00-10 0v1H9v-1a6 6 0 0112 0v1h-1zM9 19a4 4 0 004 4h.085a1.497 1.497 0 010-1H13a3 3 0 01-3-3H9z" fill="#fff"/><path d="M8.5 14a.5.5 0 01.5-.5h1.5v5H9a.5.5 0 01-.5-.5v-4zm13 0a.5.5 0 00-.5-.5h-1.5v5H21a.5.5 0 00.5-.5v-4z" stroke="#fff"/></svg>