<svg xmlns="http://www.w3.org/2000/svg" width="20" height="20"><path d="M20 15.512A4.489 4.489 0 0115.512 20H4.488A4.491 4.491 0 010 15.512V4.488A4.491 4.491 0 014.488 0h11.024A4.491 4.491 0 0120 4.488z" fill="#0070c7"/><path d="M13.547 16.527a4.709 4.709 0 01-1.421-.227 13.74 13.74 0 01-7.384-5.443 7.839 7.839 0 01-1.6-3.2 3.817 3.817 0 011.237-3.676 2.193 2.193 0 011.814-.252.659.659 0 01.318.363c.4.937.786 1.87 1.174 2.812a.656.656 0 01-.04.539 4.263 4.263 0 01-.842 1.124.564.564 0 00-.076.786 9.374 9.374 0 004.642 3.987.554.554 0 00.726-.171c.333-.418.691-.822 1-1.255a.558.558 0 01.766-.207c.665.307 1.326.62 1.986.932.151.071.3.146.444.212.675.333.665.338.6 1.079-.111 1.452-1.2 2.162-2.485 2.52a2.743 2.743 0 01-.859.077z" fill="#fff" fill-rule="evenodd"/></svg>