<svg width="292" height="213" fill="none" xmlns="http://www.w3.org/2000/svg"><path d="M143 97.5c0 .723 1.09 1.501 1.791 1.89a.815.815 0 00.445.103c1.297-.084 1.968-.846 2.203-1.343a.726.726 0 00.061-.312V95.5c0-.552.445-1 .998-1H160c.672 0 1.625-.47 2.21-.818a.8.8 0 00.377-.513c.174-.794.413-2.623.413-5.669 0-3.465-1.544-4.12-2.403-4.016a1.605 1.605 0 01-.195.016H152c-4.719 0-7.569 4.51-8.456 6.88a.928.928 0 00-.055.249c-.17 2.046-.489 6.088-.489 6.871z" stroke="#000"/><rect opacity=".24" x="110" y="45" width="45" height="97" rx="6" fill="#00BA82"/><rect opacity=".24" x="173" y="26" width="45" height="116" rx="6" fill="#00BA82"/><rect opacity=".24" x="47" y="71" width="45" height="71" rx="6" fill="#00BA82"/><path d="M254 133.5c0 11.874 3.703 11-9 11s-37 .874-37-11 10.297-21.5 23-21.5 23 9.626 23 21.5zm-99.5-6c0 9.941-10.297 18-23 18S92 140.941 92 131c0-9.941 10.297-18 23-18s39.5 4.559 39.5 14.5z" fill="#17104E"/><ellipse cx="220" cy="140" rx="19" ry="22" fill="#17104E"/><path d="M231.5 162h-12l-2-44h14v44z" fill="#17104E"/><ellipse cx="231" cy="140" rx="19" ry="22" fill="#300084"/><ellipse opacity=".4" cx="231" cy="140" rx="12" ry="14" fill="#938FF4"/><ellipse cx="103" cy="140" rx="19" ry="22" fill="#17104E"/><path d="M114.5 162h-12l-2-44h14v44z" fill="#17104E"/><ellipse cx="114" cy="140" rx="19" ry="22" fill="#300084"/><ellipse opacity=".4" cx="114" cy="140" rx="12" ry="14" fill="#938FF4"/><ellipse cx="154" cy="140" rx="19" ry="22" fill="#300084"/><path d="M165.5 162h-12l-2-44h14v44z" fill="#300084"/><ellipse cx="165" cy="140" rx="19" ry="22" fill="#17104E"/><ellipse cx="29" cy="140" rx="19" ry="22" fill="#300084"/><path d="M40.5 162h-12l-2-44h14v44z" fill="#300084"/><ellipse cx="40" cy="140" rx="19" ry="22" fill="#17104E"/><path opacity=".99" fill-rule="evenodd" clip-rule="evenodd" d="M93 140.651c-.369 6.136-6.808 6.849-12 6.849l-69.5-.5c-3.667.333-11-.4-11-6s.333-16.333.5-21c1.167-4.833 5.5-14.429 14.5-17 10.5-3 36.5-9.5 38-9.5 1.2 0 2.833-.667 3.5-1 12.333-7.5 39.4-22.6 49-23 9.6-.4 15.667-.5 17.5-.5h54c14.333-.167 48.8 5.3 72 28.5 2.333.167 7.3 1.6 8.5 6 1.2 4.4.5 25.167 0 35-.333 2.167-1.6 6.5-4 6.5-.99 0-1.617-.397-2-.945V134c0-11.046-8.954-20-20-20h-2c-11.046 0-20 8.954-20 20v7.5c-.333 2.167-2 6-7 6-.856 0-3.014-.006-6.076-.015-12.736-.037-41.106-.119-56.424.015-1.608 0-4.354-.606-5.5-2.717V134c0-11.046-8.954-20-20-20h-2c-11.046 0-20 8.954-20 20v4.063c-.029.434-.03.913 0 1.437v1.151z" fill="#fff"/><ellipse cx="196" cy="87.5" rx="3" ry="2.5" fill="#D9D9D9"/><path d="M103.501 102l.168.471-.168-.471zm-91.907 6.992l.003.5-.003-.5zm1.719-4.05a.5.5 0 00-.438-.899l.438.899zm116.741-9.666a12.23 12.23 0 01-2.168 2.995c-1.011 1.007-2.182 1.729-3.385 1.729v1c1.597 0 3.01-.944 4.09-2.02a13.232 13.232 0 002.357-3.256l-.894-.448zM124.501 100c-.863 0-2.158-.062-3.756-.117a107.64 107.64 0 00-5.439-.07c-3.951.062-8.394.438-11.973 1.716l.336.942c3.421-1.222 7.728-1.596 11.652-1.659 1.957-.031 3.807.016 5.389.071 1.574.054 2.905.117 3.791.117v-1zm-21.168 1.529c-3.262 1.165-6.573 2.816-9.713 4.13-3.178 1.331-6.225 2.341-9.119 2.341v1c3.106 0 6.309-1.079 9.506-2.418 3.235-1.355 6.424-2.954 9.662-4.111l-.336-.942zM84.501 108c-4.802 0-49.746.325-72.91.492l.006 1c23.17-.167 68.106-.492 72.904-.492v-1zm-72.91.492c-.604.004-1.058-.038-1.39-.11-.336-.073-.506-.168-.582-.237-.057-.051-.067-.088-.064-.139.004-.078.044-.214.173-.412.257-.395.76-.871 1.419-1.354a14.52 14.52 0 012.166-1.298l-.438-.899c-.798.389-1.617.876-2.319 1.39-.693.508-1.31 1.069-1.666 1.615-.178.273-.318.583-.334.909a1.15 1.15 0 00.393.931c.259.233.62.38 1.04.472.428.092.962.137 1.608.132l-.007-1z" fill="url(#paint0_linear_1749_25669)"/><path d="M188.381 94.177l-8.123-21.978a.498.498 0 01.488-.67c28.682 1.253 53.275 17.493 55.754 19.971 2 2 .667 3.333-.5 3.5l-47.156-.496a.5.5 0 01-.463-.327z" fill="url(#paint1_linear_1749_25669)"/><path d="M188.381 94.177l-8.123-21.978a.498.498 0 01.488-.67c28.682 1.253 53.275 17.493 55.754 19.971 2 2 .667 3.333-.5 3.5l-47.156-.496a.5.5 0 01-.463-.327z" fill="url(#paint2_linear_1749_25669)"/><path d="M184.5 94.5l-8.5-23h-15.052a12 12 0 00-9.55 4.734l-11.455 15.055c-1.002 1.317-.063 3.211 1.592 3.211H184.5z" fill="url(#paint3_linear_1749_25669)"/><path d="M184.5 94.5l-8.5-23h-15.052a12 12 0 00-9.55 4.734l-11.455 15.055c-1.002 1.317-.063 3.211 1.592 3.211H184.5z" fill="url(#paint4_linear_1749_25669)"/><path d="M145.872 71.003c-10.984.015-40.582.092-47.872.497-7.762 2.043-32.878 16.1-41.81 21.177-.887.503-.526 1.84.494 1.847l72.365.463a4 4 0 003.162-1.517l15.223-19.229c1.038-1.31.11-3.24-1.562-3.238z" fill="url(#paint5_linear_1749_25669)"/><path fill="#A6BCFB" d="M17 127h15v8H17z"/><path opacity=".4" d="M69.543 121.844l-15.195-.298c-.88-.017-1.31-1.084-.687-1.707l1.981-1.981A20 20 0 0169.784 112h16.13c.913 0 1.348 1.125.672 1.74l-3.197 2.907a20.004 20.004 0 01-13.846 5.197z" fill="#2158F5"/><path d="M257 104H129" stroke="url(#paint6_linear_1749_25669)"/><path d="M141 138.5c.333-10.167-4.6-30.3-27-29.5-22.4.8-27.667 21.333-27.5 31.5" stroke="url(#paint7_linear_1749_25669)"/><path d="M255.985 138.97c.318-10.321-4.387-30.759-25.752-29.946-21.365.812-26.388 21.656-26.229 31.976" stroke="url(#paint8_linear_1749_25669)"/><path d="M203 141.5l-61 2" stroke="url(#paint9_linear_1749_25669)"/><path d="M189 106l1.5 13.5.5 22" stroke="#90ABFA"/><path d="M184 107h-10m29 0h-10" stroke="#2158F5"/><path d="M52.5 111.5c-2.167 4.667-5.5 14-10 14h-27c-5-.5-6.5-2-7.5-4-.716-1.431-1-8.333-1.5-11.5" stroke="url(#paint10_linear_1749_25669)" stroke-linecap="round"/><path d="M79.5 141c-1.5-1.5-2.5-4.5-7.5-4.5H1" stroke="url(#paint11_linear_1749_25669)"/><path d="M4.306 121.382c1.54-.689 1.09-4.689.136-7.333-.205-.568-.805-.656-1.106-.133-.86 1.493-2.135 4.518-2.315 7.312-.025.393.218.749.612.768.588.028 1.5-.089 2.673-.614z" fill="#A6BCFB"/><path opacity=".4" d="M62.709 55.08v2.451h-9.746v-2.45h9.746zm-3.535-3.857v10.351h-2.666V51.223h2.666zm14.697 7.88c0 .892-.208 1.644-.625 2.256-.417.606-.99 1.065-1.719 1.377-.722.306-1.543.46-2.46.46-.919 0-1.742-.154-2.471-.46-.73-.312-1.306-.771-1.729-1.377-.423-.612-.635-1.364-.635-2.256 0-.598.12-1.139.362-1.62.24-.489.576-.905 1.006-1.25a4.587 4.587 0 011.533-.801 6.21 6.21 0 011.914-.284c.924 0 1.751.163 2.48.489.73.325 1.302.784 1.72 1.377.416.592.624 1.289.624 2.09zm-2.832-.185c0-.436-.085-.81-.254-1.123a1.715 1.715 0 00-.693-.733 2.092 2.092 0 00-1.045-.253 2.08 2.08 0 00-1.045.254c-.3.169-.534.413-.703.732-.163.312-.244.687-.244 1.123 0 .43.081.8.244 1.113.17.313.403.554.703.723.306.163.66.244 1.064.244s.752-.081 1.045-.244c.3-.17.528-.41.684-.723.163-.312.244-.683.244-1.113zm2.53-6.367c0 .722-.193 1.364-.577 1.924-.384.553-.918.986-1.601 1.298-.678.313-1.452.47-2.325.47-.879 0-1.66-.157-2.343-.47-.684-.312-1.218-.745-1.602-1.298-.384-.56-.576-1.202-.576-1.924 0-.86.192-1.582.576-2.168a3.693 3.693 0 011.602-1.348c.683-.306 1.458-.459 2.324-.459.879 0 1.657.153 2.334.46a3.62 3.62 0 011.601 1.347c.391.586.586 1.308.586 2.168zm-2.813.127c0-.384-.069-.716-.205-.996a1.534 1.534 0 00-.586-.664c-.248-.157-.553-.235-.918-.235-.352 0-.654.075-.908.225-.248.15-.44.368-.576.654-.13.28-.196.619-.196 1.016 0 .384.065.722.195 1.015.137.287.332.511.586.674.254.163.56.244.918.244s.661-.081.909-.244c.254-.163.446-.387.576-.674.136-.293.205-.631.205-1.015zm4.98-.41v-.752c0-.54.117-1.032.352-1.475.234-.443.58-.797 1.035-1.064.456-.267 1.016-.4 1.68-.4.683 0 1.253.133 1.709.4.462.267.807.621 1.035 1.064.234.443.351.934.351 1.475v.752c0 .527-.117 1.012-.351 1.455-.228.442-.57.797-1.025 1.064-.456.267-1.02.4-1.69.4-.677 0-1.247-.133-1.709-.4a2.665 2.665 0 01-1.035-1.064 3.062 3.062 0 01-.352-1.455zm1.866-.752v.752c0 .227.042.446.126.654.092.202.228.368.41.498.19.124.417.185.684.185.28 0 .508-.061.684-.185.176-.13.306-.296.39-.498.085-.208.127-.427.127-.654v-.752c0-.241-.045-.463-.136-.664a1.078 1.078 0 00-.4-.498c-.176-.13-.404-.196-.684-.196a1.141 1.141 0 00-1.074.693 1.7 1.7 0 00-.127.665zm4.931 8.75v-.752c0-.534.117-1.023.352-1.465.24-.443.589-.798 1.045-1.065.462-.267 1.028-.4 1.699-.4.677 0 1.243.133 1.7.4.455.267.8.622 1.034 1.065.235.443.352.93.352 1.465v.752c0 .534-.117 1.022-.352 1.465-.228.442-.57.797-1.025 1.064-.456.267-1.019.4-1.69.4-.677 0-1.246-.133-1.709-.4a2.716 2.716 0 01-1.054-1.065 3.082 3.082 0 01-.352-1.464zm1.875-.752v.752c0 .234.052.455.156.664.105.208.248.374.43.498.189.123.407.185.654.185.313 0 .557-.062.733-.185a.933.933 0 00.361-.498c.072-.209.108-.43.108-.664v-.752c0-.235-.046-.453-.137-.655a1.141 1.141 0 00-.41-.498c-.176-.13-.4-.195-.674-.195-.273 0-.501.065-.684.195-.175.124-.309.29-.4.498-.091.202-.137.42-.137.655zm1.914-8.702L79.38 61.927l-1.367-.723 6.943-11.113 1.367.722z" fill="url(#paint12_linear_1749_25669)"/><path opacity=".4" d="M117.293 29.08v2.451h-9.746v-2.45h9.746zm-3.535-3.857v10.351h-2.666V25.223h2.666zm11.972-2.471V37h-2.812V25.994l-3.379 1.074v-2.216l5.889-2.1h.302zm7.276 7.773l-2.246-.537.81-7.207h7.989v2.276h-5.674l-.352 3.154c.189-.11.475-.228.86-.352.384-.13.813-.195 1.289-.195.69 0 1.302.107 1.836.322a3.64 3.64 0 011.357.938c.378.41.664.911.859 1.504.196.592.293 1.263.293 2.012a5.54 5.54 0 01-.293 1.806 4.482 4.482 0 01-.888 1.523 4.146 4.146 0 01-1.494 1.046c-.599.253-1.309.38-2.129.38a5.83 5.83 0 01-1.778-.273 4.885 4.885 0 01-1.533-.81 4.185 4.185 0 01-1.084-1.3c-.267-.514-.407-1.1-.42-1.757h2.793c.039.403.143.752.313 1.045.175.286.407.507.693.664a2.07 2.07 0 001.006.234c.358 0 .664-.068.918-.205.254-.137.459-.326.615-.566.156-.248.27-.534.342-.86a4.69 4.69 0 00.117-1.074c0-.384-.045-.732-.137-1.045a2.228 2.228 0 00-.42-.81 1.85 1.85 0 00-.722-.528 2.524 2.524 0 00-1.006-.185c-.521 0-.925.081-1.211.244a2.92 2.92 0 00-.703.556zm8.799-4.257v-.752c0-.54.117-1.032.351-1.475.235-.443.58-.797 1.035-1.064.456-.267 1.016-.4 1.68-.4.684 0 1.253.133 1.709.4.462.267.807.621 1.035 1.064.235.443.352.934.352 1.475v.752c0 .527-.117 1.012-.352 1.455a2.596 2.596 0 01-1.025 1.064c-.456.267-1.019.4-1.69.4-.677 0-1.246-.133-1.709-.4a2.673 2.673 0 01-1.035-1.064 3.066 3.066 0 01-.351-1.455zm1.865-.752v.752c0 .227.042.445.127.654.091.202.228.368.41.498.189.124.417.185.684.185.28 0 .507-.061.683-.185.176-.13.306-.296.391-.498.084-.209.127-.427.127-.654v-.752c0-.241-.046-.463-.137-.664a1.081 1.081 0 00-.4-.498c-.176-.13-.404-.196-.684-.196a1.141 1.141 0 00-1.074.693 1.693 1.693 0 00-.127.665zm4.932 8.75v-.752c0-.534.117-1.023.351-1.465a2.733 2.733 0 011.045-1.065c.462-.267 1.029-.4 1.699-.4.677 0 1.244.133 1.699.4a2.67 2.67 0 011.036 1.065c.234.443.351.93.351 1.465v.752c0 .534-.117 1.022-.351 1.465-.228.442-.57.797-1.026 1.064-.455.267-1.019.4-1.689.4-.677 0-1.247-.133-1.709-.4a2.719 2.719 0 01-1.055-1.065 3.086 3.086 0 01-.351-1.464zm1.875-.752v.752c0 .234.052.455.156.664.104.208.247.374.429.498.189.123.407.185.655.185.312 0 .556-.062.732-.185a.937.937 0 00.362-.498c.071-.209.107-.43.107-.664v-.752c0-.235-.046-.453-.137-.655a1.141 1.141 0 00-.41-.498c-.176-.13-.4-.195-.674-.195-.273 0-.501.065-.683.195-.176.124-.31.29-.401.498-.091.202-.136.42-.136.655zm1.914-8.702l-6.944 11.114-1.367-.723 6.943-11.113 1.368.723z" fill="url(#paint13_linear_1749_25669)"/><path opacity=".4" d="M182.293 10.08v2.451h-9.746v-2.45h9.746zm-3.535-3.857v10.351h-2.666V6.223h2.666zm14.844 9.58V18h-9.727v-1.875l4.6-4.932c.462-.514.826-.966 1.093-1.357.267-.397.459-.752.577-1.065.123-.319.185-.621.185-.908 0-.43-.072-.797-.215-1.103a1.6 1.6 0 00-.635-.723c-.273-.17-.612-.254-1.015-.254-.43 0-.801.104-1.113.313a1.992 1.992 0 00-.704.869 3.224 3.224 0 00-.234 1.26h-2.822c0-.847.202-1.621.605-2.325a4.447 4.447 0 011.709-1.69c.736-.422 1.608-.634 2.617-.634.997 0 1.836.163 2.52.488.69.32 1.211.782 1.562 1.387.359.6.538 1.315.538 2.149 0 .468-.075.927-.225 1.377-.15.442-.365.885-.645 1.328a10.61 10.61 0 01-.996 1.328c-.39.449-.823.915-1.298 1.396l-2.471 2.774h6.094zM204.93 9.64v2.46c0 1.068-.114 1.99-.342 2.764-.228.768-.557 1.4-.986 1.895a3.9 3.9 0 01-1.514 1.084 5.217 5.217 0 01-1.953.351 5.743 5.743 0 01-1.602-.215 4.03 4.03 0 01-1.338-.693 4.406 4.406 0 01-1.015-1.181c-.28-.482-.495-1.055-.645-1.72-.15-.663-.224-1.425-.224-2.284V9.64c0-1.068.113-1.983.341-2.745.235-.768.563-1.396.987-1.884a3.874 3.874 0 011.523-1.074 5.216 5.216 0 011.953-.352c.573 0 1.104.075 1.592.225.495.143.941.367 1.338.673.397.306.736.7 1.016 1.182.279.475.494 1.045.644 1.709.15.658.225 1.413.225 2.266zm-2.823 2.832V9.26c0-.515-.029-.964-.087-1.348a3.98 3.98 0 00-.245-.976 2.046 2.046 0 00-.41-.665 1.496 1.496 0 00-.556-.37 1.967 1.967 0 00-.694-.118c-.319 0-.602.062-.849.186a1.585 1.585 0 00-.616.595c-.169.267-.299.625-.39 1.075-.085.442-.127.983-.127 1.62v3.214c0 .514.026.966.078 1.357.059.39.143.726.254 1.006.117.273.254.498.41.674.163.169.348.293.557.37.214.079.449.118.703.118.312 0 .589-.062.83-.185.247-.13.456-.333.625-.606.176-.28.306-.645.39-1.094.085-.449.127-.996.127-1.64zm4.698-5.205v-.752c0-.54.117-1.032.351-1.475.235-.443.58-.798 1.035-1.064.456-.267 1.016-.4 1.68-.4.684 0 1.253.133 1.709.4.462.266.807.621 1.035 1.064.235.443.352.934.352 1.475v.752c0 .527-.117 1.012-.352 1.455a2.597 2.597 0 01-1.025 1.064c-.456.267-1.019.4-1.69.4-.677 0-1.246-.133-1.709-.4a2.674 2.674 0 01-1.035-1.064 3.065 3.065 0 01-.351-1.455zm1.865-.752v.752c0 .227.042.446.127.654.091.202.228.368.41.498.189.124.417.185.684.185.28 0 .507-.061.683-.185.176-.13.306-.296.391-.498.084-.208.127-.427.127-.654v-.752c0-.241-.046-.463-.137-.664a1.081 1.081 0 00-.4-.498c-.176-.13-.404-.196-.684-.196-.26 0-.482.065-.664.196a1.14 1.14 0 00-.41.498 1.694 1.694 0 00-.127.664zm4.932 8.75v-.752c0-.534.117-1.022.351-1.465a2.733 2.733 0 011.045-1.065c.462-.267 1.029-.4 1.699-.4.677 0 1.244.133 1.699.4a2.67 2.67 0 011.036 1.065c.234.443.351.93.351 1.465v.752a3.08 3.08 0 01-.351 1.464 2.6 2.6 0 01-1.026 1.065c-.455.267-1.019.4-1.689.4-.677 0-1.247-.133-1.709-.4a2.719 2.719 0 01-1.055-1.065 3.086 3.086 0 01-.351-1.464zm1.875-.752v.752c0 .234.052.455.156.664.104.208.247.374.429.498.189.123.407.185.655.185.312 0 .556-.062.732-.185a.937.937 0 00.362-.498c.071-.209.107-.43.107-.664v-.752c0-.235-.046-.453-.137-.655a1.141 1.141 0 00-.41-.498c-.176-.13-.4-.195-.674-.195-.273 0-.501.065-.683.195-.176.124-.31.29-.401.498-.091.202-.136.42-.136.655zm1.914-8.701l-6.944 11.113-1.367-.723 6.943-11.113 1.368.723z" fill="url(#paint14_linear_1749_25669)"/><g filter="url(#filter0_i_1749_25669)"><rect x="21" y="162" width="262" height="17" rx="4" fill="#12A953"/></g><rect x="30" y="179" width="262" height="17" rx="4" fill="#007E36"/><path opacity=".7" d="M41 185h102" stroke="#015B27"/><path opacity=".8" d="M58 188h85m-75 3h75" stroke="#015B27"/><path opacity=".7" d="M286 185H171m106-17H162" stroke="#015B27"/><path opacity=".8" d="M267 188h-96m87-17h-96m94 20h-85m76-17h-85" stroke="#015B27"/><path fill="#E0C894" d="M131 179h48v17h-48z"/><g filter="url(#filter1_i_1749_25669)"><rect x="7" y="196" width="262" height="17" rx="4" fill="#12A953"/></g><path opacity=".7" d="M14 202h115" stroke="#015B27"/><path opacity=".8" d="M33 205h96m-85 3h85" stroke="#015B27"/><path opacity=".7" d="M14 202h115m132 0H146" stroke="#015B27"/><path opacity=".8" d="M33 205h96m113 0h-96m-102 3h85m102 0h-85" stroke="#015B27"/><path opacity=".4" d="M30 183a4 4 0 014-4h246v8H30v-4z" fill="url(#paint15_linear_1749_25669)"/><path fill="#FFF1D2" d="M129 162h52v17h-52zm0 34h52v17h-52z"/><rect opacity=".4" x="21" y="160" width="262" height="4" rx="2" fill="url(#paint16_radial_1749_25669)"/><path opacity=".7" d="M27 168h102" stroke="#015B27"/><path opacity=".8" d="M44 171h85m-75 3h75" stroke="#015B27"/><path fill="url(#paint17_linear_1749_25669)" d="M132 165h46v11h-46z"/><path opacity=".45" fill="url(#paint18_linear_1749_25669)" d="M133 181h44v11h-44z"/><path opacity=".45" fill="url(#paint19_linear_1749_25669)" d="M133 198h44v11h-44z"/><defs><linearGradient id="paint0_linear_1749_25669" x1="11.001" y1="109" x2="140.001" y2="81" gradientUnits="userSpaceOnUse"><stop stop-color="#2158F5"/><stop offset="1" stop-color="#2158F5" stop-opacity="0"/></linearGradient><linearGradient id="paint1_linear_1749_25669" x1="208.764" y1="71.5" x2="208.764" y2="95" gradientUnits="userSpaceOnUse"><stop stop-color="#2158F5"/><stop offset="1" stop-color="#255BF5" stop-opacity=".21"/></linearGradient><linearGradient id="paint2_linear_1749_25669" x1="208.764" y1="71.5" x2="208.764" y2="95" gradientUnits="userSpaceOnUse"><stop stop-color="#2158F5"/><stop offset="1" stop-color="#68AFFF"/></linearGradient><linearGradient id="paint3_linear_1749_25669" x1="161" y1="71.5" x2="161" y2="94.5" gradientUnits="userSpaceOnUse"><stop stop-color="#2158F5"/><stop offset="1" stop-color="#255BF5" stop-opacity=".21"/></linearGradient><linearGradient id="paint4_linear_1749_25669" x1="161" y1="71.5" x2="161" y2="94.5" gradientUnits="userSpaceOnUse"><stop stop-color="#2158F5"/><stop offset="1" stop-color="#68AFFF"/></linearGradient><linearGradient id="paint5_linear_1749_25669" x1="101.5" y1="71" x2="101.5" y2="95" gradientUnits="userSpaceOnUse"><stop stop-color="#2158F5"/><stop offset="1" stop-color="#68AFFF"/></linearGradient><linearGradient id="paint6_linear_1749_25669" x1="131.051" y1="105.001" x2="144.575" y2="63.258" gradientUnits="userSpaceOnUse"><stop stop-color="#2158F5"/><stop offset="1" stop-color="#2158F5" stop-opacity="0"/></linearGradient><linearGradient id="paint7_linear_1749_25669" x1="87.37" y1="140.518" x2="147.903" y2="137.993" gradientUnits="userSpaceOnUse"><stop stop-color="#2158F5"/><stop offset="1" stop-color="#2158F5" stop-opacity="0"/></linearGradient><linearGradient id="paint8_linear_1749_25669" x1="204.833" y1="141.018" x2="262.581" y2="138.755" gradientUnits="userSpaceOnUse"><stop stop-color="#2158F5"/><stop offset="1" stop-color="#2158F5" stop-opacity="0"/></linearGradient><linearGradient id="paint9_linear_1749_25669" x1="142.978" y1="139.502" x2="197.674" y2="112.683" gradientUnits="userSpaceOnUse"><stop stop-color="#2158F5"/><stop offset="1" stop-color="#2158F5" stop-opacity="0"/></linearGradient><linearGradient id="paint10_linear_1749_25669" x1="7.237" y1="125.509" x2="58.139" y2="121.866" gradientUnits="userSpaceOnUse"><stop stop-color="#2158F5"/><stop offset="1" stop-color="#2158F5" stop-opacity="0"/></linearGradient><linearGradient id="paint11_linear_1749_25669" x1="2.258" y1="141.003" x2="76.442" y2="109.796" gradientUnits="userSpaceOnUse"><stop stop-color="#2158F5"/><stop offset="1" stop-color="#2158F5" stop-opacity="0"/></linearGradient><linearGradient id="paint12_linear_1749_25669" x1="71" y1="45" x2="71" y2="66" gradientUnits="userSpaceOnUse"><stop stop-color="#4A9029"/><stop offset="1" stop-color="#15B725"/></linearGradient><linearGradient id="paint13_linear_1749_25669" x1="139" y1="19" x2="139" y2="40" gradientUnits="userSpaceOnUse"><stop stop-color="#4A9029"/><stop offset="1" stop-color="#15B725"/></linearGradient><linearGradient id="paint14_linear_1749_25669" x1="204" y1="0" x2="204" y2="21" gradientUnits="userSpaceOnUse"><stop stop-color="#4A9029"/><stop offset="1" stop-color="#15B725"/></linearGradient><linearGradient id="paint15_linear_1749_25669" x1="155" y1="179" x2="155" y2="187" gradientUnits="userSpaceOnUse"><stop/><stop offset="1" stop-opacity="0"/></linearGradient><linearGradient id="paint17_linear_1749_25669" x1="155" y1="165" x2="155" y2="176" gradientUnits="userSpaceOnUse"><stop stop-color="#fff"/><stop offset="1" stop-color="#fff" stop-opacity="0"/></linearGradient><linearGradient id="paint18_linear_1749_25669" x1="155" y1="181" x2="155" y2="192" gradientUnits="userSpaceOnUse"><stop stop-color="#fff"/><stop offset="1" stop-color="#fff" stop-opacity="0"/></linearGradient><linearGradient id="paint19_linear_1749_25669" x1="155" y1="198" x2="155" y2="209" gradientUnits="userSpaceOnUse"><stop stop-color="#fff"/><stop offset="1" stop-color="#fff" stop-opacity="0"/></linearGradient><filter id="filter0_i_1749_25669" x="21" y="162" width="262" height="18" filterUnits="userSpaceOnUse" color-interpolation-filters="sRGB"><feFlood flood-opacity="0" result="BackgroundImageFix"/><feBlend in="SourceGraphic" in2="BackgroundImageFix" result="shape"/><feColorMatrix in="SourceAlpha" values="0 0 0 0 0 0 0 0 0 0 0 0 0 0 0 0 0 0 127 0" result="hardAlpha"/><feOffset dy="1"/><feGaussianBlur stdDeviation=".5"/><feComposite in2="hardAlpha" operator="arithmetic" k2="-1" k3="1"/><feColorMatrix values="0 0 0 0 0.3625 0 0 0 0 1 0 0 0 0 0.636921 0 0 0 0.5 0"/><feBlend in2="shape" result="effect1_innerShadow_1749_25669"/></filter><filter id="filter1_i_1749_25669" x="7" y="196" width="262" height="18" filterUnits="userSpaceOnUse" color-interpolation-filters="sRGB"><feFlood flood-opacity="0" result="BackgroundImageFix"/><feBlend in="SourceGraphic" in2="BackgroundImageFix" result="shape"/><feColorMatrix in="SourceAlpha" values="0 0 0 0 0 0 0 0 0 0 0 0 0 0 0 0 0 0 127 0" result="hardAlpha"/><feOffset dy="1"/><feGaussianBlur stdDeviation=".5"/><feComposite in2="hardAlpha" operator="arithmetic" k2="-1" k3="1"/><feColorMatrix values="0 0 0 0 0.3625 0 0 0 0 1 0 0 0 0 0.636921 0 0 0 0.5 0"/><feBlend in2="shape" result="effect1_innerShadow_1749_25669"/></filter><radialGradient id="paint16_radial_1749_25669" cx="0" cy="0" r="1" gradientUnits="userSpaceOnUse" gradientTransform="matrix(0 2 -131 0 152 162)"><stop stop-color="#17104E"/><stop offset="1" stop-color="#300084" stop-opacity="0"/></radialGradient></defs></svg>