<svg width="72" height="72" fill="none" xmlns="http://www.w3.org/2000/svg"><circle cx="36" cy="36" r="35" stroke="#BDBDBD" stroke-width="2"/><path fill-rule="evenodd" clip-rule="evenodd" d="M44.162 40.901h-1.725l-.599-.595a14.053 14.053 0 003.407-9.183 14.124 14.124 0 00-19.526-13.049A14.12 14.12 0 0017 31.121a14.124 14.124 0 0014.122 14.126 14.046 14.046 0 009.18-3.403l.598.595v1.721L51.76 55 55 51.76 44.162 40.901zm-13.04 0a9.773 9.773 0 01-9.784-9.78 9.78 9.78 0 019.778-9.778 9.777 9.777 0 019.778 9.778 9.78 9.78 0 01-9.772 9.78z" fill="#BDBDBD"/></svg>