<svg width="10" height="14" fill="none" xmlns="http://www.w3.org/2000/svg"><path d="M8.75 5.295h-.625V3.052A3.102 3.102 0 007.19.89a3.133 3.133 0 00-4.379 0 3.102 3.102 0 00-.935 2.162v2.243H1.25c-.331 0-.649.132-.883.365A1.244 1.244 0 000 6.539v6.217c0 .33.133.646.367.879.234.233.552.364.883.365h7.5A1.253 1.253 0 0010 12.756V6.54c0-.33-.133-.646-.367-.88a1.257 1.257 0 00-.883-.364zM5 10.89a1.255 1.255 0 01-1.156-.768 1.238 1.238 0 01.27-1.356 1.252 1.252 0 012.135.88c0 .33-.133.646-.367.878A1.256 1.256 0 015 10.89zm1.937-5.596H3.062V3.052c0-.512.204-1.002.567-1.363a1.943 1.943 0 012.74 0c.364.361.568.851.568 1.363v2.243z" fill="#fff"/></svg>