<svg width="20" height="21" fill="none" xmlns="http://www.w3.org/2000/svg"><path d="M15.219 5.461l-.018.292-.017.278a.269.269 0 01-.07.166L9.686 12.04a.234.234 0 01-.155.076l-.258.018-.27.019-.193.207-.64.688a.229.229 0 01-.34 0l-2.69-2.896a.273.273 0 010-.366l.42-.452c.265-.286.425-.666.45-1.069a.115.115 0 01.03-.07l5.501-5.923a.1.1 0 01.066-.032 1.5 1.5 0 00.993-.484l.42-.452a.229.229 0 01.34 0L16.05 4.2a.273.273 0 010 .366l-.64.689-.191.206z" stroke="#333" stroke-width="1.5"/><rect width="1.006" height="10.002" rx=".503" transform="scale(.96253 1.03611) rotate(-45 16.993 -10.829)" fill="#333"/><rect width="1.003" height="2.427" rx=".502" transform="scale(.96253 1.03611) rotate(-45 8.82 -7.077)" fill="#333"/><path d="M13.674 20.25H1.326a.25.25 0 01-.24-.319l.65-2.274a1.25 1.25 0 011.201-.907h9.126c.558 0 1.048.37 1.202.907l.65 2.274a.25.25 0 01-.24.319z" stroke="#333" stroke-width="1.5"/></svg>