<svg width="20" height="20" fill="none" xmlns="http://www.w3.org/2000/svg"><circle cx="10" cy="10" r="10" fill="#2158F5"/><rect x="8.785" y="15.858" width="2.429" height="1.572" rx=".786" stroke="#fff"/><path fill-rule="evenodd" clip-rule="evenodd" d="M14.286 8.5v-.857a4.286 4.286 0 10-8.573 0v.858h-.856v-.858a5.143 5.143 0 0110.286 0v.858h-.857zm-.856 3.43H6.572 10v3.428-3.428h3.43zm-7.717 1.714h-.856a3.429 3.429 0 003.428 3.429h.074a1.284 1.284 0 010-.857h-.074a2.572 2.572 0 01-2.572-2.572z" fill="#fff"/><path d="M4.5 9.5A.5.5 0 015 9h1.072v4.144H5a.5.5 0 01-.5-.5V9.501zm11 0A.5.5 0 0015 9h-1.072v4.144H15a.5.5 0 00.5-.5V9.501z" stroke="#fff"/></svg>