<svg width="12" height="12" fill="none" xmlns="http://www.w3.org/2000/svg"><path d="M3 0H.667C.3 0 0 .3 0 .667 0 6.927 5.073 12 11.333 12c.367 0 .667-.3.667-.667V9.007c0-.367-.3-.667-.667-.667a7.605 7.605 0 01-2.38-.38.683.683 0 00-.68.16L6.807 9.587a10.1 10.1 0 01-4.394-4.394L3.88 3.727a.669.669 0 00.167-.68 7.574 7.574 0 01-.38-2.38C3.667.3 3.367 0 3 0z" fill="#DADADA"/><path d="M2.36 1.333a8.2 8.2 0 00.3 1.727l-.8.8a9.883 9.883 0 01-.507-2.527H2.36zm6.573 8.014c.567.16 1.147.26 1.734.3v.993c-.88-.06-1.727-.233-2.534-.5l.8-.793z" fill="#1D1E20"/></svg>