<svg width="69" height="38" fill="none" xmlns="http://www.w3.org/2000/svg"><path d="M48.354 11.062c.021 1.016-.53 2.074-1.57 2.55-1.346.618-2.947.034-3.557-1.297-.056-.121-.14-.303-.133-.452l-14.72 2.135s3.393 16.605 19.652 14.277c16.17-2.362 14.986-19.32 14.986-19.32l-14.658 2.107z" stroke="#7CB9FF" stroke-width="2.7" stroke-miterlimit="10" stroke-linecap="round" stroke-linejoin="round"/><path d="M31.412 11.5c-.6 1.4-2 2.5-3.7 2.5-2.2 0-4-1.8-4-4 0-.2 0-.5.1-.7L2.612 3s-5.7 24.8 17.7 31.8c23.3 6.9 32.2-17 32.2-17l-21.1-6.3z" stroke="#7CB9FF" stroke-width="2.7" stroke-miterlimit="10" stroke-linecap="round" stroke-linejoin="round"/><path d="M31.412 11.5c-.6 1.4-2 2.5-3.7 2.5-2.2 0-4-1.8-4-4 0-.2 0-.5.1-.7L2.612 3s-5.7 24.8 17.7 31.8c23.3 6.9 32.2-17 32.2-17l-21.1-6.3z" fill="#fff" stroke="#7CB9FF" stroke-width="2.7" stroke-miterlimit="10" stroke-linecap="round" stroke-linejoin="round"/><path d="M8.312 10.4s-2.2 14.4 13.4 19.1c15.6 4.7 21.9-8.5 21.9-8.5M14.5 17l5.812-2M34.5 23.5l-3.488-5.1M23 24l2.012-5.8" stroke="#0D66CC" stroke-width="2.6" stroke-miterlimit="10" stroke-linecap="square" stroke-linejoin="round"/></svg>