<svg width="64" height="46" fill="none" xmlns="http://www.w3.org/2000/svg"><path d="M31.846 28.04l-5.925 4.547-.14-5.236" stroke="#0D66CC" stroke-width="2.5" stroke-miterlimit="10" stroke-linecap="round" stroke-linejoin="round"/><path d="M31.837 28.04l5.925 4.547.14-5.236M29.27 30.3s.213 3.478 2.567 3.478m-.075.009s-1.609 1.274-1.841 2.874c-.233 1.6-.651 6.8-.651 6.8M34.404 30.3s-.214 3.478-2.567 3.478m.074.009s1.61 1.274 1.842 2.874c.232 1.6.65 6.8.65 6.8" stroke="#0D66CC" stroke-width="2.5" stroke-miterlimit="10" stroke-linecap="round" stroke-linejoin="round"/><path d="M39.696 25.5c2.986 1.962 8.204 3.041 9.562 6.65.725 1.935 1.413 4.623 1.767 6.93a.86.86 0 01.037.27c0 .018-.01.036-.01.055 0 .019.01.037.01.056-.019 2.409-7.73 4.325-17.607 4.502-.688.027-1.395.037-2.13.027l1.042.01a51.462 51.462 0 01-2.13-.065c-9.878-.335-17.552-2.372-17.533-4.781 0-.019 0-.037.01-.056 0-.019-.01-.037-.01-.056 0-.093.019-.177.047-.27.38-2.306 1.116-4.976 1.878-6.9 1.358-3.46 6.297-4.512 9.348-6.307" stroke="#7CB9FF" stroke-width="3" stroke-miterlimit="10" stroke-linecap="round" stroke-linejoin="round"/><path d="M41.566 11.502c-.019-5.311-4.353-9.655-9.674-9.692h-.018c-5.32.037-9.645 4.371-9.673 9.682a2.289 2.289 0 00-.428.55c-.763 1.32-.41 3.543.344 4.845.558.967 1.256 1.367 1.814 1.516 1.209 2.725 3.822 7.218 7.952 7.236 4.14-.018 6.753-4.501 7.962-7.226 1.776-.447 2.586-2.8 2.586-4.512 0-1.134-.354-1.925-.865-2.4v0zM10.211 36.503c-4.287-.455-8.417-1.58-8.436-4.371v-.102c0-.15.019-.298.056-.447.289-1.776.828-3.813 1.423-5.357.67-1.73 1.981-2.92 3.572-3.804l6.492-3.684" stroke="#7CB9FF" stroke-width="3" stroke-miterlimit="10" stroke-linecap="round" stroke-linejoin="round"/><path d="M21.959 3.066a7.898 7.898 0 00-4.223-1.256h-.01c-4.324.028-7.85 3.553-7.868 7.869a2.41 2.41 0 00-.353.446c-.614 1.07-.335 2.883.279 3.944.455.79 1.023 1.116 1.478 1.228.977 2.223 3.107 5.869 6.474 5.887 1.19-.01 2.223-.465 3.107-1.144m32.721 16.463c4.288-.455 8.418-1.58 8.436-4.371v-.102c0-.15-.019-.298-.056-.447-.288-1.776-.827-3.813-1.413-5.357-.67-1.73-1.982-2.92-3.572-3.804l-6.492-3.684" stroke="#7CB9FF" stroke-width="3" stroke-miterlimit="10" stroke-linecap="round" stroke-linejoin="round"/><path d="M41.808 3.066A7.898 7.898 0 0146.03 1.81h.019c4.325.028 7.85 3.553 7.869 7.878.13.13.25.279.353.446.614 1.07.335 2.884-.279 3.944-.456.79-1.023 1.116-1.479 1.228-.976 2.223-3.106 5.869-6.473 5.888-1.19-.01-2.223-.465-3.107-1.145" stroke="#7CB9FF" stroke-width="3" stroke-miterlimit="10" stroke-linecap="round" stroke-linejoin="round"/></svg>