<svg width="67" height="59" fill="none" xmlns="http://www.w3.org/2000/svg"><path d="M6.414 26.558a5.493 5.493 0 00.193 4.228l2.303 4.91c1.44 3.066 3.277 4.917 5.378 5.52l-2.162 1.005a.889.889 0 00-.43 1.188c1.072 2.28 3.804 3.267 6.098 2.201l2.24-1.04a.89.89 0 00.431-1.187l-.228-.498 5.176 4.158c1.432 1.17 3.77 1.275 5.949.27l17.637-8.176c2.17-1.005 3.594-2.848 3.629-4.7l.114-6.368.176.367a.899.899 0 001.195.428l2.24-1.04c2.294-1.065 3.287-3.782 2.215-6.062a.899.899 0 00-1.195-.428l-1.95.909c1.23-2.08 1.177-4.84-.29-7.959l-2.18-4.638a5.852 5.852 0 00-3.19-2.962l-2.425-5.171a.899.899 0 00-1.195-.428l-7.61 3.53a.889.889 0 00-.431 1.187l1.643 3.503-3.559 1.651-17.663 8.185-3.576 1.66-1.643-3.503a.899.899 0 00-1.196-.428l-7.592 3.52a.89.89 0 00-.43 1.189l2.328 4.979zM17.03 43.985a2.817 2.817 0 01-3.198-.594l3.822-1.773.8 1.712-1.424.655zm33.788-9.583c-.026 1.136-1.09 2.42-2.6 3.119L30.58 45.698c-1.503.698-3.172.69-4.051-.035L19.2 39.775c1.142-2.175 13.972-8.727 23.129-12.43.132 0 .263-.027.395-.08l.018-.008-.027-.061c3.876-1.555 7.022-2.56 8.27-2.464l-.167 9.67zM26.59 27.693l10.282-4.76c.782 1.275 1.942 2.428 3.427 3.389-1.81.751-3.735 1.599-5.73 2.525a174.505 174.505 0 00-7.61 3.73c.255-1.809.132-3.442-.369-4.883zm30.572-4.297a2.779 2.779 0 01-1.6 2.821l-1.423.664-.8-1.712 3.823-1.773zM46.063 3.068l1.503 3.206c-.835 0-1.678.157-2.487.533l-3.734 1.73-1.266-2.7 5.984-2.77zm-10.36 10.055l.061 1.642-14.042 6.508-1.23-1.1 15.211-7.05zm-16.978 7.87l2.232 2c.264.237.65.298.976.15l15.114-7.007a.896.896 0 00.519-.838l-.105-2.988 8.374-3.887c2.056-.952 4.508-.07 5.466 1.974l2.18 4.639c1.018 2.184 2.134 6.053-1.495 8.08-.966-.384-2.803-.052-6.028 1.04a82.099 82.099 0 00-3.559 1.31c-1.529-.795-3.392-2.105-4.323-4.08a.899.899 0 00-1.196-.428l-11.819 5.478a.889.889 0 00-.43 1.188c.764 1.633.843 3.677.29 6.053-4.324 2.403-6.793 4.29-7.39 5.635-2.786 1.074-5.141-.393-7.004-4.36l-2.303-4.909a3.778 3.778 0 011.846-5.031l8.655-4.019zm-6.687-2.149l1.265 2.7-3.989 1.852c-.703.323-1.3.777-1.793 1.319l-1.45-3.093 5.967-2.778z" fill="#7CB9FF" stroke="#7CB9FF"/><path d="M49.269 19.673c1.501-.816 2.148-2.9 1.45-4.653-.7-1.752-2.486-2.507-3.988-1.691-1.501.815-2.148 2.9-1.45 4.652.7 1.742 2.486 2.508 3.988 1.692zm-1.795-4.491c.62-.343 1.355-.02 1.648.704.285.726.017 1.582-.604 1.924-.622.342-1.355.02-1.648-.705-.285-.725-.018-1.581.604-1.924zm-4.628 2.583c.998-.584 1.433-2.074.966-3.322-.467-1.248-1.659-1.792-2.658-1.208-.998.584-1.433 2.074-.966 3.322.467 1.248 1.659 1.792 2.658 1.208zm-.524-2.456c.08.221.008.483-.169.594-.177.1-.387.01-.475-.212-.17-.443.475-.825.644-.382zM16.269 34.718a3 3 0 10-2.54-5.437 3 3 0 002.54 5.438zm-1.795-3.84a1.24 1.24 0 011.648.604 1.247 1.247 0 01-.604 1.648 1.24 1.24 0 01-1.649-.604 1.244 1.244 0 01.605-1.648zm4.372-2.066a2.002 2.002 0 00.966-2.658 2.002 2.002 0 00-2.658-.966 2.002 2.002 0 00-.966 2.658 2.002 2.002 0 002.658.966zm-.524-1.965a.362.362 0 01-.169.475.362.362 0 01-.475-.169c-.161-.362.483-.66.644-.306z" fill="#0D66CC"/><path d="M45.727 33.07L29.73 40.671" stroke="#0D66CC" stroke-width="3" stroke-linecap="round"/><path d="M54.313 45.587l5.875 5.144c.205.18.477.269.75.269.272 0 .545-.09.75-.269.416-.365.416-.947 0-1.312l-5.876-5.145a1.161 1.161 0 00-1.5 0c-.416.365-.416.947 0 1.313zM58 42c0 .556.366 1 .81 1h6.38c.45 0 .81-.452.81-1 0-.556-.366-1-.81-1h-6.38c-.444 0-.81.452-.81 1zm-2.07-2c.238 0 .476-.09.655-.269l5.141-5.145a.923.923 0 000-1.312.921.921 0 00-1.311 0l-5.141 5.145A.923.923 0 0055.929 40z" fill="#0D66CC" stroke="#0D66CC"/><path d="M65 56H1v2h64v-2z" fill="#7CB9FF" stroke="#7CB9FF" stroke-width="1.2"/></svg>