<svg width="57" height="52" fill="none" xmlns="http://www.w3.org/2000/svg"><path d="M11.08 17.66l-6 6c-3.31 3.31-.72 11.27 5.78 17.78 6.51 6.51 14.47 9.1 17.78 5.78l6-6" stroke="#7CB9FF" stroke-width="3" stroke-miterlimit="10" stroke-linecap="round" stroke-linejoin="round"/><path d="M10.91 17.83c-3.31 3.31-.72 11.27 5.79 17.78 6.51 6.51 14.47 9.1 17.78 5.79 3.31-3.31.72-11.27-5.78-17.78-6.51-6.51-14.47-9.1-17.79-5.79zm37.34-4.76l5.05 5.05c2.79 2.79.61 9.49-4.87 14.97-2.77 2.77-5.85 4.7-8.59 5.57" stroke="#7CB9FF" stroke-width="3" stroke-miterlimit="10" stroke-linecap="round" stroke-linejoin="round"/><path d="M30.95 20.93c.73-.97 1.56-1.92 2.48-2.85 5.48-5.48 12.18-7.66 14.97-4.87 2.79 2.79.61 9.49-4.87 14.97-1.52 1.52-3.13 2.78-4.72 3.75m-5.15-25.8v4.37c0 2.41-3.84 4.37-8.58 4.37s-8.58-1.96-8.58-4.37V6.13" stroke="#7CB9FF" stroke-width="3" stroke-miterlimit="10" stroke-linecap="round" stroke-linejoin="round"/><path d="M33.66 6.25c0 2.41-3.84 4.37-8.58 4.37S16.5 8.66 16.5 6.25s3.84-4.37 8.58-4.37c4.74.01 8.58 1.96 8.58 4.37z" stroke="#7CB9FF" stroke-width="3" stroke-miterlimit="10" stroke-linecap="round" stroke-linejoin="round"/><path d="M22.01 6.26c0-.52 1.37-.93 3.07-.93 1.7 0 3.07.42 3.07.93m-5.91 18.18s-5.45 1.1-3.45 3.76c1.97 2.62 5.73-.65 7.88.97 2.28 1.73-.06 3.81-3.48 4.87m-5.89-10.1l1.56 1.53m7.36 7.2l1.87 1.84" stroke="#0D66CC" stroke-width="3" stroke-miterlimit="10" stroke-linecap="round" stroke-linejoin="round"/><path d="M10.52 26.62l-8.17 8.17m8.35-1.14l-6 6m11.9-4.14l-7.67 7.66m8.33-.87l-6 6m11.9-4.12l-5.9 5.9" stroke="#7CB9FF" stroke-width="3" stroke-miterlimit="10" stroke-linecap="round" stroke-linejoin="round"/></svg>