<svg width="66" height="52" fill="none" xmlns="http://www.w3.org/2000/svg"><path d="M17.239 25.189c-2.756-2.756-3.969-6.008-2.723-7.254 1.257-1.257 4.498-.033 7.254 2.723" stroke="#7CB9FF" stroke-width="2" stroke-miterlimit="10" stroke-linecap="round" stroke-linejoin="round"/><path d="M21.053 12.158c1.577-.055 3.947 1.136 6.008 3.197l4.564-4.564" stroke="#0D66CC" stroke-width="2" stroke-miterlimit="10" stroke-linecap="round" stroke-linejoin="round"/><path d="M14.042 18.949s.088-1.51 1.213-2.646c1.124-1.124 2.513-1.102 2.513-1.102m.012-.001s1.752 0 2.832-1.08c1.08-1.08.452-1.962.452-1.962m-3.825 13.03c2.756 2.756 6.008 3.969 7.253 2.723 1.257-1.257.034-4.498-2.722-7.254" stroke="#7CB9FF" stroke-width="2" stroke-miterlimit="10" stroke-linecap="round" stroke-linejoin="round"/><path d="M23.479 28.374s1.51-.088 2.645-1.212c1.125-1.125 1.103-2.514 1.103-2.514m0 0s0-1.753 1.09-2.833c1.081-1.08 1.963-.452 1.963-.452m1.93-20.361c1.576-.055 3.946 1.135 6.008 3.197m-6.262-3.186s-1.389-.022-2.513 1.102c-.76.761-1.566 2.315-.695 3.308m12.677 4.795c.056-1.577-1.135-3.947-3.197-6.008m3.176 6.261c-.012.937-.452 1.863-1.103 2.514-.893.893-2.27 1.532-3.472.849" stroke="#7CB9FF" stroke-width="2" stroke-miterlimit="10" stroke-linecap="round" stroke-linejoin="round"/><path d="M21.053 12.158l4.564-4.564c1.576-.055 3.947 1.136 6.008 3.197M30.27 21.374c.055-1.576-1.136-3.947-3.197-6.008l4.564-4.564M30.27 21.374l4.564-4.564c.055-1.576-1.136-3.947-3.197-6.008" stroke="#0D66CC" stroke-width="2" stroke-miterlimit="10" stroke-linecap="round" stroke-linejoin="round"/><path d="M31.427 25.343l-3.186-3.175m7.429-7.398l3.088 3.242m0 0c.518.518-.695 2.59-2.723 4.619-2.028 2.028-4.09 3.241-4.619 2.723" stroke="#7CB9FF" stroke-width="2" stroke-miterlimit="10" stroke-linecap="round" stroke-linejoin="round"/><path d="M32.386 25.32s2.998-.264 9.216 5.953c6.217 6.218 16.8 23.911 21.893 18.818M38.736 18.97s-.265 3 5.952 9.217c6.218 6.217 23.911 16.8 18.818 21.893M21.792 39.85c-8.775 0-15.886-1.72-15.886-3.825 0-2.117 7.11-3.825 15.886-3.825m0 18.795c-9.448 0-17.352-1.587-19.37-3.714m19.37-.751c-10.969 0-19.865-2.15-19.865-4.784 0-.518.353-1.025.992-1.5" stroke="#7CB9FF" stroke-width="2" stroke-miterlimit="10" stroke-linecap="round" stroke-linejoin="round"/><path d="M2.18 40.986s-2.756 3.428.155 6.218l.055.055m.529-7.012s2.513-1.753 2.999-4.222m15.874 3.825c8.775 0 15.886-1.72 15.886-3.825 0-2.117-7.111-3.825-15.886-3.825m0 18.795c9.447 0 17.352-1.587 19.369-3.714m-19.369-.751c10.969 0 19.865-2.15 19.865-4.784 0-.518-.353-1.025-.992-1.5" stroke="#7CB9FF" stroke-width="2" stroke-miterlimit="10" stroke-linecap="round" stroke-linejoin="round"/><path d="M41.404 40.986s2.756 3.428-.155 6.218l-.055.055m-.529-7.012s-2.513-1.753-2.998-4.222" stroke="#7CB9FF" stroke-width="2" stroke-miterlimit="10" stroke-linecap="round" stroke-linejoin="round"/><path d="M25.617 7.594s1.753 0 2.833-1.091c.298-.298.463-.574.552-.827 0 0 .771-1.235 2.954-.055M18.021 15.19c1.577-.055 3.947 1.135 6.008 3.197" stroke="#0D66CC" stroke-width="2" stroke-miterlimit="10" stroke-linecap="round" stroke-linejoin="round"/></svg>