<svg width="56" height="53" fill="none" xmlns="http://www.w3.org/2000/svg"><path d="M22 2l4 10" stroke="#0D66CC" stroke-width="2.7" stroke-linecap="round"/><path d="M16.17 11.187c0 1.997-1.752 3.774-4.114 3.774s-4.114-1.777-4.114-3.774 1.752-3.774 4.114-3.774 4.114 1.777 4.114 3.774z" stroke="#7CB9FF" stroke-width="3"/><path d="M42 16l-4 6h12m-18.875 6L38 33.333 36.75 36l-7.5-1.067L28 32.267M53 34h-9.6L41 38h12" stroke="#0D66CC" stroke-width="2.7" stroke-linecap="round" stroke-linejoin="round"/><path d="M53 9.5c-2.532-.264-11.79-.218-15.717 2.315-3.926 2.533-5.54 6.121-5.857 7.599-.791.211-2.374.253-2.374-1.266-.159-.528-.729-1.584-1.742-1.584h-4.274c-.686-.052-2.09.19-2.216 1.584-.159 1.741-.317 3.324.791 4.116.886.633 5.54.58 7.757.474-.633 1.425-4.274 4.117-4.907 6.175-.634 2.058-.634 9.023 0 10.606.633 1.583 2.058 3.325 4.907 4.908 2.85 1.583 4.274 1.9 7.44 1.9h17.693" stroke="#7CB9FF" stroke-width="3" stroke-linecap="round" stroke-linejoin="round"/><path d="M26.044 42.21v6.016c0 1.002.474 3.008 2.374 3.008h6.332c.792-.159 2.375-.918 2.375-2.692v-1.74M12.056 18.933l4.386 1.813 4.035-2.637M9.249 22.723c2.047.879 6.456 2.637 7.719 2.637s5.204-2.417 7.017-3.626m-11.052 2.637l-1.228 6.263m-2.28-.165c2.573.769 8.07 2.505 9.473 3.296.292.11.877.725.877 2.307v12.525c-.058.879-.596 2.637-2.28 2.637-2.106 0-2.632-1.319-2.632-2.637V37.226H6.267" stroke="#7CB9FF" stroke-width="3" stroke-linecap="round" stroke-linejoin="round"/><path d="M7.67 14.318c-.877.22-2.736.989-3.157 2.307-.421 1.319-1.93 11.317-2.632 16.15-.234 1.484.386 4.45 4.737 4.45m-.351.001l4.035 4.45-7.543 5.932c-.41.385-.913 1.45.35 2.637 1.264 1.187 2.398.494 2.807 0l6.842-4.944" stroke="#7CB9FF" stroke-width="3" stroke-linecap="round" stroke-linejoin="round"/></svg>