<svg width="50" height="50" fill="none" xmlns="http://www.w3.org/2000/svg"><path d="M29.262 25.528a4.299 4.299 0 01-4.255 3.763A4.29 4.29 0 0120.718 25a4.275 4.275 0 013.797-4.254" stroke="#7CB9FF" stroke-width="3" stroke-miterlimit="10" stroke-linecap="round" stroke-linejoin="round"/><path d="M41.264 41.264c8.981-8.983 8.981-23.545 0-32.527-8.983-8.983-23.545-8.983-32.527 0-8.983 8.982-8.983 23.544 0 32.526 8.982 8.983 23.544 8.983 32.526 0z" stroke="#7CB9FF" stroke-width="3" stroke-miterlimit="10" stroke-linecap="round" stroke-linejoin="round"/><path d="M25.007 25.002l10.83-10.831m7.996 10.831h-3.34m-30.973 0H6.182M22.41 37.846v3.34m4.575-3.34v3.34m4.575-3.34v3.34m-6.553-35.01v3.34m-7.172 28.33v3.34" stroke="#0D66CC" stroke-width="3" stroke-miterlimit="10" stroke-linecap="round" stroke-linejoin="round"/></svg>